<svg xmlns="http://www.w3.org/2000/svg" viewBox="0 0 265.53 175.5"><defs><style>.cls-1{fill:#231f20;}</style></defs><g id="Layer_2" data-name="Layer 2"><g id="Layer_1-2" data-name="Layer 1"><path class="cls-1" d="M31.09,59H19L11.55,10.74,11.4,59H0V0H19.16L25,46.74h.17L30.8,0H50V59H38.56V10.74Z"/><path class="cls-1" d="M54.33,59l10-59h16l10,59H77.86l-1.4-10.41H68.12L66.88,59Zm15-21.14h5.78L72.58,10.74h-.17Z"/><path class="cls-1" d="M94.7,0h14.86c10.57,0,15.53,2.81,15.53,13.87V45.09c0,11.06-5,13.87-15.53,13.87H94.7Zm10.9,48.23h2.81c2.47,0,3.47-1.16,3.47-5.12V15.85c0-4-1-5.11-3.47-5.11H105.6Z"/><path class="cls-1" d="M130.2,0H155V10.74H142.26v12H154.4V33.53H142.26v14.7H155V59H130.2Z"/><path class="cls-1" d="M168,59V23h7.44V59Z"/><path class="cls-1" d="M196.72,23H204V59h-9.58l-6.59-25.11h-.11V59h-7.22V23h9.68l6.49,25.3h.1Z"/><path class="cls-1" d="M19,93V89.79C19,86.47,17.92,85,15.52,85s-3.46,1.38-3.46,4.78c0,10.13,19,10.13,19,29,0,12.07-3.8,15.79-15.61,15.79-11,0-15.44-3.24-15.44-13.93v-5.43H12.06v4c0,3.32,1.07,4.78,3.46,4.78S19,122.69,19,119.28c-.08-12-19-10.78-19-30.06C0,78.85,4,74.48,15.52,74.48c10.24,0,15.2,3.73,15.2,14V93Z"/><path class="cls-1" d="M74.68,134v-59h12v59Z"/><path class="cls-1" d="M131.5,87.51c0-9.56,4.21-13.61,15.19-13.61s15.19,4,15.19,13.61v8.18h-12V87c0-1.71-1.49-2.6-3.14-2.6-2.15,0-3.14.89-3.14,4v31c0,3.16,1,4,3.14,4,1.65,0,3.14-.89,3.14-2.59V110.2h12v10.2c0,9.56-4.21,13.62-15.19,13.62S131.5,130,131.5,120.4Z"/><path class="cls-1" d="M168,75.06h12.06V97.85H187V75.06h12v59H187V108.58h-6.94V134H168Z"/><path class="cls-1" d="M206,75.06h24.77V85.8H218.06v12H230.2v10.73H218.06v14.7h12.72V134H206Z"/><path class="cls-1" d="M253.48,92.45V89.21c0-3.32-1.07-4.78-3.47-4.78s-3.47,1.38-3.47,4.78c0,10.13,19,10.13,19,29,0,12.07-3.79,15.8-15.6,15.8-11,0-15.44-3.25-15.44-13.94v-5.43h12v4c0,3.33,1.08,4.78,3.47,4.78s3.47-1.37,3.47-4.78c-.08-12-19-10.77-19-30,0-10.37,4-14.75,15.52-14.75,10.24,0,15.19,3.73,15.19,14v4.53Z"/><path class="cls-1" d="M115.49,88.93V134h-12V85.79H90.85V75.06h37.23V85.79H115.49Z"/><path class="cls-1" d="M58,88.93V134H45.91V85.8H33.32V75.06H70.56V85.79H58Z"/><path class="cls-1" d="M2.53,152.09H5.19v4.17H7.14v2.11H5.19v8c0,.69.3,1,.95,1h1V170H5.74a3.08,3.08,0,0,1-2.29-.9,3.18,3.18,0,0,1-.92-2.47v-8.22H1.19v-2.11H2.53Z"/><path class="cls-1" d="M20,164.15a3.28,3.28,0,0,0,.92,2.51,3,3,0,0,0,2.26.87,3.91,3.91,0,0,0,2.9-1.33L28,167.9a6.15,6.15,0,0,1-4.78,2.22,6.69,6.69,0,0,1-2-.32,4.84,4.84,0,0,1-1-.46,4.71,4.71,0,0,1-.93-.62,5.46,5.46,0,0,1-1.37-2.14,8.73,8.73,0,0,1-.57-3.43,9.92,9.92,0,0,1,.5-3.38,5.92,5.92,0,0,1,1.28-2.16,4.58,4.58,0,0,1,1.77-1.16,5.52,5.52,0,0,1,1.92-.36,5.44,5.44,0,0,1,3.85,1.54,5.75,5.75,0,0,1,1.62,4.25v2.27Zm5.61-2.27a3.54,3.54,0,0,0-.83-2.42,2.85,2.85,0,0,0-3.94,0,3.69,3.69,0,0,0-.84,2.42Z"/><path class="cls-1" d="M38.34,156.26h3.19l2.64,4.43,2.64-4.43H50L45.52,163l4.66,7H47l-2.83-4.56L41.34,170H38.15l4.53-7Z"/><path class="cls-1" d="M60.86,152.09h2.66v4.17h1.94v2.11H63.52v8c0,.69.3,1,.94,1h1V170H64.07a3.12,3.12,0,0,1-2.3-.9,3.21,3.21,0,0,1-.91-2.47v-8.22H59.52v-2.11h1.34Z"/><path class="cls-1" d="M76.39,150.72h2.67v2.74H76.39Zm0,5.54h2.67V170H76.39Z"/><path class="cls-1" d="M90.91,150.72h2.66v15.72c0,.62.33.94,1,.94h.92V170H94.3a3.74,3.74,0,0,1-2.4-.75,3,3,0,0,1-1-2.56Z"/><path class="cls-1" d="M108,164.15a3.24,3.24,0,0,0,.92,2.51,3,3,0,0,0,2.25.87,3.91,3.91,0,0,0,2.9-1.33l1.93,1.7a6.13,6.13,0,0,1-4.78,2.22,6.74,6.74,0,0,1-2-.32,4.77,4.77,0,0,1-1-.46,4.71,4.71,0,0,1-.93-.62,5.35,5.35,0,0,1-1.37-2.14,8.54,8.54,0,0,1-.58-3.43,9.92,9.92,0,0,1,.5-3.38,5.92,5.92,0,0,1,1.28-2.16,4.61,4.61,0,0,1,1.78-1.16,5.48,5.48,0,0,1,5.76,1.18,5.75,5.75,0,0,1,1.62,4.25v2.27Zm5.61-2.27a3.59,3.59,0,0,0-.83-2.42,2.86,2.86,0,0,0-4,0,3.75,3.75,0,0,0-.83,2.42Z"/><path class="cls-1" d="M152.59,168a12.2,12.2,0,0,1-2.45,1.48,6.86,6.86,0,0,1-2.79.62,5.69,5.69,0,0,1-4.27-1.78,5.81,5.81,0,0,1-1.66-4.13c0-2.41,1.24-4.28,3.67-5.63a6.8,6.8,0,0,1-1.11-1.75,4.09,4.09,0,0,1-.48-1.9,4.46,4.46,0,0,1,1.15-3.08,4.23,4.23,0,0,1,6.08,0,4.6,4.6,0,0,1,1.15,3.08c0,1.78-1,3.22-3.11,4.3l4,5a10.41,10.41,0,0,0,1.63-3.22l2.39,1a15,15,0,0,1-1,2.16,11.85,11.85,0,0,1-1.42,2l3.14,3.87h-3.14Zm-6.09-7.6q-2.76,1.65-2.73,3.76a3.35,3.35,0,0,0,1,2.48,3.29,3.29,0,0,0,2.43,1A5.68,5.68,0,0,0,151,166Zm-.65-5.6a2.19,2.19,0,0,0,.42,1.22,5.08,5.08,0,0,0,1,1.25,5.14,5.14,0,0,0,1.82-1.13,2.12,2.12,0,0,0,.48-1.34,1.75,1.75,0,0,0-1.85-1.83,1.73,1.73,0,0,0-1.29.51A1.77,1.77,0,0,0,145.85,154.82Z"/><path class="cls-1" d="M182.41,156.26h2.66v1.43a4.53,4.53,0,0,1,3.43-1.6,4.08,4.08,0,0,1,3.56,1.79,3.59,3.59,0,0,1,.75,1.71,30.9,30.9,0,0,1,0,7,3.76,3.76,0,0,1-.75,1.73,4,4,0,0,1-1.44,1.26,4.52,4.52,0,0,1-2.12.52,3.61,3.61,0,0,1-1.83-.46,5.88,5.88,0,0,1-1.6-1.16v7h-2.66Zm5.29,11.12a2.61,2.61,0,0,0,1.49-.38,2,2,0,0,0,.78-1,5.19,5.19,0,0,0,.35-1.37c0-.5,0-1,0-1.53s0-1.08,0-1.6a5,5,0,0,0-.35-1.38,1.93,1.93,0,0,0-.78-1,2.89,2.89,0,0,0-1.49-.33,2.32,2.32,0,0,0-1.42.39,2.2,2.2,0,0,0-.81,1,5.33,5.33,0,0,0-.32,1.35c-.05.52-.08,1-.08,1.55a14.13,14.13,0,0,0,.08,1.46,5.25,5.25,0,0,0,.32,1.39,2.23,2.23,0,0,0,.81,1A2.32,2.32,0,0,0,187.7,167.38Z"/><path class="cls-1" d="M204.55,156.26h2.66v1.45h.06a4.37,4.37,0,0,1,6.24-.57l-1.95,2.38a2.72,2.72,0,0,0-1.75-.69,2.45,2.45,0,0,0-1.75.69,2.74,2.74,0,0,0-.85,2.18V170h-2.66Z"/><path class="cls-1" d="M223.26,150.72h2.66v2.74h-2.66Zm0,5.54h2.66V170h-2.66Z"/><path class="cls-1" d="M237.77,156.26h2.66v1.45h0a4.24,4.24,0,0,1,3.45-1.62,4.45,4.45,0,0,1,3,1.2,4.69,4.69,0,0,1,1.42,3.56V170H245.7v-8.17a3,3,0,0,0-.74-2.19,2.69,2.69,0,0,0-3.77,0,2.93,2.93,0,0,0-.76,2.19V170h-2.66Z"/><path class="cls-1" d="M260.55,152.09h2.67v4.17h1.94v2.11h-1.94v8c0,.69.29,1,.94,1h1V170h-1.39a3.1,3.1,0,0,1-2.3-.9,3.21,3.21,0,0,1-.92-2.47v-8.22h-1.33v-2.11h1.33Z"/></g></g></svg>