<svg xmlns="http://www.w3.org/2000/svg" viewBox="0 0 1706.81 865.15"><defs><style>.cls-1{fill:#231f20;}</style></defs><g id="Layer_2" data-name="Layer 2"><g id="Layer_1-2" data-name="Layer 1"><path class="cls-1" d="M199.82,379H122.38L74.27,69l-1,310H0V0H123.15l37.68,300.43h1.07L198,0H321.13V379H247.89V69Z"/><path class="cls-1" d="M349.21,379,413.44,0h103l64.22,379H500.49l-9-66.88H437.86l-8,66.88ZM445.82,243.1H483L466.52,69h-1.06Z"/><path class="cls-1" d="M608.72,0h95.54c67.94,0,99.79,18.06,99.79,89.18V289.82c0,71.12-31.85,89.16-99.79,89.16H608.72Zm70.06,310h18c15.93,0,22.3-7.43,22.3-32.91V101.91c0-25.48-6.37-32.9-22.3-32.9h-18Z"/><path class="cls-1" d="M836.92,0H996.16V69H914.41V146.5h78v69h-78V310h81.75v69H836.92Z"/><path class="cls-1" d="M1080,379V148.08h47.83V379Z"/><path class="cls-1" d="M1264.51,148.08h46.42V379h-61.55L1207,217.6h-.68V379H1159.9V148.08h62.21l41.74,162.66h.66Z"/><path class="cls-1" d="M122.08,598V577.16c0-21.35-6.89-30.74-22.29-30.74-15.92,0-22.3,8.88-22.3,30.74,0,65.09,122.08,65.09,122.08,186.43,0,77.6-24.41,101.56-100.31,101.56C28.66,865.15,0,844.31,0,775.57v-34.9H77.49v26.05c0,21.35,6.91,30.71,22.3,30.71,15.93,0,22.29-8.83,22.29-30.71C121.55,689.63,0,697.45,0,573.51c0-66.66,25.48-94.78,99.79-94.78,65.81,0,97.66,24,97.66,90.09V598Z"/><path class="cls-1" d="M480,861.44v-379H557.5v379Z"/><path class="cls-1" d="M845.24,562.5c0-61.43,27.07-87.48,97.67-87.48s97.66,26.05,97.66,87.48v52.61h-77.5v-55.7c0-11-9.55-16.69-20.16-16.69-13.81,0-20.18,5.73-20.18,26V767.69c0,20.3,6.37,26,20.18,26,10.61,0,20.16-5.73,20.16-16.64V708.32h77.5v65.61c0,61.46-27.07,87.51-97.66,87.51s-97.67-26.05-97.67-87.51Z"/><path class="cls-1" d="M1080,482.44h77.48V629h44.6V482.44h77.48v379h-77.48V698h-44.6V861.44H1080Z"/><path class="cls-1" d="M1324.18,482.45h159.23v69h-81.74V629h78v69h-78v94.49h81.74v69H1324.18Z"/><path class="cls-1" d="M1629.33,594.28V573.46c0-21.36-6.91-30.74-22.29-30.74-15.92,0-22.31,8.87-22.31,30.74,0,65.08,122.08,65.08,122.08,186.42,0,77.59-24.41,101.56-100.31,101.56-70.6,0-99.25-20.85-99.25-89.59V737h77.48v26c0,21.36,6.9,30.72,22.31,30.72,15.93,0,22.29-8.83,22.29-30.72-.55-77.08-122.08-69.27-122.08-193.19,0-66.66,25.47-94.79,99.79-94.79,65.8,0,97.65,24,97.65,90.09v29.17Z"/><path class="cls-1" d="M742.38,571.6V861.44h-77.5v-310H584v-69H823.3v69H742.38Z"/><path class="cls-1" d="M372.61,571.61V861.45h-77.5v-310H214.19v-69H453.52v69H372.61Z"/></g></g></svg>