<svg xmlns="http://www.w3.org/2000/svg" viewBox="0 0 104.88 43.43"><defs><style>.cls-1{fill:#191919;}</style></defs><g id="Layer_2" data-name="Layer 2"><g id="Layer_1-2" data-name="Layer 1"><g id="J2OcRU.tif"><path class="cls-1" d="M62.35,35.53H62c-.26,0-.38-.14-.33-.39s-.08-.38-.33-.32-.42-.08-.56-.28c-.38-.57-.6-1.23-1-1.79-.89-1.25-1.52-2.67-2.34-4a13.74,13.74,0,0,1-1-1.72c-.33-.72-.82-1.35-1.18-2-.44-.85-1-1.65-1.41-2.48a.53.53,0,0,0-.67-.28c-.68.15-1.36.23-2,.44-.43.14-1,0-1.41.29a5.08,5.08,0,0,1-1.62.62c-.65.11-1.26.38-1.89.53-.36.08-.72-.08-1.11,0a11.91,11.91,0,0,1-3.47.25,2.49,2.49,0,0,1-.6-.09c-.38-.1-.6.05-.62.44a8.13,8.13,0,0,1-.61,2c-.44,1.39-.93,2.77-1.41,4.16a2.27,2.27,0,0,1-.25.55c-.11.18-.28.28-.44.05s-.26-.09-.34,0-.33.52-.5.78a1.06,1.06,0,0,1-1.12.18.65.65,0,0,1-.25-.84c.65-1.67,1.31-3.34,2-5s1.33-3.3,1.93-5,1.23-3.4,1.88-5.09c.36-.94.85-1.84,1.18-2.8a14.38,14.38,0,0,1,.94-2.21,5.53,5.53,0,0,0,.24-.72c.46-1.17,1-2.28,1.5-3.44a9.82,9.82,0,0,1,.58-1.38.49.49,0,0,0,.05-.27c-.05-.6.08-.86.61-1.07s1-.33,1.38.13a.69.69,0,0,1,.17.22,49.22,49.22,0,0,1,1.86,5.09,10.32,10.32,0,0,0,.71,1.68c.62,1.17,1.22,2.36,2,3.47A16.53,16.53,0,0,0,54,17.23a6.26,6.26,0,0,1,.67.95,2.52,2.52,0,0,0,.71.81,1.26,1.26,0,0,1,.58.88,2.4,2.4,0,0,0,.55,1.06c.46.65.87,1.32,1.27,2s.93,1.42,1.36,2.15c.26.43.53.86.81,1.28.47.69.81,1.45,1.23,2.18s.68,1.42,1.13,2.06.78,1.33,1.23,2a5.2,5.2,0,0,1,.48,1,.47.47,0,0,1-.14.52,2.79,2.79,0,0,1-.61.46c-.25.15-.5.31-.5.67S62.58,35.56,62.35,35.53Zm-19-14a5.65,5.65,0,0,0,1.86-.46,33.1,33.1,0,0,1,4.45-1.26c.55-.13,1.09-.28,1.64-.44.25-.08.46-.2.27-.52A19.39,19.39,0,0,0,50.51,17a1.18,1.18,0,0,1-.27-.66.86.86,0,0,0-.19-.44,6.93,6.93,0,0,1-.7-1.21c-.25-.51-.39-1.06-.59-1.57a17.1,17.1,0,0,0-2-3.22c-.28-.4-.48-.37-.69.07q-.51,1.13-1,2.25c-.31.73-.35,1.54-.63,2.28-.51,1.39-1,2.79-1.51,4.17-.16.41-.14,1-.58,1.2s-.63.72-.81,1.17-.09.51.34.51Z"/><path class="cls-1" d="M63.23,9.93a14.32,14.32,0,0,0,2.42-.35c1.26-.09,2.52-.32,3.79-.37.84,0,1.68-.11,2.51-.2.2,0,.4,0,.6,0a.54.54,0,0,1,.49.36c.1.22-.1.3-.23.41s-.22.35,0,.5a2,2,0,0,1,.47.38c.34.39.34.55,0,1A5.7,5.7,0,0,0,72.65,13a6,6,0,0,1-1.44,2.06.41.41,0,0,1-.33.13.79.79,0,0,0-.65.28,11.44,11.44,0,0,0-1.7,2c-.29.54,0,.88.2,1.26.3.63.7,1.21,1,1.81.18.3.54.43.75.72.68,1,1.21,2,1.88,3A4.73,4.73,0,0,0,74.29,26a8.24,8.24,0,0,1,2.81,2.26,7.71,7.71,0,0,0,.63.65c.64.58.61,1-.12,1.36-.23.1-.26.21-.25.45a1.68,1.68,0,0,1-.54,1.12.45.45,0,0,1-.53.1c-.49-.26-1-.36-1.54-.66a9.6,9.6,0,0,1-3-3.49,2.21,2.21,0,0,0-.22-.29.75.75,0,0,1-.27-.64.34.34,0,0,0-.4-.39.44.44,0,0,1-.43-.2c-.21-.21-.43-.4-.63-.62s-.29-.3,0-.42c.16-.05.1-.17,0-.26a.66.66,0,0,0-.44-.25c-.18,0-.35-.13-.36-.28,0-.4-.32-.67-.46-1s-.22-.65-.68-.6a.3.3,0,0,1-.23-.15,6.26,6.26,0,0,1-.65-1.15,3.19,3.19,0,0,0-1-1.32.65.65,0,0,0-.91,0,1,1,0,0,0-.48,1.29,28.49,28.49,0,0,1,.61,3.19,5.65,5.65,0,0,1,0,2c-.07.4.1.83-.19,1.23-.43.6-.69.68-1.26.21,0,0-.09-.09-.13-.09-.49,0-.62-.41-.87-.73a1.73,1.73,0,0,1-.34-1.05A8.42,8.42,0,0,0,62.25,25c-.11-.58-.27-1.15-.36-1.73a6.43,6.43,0,0,1-.22-.89c0-.14-.13-.23-.28-.25s-.22.09-.28.22-.2.5-.47.39a.56.56,0,0,1-.28-.72,1.13,1.13,0,0,1,.61-.8.67.67,0,0,0,.44-.71A4.84,4.84,0,0,0,61,18.3a6.62,6.62,0,0,1-.82-3.49A7.85,7.85,0,0,0,60,13.38c0-.23-.24-.25-.44-.27-.61,0-.74-.34-.41-.85a5.8,5.8,0,0,1,1.45-1.39,5.45,5.45,0,0,0,.47-.37,1.31,1.31,0,0,1,.94-.4C62.47,10.09,62.93,9.86,63.23,9.93Zm-.31,2.25c-.33,0-.5.16-.39.42a15.59,15.59,0,0,1,.4,1.6,8.73,8.73,0,0,1,.33,1.41c.12.92.37,1.81.54,2.72.06.32.28.37.53.16L64.9,18c.42-.37.9-.68,1-1.29,0-.13.16-.2.27-.29a6.89,6.89,0,0,1,2.16-1.22,1.34,1.34,0,0,0,.81-.77,2.58,2.58,0,0,1,.72-.95c.48-.43.92-.91,1.36-1.37.1-.1.25-.22.17-.38s-.23-.11-.37-.11c-1.07,0-2.14,0-3.21,0a10.83,10.83,0,0,0-1.16.13,6.47,6.47,0,0,0-1.81.3,2.54,2.54,0,0,1-1,.26A2.67,2.67,0,0,1,62.92,12.18Z"/><path class="cls-1" d="M2.84,39c0,.89-.1,1.77-.16,2.65A5.22,5.22,0,0,1,2.26,43s0,0,0,0a.76.76,0,0,1-.64.32c-.58,0-1.26.33-1.57-.5a.38.38,0,0,1,0-.23,7.84,7.84,0,0,0,.24-2.15c.06-.81.07-1.63.11-2.44,0-1,.25-2.08.24-3.13a6.48,6.48,0,0,1,.19-2.2,19.32,19.32,0,0,0,.66-3.18,3.17,3.17,0,0,1,.86-1.64,1.08,1.08,0,0,1,1.21-.29,7.33,7.33,0,0,1,2.23,1.45c1.3,1,2.29,2.34,3.59,3.34,1,.76,1.82,1.67,2.8,2.42A6.37,6.37,0,0,1,13.49,36a.26.26,0,0,0,.33.08.25.25,0,0,0,.17-.32c-.17-.54,0-1.12-.17-1.67a.5.5,0,0,1,0-.32A2.48,2.48,0,0,0,14,32.25a.47.47,0,0,1,0-.31c.17-.23.06-.45,0-.69A6.21,6.21,0,0,1,14,30c.13-1.05.18-2.1.28-3.15.09-.89.23-1.78.36-2.67s.37-1.66.41-2.49a12.44,12.44,0,0,1,.33-2.13c.16-.77.21-1.55.38-2.32a27.49,27.49,0,0,0,.43-2.72,3.25,3.25,0,0,1,.32-1.2,5.62,5.62,0,0,0,.42-1.67A1.9,1.9,0,0,1,18.58,10c.18,0,.26,0,.31.15a.5.5,0,0,0,.34.32c.73.26.9.6.53,1.26a14.43,14.43,0,0,0-1.19,3.61c-.25,1-.43,1.94-.65,2.9a11.25,11.25,0,0,0-.37,2.25,12.83,12.83,0,0,1-.38,2,.46.46,0,0,1-.2.29.21.21,0,0,0-.12.23,10,10,0,0,1-.23,2.38c-.05.68-.13,1.35-.18,2,0,.21,0,.43-.16.6a.21.21,0,0,0-.07.2,26.47,26.47,0,0,1,0,4.27,6.73,6.73,0,0,0,.11,1.11c.1.87.14,1.73.28,2.59a21.87,21.87,0,0,0,.55,2.58,1.58,1.58,0,0,1-.76,1.7,5.7,5.7,0,0,1-1,.28.54.54,0,0,1-.54-.13c-1-.93-2-1.88-3-2.78-.71-.63-1.48-1.19-2.23-1.78-.54-.43-1.06-.9-1.64-1.29S6.91,34,6.41,33.62a4.22,4.22,0,0,1-1.18-1.2,2.79,2.79,0,0,0-1.07-.81.33.33,0,0,0-.53.24c-.11.76-.36,1.48-.41,2.25-.07,1-.29,2-.31,3.09,0,.61-.06,1.23-.09,1.84Z"/><path class="cls-1" d="M74.26,4.25a14.09,14.09,0,0,0,1.49-.11c.89.07,1.61-.5,2.46-.44.52,0,1.05,0,1.57,0,.92,0,1.81-.25,2.72-.29a.52.52,0,0,0,.3-.11c.56-.57,1.29-.42,2-.48a5.44,5.44,0,0,0,1.5-.27,1.37,1.37,0,0,1,.49-.09,14.68,14.68,0,0,0,2.56-.31c1-.17,1.94-.25,2.91-.37a6.47,6.47,0,0,1,1.27-.18c.63.05,1.2-.32,1.84-.15.32.08.56-.25.88-.25.09,0,.2-.09.27-.06.78.32,1.4-.33,2.13-.34.22,0,.39,0,.48.22s.25.29.3.05c.11-.45.46-.46.77-.49a2.34,2.34,0,0,0,.7-.13c.57-.26,1.23-.1,1.8-.41.14-.08.34.07.47.18s.1.21,0,.28c-.41.18-.73.61-1.28.41-.15-.06-.34.08-.41.26s.1.23.2.32.28.08.39-.08.27-.11.41-.08.17,0,.19.12,0,.16-.1.21a3,3,0,0,1-.63.35A11.79,11.79,0,0,1,99,2.79a.43.43,0,0,0-.2,0,14.82,14.82,0,0,1-2.72.59c-.79.24-1.61.37-2.4.63-.27.09-.59,0-.87.13a46.76,46.76,0,0,1-7,1.2l-1.92.24c-.31,0-.39.15-.34.48.07.51.1,1,.21,1.54a1.38,1.38,0,0,0,.3.65,1,1,0,0,1,.16.8,3.61,3.61,0,0,0,0,.93.51.51,0,0,0,.32.47.75.75,0,0,1,.47.65,8.23,8.23,0,0,1,.33,2.14c0,.34.23.64.27,1a12.36,12.36,0,0,1,.24,2.59c0,.38.25.77.26,1.19a1.29,1.29,0,0,0,0,.19c0,.11.07.24-.07.29s-.2-.1-.25-.21,0-.51-.3-.49-.13.34-.2.52a1.19,1.19,0,0,0,.46,1.34,1.29,1.29,0,0,1,.44.88c.07.62.09,1.25.12,1.88a8.65,8.65,0,0,0,.65,2.23,9.44,9.44,0,0,1,.44,1.72,2,2,0,0,0,.17.66c0,.07.08.18,0,.22-.26.34,0,.8-.33,1.13-.13.15-.06.36-.05.55,0,.46-.1.56-.77.69-.38.08-.45-.2-.52-.43-.31-1.15-.6-2.31-.82-3.48a13.74,13.74,0,0,0-.43-2.14c-.48-1.36-.74-2.79-1.13-4.18a18.86,18.86,0,0,1-.61-3.68c0-.28,0-.48.33-.55s.35-.28.25-.56c-.38-1.06-.65-2.15-1-3.23a3.4,3.4,0,0,1-.39-1.94c0-.14-.08-.25-.16-.36-.33-.51-.32-.67.06-1.13.11-.13.18-.26.07-.4A1.94,1.94,0,0,1,82,7c-.09-.28-.36-.6.2-.71A.16.16,0,0,0,82.29,6a.26.26,0,0,0-.37,0,1,1,0,0,1-.61.35c-.07,0-.19,0-.23,0-.49-.46-1,0-1.43.05a4.93,4.93,0,0,0-1,.35,1,1,0,0,1-1,0,.47.47,0,0,0-.35,0,7.35,7.35,0,0,1-1.39.24,1.87,1.87,0,0,1-1.4-.8A.52.52,0,0,0,74,5.91l-1.64-.15a1.07,1.07,0,0,1-.31-.06c-.23-.11-.55-.22-.54-.48s.36-.14.55-.22.26-.06.39-.1a.18.18,0,0,0,.11-.23c-.18-.4.21-.28.37-.27C73.39,4.42,73.81,4.18,74.26,4.25ZM99.33,1.88a.2.2,0,0,0-.2-.2c-.1,0-.2,0-.21.13s.09.17.2.18S99.31,2,99.33,1.88Z"/><path class="cls-1" d="M27.25,35.9a5.84,5.84,0,0,0,1.33-.9c.06,0,.12-.12.05-.2a.16.16,0,0,0-.22,0,1.76,1.76,0,0,1-1.33.52c-.26,0-.45.26-.71.35-.75.24-1.53.37-2.28.64a1.67,1.67,0,0,1-.91,0,1.75,1.75,0,0,0-.91,0,1,1,0,0,1-.8-.2c-.06,0-.15-.09-.12-.18s.14-.08.23-.06l.05,0c.14.09.36.28.45.1s-.21-.26-.35-.34a1.35,1.35,0,0,0-.76-.25.46.46,0,0,1-.29-.11,3.47,3.47,0,0,1-1-1.17.67.67,0,0,1,.59.39,1.94,1.94,0,0,0,.15.24.2.2,0,0,0,.26,0,.14.14,0,0,0,0-.21,7.36,7.36,0,0,0-.57-.88c-.15-.17-.25-.44-.55-.13s-.27,0-.33-.2a4,4,0,0,1,.07-2.45c.34-1.28,1.1-2.38,1.56-3.61a6,6,0,0,1,1-1.45c.09-.11.3-.18.15-.4s0-.12.11-.13a.27.27,0,0,0,.28-.23,1.24,1.24,0,0,1,.73-.91,17.41,17.41,0,0,1,2.3-1.22,3.59,3.59,0,0,1,3.39.52,7.14,7.14,0,0,1,2.21,2.3,6.51,6.51,0,0,0,.61.8,5.56,5.56,0,0,1,.83,1.9.26.26,0,0,1,0,.23,5.39,5.39,0,0,0-.69,2.5,1.46,1.46,0,0,1-.58,1,1.75,1.75,0,0,0-.46.64,3.6,3.6,0,0,1-.79.91c-.17.17-.34.34-.27.62a.16.16,0,0,1-.09.21c-.38.15-.51.58-.87.76a.8.8,0,0,0-.23.22C28.05,36,28.06,36,27.25,35.9ZM27,25.39a3.32,3.32,0,0,0-2.65,1.13,10.47,10.47,0,0,0-1.81,2.7,4.28,4.28,0,0,0-.32,2.24,4.41,4.41,0,0,0,.89,2,1.13,1.13,0,0,0,1.63.48c.89-.33,1.72-.77,2.63-1a5,5,0,0,0,1.9-1.22,3.67,3.67,0,0,0,.22-4.45,1.19,1.19,0,0,1-.24-.36A2.06,2.06,0,0,0,27,25.39Zm-6.56,6.05a4.36,4.36,0,0,0,.05.52.14.14,0,0,0,.13.13.13.13,0,0,0,.11-.14,5.16,5.16,0,0,1,.51-2.22c0-.09.08-.23,0-.29s-.18.1-.23.18A3.15,3.15,0,0,0,20.46,31.44Z"/><path class="cls-1" d="M21.19,26a.91.91,0,0,1,.41-.54c.06,0,.12-.06.18,0s0,.12,0,.18A.63.63,0,0,1,21.19,26Z"/><path class="cls-1" d="M103.62,1.31c0,.12-.11.14-.2.15s-.22,0-.24-.06.12-.15.21-.18S103.58,1.2,103.62,1.31Z"/><path class="cls-1" d="M104.39.18c.18,0,.27-.27.46-.14s0,.13,0,.18S104.56.27,104.39.18Z"/></g></g></g></svg>