<svg xmlns="http://www.w3.org/2000/svg" viewBox="0 0 121.26 50.01"><defs><style>.cls-1{fill:#191919;}</style></defs><g id="Layer_2" data-name="Layer 2"><g id="Layer_1-2" data-name="Layer 1"><path class="cls-1" d="M66.7,29.12V29a6.37,6.37,0,0,1,0-1,2.55,2.55,0,0,1,.12-.6,1.17,1.17,0,0,0,0-.27,5,5,0,0,1,.2-.76l.12-.38a3.84,3.84,0,0,1,.14-.36,1.47,1.47,0,0,1,.15-.34.51.51,0,0,0,.06-.29c0-.05,0-.05.07-.08s.17-.16.16-.29,0-.11.06-.15l.07-.06a.47.47,0,0,0,.18-.31c0-.05,0-.09.07-.08.07-.16.25-.24.29-.43a.5.5,0,0,1,.25-.32.51.51,0,0,0,.22-.24.24.24,0,0,1,.13-.13c.06,0,.09-.09.14-.13s.15-.2.28-.25.16-.22.27-.3.1,0,.11-.11.18-.06.26-.12.26-.12.31-.27,0,0,0,0,.14-.06.21-.09.14-.12.23-.14,0,0,0-.05,0-.09.1-.08.17,0,.16-.07.08-.11.16-.11.24,0,.3-.14.06,0,.09,0a.31.31,0,0,0,.29-.09c.07-.08.18,0,.24-.09s0,0,0,0,.21-.14.37-.14a1,1,0,0,0,.4-.11c.12,0,.25-.06.38-.09a1,1,0,0,1,.36-.06.18.18,0,0,0,.19-.06.07.07,0,0,1,.1,0c.14.06.26,0,.39,0s.28,0,.43,0h.42c.06,0,.11-.08.15-.05a.23.23,0,0,0,.19,0,1.08,1.08,0,0,0,.18,0,.41.41,0,0,0,.2,0s0,0,0,0a.47.47,0,0,0,.2.1,1.59,1.59,0,0,1,.57.1,9,9,0,0,1,.88.28c.28.1.53.23.79.35a6.67,6.67,0,0,1,1,.57,3.17,3.17,0,0,1,.57.47c.19.21.4.4.6.6a.85.85,0,0,1,.24.32.3.3,0,0,0,.12.13c.08.05.17.08.15.2s.08.11.14.14,0,.16.11.16,0,.06,0,.08a2.35,2.35,0,0,0,.27.63,2.54,2.54,0,0,1,.16.38,1.16,1.16,0,0,1,.13.37c0,.05.11,0,.09.12a.55.55,0,0,0,0,.18s0,0,.07.06.11.06,0,.14,0,.11,0,.17a0,0,0,0,0,0,0c.07,0,.07,0,0,.08a.09.09,0,0,0,0,.08c.05.1,0,.22.05.32a1.14,1.14,0,0,1,0,.45c0,.16.06.31.06.47s-.07.27-.06.41a1.08,1.08,0,0,1,0,.4c-.08.31-.12.63-.21.94a8.46,8.46,0,0,1-.28.8c0,.1-.09.2-.13.3s-.11.17-.14.27a.87.87,0,0,1-.18.26c-.06.08-.1.19-.2.23s-.05,0-.05.05a1.07,1.07,0,0,1-.32.44c-.1.11-.21.22-.3.34a2,2,0,0,1-.46.4l-.36.26-.27.17a4.35,4.35,0,0,1-.76.35,3.62,3.62,0,0,1-.56.17,2.81,2.81,0,0,0-.59.12c-.25,0-.5.07-.74.05a1.37,1.37,0,0,0-.28-.05.33.33,0,0,1-.27,0s-.08,0-.13,0,0,0,0,0-.23-.07-.35-.11a2.36,2.36,0,0,0-.47-.16,1.54,1.54,0,0,1-.32-.15c-.1,0-.19-.13-.31-.11s0-.09-.11-.1-.19-.13-.29-.16-.1-.15-.21-.15-.08-.11-.15-.15a1.21,1.21,0,0,1-.16-.16c-.06-.06-.11-.14-.18-.16s-.08-.11-.13-.15a3.1,3.1,0,0,1-.47-.61,4.69,4.69,0,0,1-.43-.87,2.26,2.26,0,0,1-.1-.45,3.41,3.41,0,0,1,0-1,3,3,0,0,1,.19-.81c0-.13.12-.26.18-.39a.34.34,0,0,0,0-.11c0-.11.1-.17.15-.25a2.87,2.87,0,0,1,.62-.68,2.22,2.22,0,0,1,.8-.43,1.91,1.91,0,0,1,.34-.1c.11,0,.23,0,.34-.08a1.21,1.21,0,0,1,.38,0c.12,0,.25-.05.36,0s.31.1.48.09.35.16.51.27a2.06,2.06,0,0,1,.68.81c0,.09.14.14.15.25s0,.1,0,.16a1.42,1.42,0,0,1,.06.31,2.57,2.57,0,0,1,0,.48,1.67,1.67,0,0,1-.2.62s-.06.08-.06.12-.08.06,0,.11,0,0,0,0c-.18.07-.19.28-.32.39s0,0,0,0,0,.17.15.15.14-.06.22,0h0c.06,0,0-.12.1-.12a.53.53,0,0,0,.18,0,1.17,1.17,0,0,0,.3-.14,2.25,2.25,0,0,0,.59-.6,2.69,2.69,0,0,0,.29-.59,2.25,2.25,0,0,0,.11-.63c0-.17,0-.35,0-.53a2.77,2.77,0,0,0-.24-1,1.92,1.92,0,0,0-.23-.42c-.06-.1-.09-.22-.22-.26s0,0,0-.05a.22.22,0,0,0-.09-.19c-.15-.14-.28-.29-.43-.43a4.56,4.56,0,0,0-.55-.4,4.4,4.4,0,0,0-1-.44,1,1,0,0,0-.48-.09c-.12-.09-.27,0-.4-.06s-.26,0-.39,0-.19,0-.29,0a.52.52,0,0,0-.3,0,.88.88,0,0,1-.29,0,3.58,3.58,0,0,0-.56.16,3.87,3.87,0,0,0-.83.38,3.64,3.64,0,0,0-.52.35c-.09.07-.21.12-.25.25s-.06,0-.09,0a.57.57,0,0,0-.28.29.6.6,0,0,1-.17.22,1,1,0,0,0-.32.35.16.16,0,0,1-.15.07c-.11,0-.15.07-.11.16s0,.07,0,.13-.18.38-.28.57a4.81,4.81,0,0,0-.29.71,2.8,2.8,0,0,0-.06.28,1.39,1.39,0,0,1-.09.35v0a2.5,2.5,0,0,1,0,.47c0,.31,0,.62,0,.94a.8.8,0,0,0,0,.34.21.21,0,0,1,0,.17s-.05,0,0,0,.07.16.07.24.08.14,0,.23a2.8,2.8,0,0,1,.13.41s0,.09,0,.09.09.1.08.16a.44.44,0,0,0,.17.41s.07.05.06.1,0,.19.13.26,0,0,0,.1,0,.15.07.21a2.13,2.13,0,0,1,.25.34c0,.05.07.08.08.15a.33.33,0,0,0,.09.16.4.4,0,0,1,.16.2.92.92,0,0,0,.24.28,5.12,5.12,0,0,0,.59.55.3.3,0,0,1,.12.13c0,.09.1.12.19.15a1,1,0,0,1,.37.23c.11.09.24.13.32.26a.37.37,0,0,0,.23.12A1,1,0,0,1,74,35a5,5,0,0,0,.84.31,6.84,6.84,0,0,0,.81.19c.2,0,.41,0,.61.09s.42,0,.63,0h.63c.09,0,.17-.06.27,0a.5.5,0,0,0,.27,0,2.69,2.69,0,0,1,.32-.05,6.22,6.22,0,0,0,1.27-.32c.21-.11.45-.17.65-.3a3.12,3.12,0,0,1,.42-.18.57.57,0,0,0,.3-.2.83.83,0,0,1,.15-.11,3.9,3.9,0,0,0,.59-.41,9.2,9.2,0,0,0,1.12-1,4.74,4.74,0,0,0,.4-.49c.12-.15.23-.32.34-.48a4.15,4.15,0,0,0,.38-.64c.06-.12.13-.23.18-.35a10.14,10.14,0,0,0,.48-1.3,3.52,3.52,0,0,0,.11-.49,2.09,2.09,0,0,0,.08-.61c.08-.11,0-.23,0-.34a.13.13,0,0,0,0-.13s-.08-.07-.08-.08.08,0,.12,0,.05,0,.05-.07c0-.36,0-.72,0-1.07,0-.1-.07-.18,0-.28a.57.57,0,0,0,0-.26c-.07-.23,0-.47-.12-.68s-.1-.36-.1-.55-.06-.15-.08-.23c-.07-.24-.14-.48-.23-.71s-.12-.35-.19-.52a7.23,7.23,0,0,0-.47-.92c-.15-.25-.3-.49-.46-.73,0-.07-.13-.13-.13-.23s0,0,0,0c-.18-.05-.22-.22-.32-.34a1.16,1.16,0,0,1-.3-.36c-.11,0-.13-.16-.21-.22a2.72,2.72,0,0,1-.24-.24l0,0-.29-.11c0-.14-.1-.19-.17-.27a2.34,2.34,0,0,0-.49-.39.83.83,0,0,1-.21-.17c-.06-.06-.16-.09-.23-.15a.34.34,0,0,0-.25-.08.16.16,0,0,1-.2-.12c0-.1-.07-.11-.12-.13l-.34-.19a3.15,3.15,0,0,0-.56-.26,4.54,4.54,0,0,0-.7-.26,2.29,2.29,0,0,1-.37-.12c-.12-.06-.25-.05-.36-.12s-.08,0-.13,0-.07,0-.1,0l-.13-.07s-.07.09-.12,0a1.35,1.35,0,0,1-.59-.14s-.06.07-.1,0-.07,0-.11,0-.17,0-.25,0,0,0,0,0-.23.11-.34,0H74.58c-.09,0-.16.06-.25.05a.61.61,0,0,0-.27,0,.6.6,0,0,1-.29,0c-.08,0-.13.05-.21.05a.22.22,0,0,0-.19,0s-.11,0-.17,0-.1,0-.16.05a3.09,3.09,0,0,0-.67.15,1.65,1.65,0,0,0-.36.11s-.08,0-.11,0a.08.08,0,0,1-.09,0,.8.8,0,0,0-.41.1c-.39.19-.8.34-1.18.55s-.66.37-1,.58-.51.34-.74.53l-.37.3c-.35.28-.63.62-1,.92-.14.13-.25.3-.39.44s0,0,0,.05,0,.13,0,.18-.1,0-.13,0-.18.12-.17.25,0,.06-.07.08-.16.22-.27.31,0,.06,0,.08,0,.17-.11.2-.11.13-.15.2-.18.21-.17.35a.11.11,0,0,1,0,.06,1.69,1.69,0,0,0-.35.57.69.69,0,0,0-.12.42.1.1,0,0,1,0,.1c-.17.12-.2.33-.27.51s-.17.55-.26.83a3.38,3.38,0,0,0-.08.34c0,.11,0,.22-.07.33a5.58,5.58,0,0,1-.09.59c0,.14,0,.28-.06.42s0,.29,0,.43a8.15,8.15,0,0,0,0,1.1c0,.14.06.25,0,.38a1.21,1.21,0,0,0,0,.38,1.43,1.43,0,0,1,0,.41c0,.08.06.13,0,.2s0,.14,0,.19,0,.06,0,.09a6.16,6.16,0,0,0,.21,1l.24.86c.08.27.19.52.29.78.17.45.39.88.6,1.31.13.24.3.47.44.71s.27.4.4.59.25.33.37.49a7.79,7.79,0,0,0,.71.8,1.71,1.71,0,0,0,.18.2A1.24,1.24,0,0,1,68,38c.1.1.22.16.32.26a1.2,1.2,0,0,0,.29.26,1.14,1.14,0,0,1,.19.19,1,1,0,0,0,.2.15c.09,0,.13.13.21.18s.17.07.19.14.14-.07.11.06.08.1.16.12.08.07.14.09a.72.72,0,0,1,.15.11c.2.11.39.24.59.36s.67.35,1,.52l.82.34a3.54,3.54,0,0,0,.55.18,1,1,0,0,1,.31.1,3.14,3.14,0,0,0,.58.16,1.43,1.43,0,0,0,.5.09h0c.08.12.2.09.3.08a.68.68,0,0,1,.29.06.92.92,0,0,0,.28,0c.25,0,.5.08.76.05a3.46,3.46,0,0,0,.85,0h.6a3.33,3.33,0,0,1,.63,0,.64.64,0,0,1,.41,0,2.14,2.14,0,0,0,.27-.06.74.74,0,0,0,.25,0,1.54,1.54,0,0,1,.31,0,4.48,4.48,0,0,0,.5-.11l.3-.07c.37-.09.74-.2,1.1-.32a2.06,2.06,0,0,1,.26-.12,1.17,1.17,0,0,1,.2,0h0a2,2,0,0,1,.48-.2,1.2,1.2,0,0,0,.45-.26s.08,0,.12,0a.37.37,0,0,0,.14,0,1.08,1.08,0,0,1,.24-.12.46.46,0,0,0,.23-.14c.23,0,.38-.23.58-.33,0,0,.08,0,.08-.09a0,0,0,0,1,0,0c.2,0,.33-.2.51-.27s0-.15.17-.14.11-.07.17-.11.17-.17.3-.2a.13.13,0,0,0,.07-.1.09.09,0,0,1,.1-.07.2.2,0,0,0,.17-.08,4.58,4.58,0,0,1,.53-.44l.09-.09.73-.73a11.26,11.26,0,0,0,.85-1c.31-.37.57-.78.85-1.17a.85.85,0,0,0,.15-.58.17.17,0,0,0,0-.07c-.14-.19-.06-.4-.08-.61s.08-.14.17-.16.09,0,.1,0,.08-.11,0-.18a.33.33,0,0,1,0-.29,1.08,1.08,0,0,0,0-.19c0-.09,0-.18,0-.27s0-.18,0-.27a.3.3,0,0,0,0-.29,2.83,2.83,0,0,1-.16-.36c-.06-.11,0-.17.11-.21s.1-.06.09-.13a.41.41,0,0,0,0-.16c-.07-.16-.08-.34-.14-.5s-.08-.3-.24-.37a.05.05,0,0,1,0-.07s0,0,.06,0a.4.4,0,0,1,.11,0s0,0,0-.06a.51.51,0,0,0-.07-.3c-.06-.13-.11-.25,0-.38s0-.09,0-.13a1,1,0,0,1,0-.39.32.32,0,0,0,0-.23c-.05-.08,0-.11.07-.2s.13-.06.18-.12.06-.13,0-.15-.09-.05-.14-.06-.09-.13,0-.19a2,2,0,0,1,.3-.2c.08-.05.08-.08,0-.14s-.09-.07,0-.19c.13-.32.29-.64.45-1a4,4,0,0,0,.23-.66,2.25,2.25,0,0,1,.08-.24.19.19,0,0,1,.1-.1c.08,0,.18-.1.17-.23l0,0a.07.07,0,0,0,.06-.12c-.06-.06,0-.1,0-.15s.11-.09.11-.18.08-.22,0-.35,0-.07,0-.11-.12-.16,0-.22,0-.12,0-.17-.07-.32-.12-.48-.09-.35-.14-.52c-.12-.41-.26-.81-.39-1.2a9,9,0,0,0-.43-1c-.09-.18-.17-.36-.27-.53s-.32-.58-.5-.87-.3-.5-.46-.74-.21-.29-.32-.43l-.33-.42c-.22-.27-.46-.52-.69-.79a6.88,6.88,0,0,0-.59-.62c-.24-.23-.5-.44-.75-.66a7.57,7.57,0,0,0-.79-.61,8.6,8.6,0,0,0-.74-.49,6.22,6.22,0,0,1-.54-.35l-.07,0c-.33-.15-.62-.36-1-.49a1.48,1.48,0,0,1-.21-.13c-.16-.1-.34-.13-.5-.22a.05.05,0,0,0-.07,0s0,0,0,0-.07-.13-.12-.14A3.27,3.27,0,0,1,80.8,13a3.58,3.58,0,0,1-.48-.24,1.55,1.55,0,0,1-.64-.55c-.05-.08-.19-.13-.16-.22s0-.15,0-.22,0-.08,0-.13V10.9c0-.07,0-.15.07-.19a.65.65,0,0,1,.25-.39s0-.07,0-.12,0-.13.12-.11.1,0,.15-.07A2.44,2.44,0,0,1,81,9.59a.38.38,0,0,1,.43.08s.08,0,.12,0a.33.33,0,0,1,.24.08.18.18,0,0,0,.13.06.46.46,0,0,1,.26.06.69.69,0,0,0,.31.12c.07,0,.13.09.2.12a.65.65,0,0,1,.31.18.19.19,0,0,0,.11,0,.66.66,0,0,1,.33.12c.06,0,.11.08.19.06s.06,0,.06,0,.13.13.22.11.1.08.17.11.13.15.25.12.26.13.37.22l.2.16h0c.09-.08.14.06.21.05s.11.05.16.09a.31.31,0,0,0,.28.09s0,0,0,.06.09.19.19.26a7.61,7.61,0,0,1,.75.51l.37.28c.08.07.19.07.24.19s.16.13.25.2c.38.32.75.67,1.11,1,.12.12.22.24.34.35s.24.23.35.35l.59.69a10.49,10.49,0,0,1,.64.85c.13.18.29.35.41.54s.38.6.57.9.33.63.53.93a2,2,0,0,1,.22.44c.05.15.17.27.18.44h0a10.43,10.43,0,0,1,.48,1.08l.18.48a.4.4,0,0,0,.09.17c.05,0,.15.09,0,.18.08.13.08.29.15.41s.19.13.31,0a.51.51,0,0,1,.34-.18.62.62,0,0,0,.24-.13c.07-.07.14-.13.26-.06a.26.26,0,0,0,.22,0,1.51,1.51,0,0,1,.75-.18c.09,0,.18,0,.24-.08s.27-.12.42-.1.15,0,.21,0,0,0,.08,0a.68.68,0,0,0,.28.07s.07,0,.1,0a.33.33,0,0,0,.39,0,.23.23,0,0,1,.26,0l.23.14c.07,0,.16,0,.25.05s.18.11.27,0a.46.46,0,0,1,.28.13c.11.13.25.1.38.08s0,0,.06,0a.32.32,0,0,0,.23.11,1,1,0,0,0,.34.09s0,0,.07,0a.53.53,0,0,0,.3.13,1.29,1.29,0,0,1,.54.22.35.35,0,0,0,.3.06.11.11,0,0,1,.17.1c0,.19.14.25.27.34a1.31,1.31,0,0,1,.24.17,1.06,1.06,0,0,0,.33.18.28.28,0,0,1,.18.11,1,1,0,0,0,.3.24.64.64,0,0,1,.23.2.81.81,0,0,0,.21.24,3.52,3.52,0,0,0,.36.41s0,.07,0,.1a.54.54,0,0,0,.28.36s.07.05.1.08a.72.72,0,0,1,.17.22c0,.09.14.1.2.16s0,.08,0,.14.06,0,.09,0a.19.19,0,0,0,0,.1.17.17,0,0,0,.1.18c.07.05.1.14.16.2a.46.46,0,0,1,.13.21s0,0,0,.06a.51.51,0,0,0,.14.41c0,.06.06.13.12.17a.13.13,0,0,1,0,.14.39.39,0,0,0,.15.38s.09.07,0,.16a.25.25,0,0,0,0,.28c.07.08.12.18.2.26a.23.23,0,0,1,0,.34l0,.05c-.07.09-.07.09,0,.16s.07.09,0,.15-.1.11-.1.22,0,.09.09.08.12,0,.16.09.1.17.15.25.11.17,0,.25a.91.91,0,0,0,.08.59,1.36,1.36,0,0,1,.18.68c0,.2,0,.2.21.28,0,0,0,0,.06,0s.07.06,0,.1a1.62,1.62,0,0,1-.19.18c-.11.08-.13.12-.08.22a.35.35,0,0,0,.08.13.7.7,0,0,1,.12.28,4.46,4.46,0,0,0,.13.73.06.06,0,0,1,0,0,.16.16,0,0,0,0,.18c0,.15.08.29.11.43a1,1,0,0,1,.07.39,1,1,0,0,0,.08.42s0,0,0,.06a1.73,1.73,0,0,0,0,.45.75.75,0,0,0,.2.42c.08.09.09.21.19.29s0,.07,0,.12a.63.63,0,0,0,0,.51.79.79,0,0,0,.21.38.56.56,0,0,1,.15.33c0,.14.06.28.08.42s.11.11.1.2a1.82,1.82,0,0,1,.27.54,1.88,1.88,0,0,0,.28.59s0,.07,0,.08,0,.12,0,.13.16.15.25.2h0l.15.15s.08,0,.11,0a.41.41,0,0,0,.07-.11.82.82,0,0,1,.15-.24.55.55,0,0,0,.16-.3.51.51,0,0,1,.19-.32s.06-.06,0-.11a.23.23,0,0,1,0-.33c.15-.17.18-.41.34-.57,0-.1.07-.17.06-.27a.41.41,0,0,1,.16-.4.4.4,0,0,0,.11-.14c0-.06,0-.1,0-.17a.22.22,0,0,1,0-.21c.06-.12,0-.27.11-.4a.2.2,0,0,0,0-.17c-.08-.1,0-.17,0-.24a.14.14,0,0,1,.07-.08.17.17,0,0,0,.06-.22.33.33,0,0,1,.13-.38.24.24,0,0,0,.11-.2c0-.15.05-.3.05-.45a.24.24,0,0,1,.15-.22c.09,0,.08-.08,0-.12l0-.12a.15.15,0,0,1,0-.18,1.38,1.38,0,0,0,.14-.27.3.3,0,0,1,.16-.17.21.21,0,0,0,.12-.2.63.63,0,0,1,.1-.36,1.11,1.11,0,0,0,.13-.4,1,1,0,0,1,.25-.56.2.2,0,0,0,.06-.16,1.33,1.33,0,0,1,0-.2c0-.12,0-.14.16-.17a.18.18,0,0,0,.1,0c.09-.05.14-.13.07-.2s0-.18,0-.27a.54.54,0,0,0,.13-.37.33.33,0,0,1,0-.17s.1,0,.15,0a.07.07,0,0,0,.06,0l.33-.24a.16.16,0,0,0,.08-.18c0-.1,0-.14.1-.18s.1-.1.15-.14.08-.18.21-.14a1.67,1.67,0,0,1,.4-.25s0-.05,0-.08a.26.26,0,0,1,.2-.2.55.55,0,0,0,.39-.34.94.94,0,0,1,.37-.42.26.26,0,0,1,.25,0,.86.86,0,0,0,.57,0,2,2,0,0,0,.42-.13,1.56,1.56,0,0,0,.2-.16c.1-.1.13-.1.26,0a.24.24,0,0,0,.28,0c.09-.07.21,0,.3-.1s0,0,0,0,0,.08.11.07a.32.32,0,0,0,.12-.08c.07-.07.12,0,.21,0a1.07,1.07,0,0,0,.47.1c.11,0,.16.1.21.17s.12.13.21.09.33-.09.49-.17a0,0,0,0,1,.06,0,.36.36,0,0,0,0,.11c0,.06,0,.07.08.07h.29a.11.11,0,0,1,.12.12.41.41,0,0,1,0,.11c0,.14,0,.17.17.11s.09,0,.13,0l.07.1a.27.27,0,0,0,.16.13c.18.05.34.13.37.35s.11.17.15.26,0,0,0,.06,0,.17.14.21.07,0,0,.07-.12.24.08.33l.22.11a.19.19,0,0,1,.13.17.27.27,0,0,0,.15.25s.06.07,0,.1-.06.1-.09.15a.14.14,0,0,0,0,.19l.06.06c0,.06.14.08.1.16s-.09,0-.14.07,0,0-.07.08,0,0,0,.07.06.08.08.12.13.16.11.29,0,.12.12.09.1,0,.09.05.08.12,0,.16,0,.09-.07.13,0,.09,0,.14a1.29,1.29,0,0,1,.17.33.67.67,0,0,1,0,.28c0,.09-.12.08-.18.13s-.18.09-.26.15a.15.15,0,0,0,0,.12v.31a.57.57,0,0,1-.21.5s0,.06-.08.07,0,.1,0,.16,0,0,.05.07,0,.17-.1.27l0,0c-.14.12-.16.18-.07.35s0,0,0,.07a.2.2,0,0,1-.08.08.51.51,0,0,0-.26.18c0,.05-.11.06-.16.09s-.1,0-.12,0a.29.29,0,0,0,0,.13.31.31,0,0,1-.12.31c-.09.07-.15.18-.27.21s-.07.08-.09.12,0,.09.08.1.09,0,.13,0,0,0,0,.05,0,0,0,0a.5.5,0,0,1-.24.06c-.13,0-.17.11-.25.17s-.09.17-.16.24-.17.26-.27.38a.83.83,0,0,1-.19.23c-.06,0-.07.09,0,.15a.1.1,0,0,1,0,.15,1.19,1.19,0,0,1-.37.3c-.08,0-.11.1-.14.2s0,.24-.12.31-.08.11-.17.11-.1,0-.1.11v.07a1.1,1.1,0,0,1-.09.54c0,.08-.05.15,0,.2s0,.08,0,.13,0,.07-.06.07a.35.35,0,0,0-.25.1c-.09.08-.19.15-.28.24a.49.49,0,0,0-.12.3,1.4,1.4,0,0,0,0,.29,1,1,0,0,1-.09.46.56.56,0,0,1-.22.21c-.16.11-.17.14-.11.32l0,0c0,.1,0,.12-.1.12h-.11s-.07,0-.06.07a1.68,1.68,0,0,1-.11.55s0,.07,0,.11a.09.09,0,0,1-.06.1c-.1,0-.11.13-.13.22a1.34,1.34,0,0,1-.17.59c-.09.13-.18.24-.28.36a.09.09,0,0,0,0,.11.35.35,0,0,1,0,.34l-.1.14c-.07.11-.07.11,0,.22a.21.21,0,0,1,0,.25c-.07.06-.12.14-.23.16a.22.22,0,0,0-.17.23s0,.06-.06.08a.94.94,0,0,0-.12.22c0,.09-.1.18-.16.27s-.12.09-.19.13-.11.06-.07.18a.25.25,0,0,1,0,.28.18.18,0,0,1-.14,0c-.07,0-.12,0-.1.09v.07a.25.25,0,0,1-.12.22c-.2.12-.4.27-.6.38a.34.34,0,0,0-.17.32.26.26,0,0,1-.11.25.16.16,0,0,0,0,.14c0,.12-.14.07-.19.14s0,0-.06,0-.13,0-.17,0a.59.59,0,0,0-.14.23c0,.1-.06.2-.09.3a.19.19,0,0,1-.25.15.17.17,0,0,0-.1,0c-.17,0-.17,0-.23.17s0,.14-.18.14-.16,0-.23,0a.05.05,0,0,0-.08,0l-.06.06a.43.43,0,0,1-.47.27c-.07,0-.09.06-.09.12s0,.12,0,.14-.1.07-.18.06a1.38,1.38,0,0,0-.29,0,.21.21,0,0,0-.22.21s0,.06,0,.06-.22,0-.29.09-.22,0-.31-.08-.06-.06-.13,0-.17.23-.44.23h-.13c-.15,0-.23.05-.26.19A.23.23,0,0,1,108,50c-.07.06-.15,0-.19-.06l0-.05a.22.22,0,0,0-.3-.12s0,0,0,0c-.2.07-.23.06-.43-.07a.35.35,0,0,0-.26-.06c-.07,0-.09,0-.1-.08s0,0,0-.07-.13-.18-.22-.2-.25,0-.3-.14-.32-.19-.51-.23-.08,0-.14,0a.34.34,0,0,1-.28-.22,1.74,1.74,0,0,0-.64-.82.29.29,0,0,1-.15-.26.24.24,0,0,0-.09-.18s-.11-.11-.15-.07-.18,0-.26,0-.16-.17-.11-.29a.25.25,0,0,0,0-.22,2.68,2.68,0,0,0-.18-.28c-.23-.07-.32-.28-.47-.43s0-.05-.06-.07a.23.23,0,0,1-.13-.18c0-.09-.06-.2-.2-.18a.92.92,0,0,1-.33-.32.39.39,0,0,1,0-.23s0-.07,0-.09.06,0,.09-.05.06-.08,0-.1-.1-.05-.1-.12,0-.16-.18-.23-.1,0-.12,0-.08,0,0-.08,0-.08,0-.13a2.87,2.87,0,0,1-.18-.4c0-.14-.17-.21-.27-.31s0-.1-.1-.13-.06-.16-.05-.25,0-.05,0-.08-.06,0-.05-.06-.13-.18-.15-.3-.09-.08-.16-.07-.07,0-.05,0-.11-.24-.17-.35-.08-.12,0-.17l.1,0c.08,0,.09-.08,0-.15l-.06-.07a.56.56,0,0,1-.19-.27l0,0c.1-.13,0-.2-.08-.3a2.69,2.69,0,0,1-.19-.38c0-.07,0-.13-.1-.14s0,0,0,0,0-.15-.09-.2,0-.08,0-.12a.44.44,0,0,0-.12-.36c-.1-.11-.09-.29-.16-.42s-.1-.2,0-.31a.08.08,0,0,0,0-.1s0-.06-.08,0-.24-.08-.26-.15a.07.07,0,0,1,.06-.08c.06,0,.08-.07.11-.11a.15.15,0,0,0,0-.11c-.07-.08,0-.19-.08-.27s-.08-.16-.19-.16-.08,0-.09-.08.06-.22,0-.34a.25.25,0,0,0-.09-.23.68.68,0,0,1-.22-.31,1.34,1.34,0,0,1-.13-.23,1.43,1.43,0,0,1,0-.36,1.22,1.22,0,0,1,0-.32.28.28,0,0,0-.07-.32.2.2,0,0,1-.06-.18,1.34,1.34,0,0,0-.08-.56.37.37,0,0,0-.11-.18.18.18,0,0,1,0-.25h0c.08-.25.08-.25-.15-.37s-.1-.08,0-.14a.19.19,0,0,0,.05-.23,1.7,1.7,0,0,1-.13-.55c-.1-.08,0-.2-.07-.3a1.17,1.17,0,0,1,0-.33.15.15,0,0,1,0-.12s0-.07,0-.07a.22.22,0,0,0-.25.09s0,0-.07,0,0-.06,0-.09a.19.19,0,0,1,0-.08c0-.15,0-.18-.13-.19h-.13s-.08,0-.06.06-.07.16,0,.25,0,.08-.08.1a1.72,1.72,0,0,0-.47.79,3.18,3.18,0,0,0-.08.33,4.21,4.21,0,0,1-.11.58,2.27,2.27,0,0,0-.11.53.45.45,0,0,1-.09.39.51.51,0,0,1-.12.2s-.06.08,0,.11-.06.25,0,.38a.49.49,0,0,1-.12.36c-.06.07-.1.16-.16.24v0c0,.11,0,.22-.07.33s0,.13,0,.18,0,.16-.12.17,0,.1-.06.15a.48.48,0,0,0-.08.33c0,.07,0,.12,0,.18a3,3,0,0,1-.5,1c-.15.07-.19.24-.32.33s-.06.13-.1.18-.13,0-.19.06-.12.12-.23.1-.11.08-.21.09-.15.12-.19.2a.59.59,0,0,1-.42.32,1.56,1.56,0,0,0-.48.3.1.1,0,0,0,0,.05c0,.07,0,.17-.17.15s-.15,0-.22-.06-.15,0-.22,0,0,0-.06,0h-.2c-.06,0-.1,0-.16,0a.77.77,0,0,1-.49-.12c-.12-.07-.26-.1-.35-.22s0,0,0,0c0-.2-.15-.25-.21-.38s-.19-.17-.15-.33,0-.07,0-.1-.13-.1-.15-.17-.09-.08-.13-.12-.21-.16-.2-.31v0c-.08,0,0-.18-.14-.2s-.14,0-.2.09a1.85,1.85,0,0,0-.4.39,2.25,2.25,0,0,1-.59.56.5.5,0,0,0-.11.1c-.19.23-.44.39-.64.6s-.15.08-.18.17-.06,0-.08.05c-.17.11-.33.23-.49.35l0,.05c0,.08-.1.18-.22.18s-.07,0-.09.07a.25.25,0,0,1-.15.1.73.73,0,0,0-.39.3s-.06.12-.14,0,0,0,0,0-.27.14-.36.27h0c-.14,0-.2.09-.26.19a.22.22,0,0,1-.23.13s-.06,0-.08,0-.22.12-.34.16a.32.32,0,0,0-.17.13.09.09,0,0,1-.11,0c-.07,0-.11.06-.18,0s-.05,0-.05,0-.07.09-.14.09a.31.31,0,0,0-.22.11c0,.05-.13,0-.17.07s-.09.09-.15.12l-.17.05a.7.7,0,0,0-.24.09c-.07,0-.17,0-.25.05l-.13.06a1.27,1.27,0,0,1-.36.2,1.79,1.79,0,0,1-.4.09.33.33,0,0,0-.18.08.57.57,0,0,1-.33.11l-.21,0c-.11,0-.2.12-.34.11a1.51,1.51,0,0,0-.34.08.22.22,0,0,0-.17.07.15.15,0,0,1-.12,0c-.06,0-.1,0-.14.05l-.13.06h0c-.17-.12-.34,0-.52,0s-.06,0-.09.05l-.32.08c-.08,0-.18,0-.24,0s-.18,0-.25.06-.16,0-.22.07h-.1a.26.26,0,0,0-.19,0,.32.32,0,0,1-.3,0,.21.21,0,0,0-.23,0s-.07,0-.1,0-.14-.08-.21,0a.34.34,0,0,1-.2,0,9.15,9.15,0,0,0-1.48,0c-.09,0-.15-.07-.25,0a.37.37,0,0,1-.25,0s-.11,0-.14,0-.13,0-.17,0a.19.19,0,0,0-.17-.07.55.55,0,0,1-.22-.06s-.1,0-.15,0-.09.06-.13,0-.08,0-.12,0a.22.22,0,0,1-.2-.06c0-.07-.15,0-.19-.07s-.34-.13-.52-.09-.1,0-.14,0a.14.14,0,0,0-.15-.07,1.57,1.57,0,0,1-.45-.13l-.67-.23c-.27-.09-.55-.17-.82-.28v0c-.2,0-.34-.11-.52-.17s-.17,0-.23-.08-.16-.06-.24-.11l-.23-.1-.23-.13-.23-.1a1.82,1.82,0,0,0-.31-.16s0-.05-.07-.05-.23-.08-.31-.17a1.07,1.07,0,0,0-.28-.19,5.13,5.13,0,0,0-.72-.41c-.12,0-.21-.13-.33-.17s0,0,0,0-.13-.15-.19-.23a.22.22,0,0,0-.24-.1.34.34,0,0,1-.14,0,.12.12,0,0,1-.1-.14c0-.09,0-.11-.09-.16a6.52,6.52,0,0,1-.55-.5c-.08-.09-.19-.14-.27-.22a.85.85,0,0,1-.24-.26,6.26,6.26,0,0,0-.5-.53c-.13-.14-.23-.31-.37-.44s-.34-.54-.59-.74c-.09-.08-.11-.19-.18-.28s-.24-.4-.4-.58a1.94,1.94,0,0,1-.2-.38,1.37,1.37,0,0,0-.28-.44s0-.11-.06-.16-.13-.24-.19-.36-.07-.06,0-.13-.07,0-.08-.06,0-.16,0-.2,0-.08,0-.08a.18.18,0,0,1-.1,0c-.06-.06-.14-.09-.11-.2s0-.1,0-.16a10.06,10.06,0,0,1-.5-1.22c-.13-.19-.12-.44-.26-.63,0-.12-.06-.21-.09-.32L61.35,33c-.06-.17-.08-.35-.13-.52a3.41,3.41,0,0,0-.14-.55c0-.21-.13-.39-.09-.61s0-.35-.13-.5a.14.14,0,0,0-.09-.16c-.06,0,0-.12-.05-.15.09-.07,0-.17.05-.25s0-.16,0-.25,0-.15,0-.22-.08-.08,0-.13,0-.09,0-.13,0-.28,0-.42,0-.29,0-.43,0-.08,0-.11,0-.25,0-.38a2.24,2.24,0,0,1,.15-.81l0-.12c0-.07,0-.13,0-.19s-.07-.11,0-.18a.2.2,0,0,1,0-.29s0-.11,0-.16a3.22,3.22,0,0,0,.21-.81c0-.13.08-.26,0-.38.08-.05,0-.1,0-.15s0,0,0-.07a.69.69,0,0,0,.22-.48.9.9,0,0,0,0-.16.27.27,0,0,1,.13-.23.14.14,0,0,0,.06-.19.13.13,0,0,1,0-.16.78.78,0,0,0,.11-.2c0-.05.08-.09,0-.15s.08-.16.09-.2.14-.1.14-.2a.13.13,0,0,1,.12-.13c0-.1.06-.19,0-.29s0-.07.07-.1.19-.14.16-.27,0-.07,0-.1.1-.15.11-.25.1-.13.14-.2a2.19,2.19,0,0,1,.25-.37.2.2,0,0,1,.07-.06.15.15,0,0,0,.07-.1.4.4,0,0,1,.15-.29c.07-.06.09-.18.2-.2s-.06,0,0-.07.05-.16.12-.21,0-.07,0-.11,0-.05,0-.08a2.42,2.42,0,0,0,.5-.46,4.71,4.71,0,0,1,.64-.7.74.74,0,0,0,.18-.21c0-.1.17-.11.23-.19s.15-.08.2-.16a2.23,2.23,0,0,1,.43-.44c.19-.17.44-.29.55-.54.14,0,.16-.16.28-.19s.33-.25.48-.4c0-.07,0-.06.08-.06a.37.37,0,0,0,.32-.15c0-.09.07-.08.09-.09a1.8,1.8,0,0,0,.48-.24c.31-.18.62-.33.94-.5.15-.08.32-.14.49-.21a1.55,1.55,0,0,1,.48-.19v0a1.9,1.9,0,0,1,.56-.21l.55-.18.5-.14a1.63,1.63,0,0,1,.3-.07c.08,0,.11-.09.2-.07a.42.42,0,0,0,.22,0,.76.76,0,0,0,.21-.08s.07,0,.11,0a.65.65,0,0,0,.39-.07s.06,0,.09,0,.14.11.21,0h.22c.07,0,.14,0,.19-.07s.09,0,.13,0a.42.42,0,0,1,.22,0c.07-.07.16,0,.23,0h1.25c.12,0,.22-.05.34-.05a1.82,1.82,0,0,0,.33,0,.39.39,0,0,1,.18.06c.1.05.21.15.33,0s.14-.07.23,0,.16,0,.21.08.18.12.28,0,0,0,0,0,.17.07.26.07a1.12,1.12,0,0,1,.32,0,.18.18,0,0,0,.19,0c.1,0,.22,0,.32.06a2.12,2.12,0,0,1,.49.27s.13,0,.16.06a1.45,1.45,0,0,1,.61.19c.28.1.56.22.84.35s.5.25.76.38.59.33.88.51a9.86,9.86,0,0,1,.84.6c.2.16.41.32.6.49s.57.55.86.82.36.42.54.62.29.38.45.56.18.27.28.4c.21.29.39.61.58.92s.3.55.45.84a.72.72,0,0,0,.11.19.21.21,0,0,1,.07.13c0,.21.16.36.18.55,0,0,0,.05.06.07a.19.19,0,0,1,.07.19.16.16,0,0,0,.07.17.36.36,0,0,1,.11.29.27.27,0,0,0,.11.29.18.18,0,0,1,.07.17c0,.07,0,.13,0,.18-.11.16.09.27,0,.42s.07.24.15.34,0,.13.07.17a.21.21,0,0,0,0,.26s0,.06,0,.11,0,.24,0,.36,0,.24,0,.34v0a3.68,3.68,0,0,0,0,.58c0,.38,0,.75,0,1.12a7.3,7.3,0,0,1-.06.94c0,.11,0,.23,0,.34a1.67,1.67,0,0,1,0,.31,5.25,5.25,0,0,1-.21.87,1.59,1.59,0,0,1-.14.57c0,.18-.12.35-.17.53s-.16.37-.22.56-.23.44-.29.68-.28.55-.45.81-.3.44-.43.67a1.08,1.08,0,0,1-.18.24c-.2.26-.41.52-.62.77a10.76,10.76,0,0,1-.94,1,7.73,7.73,0,0,1-1,.84,4.41,4.41,0,0,1-.53.35c-.09,0-.17.13-.26.18a9.37,9.37,0,0,1-1.08.58l-.64.27c-.26.11-.53.17-.78.29a2.34,2.34,0,0,1-.4.1c-.16,0-.31.09-.47.12a1.75,1.75,0,0,0-.44.1,1.27,1.27,0,0,1-.34,0,1.34,1.34,0,0,1-.4.06h0s0,.13-.15,0-.11,0-.17,0c-.39,0-.79,0-1.18,0s-.69-.07-1,0c-.07,0-.1-.06-.16-.05a.26.26,0,0,1-.17,0c-.08,0-.19,0-.29,0a1.37,1.37,0,0,0-.23,0,.93.93,0,0,0-.24,0c-.08,0-.14-.06-.23-.06a1.21,1.21,0,0,1-.25-.08,8.36,8.36,0,0,1-.89-.27,5.89,5.89,0,0,1-.92-.42,12.23,12.23,0,0,1-1.05-.64,6.4,6.4,0,0,1-.71-.55c-.06,0-.16,0-.18-.11s-.1-.11-.15-.16l-.18-.18L69.54,36a10.3,10.3,0,0,1-.81-.94c-.26-.3-.42-.66-.65-1-.1-.14-.16-.29-.25-.43a3.24,3.24,0,0,1-.27-.6,2.3,2.3,0,0,1-.15-.32c0-.11-.08-.22-.12-.33a5.16,5.16,0,0,1-.23-.66c-.06-.2-.1-.39-.14-.59a2.42,2.42,0,0,0-.13-.53v-.06c0-.22-.07-.42,0-.63A3,3,0,0,1,66.7,29.12Z"/><path class="cls-1" d="M29.66,38.14h-.11A3.15,3.15,0,0,1,28.49,38c-.21-.07-.41-.17-.62-.23a.23.23,0,0,1-.14-.08s-.07-.07-.11,0,0,0,0,0a1,1,0,0,0-.5-.2,1.54,1.54,0,0,1-.43-.2.4.4,0,0,0-.36-.07s-.1,0-.12,0a.32.32,0,0,1-.08-.14V37A.08.08,0,0,0,26,36.9c-.16,0-.26-.14-.38-.22a1.66,1.66,0,0,1-.34-.25s0,0,0,0-.1-.07-.17-.07,0,.13-.09.14a6.26,6.26,0,0,1-.21.61c0,.07,0,.14-.05.2s0,.13,0,.2a.28.28,0,0,1-.17.34,1.18,1.18,0,0,0-.55.46.23.23,0,0,1-.2.1.44.44,0,0,0-.29.1.48.48,0,0,1-.22.12.88.88,0,0,1-.24.11,1.51,1.51,0,0,1-.56,0s-.06,0-.09,0l-.13.13c0,.06-.1.06-.17.07s-.11-.07-.16,0a.3.3,0,0,1-.18,0h-.29a.6.6,0,0,1-.54,0l0,0h-.27c-.09,0-.16-.07-.25,0a2.58,2.58,0,0,0-.39,0c-.13.06-.27,0-.4,0a.84.84,0,0,0-.27,0c-.07,0-.09,0-.08-.09s0,0,0,0-.24,0-.35,0a1.07,1.07,0,0,0-.32-.08c-.08,0-.11-.1-.19-.12l0,0c-.07,0,0-.14-.07-.15a.36.36,0,0,0-.23,0c-.05,0-.08,0-.12,0a2.57,2.57,0,0,1-.34-.39,2,2,0,0,0-.5-.45,2,2,0,0,0-.48-.3l-.56-.2a1.72,1.72,0,0,1-.43-.21,1.14,1.14,0,0,0-.36-.15,2.11,2.11,0,0,1-.55-.19,1.78,1.78,0,0,0-.51-.16.35.35,0,0,1-.26-.17c0-.08-.09-.1-.15-.13a5.54,5.54,0,0,0-.64-.33c-.33-.12-.62-.33-1-.46a1.33,1.33,0,0,0-.35-.13.48.48,0,0,1-.24-.11,8.21,8.21,0,0,0-1.17-.78l-.76-.43A5.14,5.14,0,0,1,9,33.18a1.53,1.53,0,0,0-.66-.3s-.05,0-.08,0a2,2,0,0,1-.08.22s0,.1,0,.16a.61.61,0,0,0,.49.33,1.3,1.3,0,0,1,.46.18,1.9,1.9,0,0,1,.26.37c0,.08-.06.14,0,.21s0,.08.05.12a.53.53,0,0,1,.13.38.21.21,0,0,0,.08.18c.09.08.1.21.15.31a1.55,1.55,0,0,1,.09.57c0,.51,0,1,0,1.54a2.54,2.54,0,0,1-.13.77c0,.06,0,.11-.12.1s-.07,0-.06.08a.66.66,0,0,1-.23.53,2.72,2.72,0,0,1-.61.46c-.19.13-.37.24-.54.38A2.07,2.07,0,0,0,8,40c-.1.12-.12.11-.25.15a1,1,0,0,0-.29.1.68.68,0,0,1-.19,0,.05.05,0,0,1,0,0c-.07-.06-.13-.05-.13,0s0,.1-.12.1a.76.76,0,0,0-.33.11c-.05,0-.12.07-.13.06s-.19,0-.28,0a1.83,1.83,0,0,0-.52.09,1,1,0,0,1-.24,0,.43.43,0,0,0-.19,0c-.11,0-.22,0-.33-.05s0,0-.08,0-.18,0-.27,0-.17,0-.25,0h0a.09.09,0,0,1-.16,0s-.09-.08-.08-.15,0,0,0,0a3.22,3.22,0,0,1-.67-.55l-.58-.58c-.14-.15-.25-.32-.38-.47s0-.06,0-.08,0-.11,0-.16-.08-.06-.14-.08-.14-.08-.12-.18A.18.18,0,0,0,2.08,38s0,0,0-.06,0-.23,0-.34A1.16,1.16,0,0,0,2,37.29c-.13-.31-.19-.64-.31-.95,0-.05,0-.12,0-.17s0-.21,0-.32.08-.17.05-.27,0-.26,0-.38a4.24,4.24,0,0,1-.23-.59,3,3,0,0,1-.11-.52,1.73,1.73,0,0,0-.11-.49c0-.08,0-.19-.07-.26s0-.23,0-.36A.94.94,0,0,0,1,32.66a7.52,7.52,0,0,1-.28-.84A4.81,4.81,0,0,0,.5,30.9a2.22,2.22,0,0,0-.1-.5,5.52,5.52,0,0,0-.21-1s0-.05,0-.07,0-.07,0-.08-.07,0,0-.08,0-.14.08-.21a.12.12,0,0,0-.08-.16c-.09,0-.1-.08-.1-.16s0-.25.06-.31.07-.1.08-.17A.15.15,0,0,0,.15,28c-.08,0,0-.13-.09-.19a.15.15,0,0,1,0-.18.16.16,0,0,0,0-.15,1.36,1.36,0,0,1,0-.49,2.82,2.82,0,0,1,0-.65,5.63,5.63,0,0,0,0-.58c0-.08,0-.17-.07-.22s0-.05,0-.07a.58.58,0,0,0,.12-.36,3,3,0,0,0,0-.42c0-.11-.07-.19,0-.3s0-.21,0-.31,0,0-.06-.05S0,24,.09,24a.12.12,0,0,0,.09-.13,5,5,0,0,0,.08-.54,5.42,5.42,0,0,1,.14-.7c0-.23.12-.46.19-.69a.33.33,0,0,1,.09-.16.58.58,0,0,0,.18-.42,1.2,1.2,0,0,1,.11-.4,5.54,5.54,0,0,0,.21-.57A.87.87,0,0,0,1.25,20a1.18,1.18,0,0,1,.2-.63c.12-.21.26-.42.38-.62a2.44,2.44,0,0,1,.47-.59s.05-.05.1,0,.06,0,.05,0,.11-.18.16-.28a.72.72,0,0,1,.23-.23c.11-.1.24-.19.34-.3s.11,0,.11,0,.09-.16.15-.23a1.71,1.71,0,0,1,.79-.52,1.12,1.12,0,0,0,.42-.25A1.15,1.15,0,0,1,5.1,16a7.67,7.67,0,0,1,.78-.23l.56-.1a4.07,4.07,0,0,0,.71-.16s0,0,0,0,.3-.06.45,0a2.44,2.44,0,0,1,.47,0,6.88,6.88,0,0,0,1,0,.58.58,0,0,1,.14,0c.09,0,.17.08.27.06s.16.05.25,0,.17,0,.25,0a0,0,0,0,0,0,0c.28,0,.55.06.83.05s.27-.05.41-.05a1.85,1.85,0,0,1,.56.11,5.82,5.82,0,0,1,1,.42,1.45,1.45,0,0,1,.65.6c0,.07.1.11.14.18a1.52,1.52,0,0,0,.31.36,3.4,3.4,0,0,0,.3.23.12.12,0,0,0,.08,0c.13,0,.14,0,.15.14s.08.16.13.23a1.44,1.44,0,0,1,.22.47c0,.05,0,.06.08.05s.08,0,0,.08,0,.1,0,.16.23.36.31.56c0,0,0,0,.06.07a1.35,1.35,0,0,0,.42.55.33.33,0,0,1,.12.29.47.47,0,0,0,.11.33.7.7,0,0,1,.12.36,1.64,1.64,0,0,0,.1.49c0,.08.06.15,0,.2a.15.15,0,0,0,0,.24.56.56,0,0,1,.17.53V23c0,.08,0,.16,0,.23a.16.16,0,0,0,0,.17.5.5,0,0,1,.08.12c0,.05.08.1.07.17s-.07.08-.12.1-.09.12-.18.13,0,.05,0,.08v.29a1.44,1.44,0,0,1-.18.73,2,2,0,0,1-.2.38,1.66,1.66,0,0,0-.19.48s0,.07,0,.1-.24.31-.39.44-.09.12,0,.21l0,0s.09.07.07.09,0,.13-.07.18a.91.91,0,0,0-.26.29s-.09.06-.14.08-.08,0-.1,0a.2.2,0,0,0,0,.11.22.22,0,0,1,0,.19.49.49,0,0,0,.27.48c.37.24.74.47,1.1.73a2.11,2.11,0,0,1,.37.28c.13.13.3.13.43.23,0-.05.07,0,.11,0a.72.72,0,0,0,.38.16.52.52,0,0,1,.3.18c.07.09.2.07.28.14s.25.07.37.13a5.8,5.8,0,0,0,.69.27l.36.16a3.6,3.6,0,0,1,.5.29,2.25,2.25,0,0,0,.26,0,.06.06,0,0,1,.08,0s.06.06.12,0,.07,0,.08,0,.29.13.42.21a1.46,1.46,0,0,0,.44.2c.14,0,.25.17.4.22a.41.41,0,0,1,.24.15c.11,0,.17.08.23.15a.28.28,0,0,0,.13.07,1.9,1.9,0,0,1,.75.5c.29.27.57.56.86.85a.5.5,0,0,1,.13.21,2,2,0,0,0,.38.58.22.22,0,0,0,.2.06.11.11,0,0,0,.12-.12,3,3,0,0,0,0-.6c0-.16,0-.32,0-.47a.87.87,0,0,1,0-.28c0-.08,0-.17,0-.25s0,0,0,0c0-.2.07-.38,0-.58a1.17,1.17,0,0,1,0-.32c0-.09,0-.2,0-.29a.14.14,0,0,0,0-.15c-.08-.08-.06-.21-.16-.29s0-.12,0-.18,0-.05.06-.07.17-.16.06-.29v0a5.06,5.06,0,0,1,0-.78,6.29,6.29,0,0,0,0-1.06c0-.17-.05-.34,0-.51a1.55,1.55,0,0,1,0-.21A1.65,1.65,0,0,0,25,27a.16.16,0,0,0,0-.09c0-.05-.12,0-.11-.09s.08,0,.11-.07a.21.21,0,0,0,.07-.17V24.87c-.06-.21,0-.44-.05-.65s0-.51,0-.76,0-.62-.05-.92,0-.54,0-.81a3.49,3.49,0,0,0-.16-.78.08.08,0,0,1,0-.08s.08-.08,0-.09,0-.05,0-.08,0-.26,0-.4a4.9,4.9,0,0,0,0-.54s0,0-.06,0h-.09a0,0,0,0,1,0,0s0,0,0,0,.12-.05.08-.11a.26.26,0,0,1,0-.17c0-.38,0-.76,0-1.14,0-.15.06-.3.08-.45a3.3,3.3,0,0,1,.19-.75,3.62,3.62,0,0,1,.4-1,7,7,0,0,1,.45-.66,5.81,5.81,0,0,1,.64-.67,3,3,0,0,1,.72-.45c.05,0,.12,0,.15-.08a.36.36,0,0,1,.29-.11c.1,0,.2,0,.3,0s.2,0,.29-.06.09,0,.13,0h.72a.88.88,0,0,1,.7.18c.15,0,.23.14.36.17s.24.09.37.11a1.35,1.35,0,0,1,.42.24,1.83,1.83,0,0,1,.36.26.24.24,0,0,0,.15.07s.07,0,.06,0,.07.2.13.28l.33.47a3.21,3.21,0,0,1,.43.82s0,0,.07,0,.08,0,0,0,0,.21,0,.31a2.91,2.91,0,0,1,.19.7,9.81,9.81,0,0,1,.09,1.71c0,.08-.07.14-.06.23a.2.2,0,0,1,0,.22,1,1,0,0,1,0,.34,5.62,5.62,0,0,1-.09.57,1.31,1.31,0,0,0,0,.28c0,.36-.08.72-.05,1.08-.07.15,0,.32,0,.47a2.24,2.24,0,0,0,0,.52c0,.09-.06.17,0,.27a.55.55,0,0,1,0,.25c0,.08,0,.2,0,.29a.73.73,0,0,0,0,.29v0c0,.07-.12.06-.06.16a.25.25,0,0,1,0,.19c0,.17-.05.35-.09.52a1.85,1.85,0,0,0,0,.23.34.34,0,0,1,0,.2c0,.06,0,.13,0,.19s0,.19-.06.27a4.32,4.32,0,0,0-.05.62.45.45,0,0,1,0,.28.39.39,0,0,0,0,.38.39.39,0,0,1,0,.21c0,.25,0,.51,0,.76a.22.22,0,0,0,.14.24.18.18,0,0,1,.07,0c.08.07.09.12,0,.2l-.2.2a.15.15,0,0,0,0,.2.23.23,0,0,1,0,.16,4,4,0,0,0,.09.5.8.8,0,0,0,.27.4.73.73,0,0,0,.29.11.33.33,0,0,1,.21.13.1.1,0,0,1,0,.17l-.06,0c-.09.06-.1.12,0,.21a3,3,0,0,1,.45.66.42.42,0,0,0,.09.14.12.12,0,0,1,0,.1,1,1,0,0,0,0,.25,2.77,2.77,0,0,1,.1.5,1.85,1.85,0,0,0,.08.47.09.09,0,0,1,0,.05,3.77,3.77,0,0,0,0,.58c0,.2,0,.4,0,.6a3.69,3.69,0,0,1-.11.45,6.22,6.22,0,0,1-.56,1.39,5.69,5.69,0,0,1-.49.78c-.11.15-.28.25-.32.45a.14.14,0,0,1-.07.06c-.19,0-.3.22-.45.34a2.77,2.77,0,0,1-.6.35.5.5,0,0,1-.24.06A5.78,5.78,0,0,1,29.66,38.14ZM10.27,21.36c.05-.11,0-.19-.06-.27a1,1,0,0,0-.22-.47c-.08-.09-.2-.1-.29-.15a1.62,1.62,0,0,0-.81-.22H8.67A1.91,1.91,0,0,1,8,20.17c-.23-.07-.24-.06-.48.08a.33.33,0,0,1-.3,0,.47.47,0,0,0-.33,0,.72.72,0,0,0-.3.2,3.15,3.15,0,0,1-.38.35,1.11,1.11,0,0,0-.32.36,3,3,0,0,1-.4.62s0,0,0,.07-.07.22,0,.34a.47.47,0,0,1,0,.16,1.66,1.66,0,0,0-.11.49,1.77,1.77,0,0,1,0,.32.73.73,0,0,0,0,.39,1.11,1.11,0,0,1,0,.26s0,0-.07,0,0,0,0,0,.11.05.1.13a.56.56,0,0,0,0,.13,5.89,5.89,0,0,1,.13.71,1.07,1.07,0,0,1,0,.4s0,0,0,0a.42.42,0,0,0,.49.17c.14,0,.22-.16.35-.22a.5.5,0,0,0,.25-.2.13.13,0,0,1,.1-.08c.17,0,.27-.13.41-.21a.34.34,0,0,1,.15-.06c.23,0,.44-.16.68-.19.05-.07.12,0,.18,0a1,1,0,0,0,.59-.19c.25-.17.47-.37.71-.54s.21-.19.32-.26a4.12,4.12,0,0,0,.31-.28.14.14,0,0,0,.05-.11,4.93,4.93,0,0,1,0-.94,3.23,3.23,0,0,1,.06-.33C10.23,21.68,10.19,21.51,10.27,21.36Z"/><path class="cls-1" d="M32.93,29.78c0-.3.08-.57,0-.84a2.9,2.9,0,0,0,.05-.78.44.44,0,0,1,.07-.33s0-.08,0-.12c0-.25,0-.5,0-.74a7.36,7.36,0,0,1,.06-.81c0-.08,0-.18,0-.27s-.05-.1-.06-.16.1-.28.11-.42,0,0,0,0a3.49,3.49,0,0,0,0-.79.34.34,0,0,1,0-.1,2.24,2.24,0,0,0-.05-.58,3.63,3.63,0,0,0-.1-.45A3,3,0,0,1,33,22.5a1.42,1.42,0,0,1,.11-.35.48.48,0,0,0,0-.29,2.84,2.84,0,0,1-.06-.31.72.72,0,0,1,.15-.52,1.4,1.4,0,0,0,.16-.4,1.52,1.52,0,0,1,.09-.28,1.5,1.5,0,0,0,.14-.47c0-.16.09-.3.09-.46s0-.15,0-.22.06-.23.06-.34a1.14,1.14,0,0,1,.07-.32,2.5,2.5,0,0,1,.25-.55l.25-.48s0-.06,0-.09c0-.24.19-.36.36-.5s.31-.17.37-.35a1.28,1.28,0,0,1,.34-.19c.29-.07.56-.18.84-.23a3.41,3.41,0,0,0,.62-.19,1.55,1.55,0,0,0,.35-.21,3.27,3.27,0,0,1,.5-.32c.25-.14.48-.29.74-.42a3.83,3.83,0,0,1,.7-.29,3.92,3.92,0,0,0,.36-.16c.29-.11.57-.24.86-.36a.64.64,0,0,1,.24,0c.14,0,.26-.07.39-.09l.36-.09a1,1,0,0,1,.25-.05h0c.11-.13.23-.05.35-.05a6.09,6.09,0,0,0,.74,0c.2,0,.4.06.6.06s.15.05.23,0a.42.42,0,0,1,.2,0c.18.07.38.11.55.19a1.09,1.09,0,0,1,.42.23.73.73,0,0,0,.28.17l.43.2c.15.06.27.18.42.24a.52.52,0,0,1,.22.26.44.44,0,0,0,.25.25c.14,0,.21.18.34.26a1.1,1.1,0,0,1,.22.21c.06.07.15.1.19.19a.17.17,0,0,0,.12.08s.05,0,.08,0a.16.16,0,0,1,.2,0,.21.21,0,0,0,.24,0,3,3,0,0,1,.5-.19c.17-.09.37-.07.53-.17s.3-.09.45-.1.18-.12.3-.09.15,0,.23,0a.15.15,0,0,0,.09,0c.06,0,.07-.15.11-.13s.23,0,.33.08a.34.34,0,0,0,.35,0,.37.37,0,0,1,.32,0,2.29,2.29,0,0,0,.58.11c.08,0,.16,0,.23,0a.06.06,0,0,0,.08,0s0,0,.06,0,.3,0,.45,0,.19,0,.23.15,0,.1.12.08a.19.19,0,0,1,.16,0,.61.61,0,0,0,.32.08c.11,0,.22.07.33.07s.08,0,.12,0,.17,0,.22.11a.14.14,0,0,0,.08.07,1.84,1.84,0,0,1,.38.17h.06a.93.93,0,0,1,.33.07,2,2,0,0,1,.49.27.67.67,0,0,0,.14.09c.22.11.43.24.65.37s.12.14.22.15.26.2.37.32.45.39.66.59A5.91,5.91,0,0,1,58,19a3.3,3.3,0,0,1,.3.43.45.45,0,0,0,.34.25.11.11,0,0,1,.1.12c0,.06,0,.12,0,.18a.32.32,0,0,0,.22.36c.07,0,.11.07.1.15a.6.6,0,0,0,.16.49,2.92,2.92,0,0,1,.29.48.33.33,0,0,1,0,.36.15.15,0,0,0,0,.21.75.75,0,0,1,.21.51s0,.06,0,.07,0,.16,0,.25a.15.15,0,0,0,0,.19.41.41,0,0,1,.1.47.33.33,0,0,0,0,.24.45.45,0,0,1,0,.42c0,.08,0,.16-.06.25s.1.11.1.19.07.08,0,.14-.07.13-.06.19a.32.32,0,0,0,.1.2.34.34,0,0,1,0,.37s0,.08,0,.12.06.13,0,.21,0,.13,0,.18a.08.08,0,0,1,0,.1c-.12.1-.1.26-.11.38a1.25,1.25,0,0,1-.15.54c-.06.09,0,.19-.07.27s0,.17,0,.25,0,.14,0,.22a1.05,1.05,0,0,1,0,.31s0,.06-.05.05-.06,0-.08.07-.12.16,0,.29.13.08.11.15-.08.09-.12.13-.09.08,0,.14,0,.07,0,.1a5.83,5.83,0,0,1-.23.58.24.24,0,0,0,0,.14c0,.13,0,.26,0,.38a.38.38,0,0,0,.14.36c.1.08,0,.15,0,.22-.18.17-.07.34,0,.51a1.87,1.87,0,0,0,.17.31c0,.06.12.11.11.22s.07.15.12.22a.17.17,0,0,1,0,.19c-.06.19,0,.23.12.3a.12.12,0,0,1,.08.13c0,.09,0,.19.07.26a.06.06,0,0,1,0,.06c-.07.11,0,.23,0,.34a1.25,1.25,0,0,0,.08.32s0,0,0,.06.08.21,0,.3-.12.34-.21.5a.39.39,0,0,0,0,.28c0,.13,0,.26.08.39a.08.08,0,0,1,0,0s.09.06.08.13l-.15.15a.21.21,0,0,1-.19.1c-.06,0-.1,0-.1.1v.09c0,.08,0,.17,0,.22s-.14,0-.21,0-.09,0-.1.12.05.3,0,.45.05,0,0,.07-.15.09-.18.19a.18.18,0,0,1-.19.11H59c0,.08-.11.1-.1.18s0,.19,0,.28,0,.11-.1.11l-.08,0a.44.44,0,0,0-.47.12l-.39.39-.12.1a.36.36,0,0,1-.48,0,1.57,1.57,0,0,0-.53-.27.49.49,0,0,0-.24,0,1.4,1.4,0,0,1-.63-.19.37.37,0,0,1-.15-.13,1.05,1.05,0,0,0-.28-.24c-.09,0-.17-.12-.29,0a.2.2,0,0,1-.26-.06s-.07-.1-.14,0-.07,0-.07-.05-.12-.14-.19-.19l-.08,0c0-.07,0-.14-.11-.18l-.07-.09a.27.27,0,0,0-.26-.18.86.86,0,0,1-.27-.09.2.2,0,0,1-.14-.2c0-.1-.09-.16-.16-.2s-.22-.21-.34-.3a1.32,1.32,0,0,1-.26-.36c-.06-.09-.09-.2-.16-.29a2.75,2.75,0,0,1-.17-.29.63.63,0,0,0-.23-.23c-.06,0-.12-.06-.13-.11S52,34.08,52,34s-.09-.35-.16-.52v0a.74.74,0,0,0-.13-.52c0-.08,0-.2-.05-.29v0c.13-.13.08-.29.09-.44s.07-.14,0-.22a.26.26,0,0,1,0-.21s0-.07,0-.11a.55.55,0,0,1,0-.25,1.57,1.57,0,0,0,0-.23,1.81,1.81,0,0,0,.1-.69.36.36,0,0,1,.06-.27.17.17,0,0,0,0-.1c0-.19.08-.35.11-.53a1.2,1.2,0,0,1,.12-.42c.06-.14,0-.29.12-.42s0-.07,0-.11a.54.54,0,0,1,.06-.25s0,0,0-.05.08-.25.1-.38.09-.17.07-.23,0-.15,0-.24a1.31,1.31,0,0,1,0-.28,2.57,2.57,0,0,1,.07-.4h0a2.54,2.54,0,0,1,.13-.73c0-.1,0-.21,0-.31a1.1,1.1,0,0,1,0-.36c0-.11,0-.24,0-.36a.45.45,0,0,0,0-.39v0c0-.2-.07-.38-.05-.58a1.39,1.39,0,0,0-.13-.44.55.55,0,0,0-.59-.22,1.43,1.43,0,0,0-.35.06c-.13.06-.27,0-.39.09a.61.61,0,0,0-.54.41.71.71,0,0,0-.14.32c-.13.22-.25.45-.39.66a6.25,6.25,0,0,0-.61,1,1.53,1.53,0,0,0-.11.27.55.55,0,0,0,0,.31c0,.1,0,.15-.08.18a.12.12,0,0,0-.07.12c0,.1,0,.2,0,.29s-.14.11-.21.16-.15.25-.24.37,0,.12-.12.13,0,.08,0,.13a.35.35,0,0,1,.07.25c0,.06,0,.1-.12.1h-.17c-.06,0-.1,0-.16,0s-.22,0-.23.2-.06.11-.17.11H48s0-.12-.12-.09l-.13.05a.52.52,0,0,1-.21,0c-.06,0-.12,0-.17,0s0,0-.06,0-.23.07-.33,0-.05,0-.08,0a.48.48,0,0,0-.18,0c-.07,0-.1-.09-.15-.12a.47.47,0,0,0-.17,0c-.17,0-.32-.14-.51-.12a1.21,1.21,0,0,1-.36-.1.89.89,0,0,0-.28-.07.1.1,0,0,1-.09-.08c0-.1-.11-.11-.17-.14s-.13,0-.18-.05a.7.7,0,0,1-.5-.2c-.17-.12-.35-.22-.53-.33s-.31-.19-.45-.3a.22.22,0,0,0-.18-.06.27.27,0,0,1-.18,0,.13.13,0,0,1-.09-.11,1.13,1.13,0,0,0-.42-.42s-.06,0-.07-.06a.81.81,0,0,0-.24-.43l0,0a1.65,1.65,0,0,0-.16-.52,1.4,1.4,0,0,1-.06-.28,1,1,0,0,0,0-.39.15.15,0,0,1,0-.13.57.57,0,0,0,0-.48c0-.05.06-.09,0-.16s0-.15,0-.22a1.33,1.33,0,0,1,0-.2s0,0,0-.06.07-.15,0-.28,0-.07,0-.11,0,0,0-.06a3.72,3.72,0,0,0,0-.58,1.07,1.07,0,0,1,0-.4.22.22,0,0,0,0-.26.09.09,0,0,1-.07-.08c0-.07-.08,0-.11-.08s-.06,0-.09,0a1.17,1.17,0,0,0-.51.45,1.36,1.36,0,0,0-.22.51c0,.06,0,.12-.09.14s-.09.06,0,.07,0,.06,0,.09,0,.29,0,.43c.08.15,0,.31,0,.47a.53.53,0,0,1,0,.25c0,.08,0,.17,0,.25s0,.16,0,.23a3.92,3.92,0,0,1-.28,1c-.12.32-.23.66-.37,1,0,.06,0,.13-.07.17s-.07.09,0,.15,0,0,0,.05a2.59,2.59,0,0,0-.26.67.41.41,0,0,0,0,.29.17.17,0,0,1-.07.19c-.09.09-.09.11,0,.17s.18.06.2.17,0,0,0,0-.1.08,0,.15a.27.27,0,0,1,.07.13,0,0,0,0,1,0,0c-.1.09-.1.24-.22.32s0,0,0,.1a.27.27,0,0,1,0,.3,1.4,1.4,0,0,0-.09.17.19.19,0,0,0,0,.13.34.34,0,0,1,0,.29c-.05.09-.05.21-.15.27a.08.08,0,0,0,0,.08,1.55,1.55,0,0,1-.18.7.94.94,0,0,1-.17.33s0,.05,0,.07a.42.42,0,0,1-.19.37s0,.07,0,.09,0,.11-.06.16a.19.19,0,0,0-.1.13.55.55,0,0,1-.32.12c-.13,0-.26,0-.39,0s-.07,0-.1,0-.06,0-.09,0a0,0,0,0,0-.07,0c-.16.14-.33.08-.5,0l-.13,0a1.36,1.36,0,0,1-.4,0,1.8,1.8,0,0,0-.39-.08,1.34,1.34,0,0,0-.4-.06c-.13,0-.26,0-.38,0-.32,0-.63,0-.94,0-.09,0-.18,0-.27,0s-.1-.1-.17-.13a2.36,2.36,0,0,1-.36-.26,1.55,1.55,0,0,1-.47-.69c-.06-.22-.15-.44-.19-.66A1.32,1.32,0,0,1,32.93,29.78Z"/><path class="cls-1" d="M33,6.55a1.62,1.62,0,0,1,0,.22A.13.13,0,0,0,33,6.9a.26.26,0,0,1,.06.32,2.58,2.58,0,0,0,0,.48c.12.12,0,.22,0,.33a3.81,3.81,0,0,1-.39.49l-.11.06c-.17.07-.34.15-.52.21s-.1,0-.1.06-.1.09-.15.07a.21.21,0,0,0-.23,0h-.07a1,1,0,0,0-.66.28.44.44,0,0,1-.23.09,1.09,1.09,0,0,1-.39.08.6.6,0,0,0-.32.1,1.24,1.24,0,0,0-.2.1.14.14,0,0,1-.18,0,.15.15,0,0,1,0-.18c0-.07.06-.14.08-.21s0-.09-.07-.13a.54.54,0,0,0-.55,0,.16.16,0,0,1-.16,0,.34.34,0,0,0-.31,0,.19.19,0,0,1-.13,0s-.11,0,0-.1,0-.07,0-.1,0-.11-.05-.1-.12-.06-.13.05,0,0-.07,0,0,0,0-.06v0a2,2,0,0,1,.14-.25c.06-.09.08-.08.18,0a.41.41,0,0,1,.11.07c.08.06.13.05.18,0s.06-.13-.06-.17a1.62,1.62,0,0,0-.49-.08.23.23,0,0,1-.21-.09.2.2,0,0,0-.23-.09c-.09,0-.18,0-.28,0A.12.12,0,0,1,27.18,8c0-.11-.09-.08-.12-.13s-.06,0-.08,0a1,1,0,0,1-.35,0,.39.39,0,0,0-.33,0,.43.43,0,0,1-.4,0,.8.8,0,0,0-.47-.13s-.05,0-.08,0-.15,0-.22,0a1,1,0,0,0-.47-.25.23.23,0,0,1-.2-.11c-.09-.13-.15-.26-.23-.4l-.42-.69c0-.1-.06-.22-.16-.29s-.07-.21,0-.32,0-.06,0-.07-.1-.11-.11-.18.07-.11,0-.17-.07-.23,0-.36a1.45,1.45,0,0,0,0-.36.33.33,0,0,1,.07-.17c.06-.07.08-.15.13-.21a.17.17,0,0,0,0-.18.27.27,0,0,1,0-.15c0-.13,0-.17.17-.18H24a.05.05,0,0,0,.05,0,.07.07,0,0,0,0-.06l-.05,0c-.15-.1-.1-.25-.11-.38s0-.18.09-.23a1.34,1.34,0,0,1,.24-.59s0-.05,0-.08,0-.11.07-.15A.38.38,0,0,0,24.36,2a.86.86,0,0,1,.44-.64,2.55,2.55,0,0,1,.43-.3c.15-.09.3-.18.44-.28A2.79,2.79,0,0,1,26.2.51v0c.19.06.26-.09.33-.2s.05-.06.09-.06a4.46,4.46,0,0,1,.63-.05s0-.07.08,0,.06,0,.09,0,.31-.06.42.11.07,0,.1,0,0-.05,0-.08V.06S28,0,28,0h.56a.37.37,0,0,0,.34,0l.25,0a2.61,2.61,0,0,1,.69.1,5.54,5.54,0,0,1,.58.17,2.11,2.11,0,0,1,.78.42c.05.05.14,0,.15.08s.12,0,.18,0,.07,0,.09.09a1.79,1.79,0,0,0,.32.53,2.51,2.51,0,0,1,.25.32,1.91,1.91,0,0,1,.31.68,2.32,2.32,0,0,1,.15.59c0,.09,0,.19,0,.29a1.83,1.83,0,0,0,.08.25,1.31,1.31,0,0,0,.09.28,1,1,0,0,0,.2.32.19.19,0,0,1,.06.25.12.12,0,0,0,0,.13s0,.12.08.15.05.23.06.35,0,.19,0,.29l0,0c0,.06.06.11,0,.19s0,.14.07.16h0s.14,0,.15.13-.08.1-.12.15a.22.22,0,0,1-.26.06.18.18,0,0,0-.2,0c-.07,0-.06.14-.08.21A1.38,1.38,0,0,0,33,6.55Z"/><path class="cls-1" d="M104.2,47.69a.12.12,0,0,1-.11-.15s0-.06,0,0,.17,0,.15.11S104.25,47.69,104.2,47.69Z"/><path class="cls-1" d="M111.7,29.49l0,0s0,0,0,0,0,0,0,0Z"/></g></g></svg>