<svg xmlns="http://www.w3.org/2000/svg" viewBox="0 0 63.79 63.79"><defs><style>.cls-1{fill:#191919;}</style></defs><g id="Layer_2" data-name="Layer 2"><g id="Layer_1-2" data-name="Layer 1"><rect class="cls-1" x="37.14" y="24.87" width="1.18" height="3.21"/><path class="cls-1" d="M31.75,26.25c.46-.08.77.08.68.58l-.72.14-.06.58c.27.07.91-.41,1,0,.14.74-1.27.78-1.74.95A1.53,1.53,0,0,0,29.82,30c.88-.18,1.75.71,2.47.83A2.54,2.54,0,0,0,34,30.56c-.09-.42-.2-.81.13-1.17.34.26.68.52,1.08.16a1,1,0,0,1-.39-1.21.59.59,0,0,0,.91-.26c-.8,0-.47-1.16-.52-1.74,0-.28-.18-.5-.19-.77s.77-.4.95-.49.11,0,.09-.14L35,24.84l-.19-1-1,.38c-.17,0-.68-1-.82-.84l.19,1.24a1.29,1.29,0,0,0-1,.22,8.83,8.83,0,0,1-.8.58c-.47.34-.28.47-.11,1C31.44,26.43,31.59,26.28,31.75,26.25Zm.29-.76.72-.1c-.1.35-.49.61-.78.3Z"/><path class="cls-1" d="M49.38,20.29c-.35,0-1-.08-1.27.2s-.13.29,0,.42A.76.76,0,0,0,49.38,20.29Z"/><path class="cls-1" d="M14.9,21.05c.62.2,1.31-.49.45-.71a4,4,0,0,0-1-.05A1,1,0,0,0,14.9,21.05Z"/><path class="cls-1" d="M30.19,27.21c.47.11.54-.11.89-.26.17-.07.34-.09.5-.15s.16,0,.13-.16c-.67-.12-1.43.42-1.89-.26A.62.62,0,0,0,30.19,27.21Z"/><path class="cls-1" d="M39,29.62a.8.8,0,0,1-.37.47c-.92.27-2.65-.85-3.19.61-.48,1.28,1,1.71,1.08,2.71s-1.32,1.05-1.91.44a5.93,5.93,0,0,0-.91-2.34l-.09,0a2.65,2.65,0,0,1-1.8,0,9.74,9.74,0,0,0-1.48-.68c-1.17-.15-2.24,1.59-3.33,1.89a2.17,2.17,0,0,1,.05-.67c0-.16.17-.39.17-.47s-.12-.43-.06-.62l-.33.58-.32-.65v.72L26,31l.13.78-.62-.52.23.78-.59-.32.33.65-.66-.2.46.59-.59.07,1.31.33-.06.52.52-.26s-.4.35-.33.68c0,0,.1.13.13.07l.53-.3-.13.85a1.14,1.14,0,0,0,1.5-1l-.69-.2a4.54,4.54,0,0,1,3.65-.83,3.08,3.08,0,0,1,1.94,3c0,.44-.32,1.15-.88.89,0,.54.7.61,1,.26.26.92,1.31.55,2,.8a1.51,1.51,0,0,1,.81.7c.09.27-.38.3-.58.26s-.32-.3-.66-.11a1,1,0,0,0-.24.22c-.05.14.1.08.17.09.29,0,.42,0,.62.3l-.55,0a.48.48,0,0,0-.14.71c.17-.16.28-.38.56-.32,0,.15-.15.24-.18.37s0,.58.31.61c0-.83.81-.36,1.08-1,.19.37.6.26.95.19,0-.17,0-.1-.1-.13s-.49-.19-.43-.42.31,0,.43,0a.68.68,0,0,0,.55-.37c.06-.19-.2,0-.29,0s-.35,0-.45-.15c-.22-.37-.11-1-.49-1.4,0-.12.22-.2.25-.38a.51.51,0,0,0-.19-.56.36.36,0,0,1-.33.44,1.69,1.69,0,0,1-1.64-1.48c.39,0,.76.09,1.15.07,1.56-.12,1.93-1.5,1.13-2.71-.3-.46-1-.95-.81-1.55l.13-.2c.6-.48,1.52.47,1.64,1a.9.9,0,0,0,.17-.85c.89,0,1.26-.41,1.11-1.31Z"/><path class="cls-1" d="M31.89,0a31.9,31.9,0,1,0,31.9,31.89A31.89,31.89,0,0,0,31.89,0ZM46.4,20.82a3.58,3.58,0,0,1,.69-.56c.24-.15.79-.36.95-.49s.15-.28.26-.4a2.11,2.11,0,0,1,1.18-.45c.4,0,1.7.24,1.89-.13l.07-.4c.23,0,.37.47.26.66s-.42.34-.62.49a1.61,1.61,0,0,0-.59,1.21l.2,0a2,2,0,0,1,3.07-.9c0,.85-1.59,1.69-1.7.48-.35.27,0,.8.33.94.44.22.64,0,1.07,0a2.39,2.39,0,0,1,.63,1.47c0,.83-.85,2.79.85,2.39a.88.88,0,0,1-1.06.83c-.15,0-.29-.16-.44-.08-.65.74-.54,1.79.52,2,.09.21-.24.29-.43.32a1.64,1.64,0,0,1-1.47-.52,2,2,0,0,0,.14,1.92c.08.13.26.18.16.37a3.18,3.18,0,0,1-1.51.78c-.4,0-.8-.61-1-.89,0-.06,0-.12-.14-.09a2.76,2.76,0,0,0,0,1.18,4.54,4.54,0,0,1-2.12-.4,12,12,0,0,0-2.43-1.1h-.95a4.27,4.27,0,0,1,2.55-3.9c.87-.33,2.64-.3,2.49-1.6a4.58,4.58,0,0,0-.74,0c-.35,0-.62.25-1,.31-.09-.21.12-.48.11-.61s-.17-.33-.11-.5c.3-.07,1.15-.05,1.37-.23s.06-.77-.17-.94c-.57-.43-1.3.12-1.85.24a2.49,2.49,0,0,1-.33-.88C46.51,21.14,46.3,21,46.4,20.82ZM44.14,22.1l.13,0c.37,1.09,1.6.51,2.39.45a8,8,0,0,1,.85,0c.37,0,.31.23-.06.26a3.78,3.78,0,0,0-.74.11c-.72.19-1.49.86-2.24.38A.94.94,0,0,1,44.14,22.1ZM31,6.7c.23,0,.4.35.61.18s-.11-.42-.15-.64c-.25-1.17,1.18-1,.81.07,0,.12-.15.19-.17.35-.07.57.46.08.7,0,1-.19,1,.87.24.9-.32,0-.6-.34-.94-.26l.16,1.37c1.26.43,1,1.6,0,2.15-.47.25-.67.1-1.06-.22-.87-.71-.73-1.54.32-1.91l.13-1.39c-.37-.07-.64.29-1,.25C30,7.5,30,6.49,31,6.7Zm1.29,6.43a.91.91,0,1,1,.24-1.45A1,1,0,0,1,32.3,13.13Zm-7.49-.63c.47.06.78.64,1.34.53,0,.4-.31.8-.77.6-.23-.1-.35-.52-.7-.28-.47.39.2,1.75.46,2.16.09.13.54.81.68.72.22-.44.83-.32,1.08.07S27,17,27,17.35a.92.92,0,0,0,1,0,1,1,0,0,0,.17-.82c-.26-1.63-2.59-3.13-1.73-5a1.73,1.73,0,0,1,2.44-.7c.59.43.46.73,1.31.92.31.07,0,.52-.13.65-.9.78-1.29-1-1.89-.9a.72.72,0,0,0-.42.42,6,6,0,0,0,.58,2.7c.32,0,.42-.25.79-.16.81.18.82,1.39.33,1.91.31.84,1.82.88,2,0,.15-.72-.61-.82-.82-1.31s-.07-1.23.56-1.31c.32,0,.51.23.64.23s.18-.12.28-.16c.79-.28,1.24.55.94,1.21s-1.23.78-.72,1.61a1.14,1.14,0,0,0,1.88-.2c-.4-.52-.51-1.5.14-1.88.47-.27.87.17,1,.09.26-.65.95-2.37.45-3s-1,.48-1.23.71c-.55.5-1.06,0-1.25-.52,0-.12.42-.12.56-.17.56-.19.66-1,1.52-1.09a1.74,1.74,0,0,1,2,1.21c.56,2-2.09,3.55-1.81,5.27.1.66,1.14.59,1.18.27,0-.14-.07-.27-.06-.44,0-.56.5-1,1.08-.79.11.05.22.24.31.22.62-.78,1.37-1.8,1.08-2.85l-.11-.09c-.46-.15-.56.51-1,.37a.7.7,0,0,1-.37-.64c.8,0,.89-.66,1.78-.51,1.1.19,1.09,1.64.72,2.45-.48,1-2,1.74-1.65,3-1,0-.91.7-1,1.41a.69.69,0,0,1-.07.19v1.08c-.73-.16-1.46-.34-2.2-.45a24.5,24.5,0,0,0-9,.45c0-.45,0-.95,0-1.4a3.36,3.36,0,0,0-.15-.7A.76.76,0,0,0,25.3,18c.27-1.35-1.27-2-1.73-3.14S23.42,12.34,24.81,12.5Zm-5.33,9.56c.23-.19.21.59.19.68a.75.75,0,0,1-.38.53c-.85.48-1.47-.2-2.23-.4-.19-.05-1-.12-1-.16s0-.11.09-.14C17.18,22.17,18.94,23.43,19.48,22.06ZM9.25,25.18c.43,0,.68-.57.68-.93a9.37,9.37,0,0,0-.19-.92,2.31,2.31,0,0,1,.62-2.11,1,1,0,0,0,1.45-.52c0-.11.09-.4-.11-.34-.11,1.16-1.65.33-1.69-.44,0-.22.56-.37.74-.41a1.9,1.9,0,0,1,2.31,1.2l.2,0a1.46,1.46,0,0,0-.52-1.14c-.25-.2-.6-.26-.69-.63a.52.52,0,0,1,.33-.59c.07.1-.06.21,0,.35s.19.19.3.23c.79.24,2.07-.34,2.8.4a2.59,2.59,0,0,1,.24.45c.12.11,1.09.5,1.42.77s.2.37.09.73-.06.68-.39.93C16.31,22,15.51,21.52,15,22c-.2.19-.37.74-.13.91a3.06,3.06,0,0,0,1.34.2v1.18c-.25-.07-.47-.23-.72-.3s-.86-.17-1,0c-.19,1.16,1.42,1.24,2.19,1.48a4.14,4.14,0,0,1,2.82,4c-1.31-.31-2.26.6-3.36,1.06a5.84,5.84,0,0,1-1.19.38h-.95V29.71a2.43,2.43,0,0,1-1.08,1c-.3.06-1.65-.61-1.59-.87a2,2,0,0,0,.31-2.2,1.5,1.5,0,0,1-1.63.49c-.62-.18.08-.34.32-.53.59-.47.35-1.25-.06-1.76-.1-.05-.34.09-.49.1a1,1,0,0,1-1-.76C8.79,25,9.12,25.17,9.25,25.18Zm12,27.59c-.19,1.29-2.18.78-3,.61-2.77-.57-6-1.65-8.8-.72a6.35,6.35,0,0,1-.67.28l.57-3.32c.16-.36.89-.52,1.25-.59A13.31,13.31,0,0,1,14.08,49a12.81,12.81,0,0,1,3,.64l0,0c.07.59-.11,1.46,0,2a.74.74,0,0,0,.41.44c.12,0,.18-.23.28-.33A4.81,4.81,0,0,1,20,51h1.21C21.19,51.53,21.32,52.24,21.25,52.77ZM17.84,39.63c-.08-.6-.66-.84-1.15-1.08-.83-.39-1.83-.64-2.62-1-.08,0-.11,0-.09-.14a.73.73,0,0,0,.4-1.29c-.05-.24,1.17-.81,1.4-.88,2.09-.62,3.42,1.37,4.85,2.43a1.22,1.22,0,0,0,.78.33c.17,0,.19-.22.36-.2,0,.8-.4,1.13-1.18.92a2.41,2.41,0,0,1-.47,1.59c-.1.17-.55.61-.5.78.35.35,1.44,1.22,1.93.9.18-.12.4-.61.69-.74s.89,0,1,.34c-.45,0-.85.3-.79.79.22,0,.34-.22.56-.26.89-.14,1.12.39,1.14,1.17-.16,0-.17-.14-.31-.24-.42-.26-.64-.1-1.06.05l.49.26a.93.93,0,0,1,.07,1.44c-.2-.34-.12-.62-.57-.74-.65-.18-1.11.35-1.63.19-.16-.06-.22-.25-.39-.24,0,.62-.79.77-1.31.72.05-.23.34-.28.43-.52a.93.93,0,0,0-.43-1.07,1.94,1.94,0,0,0-.94-.44c-.44,0-.72.39-1.24.33-.19,0-.69-.24-.76-.42s.37-.09.48-.11C17.7,42.29,17.92,40.25,17.84,39.63Zm12.21,9.84a82.4,82.4,0,0,0-8.89.4,8.14,8.14,0,0,0-3.38.91v-3.7c.12-.42,2.46-.8,2.92-.87a88.49,88.49,0,0,1,16-.47,38,38,0,0,1,8.21.82c.22.06,1.12.34,1.12.59v3.63a9.45,9.45,0,0,0-4-1A101.76,101.76,0,0,0,30.05,49.47Zm10.53-7.92c-.19,0,.3-.35.4-.37a.89.89,0,0,1,.84.24c.14.13.26.43.4.52.5.33,1.64-.58,2-.94a3.45,3.45,0,0,1-1-2.39c-.69.41-1.18-.14-1.17-.85.17,0,.19.17.36.2.36.06.84-.38,1.11-.59,1.14-.93,2.38-2.46,4-2.27a3.3,3.3,0,0,1,1.87.93c-.34.51-.3,1.22.4,1.34,0,.14,0,.1-.08.14-.88.44-1.95.69-2.84,1.15a1.39,1.39,0,0,0-.94,1.62c.06.8.33,2.44,1.44,2.19a1.07,1.07,0,0,1-1,.53c-.42,0-.66-.38-1.12-.34a2.35,2.35,0,0,0-1.29.94c-.18.5.07.66.39.95,0,0,.13,0,.09.14-.54.06-1.3-.07-1.38-.72-.16,0-.22.18-.39.24-.44.14-.84-.23-1.28-.24a.79.79,0,0,0-.85.73c-.06.08-.06.07-.13,0a.94.94,0,0,1,.13-1.37l.49-.26a.91.91,0,0,0-1.3.2c-.14-1.13.74-1.51,1.63-.92C41.39,41.76,41.07,41.64,40.58,41.55ZM54.43,52.69c-3-.93-5.92.1-8.83.69-.76.15-2.49.61-2.93-.24a4,4,0,0,1-.16-.43V51c1,0,2.63.05,3.4.75.1.08.26.38.36.36a1,1,0,0,0,.36-.5c0-.3-.07-1.92,0-2,.4-.11.8-.26,1.2-.35,1.56-.35,4.73-.63,6.18,0a2.14,2.14,0,0,1,.37.23L55.07,53Zm4-23.76a2.5,2.5,0,0,1,.33,1.34c0,.14-.09.47-.21.21a2.93,2.93,0,0,0-.87-1.23c-.89-.66-2.45-.62-2.63.71-.26,1.86,2.72,3.15,2.92,5.22.24,2.34-1.9,3.31-3.92,2.84a2.79,2.79,0,0,0,.85,1.87c.74.64,1.93.81,2-.43.16,0,.1,0,.13.09.38,1,.07,1.37-.76,1.74,0,0-.14,0-.09.1s.32.27.42.49c.48,1,.1,2.27,0,3.31,0,.32-.05.78.23,1l.88.3a1.12,1.12,0,0,1-1.17.38c-.27-.07-.6-.45-.86-.18s0,.61.2.79.34.15.32.35a1.31,1.31,0,0,1-1.47-.72,2.06,2.06,0,0,1-.79.34c-.51,0-.92-.42-1.47-.24a.8.8,0,0,0-.45.82c-.26,0-.45-.53-.46-.75,0-.54.31-.71.7-.93.07-.05.11,0,.08-.15-.36-.13-.57-.21-.92,0-.16.1-.15.25-.32.24-.14-1.13.75-1.5,1.64-.92.06-.63-.09-.66-.63-.78,0,0-.22,0-.16-.1a1,1,0,0,1,1.17-.25c.28.14.44.49.73.58a2.16,2.16,0,0,0,1,0,3.42,3.42,0,0,0-2-3.22c-1-.45-2.47-.57-2.73-1.82-.1,0-.11.15-.19.24a1,1,0,0,1-1.58-.69c.16,0,.22.14.38.18.86.2,1.51-1.07,1.58-1.79a4.41,4.41,0,0,0-2.36-4.11,5,5,0,0,0-5.93.17c-.05.08,0,.21,0,.3s.29.14.27.34c-.58.28-1.2-.64-1.16.41l.44.64a.9.9,0,0,1-.74-.21l-.43-.58V37.6c0,1.88-1.73,3-3.17,3.83-1.79,1-3.73,1.82-5.44,3l-.16,0c-1.65-1.15-3.53-1.92-5.28-2.9-1.15-.65-3.23-2-3.23-3.51V34.88c-.18,0-.13.18-.23.33a1,1,0,0,1-.94.46c0-.25.32-.32.38-.57a.66.66,0,0,0-.12-.58c-.35,0-.6.3-1,.1,0-.19.18-.15.23-.32s.07-.26,0-.37a5.81,5.81,0,0,0-2-.9c-2.72-.6-6.47,1.74-6.27,4.7.06,1,.85,2.5,2,1.8a1,1,0,0,1-1.76.45c-.27,1.3-1.87,1.39-2.86,1.89A3.31,3.31,0,0,0,8.88,45a4.7,4.7,0,0,0,.92,0c.38-.1.57-.62,1-.68a.89.89,0,0,1,.87.35L11,45l-.1.58c.19,0,.31-.2.5-.24.91-.19,1.18.36,1.2,1.16-.26-.07-.39-.35-.69-.39a.68.68,0,0,0-.62.23A1,1,0,0,1,11.7,48c0-.36-.18-.75-.58-.83s-.86.27-1.35.24A1.2,1.2,0,0,1,9,47.05a1.32,1.32,0,0,1-1.51.78c-.08-.07.39-.39.46-.49s.32-.5,0-.69-.56.15-.84.22a1,1,0,0,1-1.16-.44c1.68,0,1-1.28,1-2.36,0-.9-.14-2.14.65-2.75-.67-.16-1.12-.53-1-1.29,0-.07.17-.73.31-.57a.77.77,0,0,0,.54.87c1.21.34,2.33-1.21,2.28-2.31C7.37,38.6,5,37,6,34.47c.5-1.32,2.58-2.77,2.73-3.88.36-2.66-3.18-2-3.46,0H5a2.15,2.15,0,0,1,.33-1.63c-.69.27-1.85.37-2.28-.37S3,27.43,3,26.8c0-.1,0-.18.13-.1a1.24,1.24,0,0,0,1.15,1c1.75.14,4.28-.58,5,1.64.91,2.73-2.42,3.63-2.5,5.92-.06,1.62,2.08,1.58,3.12,1.06a12.55,12.55,0,0,1,.88-2.89c.21-.46,1-1.89,1.48-2a14.21,14.21,0,0,1,1.42.32c2.13.19,2.5-.55,4.2-1.23,2-.81,3.31,1.27,4.88,2.16.16.07.38.11.5-.05V24.41c-.95,0-.51.65-.59,1.14,0,.13-.26.7-.39.5s0-.41-.24-.45-1,.58-1.23.78-.58.51-.85.78a3.32,3.32,0,0,0-1.51-1.82c-.06,0-.13,0-.09-.14.94-.14,2.67-.63,3.23-1.45.33-.47.08-1.13,1-1.05.22-.55.76-.95,1.32-.54l-.05.16c-.4.08-.49.49-.54.85l2-.46v2.62h1.11V22.45c.49-.08,1-.19,1.48-.25a30,30,0,0,1,12.42,1c.09,0-.05-.44-.08-.5-.13-.26-.42-.3-.47-.55.4-.14.7-.22,1,.11.12.11.21.39.33.45s.38,0,.59.19.16.39.23.63c.27.9,2.5,1.62,3.37,1.7,0,.15,0,.1-.09.14a3.73,3.73,0,0,0-1.52,1.82c-.27-.3-1.76-1.64-2.08-1.56l-.08,0-.26.4a1.28,1.28,0,0,1-.28-.51c0-.24.06-.37.06-.57a.53.53,0,0,0-.66-.56v8.21c.12.16.34.12.51.05.95-.58,1.8-1.45,2.77-2,1.75-1,2.57.26,4.07.82a5.27,5.27,0,0,0,3.67-.13c1.49,1.22,1.94,3.18,2.43,5,1,.47,2.91.6,3-.88.2-2.41-3.79-3.55-2.33-6.45,1-1.95,3.39-1,5-1.32.55-.09.81-.53,1.06-1C61.35,28.54,60.31,29.61,58.47,28.93Z"/><path class="cls-1" d="M26,28.34l-.4.75c0,.2.35.42.5.3s.43-.79.65-.79l2.45,1.31a3.2,3.2,0,0,1,.15-.61c.06-.15.32-.44.18-.54-.48,0-1.43-.57-1.85-.47-.09,0-.17.1-.28.11-.28,0-.44-.17-.62-.36,0-.21.18,0,.33-.06l.29-.3.47.19.29-.35-.4-.16L30,24.13v-.67l-.69.23-2.25,3h-.14l-.26-.26-.2.33,0,.1c.08.15.56.36.24.56-.13.08-.39-.07-.61,0a1.72,1.72,0,0,0-.51.28c.23.08.55-.07.66.23a1.56,1.56,0,0,0-.53,0c-.15,0-.54.39-.16.35A.9.9,0,0,1,26,28.34Z"/><rect class="cls-1" x="31.91" y="39.13" width="1.11" height="3.21"/><path class="cls-1" d="M32.5,35c0-.11-.18,0-.3-.12-.46-.3,0-.89-.1-1a1.93,1.93,0,0,0-2.38.32c-.32.25-1.09,1.29-1.38,1.31a.71.71,0,0,1-.22-.07c-.08.46.27.56.65.46A4.56,4.56,0,0,0,29,37.52a1.71,1.71,0,0,1-.81.57c-.42,0-.55-.74-1.14-.39,0,.15,0,.1.08.14s.36.13.31.44c-.46-.38-1-.13-.88.46a.48.48,0,0,1,.62-.13c0,.2-.18.13-.29.26a.55.55,0,0,0,.06.72c.19-.86.83-.15,1.37-.38a.88.88,0,0,0,.76.38c0-.18-.23-.26-.25-.43s.57-.72.81-.73.73.47,1.07,0c-.5,0-.62-.41-.65-.85C29.94,35.79,31.13,35.51,32.5,35Z"/></g></g></svg>