<svg xmlns="http://www.w3.org/2000/svg" viewBox="0 0 75.93 74.95"><defs><style>.cls-1{fill:#191919;}</style></defs><g id="Layer_2" data-name="Layer 2"><g id="Layer_1-2" data-name="Layer 1"><polygon class="cls-1" points="51.07 21.11 46.57 21.11 41.91 33.31 42.91 35.8 46.2 27.04 53.31 47.22 52.08 49.37 52.08 49.84 61.85 49.84 61.85 49.37 60.55 47.22 51.07 21.11"/><polygon class="cls-1" points="34.9 27.39 34.46 26.17 32.65 21.11 25.78 21.11 26.72 23.73 17.75 47.22 16.03 49.37 16.03 49.84 20.57 49.84 20.57 49.37 19.44 47.22 27.53 26.01 30.81 35.3 31.25 36.52 33.27 42.24 38.13 42.24 38.21 36.65 34.9 27.39"/><polygon class="cls-1" points="38.13 42.24 33.27 42.24 28.96 42.24 31.25 36.52 30.81 35.3 25 49.84 25.92 49.84 28.62 43.1 33.57 43.1 38.12 43.1 38.17 43.1 38.5 42.24 38.13 42.24"/><polygon class="cls-1" points="41.45 34.5 38.5 42.24 38.17 43.1 38.12 43.24 38.12 43.1 33.57 43.1 35.95 49.84 37.63 49.84 40.16 43.1 40.49 42.24 42.45 37 41.45 34.5"/><polygon class="cls-1" points="42.91 35.8 41.91 33.31 37.06 21.2 36.45 21.2 34.46 26.17 34.9 27.39 36.75 22.76 41.45 34.5 42.45 37 44.55 42.24 40.49 42.24 40.16 43.1 44.9 43.1 47.59 49.84 48.53 49.84 42.91 35.8"/><path class="cls-1" d="M22.83,74.22l.42-9.52.83.37-.16,2.84,3.58,1.57,2-2,.8.35-6.88,6.68Zm1.06-5.56-.25,4.67L27,70Z"/><path class="cls-1" d="M17.88,71.68,12.77,67.8l.47-.62,2.22,1.69,4.91-6.46.67.52-4.91,6.45,2.21,1.69Z"/><path class="cls-1" d="M9.91,64.9,6.34,60.31,7,59.84,10,63.76l2.48-1.93L9.74,58.29l.61-.47,2.74,3.54,2.7-2.1-3.2-4.13.61-.47,3.73,4.8Z"/><path class="cls-1" d="M3.9,56l-.32-.78,7.49-3.11L9.19,47.57l.71-.29,2.21,5.31Z"/><path class="cls-1" d="M.85,46.93.68,46.1l8.71-1.75.17.84Z"/><path class="cls-1" d="M0,41.69V35.88H.78v5H3.92V36.37H4.7v4.48H8.11V35.63h.77v6.08Z"/><path class="cls-1" d="M.67,31.06l1.08-3.78a2.75,2.75,0,0,1,.53-1.07A2.08,2.08,0,0,1,3,25.59a2.1,2.1,0,0,1,.89-.23,2.83,2.83,0,0,1,.92.11,2.15,2.15,0,0,1,1.48,1.15,3.14,3.14,0,0,1,.14,2L11.07,27l-.3,1L6.21,29.66,5.65,31.6l3.79,1.09-.23.81Zm4.24.33.72-2.53a2.91,2.91,0,0,0,.15-1.1,1.79,1.79,0,0,0-.2-.75,1.22,1.22,0,0,0-.43-.47,1.85,1.85,0,0,0-.55-.26,1.63,1.63,0,0,0-1.31.11,2.18,2.18,0,0,0-.88,1.4l-.76,2.67Z"/><path class="cls-1" d="M75.93,27.6,68.5,33.55l-.28-.86,2.25-1.76L69.3,27.21,66.43,27l-.26-.84,9.56.79Zm-4.88,2.86,3.69-2.88-4.69-.31Z"/><path class="cls-1" d="M74.7,34.7v.75h-1v0a2.06,2.06,0,0,1,.79.61,1.7,1.7,0,0,1,.32,1.05,2,2,0,0,1-.32,1.15,1.34,1.34,0,0,1-1,.57v0a2.15,2.15,0,0,1,1,.68,1.81,1.81,0,0,1,.35,1.19,1.76,1.76,0,0,1-.24,1,1.37,1.37,0,0,1-.58.52,2,2,0,0,1-.71.19l-.65,0h-4v-.75h4.4a1.59,1.59,0,0,0,.51-.13.91.91,0,0,0,.38-.35,1.18,1.18,0,0,0,.15-.65,1.42,1.42,0,0,0-.16-.7,1.72,1.72,0,0,0-.46-.51,2.18,2.18,0,0,0-.67-.31A3,3,0,0,0,72,39H68.71v-.75h3.77a3.82,3.82,0,0,0,.58,0A1.53,1.53,0,0,0,73.6,38a.88.88,0,0,0,.4-.34,1.13,1.13,0,0,0,.15-.63,1.43,1.43,0,0,0-.57-1.16A2.46,2.46,0,0,0,72,35.45H68.71v-.75Z"/><path class="cls-1" d="M69.78,45.2a2,2,0,0,0-1,.38,1.86,1.86,0,0,0-.54,1,2.41,2.41,0,0,0-.07.49,1.21,1.21,0,0,0,.06.5,1.07,1.07,0,0,0,.27.44,1.11,1.11,0,0,0,.55.29.78.78,0,0,0,.7-.08,1.91,1.91,0,0,0,.48-.56,7.86,7.86,0,0,0,.4-.77,3.59,3.59,0,0,1,.44-.77,1.55,1.55,0,0,1,.63-.51,1.37,1.37,0,0,1,.95,0,1.54,1.54,0,0,1,.57.29,1.57,1.57,0,0,1,.41.51,2,2,0,0,1,.19.72,2.51,2.51,0,0,1-.09.88A3.28,3.28,0,0,1,73,49.32a1.62,1.62,0,0,1-1.23.49v-.73a1.23,1.23,0,0,0,.86-.35,2,2,0,0,0,.39-.81,2.79,2.79,0,0,0,.1-.69,1.21,1.21,0,0,0-.1-.47.72.72,0,0,0-.27-.3,1.39,1.39,0,0,0-.39-.17.66.66,0,0,0-.62.11,2.17,2.17,0,0,0-.45.56,7,7,0,0,0-.41.78,4,4,0,0,1-.48.75,1.76,1.76,0,0,1-.67.51,1.51,1.51,0,0,1-1,0,1.68,1.68,0,0,1-.64-.32,1.62,1.62,0,0,1-.45-.58,2.3,2.3,0,0,1-.2-.81,3.26,3.26,0,0,1,.12-1,2.8,2.8,0,0,1,.23-.63,1.75,1.75,0,0,1,.38-.55,2,2,0,0,1,.61-.43,3.09,3.09,0,0,1,.9-.26Z"/><path class="cls-1" d="M72.15,52.26l-.51,1.11L74,54.44l-.31.68-2.33-1.07-.54,1.18L70.22,55l.54-1.19-3.6-1.64L66.87,52A1.8,1.8,0,0,0,66.6,52a.53.53,0,0,0-.23,0,.38.38,0,0,0-.17.2,1.14,1.14,0,0,0-.11.45,3.44,3.44,0,0,0,0,.43l-.68-.32a2.39,2.39,0,0,1,.18-1,1.48,1.48,0,0,1,.21-.32.78.78,0,0,1,.3-.22.82.82,0,0,1,.39-.07,1.21,1.21,0,0,1,.49.12l4,1.85L71.58,52Z"/><path class="cls-1" d="M66.86,56.19l-.14-.09a3.45,3.45,0,0,0-.82-.44,2,2,0,0,0-.79-.13,1.52,1.52,0,0,0-.74.22,2,2,0,0,0-.64.6,2,2,0,0,0-.43,1.2,2.46,2.46,0,0,0,.36,1.12l-.56.47a2.82,2.82,0,0,1-.48-1.59,2.79,2.79,0,0,1,.58-1.65,2.62,2.62,0,0,1,.77-.75,2.47,2.47,0,0,1,1-.36,2.81,2.81,0,0,1,1.14.09,4.1,4.1,0,0,1,1.23.6,3.92,3.92,0,0,1,1,1,3,3,0,0,1,.48,1,2.48,2.48,0,0,1,0,1.05,2.6,2.6,0,0,1-.43,1,2.66,2.66,0,0,1-.86.82,2.47,2.47,0,0,1-1,.31,3,3,0,0,1-1.1-.15,5.11,5.11,0,0,1-1.13-.55ZM65.24,59.6a3.2,3.2,0,0,0,.64.21,1.85,1.85,0,0,0,.66.06,1.6,1.6,0,0,0,.65-.21,1.7,1.7,0,0,0,.58-.56,1.55,1.55,0,0,0,.3-.67,1.73,1.73,0,0,0,0-.68,2.08,2.08,0,0,0-.25-.64,2.69,2.69,0,0,0-.46-.56Z"/><path class="cls-1" d="M64.61,63.82l-.53.52-.59-.59h0a2.44,2.44,0,0,1,0,1,1.56,1.56,0,0,1-.5.84,1.75,1.75,0,0,1-.2.19l-.2.17-.45-.46a2,2,0,0,0,.39-.32,1.42,1.42,0,0,0,.51-1.3,2.52,2.52,0,0,0-.76-1.35l-2.41-2.46.54-.53Z"/><path class="cls-1" d="M54.58,65.26h0a1.51,1.51,0,0,1,.2-1,2.5,2.5,0,0,1,1.53-1.08,2.27,2.27,0,0,1,1,0,2.73,2.73,0,0,1,1,.45,3.68,3.68,0,0,1,1,1,4.83,4.83,0,0,1,.61,1.26A3.29,3.29,0,0,1,60,67a2.25,2.25,0,0,1-1,1.67,2,2,0,0,1-1,.39,2.13,2.13,0,0,1-1-.18h0l2,3.06-.62.41-5-7.37.62-.42Zm4.16-.16a2.89,2.89,0,0,0-1.41-1.21,1.61,1.61,0,0,0-1.46.19,1.58,1.58,0,0,0-.59.66,1.62,1.62,0,0,0-.14.78,2.56,2.56,0,0,0,.21.81,4.13,4.13,0,0,0,.42.77,5,5,0,0,0,.54.68,2.36,2.36,0,0,0,.65.51,1.39,1.39,0,0,0,.75.18,1.54,1.54,0,0,0,.85-.3,1.64,1.64,0,0,0,.76-1.3A2.93,2.93,0,0,0,58.74,65.1Z"/><path class="cls-1" d="M46.76,67.77l.59-.21a1.4,1.4,0,0,1,.48-.06.67.67,0,0,1,.41.17,1.45,1.45,0,0,1,.35.51h0a2.1,2.1,0,0,1,.5-1.13,2.81,2.81,0,0,1,1.05-.68,2.67,2.67,0,0,1,.69-.16,1.87,1.87,0,0,1,.67,0,1.45,1.45,0,0,1,1,.91,1.56,1.56,0,0,1-.15,1.49,2.59,2.59,0,0,1-.53.57c-.21.18-.42.34-.63.5l-1.54,1.1.21.56a.93.93,0,0,0,.67.64,2,2,0,0,0,1.12-.16,1.46,1.46,0,0,0,.9-.73,1.53,1.53,0,0,0,0-1.15l.84-.17a2.15,2.15,0,0,1-1.5,2.64,3.22,3.22,0,0,1-1.28.27,1.6,1.6,0,0,1-.79-.24,1.29,1.29,0,0,1-.45-.48,4,4,0,0,1-.23-.49l-1.06-2.74a1.25,1.25,0,0,0-.22-.39.47.47,0,0,0-.25-.16.55.55,0,0,0-.28,0l-.33.11Zm5.06-.33a.77.77,0,0,0-.25-.35,1.11,1.11,0,0,0-.37-.15,1.48,1.48,0,0,0-.42,0,1.85,1.85,0,0,0-.42.11,2.18,2.18,0,0,0-.54.31,2.31,2.31,0,0,0-.49.54,2,2,0,0,0-.28.74,1.91,1.91,0,0,0,.13.94l.25.63,1.8-1.33a2.25,2.25,0,0,0,.58-.62A.9.9,0,0,0,51.82,67.44Z"/><path class="cls-1" d="M46.16,74.21l-.74.07-.1-1h0a2,2,0,0,1-.53.84,1.67,1.67,0,0,1-1,.42,2.05,2.05,0,0,1-1.17-.21,1.34,1.34,0,0,1-.66-.93h0a2.26,2.26,0,0,1-.58,1,1.92,1.92,0,0,1-1.16.46,1.85,1.85,0,0,1-1-.14,1.46,1.46,0,0,1-.57-.53,2.23,2.23,0,0,1-.26-.69c0-.25-.07-.47-.08-.65L37.84,69l.74-.08L39,72.77c0,.17,0,.34.07.53a1.43,1.43,0,0,0,.18.5,1,1,0,0,0,.38.34,1.23,1.23,0,0,0,.67.09,1.49,1.49,0,0,0,.68-.24,1.7,1.7,0,0,0,.46-.5,2.09,2.09,0,0,0,.24-.69,2.85,2.85,0,0,0,0-.83l-.32-3.31.74-.08.37,3.76a4,4,0,0,0,.08.58,1.71,1.71,0,0,0,.2.52.88.88,0,0,0,.38.36,1.22,1.22,0,0,0,.64.09,1.45,1.45,0,0,0,1.1-.68,2.48,2.48,0,0,0,.31-1.61l-.32-3.28.75-.07Z"/><path class="cls-1" d="M10.16,15l3.13,6.72.65.1L14,22l-.89,1.26-.1-.1L13,22.27,9.49,14.7l-.78-.38,1.38-1.67,4.71,2.12,1.41,1.62-2.86-6.9,1-1,8,4.17.75.2.1.11-2.39,2-.11-.1-.18-.75-6-3.22,2.91,7-.38.36Z"/><path class="cls-1" d="M24.64,8.59,22.86,4.12l-.57-.51-.05-.14,2.94-1.06.05.14-.16.75,1.78,4.46c.5,1.51,1.28,2.67,3.1,2.08A2.67,2.67,0,0,0,31.84,6.4L30.57,1.63,30,1.11,30,1,31.34.58l.05.14-.16.75,1.21,4.64c.52,1.58-.1,3.55-2.54,4.34C26.67,11.5,25.26,10.5,24.64,8.59Z"/><path class="cls-1" d="M38.12,1.53l-.2,6.63.38.6v.15l-1.39,0V8.79l.41-.65L37.54.85,37,.16V0h2.8l4.09,5.13.65,2.1.83-6.11L45,.45l0-.18,1.45.21V.67L46,1.28l-1.12,8.1-.29,0Z"/><path class="cls-1" d="M56.71,13.61l.52,1-.06.13L54.63,13.3l-1-5.59-.81-.42-1.63,3.35,0,.77-.07.13-2.55-1.21.07-.13.65-.42,3.12-6.64,0-.76.07-.13L56.47,4.1c1.25.64,3.47,2,2.49,3.87-.84,1.64-2.77,1-4.54.11l1.39,1.27ZM53.05,6.9l1.59.82a1.64,1.64,0,0,0,2.54-.79c.51-1,.15-1.9-1-2.5l-1.62-.79Z"/><path class="cls-1" d="M61.57,12.28c1.87-1.65,4.38-2,6.76.67,2.16,2.44,2.09,5.11,0,7s-4.8,1.55-6.82-.75S59.48,14.12,61.57,12.28Zm5,6.22c1.9-1.68,3.12-3.39,1.46-5.28-1.49-1.68-3.24-.57-4.51.55-2,1.74-3.29,3.35-1.6,5.27C63.26,20.56,65,19.89,66.57,18.5Z"/></g></g></svg>