<svg xmlns="http://www.w3.org/2000/svg" viewBox="0 0 110.27 39.28"><defs><style>.cls-1,.cls-2{fill:#191919;}.cls-2{fill-rule:evenodd;}</style></defs><g id="Layer_2" data-name="Layer 2"><g id="Layer_1-2" data-name="Layer 1"><path class="cls-1" d="M107.72,34.76a1.46,1.46,0,0,1,.94-.31,1.53,1.53,0,0,1,.6.12,1.75,1.75,0,0,1,.51.34,1.58,1.58,0,0,1,.34.5,1.44,1.44,0,0,1,.13.62v1.48a.32.32,0,0,1-.09.23.33.33,0,0,1-.23.09.29.29,0,0,1-.22-.09.32.32,0,0,1-.09-.23V36a.91.91,0,0,0-.08-.37.93.93,0,0,0-.2-.3,1,1,0,0,0-.3-.2.8.8,0,0,0-.37-.08.94.94,0,0,0-.37.07,1,1,0,0,0-.3.21.93.93,0,0,0-.2.3.9.9,0,0,0-.07.37v1.48a.33.33,0,0,1-.1.23.31.31,0,0,1-.44,0,.29.29,0,0,1-.1-.23V34.77a.29.29,0,0,1,.1-.23.31.31,0,0,1,.44,0A.32.32,0,0,1,107.72,34.76Z"/><path class="cls-1" d="M105.79,36.88A.32.32,0,0,1,106,37a.29.29,0,0,1,.09.22.32.32,0,0,1-.09.23,1.69,1.69,0,1,1,.09-2.48,1.78,1.78,0,0,1,.37.55,1.75,1.75,0,0,1,.12.65.32.32,0,0,1-.09.23.33.33,0,0,1-.22.08h-2.4a1.14,1.14,0,0,0,.16.31.84.84,0,0,0,.23.23,1.08,1.08,0,0,0,.3.16,1.2,1.2,0,0,0,.33.05,1.06,1.06,0,0,0,.37-.06,1.09,1.09,0,0,0,.31-.18A.32.32,0,0,1,105.79,36.88Zm.14-1.05a1.11,1.11,0,0,0-.15-.31,1,1,0,0,0-.24-.23,1.18,1.18,0,0,0-.29-.16,1.27,1.27,0,0,0-.34-.05,1.26,1.26,0,0,0-.33.05,1.08,1.08,0,0,0-.3.16,1,1,0,0,0-.24.23,1.48,1.48,0,0,0-.15.31Z"/><path class="cls-1" d="M101.05,34.45a1.63,1.63,0,0,1,1.06.37V33.31a.29.29,0,0,1,.09-.22.28.28,0,0,1,.22-.09.33.33,0,0,1,.23.09.29.29,0,0,1,.09.22v2.83a1.7,1.7,0,1,1-1.69-1.69Zm1.06,1.69a1,1,0,0,0-.09-.41,1.11,1.11,0,0,0-.22-.34,1.36,1.36,0,0,0-.34-.23,1.15,1.15,0,0,0-.41-.08,1.16,1.16,0,0,0-.42.08,1.36,1.36,0,0,0-.34.23,1.11,1.11,0,0,0-.22.34,1.09,1.09,0,0,0,0,.82,1.11,1.11,0,0,0,.22.34,1.36,1.36,0,0,0,.34.23,1.16,1.16,0,0,0,.42.08,1.15,1.15,0,0,0,.41-.08,1.36,1.36,0,0,0,.34-.23,1.11,1.11,0,0,0,.22-.34A1,1,0,0,0,102.11,36.14Z"/><path class="cls-1" d="M96.36,34.76a1.48,1.48,0,0,1,.94-.31,1.58,1.58,0,0,1,.61.12,1.7,1.7,0,0,1,.5.34,1.58,1.58,0,0,1,.34.5,1.44,1.44,0,0,1,.13.62v1.48a.32.32,0,0,1-.09.23.31.31,0,0,1-.22.09.31.31,0,0,1-.32-.32V36a.91.91,0,0,0-.08-.37.93.93,0,0,0-.2-.3,1,1,0,0,0-.3-.2.8.8,0,0,0-.37-.08.86.86,0,0,0-.36.07,1.05,1.05,0,0,0-.51.51.9.9,0,0,0-.07.37v1.48a.32.32,0,0,1-.09.23.33.33,0,0,1-.23.09.29.29,0,0,1-.22-.09.32.32,0,0,1-.09-.23V34.77a.32.32,0,0,1,.09-.23.29.29,0,0,1,.22-.09.33.33,0,0,1,.23.09A.31.31,0,0,1,96.36,34.76Z"/><path class="cls-1" d="M95.13,33.85a.35.35,0,0,1-.1.26.39.39,0,0,1-.27.11.38.38,0,0,1-.37-.37.39.39,0,0,1,.11-.27.35.35,0,0,1,.26-.1.34.34,0,0,1,.37.37Zm-.68,3.66V34.77a.32.32,0,0,1,.09-.23.31.31,0,0,1,.22-.09.29.29,0,0,1,.22.09.29.29,0,0,1,.1.23v2.74a.29.29,0,0,1-.1.23.29.29,0,0,1-.22.09.31.31,0,0,1-.22-.09A.32.32,0,0,1,94.45,37.51Z"/><path class="cls-1" d="M92.23,37.83a.28.28,0,0,1-.28-.17l-1.27-2.77a.31.31,0,0,1,0-.13.27.27,0,0,1,0-.12.21.21,0,0,1,.06-.1l.1-.07.13,0a.28.28,0,0,1,.15,0,.34.34,0,0,1,.12.12l1,2.15,1-2.15a.29.29,0,0,1,.28-.16l.12,0,.1.07a.36.36,0,0,1,.07.1.27.27,0,0,1,0,.12.28.28,0,0,1,0,.13l-1.27,2.77A.28.28,0,0,1,92.23,37.83Z"/><path class="cls-1" d="M86.56,34.76v.06a1.69,1.69,0,0,1,.49-.27,1.56,1.56,0,0,1,.57-.1,1.46,1.46,0,0,1,.29,0,1.27,1.27,0,0,1,.28.06.62.62,0,0,1,.21.13.26.26,0,0,1,.09.21.28.28,0,0,1,0,.13.61.61,0,0,1-.07.1.21.21,0,0,1-.1.06l-.12,0-.13,0a1,1,0,0,0-.42-.08,1.15,1.15,0,0,0-.41.08,1.13,1.13,0,0,0-.34.23,1.11,1.11,0,0,0-.22.34,1,1,0,0,0-.09.41v1.38a.31.31,0,0,1-.31.31.32.32,0,0,1-.23-.09.31.31,0,0,1-.09-.22V34.76a.31.31,0,0,1,.09-.22.32.32,0,0,1,.23-.09.31.31,0,0,1,.31.31Z"/><path class="cls-1" d="M84.83,37.52v-.06a2,2,0,0,1-.49.28,1.79,1.79,0,0,1-.57.09,1.69,1.69,0,1,1,1.69-1.69v1.38a.31.31,0,0,1-.31.31.32.32,0,0,1-.23-.09A.31.31,0,0,1,84.83,37.52Zm-1.06-2.44a1.16,1.16,0,0,0-.42.08,1.07,1.07,0,0,0,0,2,1.16,1.16,0,0,0,.42.08,1.15,1.15,0,0,0,.41-.08,1.08,1.08,0,0,0,.57-.57,1.09,1.09,0,0,0,0-.82,1.08,1.08,0,0,0-.57-.57A1.15,1.15,0,0,0,83.77,35.08Z"/><path class="cls-1" d="M81,37.52v-.06a1.83,1.83,0,0,1-.49.28,1.79,1.79,0,0,1-.57.09,1.69,1.69,0,1,1,0-3.38,1.66,1.66,0,0,1,1.2.49,1.63,1.63,0,0,1,.49,1.2v1.38a.31.31,0,0,1-.09.22.29.29,0,0,1-.22.09.33.33,0,0,1-.23-.09A.31.31,0,0,1,81,37.52ZM79.9,35.08a1.16,1.16,0,0,0-.42.08,1.3,1.3,0,0,0-.33.23,1.13,1.13,0,0,0-.23.34,1.09,1.09,0,0,0,0,.82,1.13,1.13,0,0,0,.23.34,1.3,1.3,0,0,0,.33.23,1.14,1.14,0,0,0,.84,0,1.3,1.3,0,0,0,.33-.23,1.13,1.13,0,0,0,.23-.34,1.09,1.09,0,0,0,0-.82,1.13,1.13,0,0,0-.23-.34,1.3,1.3,0,0,0-.33-.23A1.16,1.16,0,0,0,79.9,35.08Z"/><path class="cls-1" d="M75,37.51V33.32a.29.29,0,0,1,.1-.23.31.31,0,0,1,.44,0,.33.33,0,0,1,.1.23v2.35l1.8-1.17a.26.26,0,0,1,.17,0l.12,0a.26.26,0,0,1,.1.07.23.23,0,0,1,.07.1.3.3,0,0,1-.09.37l-1.27.82,1.3,1.47a.29.29,0,0,1,.09.22.27.27,0,0,1,0,.12.23.23,0,0,1-.07.1.26.26,0,0,1-.1.07l-.12,0a.32.32,0,0,1-.21-.08L76,36.18l-.36.24v1.09a.33.33,0,0,1-.1.23.31.31,0,0,1-.44,0A.29.29,0,0,1,75,37.51Z"/><path class="cls-1" d="M73.54,37.52v-4.2a.32.32,0,0,1,.09-.23.29.29,0,0,1,.22-.09.31.31,0,0,1,.32.32V37.2h.14a.33.33,0,0,1,.23.09.32.32,0,0,1,.09.23.31.31,0,0,1-.09.22.33.33,0,0,1-.23.09h-.46a.29.29,0,0,1-.22-.09A.31.31,0,0,1,73.54,37.52Z"/><path class="cls-1" d="M72.28,36.88a.31.31,0,0,1,.31.31.32.32,0,0,1-.09.23A1.69,1.69,0,1,1,73,35.49a1.57,1.57,0,0,1,.13.65.29.29,0,0,1-.1.23.33.33,0,0,1-.22.08H70.38a.89.89,0,0,0,.15.31.84.84,0,0,0,.23.23,1.08,1.08,0,0,0,.3.16,1.27,1.27,0,0,0,.34.05,1,1,0,0,0,.36-.06,1.09,1.09,0,0,0,.31-.18A.32.32,0,0,1,72.28,36.88Zm.13-1.05a.89.89,0,0,0-.15-.31,1.25,1.25,0,0,0-.23-.23,1.08,1.08,0,0,0-.3-.16,1.26,1.26,0,0,0-.33-.05,1.27,1.27,0,0,0-.34.05,1.08,1.08,0,0,0-.3.16.84.84,0,0,0-.23.23.89.89,0,0,0-.15.31Z"/><path class="cls-1" d="M65.31,36.22a1.18,1.18,0,0,1-.4-.22h0a.78.78,0,0,1-.23-.55A.73.73,0,0,1,64.8,35a1.08,1.08,0,0,1,.32-.32,1.6,1.6,0,0,1,.44-.2,1.73,1.73,0,0,1,.5-.07,1.66,1.66,0,0,1,1.29.61.25.25,0,0,1,.07.19.29.29,0,0,1-.09.22.32.32,0,0,1-.23.09.28.28,0,0,1-.16-.05l-.13-.12a1,1,0,0,0-.75-.31.94.94,0,0,0-.7.27.17.17,0,0,0,0,.13.12.12,0,0,0,.08.11l1.42.47a1.38,1.38,0,0,1,.4.22h0a.74.74,0,0,1,.23.55.79.79,0,0,1-.12.42,1.18,1.18,0,0,1-.32.31,1.35,1.35,0,0,1-.44.2,1.66,1.66,0,0,1-.49.07,1.68,1.68,0,0,1-1.3-.6.34.34,0,0,1-.06-.2.33.33,0,0,1,.08-.22.32.32,0,0,1,.23-.09.25.25,0,0,1,.17.06l.13.11a1,1,0,0,0,.75.31.9.9,0,0,0,.69-.27.21.21,0,0,0,0-.13.12.12,0,0,0-.08-.11Z"/><path class="cls-1" d="M63.21,37.52v-4.2a.32.32,0,0,1,.09-.23.29.29,0,0,1,.22-.09.31.31,0,0,1,.32.32V37.2H64a.29.29,0,0,1,.22.09.29.29,0,0,1,.1.23.28.28,0,0,1-.1.22.29.29,0,0,1-.22.09h-.46a.29.29,0,0,1-.22-.09A.31.31,0,0,1,63.21,37.52Z"/><path class="cls-1" d="M62.13,37.52v-.06a2.06,2.06,0,0,1-.5.28,1.7,1.7,0,0,1-.57.09,1.69,1.69,0,1,1,1.7-1.69v1.38a.28.28,0,0,1-.1.22.31.31,0,0,1-.44,0A.31.31,0,0,1,62.13,37.52Zm-1.07-2.44a1.15,1.15,0,0,0-.41.08,1.36,1.36,0,0,0-.34.23,1.11,1.11,0,0,0-.22.34,1,1,0,0,0,0,.82,1.11,1.11,0,0,0,.22.34,1.36,1.36,0,0,0,.34.23,1.15,1.15,0,0,0,.41.08,1.16,1.16,0,0,0,.42-.08,1.36,1.36,0,0,0,.34-.23,1.11,1.11,0,0,0,.22-.34,1,1,0,0,0,0-.82,1.11,1.11,0,0,0-.22-.34,1.36,1.36,0,0,0-.34-.23A1.16,1.16,0,0,0,61.06,35.08Z"/><path class="cls-1" d="M56.38,34.76a1.46,1.46,0,0,1,.94-.31,1.53,1.53,0,0,1,.6.12,1.63,1.63,0,0,1,.51.34,1.58,1.58,0,0,1,.34.5,1.44,1.44,0,0,1,.13.62v1.48a.31.31,0,0,1-.32.32.31.31,0,0,1-.22-.09.32.32,0,0,1-.09-.23V36a.91.91,0,0,0-.08-.37.93.93,0,0,0-.2-.3,1,1,0,0,0-.3-.2.8.8,0,0,0-.37-.08.86.86,0,0,0-.36.07,1,1,0,0,0-.31.21.93.93,0,0,0-.2.3.9.9,0,0,0-.07.37v1.48a.29.29,0,0,1-.1.23.31.31,0,0,1-.44,0,.32.32,0,0,1-.09-.23V34.77a.32.32,0,0,1,.09-.23.31.31,0,0,1,.44,0A.28.28,0,0,1,56.38,34.76Z"/><path class="cls-1" d="M55.27,36.14a1.69,1.69,0,1,1-.5-1.2,1.62,1.62,0,0,1,.37.55A2,2,0,0,1,55.27,36.14Zm-1.7-1.06a1.11,1.11,0,0,0-.41.08,1.36,1.36,0,0,0-.34.23,1.11,1.11,0,0,0-.22.34,1,1,0,0,0,0,.82,1.11,1.11,0,0,0,.22.34,1.36,1.36,0,0,0,.34.23,1.11,1.11,0,0,0,.41.08,1.16,1.16,0,0,0,.42-.08,1.14,1.14,0,0,0,.33-.23,1.06,1.06,0,0,0,0-1.5,1.14,1.14,0,0,0-.33-.23A1.16,1.16,0,0,0,53.57,35.08Z"/><path class="cls-1" d="M51.29,33.85a.38.38,0,0,1-.37.37.39.39,0,0,1-.27-.11.36.36,0,0,1-.11-.26.39.39,0,0,1,.11-.27.38.38,0,0,1,.27-.1.35.35,0,0,1,.26.1A.39.39,0,0,1,51.29,33.85Zm-.69,3.66V34.77a.32.32,0,0,1,.09-.23.33.33,0,0,1,.23-.09.31.31,0,0,1,.22.09.32.32,0,0,1,.09.23v2.74a.32.32,0,0,1-.09.23.31.31,0,0,1-.22.09.33.33,0,0,1-.23-.09A.32.32,0,0,1,50.6,37.51Z"/><path class="cls-1" d="M47.85,36.22a1.18,1.18,0,0,1-.4-.22h0a.78.78,0,0,1-.23-.55.73.73,0,0,1,.12-.41,1.22,1.22,0,0,1,.32-.32,1.6,1.6,0,0,1,.44-.2,1.73,1.73,0,0,1,.5-.07,1.66,1.66,0,0,1,1.29.61.25.25,0,0,1,.07.19.29.29,0,0,1-.09.22.32.32,0,0,1-.23.09.28.28,0,0,1-.16-.05l-.13-.12a1,1,0,0,0-.75-.31.94.94,0,0,0-.7.27.17.17,0,0,0,0,.13.11.11,0,0,0,.07.11l1.42.47a1.25,1.25,0,0,1,.4.22h0a.74.74,0,0,1,.23.55.79.79,0,0,1-.12.42,1.18,1.18,0,0,1-.32.31,1.35,1.35,0,0,1-.44.2,1.66,1.66,0,0,1-.49.07,1.68,1.68,0,0,1-1.3-.6.34.34,0,0,1-.06-.2.29.29,0,0,1,.09-.22.28.28,0,0,1,.22-.09.25.25,0,0,1,.17.06l.13.11a1,1,0,0,0,.75.31.9.9,0,0,0,.69-.27.21.21,0,0,0,.05-.13.12.12,0,0,0-.08-.11Z"/><path class="cls-1" d="M44.64,36.22a1.22,1.22,0,0,1-.39-.22h0a.78.78,0,0,1-.23-.55.73.73,0,0,1,.12-.41,1.08,1.08,0,0,1,.32-.32,1.6,1.6,0,0,1,.44-.2,1.73,1.73,0,0,1,.5-.07,1.66,1.66,0,0,1,1.29.61.25.25,0,0,1,.07.19.29.29,0,0,1-.09.22.32.32,0,0,1-.23.09.28.28,0,0,1-.16-.05l-.13-.12a1,1,0,0,0-.75-.31.94.94,0,0,0-.7.27.17.17,0,0,0-.05.13.12.12,0,0,0,.08.11l1.42.47a1.18,1.18,0,0,1,.39.22h0a.78.78,0,0,1,.11,1,1.18,1.18,0,0,1-.32.31,1.35,1.35,0,0,1-.44.2,1.66,1.66,0,0,1-.49.07,1.68,1.68,0,0,1-1.3-.6A.35.35,0,0,1,44,37a.29.29,0,0,1,.09-.22.32.32,0,0,1,.23-.09.25.25,0,0,1,.17.06l.12.11a1,1,0,0,0,.76.31.92.92,0,0,0,.69-.27.21.21,0,0,0,0-.13.12.12,0,0,0-.08-.11Z"/><path class="cls-1" d="M42.74,36.88a.31.31,0,0,1,.31.31.32.32,0,0,1-.09.23,1.69,1.69,0,1,1,.09-2.48,1.62,1.62,0,0,1,.37.55,1.75,1.75,0,0,1,.13.65.33.33,0,0,1-.1.23.33.33,0,0,1-.22.08H40.84a.89.89,0,0,0,.15.31.84.84,0,0,0,.23.23,1.08,1.08,0,0,0,.3.16,1.2,1.2,0,0,0,.33.05,1.06,1.06,0,0,0,.37-.06,1.09,1.09,0,0,0,.31-.18A.32.32,0,0,1,42.74,36.88Zm.13-1.05a.89.89,0,0,0-.15-.31,1,1,0,0,0-.24-.23,1,1,0,0,0-.29-.16,1.27,1.27,0,0,0-.34-.05,1.26,1.26,0,0,0-.33.05,1.08,1.08,0,0,0-.3.16,1,1,0,0,0-.24.23,1.09,1.09,0,0,0-.14.31Z"/><path class="cls-1" d="M39.62,33.63a.74.74,0,0,0-.83.83v.16h.61a.31.31,0,0,1,.31.31.32.32,0,0,1-.09.23.31.31,0,0,1-.22.09h-.61v2.27a.27.27,0,0,1,0,.12.21.21,0,0,1-.06.1l-.1.07-.13,0-.12,0-.1-.07a.36.36,0,0,1-.07-.1.5.5,0,0,1,0-.12V35.25H38a.29.29,0,0,1-.22-.09.3.3,0,0,1-.09-.23.31.31,0,0,1,.31-.31h.15v-.16A1.29,1.29,0,0,1,39.62,33a.29.29,0,0,1,.22.09.34.34,0,0,1,.1.23.32.32,0,0,1-.1.22A.29.29,0,0,1,39.62,33.63Z"/><path class="cls-1" d="M37.26,36.14a1.63,1.63,0,0,1-.49,1.2,1.66,1.66,0,0,1-1.2.49,1.69,1.69,0,1,1,0-3.38,1.66,1.66,0,0,1,1.2.49,1.78,1.78,0,0,1,.37.55A1.75,1.75,0,0,1,37.26,36.14Zm-1.69-1.06a1.16,1.16,0,0,0-.42.08,1.3,1.3,0,0,0-.33.23,1.13,1.13,0,0,0-.23.34,1.09,1.09,0,0,0,0,.82,1.13,1.13,0,0,0,.23.34,1.3,1.3,0,0,0,.33.23,1.16,1.16,0,0,0,.42.08,1.07,1.07,0,0,0,.41-.08,1.2,1.2,0,0,0,.34-.23,1.13,1.13,0,0,0,.23-.34,1.09,1.09,0,0,0,0-.82,1.13,1.13,0,0,0-.23-.34,1.2,1.2,0,0,0-.34-.23A1.07,1.07,0,0,0,35.57,35.08Z"/><path class="cls-1" d="M31.6,34.76v.06a1.73,1.73,0,0,1,1.06-.37,1.37,1.37,0,0,1,.28,0,1.24,1.24,0,0,1,.29.06.74.74,0,0,1,.21.13.29.29,0,0,1,.08.21.51.51,0,0,1,0,.13.61.61,0,0,1-.07.1.21.21,0,0,1-.1.06.27.27,0,0,1-.12,0l-.14,0a.91.91,0,0,0-.41-.08,1.07,1.07,0,0,0-.41.08,1,1,0,0,0-.34.23,1.13,1.13,0,0,0-.23.34,1.11,1.11,0,0,0-.08.41v1.38a.31.31,0,0,1-.09.22.32.32,0,0,1-.23.09.31.31,0,0,1-.31-.31V34.76a.31.31,0,0,1,.31-.31.32.32,0,0,1,.23.09A.31.31,0,0,1,31.6,34.76Z"/><path class="cls-1" d="M28.8,37.83a1.63,1.63,0,0,1-1.06-.37V39a.31.31,0,0,1-.31.31.32.32,0,0,1-.23-.09.29.29,0,0,1-.09-.22V36.14A1.7,1.7,0,0,1,30,34.94a1.62,1.62,0,0,1,.37.55,1.57,1.57,0,0,1,.13.65,1.64,1.64,0,0,1-.5,1.2,1.78,1.78,0,0,1-.55.37A1.71,1.71,0,0,1,28.8,37.83Zm-1.06-1.69a1,1,0,0,0,.09.41,1.11,1.11,0,0,0,.22.34,1.36,1.36,0,0,0,.34.23,1.15,1.15,0,0,0,.41.08,1.16,1.16,0,0,0,.42-.08,1.36,1.36,0,0,0,.34-.23,1.11,1.11,0,0,0,.22-.34,1.09,1.09,0,0,0,0-.82,1.11,1.11,0,0,0-.22-.34,1.36,1.36,0,0,0-.34-.23,1.16,1.16,0,0,0-.42-.08,1.15,1.15,0,0,0-.41.08,1.36,1.36,0,0,0-.34.23,1.11,1.11,0,0,0-.22.34A1,1,0,0,0,27.74,36.14Z"/><path class="cls-1" d="M23,34.76v.06a1.69,1.69,0,0,1,.49-.27,1.56,1.56,0,0,1,.57-.1,1.52,1.52,0,0,1,.29,0,1.27,1.27,0,0,1,.28.06.74.74,0,0,1,.21.13.25.25,0,0,1,.08.21.27.27,0,0,1,0,.13.61.61,0,0,1-.07.1.21.21,0,0,1-.1.06.27.27,0,0,1-.12,0l-.14,0a.91.91,0,0,0-.41-.08,1.11,1.11,0,0,0-.41.08,1.08,1.08,0,0,0-.57.57,1.11,1.11,0,0,0-.08.41v1.38a.31.31,0,0,1-.31.31.32.32,0,0,1-.23-.09.31.31,0,0,1-.09-.22V34.76a.31.31,0,0,1,.09-.22.32.32,0,0,1,.23-.09.31.31,0,0,1,.31.31Z"/><path class="cls-1" d="M21.29,37.52v-.06a1.89,1.89,0,0,1-.5.28,1.69,1.69,0,0,1-.56.09,1.69,1.69,0,1,1,1.69-1.69v1.38a.31.31,0,0,1-.09.22.33.33,0,0,1-.23.09.31.31,0,0,1-.31-.31Zm-1.06-2.44a1.16,1.16,0,0,0-.42.08,1.36,1.36,0,0,0-.34.23,1.11,1.11,0,0,0-.22.34,1.09,1.09,0,0,0,0,.82,1.11,1.11,0,0,0,.22.34,1.36,1.36,0,0,0,.34.23,1.16,1.16,0,0,0,.42.08,1.15,1.15,0,0,0,.41-.08,1.36,1.36,0,0,0,.34-.23,1.11,1.11,0,0,0,.22-.34,1,1,0,0,0,0-.82,1.11,1.11,0,0,0-.22-.34,1.36,1.36,0,0,0-.34-.23A1.15,1.15,0,0,0,20.23,35.08Z"/><path class="cls-1" d="M17.42,37.52v-.06a1.83,1.83,0,0,1-.49.28,1.79,1.79,0,0,1-.57.09,1.69,1.69,0,1,1,0-3.38,1.66,1.66,0,0,1,1.2.49,1.63,1.63,0,0,1,.49,1.2v1.38a.31.31,0,0,1-.31.31.32.32,0,0,1-.23-.09A.31.31,0,0,1,17.42,37.52Zm-1.06-2.44a1.16,1.16,0,0,0-.42.08,1.07,1.07,0,0,0,0,2,1.16,1.16,0,0,0,.42.08,1.11,1.11,0,0,0,.41-.08,1.36,1.36,0,0,0,.34-.23,1.13,1.13,0,0,0,.23-.34,1.09,1.09,0,0,0,0-.82,1.13,1.13,0,0,0-.23-.34,1.36,1.36,0,0,0-.34-.23A1.11,1.11,0,0,0,16.36,35.08Z"/><path class="cls-1" d="M9.73,33.21l.86,3.11.86-3.1a.23.23,0,0,1,.11-.16.31.31,0,0,1,.19-.06.41.41,0,0,1,.19,0,.4.4,0,0,1,.12.16l.86,3.11.86-3.11a.28.28,0,0,1,.08-.12.29.29,0,0,1,.22-.09.31.31,0,0,1,.32.32.69.69,0,0,1,0,.13l-1.14,4.12a.43.43,0,0,1-.13.19.26.26,0,0,1-.19.07.32.32,0,0,1-.23-.09.51.51,0,0,1-.09-.16l-.85-3.06-.84,3a.43.43,0,0,1-.13.19.26.26,0,0,1-.19.07.32.32,0,0,1-.23-.09.51.51,0,0,1-.09-.16L9.12,33.44a.6.6,0,0,1,0-.12.33.33,0,0,1,.1-.23A.31.31,0,0,1,9.42,33a.32.32,0,0,1,.23.09A.42.42,0,0,1,9.73,33.21Z"/><path class="cls-1" d="M109.93,11a1.11,1.11,0,0,0-.79-.3,1.15,1.15,0,0,0-.79.3,1,1,0,0,0-.33.76v5.55A7,7,0,0,0,99,17.6a5.8,5.8,0,0,0,0,8.68,7,7,0,0,0,9.36,0,5.7,5.7,0,0,0,2-4.34V11.78a1,1,0,0,0-.34-.76m-3.19,13.75a4.66,4.66,0,0,1-6.2,0,3.8,3.8,0,0,1,0-5.67,4.66,4.66,0,0,1,6.2,0,3.78,3.78,0,0,1,0,5.67"/><path class="cls-1" d="M93.65,17.6a7,7,0,0,0-9.36,0,5.8,5.8,0,0,0,0,8.68,7,7,0,0,0,9.36,0,5.8,5.8,0,0,0,0-8.68m-1.58,7.17a4.66,4.66,0,0,1-6.2,0,3.8,3.8,0,0,1,0-5.67,4.66,4.66,0,0,1,6.2,0,3.78,3.78,0,0,1,0,5.67"/><path class="cls-1" d="M79,17.6a7,7,0,0,0-9.36,0,5.8,5.8,0,0,0,0,8.68,7,7,0,0,0,9.36,0,5.8,5.8,0,0,0,0-8.68M77.4,24.77a4.66,4.66,0,0,1-6.2,0,3.8,3.8,0,0,1,0-5.67,4.66,4.66,0,0,1,6.2,0,3.78,3.78,0,0,1,0,5.67"/><path class="cls-1" d="M66,16.45H63.46V16c0-2.13,1.13-3.17,3.46-3.17a1.13,1.13,0,0,0,.79-.3,1,1,0,0,0,0-1.51,1.13,1.13,0,0,0-.79-.3c-3.79,0-5.71,1.78-5.71,5.28v.43H60.5a1.15,1.15,0,0,0-.79.3,1,1,0,0,0-.33.75,1,1,0,0,0,.33.75,1.15,1.15,0,0,0,.79.31h.71V27a1,1,0,0,0,.34.75,1.13,1.13,0,0,0,.79.3,1.15,1.15,0,0,0,.79-.3,1,1,0,0,0,.33-.75V18.56H66a1.15,1.15,0,0,0,.79-.31,1,1,0,0,0,0-1.5,1.15,1.15,0,0,0-.79-.3"/><path class="cls-1" d="M57.33,11a1.19,1.19,0,0,0-1.58,0,1,1,0,0,0-.33.76v5.55a7,7,0,0,0-9.06.27,5.8,5.8,0,0,0,0,8.68,7,7,0,0,0,9.36,0,5.7,5.7,0,0,0,2-4.34V11.78a1,1,0,0,0-.34-.76M54.14,24.77a4.66,4.66,0,0,1-6.2,0,3.8,3.8,0,0,1,0-5.67,4.66,4.66,0,0,1,6.2,0,3.78,3.78,0,0,1,0,5.67"/><path class="cls-1" d="M41.46,12.22a1.4,1.4,0,0,0-1,.37,1.16,1.16,0,0,0-.4.9,1.19,1.19,0,0,0,.4.9,1.45,1.45,0,0,0,1.91,0,1.19,1.19,0,0,0,.4-.9,1.21,1.21,0,0,0-.4-.91,1.45,1.45,0,0,0-1-.36"/><path class="cls-1" d="M41.46,15.81a1.19,1.19,0,0,0-.79.3,1,1,0,0,0-.33.76V27a1,1,0,0,0,.33.75,1.2,1.2,0,0,0,1.59,0,1,1,0,0,0,.33-.75V16.87a1,1,0,0,0-.34-.76,1.16,1.16,0,0,0-.79-.3"/><path class="cls-1" d="M37,19a6,6,0,0,0-1.35-.93,4.1,4.1,0,0,0,1.19-2.93A4.17,4.17,0,0,0,35.42,12,4.83,4.83,0,0,0,32,10.74H28.36a1.1,1.1,0,0,0-.78.3,1,1,0,0,0-.34.76V27a1,1,0,0,0,.34.75,1.1,1.1,0,0,0,.78.3H33a5.72,5.72,0,0,0,4-1.54,4.89,4.89,0,0,0,1.68-3.74A4.94,4.94,0,0,0,37,19m-7.5-6.19H32a2.59,2.59,0,0,1,1.8.69,2.18,2.18,0,0,1,0,3.27,2.55,2.55,0,0,1-1.8.69H29.49ZM35.4,25A3.48,3.48,0,0,1,33,26H29.49V19.61H33a3.53,3.53,0,0,1,2.45.93,3,3,0,0,1,0,4.48"/><path class="cls-2" d="M15.86,19.43c0-9.41,21.83-17,48.77-17A115.61,115.61,0,0,1,95.36,6.19C86.42,2.41,72.89,0,57.75,0,30.81,0,9,7.63,9,17.05c0,5.34,7,10.11,18,13.24-7-2.95-11.16-6.73-11.16-10.86"/><path class="cls-1" d="M19.2,3.19C7.69,6,0,11,0,16.81s7.23,10.7,19,13.45C9.82,26.79,4.79,22.19,4.79,16.77S10.3,6.65,19.2,3.19"/></g></g></svg>