<svg xmlns="http://www.w3.org/2000/svg" viewBox="0 0 85.32 46.16"><defs><style>.cls-1{fill:#191919;}</style></defs><g id="Layer_2" data-name="Layer 2"><g id="Layer_1-2" data-name="Layer 1"><path class="cls-1" d="M3.65,16.45a.16.16,0,0,1,.15-.12H6.41a.14.14,0,0,1,.14.12L10.2,30c0,.15,0,.23-.19.23H7.61a.13.13,0,0,1-.15-.13l-.82-2.94H3.56l-.8,2.94c0,.09-.07.13-.14.13H.2C0,30.22,0,30.14,0,30ZM6,24.52l-.91-3.18-.84,3.18Z"/><path class="cls-1" d="M18.89,16.45c.06-.08.11-.12.17-.12h2.4a.21.21,0,0,1,.16.06.17.17,0,0,1,0,.17L18,30.09a.19.19,0,0,1-.17.13H15.21a.13.13,0,0,1-.15-.13L11.42,16.56c0-.16,0-.23.19-.23H14c.05,0,.11,0,.17.12l2.31,8.72Z"/><path class="cls-1" d="M29.13,16.14A5.12,5.12,0,0,1,33,17.4a4.43,4.43,0,0,1,.93,3.09V26A4.48,4.48,0,0,1,33,29.17a3.84,3.84,0,0,1-1.56.95,7.38,7.38,0,0,1-2.31.31,7.43,7.43,0,0,1-2.35-.31,3.8,3.8,0,0,1-1.55-.95,3.44,3.44,0,0,1-.71-1.28A6.27,6.27,0,0,1,24.28,26V20.49a4.52,4.52,0,0,1,.95-3.11,3.54,3.54,0,0,1,1.56-.95A7.86,7.86,0,0,1,29.13,16.14Zm2,5.05A3.24,3.24,0,0,0,31,20.06a1.8,1.8,0,0,0-.45-.68A1.37,1.37,0,0,0,29.9,19a3.07,3.07,0,0,0-.67-.08H29a1.63,1.63,0,0,0-1.44.6,2.72,2.72,0,0,0-.44,1.63V25.4a3.34,3.34,0,0,0,.17,1.14,1.81,1.81,0,0,0,.43.68,1.64,1.64,0,0,0,.6.34,2.65,2.65,0,0,0,.68.09h.25A1.62,1.62,0,0,0,30.67,27a2.94,2.94,0,0,0,.46-1.63Z"/><path class="cls-1" d="M44.2,24.7c0-.12.06-.18.19-.18h2.4c.13,0,.19.06.19.18V26a4.2,4.2,0,0,1-1.22,3.37,5.42,5.42,0,0,1-3.58,1,8.18,8.18,0,0,1-2-.23,3.78,3.78,0,0,1-1.53-.75,3.39,3.39,0,0,1-1-1.36A5.41,5.41,0,0,1,37.34,26V20.49a4.06,4.06,0,0,1,1.24-3.34,5.56,5.56,0,0,1,3.6-1,7.69,7.69,0,0,1,2,.23,3.77,3.77,0,0,1,1.5.74,3.33,3.33,0,0,1,1,1.35,5.32,5.32,0,0,1,.34,2v.45a.17.17,0,0,1-.19.19H44.37a.17.17,0,0,1-.19-.19V20.6a1.41,1.41,0,0,0-.56-1.26A2.27,2.27,0,0,0,42.28,19H42a1.72,1.72,0,0,0-1.47.61,1.63,1.63,0,0,0-.32.69,5.12,5.12,0,0,0-.08.93v4.17a2.91,2.91,0,0,0,.18,1.12,1.82,1.82,0,0,0,.44.68,1.36,1.36,0,0,0,.6.33,2.14,2.14,0,0,0,.65.1h.25a1.76,1.76,0,0,0,1.5-.61,2.74,2.74,0,0,0,.42-1.62Z"/><path class="cls-1" d="M53.17,16.45a.16.16,0,0,1,.15-.12h2.61a.14.14,0,0,1,.14.12L59.72,30c0,.15,0,.23-.19.23h-2.4a.13.13,0,0,1-.15-.13l-.82-2.94H53.09l-.8,2.94c0,.09-.08.13-.15.13H49.72c-.16,0-.22-.08-.19-.23Zm2.34,8.07-.91-3.18-.84,3.18Z"/><path class="cls-1" d="M68.1,16.33a4.17,4.17,0,0,1,3.22,1.17,4.34,4.34,0,0,1,1,3v5.58a4.24,4.24,0,0,1-1.07,3,4.09,4.09,0,0,1-3.1,1.11H62.83c-.11,0-.17-.06-.17-.19V16.51c0-.12.06-.18.17-.18Zm1.41,4.8A2.26,2.26,0,0,0,69,19.54,2.1,2.1,0,0,0,67.34,19h-1.9v8.63h1.9A2.21,2.21,0,0,0,68.9,27a2.07,2.07,0,0,0,.61-1.58Z"/><path class="cls-1" d="M80.52,16.14a5.09,5.09,0,0,1,3.87,1.26,4.43,4.43,0,0,1,.93,3.09V26a4.48,4.48,0,0,1-.93,3.14,3.71,3.71,0,0,1-1.56.95,7.38,7.38,0,0,1-2.31.31,7.52,7.52,0,0,1-2.35-.31,3.87,3.87,0,0,1-1.55-.95,3.29,3.29,0,0,1-.7-1.28A6.27,6.27,0,0,1,75.68,26V20.49a4.52,4.52,0,0,1,.94-3.11,3.54,3.54,0,0,1,1.56-.95A7.86,7.86,0,0,1,80.52,16.14Zm2,5.05a3.24,3.24,0,0,0-.17-1.13,1.78,1.78,0,0,0-.44-.68A1.43,1.43,0,0,0,81.3,19a3.16,3.16,0,0,0-.68-.08h-.25a1.66,1.66,0,0,0-1.44.6,2.72,2.72,0,0,0-.43,1.63V25.4a3.11,3.11,0,0,0,.17,1.14,1.69,1.69,0,0,0,.43.68,1.49,1.49,0,0,0,.6.34,2.57,2.57,0,0,0,.67.09h.25A1.63,1.63,0,0,0,82.07,27a3,3,0,0,0,.45-1.63Z"/><path class="cls-1" d="M41.46,4.72A12.22,12.22,0,0,0,44.17,5,33,33,0,0,0,44.11.33a1.17,1.17,0,0,1,1-.28.5.5,0,0,1,.42.3A2.73,2.73,0,0,1,45.8,1.7c0,.4,0,.79,0,1.18s0,.86,0,1.28c0,.66,0,1.32,0,2a1,1,0,0,1,0,.25,17.51,17.51,0,0,0-.06,3.76,2.92,2.92,0,0,1-.21,1.11c0,.1-1.61,1.64-1.28-3.46a13.29,13.29,0,0,0-.16-1.52A15.22,15.22,0,0,0,42,6.05c-.46-.08-.56,0-.58.43-.05,1-.05,1.94-.06,2.92,0,.47,0,.81,0,1.29s-.26.83-.66.85a1,1,0,0,1-1-.83c0-.91-.09-1.67-.1-2.58,0-.7,0-1.41,0-2.11a1,1,0,0,0-.1-.52.62.62,0,0,1,0-.86c.41-.48.24-4,.3-4.22s.08-.08.14-.17a.88.88,0,0,1,1.5.71c0,.13,0,.26.06.39a4.91,4.91,0,0,1,0,1.38A11.88,11.88,0,0,0,41.46,4.72Z"/><path class="cls-1" d="M49.32,11.48a2.63,2.63,0,0,1-.24-.51A13.46,13.46,0,0,1,49,8.92c0-.94,0-1.43-.07-2.09,0-.38,0-.76,0-1.13s0-1,0-1.45c0-.29,0-.58,0-.88s0-.58,0-.88c0,0-.05-1,0-1.53a1.12,1.12,0,0,1,.08-.52c.11-.23.2-.18.61-.23.09,0,3.38-.07,3.75,0s.54.18.54.27c0,.79,0,.86-.49.85a3.49,3.49,0,0,1-.65,0c-1-.05-1.65,0-2.25,0a.13.13,0,0,0-.13.14,5.31,5.31,0,0,0,0,1.88,11.86,11.86,0,0,1,1.23,0c.44,0,.7,0,1.06,0a1.48,1.48,0,0,1,.21,0c.22,0,.46,0,.53.28s0,.56-.27.73a5,5,0,0,1-1.15.11c-.33,0-.66,0-1,0s-.38,0-.43.27a1.82,1.82,0,0,0,0,.33c0,.68,0,1.35.05,2s.08,1.38.12,2.06c0,.12.06.79.09.9s.09.05.12.05c.37-.07,1.51.09,1.83.06s.54,0,.82,0,.51-.07.76-.09.51.5.39.76c-.21.46-.49.57-1.15.65C53.26,11.56,49.83,11.56,49.32,11.48Z"/><path class="cls-1" d="M30.26.22a9.44,9.44,0,0,0,2.12,0l1.11.06c.13,0,1-.06,1.29,0s2,0,2.37,0,.62.33.62.88a.65.65,0,0,1-.67.53,3.37,3.37,0,0,1-.71-.09,6.12,6.12,0,0,0-.74,0,5.13,5.13,0,0,0-.82.07,1.3,1.3,0,0,0-.12.45c0,.44-.07,2.84-.1,3.18s-.11.85-.13,1.27,0,.94,0,1.42-.06.88-.05,1.32.05,1,.08,1.53c0,.36,0,.46-.41.6l-.23.1a1,1,0,0,1-.94-.25,4,4,0,0,1-.09-.77c0-.27,0-.4,0-.66,0-.8-.11-1.6-.11-2.4,0-.59.11-1.17.1-1.75s.48-3.86,0-3.91c-.59-.22-1.76,0-2.35-.16-.32-.08-.68-.07-.8-.47C29.6,1,29.57,0,30.26.22Z"/><path class="cls-1" d="M57.14,42.46a4.54,4.54,0,0,0,.12-.5,24.35,24.35,0,0,1,.59-3c.2-.7.27-1.57.49-2.26.15-.47.16-.9.32-1.35a.54.54,0,0,1,.55-.43,1,1,0,0,1,.93.24.45.45,0,0,1,.11.43c-.06.18-.5,2.42-.62,3.27-.06.43-.19.84-.26,1.26s-.17,1.12-.25,1.68a.81.81,0,0,1,0,.16c-.27,1.15-.52,2.29-.81,3.43-.18.69-.47.94-1.14.75a1.19,1.19,0,0,1-.53-.33,19.3,19.3,0,0,1-.9-2.17c0-.18-.23-1.07-.28-1.25-.08,0-.13.16-.14.18-.22.55-.43,1.68-.67,2.23A8.35,8.35,0,0,1,54,46c-.15.24-.45.2-.68.09a1.61,1.61,0,0,1-1-1.23c-.12-.75-.36-1.49-.51-2.24a12.41,12.41,0,0,1-.13-1.38c-.06-.94-.38-5.21-.36-6,0-.19.08-.24.12-.41a1.28,1.28,0,0,1,1.29,0c.06.06.18.12.18.18,0,.48.15,1,.13,1.53a15.4,15.4,0,0,0,.06,1.92c0,.6.1,1.2.15,1.8s.13,1.38.2,2.06c0,0,.05.09.12.21.18-.42.32-.79.47-1.15s.43-1,.64-1.46a.54.54,0,0,1,.51-.34,6.66,6.66,0,0,1,1,0,.83.83,0,0,1,.3.6A4.81,4.81,0,0,0,57.14,42.46Z"/><path class="cls-1" d="M40.08,45.74c0,.21,0,.35-.27.37-.56.06-1.1,0-1.19-.3s0-.8,0-1.14,0-.71,0-1.06c0-.67,0-1.33,0-2,0-.36-.07-.57-.11-1-.22,0-1.86.07-2.35.13a2.9,2.9,0,0,1-.67,0c0,.22.07.86.07,1.09,0,.66,0,1.33,0,2,0,.44,0,.87,0,1.31a3.07,3.07,0,0,1-.05.53c0,.17,0,.2-.08.34s-.23.11-.51.11a.87.87,0,0,1-.83-.53.8.8,0,0,1-.08-.24c0-.52,0-1,0-1.55,0-.16,0-4.16,0-4.9s0-1.34,0-2-.07-.87-.09-1.51c0-.17-.07-.51.17-.6a1,1,0,0,1,.67-.13c.32.06.61,1.17.6,1.95a9.13,9.13,0,0,0,.29,2.58c.57-.09,1.52,0,2.06-.1.08,0,.71,0,1-.05-.06-.73-.12-1.88-.17-2.61a11.31,11.31,0,0,1,0-1.37c0-.38,0-.36.39-.36a.82.82,0,0,1,.41.08c.36.17.8.67.95,1.89,0,.08.15,1.18.18,2s0,1.4,0,2.1a18.47,18.47,0,0,1,.11,2.1c0,.63,0,1.27-.1,1.9l-.06.57Z"/><path class="cls-1" d="M26.7,46a7.48,7.48,0,0,1-.68-.46,1.72,1.72,0,0,1-.57-.71c-.09-.21-.19-.43-.3-.64a1.7,1.7,0,0,1,.17-1.65.68.68,0,0,1,1.06-.21c.19.13.14.69.14,1.07,0,1.51,1.09,1.28,1.24,1.22a.88.88,0,0,0,.43-.38,3.82,3.82,0,0,0,.17-2.52,3.05,3.05,0,0,0-.32-.89,2.92,2.92,0,0,0-.66-.52A3.7,3.7,0,0,1,27,40a8.53,8.53,0,0,0-.7-.77.41.41,0,0,1-.16-.31c-.07-.28-.13-.56-.2-.84A2.85,2.85,0,0,1,26,36.28a4.78,4.78,0,0,1,.47-1.13,1.4,1.4,0,0,1,1.32-.53c1.77,0,2,.61,2.37,1a3.3,3.3,0,0,1,.45,2.09,3.3,3.3,0,0,1-.44,1,.2.2,0,0,1-.12.08c-.44,0-.62.11-.94-.21A.78.78,0,0,1,29,38a6.89,6.89,0,0,1,.15-.89c.08-.55-.37-.81-1-1a.33.33,0,0,0-.42.1,1.82,1.82,0,0,0-.52,1.4c0,.25,0,.51.05.75a1.82,1.82,0,0,0,1.17,1.33,3.84,3.84,0,0,1,1.29,1.17,2.51,2.51,0,0,1,.59,1.41,6.43,6.43,0,0,1,.21,1.45,2.63,2.63,0,0,1-1,2,3,3,0,0,1-1.26.48A2.86,2.86,0,0,1,26.7,46Z"/><path class="cls-1" d="M48,37a1.34,1.34,0,0,0-.12-.3A4.21,4.21,0,0,0,46.71,35a1,1,0,0,0-.25-.14,3.71,3.71,0,0,0-1.76-.08.92.92,0,0,0-.77.4,2.27,2.27,0,0,0-.27.48,9,9,0,0,0-.86,4.29c0,.43,0,.86,0,1.28A6.7,6.7,0,0,0,44,44.8,2.89,2.89,0,0,0,45.34,46c.88.33,1.77.33,2.23-.5A12.81,12.81,0,0,0,48,44.15a9.93,9.93,0,0,0,.5-3.74A29.29,29.29,0,0,0,48,37ZM46.6,41.94a5.32,5.32,0,0,1-.42,2.2.5.5,0,0,1-.72.26c-1.28-1.67-1.19-8.2.38-8,0,.13.2.37.22.49A21.25,21.25,0,0,1,46.6,41.94Z"/></g></g></svg>