<svg xmlns="http://www.w3.org/2000/svg" viewBox="0 0 115.32 69.09"><defs><style>.cls-1{fill:#191919;}</style></defs><g id="Layer_2" data-name="Layer 2"><g id="Layer_1-2" data-name="Layer 1"><path class="cls-1" d="M62.76,26.87l0,0a1,1,0,0,0-.86-.3c-1.45,0-2.27,1.32-2.71,2.54A28.17,28.17,0,0,1,55.51,36c-.58.86-3.18,3.49-3,.87.66-2.92,2.25-5.57,3.67-8.18a2.38,2.38,0,0,0,.34-1c-.12-.93-1.51-.5-2.12-.08a3.9,3.9,0,0,0-1.21,1.51,47.58,47.58,0,0,1-2.38,4.6,22.11,22.11,0,0,1-4.41,4.65,5.17,5.17,0,0,1-1.25.71c-3.3,1.05,1.35-7.75,1.73-8.91a2.41,2.41,0,0,1,2.2-1.73c.94-.35-.55-1.35-1.1-1.63-4.45-2.12-9.21,3.2-11.17,6.73-.3.51-.54,1-.82,1.5a4.53,4.53,0,0,1-.3.46c-1,1.57-3.57,2.43-4.72.71a9.59,9.59,0,0,1-1.32-4.42c0-.41-.06-.82-.08-1.23a26.88,26.88,0,0,1,0-5l.12-1.27c.2-1.51.32-3,.59-4.54A61.49,61.49,0,0,1,33,9.83a1.79,1.79,0,0,0,.07-1.12c-.06-.17-.14-.21-.17-.22s-.38.06-.45.11a3,3,0,0,0-.8,1.29c-.3.66-.57,1.33-.86,2-1.76,4.22-3.55,8.44-5.48,12.58,0,.11-.1.21-.14.32-.63,1.33-1.26,2.67-1.88,4-.34.75-.69,1.5-1,2.25s-.69,1.44-1,2.16l-.06.14,0,0v0h0s0,0,0,0l0-.09s0-.09,0-.13a11731366914337.37,11731366914337.37,0,0,1,0-.24s0-.09,0-.13,0-.08,0-.12,0-.08,0-.12,0-.09,0-.13,0-.08,0-.12v0a8.55,8.55,0,0,0,0-1.24,9.54,9.54,0,0,0-.62-2.63c-.85-2.46-1.39-4-1.64-4.74-.08-.25-.13-.41-.15-.49a12.55,12.55,0,0,1-.17-8.48,6.36,6.36,0,0,1,.28-.84c.06-.22.14-.45.21-.67a25,25,0,0,1,1.55-3.51c.35-.66.72-1.31,1.07-2a3.66,3.66,0,0,0,.71-2.06c-.06-.48-.39-.46-.72-.19a11,11,0,0,0-2.05,2.68c-.41.63-.85,1.23-1.25,1.86-1.86,2.86-6.3,8.16-7.91,10.07C6.75,24.6,5.88,25.5,4,28.09A25,25,0,0,0,.55,34.56c-.1.28-1.15,3.77-.06,6.37a2.67,2.67,0,0,0,3.82,1.35c5.73-2.94,8.22-9.77,10.15-15.55.32-1.06.4-.75.47-.23,0,.28.07.63.11.86,1,6.13,5.33,9.51.88,15.79-.45.91.18,1.18.92.64a3.64,3.64,0,0,0,.67-.64c3.6-4.17,5.28-9.58,8-14.29.79-1.37.81-.37.78.57-.07,3-.17,10.89,2.51,12.52,1.71.81,4-.54,5.15-1.71.33-.25.57-.83,1-.83.26.08.5.44.76.64,1.48,1.25,3.24-.29,4.49-1.29.39-.27.6-.19.73.33.65,3.85,4.61,2.37,6.75.47,2.79-2.6.86.52,3.23,1.19.68.21,1.59-.07,1.93.06s0,1-.15,1.41c-3.47,7.36-8.09,18.12-15,22.64-2.06,1.31-5.73,2.06-7.22-.31-.58-.79-.57-2.41-1.6-2.48-1.49.48-1,3.55-.51,4.66a4.57,4.57,0,0,0,4.39,2.36c4.87-.13,8.69-3.92,11.49-7.55,5.06-6.71,8-14.62,12.12-21.9,2.06-3.77,4.2-7.5,6.11-11.34C62.8,27.72,63,27.19,62.76,26.87Zm-49-7.56,0,.06C12.09,23.54,11.21,28,9.63,32.2c-.57,1.41-1.17,3.09-2.34,4-2,1.26-1.72-2.33-1.61-3.51A19.52,19.52,0,0,1,9,24.52a36,36,0,0,1,4.38-5.59C14,18.16,14.26,18,13.75,19.31Zm29,13.44,0,0a21.07,21.07,0,0,1-3,4c-.44.46-1,1-1.23,1s-.06-.6,0-.84a19.83,19.83,0,0,1,4.88-7.93c1.49-1.29,2-1.24.85.84C43.7,30.88,43.21,31.85,42.7,32.75Z"/><path class="cls-1" d="M115.22,26.8a1,1,0,0,0-.87-.29c-1.47,0-2.31,1.2-2.74,2.46-1.33,3.17-2.75,6.62-5.54,8.78-2.08,1.2-.94-2.12-.55-3a50.7,50.7,0,0,1,3.1-6.16c.89-1.38.11-1.9-1.43-1.3a3.91,3.91,0,0,0-1.82,2.22c-1.2,2.84-4.07,7-3.37,10.06.55,1.43,2,1.23,3.21,1.08.59.07.14.79,0,1.19C101.8,49,95.64,63.5,87.58,65.73a5.9,5.9,0,0,1-3.64-.25c-1.08-.49-1.53-1.82-1.88-3-.25-.72-1-1-1.44-.32a5,5,0,0,0-.22,3.53c.92,3.78,5.64,3.62,8.49,2.32,6.78-3.2,10.72-10.87,14.12-17.19,2.8-5.88,5.92-11.62,9.12-17.3,1-1.75,1.92-3.52,2.82-5.31.28-.56.5-1.11.29-1.42Z"/><path class="cls-1" d="M93.25,26.84C92,27,91,27.92,89.94,28.4c-.13,0-.21,0-.3-.19A6.09,6.09,0,0,0,89,27.14c-.49-.7-1.87-.84-2.29-.16-.32.5,0,1.21.06,1.82a5.74,5.74,0,0,1,.07,2c-.54,2.62-3.05,5-5.16,6.36-3.39,2.15-5.91,1.68-4.56-2.83a1.56,1.56,0,0,1,.56-.69,4,4,0,0,1,1.13-.43,6.31,6.31,0,0,0,4.21-3.44c1.42-3.3-1.65-4.25-4-2.47A11.91,11.91,0,0,0,76.34,30c-1.06,1.81-2.26,1.69-3.61.16a8.63,8.63,0,0,1-1.17-1.87c-.41-.81-.75-2-1.74-1.56a3.1,3.1,0,0,0-1.51,2.37,14,14,0,0,1-1.53,7.4c-1,1.88-2.64,2.65-1.83-.42,1.09-4.31,3.14-8.25,5-12.26,1-2.16,2.14-4.43,3.25-6.57C75.73,12.84,80.83.85,87.3,4c2,.62,1.48-2.42.75-3.29a3,3,0,0,0-3-.57,8.57,8.57,0,0,0-3,1.63A27,27,0,0,0,79,4.66c-5.41,6.15-9.25,13.53-13,20.78-1.29,2.92-8,14.4-2.11,15.1,2.62,0,4.63-2.82,5.56-4.95a12.62,12.62,0,0,0,.63-1.82,4.47,4.47,0,0,1,.51-1.54c.29-.38.93,0,1.32.15a7.69,7.69,0,0,1,2,1c.33.4.22.85.06,1.45a9,9,0,0,0-.44,3c.06,2.64,2.24,3.43,4.61,2.8a13.75,13.75,0,0,0,2.35-.86,1.2,1.2,0,0,1,.91-.13h0c.44.21.65.84,1.2,1.1.92.44,1.59-.6,1.94-1.34a53.49,53.49,0,0,1,3.29-6.15c1.16-1.69,2.8-3.61,5.09-3.07a3.06,3.06,0,0,0,1.61.08,1.84,1.84,0,0,0,.85-1.63A1.82,1.82,0,0,0,93.25,26.84ZM78.43,30.79a14.2,14.2,0,0,1,.81-1.3l0,0c2.37-3.11,1.32,1.11-.21,1.84C78.35,31.7,77.71,31.93,78.43,30.79Z"/><path class="cls-1" d="M96.32,29.85c-.77,2.47-2.85,4.88-4.39,7-.66.92-1.47,1.86-1.17,3A1.45,1.45,0,0,0,92,41c.84,0,1.24-1,1.53-1.64,1.32-3,3.67-9,7.41-9.44,1.09-.13,2.35.95,3.19-.07A2.14,2.14,0,0,0,104,27c-1.21-1-3,.07-4.13.79-.43.27-.57.12-.64-.43-.06-1.2-1.55-2.24-2.48-1.16-.66,1,0,2.42-.41,3.55Z"/></g></g></svg>