<svg xmlns="http://www.w3.org/2000/svg" viewBox="0 0 104.69 55.08"><defs><style>.cls-1{fill:#191919;}</style></defs><g id="Layer_2" data-name="Layer 2"><g id="Layer_1-2" data-name="Layer 1"><path class="cls-1" d="M35.41,11.64h-.32a0,0,0,0,0,0,0c-.45.05-.9.08-1.35.17a6.43,6.43,0,0,0-2.95,1.29,1.78,1.78,0,0,0-.85,1.43.89.89,0,0,1-.33.76,5.15,5.15,0,0,0-1.55,3.3,2.86,2.86,0,0,0,1.94,3,5,5,0,0,0,2.89.08,7.41,7.41,0,0,0,5.88-5.87C39.15,13.33,37.89,11.77,35.41,11.64Zm-.95,5.17c-.07.21-.15.42-.23.63A6.13,6.13,0,0,1,33.32,19a1.18,1.18,0,0,1-.93.41c-.23,0-.48-.5-.52-.8a13.12,13.12,0,0,1,0-1.78,2.68,2.68,0,0,0,.74.19,1,1,0,0,0,.69-.23.76.76,0,0,0,0-.66,1.57,1.57,0,0,1,.19-1.94,1.63,1.63,0,0,1,.54-.39c.44-.18.72,0,.78.46A5.32,5.32,0,0,1,34.46,16.81Zm10.4-7.26a3.16,3.16,0,0,0-3-1.34.7.7,0,0,0-.63.81,3,3,0,0,1-.09.94c-.7,2.78-1.43,5.55-2.13,8.33-.37,1.49-.71,3-1,4.5a1,1,0,0,0,.78,1.34,10.49,10.49,0,0,0,1.48.3v-.05c.26,0,.53,0,.79-.06.6-.06.74-.26.73-.85a5.27,5.27,0,0,1,.1-1.19c.41-1.68.83-3.36,1.28-5,.57-2.18,1.19-4.34,1.75-6.53A1.91,1.91,0,0,0,44.86,9.55Zm10.45,1.74a2.76,2.76,0,0,0-3-1.21.69.69,0,0,0-.55.77,4,4,0,0,1-.07,1.09c-.28,1.14-.62,2.25-.9,3.39-.24,1-.48,1.93-.63,2.91a1.1,1.1,0,0,0,1,1.37c.43.11.89.14,1.34.21,0,0,0,0,0,0l.68,0c.7-.07.79-.23.79-.94a7,7,0,0,1,.2-1.71c.36-1.35.82-2.67,1.19-4A2.23,2.23,0,0,0,55.31,11.29ZM57,6.17a1.67,1.67,0,0,0-1.76-1.64,2.6,2.6,0,0,0-2.38,2.9,1.72,1.72,0,0,0,1.77,1.64A2.57,2.57,0,0,0,57,6.17Zm.42-4.46A3.84,3.84,0,0,0,55.11.14,5.26,5.26,0,0,0,50.86,1a7.92,7.92,0,0,0-3,3.84A54.12,54.12,0,0,0,46,10.41c-.83,3.06-1.55,6.14-2.29,9.22A1.07,1.07,0,0,0,44.61,21c.45.11.93.14,1.39.21a.06.06,0,0,0,0,0l.68,0c.68-.06.81-.22.8-.9a3.24,3.24,0,0,1,.06-.88c1-3.72,2-7.44,3.06-11.13a19.82,19.82,0,0,1,1.73-3.92,3.7,3.7,0,0,1,4.49-1.8.75.75,0,0,0,.67-.14A.8.8,0,0,0,57.4,1.71Zm3.23,33.76a14.12,14.12,0,0,0-1.82-.42A8.36,8.36,0,0,0,55,36.17c-.76.47-1.5,1-1.42,2.08,0,.14-.14.31-.26.43a5.51,5.51,0,0,0-1.56,2.85,2.9,2.9,0,0,0,2.28,3.66,6.62,6.62,0,0,0,2.43,0,7.27,7.27,0,0,0,6-6.37A3.06,3.06,0,0,0,60.63,35.47Zm-2.42,4.68a7.3,7.3,0,0,1-1.13,2.31,1.61,1.61,0,0,1-.39.35c-.47.34-.86.21-1.07-.33a3.61,3.61,0,0,1,0-2.11,1.69,1.69,0,0,0,.56.17,1.23,1.23,0,0,0,.74-.22.36.36,0,0,0,.07-.19,1.1,1.1,0,0,0-.08-.51,1.56,1.56,0,0,1,.37-2,1.15,1.15,0,0,1,.83-.25c.18.05.35.47.35.72A7.29,7.29,0,0,1,58.21,40.15Zm6-18.75a3.46,3.46,0,0,0-3.31-1.93A15.61,15.61,0,0,0,53.53,21c-2.89,1.31-5.71,2.81-8.55,4.24a26.5,26.5,0,0,1-9.12,2.89,6.54,6.54,0,0,1-6.67-3,18.86,18.86,0,0,1-1.11-1.9c-.39-.8-.71-1.64-1-2.46-.81-2-1.61-3.93-2.42-5.92l.52-.22a9.63,9.63,0,0,0,4.64-3.56,3.72,3.72,0,0,0-1.36-5.53A7,7,0,0,0,26,4.75,18.82,18.82,0,0,0,14.84,6.67a8.74,8.74,0,0,0-2.36,1.89,3.57,3.57,0,0,0-.33,4.54,4.42,4.42,0,0,0,3.67,1.61.85.85,0,0,0,.6-.32v0a1,1,0,0,0-.19-.55,3.47,3.47,0,0,1,0-4.16A7.44,7.44,0,0,1,19.8,7.23a22.29,22.29,0,0,0-1,2.39c-.5,1.65-1,3.31-1.35,5h0c0,.11-.05.22-.08.34-.47,2.1-.85,4.22-1.23,6.34-.19,1.1.13,1.53,1.24,1.7a10.36,10.36,0,0,0,1.93.06c.79,0,1-.22,1-1s.14-1.75.29-2.61c.21-1.25.49-2.49.73-3.73h.14a2.22,2.22,0,0,1,.14.32c.43,1.36.88,2.73,1.28,4.11a34.88,34.88,0,0,0,2.54,6.93,8,8,0,0,0,5.2,4.41,10.77,10.77,0,0,0,4.89-.13,37.45,37.45,0,0,0,9.12-3.83c2.66-1.42,5.32-2.84,8-4.12a11,11,0,0,1,5.67-1,2,2,0,0,1,2,1.85,4.44,4.44,0,0,1-.87,3.31c-.3.49-.74.89-1,1.38a.87.87,0,0,0-.09.74c.11.16.47.21.73.22a1.34,1.34,0,0,0,.59-.2,9.71,9.71,0,0,0,4.52-5.13A4.09,4.09,0,0,0,64.18,21.4ZM21.9,13.47c.1-.43.18-.82.3-1.2.49-1.69,1-3.38,1.51-5.06.21-.68.42-.77,1.09-.55a2.06,2.06,0,0,1,1.5,1.72C26.67,10.76,24.3,13.58,21.9,13.47ZM69.25,48c-.37-.25-.63,0-.86.27A9,9,0,0,1,62.09,51a24.75,24.75,0,0,1-7.85-.94c-2.46-.66-4.92-1.37-7.39-2-.87-.23-1.75-.39-2.65-.6.18-.33.33-.63.47-.92a33.12,33.12,0,0,0,2-6.3c.5-2,1-4,1.63-5.92A2.4,2.4,0,0,1,49,33.17,1.36,1.36,0,0,1,50,32.93c.22.07.41.54.45.84a4.83,4.83,0,0,1-.32,2.43.9.9,0,0,0,.09.79,1,1,0,0,0,.8.1,5.41,5.41,0,0,0,2.48-1.79A2.56,2.56,0,0,0,52.46,31a6.11,6.11,0,0,0-5.45.54,6.72,6.72,0,0,0-2.82,3.88c-.37,1.14-.63,2.32-.94,3.49l-.47,1.82c-.7-.56-1.34-1.12-2-1.58a16.86,16.86,0,0,0-2.2-1.22,22.41,22.41,0,0,0-9.61-1.6c-3.27.06-6.55.28-9.82.42A36.06,36.06,0,0,1,11,36.39,12.15,12.15,0,0,1,4,32.8a13.56,13.56,0,0,1-3-5.72c-.13-.46-.24-.92-.36-1.38H.53c-.18.94-.36,1.86-.53,2.8v1.15a4.64,4.64,0,0,1,.11.51,9.37,9.37,0,0,0,1.12,3.42,13.39,13.39,0,0,0,8,6.16,18.76,18.76,0,0,0,8.43.34c2.67-.39,5.32-.87,8-1.36a19.73,19.73,0,0,1,13.44,2,23.6,23.6,0,0,1,2.73,1.93.69.69,0,0,1,.2.92c-.45,1-.86,2-1.28,3a.73.73,0,0,1-.84.52,8.4,8.4,0,0,0-1.41.08A3.29,3.29,0,0,0,36,48.46a1.56,1.56,0,0,0,.28,2.25,2.73,2.73,0,0,0,2,.62,6.59,6.59,0,0,0,4.18-1.74.66.66,0,0,1,.79-.16c1.9.71,3.82,1.35,5.7,2.12a82.78,82.78,0,0,0,8.26,3.1,9.47,9.47,0,0,0,8.05-1.13A11.18,11.18,0,0,0,69.34,49C69.49,48.67,69.64,48.3,69.25,48Zm1.24-31.47c-.15-.13-.46-.1-.7-.1s-.22.11-.33.16a2.18,2.18,0,0,1-3.25-2.11,3.32,3.32,0,0,1,.08-.94c.23-.95.51-1.88.76-2.83a12.81,12.81,0,0,0,.46-2.09,1.82,1.82,0,0,0-2.18-2.08,5.19,5.19,0,0,0-.77.14,6.56,6.56,0,0,0-3.24,2.16,2.47,2.47,0,0,0-2.46-1.49c-1,0-1.14.25-1.14,1.2a1.06,1.06,0,0,1,0,.25c-.25,1.21-.52,2.4-.76,3.6s-.48,2.18-.62,3.29A1,1,0,0,0,57.21,17a12.69,12.69,0,0,0,2.39.14c.37,0,.56-.3.54-.7a4.78,4.78,0,0,1,0-1,13.67,13.67,0,0,1,1.55-4.5,7.15,7.15,0,0,1,1.1-1.31c.08-.09.28-.08.42-.12,0,.16.13.34.09.48-.19.62-.39,1.23-.61,1.83A11.66,11.66,0,0,0,61.8,16a3.6,3.6,0,0,0,3,3.74,5.43,5.43,0,0,0,4.37-1,7.09,7.09,0,0,0,1.32-1.46A.65.65,0,0,0,70.49,16.57Zm3.34,19.32a1.22,1.22,0,0,0-.59-1.54,3.92,3.92,0,0,0-2.74-.7.65.65,0,0,0-.64.73,16.18,16.18,0,0,1-.08,2.2,8,8,0,0,1-1.44,3.9c-.19.25-.59.35-.89.53a3.06,3.06,0,0,1-.13-1c.18-.8.46-1.58.66-2.38a2.59,2.59,0,0,0-3-3.29c-.56.11-.71.33-.71.9a5.93,5.93,0,0,1-.11,1.4c-.27,1.18-.62,2.34-.89,3.51a7.07,7.07,0,0,0-.2,1.71,2.14,2.14,0,0,0,2.53,2.2,6.6,6.6,0,0,0,3.7-2,4,4,0,0,0,3.17,1.06c.49-.06.73-.33.56-.74a5.56,5.56,0,0,1,0-3.71C73.23,37.79,73.57,36.84,73.83,35.89Zm13-8.2a3.14,3.14,0,0,0-2.94-1.37c-.37.09-.66.25-.68.73A30.61,30.61,0,0,1,82,33.21a4.18,4.18,0,0,0-3.15.21,7.75,7.75,0,0,0-2.87,2.33,7.42,7.42,0,0,0-1.71,5.11,2.37,2.37,0,0,0,2.89,2.34,4.37,4.37,0,0,0,1.34-.42c.8-.42,1.55-.93,2.37-1.44.09.07.25.19.41.29a3.85,3.85,0,0,0,2.73.7c.52-.07.61-.31.51-.81a6.1,6.1,0,0,1-.24-2.1c.22-1.39.63-2.76,1-4.13.57-2.2,1.18-4.39,1.74-6.59A1.65,1.65,0,0,0,86.88,27.69Zm-5.83,8.48c-.47,1.1-1,2.18-1.55,3.25a1.94,1.94,0,0,1-.55.63.85.85,0,0,1-.63.2c-.11,0-.15-.37-.21-.52a6.54,6.54,0,0,1,2-4.1,3.57,3.57,0,0,1,1-.43A2.78,2.78,0,0,1,81.05,36.17ZM89.54,35a1.26,1.26,0,1,0,1.21,1.3A1.24,1.24,0,0,0,89.54,35Zm1.27-3.2a1,1,0,0,0,0,2,1,1,0,0,0,0-2Zm3.56.86a1.49,1.49,0,0,0-1.55,1.46,1.47,1.47,0,0,0,1.42,1.57,1.49,1.49,0,0,0,1.53-1.47A1.53,1.53,0,0,0,94.37,32.64Zm9.25-14.27a7.06,7.06,0,0,1-4.33,2.84,22.88,22.88,0,0,1-9,.06c-2.92-.46-5.83-1-8.75-1.51-.78-.13-1.58-.22-2.4-.34.09-.35.16-.66.24-1,.83-3.18,1-6.5,2.28-9.58a.83.83,0,0,0-.39-1.1,6.71,6.71,0,0,0-2.15-.87c-3.16-.37-5.52,1-7.28,3.56A6.53,6.53,0,0,0,70.61,15a2.22,2.22,0,0,0,2.81,2.18,11.7,11.7,0,0,0,2.23-.87,8.7,8.7,0,0,0,1-.72c-.37,1.23-.67,2.32-1,3.39a.68.68,0,0,1-.48.33c-1.22.12-2.45.15-3.66.31a7.5,7.5,0,0,0-4.75,2.36,4.22,4.22,0,0,0-.93,4.26A4,4,0,0,0,69.08,29a6.75,6.75,0,0,0,4.44-.61,8.49,8.49,0,0,0,3.81-4.06c.41-.81.75-1.65,1.12-2.49.41.08.81.14,1.19.25l8.11,2.39A30.61,30.61,0,0,0,95.45,26a8.65,8.65,0,0,0,7.34-3.13,9.59,9.59,0,0,0,1.9-3.93V18.3C104.29,17.77,104,17.77,103.62,18.37ZM72.43,24.59a2.91,2.91,0,0,1-2.07.76,1.28,1.28,0,0,1-1.22-1.64,2.16,2.16,0,0,1,1-1.32,5.81,5.81,0,0,1,3-.91c.48,0,1,0,1.52,0A9.43,9.43,0,0,1,72.43,24.59ZM77.65,9.35a11.84,11.84,0,0,1-1.8,4,3,3,0,0,1-.62.62c-.37.26-.61.13-.62-.31a2.16,2.16,0,0,1,0-.57,7,7,0,0,1,2.11-3.73,6.52,6.52,0,0,1,.89-.53A2.52,2.52,0,0,1,77.65,9.35Z"/><path class="cls-1" d="M103.62,18.37a7.06,7.06,0,0,1-4.33,2.84,22.88,22.88,0,0,1-9,.06c-2.92-.46-5.83-1-8.75-1.51-.78-.13-1.58-.22-2.4-.34.09-.35.16-.66.24-1,.83-3.18,1-6.5,2.28-9.58a.83.83,0,0,0-.39-1.1,6.71,6.71,0,0,0-2.15-.87c-3.16-.37-5.52,1-7.28,3.56A6.53,6.53,0,0,0,70.61,15a2.22,2.22,0,0,0,2.81,2.18,11.7,11.7,0,0,0,2.23-.87,8.7,8.7,0,0,0,1-.72c-.37,1.23-.67,2.32-1,3.39a.68.68,0,0,1-.48.33c-1.22.12-2.45.15-3.66.31a7.5,7.5,0,0,0-4.75,2.36,4.22,4.22,0,0,0-.93,4.26A4,4,0,0,0,69.08,29a6.75,6.75,0,0,0,4.44-.61,8.49,8.49,0,0,0,3.81-4.06c.41-.81.75-1.65,1.12-2.49.41.08.81.14,1.19.25l8.11,2.39A30.61,30.61,0,0,0,95.45,26a8.65,8.65,0,0,0,7.34-3.13,9.59,9.59,0,0,0,1.9-3.93V18.3C104.29,17.77,104,17.77,103.62,18.37ZM72.43,24.59a2.91,2.91,0,0,1-2.07.76,1.28,1.28,0,0,1-1.22-1.64,2.16,2.16,0,0,1,1-1.32,5.81,5.81,0,0,1,3-.91c.48,0,1,0,1.52,0A9.43,9.43,0,0,1,72.43,24.59ZM77.65,9.35a11.84,11.84,0,0,1-1.8,4,3,3,0,0,1-.62.62c-.37.26-.61.13-.62-.31a2.16,2.16,0,0,1,0-.57,7,7,0,0,1,2.11-3.73,6.52,6.52,0,0,1,.89-.53A2.52,2.52,0,0,1,77.65,9.35Z"/><path class="cls-1" d="M95.77,34.2a1.49,1.49,0,0,1-1.53,1.47,1.47,1.47,0,0,1-1.42-1.57,1.49,1.49,0,0,1,1.55-1.46A1.53,1.53,0,0,1,95.77,34.2Z"/><path class="cls-1" d="M91.79,32.77a1,1,0,0,1-1,1,1,1,0,0,1,0-2A1,1,0,0,1,91.79,32.77Z"/><path class="cls-1" d="M90.75,36.28A1.23,1.23,0,1,1,89.54,35,1.24,1.24,0,0,1,90.75,36.28Z"/><path class="cls-1" d="M86.88,27.69a3.14,3.14,0,0,0-2.94-1.37c-.37.09-.66.25-.68.73A30.61,30.61,0,0,1,82,33.21a4.18,4.18,0,0,0-3.15.21,7.75,7.75,0,0,0-2.87,2.33,7.42,7.42,0,0,0-1.71,5.11,2.37,2.37,0,0,0,2.89,2.34,4.37,4.37,0,0,0,1.34-.42c.8-.42,1.55-.93,2.37-1.44.09.07.25.19.41.29a3.85,3.85,0,0,0,2.73.7c.52-.07.61-.31.51-.81a6.1,6.1,0,0,1-.24-2.1c.22-1.39.63-2.76,1-4.13.57-2.2,1.18-4.39,1.74-6.59A1.65,1.65,0,0,0,86.88,27.69Zm-5.83,8.48c-.47,1.1-1,2.18-1.55,3.25a1.94,1.94,0,0,1-.55.63.85.85,0,0,1-.63.2c-.11,0-.15-.37-.21-.52a6.54,6.54,0,0,1,2-4.1,3.57,3.57,0,0,1,1-.43A2.78,2.78,0,0,1,81.05,36.17Z"/><path class="cls-1" d="M69.34,49a11.18,11.18,0,0,1-4.11,4.54,9.47,9.47,0,0,1-8.05,1.13,82.78,82.78,0,0,1-8.26-3.1c-1.88-.77-3.8-1.41-5.7-2.12a.66.66,0,0,0-.79.16,6.59,6.59,0,0,1-4.18,1.74,2.73,2.73,0,0,1-2-.62A1.56,1.56,0,0,1,36,48.46a3.29,3.29,0,0,1,2.51-1.25,8.4,8.4,0,0,1,1.41-.08.73.73,0,0,0,.84-.52c.42-1,.83-2,1.28-3a.69.69,0,0,0-.2-.92,23.6,23.6,0,0,0-2.73-1.93,19.73,19.73,0,0,0-13.44-2c-2.65.49-5.3,1-8,1.36a18.76,18.76,0,0,1-8.43-.34,13.39,13.39,0,0,1-8-6.16A9.37,9.37,0,0,1,.11,30.16,4.64,4.64,0,0,0,0,29.65V28.5c.17-.94.35-1.86.53-2.8H.69c.12.46.23.92.36,1.38A13.56,13.56,0,0,0,4,32.8,12.15,12.15,0,0,0,11,36.39a36.06,36.06,0,0,0,8.17.37c3.27-.14,6.55-.36,9.82-.42a22.41,22.41,0,0,1,9.61,1.6,16.86,16.86,0,0,1,2.2,1.22c.69.46,1.33,1,2,1.58l.47-1.82c.31-1.17.57-2.35.94-3.49A6.72,6.72,0,0,1,47,31.55,6.11,6.11,0,0,1,52.46,31a2.56,2.56,0,0,1,1.07,4.29,5.41,5.41,0,0,1-2.48,1.79,1,1,0,0,1-.8-.1.9.9,0,0,1-.09-.79,4.83,4.83,0,0,0,.32-2.43c0-.3-.23-.77-.45-.84a1.36,1.36,0,0,0-1.05.24,2.4,2.4,0,0,0-.71,1.13c-.58,2-1.13,3.93-1.63,5.92a33.12,33.12,0,0,1-2,6.3c-.14.29-.29.59-.47.92.9.21,1.78.37,2.65.6,2.47.67,4.93,1.38,7.39,2a24.75,24.75,0,0,0,7.85.94,9,9,0,0,0,6.3-2.71c.23-.25.49-.52.86-.27S69.49,48.67,69.34,49Z"/><path class="cls-1" d="M70.52,17.22a7.09,7.09,0,0,1-1.32,1.46,5.43,5.43,0,0,1-4.37,1,3.6,3.6,0,0,1-3-3.74,11.66,11.66,0,0,1,.9-4.19c.22-.6.42-1.21.61-1.83,0-.14-.06-.32-.09-.48-.14,0-.34,0-.42.12a7.15,7.15,0,0,0-1.1,1.31,13.67,13.67,0,0,0-1.55,4.5,4.78,4.78,0,0,0,0,1c0,.4-.17.69-.54.7A12.69,12.69,0,0,1,57.21,17a1,1,0,0,1-.89-1.22c.14-1.11.39-2.2.62-3.29s.51-2.39.76-3.6a1.06,1.06,0,0,0,0-.25c0-1,.18-1.16,1.14-1.2a2.47,2.47,0,0,1,2.46,1.49,6.56,6.56,0,0,1,3.24-2.16,5.19,5.19,0,0,1,.77-.14,1.82,1.82,0,0,1,2.18,2.08,12.81,12.81,0,0,1-.46,2.09c-.25.95-.53,1.88-.76,2.83a3.32,3.32,0,0,0-.08.94,2.18,2.18,0,0,0,3.25,2.11c.11-.05.22-.15.33-.16s.55,0,.7.1A.65.65,0,0,1,70.52,17.22Z"/><path class="cls-1" d="M73,38.75a5.56,5.56,0,0,0,0,3.71c.17.41-.07.68-.56.74a4,4,0,0,1-3.17-1.06,6.6,6.6,0,0,1-3.7,2,2.14,2.14,0,0,1-2.53-2.2,7.07,7.07,0,0,1,.2-1.71c.27-1.17.62-2.33.89-3.51a5.93,5.93,0,0,0,.11-1.4c0-.57.15-.79.71-.9a2.59,2.59,0,0,1,3,3.29c-.2.8-.48,1.58-.66,2.38a3.06,3.06,0,0,0,.13,1c.3-.18.7-.28.89-.53a8,8,0,0,0,1.44-3.9,16.18,16.18,0,0,0,.08-2.2.65.65,0,0,1,.64-.73,3.92,3.92,0,0,1,2.74.7,1.22,1.22,0,0,1,.59,1.54C73.57,36.84,73.23,37.79,73,38.75Z"/><path class="cls-1" d="M64.18,21.4a3.46,3.46,0,0,0-3.31-1.93A15.61,15.61,0,0,0,53.53,21c-2.89,1.31-5.71,2.81-8.55,4.24a26.5,26.5,0,0,1-9.12,2.89,6.54,6.54,0,0,1-6.67-3,18.86,18.86,0,0,1-1.11-1.9c-.39-.8-.71-1.64-1-2.46-.81-2-1.61-3.93-2.42-5.92l.52-.22a9.63,9.63,0,0,0,4.64-3.56,3.72,3.72,0,0,0-1.36-5.53A7,7,0,0,0,26,4.75,18.82,18.82,0,0,0,14.84,6.67a8.74,8.74,0,0,0-2.36,1.89,3.57,3.57,0,0,0-.33,4.54,4.42,4.42,0,0,0,3.67,1.61.85.85,0,0,0,.6-.32v0a1,1,0,0,0-.19-.55,3.47,3.47,0,0,1,0-4.16A7.44,7.44,0,0,1,19.8,7.23a22.29,22.29,0,0,0-1,2.39c-.5,1.65-1,3.31-1.35,5h0c0,.11-.05.22-.08.34-.47,2.1-.85,4.22-1.23,6.34-.19,1.1.13,1.53,1.24,1.7a10.36,10.36,0,0,0,1.93.06c.79,0,1-.22,1-1s.14-1.75.29-2.61c.21-1.25.49-2.49.73-3.73h.14a2.22,2.22,0,0,1,.14.32c.43,1.36.88,2.73,1.28,4.11a34.88,34.88,0,0,0,2.54,6.93,8,8,0,0,0,5.2,4.41,10.77,10.77,0,0,0,4.89-.13,37.45,37.45,0,0,0,9.12-3.83c2.66-1.42,5.32-2.84,8-4.12a11,11,0,0,1,5.67-1,2,2,0,0,1,2,1.85,4.44,4.44,0,0,1-.87,3.31c-.3.49-.74.89-1,1.38a.87.87,0,0,0-.09.74c.11.16.47.21.73.22a1.34,1.34,0,0,0,.59-.2,9.71,9.71,0,0,0,4.52-5.13A4.09,4.09,0,0,0,64.18,21.4ZM21.9,13.47c.1-.43.18-.82.3-1.2.49-1.69,1-3.38,1.51-5.06.21-.68.42-.77,1.09-.55a2.06,2.06,0,0,1,1.5,1.72C26.67,10.76,24.3,13.58,21.9,13.47Z"/><path class="cls-1" d="M60.63,35.47a14.12,14.12,0,0,0-1.82-.42A8.36,8.36,0,0,0,55,36.17c-.76.47-1.5,1-1.42,2.08,0,.14-.14.31-.26.43a5.51,5.51,0,0,0-1.56,2.85,2.9,2.9,0,0,0,2.28,3.66,6.62,6.62,0,0,0,2.43,0,7.27,7.27,0,0,0,6-6.37A3.06,3.06,0,0,0,60.63,35.47Zm-2.42,4.68a7.3,7.3,0,0,1-1.13,2.31,1.61,1.61,0,0,1-.39.35c-.47.34-.86.21-1.07-.33a3.61,3.61,0,0,1,0-2.11,1.69,1.69,0,0,0,.56.17,1.23,1.23,0,0,0,.74-.22.36.36,0,0,0,.07-.19,1.1,1.1,0,0,0-.08-.51,1.56,1.56,0,0,1,.37-2,1.15,1.15,0,0,1,.83-.25c.18.05.35.47.35.72A7.29,7.29,0,0,1,58.21,40.15Z"/><path class="cls-1" d="M54.61,9.07a1.72,1.72,0,0,1-1.77-1.64,2.6,2.6,0,0,1,2.38-2.9A1.67,1.67,0,0,1,57,6.17,2.57,2.57,0,0,1,54.61,9.07Z"/><path class="cls-1" d="M57.5,2.4a.75.75,0,0,1-.67.14,3.7,3.7,0,0,0-4.49,1.8,19.82,19.82,0,0,0-1.73,3.92c-1.1,3.69-2.06,7.41-3.06,11.13a3.24,3.24,0,0,0-.06.88c0,.68-.12.84-.8.9l-.68,0a.06.06,0,0,1,0,0c-.46-.07-.94-.1-1.39-.21a1.07,1.07,0,0,1-.89-1.41c.74-3.08,1.46-6.16,2.29-9.22a54.12,54.12,0,0,1,1.86-5.56,7.92,7.92,0,0,1,3-3.84A5.26,5.26,0,0,1,55.11.14,3.84,3.84,0,0,1,57.4,1.71.8.8,0,0,1,57.5,2.4Z"/><path class="cls-1" d="M55.31,13.08c-.37,1.34-.83,2.66-1.19,4a7,7,0,0,0-.2,1.71c0,.71-.09.87-.79.94l-.68,0s0,0,0,0c-.45-.07-.91-.1-1.34-.21a1.1,1.1,0,0,1-1-1.37c.15-1,.39-1.95.63-2.91.28-1.14.62-2.25.9-3.39a4,4,0,0,0,.07-1.09.69.69,0,0,1,.55-.77,2.76,2.76,0,0,1,3,1.21A2.23,2.23,0,0,1,55.31,13.08Z"/><path class="cls-1" d="M44.93,10.71c-.56,2.19-1.18,4.35-1.75,6.53-.45,1.68-.87,3.36-1.28,5a5.27,5.27,0,0,0-.1,1.19c0,.59-.13.79-.73.85-.26,0-.53,0-.79.06v.05a10.49,10.49,0,0,1-1.48-.3A1,1,0,0,1,38,22.79c.29-1.51.63-3,1-4.5.7-2.78,1.43-5.55,2.13-8.33A3,3,0,0,0,41.23,9a.7.7,0,0,1,.63-.81,3.16,3.16,0,0,1,3,1.34A1.91,1.91,0,0,1,44.93,10.71Z"/><path class="cls-1" d="M35.41,11.64h-.32a0,0,0,0,0,0,0c-.45.05-.9.08-1.35.17a6.43,6.43,0,0,0-2.95,1.29,1.78,1.78,0,0,0-.85,1.43.89.89,0,0,1-.33.76,5.15,5.15,0,0,0-1.55,3.3,2.86,2.86,0,0,0,1.94,3,5,5,0,0,0,2.89.08,7.41,7.41,0,0,0,5.88-5.87C39.15,13.33,37.89,11.77,35.41,11.64Zm-.95,5.17c-.07.21-.15.42-.23.63A6.13,6.13,0,0,1,33.32,19a1.18,1.18,0,0,1-.93.41c-.23,0-.48-.5-.52-.8a13.12,13.12,0,0,1,0-1.78,2.68,2.68,0,0,0,.74.19,1,1,0,0,0,.69-.23.76.76,0,0,0,0-.66,1.57,1.57,0,0,1,.19-1.94,1.63,1.63,0,0,1,.54-.39c.44-.18.72,0,.78.46A5.32,5.32,0,0,1,34.46,16.81Z"/></g></g></svg>