<svg xmlns="http://www.w3.org/2000/svg" viewBox="0 0 64.3 64.3"><defs><style>.cls-1{fill:#191919;}</style></defs><g id="Layer_2" data-name="Layer 2"><g id="Layer_1-2" data-name="Layer 1"><path class="cls-1" d="M20.54,32c0,5.9,5.23,10.68,11.69,10.68S43.92,37.86,43.92,32c0-4.89-3.59-9-8.48-10.28-.15.36-.3.72-.45,1l-.09.21a5.2,5.2,0,0,1-.47.91,5,5,0,0,0-.41.76l0,0c0,.1-.05.13,0,.16s.08.07.22,0a5.45,5.45,0,0,1,1-.21,6.56,6.56,0,0,0,.88-.18l.53-.13a3.06,3.06,0,0,0,1.65-.74l.08-.12,0,.14.05.07c.13.21.21.44-.29.83a3.86,3.86,0,0,1-1.36.62c-.93.34-1.23.46-2.11.85l-.05,0,0,0h0a5.67,5.67,0,0,0,1.35.62,13,13,0,0,1,1.62.63,2.31,2.31,0,0,1,.55.37l.22.2-.29-.07-.85-.2c-1.05-.25-2.82-.68-3.29-.74l-.33-.05a3.45,3.45,0,0,0-.77-.07h-.18a1.41,1.41,0,0,0-.93.28,3.16,3.16,0,0,0-.9,1.09c-.36,1.26-2.38,1.95-2.4,1.95l-.09,0-.24.06.09-.16a3.6,3.6,0,0,1,.45-.47A7.83,7.83,0,0,0,30.07,28c.07-.16.15-.31.22-.47a5.08,5.08,0,0,0,.48-1.15v0c0-.17,0-.26-.06-.34l-.35-.24a10.26,10.26,0,0,0-.94-.63,3.16,3.16,0,0,0-1.53-.33c-.2,0-1,.07-1.21.09l-.34.06a8.78,8.78,0,0,1-1.56.15c-.08,0-.24,0-.25-.15a.16.16,0,0,1,0-.12.19.19,0,0,1,.16,0h0a6.8,6.8,0,0,0,1.18-.3l.59-.19a5.6,5.6,0,0,1,3,.11,3.1,3.1,0,0,0,.57.13c.14,0,.18,0,.19,0a.52.52,0,0,0-.05-.17,1.19,1.19,0,0,0-.08-.2,2.2,2.2,0,0,1-.13-.36,8.48,8.48,0,0,1-.08-2.3C24.58,22.45,20.54,26.77,20.54,32Zm21.71,22.8c-.21.12-.43.22-.66.33l-.17.09.15.29c.29.58.59,1.19.9,1.78l.1,0c.15-.07.31-.14.48-.2a13.58,13.58,0,0,0,1.54-.73,2.69,2.69,0,0,0,1.5-2.8,7.72,7.72,0,0,0-.65-2.21c-.5-1-.77-1.57-.92-1.89s-.2-.43-.33-.68-.37-.74-1.06-2.14a1,1,0,0,1-.09-.15L40.37,47.8l.17.33L41.46,50c0,.06.12.26.9,1.82.2.41.38.81.54,1.21A1.23,1.23,0,0,1,42.25,54.76ZM8.36,15.8a1.74,1.74,0,0,0,.92-1,1.72,1.72,0,0,0-1.46-2.21,1.7,1.7,0,0,0-.88.19,1.7,1.7,0,0,0-.92,1,1.62,1.62,0,0,0,.1,1.27A1.56,1.56,0,0,0,8.36,15.8Zm33.6,29a1.57,1.57,0,0,0-.11-1.26,1.59,1.59,0,0,0-1.35-1,1.92,1.92,0,0,0-.88.19,1.73,1.73,0,0,0-.92,1A1.6,1.6,0,0,0,38.8,45a1.56,1.56,0,0,0,2.24.72A1.77,1.77,0,0,0,42,44.81ZM22.88,7.74a1.55,1.55,0,0,0-.33-1l-6.67,3.5,1,1.92,3.22-1.69c0,.15,0,.25,0,.35C20,13.2,19.8,15.6,19.62,18a1.72,1.72,0,0,0,.33.94,9.47,9.47,0,0,1,1-.51c1.19-.44,2.39-.86,3.6-1.28a7.25,7.25,0,0,0,2.92-1.81l-.95-1.81-.05-.06a16.68,16.68,0,0,1-1.91,1.18,18,18,0,0,1-2.18.73c0-.18,0-.29,0-.4C22.55,12.56,22.7,10.15,22.88,7.74ZM48.72,21.83l.86,1.89-1.79.8.92,2.06.17-.06.93-.3.8-.24.61,1.36.18-.08.37-.17.89-.4a.38.38,0,0,0,.23-.55c-.08-.23-.24-.66-.35-1l.62-.28L55,24a8.72,8.72,0,0,0,1.1-.61,2.35,2.35,0,0,0,1.17-2.35A4.88,4.88,0,0,0,56,18.35l-.11-.13-1.66,1.17.09.15a2.75,2.75,0,0,0,.17.29c.11.2.22.39.31.58.28.6.18.87-.42,1.15l-2.07.94-.72.33-.85-1.89Zm-20.24-8a1.72,1.72,0,0,0-.13,1,8.44,8.44,0,0,1,1.12,0c1.26.14,2.53.31,3.79.48a7.36,7.36,0,0,0,3.42-.31c0-.69,0-1.36,0-2,0-.05,0-.1,0-.08a17.25,17.25,0,0,1-2.24.2,19.42,19.42,0,0,1-2.27-.33l.19-.36c1.23-2.08,2.45-4.17,3.69-6.25A1.55,1.55,0,0,0,36.17,5l-7.53.14c0,.72,0,1.43,0,2.17l3.64-.07c-.07.14-.11.23-.16.32C30.93,9.63,29.71,11.71,28.48,13.78Zm4.58,9.27q0,.18,0,.33l.11-.11a5.58,5.58,0,0,0,.84-.85c.07-.11.32-.47.61-.92a12.81,12.81,0,0,0-2.42-.23,12.17,12.17,0,0,0-1.49.09,3.68,3.68,0,0,0,.89,2.52l0,0a.39.39,0,0,1,0-.06l.06-.18a4.1,4.1,0,0,0,.14-.5v0a.77.77,0,0,0,0-.54.17.17,0,0,1,0-.19,1.33,1.33,0,0,1,1-.27.16.16,0,0,1,.1.16A5.54,5.54,0,0,0,33.06,23.05Zm20.27-6.44a1.7,1.7,0,0,0,.92-.95,1.56,1.56,0,0,0-.1-1.26,1.59,1.59,0,0,0-1.36-1A1.89,1.89,0,0,0,51,14.62a1.62,1.62,0,0,0,.1,1.27A1.56,1.56,0,0,0,53.33,16.61Zm6.16,17.81A4.3,4.3,0,0,0,56,29.58L55.82,32a2,2,0,0,1,1.37,2.25,2.5,2.5,0,0,1-2.84,2.21,2.44,2.44,0,0,1-2.52-2.61,2,2,0,0,1,1.54-2l.18-2.43a4.31,4.31,0,0,0-4,4.26,5,5,0,0,0,9.93.74ZM14.38,32.69l.48-2.49-2.46-.47L12.73,28A3.39,3.39,0,0,0,9.91,24a3.39,3.39,0,0,0-4.22,2.73c-.29,1.41-.54,2.78-.81,4.19Zm-6.54-5.6c.13-.68.87-.9,1.54-.77s1.32.64,1.19,1.29l-.33,1.75-2.73-.52Zm.81,9.57a1.74,1.74,0,0,0-1.46-2.22,2,2,0,0,0-.89.19,1.76,1.76,0,0,0-.92,1,1.69,1.69,0,0,0,.1,1.28,1.56,1.56,0,0,0,2.25.71A1.79,1.79,0,0,0,8.65,36.66Zm1.61-19.92h0L8.51,19l1.92,1.52L11.62,19l5.48,4.11,1.65-2.21-7.39-5.63ZM49,49a4.88,4.88,0,0,0,2,.6A3.94,3.94,0,0,0,53.35,49a6,6,0,0,0,1.94-2.13,6.91,6.91,0,0,0,.81-2.23v-.05l-1.9-.76,0,.07c0,.1-.07.2-.1.29s-.14.4-.23.59a4.63,4.63,0,0,1-1.45,2,1.8,1.8,0,0,1-1.73.2,1.56,1.56,0,0,1,.16-.2c.14-.19.28-.37.4-.55a6.67,6.67,0,0,0,1.21-2.67,2.82,2.82,0,0,0-3.29-3.25A3.8,3.8,0,0,0,47,41.72a4.3,4.3,0,0,0-.43,5.13A6.2,6.2,0,0,0,49,49Zm-.22-6.1a.92.92,0,0,1,.64-.27,1.14,1.14,0,0,1,.25.06.84.84,0,0,1,.58.89,4.77,4.77,0,0,1-.46,1.25,5.49,5.49,0,0,1-.51.71l-.22.27a2.11,2.11,0,0,1-.8-1.56A1.66,1.66,0,0,1,48.79,42.91ZM56,10.64a32.15,32.15,0,0,0-45.4-2.38A35.24,35.24,0,0,0,8,10.94a3,3,0,0,1,1.24.38q1-1.14,2.19-2.19a30.79,30.79,0,0,1,20.69-8c.55,0,1.11,0,1.66.05a31,31,0,0,1-1.58,61.91c-.55,0-1.11,0-1.66-.05A31,31,0,0,1,5.22,16.83a3.53,3.53,0,0,1-.71-1l0-.07a32.16,32.16,0,0,0,26,48.49c.57,0,1.15,0,1.72,0A32.15,32.15,0,0,0,64.25,33.83,31.91,31.91,0,0,0,56,10.64ZM45.64,8.45a4.58,4.58,0,0,0-4-.1,5.18,5.18,0,0,0-2.26,2.16,6.5,6.5,0,0,0-1.05,3.43c0,2.59,3,4.29,4.83,3.17h.06c-.17,1.32,1,2.2,2.27,2.55l1-1.8-.21-.12a.6.6,0,0,1-.31-.86,6,6,0,0,1,.31-.62L49,11.48a.38.38,0,0,0-.05-.52A9.55,9.55,0,0,0,45.64,8.45Zm.18,3.17c-.25.4-.46.82-.69,1.23l0,0c-.41.62-.8,1.26-1.24,1.85a2,2,0,0,1-.7.57,1.46,1.46,0,0,1-2.15-1.11,3.31,3.31,0,0,1,.51-2,3.9,3.9,0,0,1,1.15-1.43,1.88,1.88,0,0,1,2.07-.17,10.2,10.2,0,0,1,.92.59A.29.29,0,0,1,45.82,11.62ZM10.4,43l.79,1.55A3.39,3.39,0,0,0,15.93,46a3.39,3.39,0,0,0,1.64-4.75c-.65-1.28-1.3-2.52-2-3.8L7,41.85,8.17,44.1Zm4.4-2.31.82,1.58a1.21,1.21,0,0,1-.74,1.56,1.24,1.24,0,0,1-1.73-.28l-.82-1.59ZM27.26,54.35a4.92,4.92,0,0,0,5.06,5.3,5.2,5.2,0,0,0,.21-10.4A5,5,0,0,0,27.26,54.35Zm7.69.13a2.54,2.54,0,1,1-5.06-.09,2.46,2.46,0,0,1,2.6-2.64A2.49,2.49,0,0,1,35,54.48Zm-13.2,3,.2-.3.09-3.6A3.39,3.39,0,0,0,24.78,52a3.32,3.32,0,0,0-1-4.77c-1.19-.79-2.36-1.54-3.57-2.32L14.89,53,17,54.4l1.66-2.54,1.11.73L19.5,56Zm-2-7.37,1.31-2,1.47,1a1.06,1.06,0,0,1,.23,1.56,1.1,1.1,0,0,1-1.54.45Z"/></g></g></svg>