<svg xmlns="http://www.w3.org/2000/svg" viewBox="0 0 118.57 22.71"><defs><style>.cls-1{fill:#191919;}</style></defs><g id="Layer_2" data-name="Layer 2"><g id="Layer_1-2" data-name="Layer 1"><path class="cls-1" d="M13.23,12.49a10.54,10.54,0,0,0,5.19-1.2l2-7.06a6.65,6.65,0,0,0,.32-1.7.84.84,0,0,0-.07-.32,4.74,4.74,0,0,0-.6-.46,7.27,7.27,0,0,0-1.24-.17l-.58-.05L18.44,1v0A14.54,14.54,0,0,0,14.57.51H6l-.17.59a3.4,3.4,0,0,1,1.91.44,1.25,1.25,0,0,1,.53,1,8.18,8.18,0,0,1-.41,2l-4,13.77A9.75,9.75,0,0,1,3,20.53a2.25,2.25,0,0,1-.93.81,5.24,5.24,0,0,1-1.9.26L0,22.2H10.59l.21-.6a4.14,4.14,0,0,1-2.18-.41,1.32,1.32,0,0,1-.48-1.11,7.46,7.46,0,0,1,.37-1.8l1.76-6.05A21.06,21.06,0,0,0,13.23,12.49Zm0-10.68a7,7,0,0,1,.75,0,3,3,0,0,1,2.25.82,3.12,3.12,0,0,1,.82,2.31,7.86,7.86,0,0,1-1.27,4.21,3.91,3.91,0,0,1-3.47,2A13.57,13.57,0,0,1,10.59,11Z"/><path class="cls-1" d="M28.27,22.2h6.27c-.12-.07-.27-.1-.38-.17-.32-.21-1.06-.71-2.35-3.13A8,8,0,0,1,31,15.44l-1.24-4.18a16.89,16.89,0,0,0,2-.71,16.51,16.51,0,0,1,1.27-2.84,16,16,0,0,1,2.51-3.39,4.28,4.28,0,0,0-1.48-2.46Q32.53.51,28.67.51h-9l-.16.59a4.11,4.11,0,0,1,1.93.45,1.19,1.19,0,0,1,.42,1,7,7,0,0,1-.34,1.84l-4,13.91A5.86,5.86,0,0,1,16.18,21a3.6,3.6,0,0,1-2.3.6l-.19.6H24.13l.23-.6a3.94,3.94,0,0,1-2.07-.4,1.14,1.14,0,0,1-.49-1,8.36,8.36,0,0,1,.41-2.05l1.92-6.57.54,0,.53,0ZM24.36,10.65,27,1.78c.29,0,.54,0,.75,0a2.87,2.87,0,0,1,2.11.8,3.12,3.12,0,0,1,.8,2.33,5.86,5.86,0,0,1-1.5,4.19,5,5,0,0,1-3.84,1.6Z"/><path class="cls-1" d="M51.27,15.45a16,16,0,0,0,.8-1.45l.37-9.46,0-1.17V3.25a7.1,7.1,0,0,0-1.6-1.68l-.44-.33c-.12-.08-.21-.18-.33-.25a7.52,7.52,0,0,0-3.73-1,12.71,12.71,0,0,0-6.81,2.17A16,16,0,0,0,34.1,7.94a14.44,14.44,0,0,0-2,7.16,9.17,9.17,0,0,0,.81,3.61,6.6,6.6,0,0,0,2.43,2.93,7.56,7.56,0,0,0,4.23,1.07,12.09,12.09,0,0,0,5.95-1.36A17,17,0,0,0,51.27,15.45Zm-8.09,4.81a4.18,4.18,0,0,1-3,1.17,2.74,2.74,0,0,1-2.18-1,4.49,4.49,0,0,1-.84-2.95A24,24,0,0,1,38,11.77,28.2,28.2,0,0,1,39.9,6.35a14.26,14.26,0,0,1,2-3.06A6.7,6.7,0,0,1,43.7,1.77a4.58,4.58,0,0,1,2.15-.46,2.57,2.57,0,0,1,2,1,5,5,0,0,1,.82,3.18,25,25,0,0,1-1.54,8A16.66,16.66,0,0,1,43.18,20.26Z"/><path class="cls-1" d="M66.05,7.71a16.41,16.41,0,0,1,5.64-5.94A16.22,16.22,0,0,1,73.15,1V.51h-6l-.23.59a2.94,2.94,0,0,1,1.35.47,1,1,0,0,1,.35.71,2.94,2.94,0,0,1-.38,1.29,18.64,18.64,0,0,1-2,2.63L57.76,16l.52-11.3A5.16,5.16,0,0,1,59,1.81a2.2,2.2,0,0,1,1.77-.71l.17-.59H51.8l-.19.59a2.5,2.5,0,0,1,1.56.5,1.76,1.76,0,0,1,.42,1.29c0,.06,0,.61-.05,1.67l-.7,18.13h.7l12-13.9C65.69,8.43,65.85,8.07,66.05,7.71Z"/><path class="cls-1" d="M82.47,17.88a.65.65,0,0,0,0-.13L86.16,5.13c0-.15.07-.25.1-.39a7.31,7.31,0,0,0-.41-1A7,7,0,0,0,83.11,1a7.56,7.56,0,0,0-3.74-1,12.66,12.66,0,0,0-6.8,2.17,16,16,0,0,0-5.48,5.77,14.52,14.52,0,0,0-2,7.16,9,9,0,0,0,.81,3.61,6.52,6.52,0,0,0,2.42,2.93,7.59,7.59,0,0,0,4.24,1.07,12,12,0,0,0,5.94-1.36A14.91,14.91,0,0,0,82.47,17.88Zm-6.3,2.38a4.17,4.17,0,0,1-3,1.17,2.7,2.7,0,0,1-2.17-1,4.44,4.44,0,0,1-.85-2.95A24,24,0,0,1,71,11.77a28.2,28.2,0,0,1,1.86-5.42,14.64,14.64,0,0,1,2-3.06,6.67,6.67,0,0,1,1.84-1.52,4.63,4.63,0,0,1,2.16-.46,2.57,2.57,0,0,1,2,1,4.94,4.94,0,0,1,.83,3.18,25,25,0,0,1-1.55,8A16.55,16.55,0,0,1,76.17,20.26Z"/><path class="cls-1" d="M94.08,22.05l.19-.59.11-.46h.34a3.39,3.39,0,0,0,2.09-.5,2.88,2.88,0,0,0,1.28-1.93c-.22-.61-.58-1.6-.84-2.42l-2.56-8,3.44-3.08,1.49-1.38a22.13,22.13,0,0,1,2-1.45c.21-.12.36-.16.55-.26,0,0,0-.05,0-.06a3.84,3.84,0,0,0-1.71-.34l-.59-.05L100,1l.13-.46H97l-.18.59A2,2,0,0,1,98,1.57a1.13,1.13,0,0,1,.34.83,1.56,1.56,0,0,1-.25.85,18.24,18.24,0,0,1-1.84,1.82l-5.64,5.18,1.47-5.18a13.27,13.27,0,0,1,.83-2.45,3.08,3.08,0,0,1,1.16-1.21,3.21,3.21,0,0,1,1.57-.31l.18-.59H85.63l-.18.59a3.48,3.48,0,0,1,1.91.45,1.16,1.16,0,0,1,.5.94,13.62,13.62,0,0,1-.62,2.77L83.59,17.88a11.89,11.89,0,0,1-.88,2.44,2.21,2.21,0,0,1-1,.95,4.76,4.76,0,0,1-1.88.33l-.18.6H90.2l.18-.6a3.36,3.36,0,0,1-1.91-.42,1.3,1.3,0,0,1-.53-1.08,7.92,7.92,0,0,1,.39-1.92l2.29-7.91,2.3,7.38a8.67,8.67,0,0,1,.49,2.29A1.53,1.53,0,0,1,93,21.07a2.14,2.14,0,0,1-1.38.53l-.17.6H94Z"/><path class="cls-1" d="M101.28.51l-.17.59a4.36,4.36,0,0,1,2,.44,1.12,1.12,0,0,1,.42.94,7.23,7.23,0,0,1-.33,1.84l-4.08,14A5.61,5.61,0,0,1,97.73,21a3.73,3.73,0,0,1-2.38.61l-.19.6h18.55L116,16.25h-.65A12.9,12.9,0,0,1,111,19.76a11.74,11.74,0,0,1-5.15,1.16,4.05,4.05,0,0,1-1.93-.32.69.69,0,0,1-.35-.59,5.84,5.84,0,0,1,.27-1.43l2.08-7.28h1.25a9.45,9.45,0,0,1,2.25.17,2.84,2.84,0,0,1,1.35.79,2,2,0,0,1,.52,1.44,9.27,9.27,0,0,1-.14,1.38h.56l2.43-8.44h-.59a6,6,0,0,1-2.26,2.71,8.83,8.83,0,0,1-4.25.77h-.74l2.42-8.41h2a10.05,10.05,0,0,1,3.6.47,4,4,0,0,1,1.79,1.5,4.62,4.62,0,0,1,.49,2.25h.58L118.57.51Z"/></g></g></svg>