<svg xmlns="http://www.w3.org/2000/svg" viewBox="0 0 99.14 35.01"><defs><style>.cls-1{fill:#191919;}</style></defs><g id="Layer_2" data-name="Layer 2"><g id="Layer_1-2" data-name="Layer 1"><path class="cls-1" d="M36.79.19H33.9a.93.93,0,0,0-.93.93V3.77a.93.93,0,0,0,.93.93h2.89a.93.93,0,0,0,.93-.93V1.12A.93.93,0,0,0,36.79.19ZM97.11,0H90.75a2,2,0,0,0-2,2V8.39a2,2,0,0,0,2,2h6.36a2,2,0,0,0,2-2V2A2,2,0,0,0,97.11,0Z"/><path class="cls-1" d="M53.75,4.33a7.25,7.25,0,0,0-1.54-2.15A7.55,7.55,0,0,0,49.92.63,6.76,6.76,0,0,0,47.23.1a6.58,6.58,0,0,0-2.82.6,7.69,7.69,0,0,0-2.16,1.51,6.84,6.84,0,0,0-2.14,5.06V35h4.62v-7.4A3,3,0,0,0,47.1,29a7.12,7.12,0,0,0,3.57-.64,5.7,5.7,0,0,0,1.72-1.31,7.64,7.64,0,0,0,1.92-5.34V7.67A9.1,9.1,0,0,0,53.75,4.33Zm-4.06,17.4A2.42,2.42,0,0,1,49,23.59a2.47,2.47,0,0,1-1.75.68,2.52,2.52,0,0,1-1.75-.65,2.38,2.38,0,0,1-.73-1.89V7.65a2.4,2.4,0,0,1,.73-1.86,2.5,2.5,0,0,1,1.75-.68,2.55,2.55,0,0,1,1.72.68,2.38,2.38,0,0,1,.76,1.86Z"/><path class="cls-1" d="M30.6,7.33V28.56H26V7.67a2.56,2.56,0,0,0-.74-1.84,2.36,2.36,0,0,0-1.76-.76,2.42,2.42,0,0,0-1.77.73A2.54,2.54,0,0,0,21,7.67V28.56H16.35V7.44a6.82,6.82,0,0,1,2.15-5,6.93,6.93,0,0,1,10,0A6.65,6.65,0,0,1,30.6,7.33Z"/><path class="cls-1" d="M90.75,0h6.35a2,2,0,0,1,2,2V8.4a2,2,0,0,1-2,2H90.75a2,2,0,0,1-2-2V2A2,2,0,0,1,90.75,0Z"/><rect class="cls-1" x="32.97" y="7.75" width="4.62" height="20.81"/><rect class="cls-1" x="32.97" y="0.19" width="4.74" height="4.51" rx="0.93"/><path class="cls-1" d="M87,17.28v4.51a6.82,6.82,0,0,1-7.16,7.06,6.55,6.55,0,0,1-4.71-2,7.53,7.53,0,0,1-2.29-4.36v-.05a4.6,4.6,0,0,1,0-.76V17.82h4.64v4.09a2.66,2.66,0,0,0,.11.6,2.22,2.22,0,0,0,2.3,1.58,2.31,2.31,0,0,0,2-.78,3.08,3.08,0,0,0,.58-1.87V17.33a2.18,2.18,0,0,0-.65-1.75A2.82,2.82,0,0,0,79.79,15a6.83,6.83,0,0,1-5-2.18,7.26,7.26,0,0,1-2-5.22,7.27,7.27,0,0,1,2.06-5.25,6.66,6.66,0,0,1,5-2.14,7.23,7.23,0,0,1,4.93,1.91A6.2,6.2,0,0,1,86.92,7H82.29a2.25,2.25,0,0,0-2.48-2A2.19,2.19,0,0,0,78,5.81a2.75,2.75,0,0,0-.66,1.81A2.54,2.54,0,0,0,78,9.38a2.68,2.68,0,0,0,1.8.84,7.9,7.9,0,0,1,5.06,2.09A6.46,6.46,0,0,1,87,17.28Z"/><path class="cls-1" d="M14.21,17.28v4.51a6.83,6.83,0,0,1-7.16,7.06,6.55,6.55,0,0,1-4.71-2A7.53,7.53,0,0,1,.05,22.48v-.05a5.74,5.74,0,0,1,0-.76V17.82H4.63v4.09a3.51,3.51,0,0,0,.12.6,2.22,2.22,0,0,0,2.3,1.58A2.27,2.27,0,0,0,9,23.31a3,3,0,0,0,.59-1.87V17.33a2.18,2.18,0,0,0-.65-1.75A2.82,2.82,0,0,0,7,15a6.83,6.83,0,0,1-5-2.18A7.26,7.26,0,0,1,0,7.62,7.27,7.27,0,0,1,2.06,2.37a6.66,6.66,0,0,1,5-2.14A7.23,7.23,0,0,1,12,2.14,6.2,6.2,0,0,1,14.17,7H9.54A2.25,2.25,0,0,0,7.06,5a2.22,2.22,0,0,0-1.83.79,2.79,2.79,0,0,0-.65,1.81,2.58,2.58,0,0,0,.67,1.76,2.73,2.73,0,0,0,1.81.84,7.9,7.9,0,0,1,5.06,2.09A6.46,6.46,0,0,1,14.21,17.28Z"/><path class="cls-1" d="M70.77,14.56V7.23a6.6,6.6,0,0,0-2.18-5,7,7,0,0,0-5-2.09,6.83,6.83,0,0,0-5.09,2,7.07,7.07,0,0,0-2,5.14V21.68a6.94,6.94,0,0,0,2,5.13,6.8,6.8,0,0,0,5.06,2A6.94,6.94,0,0,0,68.55,27a7,7,0,0,0,2.18-4.88V17.91H66.06v4s0,.13,0,.22a2.3,2.3,0,0,1-2.46,1.9,2.38,2.38,0,0,1-1.75-.73,2.54,2.54,0,0,1-.74-1.86v-6.9Zm-9.67-7a2.52,2.52,0,0,1,.74-1.86A2.46,2.46,0,0,1,63.65,5a2.56,2.56,0,0,1,2.54,2.6v2.65H61.1Z"/></g></g></svg>