<svg xmlns="http://www.w3.org/2000/svg" viewBox="0 0 79.72 49.18"><defs><style>.cls-1{fill:#191919;}</style></defs><g id="Layer_2" data-name="Layer 2"><g id="Layer_1-2" data-name="Layer 1"><path class="cls-1" d="M20.3,29c-2.07.61-4.13,1.24-6.18,1.93-.61.2-.76.07-.85-.53-.48-3.27-1-6.54-1.51-9.81a.6.6,0,0,0-.23-.43l-.25.76C10.18,24.6,9.07,28.32,8,32.05A1.57,1.57,0,0,1,6.85,33.2c-2.16.68-4.31,1.39-6.6,2.13H.19A.2.2,0,0,1,0,35.13V.79H6.05V18.18l.15,0c.32-1,.67-2,1-3,1-3.45,1.93-6.91,2.9-10.37.33-1.18.65-2.36,1.06-3.51a1.2,1.2,0,0,1,.81-.64,17.18,17.18,0,0,1,2.29,0q1.35,7.86,2.69,15.73l.13,0c.33-3.09.65-6.18,1-9.27.2-1.94.4-3.88.67-5.81a1,1,0,0,1,.69-.61c1.65-.05,3.29,0,4.93,0a.69.69,0,0,1,.4.53q-.57,5.32-1.22,10.63c-.39,3.28-.82,6.55-1.21,9.83-.22,1.86-.42,3.73-.57,5.6A1.73,1.73,0,0,1,20.3,29Z"/><path class="cls-1" d="M33.81,28.12q0,7.05,0,14.1c0,1.9,0,3.8,0,5.7v.91H27.69V41.14l-4,.53v3.46c0,1.1,0,2.19,0,3.28,0,.16-.28.45-.44.45-1.66,0-3.33,0-5.14,0V45c0-4,0-8.08-.05-12.13,0-.72.19-1.07.92-1.26,1.51-.4,3-.91,4.66-1.43V36c1.32-.2,2.52-.37,3.71-.59.12,0,.27-.36.27-.54,0-1.67,0-3.34,0-5,0-.5.13-.81.59-1,1.57-.49,3.13-1,4.7-1.44C33.5,27.28,33.82,27.45,33.81,28.12Z"/><path class="cls-1" d="M39.13,5.82c-.9-2.53-2.25-4.75-5-5.62a2.51,2.51,0,0,0-2,0,9.25,9.25,0,0,0-5.57,6,23.81,23.81,0,0,0-1.33,5.43,17.17,17.17,0,0,0,1.34,9.71A7.48,7.48,0,0,0,30,25.21a5,5,0,0,0,5.59-.85,12.87,12.87,0,0,0,3.58-5.65A19.84,19.84,0,0,0,39.13,5.82Zm-4.2,8.84a8.78,8.78,0,0,1-2,4.36c-.37.44-.84.53-1.17.25a5,5,0,0,1-.65-1.43,14.49,14.49,0,0,1-.48-4.26c.06-.84.15-1.69.21-2.53l.06-.33a.39.39,0,0,0,0-.15,12.16,12.16,0,0,1,1-3.21c.15-.22.29-.44.42-.67a.08.08,0,0,1,0,0,2.45,2.45,0,0,1,.52-.54c.32-.12.67.06,1,.52a6.77,6.77,0,0,1,1.14,3.51,15.92,15.92,0,0,1,.09,1.65C35.08,12.79,35.07,13.73,34.93,14.66Z"/><path class="cls-1" d="M49.19,22.61c-2.74.85-5.3,1.63-7.85,2.45a.89.89,0,0,0-.45.56c-.18.59-.28,1.21-.43,1.81-.77,3-1.55,6.07-2.34,9.11-1,3.93-2,7.87-3.06,11.8,0,.19-.07.38-.11.62h5.42c.39-1.6.76-3.19,1.18-4.77.07-.28.33-.69.54-.71,1.18-.13,2.37-.17,3.6-.24.17,1.74.33,3.4.53,5,0,.26.32.68.49.69,1.85.05,3.7,0,5.66,0C51.18,40.2,50.49,31.43,49.19,22.61Zm-6,15.17a17.24,17.24,0,0,1,1.45-5.2c.17,1.61.33,3.23.5,4.9Z"/><path class="cls-1" d="M53.36,5.11A7.52,7.52,0,0,0,50,.52,2.42,2.42,0,0,0,48.46,0a2.56,2.56,0,0,0-.89.16h-.11A7,7,0,0,0,43.4,3.84c-2.35,4.88-2.63,9.81-.11,14.72a4.47,4.47,0,0,0,6.84,1.77A9.2,9.2,0,0,0,53,16.38,16.54,16.54,0,0,0,53.36,5.11ZM49.7,10.54a12.09,12.09,0,0,1-.91,4.13,2.33,2.33,0,0,1-.17.26c-.24.38-.75.93-1,.87a1.65,1.65,0,0,1-1-1,12.28,12.28,0,0,1,.73-8.31,2.38,2.38,0,0,1,.72-.73,1.26,1.26,0,0,1,.51,0,2.24,2.24,0,0,1,.7.86c.15.52.27,1,.37,1.58A13.47,13.47,0,0,1,49.7,10.54Z"/><path class="cls-1" d="M70.56,16.38c.09,10.93.21,21.74-.06,32.65-1.91,0-3.76,0-5.6,0-.65,0-.86-.22-.85-.87,0-3.57,0-7.15,0-10.72,0-.13,0-.26,0-.51-1,.14-2,.25-2.93.4-1.61.24-1.57.25-1.58,1.86,0,2.78-.11,5.56-.16,8.35,0,.46.06.92.09,1.45H53.61c0-1.28,0-2.54,0-3.81,0-3.3.09-6.6.1-9.9,0-3-.05-5.94-.07-8.9,0-1.46,0-2.91,0-4.36a.78.78,0,0,1,.43-.57c1.74-.59,3.5-1.14,5.4-1.75a6.81,6.81,0,0,1,.17,1c0,2.76,0,5.53,0,8.29v1l4.47-.87V18.43Z"/><path class="cls-1" d="M79.54,45.33a3.77,3.77,0,0,1-3.6,3.85,3.51,3.51,0,0,1-3.61-3.59A3.89,3.89,0,0,1,76,41.67,3.6,3.6,0,0,1,79.54,45.33Z"/><path class="cls-1" d="M79.72,13.79v5.48c0,.55-.13,1.11-.15,1.66q-.36,9.13-.69,18.28c0,.53-.16.73-.72.72-1.32,0-2.65,0-4.08,0,0-1.55-.1-3.08-.15-4.6-.1-3.41-.21-6.82-.3-10.23-.07-3-.11-5.94-.22-8.9,0-.52.17-.67.61-.79C75.92,14.88,77.82,14.33,79.72,13.79Z"/><path class="cls-1" d="M79.72,13.79v5.48c0,.55-.13,1.11-.15,1.66q-.36,9.13-.69,18.28c0,.53-.16.73-.72.72-1.32,0-2.65,0-4.08,0,0-1.55-.1-3.08-.15-4.6-.1-3.41-.21-6.82-.3-10.23-.07-3-.11-5.94-.22-8.9,0-.52.17-.67.61-.79C75.92,14.88,77.82,14.33,79.72,13.79Z"/><path class="cls-1" d="M53.36,5.11A7.52,7.52,0,0,0,50,.52,2.42,2.42,0,0,0,48.46,0a2.56,2.56,0,0,0-.89.16h-.11A7,7,0,0,0,43.4,3.84c-2.35,4.88-2.63,9.81-.11,14.72a4.47,4.47,0,0,0,6.84,1.77A9.2,9.2,0,0,0,53,16.38,16.54,16.54,0,0,0,53.36,5.11ZM49.7,10.54a12.09,12.09,0,0,1-.91,4.13,2.33,2.33,0,0,1-.17.26c-.24.38-.75.93-1,.87a1.65,1.65,0,0,1-1-1,12.28,12.28,0,0,1,.73-8.31,2.38,2.38,0,0,1,.72-.73,1.26,1.26,0,0,1,.51,0,2.24,2.24,0,0,1,.7.86c.15.52.27,1,.37,1.58A13.47,13.47,0,0,1,49.7,10.54ZM50,10v0s0,0,0,0Z"/><path class="cls-1" d="M39.13,5.82c-.9-2.53-2.25-4.75-5-5.62a2.51,2.51,0,0,0-2,0,9.25,9.25,0,0,0-5.57,6,23.81,23.81,0,0,0-1.33,5.43,17.17,17.17,0,0,0,1.34,9.71A7.48,7.48,0,0,0,30,25.21a5,5,0,0,0,5.59-.85,12.87,12.87,0,0,0,3.58-5.65A19.84,19.84,0,0,0,39.13,5.82Zm-4.2,8.84a8.78,8.78,0,0,1-2,4.36c-.37.44-.84.53-1.17.25a5,5,0,0,1-.65-1.43,14.49,14.49,0,0,1-.48-4.26c.06-.84.15-1.69.21-2.53l.06-.33a.39.39,0,0,0,0-.15,12.16,12.16,0,0,1,1-3.21c.15-.22.29-.44.42-.67a.08.08,0,0,1,0,0,2.45,2.45,0,0,1,.52-.54c.32-.12.67.06,1,.52a6.77,6.77,0,0,1,1.14,3.51,15.92,15.92,0,0,1,.09,1.65C35.08,12.79,35.07,13.73,34.93,14.66Z"/><path class="cls-1" d="M70.5,49c-1.91,0-3.76,0-5.6,0-.65,0-.86-.22-.85-.87,0-3.57,0-7.15,0-10.72,0-.13,0-.26,0-.51-1,.14-2,.25-2.93.4-1.61.24-1.57.25-1.58,1.86,0,2.78-.11,5.56-.16,8.35,0,.46.06.92.09,1.45H53.61c0-1.28,0-2.54,0-3.81,0-3.3.09-6.6.1-9.9,0-3-.05-5.94-.07-8.9,0-1.46,0-2.91,0-4.36a.78.78,0,0,1,.43-.57c1.74-.59,3.5-1.14,5.4-1.75a6.81,6.81,0,0,1,.17,1c0,2.76,0,5.53,0,8.29v1l4.47-.87V18.43l6.44-2.05C70.65,27.31,70.77,38.12,70.5,49Z"/><path class="cls-1" d="M49.19,22.61c-2.74.85-5.3,1.63-7.85,2.45a.89.89,0,0,0-.45.56c-.18.59-.28,1.21-.43,1.81-.77,3-1.55,6.07-2.34,9.11-1,3.93-2,7.87-3.06,11.8,0,.19-.07.38-.11.62h5.42c.39-1.6.76-3.19,1.18-4.77.07-.28.33-.69.54-.71,1.18-.13,2.37-.17,3.6-.24.17,1.74.33,3.4.53,5,0,.26.32.68.49.69,1.85.05,3.7,0,5.66,0C51.18,40.2,50.49,31.43,49.19,22.61Zm-6,15.17a17.24,17.24,0,0,1,1.45-5.2c.17,1.61.33,3.23.5,4.9Z"/><path class="cls-1" d="M33.81,47.92v.91H27.69V41.14l-4,.53v3.46c0,1.1,0,2.19,0,3.28,0,.16-.28.45-.44.45-1.66,0-3.33,0-5.14,0V45c0-4,0-8.08-.05-12.13,0-.72.19-1.07.92-1.26,1.51-.4,3-.91,4.66-1.43V36c1.32-.2,2.52-.37,3.71-.59.12,0,.27-.36.27-.54,0-1.67,0-3.34,0-5,0-.5.13-.81.59-1,1.57-.49,3.13-1,4.7-1.44.57-.17.89,0,.88.67q0,7.05,0,14.1C33.76,44.12,33.79,46,33.81,47.92Z"/><path class="cls-1" d="M79.54,45.33a3.77,3.77,0,0,1-3.6,3.85,3.51,3.51,0,0,1-3.61-3.59A3.89,3.89,0,0,1,76,41.67,3.6,3.6,0,0,1,79.54,45.33Z"/><path class="cls-1" d="M24.71,1.22q-.57,5.32-1.22,10.63c-.39,3.28-.82,6.55-1.21,9.83-.22,1.86-.42,3.73-.57,5.6A1.73,1.73,0,0,1,20.3,29c-2.07.61-4.13,1.24-6.18,1.93-.61.2-.76.07-.85-.53-.48-3.27-1-6.54-1.51-9.81a.6.6,0,0,0-.23-.43l-.25.76C10.18,24.6,9.07,28.32,8,32.05A1.57,1.57,0,0,1,6.85,33.2c-2.16.68-4.31,1.39-6.6,2.13H.19A.2.2,0,0,1,0,35.13V.79H6.05V18.18l.15,0c.32-1,.67-2,1-3,1-3.45,1.93-6.91,2.9-10.37.33-1.18.65-2.36,1.06-3.51a1.2,1.2,0,0,1,.81-.64,17.18,17.18,0,0,1,2.29,0q1.35,7.86,2.69,15.73l.13,0c.33-3.09.65-6.18,1-9.27.2-1.94.4-3.88.67-5.81a1,1,0,0,1,.69-.61c1.65-.05,3.29,0,4.93,0A.69.69,0,0,1,24.71,1.22Z"/></g></g></svg>