<svg xmlns="http://www.w3.org/2000/svg" viewBox="0 0 96.6 33.72"><defs><style>.cls-1{fill:#191919;}</style></defs><g id="Layer_2" data-name="Layer 2"><g id="Layer_1-2" data-name="Layer 1"><g id="SEDA"><path class="cls-1" d="M.55,23.69,8,22.16a.69.69,0,0,1,.79.45c.83,2.38,3.05,3.53,5.58,3.53,2,0,3.32-.54,3.32-1.78s-1.24-2-6.19-2.67C3.18,20.55.65,16.88.65,12,.65,6,4.76,2.52,13.18,2.52s11.91,3.85,13,8.73a.69.69,0,0,1-.54.82l-7.52,1.57a.7.7,0,0,1-.8-.46c-.76-2.3-2.06-3.28-4.67-3.28-2.13,0-3,.79-3,1.93,0,1,.39,1.83,6.29,2.68,8.61,1.23,10.84,5.25,10.84,9.55,0,6-3.91,9.66-13.07,9.66C3.93,33.72.83,29.2,0,24.47A.68.68,0,0,1,.55,23.69Z"/><path class="cls-1" d="M72.39,11.63C71.37,3.49,66.67-1,56.9.2L45.41,1.63h0L24.79,4.21a1,1,0,0,0-.88,1.13l3.14,25.13a1,1,0,0,0,1.13.88L48.8,28.78h0l11.44-1.43C69,26.25,73.4,19.78,72.39,11.63ZM33.23,11,45.07,9.49l.82,2.65L33.22,13.72Zm.77,9,12.67-1.58-.1,2.9L34.74,22.72Zm24.63.74-3.35.42L53.58,7.5l3.17-.39c4.84-.61,7,.88,7.54,5.54S63.29,20.08,58.63,20.66Z"/><path class="cls-1" d="M86.29,24.56H77a.5.5,0,0,0-.48.35L75.38,28.4a.52.52,0,0,1-.49.35H67.57a.52.52,0,0,1-.49-.69L76.87,1.73a.51.51,0,0,1,.48-.33h9a.51.51,0,0,1,.48.33l9.74,26.33a.51.51,0,0,1-.48.69H88.4a.52.52,0,0,1-.49-.35l-1.13-3.49A.52.52,0,0,0,86.29,24.56ZM79.58,18h4.23a.52.52,0,0,0,.49-.67l-.92-2.79c-.55-1.69-1.1-3.38-1.6-5h-.09c-.55,1.64-1,3.33-1.64,5l-1,2.78A.51.51,0,0,0,79.58,18Z"/></g></g></g></svg>