<svg xmlns="http://www.w3.org/2000/svg" viewBox="0 0 974.15 210.77"><defs><style>.cls-1{fill:#e6e7d8;stroke:#231f20;stroke-linecap:round;stroke-linejoin:round;}.cls-2{fill:#191919;}</style></defs><g id="Layer_2" data-name="Layer 2"><g id="Layer_1-2" data-name="Layer 1"><path class="cls-1" d="M.5,210.27l973.15-5.59q-52-59.2-103.91-118.43L843.37.5l-730,3.71q-7,32.36-13.94,64.73Z"/><path class="cls-2" d="M181.32,54.46a5.37,5.37,0,0,0,3.56,1.29c1.63,0,2.46-.63,2.48-1.81,0-1-.53-1.55-1.63-1.74L184.07,52a4.14,4.14,0,0,1-2.47-1.24,3.51,3.51,0,0,1-.87-2.4,3.61,3.61,0,0,1,1.1-2.74,4.14,4.14,0,0,1,3-1,6.94,6.94,0,0,1,4.07,1.34l-1.06,1.61a5.6,5.6,0,0,0-3.11-1,2.34,2.34,0,0,0-1.47.45,1.74,1.74,0,0,0-.63,1.4,1.47,1.47,0,0,0,.43,1,2.38,2.38,0,0,0,1.35.64c.34.06.81.13,1.41.2a3.9,3.9,0,0,1,2.61,1.31,3.74,3.74,0,0,1,.83,2.42q-.09,3.72-4.4,3.77a7,7,0,0,1-4.79-1.77Z"/><path class="cls-2" d="M195.89,53.68a2.15,2.15,0,0,0,.62,1.69A2,2,0,0,0,198,56a2.66,2.66,0,0,0,2-.9l1.3,1.15a4.15,4.15,0,0,1-3.22,1.49,4.62,4.62,0,0,1-1.38-.21,3.51,3.51,0,0,1-.65-.31,3.14,3.14,0,0,1-.63-.42,3.65,3.65,0,0,1-.92-1.44,5.79,5.79,0,0,1-.39-2.31,6.76,6.76,0,0,1,.34-2.28,3.9,3.9,0,0,1,.86-1.45,3.22,3.22,0,0,1,1.2-.79,3.7,3.7,0,0,1,3.88.8,3.89,3.89,0,0,1,1.09,2.87v1.52Zm3.78-1.52a2.46,2.46,0,0,0-.56-1.64,2,2,0,0,0-2.66,0,2.52,2.52,0,0,0-.56,1.64Z"/><path class="cls-2" d="M211.43,56.78h0a1.49,1.49,0,0,1-.77.69,3.5,3.5,0,0,1-1.43.23,3.17,3.17,0,0,1-2.31-.82,2.6,2.6,0,0,1-.85-2,2.67,2.67,0,0,1,.74-1.93,2.9,2.9,0,0,1,2.17-.8h2.49v-1c0-.81-.6-1.21-1.84-1.18a3.05,3.05,0,0,0-1.06.14,1.25,1.25,0,0,0-.63.57l-1.41-1.11a3.43,3.43,0,0,1,3-1.35,4.7,4.7,0,0,1,2.7.66,2.72,2.72,0,0,1,1,2.38V57.6h-1.79Zm0-3.1h-2.16c-1.05,0-1.56.4-1.55,1.12a1,1,0,0,0,.4.8,1.88,1.88,0,0,0,1.29.36,3.14,3.14,0,0,0,1.59-.27c.28-.2.43-.64.43-1.34Z"/><path class="cls-2" d="M218.86,48.37h1.79v1h0a3,3,0,0,1,2.41-1.1,3.63,3.63,0,0,1,1.54.33,4.64,4.64,0,0,1,1.06.88,3.66,3.66,0,0,1,2.91-1.21,3.14,3.14,0,0,1,2.09.81,3.1,3.1,0,0,1,1,2.4V57.6h-1.79V52.1a2,2,0,0,0-.52-1.48A1.78,1.78,0,0,0,228,50.1a1.82,1.82,0,0,0-1.34.52,2,2,0,0,0-.53,1.48v5.5h-1.79V52.1a2,2,0,0,0-.52-1.48,2,2,0,0,0-2.67,0,1.93,1.93,0,0,0-.54,1.48v5.5h-1.79Z"/><path class="cls-2" d="M237.53,44.64h1.8V55.22c0,.42.22.63.67.63h.62V57.6h-.8a2.53,2.53,0,0,1-1.62-.51,2.06,2.06,0,0,1-.67-1.73Z"/><path class="cls-2" d="M246.67,53.68a2.15,2.15,0,0,0,.62,1.69,2,2,0,0,0,1.51.59,2.65,2.65,0,0,0,2-.9l1.3,1.15a4.14,4.14,0,0,1-3.22,1.49,4.62,4.62,0,0,1-1.38-.21,3.51,3.51,0,0,1-.65-.31,3.14,3.14,0,0,1-.63-.42,3.65,3.65,0,0,1-.92-1.44,5.79,5.79,0,0,1-.39-2.31,6.76,6.76,0,0,1,.34-2.28,3.9,3.9,0,0,1,.86-1.45,3.3,3.3,0,0,1,1.2-.79,3.7,3.7,0,0,1,3.88.8,3.89,3.89,0,0,1,1.09,2.87v1.52Zm3.78-1.52a2.46,2.46,0,0,0-.56-1.64,2,2,0,0,0-2.66,0,2.52,2.52,0,0,0-.56,1.64Z"/><path class="cls-2" d="M257.77,54.78A3.71,3.71,0,0,0,260.61,56a2.28,2.28,0,0,0,1.26-.31,1,1,0,0,0,.5-.87.76.76,0,0,0-.3-.69,1.55,1.55,0,0,0-.8-.23l-1.59-.14a3,3,0,0,1-1.83-.78,2.38,2.38,0,0,1-.74-1.84,2.5,2.5,0,0,1,1-2.13,3.75,3.75,0,0,1,2.36-.72,7.41,7.41,0,0,1,1.11.08,5.86,5.86,0,0,1,.92.25,5.18,5.18,0,0,1,1.48.94l-1.11,1.34a5.46,5.46,0,0,0-1.09-.64,3.58,3.58,0,0,0-1.32-.22,1.74,1.74,0,0,0-1.18.31,1,1,0,0,0-.35.8.63.63,0,0,0,.27.54,1.52,1.52,0,0,0,.91.33l1.48.12a2.71,2.71,0,0,1,2,.87,3,3,0,0,1,.58,1.89,2.42,2.42,0,0,1-1.06,2.08,4.46,4.46,0,0,1-2.64.76,5.61,5.61,0,0,1-3.94-1.65Z"/><path class="cls-2" d="M269.61,54.78A3.67,3.67,0,0,0,272.44,56a2.34,2.34,0,0,0,1.27-.31,1,1,0,0,0,.49-.87.76.76,0,0,0-.3-.69,1.52,1.52,0,0,0-.8-.23l-1.58-.14a3,3,0,0,1-1.84-.78,2.41,2.41,0,0,1-.74-1.84,2.5,2.5,0,0,1,1-2.13,3.75,3.75,0,0,1,2.36-.72,7.41,7.41,0,0,1,1.11.08,5.86,5.86,0,0,1,.92.25,5.37,5.37,0,0,1,1.49.94l-1.12,1.34a5.46,5.46,0,0,0-1.09-.64,3.56,3.56,0,0,0-1.31-.22,1.75,1.75,0,0,0-1.19.31,1,1,0,0,0-.35.8.63.63,0,0,0,.27.54,1.52,1.52,0,0,0,.91.33l1.49.12a2.71,2.71,0,0,1,2,.87,3,3,0,0,1,.58,1.89,2.42,2.42,0,0,1-1.06,2.08,4.46,4.46,0,0,1-2.64.76,5.61,5.61,0,0,1-3.94-1.65Z"/><path class="cls-2" d="M290.56,50.1h.62a1.89,1.89,0,0,0,1.43-.52,1.79,1.79,0,0,0,.51-1.33,1.94,1.94,0,0,0-.52-1.34,1.83,1.83,0,0,0-1.31-.53,1.68,1.68,0,0,0-1.06.38,2,2,0,0,0-.67,1.19h-1.8a3.79,3.79,0,0,1,1.13-2.42,3.19,3.19,0,0,1,2.32-1,3.52,3.52,0,0,1,2.72,1.13,3.81,3.81,0,0,1,1,2.56,3.92,3.92,0,0,1-.27,1.44,3,3,0,0,1-1.11,1.23,3.32,3.32,0,0,1,1.18,1.28,3.71,3.71,0,0,1,.35,1.57,3.87,3.87,0,0,1-1.1,2.87,3.67,3.67,0,0,1-2.71,1.09,3.38,3.38,0,0,1-2.28-.85,4.12,4.12,0,0,1-1.28-2.47h1.8a2.66,2.66,0,0,0,.68,1.06,1.72,1.72,0,0,0,1.19.41,1.78,1.78,0,0,0,1.34-.56,2,2,0,0,0,.56-1.49,2.16,2.16,0,0,0-.56-1.54,1.93,1.93,0,0,0-1.38-.52h-.77Z"/><path class="cls-2" d="M306.05,44.5s0,.07-.08.2-.15.3-.25.52-.23.47-.38.75l-.45.9c-.15.31-.31.63-.48,1s-.32.62-.47.91l-.41.8c-.12.23-.23.42-.31.56a1.36,1.36,0,0,1,.58-.18,6.07,6.07,0,0,1,.75,0,2.87,2.87,0,0,1,1.07.21,2.94,2.94,0,0,1,.79.49,3.06,3.06,0,0,1,.55.65,4.15,4.15,0,0,1,.34.71,3.39,3.39,0,0,1,.17.64,3.31,3.31,0,0,1,0,.46v.87c0,.11,0,.21,0,.3s0,.15-.05.32a6.37,6.37,0,0,1-.18.62,5.38,5.38,0,0,1-.37.78,3.72,3.72,0,0,1-.63.78,3.42,3.42,0,0,1-.95.63,3.77,3.77,0,0,1-1.34.33,3.87,3.87,0,0,1-1.43-.1,3.43,3.43,0,0,1-1.07-.51,3.23,3.23,0,0,1-.76-.76,4,4,0,0,1-.47-.88,4,4,0,0,1-.24-.88,3.49,3.49,0,0,1,0-.71c0-.29.08-.55.12-.77a6.38,6.38,0,0,1,.15-.66,4.76,4.76,0,0,1,.19-.61c.07-.2.15-.42.25-.66a4,4,0,0,1,.19-.42l.4-.82c.15-.33.33-.69.52-1.08s.4-.79.59-1.19L304,44.5ZM305.68,54q0-.35,0-.75a2,2,0,0,0-.2-.78,1.58,1.58,0,0,0-.56-.63,2.18,2.18,0,0,0-1.11-.32,1.34,1.34,0,0,0-.61.07,1.37,1.37,0,0,0-.49.27,1.66,1.66,0,0,0-.37.38,2.9,2.9,0,0,0-.26.43,2.25,2.25,0,0,0-.15.4,1.16,1.16,0,0,0,0,.28c0,.15,0,.31,0,.49a2.48,2.48,0,0,0,.06.54,2,2,0,0,0,.16.53,1.45,1.45,0,0,0,.33.45,1.7,1.7,0,0,0,.55.32,2.43,2.43,0,0,0,.83.12,1.83,1.83,0,0,0,.69-.1,1.58,1.58,0,0,0,.51-.29,1.52,1.52,0,0,0,.34-.38,2.06,2.06,0,0,0,.21-.42,1.59,1.59,0,0,0,.1-.37A1.52,1.52,0,0,0,305.68,54Z"/><path class="cls-2" d="M311.8,48.25a3.52,3.52,0,0,1,1.11-2.76,3.45,3.45,0,0,1,2.45-1,3.53,3.53,0,0,1,2.49,1,3.7,3.7,0,0,1,1.07,2.76V54a3.66,3.66,0,0,1-1.07,2.75,3.59,3.59,0,0,1-2.49,1A3.55,3.55,0,0,1,311.8,54Zm5.33.11c0-1.3-.63-2-1.77-2s-1.75.68-1.77,2v5.51q0,2,1.77,2c1.14,0,1.74-.67,1.77-2Z"/><path class="cls-2" d="M324,47.13a2.56,2.56,0,0,1,.74-1.85,2.44,2.44,0,0,1,1.78-.75,2.4,2.4,0,0,1,1.79.75,2.59,2.59,0,0,1,.72,1.85,2.65,2.65,0,0,1-.72,1.84,2.4,2.4,0,0,1-1.79.76,2.45,2.45,0,0,1-1.78-.76A2.63,2.63,0,0,1,324,47.13Zm.88,0a1.52,1.52,0,0,0,.51,1.17,1.42,1.42,0,0,0,1.13.51,1.52,1.52,0,0,0,1.17-.51,1.71,1.71,0,0,0,.46-1.17,1.79,1.79,0,0,0-.46-1.2,1.68,1.68,0,0,0-1.17-.48,1.69,1.69,0,0,0-1.64,1.68Z"/><path class="cls-2" d="M342,44.64h1.79v4.71a4.58,4.58,0,0,1,1.08-.8,2.49,2.49,0,0,1,1.23-.3,2.78,2.78,0,0,1,2.4,1.21,2.53,2.53,0,0,1,.5,1.15,14.39,14.39,0,0,1,.13,2.36,14.33,14.33,0,0,1-.13,2.35,2.51,2.51,0,0,1-.5,1.18,2.73,2.73,0,0,1-1,.86,3,3,0,0,1-1.42.34,3,3,0,0,1-2.31-1.07v1H342Zm3.56,5.46a1.63,1.63,0,0,0-1,.26A1.45,1.45,0,0,0,344,51a3.67,3.67,0,0,0-.22.91c0,.33-.05.67-.05,1s0,.66.05,1a3.7,3.7,0,0,0,.22.94,1.49,1.49,0,0,0,.54.68,1.56,1.56,0,0,0,1,.26,1.72,1.72,0,0,0,1-.25,1.36,1.36,0,0,0,.53-.66,3.6,3.6,0,0,0,.23-.94c0-.33,0-.68,0-1s0-.72,0-1.08a3.71,3.71,0,0,0-.23-.9,1.28,1.28,0,0,0-.53-.66A1.9,1.9,0,0,0,345.52,50.1Z"/><path class="cls-2" d="M354.5,48.37h1.79v1h0a2.86,2.86,0,0,1,2.33-1.1,2.9,2.9,0,0,1,1.87.71l-1.31,1.61A1.85,1.85,0,0,0,358,50.1a1.66,1.66,0,0,0-1.18.47,1.81,1.81,0,0,0-.57,1.46V57.6H354.5Z"/><path class="cls-2" d="M369,56.78h0a1.56,1.56,0,0,1-.78.69,3.47,3.47,0,0,1-1.43.23,3.16,3.16,0,0,1-2.3-.82,2.57,2.57,0,0,1-.85-2,2.63,2.63,0,0,1,.74-1.93,2.87,2.87,0,0,1,2.16-.8H369v-1c0-.81-.6-1.21-1.83-1.18a3.05,3.05,0,0,0-1.06.14,1.31,1.31,0,0,0-.64.57L364.1,49.6a3.45,3.45,0,0,1,3-1.35,4.69,4.69,0,0,1,2.69.66,2.75,2.75,0,0,1,1,2.38V57.6H369Zm0-3.1h-2.15c-1.05,0-1.57.4-1.56,1.12a1,1,0,0,0,.41.8A1.86,1.86,0,0,0,367,56a3.16,3.16,0,0,0,1.6-.27c.28-.2.42-.64.42-1.34Z"/><path class="cls-2" d="M376.54,48.37h1.8v1h0a2.85,2.85,0,0,1,2.32-1.1,3,3,0,0,1,2,.81,3.2,3.2,0,0,1,1,2.4V57.6h-1.79V52.1a2,2,0,0,0-.5-1.48,1.81,1.81,0,0,0-2.54,0,2,2,0,0,0-.51,1.48v5.5h-1.8Z"/><path class="cls-2" d="M394.76,56.63a3,3,0,0,1-2.32,1.07,2.93,2.93,0,0,1-1.38-.34,3.11,3.11,0,0,1-1-.86,2.32,2.32,0,0,1-.49-1.18,12.87,12.87,0,0,1-.15-2.35,12.9,12.9,0,0,1,.15-2.37,2.29,2.29,0,0,1,.49-1.14,2.94,2.94,0,0,1,3.67-.91,5.3,5.3,0,0,1,1,.79v-4.7h1.79v13h-1.79ZM393,50.1a1.74,1.74,0,0,0-1,.23,1.35,1.35,0,0,0-.54.66,3.3,3.3,0,0,0-.22.9c0,.36-.05.72-.05,1.08s0,.7.05,1a3.24,3.24,0,0,0,.22.94,1.44,1.44,0,0,0,.54.66,1.58,1.58,0,0,0,1,.25,1.68,1.68,0,0,0,1-.26,1.37,1.37,0,0,0,.51-.68,3.7,3.7,0,0,0,.23-.94c0-.34,0-.67,0-1s0-.69,0-1a3.68,3.68,0,0,0-.23-.91,1.33,1.33,0,0,0-.51-.68A1.75,1.75,0,0,0,393,50.1Z"/><path class="cls-2" d="M409.68,54.78A3.67,3.67,0,0,0,412.51,56a2.34,2.34,0,0,0,1.27-.31,1,1,0,0,0,.49-.87.76.76,0,0,0-.3-.69,1.52,1.52,0,0,0-.8-.23l-1.58-.14a3,3,0,0,1-1.84-.78A2.38,2.38,0,0,1,409,51.1,2.5,2.5,0,0,1,410,49a3.75,3.75,0,0,1,2.36-.72,7.41,7.41,0,0,1,1.11.08,5.86,5.86,0,0,1,.92.25,5.37,5.37,0,0,1,1.49.94l-1.12,1.34a5.46,5.46,0,0,0-1.09-.64,3.56,3.56,0,0,0-1.31-.22,1.75,1.75,0,0,0-1.19.31,1,1,0,0,0-.35.8.63.63,0,0,0,.27.54A1.52,1.52,0,0,0,412,52l1.49.12a2.71,2.71,0,0,1,2,.87,3,3,0,0,1,.58,1.89A2.42,2.42,0,0,1,415,56.94a4.46,4.46,0,0,1-2.64.76,5.61,5.61,0,0,1-3.94-1.65Z"/><path class="cls-2" d="M421.25,48.37H423v5.5a2,2,0,0,0,.51,1.46,1.81,1.81,0,0,0,2.54,0,2.05,2.05,0,0,0,.5-1.46v-5.5h1.79V57.6h-1.79v-1h0a2.82,2.82,0,0,1-2.31,1.09,3,3,0,0,1-2-.83,2.91,2.91,0,0,1-1-2.36Z"/><path class="cls-2" d="M434.12,48.37h1.79v1a3.06,3.06,0,0,1,2.31-1.08,2.78,2.78,0,0,1,2.4,1.21,2.53,2.53,0,0,1,.5,1.15,14.52,14.52,0,0,1,.13,2.38,14.42,14.42,0,0,1-.13,2.35,2.62,2.62,0,0,1-.5,1.16,2.81,2.81,0,0,1-1,.86,3,3,0,0,1-1.42.34,2.39,2.39,0,0,1-1.23-.31,4,4,0,0,1-1.08-.78v4.72h-1.79Zm3.56,7.48a1.72,1.72,0,0,0,1-.25,1.36,1.36,0,0,0,.53-.66,3.54,3.54,0,0,0,.23-.92c0-.34,0-.68,0-1s0-.73,0-1.08a3.35,3.35,0,0,0-.23-.92,1.28,1.28,0,0,0-.53-.66,1.9,1.9,0,0,0-1-.23,1.59,1.59,0,0,0-1,.26,1.45,1.45,0,0,0-.54.68A3.67,3.67,0,0,0,436,52c0,.34,0,.69,0,1s0,.66,0,1a3.7,3.7,0,0,0,.22.94,1.49,1.49,0,0,0,.54.68A1.52,1.52,0,0,0,437.68,55.85Z"/><path class="cls-2" d="M446.66,48.37h1.79v1a3.06,3.06,0,0,1,2.31-1.08,2.78,2.78,0,0,1,2.4,1.21,2.53,2.53,0,0,1,.5,1.15,14.52,14.52,0,0,1,.13,2.38,14.42,14.42,0,0,1-.13,2.35,2.62,2.62,0,0,1-.5,1.16,2.78,2.78,0,0,1-1,.86,3.05,3.05,0,0,1-1.43.34,2.39,2.39,0,0,1-1.23-.31,4,4,0,0,1-1.08-.78v4.72h-1.79Zm3.56,7.48a1.72,1.72,0,0,0,1-.25,1.36,1.36,0,0,0,.53-.66A3.18,3.18,0,0,0,452,54c0-.34,0-.68,0-1s0-.73,0-1.08a3,3,0,0,0-.23-.92,1.28,1.28,0,0,0-.53-.66,1.9,1.9,0,0,0-1-.23,1.63,1.63,0,0,0-1,.26,1.45,1.45,0,0,0-.54.68,3.67,3.67,0,0,0-.22.91c0,.34-.05.69-.05,1s0,.66.05,1a3.7,3.7,0,0,0,.22.94,1.49,1.49,0,0,0,.54.68A1.56,1.56,0,0,0,450.22,55.85Z"/><path class="cls-2" d="M458.76,53a8.11,8.11,0,0,1,.23-2.24,3.29,3.29,0,0,1,.74-1.29,3.36,3.36,0,0,1,1-.82,4.07,4.07,0,0,1,3.39,0,3.12,3.12,0,0,1,1,.83,2.92,2.92,0,0,1,.76,1.28,9.2,9.2,0,0,1,.21,2.24,8.94,8.94,0,0,1-.21,2.23,3.12,3.12,0,0,1-.76,1.32,3.22,3.22,0,0,1-.42.4,1.77,1.77,0,0,1-.58.38,3.4,3.4,0,0,1-1.71.4,3.36,3.36,0,0,1-1.68-.4,3.32,3.32,0,0,1-1-.78A3.56,3.56,0,0,1,459,55.2,7.94,7.94,0,0,1,458.76,53Zm5.57,0a8.16,8.16,0,0,0-.09-1.44,1.75,1.75,0,0,0-.35-.77,1.31,1.31,0,0,0-.59-.49,1.94,1.94,0,0,0-.86-.19,2,2,0,0,0-.85.19,1.6,1.6,0,0,0-.6.49,2.15,2.15,0,0,0-.34.77,7,7,0,0,0-.1,1.42,6.76,6.76,0,0,0,.1,1.41,2.36,2.36,0,0,0,.34.81,2.46,2.46,0,0,0,.6.47,1.86,1.86,0,0,0,.85.19,1.81,1.81,0,0,0,1.45-.66,1.91,1.91,0,0,0,.35-.81A7.66,7.66,0,0,0,464.33,53Z"/><path class="cls-2" d="M471.4,48.37h1.79v1h0a2.84,2.84,0,0,1,2.32-1.1,2.9,2.9,0,0,1,1.88.71l-1.31,1.61a1.85,1.85,0,0,0-1.18-.47,1.66,1.66,0,0,0-1.18.47,1.81,1.81,0,0,0-.57,1.46V57.6H471.4Z"/><path class="cls-2" d="M481.68,45.56h1.79v2.81h1.31v1.42h-1.31v5.38c0,.47.2.7.64.68h.67V57.6h-.93A2.11,2.11,0,0,1,482.3,57a2.17,2.17,0,0,1-.62-1.67V49.79h-.9V48.37h.9Z"/><path class="cls-2" d="M497.29,45.56h1.79v2.81h1.31v1.42h-1.31v5.38c0,.47.2.7.64.68h.67V57.6h-.93a2.11,2.11,0,0,1-1.55-.61,2.17,2.17,0,0,1-.62-1.67V49.79h-.9V48.37h.9Z"/><path class="cls-2" d="M505.33,44.64h1.8v4.71h0a2.85,2.85,0,0,1,2.32-1.1,3,3,0,0,1,2,.81,3.2,3.2,0,0,1,1,2.4V57.6h-1.79V52.1a2,2,0,0,0-.5-1.48,1.81,1.81,0,0,0-2.54,0,2,2,0,0,0-.51,1.48v5.5h-1.8Z"/><path class="cls-2" d="M522.9,56.78h0a1.49,1.49,0,0,1-.77.69,3.5,3.5,0,0,1-1.43.23,3.17,3.17,0,0,1-2.31-.82,2.6,2.6,0,0,1-.85-2,2.67,2.67,0,0,1,.74-1.93,2.91,2.91,0,0,1,2.17-.8h2.49v-1c0-.81-.6-1.21-1.84-1.18a3,3,0,0,0-1,.14,1.27,1.27,0,0,0-.64.57L518,49.6a3.45,3.45,0,0,1,3-1.35,4.69,4.69,0,0,1,2.69.66,2.72,2.72,0,0,1,1,2.38V57.6H522.9Zm0-3.1h-2.16c-1,0-1.56.4-1.55,1.12a1,1,0,0,0,.41.8,1.83,1.83,0,0,0,1.28.36,3.14,3.14,0,0,0,1.59-.27c.29-.2.43-.64.43-1.34Z"/><path class="cls-2" d="M530.51,45.56h1.79v2.81h1.31v1.42H532.3v5.38c0,.47.2.7.64.68h.67V57.6h-.94a2.09,2.09,0,0,1-1.54-.61,2.14,2.14,0,0,1-.62-1.67V49.79h-.9V48.37h.9Z"/><path class="cls-2" d="M551,56.63a3,3,0,0,1-2.3,1.07,2.81,2.81,0,0,1-1.45-.38,3.12,3.12,0,0,1-.92-.75,3,3,0,0,1-.51-1.11,12.09,12.09,0,0,1-.16-2.47,12.55,12.55,0,0,1,.16-2.52,2.82,2.82,0,0,1,1.43-1.87,3.13,3.13,0,0,1,1.45-.35,3,3,0,0,1,2.3,1.1v-1h1.8v9A3.75,3.75,0,0,1,549,61.44a4.07,4.07,0,0,1-3.1-1.55l1.4-1.14a3.22,3.22,0,0,0,.79.56,2.06,2.06,0,0,0,2.42-.25,2,2,0,0,0,.57-1.48ZM547.48,53a11,11,0,0,0,.07,1.46,1.39,1.39,0,0,0,.29.7,1.5,1.5,0,0,0,.55.45,1.45,1.45,0,0,0,.88.25,1.42,1.42,0,0,0,.87-.25,1.54,1.54,0,0,0,.54-.45,1.49,1.49,0,0,0,.3-.7c0-.26,0-.75,0-1.46s0-1.22,0-1.5a1.34,1.34,0,0,0-.3-.67,2,2,0,0,0-.54-.49,1.75,1.75,0,0,0-.87-.23,1.79,1.79,0,0,0-.88.23,1.93,1.93,0,0,0-.55.49,1.25,1.25,0,0,0-.29.67A11.85,11.85,0,0,0,547.48,53Z"/><path class="cls-2" d="M558.11,53a8.11,8.11,0,0,1,.23-2.24,3.29,3.29,0,0,1,.74-1.29,3.36,3.36,0,0,1,1-.82,3.87,3.87,0,0,1,1.68-.37,4,4,0,0,1,1.72.37,3.08,3.08,0,0,1,1,.83,2.92,2.92,0,0,1,.76,1.28,9.2,9.2,0,0,1,.21,2.24,8.94,8.94,0,0,1-.21,2.23,3.12,3.12,0,0,1-.76,1.32,2.31,2.31,0,0,1-.42.4,1.77,1.77,0,0,1-.58.38,3.79,3.79,0,0,1-3.39,0,3.44,3.44,0,0,1-1-.78,3.56,3.56,0,0,1-.74-1.32A7.94,7.94,0,0,1,558.11,53Zm5.57,0a8.16,8.16,0,0,0-.09-1.44,1.65,1.65,0,0,0-.35-.77,1.31,1.31,0,0,0-.59-.49,1.91,1.91,0,0,0-.86-.19,2,2,0,0,0-.85.19,1.69,1.69,0,0,0-.6.49,2.34,2.34,0,0,0-.34.77,7.83,7.83,0,0,0-.1,1.42,7.55,7.55,0,0,0,.1,1.41,2.57,2.57,0,0,0,.34.81,2.66,2.66,0,0,0,.6.47,1.89,1.89,0,0,0,.85.19,1.79,1.79,0,0,0,.86-.19,1.82,1.82,0,0,0,.59-.47,1.79,1.79,0,0,0,.35-.81A7.66,7.66,0,0,0,563.68,53Z"/><path class="cls-2" d="M572.1,53.68a2.15,2.15,0,0,0,.62,1.69,2,2,0,0,0,1.51.59,2.66,2.66,0,0,0,2-.9l1.3,1.15a4.15,4.15,0,0,1-3.22,1.49,4.62,4.62,0,0,1-1.38-.21,3.51,3.51,0,0,1-.65-.31,2.88,2.88,0,0,1-.63-.42,3.65,3.65,0,0,1-.92-1.44A5.79,5.79,0,0,1,570.3,53a6.52,6.52,0,0,1,.34-2.28,3.9,3.9,0,0,1,.86-1.45,3.18,3.18,0,0,1,1.19-.79,3.77,3.77,0,0,1,1.3-.24,3.7,3.7,0,0,1,2.59,1,3.89,3.89,0,0,1,1.09,2.87v1.52Zm3.78-1.52a2.42,2.42,0,0,0-.57-1.64A1.76,1.76,0,0,0,574,50a1.78,1.78,0,0,0-1.33.52,2.52,2.52,0,0,0-.56,1.64Z"/><path class="cls-2" d="M583.2,54.78A3.68,3.68,0,0,0,586,56a2.32,2.32,0,0,0,1.27-.31,1,1,0,0,0,.49-.87.76.76,0,0,0-.29-.69,1.55,1.55,0,0,0-.8-.23l-1.59-.14a3,3,0,0,1-1.83-.78,2.38,2.38,0,0,1-.75-1.84,2.51,2.51,0,0,1,1-2.13,3.73,3.73,0,0,1,2.36-.72,7.41,7.41,0,0,1,1.11.08,6.18,6.18,0,0,1,.92.25,5.18,5.18,0,0,1,1.48.94l-1.11,1.34a5.53,5.53,0,0,0-1.1-.64,3.53,3.53,0,0,0-1.31-.22,1.74,1.74,0,0,0-1.18.31,1,1,0,0,0-.35.8.62.62,0,0,0,.26.54,1.59,1.59,0,0,0,.92.33l1.48.12a2.73,2.73,0,0,1,2,.87,3,3,0,0,1,.58,1.89,2.44,2.44,0,0,1-1.06,2.08,4.46,4.46,0,0,1-2.64.76A5.61,5.61,0,0,1,582,56.05Z"/><path class="cls-2" d="M602.23,44.64H604v4.71a4.34,4.34,0,0,1,1.07-.8,2.49,2.49,0,0,1,1.23-.3,2.75,2.75,0,0,1,2.4,1.21,2.44,2.44,0,0,1,.51,1.15,15.64,15.64,0,0,1,.13,2.36,15.58,15.58,0,0,1-.13,2.35,2.42,2.42,0,0,1-.51,1.18,2.78,2.78,0,0,1-1,.86,3,3,0,0,1-1.43.34,3,3,0,0,1-2.3-1.07v1h-1.8Zm3.56,5.46a1.63,1.63,0,0,0-1,.26,1.58,1.58,0,0,0-.54.68,3.27,3.27,0,0,0-.21.91,10.23,10.23,0,0,0,0,2,3.33,3.33,0,0,0,.21.94,1.64,1.64,0,0,0,.54.68,1.56,1.56,0,0,0,1,.26,1.76,1.76,0,0,0,1-.25,1.4,1.4,0,0,0,.52-.66,3.24,3.24,0,0,0,.24-.94c0-.33,0-.68,0-1s0-.72,0-1.08a3.32,3.32,0,0,0-.24-.9,1.31,1.31,0,0,0-.52-.66A1.94,1.94,0,0,0,605.79,50.1Z"/><path class="cls-2" d="M616.12,53.68a2.19,2.19,0,0,0,.62,1.69,2,2,0,0,0,1.52.59,2.62,2.62,0,0,0,2-.9l1.3,1.15a4.13,4.13,0,0,1-3.21,1.49,4.62,4.62,0,0,1-1.38-.21,3.92,3.92,0,0,1-.66-.31,2.82,2.82,0,0,1-.62-.42,3.55,3.55,0,0,1-.92-1.44,5.79,5.79,0,0,1-.39-2.31,6.78,6.78,0,0,1,.33-2.28,4,4,0,0,1,.86-1.45,3.3,3.3,0,0,1,1.2-.79,3.76,3.76,0,0,1,1.29-.24,3.69,3.69,0,0,1,2.59,1,3.85,3.85,0,0,1,1.09,2.87v1.52Zm3.78-1.52a2.41,2.41,0,0,0-.56-1.64,2,2,0,0,0-2.66,0,2.57,2.57,0,0,0-.56,1.64Z"/><path class="cls-2" d="M625.68,48.37h1.9l2.12,6.46h0l2.11-6.46h1.91L629.9,59.51a2.61,2.61,0,0,1-1,1.44,3,3,0,0,1-1.5.38h-.59V59.59h.52a1.19,1.19,0,0,0,.66-.2,1.1,1.1,0,0,0,.42-.6l.49-1.55Z"/><path class="cls-2" d="M637.59,53a8.52,8.52,0,0,1,.23-2.24,3.7,3.7,0,0,1,1.78-2.11,3.78,3.78,0,0,1,1.67-.37,4,4,0,0,1,1.72.37,3.24,3.24,0,0,1,1,.83,3,3,0,0,1,.75,1.28A8.64,8.64,0,0,1,645,53a8.85,8.85,0,0,1-.22,2.23,3.12,3.12,0,0,1-.76,1.32,2.31,2.31,0,0,1-.42.4,1.83,1.83,0,0,1-.57.38,3.44,3.44,0,0,1-1.72.4,3.3,3.3,0,0,1-1.67-.4,3.37,3.37,0,0,1-1-.78,3.56,3.56,0,0,1-.74-1.32A8.33,8.33,0,0,1,637.59,53Zm5.57,0a9.59,9.59,0,0,0-.08-1.44,1.77,1.77,0,0,0-.36-.77,1.34,1.34,0,0,0-.58-.49,2,2,0,0,0-1.71,0,1.64,1.64,0,0,0-.61.49,2.33,2.33,0,0,0-.33.77,6.84,6.84,0,0,0-.11,1.42,6.6,6.6,0,0,0,.11,1.41,2.55,2.55,0,0,0,.33.81,2.52,2.52,0,0,0,.61.47,2,2,0,0,0,1.71,0,1.89,1.89,0,0,0,.58-.47,1.92,1.92,0,0,0,.36-.81A9,9,0,0,0,643.16,53Z"/><path class="cls-2" d="M650.23,48.37H652v1h0a2.84,2.84,0,0,1,2.32-1.1,3,3,0,0,1,2,.81,3.2,3.2,0,0,1,1,2.4V57.6h-1.8V52.1a2,2,0,0,0-.5-1.48,1.65,1.65,0,0,0-1.26-.52,1.68,1.68,0,0,0-1.28.52A2,2,0,0,0,652,52.1v5.5h-1.79Z"/><path class="cls-2" d="M668.44,56.63a3,3,0,0,1-3.7.73,3.07,3.07,0,0,1-1-.86,2.32,2.32,0,0,1-.49-1.18A12.87,12.87,0,0,1,663.1,53a12.9,12.9,0,0,1,.15-2.37,2.29,2.29,0,0,1,.49-1.14,2.92,2.92,0,0,1,3.66-.91,5,5,0,0,1,1,.79v-4.7h1.8v13h-1.8Zm-1.76-6.53a1.77,1.77,0,0,0-1,.23,1.47,1.47,0,0,0-.54.66,3.29,3.29,0,0,0-.21.9,9.77,9.77,0,0,0-.06,1.08,8.64,8.64,0,0,0,.06,1,3.25,3.25,0,0,0,.21.94,1.58,1.58,0,0,0,.54.66,1.61,1.61,0,0,0,1,.25,1.65,1.65,0,0,0,1-.26,1.32,1.32,0,0,0,.51-.68,3.32,3.32,0,0,0,.24-.94c0-.34,0-.67,0-1s0-.69,0-1a3.29,3.29,0,0,0-.24-.91,1.28,1.28,0,0,0-.51-.68A1.72,1.72,0,0,0,666.68,50.1Z"/><path class="cls-2" d="M683.1,48.37h1.79v1a3.06,3.06,0,0,1,2.31-1.08,2.75,2.75,0,0,1,2.4,1.21,2.44,2.44,0,0,1,.51,1.15,15.77,15.77,0,0,1,.13,2.38,15.68,15.68,0,0,1-.13,2.35,2.52,2.52,0,0,1-.51,1.16,2.78,2.78,0,0,1-1,.86,3,3,0,0,1-1.43.34,2.39,2.39,0,0,1-1.23-.31,4,4,0,0,1-1.08-.78v4.72H683.1Zm3.56,7.48a1.78,1.78,0,0,0,1-.25,1.4,1.4,0,0,0,.52-.66,3.18,3.18,0,0,0,.24-.92c0-.34,0-.68,0-1s0-.73,0-1.08a3,3,0,0,0-.24-.92,1.31,1.31,0,0,0-.52-.66,2,2,0,0,0-1-.23,1.63,1.63,0,0,0-1,.26,1.58,1.58,0,0,0-.54.68A3.27,3.27,0,0,0,685,52a8.94,8.94,0,0,0-.06,1,7.93,7.93,0,0,0,.06,1,3.33,3.33,0,0,0,.21.94,1.64,1.64,0,0,0,.54.68A1.56,1.56,0,0,0,686.66,55.85Z"/><path class="cls-2" d="M695.64,48.37h1.8v1h0a2.87,2.87,0,0,1,2.33-1.1,2.92,2.92,0,0,1,1.88.71l-1.31,1.61a1.87,1.87,0,0,0-1.18-.47,1.65,1.65,0,0,0-1.18.47,1.81,1.81,0,0,0-.57,1.46V57.6h-1.8Z"/><path class="cls-2" d="M705.87,44.64h1.8v1.85h-1.8Zm0,3.73h1.8V57.6h-1.8Z"/><path class="cls-2" d="M713.28,48.37h1.79v1h0a2.84,2.84,0,0,1,2.32-1.1,3,3,0,0,1,2,.81,3.15,3.15,0,0,1,.95,2.4V57.6h-1.79V52.1a2,2,0,0,0-.5-1.48,1.81,1.81,0,0,0-2.54,0,2,2,0,0,0-.51,1.48v5.5h-1.79Z"/><path class="cls-2" d="M726.26,45.56h1.79v2.81h1.31v1.42h-1.31v5.38c0,.47.2.7.64.68h.67V57.6h-.94a2.13,2.13,0,0,1-1.55-.61,2.17,2.17,0,0,1-.61-1.67V49.79h-.9V48.37h.9Z"/><path class="cls-2" d="M734.35,44.64h1.8v1.85h-1.8Zm0,3.73h1.8V57.6h-1.8Z"/><path class="cls-2" d="M741.76,48.37h1.79v1h0a2.84,2.84,0,0,1,2.32-1.1,3,3,0,0,1,2,.81,3.15,3.15,0,0,1,.95,2.4V57.6H747.1V52.1a2,2,0,0,0-.5-1.48,1.81,1.81,0,0,0-2.54,0,2,2,0,0,0-.51,1.48v5.5h-1.79Z"/><path class="cls-2" d="M759.65,56.63a3,3,0,0,1-2.3,1.07,2.78,2.78,0,0,1-1.45-.38,3.12,3.12,0,0,1-.92-.75,2.84,2.84,0,0,1-.51-1.11,12.09,12.09,0,0,1-.16-2.47,12.55,12.55,0,0,1,.16-2.52,2.75,2.75,0,0,1,.51-1.09,2.89,2.89,0,0,1,.92-.78,3.1,3.1,0,0,1,1.45-.35,3,3,0,0,1,2.3,1.1v-1h1.79v9a3.73,3.73,0,0,1-3.87,4.07,4.07,4.07,0,0,1-3.1-1.55l1.4-1.14a3.22,3.22,0,0,0,.79.56,2.06,2.06,0,0,0,2.42-.25,2,2,0,0,0,.57-1.48ZM756.1,53a11,11,0,0,0,.07,1.46,1.39,1.39,0,0,0,.29.7,1.5,1.5,0,0,0,.55.45,1.45,1.45,0,0,0,.88.25,1.42,1.42,0,0,0,.87-.25,1.54,1.54,0,0,0,.54-.45,1.49,1.49,0,0,0,.3-.7c0-.26,0-.75,0-1.46s0-1.22,0-1.5a1.34,1.34,0,0,0-.3-.67,2,2,0,0,0-.54-.49,1.75,1.75,0,0,0-.87-.23,1.79,1.79,0,0,0-.88.23,1.93,1.93,0,0,0-.55.49,1.25,1.25,0,0,0-.29.67A11.85,11.85,0,0,0,756.1,53Z"/><path class="cls-2" d="M767.22,55.75H769V57.6h-1.8Z"/><path class="cls-2" d="M146.3,88.32h8v1.85H148.2v3.71h5.23v1.74H148.2v3.81h6.12v1.85h-8Z"/><path class="cls-2" d="M159.36,92.05h1.8v1h0a2.83,2.83,0,0,1,2.32-1.09,3,3,0,0,1,2,.81,3.16,3.16,0,0,1,1,2.4v6.13h-1.8v-5.5a2,2,0,0,0-.5-1.48,1.67,1.67,0,0,0-1.26-.51,1.73,1.73,0,0,0-1.28.51,2,2,0,0,0-.5,1.48v5.5h-1.8Z"/><path class="cls-2" d="M172.23,88.32H174V93h0a2.84,2.84,0,0,1,2.32-1.09,3,3,0,0,1,2,.81,3.16,3.16,0,0,1,1,2.4v6.13h-1.8v-5.5a2,2,0,0,0-.5-1.48,1.65,1.65,0,0,0-1.26-.51,1.73,1.73,0,0,0-1.28.51,2,2,0,0,0-.5,1.48v5.5h-1.8Z"/><path class="cls-2" d="M189.8,100.46h0a1.47,1.47,0,0,1-.77.7,3.68,3.68,0,0,1-1.43.23,3.26,3.26,0,0,1-2.31-.82,2.62,2.62,0,0,1-.85-2,2.67,2.67,0,0,1,.74-1.93,2.9,2.9,0,0,1,2.17-.8h2.49v-1c0-.82-.6-1.21-1.84-1.19a3.31,3.31,0,0,0-1.06.14,1.34,1.34,0,0,0-.63.57l-1.41-1.11a3.43,3.43,0,0,1,3-1.34,4.7,4.7,0,0,1,2.7.66,2.71,2.71,0,0,1,1,2.38v6.3H189.8Zm0-3.09h-2.16c-1,0-1.56.39-1.55,1.11a1,1,0,0,0,.4.8,1.87,1.87,0,0,0,1.29.37,3,3,0,0,0,1.59-.28c.29-.2.43-.64.43-1.33Z"/><path class="cls-2" d="M197.3,92.05h1.79v1h0a2.83,2.83,0,0,1,2.32-1.09,3,3,0,0,1,2,.81,3.16,3.16,0,0,1,1,2.4v6.13h-1.79v-5.5a2,2,0,0,0-.5-1.48,1.84,1.84,0,0,0-2.54,0,2,2,0,0,0-.51,1.48v5.5H197.3Z"/><path class="cls-2" d="M216.75,99.8a4.82,4.82,0,0,1-1.38,1.12,3.89,3.89,0,0,1-1.84.47,3.93,3.93,0,0,1-2.77-1.11,4.68,4.68,0,0,1-1.27-3.6A4.81,4.81,0,0,1,210.76,93a3.9,3.9,0,0,1,2.78-1.09,4,4,0,0,1,1.83.44,4.64,4.64,0,0,1,1.38,1.16l-1.33,1.22a2.23,2.23,0,0,0-1.82-1c-1.52,0-2.3.94-2.32,2.89s.8,2.89,2.32,2.86a2.17,2.17,0,0,0,1.82-1Z"/><path class="cls-2" d="M222.69,97.37a2.22,2.22,0,0,0,.62,1.69,2,2,0,0,0,1.52.59,2.62,2.62,0,0,0,1.95-.9l1.3,1.14a4.14,4.14,0,0,1-3.21,1.5,4.29,4.29,0,0,1-1.38-.22,3,3,0,0,1-.66-.31,2.82,2.82,0,0,1-.62-.42,3.67,3.67,0,0,1-.93-1.44,6,6,0,0,1-.38-2.31,6.68,6.68,0,0,1,.33-2.27,4.09,4.09,0,0,1,.86-1.46,3.27,3.27,0,0,1,1.2-.78,3.76,3.76,0,0,1,1.29-.24,3.64,3.64,0,0,1,2.59,1,3.83,3.83,0,0,1,1.09,2.86v1.53Zm3.78-1.53a2.38,2.38,0,0,0-.56-1.63,1.93,1.93,0,0,0-2.66,0,2.54,2.54,0,0,0-.56,1.63Z"/><path class="cls-2" d="M239.71,92.05h1.9l2.11,6.47h0l2.11-6.47h1.91l-3.85,11.14a2.71,2.71,0,0,1-1,1.44,2.89,2.89,0,0,1-1.5.38h-.59v-1.74h.52a1.21,1.21,0,0,0,.66-.19,1.09,1.09,0,0,0,.42-.61l.49-1.55Z"/><path class="cls-2" d="M251.62,96.66a8.52,8.52,0,0,1,.23-2.24,3.26,3.26,0,0,1,.74-1.3,3.51,3.51,0,0,1,1-.82,3.73,3.73,0,0,1,1.68-.36,3.82,3.82,0,0,1,1.72.36,3.21,3.21,0,0,1,1,.83,2.9,2.9,0,0,1,.76,1.29,9.14,9.14,0,0,1,.21,2.24,8.91,8.91,0,0,1-.21,2.22,3.22,3.22,0,0,1-.76,1.33,2.68,2.68,0,0,1-.42.39,2,2,0,0,1-.58.39,3.79,3.79,0,0,1-3.39,0,3.44,3.44,0,0,1-1-.78,3.69,3.69,0,0,1-.74-1.33A8.3,8.3,0,0,1,251.62,96.66Zm5.57,0a8.37,8.37,0,0,0-.09-1.45,1.65,1.65,0,0,0-.35-.77,1.38,1.38,0,0,0-.59-.49,1.91,1.91,0,0,0-.86-.18,2,2,0,0,0-.84.18,1.74,1.74,0,0,0-.61.49,2.22,2.22,0,0,0-.33.77,7,7,0,0,0-.11,1.43,6.73,6.73,0,0,0,.11,1.41,2.29,2.29,0,0,0,.33.8,2.11,2.11,0,0,0,.61.47,1.83,1.83,0,0,0,.84.2,1.79,1.79,0,0,0,.86-.2,1.59,1.59,0,0,0,.59-.47,1.75,1.75,0,0,0,.35-.8A7.74,7.74,0,0,0,257.19,96.68Z"/><path class="cls-2" d="M264.26,92.05h1.79v5.5a2,2,0,0,0,.51,1.46,1.79,1.79,0,0,0,2.54,0,2,2,0,0,0,.5-1.46v-5.5h1.79v9.23H269.6v-1h0a2.83,2.83,0,0,1-2.31,1.1,3,3,0,0,1-2-.84,2.91,2.91,0,0,1-1-2.36Z"/><path class="cls-2" d="M277.13,92.05h1.79v1h0a2.94,2.94,0,0,1,4.2-.38l-1.31,1.6a1.84,1.84,0,0,0-1.18-.46,1.65,1.65,0,0,0-1.18.46,1.82,1.82,0,0,0-.57,1.47v5.56h-1.79Z"/><path class="cls-2" d="M294.76,88.32h1.8V93a4.6,4.6,0,0,1,1.07-.8,2.6,2.6,0,0,1,1.23-.29,2.73,2.73,0,0,1,2.4,1.21,2.4,2.4,0,0,1,.51,1.14,14.46,14.46,0,0,1,.13,2.37,14.19,14.19,0,0,1-.13,2.34,2.46,2.46,0,0,1-.51,1.19,2.67,2.67,0,0,1-1,.85,3.14,3.14,0,0,1-1.43.35,3,3,0,0,1-2.3-1.07v1h-1.8Zm3.56,5.47a1.53,1.53,0,0,0-1.5.93,3.78,3.78,0,0,0-.21.91c0,.33-.05.67-.05,1s0,.66.05,1a3.73,3.73,0,0,0,.21.93,1.53,1.53,0,0,0,.55.68,1.51,1.51,0,0,0,.95.27,1.76,1.76,0,0,0,1-.25,1.42,1.42,0,0,0,.53-.66,3.67,3.67,0,0,0,.23-.95c0-.33,0-.67,0-1s0-.73,0-1.08a3.68,3.68,0,0,0-.23-.91,1.33,1.33,0,0,0-.53-.66A1.94,1.94,0,0,0,298.32,93.79Z"/><path class="cls-2" d="M307.31,92.05h1.79v1h0a2.94,2.94,0,0,1,4.2-.38L312,94.25a1.84,1.84,0,0,0-1.18-.46,1.65,1.65,0,0,0-1.18.46,1.82,1.82,0,0,0-.57,1.47v5.56h-1.79Z"/><path class="cls-2" d="M321.85,100.46h0a1.47,1.47,0,0,1-.77.7,3.68,3.68,0,0,1-1.43.23,3.26,3.26,0,0,1-2.31-.82,2.62,2.62,0,0,1-.85-2,2.67,2.67,0,0,1,.74-1.93,2.91,2.91,0,0,1,2.17-.8h2.49v-1c0-.82-.6-1.21-1.84-1.19a3.24,3.24,0,0,0-1.05.14,1.36,1.36,0,0,0-.64.57l-1.41-1.11a3.44,3.44,0,0,1,3-1.34,4.69,4.69,0,0,1,2.69.66,2.71,2.71,0,0,1,1,2.38v6.3h-1.79Zm0-3.09h-2.16c-1,0-1.56.39-1.55,1.11a1,1,0,0,0,.41.8,1.83,1.83,0,0,0,1.28.37,3.09,3.09,0,0,0,1.6-.28c.28-.2.42-.64.42-1.33Z"/><path class="cls-2" d="M329.35,92.05h1.79v1h0a2.83,2.83,0,0,1,2.32-1.09,3,3,0,0,1,2,.81,3.16,3.16,0,0,1,1,2.4v6.13h-1.8v-5.5a2,2,0,0,0-.5-1.48,1.68,1.68,0,0,0-1.26-.51,1.71,1.71,0,0,0-1.28.51,2,2,0,0,0-.51,1.48v5.5h-1.79Z"/><path class="cls-2" d="M347.56,100.32a3,3,0,0,1-4.7-.13,2.36,2.36,0,0,1-.49-1.19,12.67,12.67,0,0,1-.15-2.34,12.9,12.9,0,0,1,.15-2.37,2.29,2.29,0,0,1,.49-1.15,2.74,2.74,0,0,1,2.39-1.2,2.85,2.85,0,0,1,1.27.29,5.08,5.08,0,0,1,1,.8V88.32h1.8v13h-1.8Zm-1.76-6.53a1.78,1.78,0,0,0-1,.22,1.47,1.47,0,0,0-.54.66,3.27,3.27,0,0,0-.21.91,9.51,9.51,0,0,0-.06,1.08,8.47,8.47,0,0,0,.06,1,3.32,3.32,0,0,0,.21.95,1.58,1.58,0,0,0,.54.66,1.61,1.61,0,0,0,1,.25,1.65,1.65,0,0,0,1-.27,1.28,1.28,0,0,0,.51-.68,3.34,3.34,0,0,0,.24-.93c0-.34,0-.67,0-1s0-.7,0-1a3.39,3.39,0,0,0-.24-.91,1.25,1.25,0,0,0-.51-.67A1.65,1.65,0,0,0,345.8,93.79Z"/><path class="cls-2" d="M362.22,92.05H364v1a3.09,3.09,0,0,1,2.31-1.07,2.73,2.73,0,0,1,2.4,1.21,2.4,2.4,0,0,1,.51,1.14,15.93,15.93,0,0,1,.13,2.39,15.43,15.43,0,0,1-.13,2.34,2.56,2.56,0,0,1-.51,1.17,2.75,2.75,0,0,1-1,.85,3.14,3.14,0,0,1-1.43.35,2.5,2.5,0,0,1-1.23-.31,4,4,0,0,1-1.08-.78V105h-1.79Zm3.56,7.49a1.78,1.78,0,0,0,1-.25,1.4,1.4,0,0,0,.52-.66,3.34,3.34,0,0,0,.24-.93c0-.33,0-.67,0-1s0-.73,0-1.08a3.17,3.17,0,0,0-.24-.93,1.31,1.31,0,0,0-.52-.66,2,2,0,0,0-1-.22,1.5,1.5,0,0,0-1.5.93,3.36,3.36,0,0,0-.21.91,9.24,9.24,0,0,0-.06,1.05,8.18,8.18,0,0,0,.06,1,3.33,3.33,0,0,0,.21.93,1.58,1.58,0,0,0,.54.68A1.56,1.56,0,0,0,365.78,99.54Z"/><path class="cls-2" d="M374.76,92.05h1.8v1h0a3,3,0,0,1,4.21-.38l-1.31,1.6a1.86,1.86,0,0,0-1.18-.46,1.64,1.64,0,0,0-1.18.46,1.82,1.82,0,0,0-.57,1.47v5.56h-1.8Z"/><path class="cls-2" d="M386,97.37a2.22,2.22,0,0,0,.62,1.69,2,2,0,0,0,1.52.59,2.62,2.62,0,0,0,1.95-.9l1.3,1.14a4.15,4.15,0,0,1-3.22,1.5,4.23,4.23,0,0,1-1.37-.22,3,3,0,0,1-.66-.31,2.82,2.82,0,0,1-.62-.42,3.67,3.67,0,0,1-.93-1.44,6,6,0,0,1-.38-2.31,6.68,6.68,0,0,1,.33-2.27,4.09,4.09,0,0,1,.86-1.46,3.27,3.27,0,0,1,1.2-.78,3.76,3.76,0,0,1,1.29-.24,3.66,3.66,0,0,1,2.59,1,3.83,3.83,0,0,1,1.09,2.86v1.53Zm3.78-1.53a2.38,2.38,0,0,0-.56-1.63,1.93,1.93,0,0,0-2.66,0,2.54,2.54,0,0,0-.56,1.63Z"/><path class="cls-2" d="M397.07,98.46a3.68,3.68,0,0,0,2.83,1.19,2.32,2.32,0,0,0,1.27-.32,1,1,0,0,0,.49-.87.78.78,0,0,0-.29-.69,1.49,1.49,0,0,0-.81-.22L399,97.41a3,3,0,0,1-1.84-.79,2.4,2.4,0,0,1-.74-1.84,2.52,2.52,0,0,1,1-2.13,3.81,3.81,0,0,1,2.36-.71,7.22,7.22,0,0,1,1.11.08,4.56,4.56,0,0,1,2.41,1.18l-1.12,1.34A5.46,5.46,0,0,0,401,93.9a3.78,3.78,0,0,0-1.31-.22,1.7,1.7,0,0,0-1.18.31,1,1,0,0,0-.36.8.66.66,0,0,0,.27.55,1.55,1.55,0,0,0,.91.33l1.49.11a2.75,2.75,0,0,1,2,.87,3,3,0,0,1,.57,1.9,2.4,2.4,0,0,1-1.06,2.07,4.53,4.53,0,0,1-2.64.77,5.57,5.57,0,0,1-3.94-1.66Z"/><path class="cls-2" d="M410,97.37a2.18,2.18,0,0,0,.62,1.69,2,2,0,0,0,1.51.59,2.66,2.66,0,0,0,2-.9l1.3,1.14a4.16,4.16,0,0,1-3.22,1.5,4.33,4.33,0,0,1-1.38-.22,3,3,0,0,1-.65-.31,3.14,3.14,0,0,1-.63-.42,3.65,3.65,0,0,1-.92-1.44,5.79,5.79,0,0,1-.39-2.31,6.66,6.66,0,0,1,.34-2.27,4,4,0,0,1,.86-1.46,3.19,3.19,0,0,1,1.2-.78,3.7,3.7,0,0,1,3.88.8,3.87,3.87,0,0,1,1.09,2.86v1.53Zm3.78-1.53a2.43,2.43,0,0,0-.56-1.63,1.93,1.93,0,0,0-2.66,0,2.49,2.49,0,0,0-.56,1.63Z"/><path class="cls-2" d="M420.83,92.05h1.8v1h0A2.84,2.84,0,0,1,425,91.94a3,3,0,0,1,2,.81,3.16,3.16,0,0,1,1,2.4v6.13h-1.8v-5.5a2,2,0,0,0-.49-1.48,1.84,1.84,0,0,0-2.54,0,2,2,0,0,0-.51,1.48v5.5h-1.8Z"/><path class="cls-2" d="M440.28,99.8a4.82,4.82,0,0,1-1.38,1.12,3.88,3.88,0,0,1-1.83.47,4,4,0,0,1-2.78-1.11,4.72,4.72,0,0,1-1.27-3.6A4.84,4.84,0,0,1,434.29,93a4.07,4.07,0,0,1,4.61-.65,4.64,4.64,0,0,1,1.38,1.16L439,94.76a2.21,2.21,0,0,0-1.81-1c-1.53,0-2.3.94-2.33,2.89s.8,2.89,2.33,2.86a2.15,2.15,0,0,0,1.81-1Z"/><path class="cls-2" d="M446.23,97.37a2.18,2.18,0,0,0,.62,1.69,2,2,0,0,0,1.51.59,2.66,2.66,0,0,0,2-.9l1.3,1.14a4.16,4.16,0,0,1-3.22,1.5,4.33,4.33,0,0,1-1.38-.22,3,3,0,0,1-.65-.31,2.88,2.88,0,0,1-.63-.42,3.55,3.55,0,0,1-.92-1.44,5.79,5.79,0,0,1-.39-2.31,6.42,6.42,0,0,1,.34-2.27,4,4,0,0,1,.86-1.46,3.16,3.16,0,0,1,1.19-.78,3.77,3.77,0,0,1,1.3-.24,3.66,3.66,0,0,1,2.59,1,3.87,3.87,0,0,1,1.09,2.86v1.53ZM450,95.84a2.39,2.39,0,0,0-.57-1.63,1.76,1.76,0,0,0-1.32-.53,1.79,1.79,0,0,0-1.33.53,2.49,2.49,0,0,0-.56,1.63Z"/><path class="cls-2" d="M469.22,100.46h0a1.53,1.53,0,0,1-.78.7,3.62,3.62,0,0,1-1.42.23,3.26,3.26,0,0,1-2.31-.82,2.59,2.59,0,0,1-.85-2,2.67,2.67,0,0,1,.74-1.93,2.88,2.88,0,0,1,2.17-.8h2.48v-1c0-.82-.6-1.21-1.83-1.19a3.31,3.31,0,0,0-1.06.14,1.41,1.41,0,0,0-.64.57l-1.41-1.11a3.44,3.44,0,0,1,3-1.34,4.66,4.66,0,0,1,2.69.66A2.71,2.71,0,0,1,471,95v6.3h-1.8Zm0-3.09h-2.15c-1.05,0-1.57.39-1.55,1.11a1,1,0,0,0,.4.8,1.87,1.87,0,0,0,1.29.37,3,3,0,0,0,1.59-.28c.28-.2.42-.64.42-1.33Z"/><path class="cls-2" d="M476.73,92.05h1.79v1h0a2.85,2.85,0,0,1,2.33-1.09,3,3,0,0,1,2,.81,3.2,3.2,0,0,1,.95,2.4v6.13h-1.79v-5.5a2,2,0,0,0-.5-1.48,1.84,1.84,0,0,0-2.54,0,2,2,0,0,0-.51,1.48v5.5h-1.79Z"/><path class="cls-2" d="M494.94,100.32a3,3,0,0,1-2.32,1.07,3,3,0,0,1-1.38-.35,3.08,3.08,0,0,1-1-.85,2.45,2.45,0,0,1-.49-1.19,13.91,13.91,0,0,1-.14-2.34,14.16,14.16,0,0,1,.14-2.37,2.38,2.38,0,0,1,.49-1.15,2.75,2.75,0,0,1,2.39-1.2,2.9,2.9,0,0,1,1.28.29,5.08,5.08,0,0,1,1,.8V88.32h1.79v13h-1.79Zm-1.77-6.53a1.74,1.74,0,0,0-1,.22,1.35,1.35,0,0,0-.54.66,3.67,3.67,0,0,0-.22.91c0,.35-.05.71-.05,1.08s0,.69.05,1a3.68,3.68,0,0,0,.22.95,1.44,1.44,0,0,0,.54.66,1.58,1.58,0,0,0,1,.25,1.68,1.68,0,0,0,1-.27,1.28,1.28,0,0,0,.51-.68,3.73,3.73,0,0,0,.23-.93c0-.34,0-.67,0-1s0-.7,0-1a3.79,3.79,0,0,0-.23-.91,1.25,1.25,0,0,0-.51-.67A1.68,1.68,0,0,0,493.17,93.79Z"/><path class="cls-2" d="M509.65,88.32h1.79v1.85h-1.79Zm0,3.73h1.79v9.23h-1.79Z"/><path class="cls-2" d="M522.4,100.32a3,3,0,0,1-2.32,1.07,2.93,2.93,0,0,1-1.38-.35,3.08,3.08,0,0,1-1-.85A2.36,2.36,0,0,1,517.2,99a12.67,12.67,0,0,1-.15-2.34,12.9,12.9,0,0,1,.15-2.37,2.29,2.29,0,0,1,.49-1.15,2.75,2.75,0,0,1,2.39-1.2,2.9,2.9,0,0,1,1.28.29,5.36,5.36,0,0,1,1,.8V88.32h1.79v13H522.4Zm-1.77-6.53a1.74,1.74,0,0,0-1,.22,1.35,1.35,0,0,0-.54.66,3.28,3.28,0,0,0-.22.91c0,.35,0,.71,0,1.08s0,.69,0,1a3.31,3.31,0,0,0,.22.95,1.44,1.44,0,0,0,.54.66,1.58,1.58,0,0,0,1,.25,1.68,1.68,0,0,0,1-.27,1.33,1.33,0,0,0,.51-.68,3.73,3.73,0,0,0,.23-.93c0-.34,0-.67,0-1s0-.7,0-1a3.79,3.79,0,0,0-.23-.91,1.31,1.31,0,0,0-.51-.67A1.68,1.68,0,0,0,520.63,93.79Z"/><path class="cls-2" d="M531,97.37a2.18,2.18,0,0,0,.62,1.69,2,2,0,0,0,1.51.59,2.66,2.66,0,0,0,2-.9l1.3,1.14a4.16,4.16,0,0,1-3.22,1.5,4.33,4.33,0,0,1-1.38-.22,3,3,0,0,1-.65-.31,2.88,2.88,0,0,1-.63-.42,3.55,3.55,0,0,1-.92-1.44,5.79,5.79,0,0,1-.39-2.31,6.42,6.42,0,0,1,.34-2.27,4,4,0,0,1,.86-1.46,3.16,3.16,0,0,1,1.19-.78,3.77,3.77,0,0,1,1.3-.24,3.66,3.66,0,0,1,2.59,1,3.87,3.87,0,0,1,1.09,2.86v1.53Zm3.77-1.53a2.38,2.38,0,0,0-.56-1.63,1.92,1.92,0,0,0-2.65,0,2.49,2.49,0,0,0-.56,1.63Z"/><path class="cls-2" d="M541.79,92.05h1.8v1h0a2.83,2.83,0,0,1,2.32-1.09,3,3,0,0,1,2,.81,3.16,3.16,0,0,1,1,2.4v6.13h-1.8v-5.5a2,2,0,0,0-.5-1.48,1.67,1.67,0,0,0-1.26-.51,1.73,1.73,0,0,0-1.28.51,2,2,0,0,0-.5,1.48v5.5h-1.8Z"/><path class="cls-2" d="M554.77,89.25h1.79v2.8h1.31v1.43h-1.31v5.37c0,.47.2.7.64.69h.67v1.74h-.94a2.08,2.08,0,0,1-1.54-.6,2.19,2.19,0,0,1-.62-1.67V93.48h-.9V92.05h.9Z"/><path class="cls-2" d="M562.87,88.32h1.79v1.85h-1.79Zm0,3.73h1.79v9.23h-1.79Z"/><path class="cls-2" d="M570.38,89.25h1.79v2.8h1.31v1.43h-1.31v5.37c0,.47.2.7.64.69h.67v1.74h-.94a2.08,2.08,0,0,1-1.54-.6,2.15,2.15,0,0,1-.62-1.67V93.48h-.9V92.05h.9Z"/><path class="cls-2" d="M577.13,92.05H579l2.11,6.47h0l2.1-6.47h1.91l-3.84,11.14a2.67,2.67,0,0,1-1,1.44,2.87,2.87,0,0,1-1.49.38h-.6v-1.74h.53a1.17,1.17,0,0,0,.65-.19,1.09,1.09,0,0,0,.42-.61l.49-1.55Z"/><path class="cls-2" d="M597.16,89.25H599v2.8h1.31v1.43H599v5.37c0,.47.21.7.64.69h.67v1.74h-.93a2.1,2.1,0,0,1-1.55-.6,2.19,2.19,0,0,1-.62-1.67V93.48h-.9V92.05h.9Z"/><path class="cls-2" d="M605.21,88.32H607V93h0a2.85,2.85,0,0,1,2.33-1.09,3,3,0,0,1,2,.81,3.2,3.2,0,0,1,1,2.4v6.13h-1.79v-5.5a2,2,0,0,0-.5-1.48,1.84,1.84,0,0,0-2.54,0,2,2,0,0,0-.51,1.48v5.5h-1.79Z"/><path class="cls-2" d="M618.08,92.05h1.79v1h0a2.94,2.94,0,0,1,4.2-.38l-1.31,1.6a1.84,1.84,0,0,0-1.18-.46,1.65,1.65,0,0,0-1.18.46,1.82,1.82,0,0,0-.57,1.47v5.56h-1.79Z"/><path class="cls-2" d="M627.48,96.66a8.52,8.52,0,0,1,.23-2.24,3.26,3.26,0,0,1,.74-1.3,3.57,3.57,0,0,1,1-.82,3.67,3.67,0,0,1,1.68-.36,3.81,3.81,0,0,1,1.71.36,3.38,3.38,0,0,1,1,.83,3,3,0,0,1,.75,1.29,8.59,8.59,0,0,1,.22,2.24,8.37,8.37,0,0,1-.22,2.22,3.31,3.31,0,0,1-.75,1.33,3.34,3.34,0,0,1-.43.39,2,2,0,0,1-.57.39,3.67,3.67,0,0,1-1.72.4,3.52,3.52,0,0,1-1.67-.4,3.37,3.37,0,0,1-1-.78,3.69,3.69,0,0,1-.74-1.33A8.3,8.3,0,0,1,627.48,96.66Zm5.57,0a8.61,8.61,0,0,0-.08-1.45,1.77,1.77,0,0,0-.36-.77A1.35,1.35,0,0,0,632,94a2.12,2.12,0,0,0-1.71,0,1.62,1.62,0,0,0-.6.49,2.24,2.24,0,0,0-.34.77,7,7,0,0,0-.11,1.43,6.73,6.73,0,0,0,.11,1.41,2.3,2.3,0,0,0,.34.8,1.93,1.93,0,0,0,.6.47,1.93,1.93,0,0,0,1.71,0,1.55,1.55,0,0,0,.58-.47,1.88,1.88,0,0,0,.36-.8A8,8,0,0,0,633.05,96.68Z"/><path class="cls-2" d="M640.12,92.05h1.79v5.5a2,2,0,0,0,.51,1.46,1.7,1.7,0,0,0,1.28.53A1.65,1.65,0,0,0,645,99a2,2,0,0,0,.5-1.46v-5.5h1.8v9.23h-1.8v-1h0a2.84,2.84,0,0,1-2.32,1.1,3,3,0,0,1-2-.84,2.91,2.91,0,0,1-1-2.36Z"/><path class="cls-2" d="M658,100.32a3,3,0,0,1-2.3,1.07,2.81,2.81,0,0,1-1.45-.39,3.27,3.27,0,0,1-.92-.74,2.9,2.9,0,0,1-.5-1.11,12,12,0,0,1-.17-2.48,12.13,12.13,0,0,1,.17-2.51,2.79,2.79,0,0,1,.5-1.1,2.89,2.89,0,0,1,.92-.78,3.14,3.14,0,0,1,1.45-.34A3,3,0,0,1,658,93v-1h1.8v9a3.72,3.72,0,0,1-3.88,4.06,4.06,4.06,0,0,1-3.1-1.54l1.4-1.15a3.55,3.55,0,0,0,.79.57,2,2,0,0,0,1,.27,1.87,1.87,0,0,0,2-2Zm-3.54-3.64a11.77,11.77,0,0,0,.06,1.46,1.36,1.36,0,0,0,.29.69,1.62,1.62,0,0,0,.55.46,1.45,1.45,0,0,0,.88.25,1.47,1.47,0,0,0,.88-.25,1.74,1.74,0,0,0,.53-.46,1.46,1.46,0,0,0,.3-.69,12.39,12.39,0,0,0,0-1.46,13.09,13.09,0,0,0,0-1.5,1.38,1.38,0,0,0-.3-.68,2.12,2.12,0,0,0-.53-.49,1.82,1.82,0,0,0-.88-.22,1.79,1.79,0,0,0-.88.22,1.93,1.93,0,0,0-.55.49,1.28,1.28,0,0,0-.29.68A12.44,12.44,0,0,0,654.47,96.68Z"/><path class="cls-2" d="M665.53,88.32h1.8V93h0a2.84,2.84,0,0,1,2.32-1.09,3,3,0,0,1,2,.81,3.16,3.16,0,0,1,1,2.4v6.13h-1.8v-5.5a2,2,0,0,0-.49-1.48,1.84,1.84,0,0,0-2.54,0,2,2,0,0,0-.51,1.48v5.5h-1.8Z"/><path class="cls-2" d="M685.79,92.05h1.8v1h0A3,3,0,0,1,690,91.94a3.4,3.4,0,0,1,1.55.33,4.55,4.55,0,0,1,1,.88,3.66,3.66,0,0,1,2.91-1.21,3.17,3.17,0,0,1,2.1.81,3.11,3.11,0,0,1,1,2.4v6.13h-1.8v-5.5a2,2,0,0,0-.51-1.48,2,2,0,0,0-2.67,0,1.93,1.93,0,0,0-.54,1.48v5.5h-1.79v-5.5a2,2,0,0,0-.51-1.48,1.85,1.85,0,0,0-1.34-.51,1.79,1.79,0,0,0-1.33.51,1.93,1.93,0,0,0-.54,1.48v5.5h-1.8Z"/><path class="cls-2" d="M705.81,97.37a2.19,2.19,0,0,0,.63,1.69,2,2,0,0,0,1.51.59,2.66,2.66,0,0,0,2-.9l1.3,1.14a4.16,4.16,0,0,1-3.22,1.5,4.33,4.33,0,0,1-1.38-.22,3,3,0,0,1-.65-.31,2.66,2.66,0,0,1-.63-.42,3.55,3.55,0,0,1-.92-1.44,5.79,5.79,0,0,1-.39-2.31,6.42,6.42,0,0,1,.34-2.27,4,4,0,0,1,.86-1.46,3.16,3.16,0,0,1,1.19-.78,3.76,3.76,0,0,1,1.29-.24,3.63,3.63,0,0,1,2.59,1,3.83,3.83,0,0,1,1.1,2.86v1.53Zm3.78-1.53a2.38,2.38,0,0,0-.56-1.63,1.79,1.79,0,0,0-1.33-.53,1.76,1.76,0,0,0-1.32.53,2.54,2.54,0,0,0-.57,1.63Z"/><path class="cls-2" d="M716.59,92.05h1.8v1h0a3,3,0,0,1,2.41-1.09,3.43,3.43,0,0,1,1.55.33,4.55,4.55,0,0,1,1,.88,3.64,3.64,0,0,1,2.91-1.21,3.19,3.19,0,0,1,2.1.81,3.07,3.07,0,0,1,1,2.4v6.13h-1.79v-5.5a2,2,0,0,0-.52-1.48,1.79,1.79,0,0,0-1.33-.51,1.83,1.83,0,0,0-1.33.51,1.93,1.93,0,0,0-.54,1.48v5.5h-1.79v-5.5a2,2,0,0,0-.52-1.48,1.83,1.83,0,0,0-1.33-.51,1.79,1.79,0,0,0-1.33.51,1.9,1.9,0,0,0-.55,1.48v5.5h-1.79Z"/><path class="cls-2" d="M734.82,96.66a8.52,8.52,0,0,1,.23-2.24,3.26,3.26,0,0,1,.74-1.3,3.44,3.44,0,0,1,1-.82,3.66,3.66,0,0,1,1.67-.36,3.82,3.82,0,0,1,1.72.36,3.38,3.38,0,0,1,1,.83,3,3,0,0,1,.75,1.29,9.05,9.05,0,0,1,.22,2.24,8.82,8.82,0,0,1-.22,2.22,3.22,3.22,0,0,1-.76,1.33,2.68,2.68,0,0,1-.42.39,2,2,0,0,1-.57.39,3.67,3.67,0,0,1-1.72.4,3.59,3.59,0,0,1-1.68-.4,3.44,3.44,0,0,1-1-.78,3.69,3.69,0,0,1-.74-1.33A8.3,8.3,0,0,1,734.82,96.66Zm5.57,0a9.85,9.85,0,0,0-.08-1.45,1.77,1.77,0,0,0-.36-.77,1.41,1.41,0,0,0-.58-.49,2.12,2.12,0,0,0-1.71,0,1.74,1.74,0,0,0-.61.49,2.42,2.42,0,0,0-.33.77,7,7,0,0,0-.11,1.43,6.73,6.73,0,0,0,.11,1.41,2.5,2.5,0,0,0,.33.8,2.11,2.11,0,0,0,.61.47,1.93,1.93,0,0,0,1.71,0,1.64,1.64,0,0,0,.58-.47,1.88,1.88,0,0,0,.36-.8A9.1,9.1,0,0,0,740.39,96.68Z"/><path class="cls-2" d="M747.46,92.05h1.79v1h0a2.94,2.94,0,0,1,4.2-.38l-1.31,1.6a1.84,1.84,0,0,0-1.18-.46,1.65,1.65,0,0,0-1.18.46,1.82,1.82,0,0,0-.57,1.47v5.56h-1.79Z"/><path class="cls-2" d="M762,100.46h0a1.53,1.53,0,0,1-.78.7,3.64,3.64,0,0,1-1.43.23,3.25,3.25,0,0,1-2.3-.82,2.59,2.59,0,0,1-.85-2,2.63,2.63,0,0,1,.74-1.93,2.87,2.87,0,0,1,2.16-.8H762v-1c0-.82-.6-1.21-1.83-1.19a3.31,3.31,0,0,0-1.06.14,1.41,1.41,0,0,0-.64.57l-1.41-1.11a3.44,3.44,0,0,1,3-1.34,4.69,4.69,0,0,1,2.69.66,2.71,2.71,0,0,1,1,2.38v6.3H762Zm0-3.09h-2.15q-1.58,0-1.56,1.11a1,1,0,0,0,.41.8,1.86,1.86,0,0,0,1.28.37,3,3,0,0,0,1.6-.28c.28-.2.42-.64.42-1.33Z"/><path class="cls-2" d="M769.5,88.32h1.8V93a4.6,4.6,0,0,1,1.07-.8,2.6,2.6,0,0,1,1.23-.29,2.73,2.73,0,0,1,2.4,1.21,2.4,2.4,0,0,1,.51,1.14,14.46,14.46,0,0,1,.13,2.37,14.19,14.19,0,0,1-.13,2.34,2.46,2.46,0,0,1-.51,1.19,2.67,2.67,0,0,1-1,.85,3.14,3.14,0,0,1-1.43.35,3,3,0,0,1-2.3-1.07v1h-1.8Zm3.56,5.47a1.53,1.53,0,0,0-1.5.93,3.78,3.78,0,0,0-.21.91,8.56,8.56,0,0,0-.05,1,8.48,8.48,0,0,0,.05,1,3.73,3.73,0,0,0,.21.93,1.53,1.53,0,0,0,.55.68,1.51,1.51,0,0,0,.95.27,1.76,1.76,0,0,0,1-.25,1.42,1.42,0,0,0,.53-.66,3.67,3.67,0,0,0,.23-.95c0-.33,0-.67,0-1s0-.73,0-1.08a3.68,3.68,0,0,0-.23-.91,1.33,1.33,0,0,0-.53-.66A1.94,1.94,0,0,0,773.06,93.79Z"/><path class="cls-2" d="M782.05,88.32h1.79V98.91c0,.42.22.63.67.63h.62v1.74h-.8a2.54,2.54,0,0,1-1.61-.5,2,2,0,0,1-.67-1.73Z"/><path class="cls-2" d="M791.18,97.37a2.22,2.22,0,0,0,.62,1.69,2,2,0,0,0,1.52.59,2.62,2.62,0,0,0,1.95-.9l1.3,1.14a4.14,4.14,0,0,1-3.21,1.5,4.33,4.33,0,0,1-1.38-.22,3,3,0,0,1-.66-.31,2.82,2.82,0,0,1-.62-.42,3.55,3.55,0,0,1-.92-1.44,5.79,5.79,0,0,1-.39-2.31,6.68,6.68,0,0,1,.33-2.27,4.09,4.09,0,0,1,.86-1.46,3.27,3.27,0,0,1,1.2-.78,3.76,3.76,0,0,1,1.29-.24,3.64,3.64,0,0,1,2.59,1,3.83,3.83,0,0,1,1.09,2.86v1.53ZM795,95.84a2.38,2.38,0,0,0-.56-1.63,1.93,1.93,0,0,0-2.66,0,2.54,2.54,0,0,0-.56,1.63Z"/><path class="cls-2" d="M110.62,122.31h0a1.56,1.56,0,0,1-.78.69,3.62,3.62,0,0,1-1.42.23,3.21,3.21,0,0,1-2.31-.82,2.59,2.59,0,0,1-.85-2,2.65,2.65,0,0,1,.74-1.93,2.92,2.92,0,0,1,2.17-.8h2.48v-1c0-.82-.6-1.21-1.83-1.19a3,3,0,0,0-1.06.15,1.31,1.31,0,0,0-.64.57l-1.41-1.12a3.47,3.47,0,0,1,3-1.34,4.69,4.69,0,0,1,2.69.66,2.75,2.75,0,0,1,1,2.38v6.3h-1.8Zm0-3.1h-2.15c-1,0-1.57.4-1.56,1.11a1,1,0,0,0,.41.8,1.81,1.81,0,0,0,1.28.37,3,3,0,0,0,1.6-.28c.28-.19.42-.64.42-1.33Z"/><path class="cls-2" d="M118.12,113.9h1.8v1h0a2.88,2.88,0,0,1,2.33-1.09,3,3,0,0,1,2,.81,3.23,3.23,0,0,1,1,2.4v6.13h-1.79v-5.5a2,2,0,0,0-.5-1.47,1.81,1.81,0,0,0-2.54,0,2,2,0,0,0-.51,1.47v5.5h-1.8Z"/><path class="cls-2" d="M136.34,122.16a3,3,0,0,1-2.32,1.07,2.82,2.82,0,0,1-1.38-.35,3.08,3.08,0,0,1-1-.85,2.45,2.45,0,0,1-.49-1.18,20,20,0,0,1,0-4.72,2.42,2.42,0,0,1,.49-1.15,2.75,2.75,0,0,1,2.39-1.2,2.9,2.9,0,0,1,1.28.29,5.36,5.36,0,0,1,1,.8v-4.71h1.79v13h-1.79Zm-1.77-6.53a1.74,1.74,0,0,0-1,.22,1.35,1.35,0,0,0-.54.66,3.79,3.79,0,0,0-.22.91c0,.35-.05.71-.05,1.08s0,.69.05,1a3.7,3.7,0,0,0,.22.94,1.44,1.44,0,0,0,.54.66,1.58,1.58,0,0,0,1,.25,1.68,1.68,0,0,0,1-.27,1.25,1.25,0,0,0,.51-.67,3.81,3.81,0,0,0,.23-.94c0-.34,0-.67,0-1s0-.7,0-1a3.68,3.68,0,0,0-.23-.91,1.28,1.28,0,0,0-.51-.68A1.75,1.75,0,0,0,134.57,115.63Z"/><path class="cls-2" d="M150.92,113.9h1.8v1h0a3,3,0,0,1,2.41-1.09,3.4,3.4,0,0,1,1.55.33,4.6,4.6,0,0,1,1.06.88,3.62,3.62,0,0,1,2.9-1.21,3.15,3.15,0,0,1,2.1.81,3.1,3.1,0,0,1,1,2.4v6.13H162v-5.5a2,2,0,0,0-.51-1.47,1.79,1.79,0,0,0-1.33-.52,1.82,1.82,0,0,0-1.34.52,1.91,1.91,0,0,0-.53,1.47v5.5h-1.8v-5.5a2,2,0,0,0-.51-1.47,1.82,1.82,0,0,0-1.34-.52,1.78,1.78,0,0,0-1.33.52,1.91,1.91,0,0,0-.54,1.47v5.5h-1.8Z"/><path class="cls-2" d="M171,119.21a2.2,2.2,0,0,0,.62,1.69,2,2,0,0,0,1.51.59,2.65,2.65,0,0,0,2-.9l1.3,1.15a4.17,4.17,0,0,1-3.22,1.49,4.62,4.62,0,0,1-1.38-.21,3.51,3.51,0,0,1-.65-.31,4.31,4.31,0,0,1-.63-.42,3.81,3.81,0,0,1-.92-1.44,5.85,5.85,0,0,1-.39-2.31,6.72,6.72,0,0,1,.34-2.28,4,4,0,0,1,.86-1.46,3.27,3.27,0,0,1,1.2-.78,3.7,3.7,0,0,1,3.88.8,3.88,3.88,0,0,1,1.09,2.86v1.53Zm3.78-1.53a2.43,2.43,0,0,0-.56-1.63,1.93,1.93,0,0,0-2.66,0,2.49,2.49,0,0,0-.56,1.63Z"/><path class="cls-2" d="M186.49,122.31h0a1.49,1.49,0,0,1-.77.69,3.68,3.68,0,0,1-1.43.23,3.21,3.21,0,0,1-2.31-.82,2.62,2.62,0,0,1-.85-2,2.69,2.69,0,0,1,.74-1.93,3,3,0,0,1,2.17-.8h2.49v-1c0-.82-.6-1.21-1.84-1.19a3.06,3.06,0,0,0-1.06.15,1.29,1.29,0,0,0-.63.57l-1.41-1.12a3.46,3.46,0,0,1,3-1.34,4.69,4.69,0,0,1,2.69.66,2.72,2.72,0,0,1,1,2.38v6.3h-1.79Zm0-3.1h-2.16c-1.05,0-1.56.4-1.55,1.11a1,1,0,0,0,.4.8,1.83,1.83,0,0,0,1.29.37,3,3,0,0,0,1.59-.28c.29-.19.43-.64.43-1.33Z"/><path class="cls-2" d="M194,113.9h1.79v1h0a2.86,2.86,0,0,1,2.32-1.09,3,3,0,0,1,2,.81,3.15,3.15,0,0,1,1,2.4v6.13h-1.79v-5.5a2,2,0,0,0-.5-1.47,1.65,1.65,0,0,0-1.26-.52,1.68,1.68,0,0,0-1.28.52,2,2,0,0,0-.51,1.47v5.5H194Z"/><path class="cls-2" d="M206.91,110.16h1.8V112h-1.8Zm0,3.74h1.8v9.22h-1.8Z"/><path class="cls-2" d="M214.32,113.9h1.79v1h0a2.86,2.86,0,0,1,2.32-1.09,3,3,0,0,1,2,.81,3.19,3.19,0,0,1,.95,2.4v6.13h-1.79v-5.5a2,2,0,0,0-.5-1.47,1.81,1.81,0,0,0-2.54,0,2,2,0,0,0-.51,1.47v5.5h-1.79Z"/><path class="cls-2" d="M232.21,122.16a3,3,0,0,1-2.3,1.07,2.78,2.78,0,0,1-1.45-.38,3.12,3.12,0,0,1-.92-.75A2.84,2.84,0,0,1,227,121a12.09,12.09,0,0,1-.16-2.47A12.55,12.55,0,0,1,227,116a2.87,2.87,0,0,1,.51-1.1,3,3,0,0,1,4.67,0v-1H234v9a3.72,3.72,0,0,1-3.87,4.06,4.06,4.06,0,0,1-3.1-1.54l1.4-1.15a3.55,3.55,0,0,0,.79.57,2,2,0,0,0,.94.27,2.06,2.06,0,0,0,1.48-.52,2,2,0,0,0,.57-1.48Zm-3.55-3.64a11.09,11.09,0,0,0,.07,1.46,1.43,1.43,0,0,0,.29.7,1.6,1.6,0,0,0,.55.45,1.45,1.45,0,0,0,.88.25,1.42,1.42,0,0,0,.87-.25,1.66,1.66,0,0,0,.54-.45,1.54,1.54,0,0,0,.3-.7c0-.27.05-.75.05-1.46s0-1.22-.05-1.5a1.42,1.42,0,0,0-.3-.68,2.19,2.19,0,0,0-.54-.49,1.86,1.86,0,0,0-.87-.22,1.9,1.9,0,0,0-.88.22,2.09,2.09,0,0,0-.55.49,1.32,1.32,0,0,0-.29.68A11.85,11.85,0,0,0,228.66,118.52Z"/><path class="cls-2" d="M240,115.32h-.91V113.9H240v-1.22a2.46,2.46,0,0,1,.7-1.94,2.64,2.64,0,0,1,1.73-.58h1.16v1.75h-1c-.55,0-.81.23-.78.76v1.23h1.8v1.42h-1.8v7.8H240Z"/><path class="cls-2" d="M247.88,113.9h1.8v5.5a2.05,2.05,0,0,0,.5,1.46,1.7,1.7,0,0,0,1.28.52,1.64,1.64,0,0,0,1.26-.52,2,2,0,0,0,.5-1.46v-5.5H255v9.22h-1.8v-1h0a2.85,2.85,0,0,1-2.31,1.09,3,3,0,0,1-2-.83,2.92,2.92,0,0,1-1-2.36Z"/><path class="cls-2" d="M260.75,110.16h1.8v10.59c0,.42.22.63.67.63h.62v1.74H263a2.59,2.59,0,0,1-1.62-.5,2.06,2.06,0,0,1-.67-1.73Z"/><path class="cls-2" d="M281.34,122.16a3,3,0,0,1-2.31,1.07,2.86,2.86,0,0,1-1.39-.35,3.08,3.08,0,0,1-1-.85,2.45,2.45,0,0,1-.49-1.18,20,20,0,0,1,0-4.72,2.42,2.42,0,0,1,.49-1.15,2.77,2.77,0,0,1,2.4-1.2,2.89,2.89,0,0,1,1.27.29,5.08,5.08,0,0,1,1,.8v-4.71h1.79v13h-1.79Zm-1.77-6.53a1.76,1.76,0,0,0-1,.22,1.35,1.35,0,0,0-.54.66,3.79,3.79,0,0,0-.22.91c0,.35,0,.71,0,1.08s0,.69,0,1a3.7,3.7,0,0,0,.22.94,1.44,1.44,0,0,0,.54.66,1.6,1.6,0,0,0,1,.25,1.68,1.68,0,0,0,1-.27,1.25,1.25,0,0,0,.51-.67,3.81,3.81,0,0,0,.23-.94c0-.34,0-.67,0-1s0-.7,0-1a3.68,3.68,0,0,0-.23-.91,1.28,1.28,0,0,0-.51-.68A1.75,1.75,0,0,0,279.57,115.63Z"/><path class="cls-2" d="M289.89,119.21a2.2,2.2,0,0,0,.62,1.69,2,2,0,0,0,1.52.59,2.64,2.64,0,0,0,2-.9l1.3,1.15a4.17,4.17,0,0,1-3.22,1.49,4.51,4.51,0,0,1-1.37-.21,3.31,3.31,0,0,1-.66-.31,4.31,4.31,0,0,1-.63-.42,3.93,3.93,0,0,1-.92-1.44,5.87,5.87,0,0,1-.38-2.31,6.74,6.74,0,0,1,.33-2.28,4,4,0,0,1,.86-1.46,3.27,3.27,0,0,1,1.2-.78,3.7,3.7,0,0,1,3.88.8,3.84,3.84,0,0,1,1.09,2.86v1.53Zm3.78-1.53a2.43,2.43,0,0,0-.56-1.63,1.93,1.93,0,0,0-2.66,0,2.49,2.49,0,0,0-.56,1.63Z"/><path class="cls-2" d="M301,120.31a3.7,3.7,0,0,0,2.83,1.18,2.41,2.41,0,0,0,1.27-.31,1,1,0,0,0,.49-.87.77.77,0,0,0-.3-.7,1.52,1.52,0,0,0-.8-.22l-1.58-.14a3,3,0,0,1-1.84-.78,2.43,2.43,0,0,1-.74-1.84,2.53,2.53,0,0,1,1-2.14,3.81,3.81,0,0,1,2.36-.71,7.41,7.41,0,0,1,1.11.08,5,5,0,0,1,.92.25,5.34,5.34,0,0,1,1.49.93l-1.12,1.34a5.41,5.41,0,0,0-1.09-.63,3.56,3.56,0,0,0-1.31-.23,1.81,1.81,0,0,0-1.19.31,1.05,1.05,0,0,0-.35.81.65.65,0,0,0,.27.54,1.52,1.52,0,0,0,.91.33l1.49.11a2.68,2.68,0,0,1,2,.88,3,3,0,0,1,.58,1.89,2.39,2.39,0,0,1-1.06,2.07,4.46,4.46,0,0,1-2.64.77,5.61,5.61,0,0,1-3.94-1.65Z"/><path class="cls-2" d="M312.62,110.16h1.79V112h-1.79Zm0,3.74h1.79v9.22h-1.79Z"/><path class="cls-2" d="M325.05,122.16a3,3,0,0,1-2.31,1.07,2.74,2.74,0,0,1-1.44-.38,3,3,0,0,1-.92-.75,2.71,2.71,0,0,1-.51-1.11,11.86,11.86,0,0,1-.17-2.47,12.32,12.32,0,0,1,.17-2.52,2.73,2.73,0,0,1,.51-1.1,2.89,2.89,0,0,1,.92-.77,3,3,0,0,1,1.44-.35,3,3,0,0,1,2.31,1.09v-1h1.79v9A3.72,3.72,0,0,1,323,127a4,4,0,0,1-3.09-1.54l1.39-1.15a3.55,3.55,0,0,0,.79.57,1.94,1.94,0,0,0,3-1.73Zm-3.55-3.64a9.54,9.54,0,0,0,.07,1.46,1.42,1.42,0,0,0,.28.7,1.71,1.71,0,0,0,.55.45,1.67,1.67,0,0,0,1.76,0,1.72,1.72,0,0,0,.53-.45,1.54,1.54,0,0,0,.3-.7,11.66,11.66,0,0,0,.06-1.46A12.44,12.44,0,0,0,325,117a1.42,1.42,0,0,0-.3-.68,2.32,2.32,0,0,0-.53-.49,1.87,1.87,0,0,0-1.76,0,2.26,2.26,0,0,0-.55.49,1.31,1.31,0,0,0-.28.68A10.17,10.17,0,0,0,321.5,118.52Z"/><path class="cls-2" d="M332.57,113.9h1.79v1h0a2.89,2.89,0,0,1,2.33-1.09,3,3,0,0,1,2,.81,3.23,3.23,0,0,1,.95,2.4v6.13h-1.79v-5.5a2,2,0,0,0-.5-1.47,1.81,1.81,0,0,0-2.54,0,2,2,0,0,0-.51,1.47v5.5h-1.79Z"/><path class="cls-2" d="M345.7,120.31a3.7,3.7,0,0,0,2.83,1.18,2.41,2.41,0,0,0,1.27-.31,1,1,0,0,0,.49-.87.79.79,0,0,0-.29-.7,1.58,1.58,0,0,0-.81-.22l-1.58-.14a3,3,0,0,1-1.84-.78,2.43,2.43,0,0,1-.74-1.84,2.53,2.53,0,0,1,1-2.14,3.81,3.81,0,0,1,2.36-.71,7.22,7.22,0,0,1,1.11.08,4.56,4.56,0,0,1,2.41,1.18l-1.12,1.34a5.41,5.41,0,0,0-1.09-.63,3.56,3.56,0,0,0-1.31-.23,1.76,1.76,0,0,0-1.18.31,1,1,0,0,0-.36.81.65.65,0,0,0,.27.54,1.55,1.55,0,0,0,.91.33l1.49.11a2.72,2.72,0,0,1,2,.88,3,3,0,0,1,.57,1.89,2.39,2.39,0,0,1-1.06,2.07,4.46,4.46,0,0,1-2.64.77,5.61,5.61,0,0,1-3.94-1.65Z"/><path class="cls-2" d="M364.83,111.09h1.8v2.81h1.3v1.42h-1.3v5.38c0,.47.2.69.63.68h.67v1.74H367a2.1,2.1,0,0,1-1.55-.6,2.19,2.19,0,0,1-.62-1.67v-5.53h-.9V113.9h.9Z"/><path class="cls-2" d="M372.43,118.5a8,8,0,0,1,.24-2.24,3.17,3.17,0,0,1,.74-1.29,3.4,3.4,0,0,1,1-.83,3.67,3.67,0,0,1,1.68-.36,3.8,3.8,0,0,1,1.71.37,3.21,3.21,0,0,1,1,.82,2.88,2.88,0,0,1,.75,1.29,8.59,8.59,0,0,1,.22,2.24,8.37,8.37,0,0,1-.22,2.22,3.31,3.31,0,0,1-.75,1.33,4.06,4.06,0,0,1-.42.4,2.08,2.08,0,0,1-.58.38,3.54,3.54,0,0,1-1.71.4,3.42,3.42,0,0,1-1.68-.4,3.32,3.32,0,0,1-1-.78,3.54,3.54,0,0,1-.74-1.33A7.84,7.84,0,0,1,372.43,118.5Zm5.58,0a8.37,8.37,0,0,0-.09-1.45,1.83,1.83,0,0,0-.35-.76,1.37,1.37,0,0,0-.59-.49,2,2,0,0,0-1.71,0,1.53,1.53,0,0,0-.6.49,2.11,2.11,0,0,0-.34.76,7.12,7.12,0,0,0-.1,1.43,6.89,6.89,0,0,0,.1,1.41,2.3,2.3,0,0,0,.34.8,2.11,2.11,0,0,0,.6.48,2,2,0,0,0,1.71,0,1.82,1.82,0,0,0,.59-.48,2,2,0,0,0,.35-.8A7.74,7.74,0,0,0,378,118.52Z"/><path class="cls-2" d="M397.55,122.16a3,3,0,0,1-2.3,1.07,2.81,2.81,0,0,1-1.45-.38,3.12,3.12,0,0,1-.92-.75,3,3,0,0,1-.51-1.11,12.09,12.09,0,0,1-.16-2.47,12.55,12.55,0,0,1,.16-2.52,3,3,0,0,1,5.18-1.13v-1h1.8v9a3.72,3.72,0,0,1-3.88,4.06,4.06,4.06,0,0,1-3.1-1.54l1.4-1.15a3.55,3.55,0,0,0,.79.57,2,2,0,0,0,.94.27,2.06,2.06,0,0,0,1.48-.52,2,2,0,0,0,.57-1.48ZM394,118.52a11.09,11.09,0,0,0,.07,1.46,1.43,1.43,0,0,0,.29.7,1.6,1.6,0,0,0,.55.45,1.45,1.45,0,0,0,.88.25,1.47,1.47,0,0,0,.88-.25,1.72,1.72,0,0,0,.53-.45,1.54,1.54,0,0,0,.3-.7c0-.27.05-.75.05-1.46s0-1.22-.05-1.5a1.42,1.42,0,0,0-.3-.68,2.32,2.32,0,0,0-.53-.49,1.94,1.94,0,0,0-.88-.22,1.9,1.9,0,0,0-.88.22,2.09,2.09,0,0,0-.55.49,1.32,1.32,0,0,0-.29.68A11.85,11.85,0,0,0,394,118.52Z"/><path class="cls-2" d="M405.07,113.9h1.8v5.5a2.05,2.05,0,0,0,.5,1.46,1.7,1.7,0,0,0,1.28.52,1.62,1.62,0,0,0,1.26-.52,2,2,0,0,0,.5-1.46v-5.5h1.8v9.22h-1.8v-1h0a2.85,2.85,0,0,1-2.31,1.09,3,3,0,0,1-2-.83,2.92,2.92,0,0,1-1-2.36Z"/><path class="cls-2" d="M422.64,122.31h0a1.49,1.49,0,0,1-.77.69,3.68,3.68,0,0,1-1.43.23,3.21,3.21,0,0,1-2.31-.82,2.62,2.62,0,0,1-.85-2,2.69,2.69,0,0,1,.74-1.93,2.94,2.94,0,0,1,2.17-.8h2.49v-1c0-.82-.6-1.21-1.84-1.19a3,3,0,0,0-1.06.15,1.25,1.25,0,0,0-.63.57l-1.41-1.12a3.45,3.45,0,0,1,3-1.34,4.7,4.7,0,0,1,2.7.66,2.72,2.72,0,0,1,1,2.38v6.3h-1.79Zm0-3.1h-2.16c-1.05,0-1.56.4-1.55,1.11a1,1,0,0,0,.4.8,1.83,1.83,0,0,0,1.29.37,3,3,0,0,0,1.59-.28c.28-.19.43-.64.43-1.33Z"/><path class="cls-2" d="M430.14,113.9h1.79v1h0a2.94,2.94,0,0,1,4.2-.38l-1.31,1.6a1.84,1.84,0,0,0-1.18-.46,1.65,1.65,0,0,0-1.18.46,1.82,1.82,0,0,0-.57,1.47v5.56h-1.79Z"/><path class="cls-2" d="M444.68,122.31h0a1.56,1.56,0,0,1-.78.69,3.64,3.64,0,0,1-1.43.23,3.19,3.19,0,0,1-2.3-.82,2.59,2.59,0,0,1-.86-2,2.65,2.65,0,0,1,.75-1.93,2.91,2.91,0,0,1,2.16-.8h2.49v-1c0-.82-.6-1.21-1.83-1.19a3,3,0,0,0-1.06.15,1.31,1.31,0,0,0-.64.57l-1.41-1.12a3.47,3.47,0,0,1,3-1.34,4.69,4.69,0,0,1,2.69.66,2.72,2.72,0,0,1,1,2.38v6.3h-1.79Zm0-3.1h-2.16c-1,0-1.56.4-1.55,1.11a1,1,0,0,0,.41.8,1.8,1.8,0,0,0,1.28.37,3.06,3.06,0,0,0,1.6-.28c.28-.19.42-.64.42-1.33Z"/><path class="cls-2" d="M452.18,113.9H454v1h0a2.87,2.87,0,0,1,2.32-1.09,3,3,0,0,1,2,.81,3.2,3.2,0,0,1,1,2.4v6.13h-1.8v-5.5a2,2,0,0,0-.5-1.47,1.62,1.62,0,0,0-1.26-.52,1.7,1.7,0,0,0-1.28.52,2,2,0,0,0-.5,1.47v5.5h-1.8Z"/><path class="cls-2" d="M465.16,111.09H467v2.81h1.31v1.42H467v5.38c0,.47.2.69.64.68h.67v1.74h-.93a2.1,2.1,0,0,1-1.55-.6,2.19,2.19,0,0,1-.62-1.67v-5.53h-.9V113.9h.9Z"/><path class="cls-2" d="M474.55,119.21a2.2,2.2,0,0,0,.62,1.69,2,2,0,0,0,1.52.59,2.66,2.66,0,0,0,2-.9l1.3,1.15a4.2,4.2,0,0,1-3.22,1.49,4.62,4.62,0,0,1-1.38-.21,3.51,3.51,0,0,1-.65-.31,3.46,3.46,0,0,1-.63-.42,3.69,3.69,0,0,1-.92-1.44,5.85,5.85,0,0,1-.39-2.31,6.48,6.48,0,0,1,.34-2.28,4,4,0,0,1,.86-1.46,3.16,3.16,0,0,1,1.19-.78,3.76,3.76,0,0,1,1.29-.24,3.64,3.64,0,0,1,2.59,1,3.85,3.85,0,0,1,1.1,2.86v1.53Zm3.78-1.53a2.38,2.38,0,0,0-.56-1.63,1.79,1.79,0,0,0-1.33-.53,1.76,1.76,0,0,0-1.32.53,2.54,2.54,0,0,0-.57,1.63Z"/><path class="cls-2" d="M486.75,119.21a2.2,2.2,0,0,0,.62,1.69,2,2,0,0,0,1.52.59,2.64,2.64,0,0,0,1.95-.9l1.3,1.15a4.17,4.17,0,0,1-3.22,1.49,4.51,4.51,0,0,1-1.37-.21,3.31,3.31,0,0,1-.66-.31,4.31,4.31,0,0,1-.63-.42,3.93,3.93,0,0,1-.92-1.44,5.87,5.87,0,0,1-.38-2.31,6.74,6.74,0,0,1,.33-2.28,4,4,0,0,1,.86-1.46,3.27,3.27,0,0,1,1.2-.78,3.7,3.7,0,0,1,3.88.8,3.84,3.84,0,0,1,1.09,2.86v1.53Zm3.78-1.53a2.43,2.43,0,0,0-.56-1.63,1.93,1.93,0,0,0-2.66,0,2.49,2.49,0,0,0-.56,1.63Z"/><path class="cls-2" d="M509.75,122.31h0a1.49,1.49,0,0,1-.77.69,3.68,3.68,0,0,1-1.43.23,3.21,3.21,0,0,1-2.31-.82,2.62,2.62,0,0,1-.85-2,2.69,2.69,0,0,1,.74-1.93,2.94,2.94,0,0,1,2.17-.8h2.49v-1c0-.82-.6-1.21-1.84-1.19a3.06,3.06,0,0,0-1.06.15,1.25,1.25,0,0,0-.63.57l-1.41-1.12a3.45,3.45,0,0,1,3-1.34,4.7,4.7,0,0,1,2.7.66,2.72,2.72,0,0,1,1,2.38v6.3h-1.79Zm0-3.1h-2.16c-1,0-1.56.4-1.55,1.11a1,1,0,0,0,.4.8,1.83,1.83,0,0,0,1.29.37,3,3,0,0,0,1.59-.28c.29-.19.43-.64.43-1.33Z"/><path class="cls-2" d="M524.71,113.9h1.79v1h0a2.94,2.94,0,0,1,4.2-.38l-1.31,1.6a1.84,1.84,0,0,0-1.18-.46,1.65,1.65,0,0,0-1.18.46,1.82,1.82,0,0,0-.57,1.47v5.56h-1.79Z"/><path class="cls-2" d="M535.91,119.21a2.17,2.17,0,0,0,.62,1.69,2,2,0,0,0,1.51.59,2.66,2.66,0,0,0,2-.9l1.3,1.15a4.19,4.19,0,0,1-3.22,1.49,4.62,4.62,0,0,1-1.38-.21,3.51,3.51,0,0,1-.65-.31,3.46,3.46,0,0,1-.63-.42,3.69,3.69,0,0,1-.92-1.44,5.85,5.85,0,0,1-.39-2.31,6.48,6.48,0,0,1,.34-2.28,4,4,0,0,1,.86-1.46,3.16,3.16,0,0,1,1.19-.78,3.76,3.76,0,0,1,1.29-.24,3.67,3.67,0,0,1,2.6,1,3.88,3.88,0,0,1,1.09,2.86v1.53Zm3.77-1.53a2.38,2.38,0,0,0-.56-1.63,1.92,1.92,0,0,0-2.65,0,2.49,2.49,0,0,0-.56,1.63Z"/><path class="cls-2" d="M547,120.31a3.72,3.72,0,0,0,2.83,1.18,2.41,2.41,0,0,0,1.27-.31,1,1,0,0,0,.49-.87.76.76,0,0,0-.29-.7,1.55,1.55,0,0,0-.8-.22l-1.59-.14a3,3,0,0,1-1.84-.78,2.43,2.43,0,0,1-.74-1.84,2.54,2.54,0,0,1,1-2.14,3.79,3.79,0,0,1,2.36-.71,7.41,7.41,0,0,1,1.11.08,5.17,5.17,0,0,1,.92.25,5.29,5.29,0,0,1,1.48.93l-1.11,1.34a5.49,5.49,0,0,0-1.1-.63,3.52,3.52,0,0,0-1.31-.23,1.78,1.78,0,0,0-1.18.31,1,1,0,0,0-.35.81.62.62,0,0,0,.26.54,1.59,1.59,0,0,0,.92.33l1.48.11a2.7,2.7,0,0,1,2,.88,3,3,0,0,1,.58,1.89,2.41,2.41,0,0,1-1.06,2.07,4.47,4.47,0,0,1-2.65.77,5.58,5.58,0,0,1-3.93-1.65Z"/><path class="cls-2" d="M558.58,113.9h1.8v5.5a2,2,0,0,0,.5,1.46,1.7,1.7,0,0,0,1.28.52,1.64,1.64,0,0,0,1.26-.52,2,2,0,0,0,.5-1.46v-5.5h1.8v9.22h-1.8v-1h0a2.85,2.85,0,0,1-2.31,1.09,3,3,0,0,1-2-.83,2.92,2.92,0,0,1-1-2.36Z"/><path class="cls-2" d="M571.45,110.16h1.8v10.59c0,.42.22.63.67.63h.62v1.74h-.8a2.59,2.59,0,0,1-1.62-.5,2.06,2.06,0,0,1-.67-1.73Z"/><path class="cls-2" d="M579.35,111.09h1.79v2.81h1.31v1.42h-1.31v5.38c0,.47.2.69.64.68h.67v1.74h-.94a2.08,2.08,0,0,1-1.54-.6,2.15,2.15,0,0,1-.62-1.67v-5.53h-.9V113.9h.9Z"/><path class="cls-2" d="M595,111.09h1.79v2.81h1.31v1.42h-1.31v5.38c0,.47.2.69.64.68h.67v1.74h-.94a2.12,2.12,0,0,1-1.55-.6,2.18,2.18,0,0,1-.61-1.67v-5.53h-.91V113.9H595Z"/><path class="cls-2" d="M603,110.16h1.79v4.71h0a2.86,2.86,0,0,1,2.32-1.09,3,3,0,0,1,2,.81,3.2,3.2,0,0,1,1,2.4v6.13h-1.8v-5.5a2,2,0,0,0-.5-1.47,1.65,1.65,0,0,0-1.26-.52,1.7,1.7,0,0,0-1.28.52,2,2,0,0,0-.51,1.47v5.5H603Z"/><path class="cls-2" d="M620.56,122.31h0a1.53,1.53,0,0,1-.77.69,3.71,3.71,0,0,1-1.43.23,3.21,3.21,0,0,1-2.31-.82,2.59,2.59,0,0,1-.85-2,2.69,2.69,0,0,1,.74-1.93,2.94,2.94,0,0,1,2.17-.8h2.48v-1c0-.82-.6-1.21-1.83-1.19a3,3,0,0,0-1.06.15,1.31,1.31,0,0,0-.64.57l-1.41-1.12a3.48,3.48,0,0,1,3-1.34,4.66,4.66,0,0,1,2.69.66,2.7,2.7,0,0,1,1,2.38v6.3h-1.8Zm0-3.1h-2.15c-1,0-1.57.4-1.55,1.11a1,1,0,0,0,.4.8,1.83,1.83,0,0,0,1.29.37,3,3,0,0,0,1.59-.28c.28-.19.42-.64.42-1.33Z"/><path class="cls-2" d="M628.17,111.09H630v2.81h1.31v1.42H630v5.38c0,.47.2.69.63.68h.68v1.74h-.94a2.1,2.1,0,0,1-1.55-.6,2.19,2.19,0,0,1-.62-1.67v-5.53h-.9V113.9h.9Z"/><path class="cls-2" d="M648.89,116.66h0L647,123.12h-1.58l-2.86-9.22h1.9l1.71,6.47h0l2-6.47h1.3l2,6.47h0l1.71-6.47h1.9l-2.85,9.22h-1.59Z"/><path class="cls-2" d="M659.47,118.5a8.52,8.52,0,0,1,.23-2.24,3.29,3.29,0,0,1,.74-1.29,3.46,3.46,0,0,1,1-.83,3.67,3.67,0,0,1,1.68-.36,3.8,3.8,0,0,1,1.71.37,3.21,3.21,0,0,1,1,.82,3,3,0,0,1,.75,1.29,8.59,8.59,0,0,1,.22,2.24,8.37,8.37,0,0,1-.22,2.22,3.31,3.31,0,0,1-.75,1.33,3.37,3.37,0,0,1-.43.4,2,2,0,0,1-.57.38,3.55,3.55,0,0,1-1.72.4,3.4,3.4,0,0,1-1.67-.4,3.37,3.37,0,0,1-1-.78,3.69,3.69,0,0,1-.74-1.33A8.3,8.3,0,0,1,659.47,118.5Zm5.57,0a9.85,9.85,0,0,0-.08-1.45,1.73,1.73,0,0,0-.36-.76,1.29,1.29,0,0,0-.58-.49,2,2,0,0,0-1.71,0,1.64,1.64,0,0,0-.61.49,2.28,2.28,0,0,0-.33.76,7,7,0,0,0-.11,1.43,6.73,6.73,0,0,0,.11,1.41,2.5,2.5,0,0,0,.33.8,2.32,2.32,0,0,0,.61.48,2,2,0,0,0,1.71,0,1.67,1.67,0,0,0,.58-.48,1.88,1.88,0,0,0,.36-.8A9.1,9.1,0,0,0,665,118.52Z"/><path class="cls-2" d="M672.11,113.9h1.79v1h0a2.86,2.86,0,0,1,2.32-1.09,3,3,0,0,1,2,.81,3.2,3.2,0,0,1,1,2.4v6.13h-1.8v-5.5a2,2,0,0,0-.5-1.47,1.64,1.64,0,0,0-1.26-.52,1.7,1.7,0,0,0-1.28.52,2,2,0,0,0-.51,1.47v5.5h-1.79Z"/><path class="cls-2" d="M685,110.16h1.8V112l-1.8,1.34Z"/><path class="cls-2" d="M692.22,111.09H694v2.81h1.31v1.42H694v5.38c0,.47.2.69.64.68h.67v1.74h-.94a2.08,2.08,0,0,1-1.54-.6,2.15,2.15,0,0,1-.62-1.67v-5.53h-.9V113.9h.9Z"/><path class="cls-2" d="M712.74,122.16a3,3,0,0,1-2.3,1.07,2.81,2.81,0,0,1-1.45-.38,3.12,3.12,0,0,1-.92-.75,3,3,0,0,1-.51-1.11,12.09,12.09,0,0,1-.16-2.47,12.55,12.55,0,0,1,.16-2.52,3,3,0,0,1,5.18-1.13v-1h1.8v9a3.73,3.73,0,0,1-3.88,4.06,4.06,4.06,0,0,1-3.1-1.54l1.4-1.15a3.55,3.55,0,0,0,.79.57,2,2,0,0,0,.94.27,2.06,2.06,0,0,0,1.48-.52,2,2,0,0,0,.57-1.48Zm-3.55-3.64a11.09,11.09,0,0,0,.07,1.46,1.43,1.43,0,0,0,.29.7,1.6,1.6,0,0,0,.55.45,1.45,1.45,0,0,0,.88.25,1.42,1.42,0,0,0,.87-.25,1.66,1.66,0,0,0,.54-.45,1.54,1.54,0,0,0,.3-.7c0-.27,0-.75,0-1.46s0-1.22,0-1.5a1.42,1.42,0,0,0-.3-.68,2.19,2.19,0,0,0-.54-.49,1.86,1.86,0,0,0-.87-.22,1.9,1.9,0,0,0-.88.22,2.09,2.09,0,0,0-.55.49,1.32,1.32,0,0,0-.29.68A11.85,11.85,0,0,0,709.19,118.52Z"/><path class="cls-2" d="M719.82,118.5a8.52,8.52,0,0,1,.23-2.24,3.29,3.29,0,0,1,.74-1.29,3.53,3.53,0,0,1,1-.83,3.73,3.73,0,0,1,1.68-.36,3.81,3.81,0,0,1,1.72.37,3.06,3.06,0,0,1,1,.82,2.9,2.9,0,0,1,.76,1.29,9.14,9.14,0,0,1,.21,2.24,8.91,8.91,0,0,1-.21,2.22,3.22,3.22,0,0,1-.76,1.33,2.71,2.71,0,0,1-.42.4,2,2,0,0,1-.58.38,3.79,3.79,0,0,1-3.39,0,3.44,3.44,0,0,1-1-.78,3.69,3.69,0,0,1-.74-1.33A7.9,7.9,0,0,1,719.82,118.5Zm5.57,0a8.37,8.37,0,0,0-.09-1.45,1.61,1.61,0,0,0-.35-.76,1.31,1.31,0,0,0-.59-.49,1.79,1.79,0,0,0-.86-.19,1.82,1.82,0,0,0-.84.19,1.64,1.64,0,0,0-.61.49,2.09,2.09,0,0,0-.33.76,7,7,0,0,0-.11,1.43,6.73,6.73,0,0,0,.11,1.41,2.29,2.29,0,0,0,.33.8,2.32,2.32,0,0,0,.61.48,1.82,1.82,0,0,0,.84.19,1.79,1.79,0,0,0,.86-.19,1.72,1.72,0,0,0,.59-.48,1.75,1.75,0,0,0,.35-.8A7.74,7.74,0,0,0,725.39,118.52Z"/><path class="cls-2" d="M739.92,113.9h1.79v5.5a2,2,0,0,0,.51,1.46,1.81,1.81,0,0,0,2.54,0,2.05,2.05,0,0,0,.5-1.46v-5.5h1.79v9.22h-1.79v-1h0a2.85,2.85,0,0,1-2.31,1.09,3,3,0,0,1-2-.83,3,3,0,0,1-1-2.36Z"/><path class="cls-2" d="M752.79,113.9h1.79v1h0a2.88,2.88,0,0,1,2.33-1.09,3,3,0,0,1,2,.81,3.23,3.23,0,0,1,.95,2.4v6.13h-1.79v-5.5a2,2,0,0,0-.5-1.47,1.81,1.81,0,0,0-2.54,0,2,2,0,0,0-.51,1.47v5.5h-1.79Z"/><path class="cls-2" d="M765.66,113.9h1.79v1h0a2.89,2.89,0,0,1,2.33-1.09,3,3,0,0,1,2,.81,3.23,3.23,0,0,1,.95,2.4v6.13H771v-5.5a2,2,0,0,0-.5-1.47,1.81,1.81,0,0,0-2.54,0,2,2,0,0,0-.51,1.47v5.5h-1.79Z"/><path class="cls-2" d="M778.08,118.5a8,8,0,0,1,.24-2.24,3.17,3.17,0,0,1,.74-1.29,3.4,3.4,0,0,1,1-.83,3.67,3.67,0,0,1,1.68-.36,3.8,3.8,0,0,1,1.71.37,3.21,3.21,0,0,1,1,.82,2.88,2.88,0,0,1,.75,1.29,8.59,8.59,0,0,1,.22,2.24,8.37,8.37,0,0,1-.22,2.22,3.31,3.31,0,0,1-.75,1.33,3.37,3.37,0,0,1-.43.4,1.89,1.89,0,0,1-.57.38,3.54,3.54,0,0,1-1.71.4,3.42,3.42,0,0,1-1.68-.4,3.49,3.49,0,0,1-1-.78,3.67,3.67,0,0,1-.73-1.33A7.84,7.84,0,0,1,778.08,118.5Zm5.58,0a8.37,8.37,0,0,0-.09-1.45,1.83,1.83,0,0,0-.35-.76,1.37,1.37,0,0,0-.59-.49,2,2,0,0,0-1.71,0,1.53,1.53,0,0,0-.6.49,2.11,2.11,0,0,0-.34.76,7.12,7.12,0,0,0-.1,1.43,6.89,6.89,0,0,0,.1,1.41,2.3,2.3,0,0,0,.34.8,2.11,2.11,0,0,0,.6.48,2,2,0,0,0,1.71,0,1.82,1.82,0,0,0,.59-.48,2,2,0,0,0,.35-.8A7.74,7.74,0,0,0,783.66,118.52Z"/><path class="cls-2" d="M790.83,111.09h1.79v2.81h1.31v1.42h-1.31v5.38c0,.47.2.69.64.68h.67v1.74H793a2.08,2.08,0,0,1-1.54-.6,2.19,2.19,0,0,1-.62-1.67v-5.53h-.9V113.9h.9Z"/><path class="cls-2" d="M798.93,110.16h1.79V112h-1.79Zm0,3.74h1.79v9.22h-1.79Z"/><path class="cls-2" d="M812.91,121.64a4.82,4.82,0,0,1-1.38,1.12,3.77,3.77,0,0,1-1.83.47,4,4,0,0,1-2.78-1.11,4.72,4.72,0,0,1-1.27-3.6,4.84,4.84,0,0,1,1.27-3.65,4,4,0,0,1,4.61-.64,4.37,4.37,0,0,1,1.38,1.16l-1.33,1.21a2.22,2.22,0,0,0-1.81-1c-1.53,0-2.31.94-2.33,2.89s.8,2.89,2.33,2.86a2.16,2.16,0,0,0,1.81-1Z"/><path class="cls-2" d="M818.85,119.21a2.2,2.2,0,0,0,.62,1.69,2,2,0,0,0,1.52.59,2.66,2.66,0,0,0,2-.9l1.3,1.15a4.2,4.2,0,0,1-3.22,1.49,4.62,4.62,0,0,1-1.38-.21,3.51,3.51,0,0,1-.65-.31,3.46,3.46,0,0,1-.63-.42,3.69,3.69,0,0,1-.92-1.44,5.85,5.85,0,0,1-.39-2.31,6.48,6.48,0,0,1,.34-2.28,4,4,0,0,1,.86-1.46,3.16,3.16,0,0,1,1.19-.78,3.76,3.76,0,0,1,1.29-.24,3.64,3.64,0,0,1,2.59,1,3.85,3.85,0,0,1,1.1,2.86v1.53Zm3.78-1.53a2.38,2.38,0,0,0-.56-1.63,1.79,1.79,0,0,0-1.33-.53,1.76,1.76,0,0,0-1.32.53,2.54,2.54,0,0,0-.57,1.63Z"/><path class="cls-2" d="M835,122.16a3,3,0,0,1-2.31,1.07,2.89,2.89,0,0,1-1.39-.35,3,3,0,0,1-1-.85,2.36,2.36,0,0,1-.49-1.18,18.64,18.64,0,0,1,0-4.72,2.33,2.33,0,0,1,.49-1.15,2.74,2.74,0,0,1,2.39-1.2,2.85,2.85,0,0,1,1.27.29,5.08,5.08,0,0,1,1,.8v-4.71h1.8v13H835Zm-1.76-6.53a1.78,1.78,0,0,0-1,.22,1.47,1.47,0,0,0-.54.66,3.36,3.36,0,0,0-.21.91,9.51,9.51,0,0,0-.06,1.08,8.77,8.77,0,0,0,.06,1,3.33,3.33,0,0,0,.21.94,1.58,1.58,0,0,0,.54.66,1.61,1.61,0,0,0,1,.25,1.65,1.65,0,0,0,1-.27,1.25,1.25,0,0,0,.51-.67,3.41,3.41,0,0,0,.23-.94c0-.34,0-.67,0-1s0-.7,0-1a3.28,3.28,0,0,0-.23-.91,1.28,1.28,0,0,0-.51-.68A1.72,1.72,0,0,0,833.28,115.63Z"/><path class="cls-2" d="M842.3,121.27h1.79v1.85H842.3Z"/><path class="cls-2" d="M173.28,153.85h8v1.85h-6.12v3.83h5.22v1.74h-5.22v5.54h-1.9Z"/><path class="cls-2" d="M185.66,157.58h1.8v1h0a3,3,0,0,1,4.21-.39l-1.31,1.61a1.87,1.87,0,0,0-1.19-.47,1.66,1.66,0,0,0-1.18.47,1.85,1.85,0,0,0-.56,1.47v5.56h-1.8Z"/><path class="cls-2" d="M195.07,162.19a8.14,8.14,0,0,1,.23-2.25,3.29,3.29,0,0,1,.74-1.29,3.36,3.36,0,0,1,1-.82,4.17,4.17,0,0,1,3.39,0,3.12,3.12,0,0,1,1,.83,2.9,2.9,0,0,1,.76,1.29,9.09,9.09,0,0,1,.21,2.24,8.91,8.91,0,0,1-.21,2.22,3.12,3.12,0,0,1-.76,1.32,3.22,3.22,0,0,1-.42.4,1.77,1.77,0,0,1-.58.38,3.4,3.4,0,0,1-1.71.4,3.36,3.36,0,0,1-1.68-.4,3.32,3.32,0,0,1-1-.78,3.56,3.56,0,0,1-.74-1.32A7.9,7.9,0,0,1,195.07,162.19Zm5.57,0a8.16,8.16,0,0,0-.09-1.44,1.75,1.75,0,0,0-.35-.77,1.31,1.31,0,0,0-.59-.49,1.94,1.94,0,0,0-.86-.19,2,2,0,0,0-.85.19,1.6,1.6,0,0,0-.6.49,2.15,2.15,0,0,0-.34.77,7.05,7.05,0,0,0-.1,1.43,6.71,6.71,0,0,0,.1,1.4,2.28,2.28,0,0,0,.34.81,2.24,2.24,0,0,0,.6.47,1.87,1.87,0,0,0,.85.2,1.82,1.82,0,0,0,.86-.2,1.7,1.7,0,0,0,.59-.47,1.85,1.85,0,0,0,.35-.81A7.66,7.66,0,0,0,200.64,162.2Z"/><path class="cls-2" d="M207.63,157.58h1.8v1h0a3,3,0,0,1,2.41-1.09,3.54,3.54,0,0,1,1.55.32,5.17,5.17,0,0,1,1.06.88,3.62,3.62,0,0,1,2.9-1.2,3.19,3.19,0,0,1,2.1.8,3.1,3.1,0,0,1,1,2.4v6.14h-1.8v-5.5a2,2,0,0,0-.51-1.48,1.83,1.83,0,0,0-1.33-.52,1.86,1.86,0,0,0-1.34.52,1.93,1.93,0,0,0-.53,1.48v5.5h-1.8v-5.5a2,2,0,0,0-.51-1.48,1.86,1.86,0,0,0-1.34-.52,1.82,1.82,0,0,0-1.33.52,1.93,1.93,0,0,0-.54,1.48v5.5h-1.8Z"/><path class="cls-2" d="M240.34,165.32a5,5,0,0,1-1.37,1.13,3.77,3.77,0,0,1-1.84.46,4,4,0,0,1-2.78-1.11,4.76,4.76,0,0,1-1.27-3.6,4.82,4.82,0,0,1,1.28-3.64,3.83,3.83,0,0,1,2.77-1.09,4,4,0,0,1,1.84.44,4.73,4.73,0,0,1,1.37,1.16L239,160.29a2.25,2.25,0,0,0-1.82-1c-1.53,0-2.3.94-2.32,2.89s.79,2.9,2.32,2.87a2.21,2.21,0,0,0,1.82-1Z"/><path class="cls-2" d="M244.5,162.19a8.14,8.14,0,0,1,.23-2.25,3.29,3.29,0,0,1,.74-1.29,3.36,3.36,0,0,1,1-.82,4.17,4.17,0,0,1,3.39,0,3.12,3.12,0,0,1,1,.83,2.9,2.9,0,0,1,.76,1.29,9.09,9.09,0,0,1,.21,2.24,8.91,8.91,0,0,1-.21,2.22,3.12,3.12,0,0,1-.76,1.32,3.22,3.22,0,0,1-.42.4,1.77,1.77,0,0,1-.58.38,3.4,3.4,0,0,1-1.71.4,3.36,3.36,0,0,1-1.68-.4,3.44,3.44,0,0,1-1-.78,3.56,3.56,0,0,1-.74-1.32A7.9,7.9,0,0,1,244.5,162.19Zm5.57,0a8.16,8.16,0,0,0-.09-1.44,1.75,1.75,0,0,0-.35-.77,1.31,1.31,0,0,0-.59-.49,1.94,1.94,0,0,0-.86-.19,2,2,0,0,0-.85.19,1.69,1.69,0,0,0-.6.49,2.15,2.15,0,0,0-.34.77,7.05,7.05,0,0,0-.1,1.43,6.71,6.71,0,0,0,.1,1.4,2.28,2.28,0,0,0,.34.81,2.41,2.41,0,0,0,.6.47,1.87,1.87,0,0,0,.85.2,1.82,1.82,0,0,0,.86-.2,1.7,1.7,0,0,0,.59-.47,1.85,1.85,0,0,0,.35-.81A7.66,7.66,0,0,0,250.07,162.2Z"/><path class="cls-2" d="M257.14,157.58h1.79v1h0a2.85,2.85,0,0,1,2.33-1.09,3.05,3.05,0,0,1,2,.8,3.23,3.23,0,0,1,.95,2.4v6.14h-1.79v-5.5a2,2,0,0,0-.5-1.48,1.81,1.81,0,0,0-2.54,0,2,2,0,0,0-.51,1.48v5.5h-1.79Z"/><path class="cls-2" d="M276.58,165.32a4.86,4.86,0,0,1-1.38,1.13,3.73,3.73,0,0,1-1.83.46,4,4,0,0,1-2.78-1.11,4.76,4.76,0,0,1-1.27-3.6,4.82,4.82,0,0,1,1.28-3.64,3.83,3.83,0,0,1,2.77-1.09,4,4,0,0,1,1.84.44,4.73,4.73,0,0,1,1.37,1.16l-1.32,1.22a2.25,2.25,0,0,0-1.82-1c-1.53,0-2.3.94-2.32,2.89s.79,2.9,2.32,2.87a2.21,2.21,0,0,0,1.82-1Z"/><path class="cls-2" d="M282.53,162.9a2.22,2.22,0,0,0,.62,1.69,2,2,0,0,0,1.51.58,2.65,2.65,0,0,0,2-.9l1.3,1.15a4.11,4.11,0,0,1-3.22,1.49,4.51,4.51,0,0,1-1.37-.21,3.31,3.31,0,0,1-.66-.31A3.14,3.14,0,0,1,282,166a3.65,3.65,0,0,1-.92-1.44,5.79,5.79,0,0,1-.39-2.31,6.66,6.66,0,0,1,.34-2.27,3.87,3.87,0,0,1,.86-1.46,3.27,3.27,0,0,1,1.2-.78,3.68,3.68,0,0,1,1.29-.24,3.62,3.62,0,0,1,2.59,1,3.85,3.85,0,0,1,1.09,2.86v1.53Zm3.78-1.53a2.46,2.46,0,0,0-.56-1.64,2,2,0,0,0-2.66,0,2.52,2.52,0,0,0-.56,1.64Z"/><path class="cls-2" d="M293.37,157.58h1.8v1a3,3,0,0,1,2.3-1.07,2.75,2.75,0,0,1,2.4,1.2,2.49,2.49,0,0,1,.51,1.15,14.52,14.52,0,0,1,.13,2.38,14.33,14.33,0,0,1-.13,2.35,2.52,2.52,0,0,1-.51,1.16,2.69,2.69,0,0,1-1,.86,3,3,0,0,1-1.43.34,2.39,2.39,0,0,1-1.23-.31,3.59,3.59,0,0,1-1.07-.77v4.71h-1.8Zm3.56,7.49a1.84,1.84,0,0,0,1-.25,1.53,1.53,0,0,0,.53-.66,3.73,3.73,0,0,0,.23-.93c0-.33,0-.68,0-1s0-.72,0-1.08a3.35,3.35,0,0,0-.23-.92,1.33,1.33,0,0,0-.53-.66,1.94,1.94,0,0,0-1-.23,1.52,1.52,0,0,0-1.5.94,3.67,3.67,0,0,0-.21.91c0,.34-.05.69-.05,1s0,.66.05,1a3.71,3.71,0,0,0,.21.94,1.53,1.53,0,0,0,.55.68A1.51,1.51,0,0,0,296.93,165.07Z"/><path class="cls-2" d="M306,154.77h1.8v2.81h1.31V159h-1.31v5.38c0,.47.2.7.63.69h.68v1.74h-.94a2.07,2.07,0,0,1-1.55-.61,2.17,2.17,0,0,1-.62-1.67V159h-.9v-1.42h.9Z"/><path class="cls-2" d="M321.63,154.77h1.8v2.81h1.3V159h-1.3v5.38c0,.47.2.7.63.69h.67v1.74h-.93a2.07,2.07,0,0,1-1.55-.61,2.17,2.17,0,0,1-.62-1.67V159h-.9v-1.42h.9Z"/><path class="cls-2" d="M329.23,162.19a8.08,8.08,0,0,1,.24-2.25,3.17,3.17,0,0,1,.74-1.29,3.24,3.24,0,0,1,1-.82,3.67,3.67,0,0,1,1.68-.36,3.81,3.81,0,0,1,1.71.36,3.24,3.24,0,0,1,1,.83,2.88,2.88,0,0,1,.75,1.29,8.54,8.54,0,0,1,.22,2.24,8.37,8.37,0,0,1-.22,2.22,3.21,3.21,0,0,1-.75,1.32,2.78,2.78,0,0,1-.43.4,1.72,1.72,0,0,1-.57.38,3.43,3.43,0,0,1-1.71.4,3.31,3.31,0,0,1-1.68-.4,3.49,3.49,0,0,1-1-.78,3.54,3.54,0,0,1-.73-1.32A7.84,7.84,0,0,1,329.23,162.19Zm5.58,0a8.16,8.16,0,0,0-.09-1.44,1.87,1.87,0,0,0-.35-.77,1.37,1.37,0,0,0-.59-.49,2,2,0,0,0-.86-.19,2,2,0,0,0-.85.19,1.53,1.53,0,0,0-.6.49,2.15,2.15,0,0,0-.34.77,7.05,7.05,0,0,0-.1,1.43,6.71,6.71,0,0,0,.1,1.4,2.28,2.28,0,0,0,.34.81,2.09,2.09,0,0,0,.6.47,1.93,1.93,0,0,0,1.71,0,1.8,1.8,0,0,0,.59-.47,2,2,0,0,0,.35-.81A7.66,7.66,0,0,0,334.81,162.2Z"/><path class="cls-2" d="M355.91,165.32a4.86,4.86,0,0,1-1.38,1.13,3.76,3.76,0,0,1-1.83.46,4,4,0,0,1-2.78-1.11,4.68,4.68,0,0,1-1.27-3.6,4.78,4.78,0,0,1,1.27-3.64,3.85,3.85,0,0,1,2.78-1.09,4,4,0,0,1,1.83.44,4.64,4.64,0,0,1,1.38,1.16l-1.33,1.22a2.24,2.24,0,0,0-1.82-1c-1.52,0-2.3.94-2.32,2.89s.8,2.9,2.32,2.87a2.2,2.2,0,0,0,1.82-1Z"/><path class="cls-2" d="M360.5,157.58h1.8v1h0a3,3,0,0,1,4.21-.39l-1.31,1.61a1.87,1.87,0,0,0-1.18-.47,1.65,1.65,0,0,0-1.18.47,1.82,1.82,0,0,0-.57,1.47v5.56h-1.8Z"/><path class="cls-2" d="M371.7,162.9a2.22,2.22,0,0,0,.62,1.69,2,2,0,0,0,1.52.58,2.62,2.62,0,0,0,2-.9l1.3,1.15a4.1,4.1,0,0,1-3.21,1.49,4.62,4.62,0,0,1-1.38-.21,3.51,3.51,0,0,1-.65-.31,2.66,2.66,0,0,1-.63-.42,3.55,3.55,0,0,1-.92-1.44,5.79,5.79,0,0,1-.39-2.31,6.68,6.68,0,0,1,.33-2.27,4,4,0,0,1,.86-1.46,3.27,3.27,0,0,1,1.2-.78,3.76,3.76,0,0,1,1.29-.24,3.6,3.6,0,0,1,2.59,1,3.81,3.81,0,0,1,1.09,2.86v1.53Zm3.78-1.53a2.41,2.41,0,0,0-.56-1.64,2,2,0,0,0-2.66,0,2.57,2.57,0,0,0-.56,1.64Z"/><path class="cls-2" d="M387.24,166h0a1.56,1.56,0,0,1-.78.69,3.47,3.47,0,0,1-1.43.23,3.2,3.2,0,0,1-2.3-.81,2.6,2.6,0,0,1-.85-2,2.63,2.63,0,0,1,.74-1.93,2.87,2.87,0,0,1,2.16-.8h2.49v-1c0-.81-.6-1.21-1.83-1.18a3.05,3.05,0,0,0-1.06.14,1.31,1.31,0,0,0-.64.57l-1.41-1.11a3.42,3.42,0,0,1,3-1.34,4.61,4.61,0,0,1,2.69.65,2.74,2.74,0,0,1,1,2.39v6.3h-1.79Zm0-3.09h-2.15q-1.57,0-1.56,1.11a1,1,0,0,0,.41.8,1.86,1.86,0,0,0,1.28.36,3.16,3.16,0,0,0,1.6-.27c.28-.2.42-.64.42-1.34Z"/><path class="cls-2" d="M394.85,154.77h1.79v2.81H398V159h-1.31v5.38c0,.47.2.7.64.69H398v1.74H397a2.07,2.07,0,0,1-1.55-.61,2.17,2.17,0,0,1-.62-1.67V159H394v-1.42h.9Z"/><path class="cls-2" d="M403,153.85h1.79v1.85H403Zm0,3.73h1.79v9.23H403Z"/><path class="cls-2" d="M409.91,162.19a8.55,8.55,0,0,1,.23-2.25,3.29,3.29,0,0,1,.74-1.29,3.36,3.36,0,0,1,1-.82,3.73,3.73,0,0,1,1.68-.36,3.82,3.82,0,0,1,1.72.36,3.08,3.08,0,0,1,1,.83,2.9,2.9,0,0,1,.76,1.29,9.09,9.09,0,0,1,.21,2.24,8.91,8.91,0,0,1-.21,2.22,3.12,3.12,0,0,1-.76,1.32,2.31,2.31,0,0,1-.42.4,1.77,1.77,0,0,1-.58.38,3.79,3.79,0,0,1-3.39,0,3.44,3.44,0,0,1-1-.78,3.56,3.56,0,0,1-.74-1.32A8.3,8.3,0,0,1,409.91,162.19Zm5.57,0a8.16,8.16,0,0,0-.09-1.44A1.65,1.65,0,0,0,415,160a1.31,1.31,0,0,0-.59-.49,1.91,1.91,0,0,0-.86-.19,2,2,0,0,0-.84.19,1.64,1.64,0,0,0-.61.49,2.14,2.14,0,0,0-.33.77,6.89,6.89,0,0,0-.11,1.43,6.55,6.55,0,0,0,.11,1.4,2.26,2.26,0,0,0,.33.81,2.29,2.29,0,0,0,.61.47,1.83,1.83,0,0,0,.84.2,1.79,1.79,0,0,0,.86-.2,1.7,1.7,0,0,0,.59-.47,1.75,1.75,0,0,0,.35-.81A7.66,7.66,0,0,0,415.48,162.2Z"/><path class="cls-2" d="M422.55,157.58h1.79v1h0a2.83,2.83,0,0,1,2.32-1.09,3,3,0,0,1,2,.8,3.19,3.19,0,0,1,.95,2.4v6.14h-1.79v-5.5a2,2,0,0,0-.5-1.48,1.81,1.81,0,0,0-2.54,0,2,2,0,0,0-.51,1.48v5.5h-1.79Z"/><path class="cls-2" d="M435.47,165h1.8v1.85l-1.8,1.35Z"/><path class="cls-2" d="M449.89,162.19a8.55,8.55,0,0,1,.23-2.25,3.7,3.7,0,0,1,1.78-2.11,3.67,3.67,0,0,1,1.68-.36,3.81,3.81,0,0,1,1.71.36,3.24,3.24,0,0,1,1,.83A3,3,0,0,1,457,160a8.54,8.54,0,0,1,.22,2.24,8.37,8.37,0,0,1-.22,2.22,3.12,3.12,0,0,1-.76,1.32,2.31,2.31,0,0,1-.42.4,1.83,1.83,0,0,1-.57.38,3.44,3.44,0,0,1-1.72.4,3.3,3.3,0,0,1-1.67-.4,3.37,3.37,0,0,1-1-.78,3.56,3.56,0,0,1-.74-1.32A8.3,8.3,0,0,1,449.89,162.19Zm5.57,0a9.59,9.59,0,0,0-.08-1.44A1.77,1.77,0,0,0,455,160a1.29,1.29,0,0,0-.58-.49,2,2,0,0,0-1.71,0,1.64,1.64,0,0,0-.61.49,2.33,2.33,0,0,0-.33.77,6.89,6.89,0,0,0-.11,1.43,6.55,6.55,0,0,0,.11,1.4,2.46,2.46,0,0,0,.33.81,2.29,2.29,0,0,0,.61.47,1.93,1.93,0,0,0,1.71,0,1.66,1.66,0,0,0,.58-.47,1.87,1.87,0,0,0,.36-.81A9,9,0,0,0,455.46,162.2Z"/><path class="cls-2" d="M462.53,157.58h1.79v5.5a2,2,0,0,0,.51,1.46,1.7,1.7,0,0,0,1.28.53,1.65,1.65,0,0,0,1.26-.53,2,2,0,0,0,.5-1.46v-5.5h1.8v9.23h-1.8v-1h0a2.83,2.83,0,0,1-2.32,1.09,3,3,0,0,1-2-.83,2.91,2.91,0,0,1-1-2.36Z"/><path class="cls-2" d="M475.4,157.58h1.8v1h0a2.85,2.85,0,0,1,2.33-1.09,2.81,2.81,0,0,1,1.87.7l-1.31,1.61a1.83,1.83,0,0,0-1.18-.47,1.66,1.66,0,0,0-1.18.47,1.85,1.85,0,0,0-.56,1.47v5.56h-1.8Z"/><path class="cls-2" d="M493.3,164a3.67,3.67,0,0,0,2.83,1.18,2.32,2.32,0,0,0,1.27-.31,1,1,0,0,0,.49-.87.78.78,0,0,0-.29-.69,1.58,1.58,0,0,0-.81-.23l-1.58-.14a3,3,0,0,1-1.84-.78,2.41,2.41,0,0,1-.74-1.84,2.5,2.5,0,0,1,1-2.13,3.74,3.74,0,0,1,2.36-.71,6.15,6.15,0,0,1,1.11.08,6.32,6.32,0,0,1,.93.24,5.56,5.56,0,0,1,1.48.94l-1.12,1.34a5.46,5.46,0,0,0-1.09-.64,3.56,3.56,0,0,0-1.31-.22,1.7,1.7,0,0,0-1.18.31,1,1,0,0,0-.36.8.63.63,0,0,0,.27.54,1.55,1.55,0,0,0,.91.33l1.49.12a2.75,2.75,0,0,1,2,.87,3,3,0,0,1,.57,1.9,2.41,2.41,0,0,1-1.06,2.07,4.46,4.46,0,0,1-2.64.76,5.61,5.61,0,0,1-3.94-1.65Z"/><path class="cls-2" d="M505,154.77h1.8v2.81h1.31V159h-1.31v5.38c0,.47.2.7.64.69h.67v1.74h-.94a2.07,2.07,0,0,1-1.55-.61,2.17,2.17,0,0,1-.62-1.67V159h-.9v-1.42h.9Z"/><path class="cls-2" d="M513,157.58h1.79v5.5a2,2,0,0,0,.51,1.46,1.69,1.69,0,0,0,1.28.53,1.66,1.66,0,0,0,1.26-.53,2.05,2.05,0,0,0,.5-1.46v-5.5h1.79v9.23h-1.79v-1h0a2.84,2.84,0,0,1-2.32,1.09,3,3,0,0,1-2-.83,2.91,2.91,0,0,1-1-2.36Z"/><path class="cls-2" d="M531.23,165.84a3,3,0,0,1-2.31,1.07,2.89,2.89,0,0,1-1.39-.34,3.07,3.07,0,0,1-1-.86,2.32,2.32,0,0,1-.49-1.18,18.56,18.56,0,0,1,0-4.71,2.29,2.29,0,0,1,.49-1.15,3,3,0,0,1,3.66-.91,5,5,0,0,1,1,.79v-4.7H533v13h-1.8Zm-1.76-6.53a1.77,1.77,0,0,0-1,.23,1.47,1.47,0,0,0-.54.66,3.27,3.27,0,0,0-.21.91,9.51,9.51,0,0,0-.06,1.08,8.47,8.47,0,0,0,.06,1,3.4,3.4,0,0,0,.21.95,1.72,1.72,0,0,0,.54.66,1.69,1.69,0,0,0,1,.25,1.65,1.65,0,0,0,1-.27,1.28,1.28,0,0,0,.51-.68,3.32,3.32,0,0,0,.23-.94c0-.33,0-.67,0-1s0-.7,0-1a3.28,3.28,0,0,0-.23-.91,1.32,1.32,0,0,0-.51-.68A1.72,1.72,0,0,0,529.47,159.31Z"/><path class="cls-2" d="M538.49,153.85h1.79v1.85h-1.79Zm0,3.73h1.79v9.23h-1.79Z"/><path class="cls-2" d="M545.45,162.19a8.14,8.14,0,0,1,.23-2.25,3.29,3.29,0,0,1,.74-1.29,3.36,3.36,0,0,1,1-.82,4.17,4.17,0,0,1,3.39,0,3.12,3.12,0,0,1,1,.83,2.9,2.9,0,0,1,.76,1.29,9.09,9.09,0,0,1,.21,2.24,8.91,8.91,0,0,1-.21,2.22,3.12,3.12,0,0,1-.76,1.32,3.22,3.22,0,0,1-.42.4,1.77,1.77,0,0,1-.58.38,3.4,3.4,0,0,1-1.71.4,3.36,3.36,0,0,1-1.68-.4,3.32,3.32,0,0,1-1-.78,3.56,3.56,0,0,1-.74-1.32A7.9,7.9,0,0,1,545.45,162.19Zm5.57,0a8.16,8.16,0,0,0-.09-1.44,1.75,1.75,0,0,0-.35-.77,1.31,1.31,0,0,0-.59-.49,1.94,1.94,0,0,0-.86-.19,2,2,0,0,0-.85.19,1.6,1.6,0,0,0-.6.49,2.15,2.15,0,0,0-.34.77,7.05,7.05,0,0,0-.1,1.43,6.71,6.71,0,0,0,.1,1.4,2.28,2.28,0,0,0,.34.81,2.24,2.24,0,0,0,.6.47,1.87,1.87,0,0,0,.85.2,1.82,1.82,0,0,0,.86-.2,1.7,1.7,0,0,0,.59-.47,1.85,1.85,0,0,0,.35-.81A7.66,7.66,0,0,0,551,162.2Z"/><path class="cls-2" d="M565.54,153.85h1.8v4.71h0a2.84,2.84,0,0,1,2.32-1.09,3,3,0,0,1,2,.8,3.2,3.2,0,0,1,1,2.4v6.14h-1.8v-5.5a2,2,0,0,0-.49-1.48,1.81,1.81,0,0,0-2.54,0,2,2,0,0,0-.51,1.48v5.5h-1.8Z"/><path class="cls-2" d="M583.11,166h0a1.49,1.49,0,0,1-.77.69,3.5,3.5,0,0,1-1.43.23,3.21,3.21,0,0,1-2.31-.81,2.64,2.64,0,0,1-.85-2,2.67,2.67,0,0,1,.74-1.93,2.91,2.91,0,0,1,2.17-.8h2.49v-1c0-.81-.6-1.21-1.84-1.18a3.09,3.09,0,0,0-1.06.14,1.29,1.29,0,0,0-.63.57l-1.41-1.11a3.41,3.41,0,0,1,3-1.34,4.61,4.61,0,0,1,2.69.65,2.74,2.74,0,0,1,1,2.39v6.3h-1.79Zm0-3.09H581c-1.05,0-1.56.39-1.55,1.11a1,1,0,0,0,.4.8,1.88,1.88,0,0,0,1.29.36,3.14,3.14,0,0,0,1.59-.27c.29-.2.43-.64.43-1.34Z"/><path class="cls-2" d="M590.87,164a3.67,3.67,0,0,0,2.83,1.18,2.32,2.32,0,0,0,1.27-.31,1,1,0,0,0,.49-.87.78.78,0,0,0-.29-.69,1.55,1.55,0,0,0-.8-.23l-1.59-.14a3,3,0,0,1-1.84-.78,2.41,2.41,0,0,1-.74-1.84,2.53,2.53,0,0,1,1-2.13,3.74,3.74,0,0,1,2.36-.71,6.33,6.33,0,0,1,1.12.08,6.52,6.52,0,0,1,.92.24,5.56,5.56,0,0,1,1.48.94l-1.11,1.34a5.53,5.53,0,0,0-1.1-.64,3.56,3.56,0,0,0-1.31-.22,1.72,1.72,0,0,0-1.18.31,1,1,0,0,0-.36.8.63.63,0,0,0,.27.54,1.56,1.56,0,0,0,.92.33l1.48.12a2.75,2.75,0,0,1,2,.87,3,3,0,0,1,.58,1.9,2.46,2.46,0,0,1-1.06,2.07,4.47,4.47,0,0,1-2.65.76,5.58,5.58,0,0,1-3.93-1.65Z"/><path class="cls-2" d="M614.92,165.84a3,3,0,0,1-2.31,1.07,2.77,2.77,0,0,1-1.44-.38,3.12,3.12,0,0,1-.92-.75,2.84,2.84,0,0,1-.51-1.11,12,12,0,0,1-.16-2.47,12.55,12.55,0,0,1,.16-2.52,2.82,2.82,0,0,1,.51-1.09,2.89,2.89,0,0,1,.92-.78,3.07,3.07,0,0,1,3.75.75v-1h1.79v9a3.73,3.73,0,0,1-3.87,4.07,4.07,4.07,0,0,1-3.1-1.55l1.4-1.14a3,3,0,0,0,.79.56,2.06,2.06,0,0,0,2.42-.25,2,2,0,0,0,.57-1.48Zm-3.55-3.64a9.7,9.7,0,0,0,.07,1.47,1.44,1.44,0,0,0,.28.69,1.77,1.77,0,0,0,.56.46,1.49,1.49,0,0,0,.87.25,1.52,1.52,0,0,0,.88-.25,1.68,1.68,0,0,0,.54-.46,1.46,1.46,0,0,0,.3-.69c0-.27,0-.76,0-1.47s0-1.22,0-1.49a1.38,1.38,0,0,0-.3-.68,2,2,0,0,0-.54-.49,1.9,1.9,0,0,0-.88-.23,1.86,1.86,0,0,0-.87.23,2.13,2.13,0,0,0-.56.49,1.36,1.36,0,0,0-.28.68A9.92,9.92,0,0,0,611.37,162.2Z"/><path class="cls-2" d="M622,162.19a8.14,8.14,0,0,1,.23-2.25,3.29,3.29,0,0,1,.74-1.29,3.36,3.36,0,0,1,1-.82,4.17,4.17,0,0,1,3.39,0,3.12,3.12,0,0,1,1,.83,2.9,2.9,0,0,1,.76,1.29,9.09,9.09,0,0,1,.21,2.24,8.91,8.91,0,0,1-.21,2.22,3.12,3.12,0,0,1-.76,1.32,3.22,3.22,0,0,1-.42.4,1.77,1.77,0,0,1-.58.38,3.4,3.4,0,0,1-1.71.4,3.36,3.36,0,0,1-1.68-.4,3.44,3.44,0,0,1-1-.78,3.56,3.56,0,0,1-.74-1.32A7.9,7.9,0,0,1,622,162.19Zm5.57,0a8.16,8.16,0,0,0-.09-1.44,1.75,1.75,0,0,0-.35-.77,1.31,1.31,0,0,0-.59-.49,1.94,1.94,0,0,0-.86-.19,2,2,0,0,0-.85.19,1.69,1.69,0,0,0-.6.49,2.15,2.15,0,0,0-.34.77,7.05,7.05,0,0,0-.1,1.43,6.71,6.71,0,0,0,.1,1.4,2.28,2.28,0,0,0,.34.81,2.41,2.41,0,0,0,.6.47,1.87,1.87,0,0,0,.85.2,1.82,1.82,0,0,0,.86-.2,1.7,1.7,0,0,0,.59-.47,1.85,1.85,0,0,0,.35-.81A7.66,7.66,0,0,0,627.57,162.2Z"/><path class="cls-2" d="M634.74,154.77h1.8v2.81h1.3V159h-1.3v5.38c0,.47.2.7.63.69h.67v1.74h-.93a2.07,2.07,0,0,1-1.55-.61,2.17,2.17,0,0,1-.62-1.67V159h-.9v-1.42h.9Z"/><path class="cls-2" d="M649,157.58h1.9L653,164h0l2.11-6.46H657l-3.84,11.14a2.71,2.71,0,0,1-1,1.44,3,3,0,0,1-1.5.38h-.59V168.8h.52a1.16,1.16,0,0,0,.65-.2,1,1,0,0,0,.43-.6l.49-1.55Z"/><path class="cls-2" d="M660.87,162.19a8.55,8.55,0,0,1,.23-2.25,3.29,3.29,0,0,1,.74-1.29,3.36,3.36,0,0,1,1-.82,3.73,3.73,0,0,1,1.68-.36,3.82,3.82,0,0,1,1.72.36,3.08,3.08,0,0,1,1,.83A2.9,2.9,0,0,1,668,160a9.09,9.09,0,0,1,.21,2.24,8.91,8.91,0,0,1-.21,2.22,3.12,3.12,0,0,1-.76,1.32,2.31,2.31,0,0,1-.42.4,1.77,1.77,0,0,1-.58.38,3.79,3.79,0,0,1-3.39,0,3.44,3.44,0,0,1-1-.78,3.56,3.56,0,0,1-.74-1.32A7.9,7.9,0,0,1,660.87,162.19Zm5.57,0a8.16,8.16,0,0,0-.09-1.44A1.65,1.65,0,0,0,666,160a1.31,1.31,0,0,0-.59-.49,1.91,1.91,0,0,0-.86-.19,2,2,0,0,0-.85.19,1.69,1.69,0,0,0-.6.49,2.34,2.34,0,0,0-.34.77,7.88,7.88,0,0,0-.1,1.43,7.5,7.5,0,0,0,.1,1.4,2.47,2.47,0,0,0,.34.81,2.41,2.41,0,0,0,.6.47,1.9,1.9,0,0,0,.85.2,1.79,1.79,0,0,0,.86-.2,1.7,1.7,0,0,0,.59-.47,1.75,1.75,0,0,0,.35-.81A7.66,7.66,0,0,0,666.44,162.2Z"/><path class="cls-2" d="M673.51,157.58h1.79v5.5a2,2,0,0,0,.51,1.46,1.79,1.79,0,0,0,2.54,0,2.05,2.05,0,0,0,.5-1.46v-5.5h1.79v9.23h-1.79v-1h0a2.82,2.82,0,0,1-2.31,1.09,3,3,0,0,1-2-.83,2.91,2.91,0,0,1-1-2.36Z"/><path class="cls-2" d="M700.41,165.32a4.86,4.86,0,0,1-1.38,1.13,3.73,3.73,0,0,1-1.83.46,4,4,0,0,1-2.78-1.11,4.72,4.72,0,0,1-1.27-3.6,4.82,4.82,0,0,1,1.27-3.64,3.87,3.87,0,0,1,2.78-1.09,4,4,0,0,1,1.84.44,4.73,4.73,0,0,1,1.37,1.16l-1.32,1.22a2.25,2.25,0,0,0-1.82-1c-1.53,0-2.3.94-2.32,2.89s.79,2.9,2.32,2.87a2.21,2.21,0,0,0,1.82-1Z"/><path class="cls-2" d="M704.56,162.19a8.08,8.08,0,0,1,.24-2.25,3.17,3.17,0,0,1,.74-1.29,3.24,3.24,0,0,1,1-.82,4.17,4.17,0,0,1,3.39,0,3.12,3.12,0,0,1,1,.83,2.9,2.9,0,0,1,.76,1.29,9.09,9.09,0,0,1,.21,2.24,8.91,8.91,0,0,1-.21,2.22,3.68,3.68,0,0,1-1.18,1.72,1.77,1.77,0,0,1-.58.38,3.43,3.43,0,0,1-1.71.4,3.36,3.36,0,0,1-1.68-.4,3.32,3.32,0,0,1-1-.78,3.43,3.43,0,0,1-.74-1.32A7.84,7.84,0,0,1,704.56,162.19Zm5.58,0a8.16,8.16,0,0,0-.09-1.44,1.75,1.75,0,0,0-.35-.77,1.31,1.31,0,0,0-.59-.49,1.94,1.94,0,0,0-.86-.19,2,2,0,0,0-.85.19,1.6,1.6,0,0,0-.6.49,2.15,2.15,0,0,0-.34.77,7.05,7.05,0,0,0-.1,1.43,6.71,6.71,0,0,0,.1,1.4,2.28,2.28,0,0,0,.34.81,2.24,2.24,0,0,0,.6.47,1.87,1.87,0,0,0,.85.2,1.82,1.82,0,0,0,.86-.2,1.7,1.7,0,0,0,.59-.47,1.85,1.85,0,0,0,.35-.81A7.66,7.66,0,0,0,710.14,162.2Z"/><path class="cls-2" d="M715.93,157.58h1.9l2.1,6.47h0l2.09-6.47H724l-3.28,9.23h-1.48Z"/><path class="cls-2" d="M729.62,162.9a2.22,2.22,0,0,0,.62,1.69,2,2,0,0,0,1.52.58,2.62,2.62,0,0,0,2-.9l1.3,1.15a4.11,4.11,0,0,1-3.22,1.49,4.51,4.51,0,0,1-1.37-.21,3.31,3.31,0,0,1-.66-.31,3.14,3.14,0,0,1-.63-.42,3.77,3.77,0,0,1-.92-1.44,6,6,0,0,1-.38-2.31,6.68,6.68,0,0,1,.33-2.27,4,4,0,0,1,.86-1.46,3.27,3.27,0,0,1,1.2-.78,3.68,3.68,0,0,1,1.29-.24,3.62,3.62,0,0,1,2.59,1,3.81,3.81,0,0,1,1.09,2.86v1.53Zm3.78-1.53a2.41,2.41,0,0,0-.56-1.64,2,2,0,0,0-2.66,0,2.52,2.52,0,0,0-.56,1.64Z"/><path class="cls-2" d="M740.47,157.58h1.79v1h0a3,3,0,0,1,4.2-.39l-1.31,1.61a1.85,1.85,0,0,0-1.18-.47,1.66,1.66,0,0,0-1.18.47,1.82,1.82,0,0,0-.57,1.47v5.56h-1.79Z"/><path class="cls-2" d="M751.66,162.9a2.22,2.22,0,0,0,.62,1.69,2,2,0,0,0,1.52.58,2.66,2.66,0,0,0,2-.9l1.3,1.15a4.14,4.14,0,0,1-3.22,1.49,4.62,4.62,0,0,1-1.38-.21,3.51,3.51,0,0,1-.65-.31,2.66,2.66,0,0,1-.63-.42,3.55,3.55,0,0,1-.92-1.44,5.79,5.79,0,0,1-.39-2.31,6.42,6.42,0,0,1,.34-2.27,3.87,3.87,0,0,1,.86-1.46,3.16,3.16,0,0,1,1.19-.78,3.76,3.76,0,0,1,1.29-.24,3.6,3.6,0,0,1,2.59,1,3.86,3.86,0,0,1,1.1,2.86v1.53Zm3.78-1.53a2.41,2.41,0,0,0-.56-1.64,2,2,0,0,0-2.66,0,2.63,2.63,0,0,0-.56,1.64Z"/><path class="cls-2" d="M767.85,165.84a3,3,0,0,1-2.31,1.07,2.89,2.89,0,0,1-1.39-.34,3.07,3.07,0,0,1-1-.86,2.32,2.32,0,0,1-.49-1.18,18.56,18.56,0,0,1,0-4.71,2.29,2.29,0,0,1,.49-1.15,3,3,0,0,1,3.66-.91,5,5,0,0,1,1,.79v-4.7h1.8v13h-1.8Zm-1.76-6.53a1.77,1.77,0,0,0-1,.23,1.47,1.47,0,0,0-.54.66,3.27,3.27,0,0,0-.21.91,9.51,9.51,0,0,0-.06,1.08,8.47,8.47,0,0,0,.06,1,3.4,3.4,0,0,0,.21.95,1.72,1.72,0,0,0,.54.66,1.69,1.69,0,0,0,1,.25,1.65,1.65,0,0,0,1-.27,1.28,1.28,0,0,0,.51-.68,3.32,3.32,0,0,0,.23-.94c0-.33,0-.67,0-1s0-.7,0-1a3.28,3.28,0,0,0-.23-.91,1.32,1.32,0,0,0-.51-.68A1.72,1.72,0,0,0,766.09,159.31Z"/><path class="cls-2" d="M775.11,165h1.79v1.85h-1.79Z"/></g></g></svg>