<svg xmlns="http://www.w3.org/2000/svg" viewBox="0 0 1228.38 228.27"><defs><style>.cls-1{fill:#e6e7d8;stroke:#231f20;stroke-linecap:round;stroke-linejoin:round;}.cls-2{fill:#191919;}</style></defs><g id="Layer_2" data-name="Layer 2"><g id="Layer_1-2" data-name="Layer 1"><path class="cls-1" d="M35.89,227.77,997.31,172.6l110.43,21L1227.88,69.23l-482.18-14q-8.13-25.57-16.24-51.16L.5.5Q18.2,114.14,35.89,227.77Z"/><path class="cls-2" d="M89.44,53.63H94a7.38,7.38,0,0,1,1.43.14,3.84,3.84,0,0,1,1.4.77,3.15,3.15,0,0,1,1,1.24,4.1,4.1,0,0,1,.39,1.85,4,4,0,0,1-1,2.62,3.64,3.64,0,0,1-2.94,1.28h-2.9v5.06h-1.9Zm1.9,6.06h2.82a2,2,0,0,0,1.6-.68,2.26,2.26,0,0,0,.51-1.43,2.57,2.57,0,0,0-.21-1.1,1.58,1.58,0,0,0-.6-.63,2.33,2.33,0,0,0-1.37-.37H91.34Z"/><path class="cls-2" d="M103.17,57.36H105v1h0a2.94,2.94,0,0,1,4.2-.38l-1.31,1.6a1.84,1.84,0,0,0-1.18-.46,1.65,1.65,0,0,0-1.18.46A1.82,1.82,0,0,0,105,61v5.56h-1.79Z"/><path class="cls-2" d="M113.4,53.63h1.79v1.85H113.4Zm0,3.73h1.79v9.23H113.4Z"/><path class="cls-2" d="M120.8,57.36h1.8v1h0A2.83,2.83,0,0,1,125,57.25a3,3,0,0,1,2,.81,3.16,3.16,0,0,1,1,2.4v6.13h-1.8v-5.5a2,2,0,0,0-.5-1.48,1.67,1.67,0,0,0-1.26-.51,1.73,1.73,0,0,0-1.28.51,2,2,0,0,0-.5,1.48v5.5h-1.8Z"/><path class="cls-2" d="M133.78,54.56h1.79v2.8h1.31v1.43h-1.31v5.37c0,.47.2.7.64.69h.67v1.74h-.94a2.08,2.08,0,0,1-1.54-.6,2.2,2.2,0,0,1-.62-1.67V58.79h-.9V57.36h.9Z"/><path class="cls-2" d="M149.28,57.36h1.8v1h0a3,3,0,0,1,4.21-.38L154,59.56a1.86,1.86,0,0,0-1.19-.46,1.65,1.65,0,0,0-1.18.46,1.85,1.85,0,0,0-.56,1.47v5.56h-1.8Z"/><path class="cls-2" d="M160.48,62.68a2.22,2.22,0,0,0,.62,1.69,2,2,0,0,0,1.52.59,2.62,2.62,0,0,0,1.95-.9l1.3,1.14a4.15,4.15,0,0,1-3.22,1.5,4.23,4.23,0,0,1-1.37-.22,2.83,2.83,0,0,1-.66-.31,3.14,3.14,0,0,1-.63-.42,3.77,3.77,0,0,1-.92-1.44,6,6,0,0,1-.38-2.31,6.68,6.68,0,0,1,.33-2.27,4.09,4.09,0,0,1,.86-1.46,3.27,3.27,0,0,1,1.2-.78,3.7,3.7,0,0,1,3.88.8,3.83,3.83,0,0,1,1.09,2.86v1.53Zm3.78-1.53a2.38,2.38,0,0,0-.56-1.63,1.93,1.93,0,0,0-2.66,0,2.49,2.49,0,0,0-.56,1.63Z"/><path class="cls-2" d="M171.25,57.36h1.8v1h0a3,3,0,0,1,2.41-1.09,3.4,3.4,0,0,1,1.55.33,4.6,4.6,0,0,1,1.06.88,3.62,3.62,0,0,1,2.9-1.21,3.15,3.15,0,0,1,2.1.81,3.07,3.07,0,0,1,1,2.4v6.13h-1.8v-5.5a2,2,0,0,0-.51-1.48,1.83,1.83,0,0,0-1.33-.51,1.85,1.85,0,0,0-1.34.51,2,2,0,0,0-.53,1.48v5.5h-1.8v-5.5a2,2,0,0,0-.51-1.48,1.85,1.85,0,0,0-1.34-.51,1.81,1.81,0,0,0-1.33.51,1.93,1.93,0,0,0-.54,1.48v5.5h-1.8Z"/><path class="cls-2" d="M194.62,65.77h0a1.53,1.53,0,0,1-.78.7,3.64,3.64,0,0,1-1.43.23,3.25,3.25,0,0,1-2.3-.82,2.59,2.59,0,0,1-.85-2A2.63,2.63,0,0,1,190,62a2.87,2.87,0,0,1,2.16-.8h2.49v-1c0-.82-.6-1.21-1.83-1.19a3.31,3.31,0,0,0-1.06.14,1.38,1.38,0,0,0-.64.58l-1.41-1.12a3.44,3.44,0,0,1,3-1.34,4.69,4.69,0,0,1,2.69.66,2.74,2.74,0,0,1,1,2.38v6.3h-1.8Zm0-3.09h-2.15q-1.58,0-1.56,1.11a1,1,0,0,0,.41.8,1.86,1.86,0,0,0,1.28.37,3,3,0,0,0,1.6-.28c.28-.2.42-.64.42-1.33Z"/><path class="cls-2" d="M202.18,53.63H204v1.85h-1.79Zm0,3.73H204v9.23h-1.79Z"/><path class="cls-2" d="M209.58,57.36h1.8v1h0a2.84,2.84,0,0,1,2.32-1.09,3,3,0,0,1,2,.81,3.16,3.16,0,0,1,1,2.4v6.13h-1.8v-5.5a2,2,0,0,0-.5-1.48,1.67,1.67,0,0,0-1.26-.51,1.73,1.73,0,0,0-1.28.51,2,2,0,0,0-.5,1.48v5.5h-1.8Z"/><path class="cls-2" d="M222.71,63.77A3.7,3.7,0,0,0,225.55,65a2.28,2.28,0,0,0,1.26-.32,1,1,0,0,0,.5-.87.76.76,0,0,0-.3-.69,1.46,1.46,0,0,0-.8-.22l-1.59-.14a3,3,0,0,1-1.83-.79,2.4,2.4,0,0,1-.75-1.84A2.55,2.55,0,0,1,223,58a3.79,3.79,0,0,1,2.36-.71,7.41,7.41,0,0,1,1.11.08,4.59,4.59,0,0,1,2.4,1.18l-1.11,1.34a5.46,5.46,0,0,0-1.09-.64,3.8,3.8,0,0,0-1.32-.22,1.74,1.74,0,0,0-1.18.31,1,1,0,0,0-.35.8.66.66,0,0,0,.27.55A1.46,1.46,0,0,0,225,61l1.48.12a2.73,2.73,0,0,1,2,.87,3,3,0,0,1,.58,1.9A2.4,2.4,0,0,1,228,65.93a4.53,4.53,0,0,1-2.64.77A5.57,5.57,0,0,1,221.46,65Z"/><path class="cls-2" d="M246.43,65.77h0a1.51,1.51,0,0,1-.77.7,3.68,3.68,0,0,1-1.43.23,3.26,3.26,0,0,1-2.31-.82,2.59,2.59,0,0,1-.85-2,2.67,2.67,0,0,1,.74-1.93,2.9,2.9,0,0,1,2.17-.8h2.48v-1c0-.82-.59-1.21-1.83-1.19a3.31,3.31,0,0,0-1.06.14,1.31,1.31,0,0,0-.63.58l-1.42-1.12a3.46,3.46,0,0,1,3-1.34,4.66,4.66,0,0,1,2.69.66,2.69,2.69,0,0,1,1,2.38v6.3h-1.8Zm0-3.09h-2.15c-1.05,0-1.57.39-1.55,1.11a1,1,0,0,0,.4.8,1.87,1.87,0,0,0,1.29.37,3,3,0,0,0,1.59-.28c.28-.2.42-.64.42-1.33Z"/><path class="cls-2" d="M268,65.11a4.82,4.82,0,0,1-1.38,1.12,3.85,3.85,0,0,1-1.83.47A4,4,0,0,1,262,65.59a4.74,4.74,0,0,1-1.27-3.6A4.83,4.83,0,0,1,262,58.34a3.91,3.91,0,0,1,2.78-1.09,4,4,0,0,1,1.84.44A4.73,4.73,0,0,1,268,58.85l-1.32,1.22a2.24,2.24,0,0,0-1.82-1c-1.53,0-2.3.94-2.32,2.89s.79,2.89,2.32,2.86a2.18,2.18,0,0,0,1.82-1Z"/><path class="cls-2" d="M272.12,62a8.17,8.17,0,0,1,.24-2.25,3.17,3.17,0,0,1,.74-1.29,3.39,3.39,0,0,1,1-.82,3.73,3.73,0,0,1,1.68-.36,3.78,3.78,0,0,1,1.71.36,3.26,3.26,0,0,1,1,.83,2.9,2.9,0,0,1,.76,1.29,9.14,9.14,0,0,1,.21,2.24,8.91,8.91,0,0,1-.21,2.22,3.23,3.23,0,0,1-.76,1.32,4.11,4.11,0,0,1-.42.41,2.16,2.16,0,0,1-.58.38,3.66,3.66,0,0,1-1.71.4,3.56,3.56,0,0,1-1.68-.4,3.33,3.33,0,0,1-1-.79,3.43,3.43,0,0,1-.74-1.32A7.84,7.84,0,0,1,272.12,62Zm5.58,0a8.29,8.29,0,0,0-.09-1.45,1.75,1.75,0,0,0-.35-.77,1.44,1.44,0,0,0-.59-.49,2.12,2.12,0,0,0-1.71,0,1.62,1.62,0,0,0-.6.49,2.24,2.24,0,0,0-.34.77,7.05,7.05,0,0,0-.1,1.43,6.89,6.89,0,0,0,.1,1.41,2.3,2.3,0,0,0,.34.8,1.93,1.93,0,0,0,.6.47,1.93,1.93,0,0,0,1.71,0,1.68,1.68,0,0,0,.59-.47,1.87,1.87,0,0,0,.35-.8A7.74,7.74,0,0,0,277.7,62Z"/><path class="cls-2" d="M284.76,57.36h1.8v1h0A3,3,0,0,1,290.8,58l-1.31,1.6a1.86,1.86,0,0,0-1.18-.46,1.64,1.64,0,0,0-1.18.46,1.82,1.82,0,0,0-.57,1.47v5.56h-1.8Z"/><path class="cls-2" d="M294.51,57.36h1.79v1h0a2.85,2.85,0,0,1,2.33-1.09,3,3,0,0,1,2,.81,3.2,3.2,0,0,1,.95,2.4v6.13h-1.79v-5.5a2,2,0,0,0-.5-1.48,1.84,1.84,0,0,0-2.54,0,2,2,0,0,0-.51,1.48v5.5h-1.79Z"/><path class="cls-2" d="M308.73,62.68a2.18,2.18,0,0,0,.62,1.69,2,2,0,0,0,1.51.59,2.66,2.66,0,0,0,2-.9l1.3,1.14a4.16,4.16,0,0,1-3.22,1.5,4.33,4.33,0,0,1-1.38-.22,3,3,0,0,1-.65-.31,3.14,3.14,0,0,1-.63-.42,3.65,3.65,0,0,1-.92-1.44,5.79,5.79,0,0,1-.39-2.31,6.42,6.42,0,0,1,.34-2.27,4,4,0,0,1,.86-1.46,3.16,3.16,0,0,1,1.19-.78,3.77,3.77,0,0,1,1.3-.24,3.66,3.66,0,0,1,2.59,1,3.87,3.87,0,0,1,1.09,2.86v1.53Zm3.78-1.53a2.39,2.39,0,0,0-.57-1.63,1.76,1.76,0,0,0-1.32-.53,1.79,1.79,0,0,0-1.33.53,2.49,2.49,0,0,0-.56,1.63Z"/><path class="cls-2" d="M319.57,57.36h1.8v1h0a3,3,0,0,1,4.21-.38l-1.31,1.6a1.86,1.86,0,0,0-1.19-.46,1.67,1.67,0,0,0-1.18.46,1.85,1.85,0,0,0-.56,1.47v5.56h-1.8Z"/><path class="cls-2" d="M330,63.77A3.69,3.69,0,0,0,332.84,65a2.32,2.32,0,0,0,1.27-.32,1,1,0,0,0,.49-.87.76.76,0,0,0-.29-.69,1.46,1.46,0,0,0-.8-.22l-1.59-.14a3,3,0,0,1-1.84-.79,2.4,2.4,0,0,1-.74-1.84,2.52,2.52,0,0,1,1-2.13,3.79,3.79,0,0,1,2.36-.71,7.41,7.41,0,0,1,1.11.08,5.41,5.41,0,0,1,.92.25,5.29,5.29,0,0,1,1.48.93l-1.11,1.34a5.53,5.53,0,0,0-1.1-.64,3.74,3.74,0,0,0-1.31-.22,1.72,1.72,0,0,0-1.18.31,1,1,0,0,0-.36.8.66.66,0,0,0,.27.55,1.5,1.5,0,0,0,.92.32l1.48.12a2.75,2.75,0,0,1,2,.87,3,3,0,0,1,.58,1.9,2.45,2.45,0,0,1-1.06,2.07,4.54,4.54,0,0,1-2.65.77A5.55,5.55,0,0,1,328.76,65Z"/><path class="cls-2" d="M341.69,54.56h1.79v2.8h1.31v1.43h-1.31v5.37c0,.47.2.7.64.69h.67v1.74h-.94a2.08,2.08,0,0,1-1.54-.6,2.17,2.17,0,0,1-.62-1.67V58.79h-.9V57.36h.9Z"/><path class="cls-2" d="M349.29,62a8.66,8.66,0,0,1,.23-2.25,3.29,3.29,0,0,1,.74-1.29,3.51,3.51,0,0,1,1-.82,3.73,3.73,0,0,1,1.68-.36,3.82,3.82,0,0,1,1.72.36,3.21,3.21,0,0,1,1,.83,2.9,2.9,0,0,1,.76,1.29,9.14,9.14,0,0,1,.21,2.24,8.91,8.91,0,0,1-.21,2.22,3.12,3.12,0,0,1-.76,1.32,2.74,2.74,0,0,1-.42.41,2.16,2.16,0,0,1-.58.38,3.79,3.79,0,0,1-3.39,0,3.46,3.46,0,0,1-1-.79,3.56,3.56,0,0,1-.74-1.32A7.9,7.9,0,0,1,349.29,62Zm5.57,0a8.29,8.29,0,0,0-.09-1.45,1.65,1.65,0,0,0-.35-.77,1.38,1.38,0,0,0-.59-.49,1.91,1.91,0,0,0-.86-.18,2,2,0,0,0-.84.18,1.74,1.74,0,0,0-.61.49,2.22,2.22,0,0,0-.33.77,6.89,6.89,0,0,0-.11,1.43,6.73,6.73,0,0,0,.11,1.41,2.29,2.29,0,0,0,.33.8,2.11,2.11,0,0,0,.61.47,1.83,1.83,0,0,0,.84.2,1.79,1.79,0,0,0,.86-.2,1.59,1.59,0,0,0,.59-.47,1.75,1.75,0,0,0,.35-.8A7.74,7.74,0,0,0,354.86,62Z"/><path class="cls-2" d="M361.93,57.36h1.79v1h0a2.83,2.83,0,0,1,2.32-1.09,3,3,0,0,1,2,.81,3.16,3.16,0,0,1,.95,2.4v6.13h-1.79v-5.5a2,2,0,0,0-.5-1.48,1.84,1.84,0,0,0-2.54,0,2,2,0,0,0-.51,1.48v5.5h-1.79Z"/><path class="cls-2" d="M376.15,62.68a2.18,2.18,0,0,0,.62,1.69,2,2,0,0,0,1.51.59,2.66,2.66,0,0,0,2-.9l1.3,1.14a4.16,4.16,0,0,1-3.22,1.5,4.33,4.33,0,0,1-1.38-.22,3,3,0,0,1-.65-.31,3.14,3.14,0,0,1-.63-.42,3.65,3.65,0,0,1-.92-1.44,5.79,5.79,0,0,1-.39-2.31,6.66,6.66,0,0,1,.34-2.27,4,4,0,0,1,.86-1.46,3.19,3.19,0,0,1,1.2-.78,3.7,3.7,0,0,1,3.88.8,3.87,3.87,0,0,1,1.09,2.86v1.53Zm3.78-1.53a2.43,2.43,0,0,0-.56-1.63,1.93,1.93,0,0,0-2.66,0,2.49,2.49,0,0,0-.56,1.63Z"/><path class="cls-2" d="M394,62a8.24,8.24,0,0,1,.23-2.25,3.29,3.29,0,0,1,.74-1.29,3.51,3.51,0,0,1,1-.82,4.17,4.17,0,0,1,3.39,0,3.14,3.14,0,0,1,1,.83,2.9,2.9,0,0,1,.76,1.29,9.14,9.14,0,0,1,.21,2.24,8.91,8.91,0,0,1-.21,2.22,3.12,3.12,0,0,1-.76,1.32,2.74,2.74,0,0,1-.42.41,2.16,2.16,0,0,1-.58.38,3.79,3.79,0,0,1-3.39,0,3.46,3.46,0,0,1-1-.79,3.56,3.56,0,0,1-.74-1.32A7.9,7.9,0,0,1,394,62Zm5.57,0a8.29,8.29,0,0,0-.09-1.45,1.65,1.65,0,0,0-.35-.77,1.38,1.38,0,0,0-.59-.49,1.91,1.91,0,0,0-.86-.18,2,2,0,0,0-.85.18,1.8,1.8,0,0,0-.6.49,2.44,2.44,0,0,0-.34.77,7.88,7.88,0,0,0-.1,1.43,7.7,7.7,0,0,0,.1,1.41,2.51,2.51,0,0,0,.34.8,2.2,2.2,0,0,0,.6.47,1.87,1.87,0,0,0,.85.2,1.79,1.79,0,0,0,.86-.2,1.59,1.59,0,0,0,.59-.47,1.75,1.75,0,0,0,.35-.8A7.74,7.74,0,0,0,399.58,62Z"/><path class="cls-2" d="M406.93,58.79H406V57.36h.9V56.15a2.45,2.45,0,0,1,.71-1.94,2.57,2.57,0,0,1,1.73-.58h1.16v1.74h-1c-.54,0-.8.24-.78.77v1.22h1.81v1.43h-1.81v7.8h-1.79Z"/><path class="cls-2" d="M422.26,53.63h1.79v4.71a4.87,4.87,0,0,1,1.08-.8,2.6,2.6,0,0,1,1.23-.29,2.76,2.76,0,0,1,2.4,1.21,2.49,2.49,0,0,1,.5,1.14,14.46,14.46,0,0,1,.13,2.37,14.19,14.19,0,0,1-.13,2.34,2.55,2.55,0,0,1-.5,1.19,2.79,2.79,0,0,1-1,.85,3.1,3.1,0,0,1-1.42.35,3.05,3.05,0,0,1-2.31-1.07v1h-1.79Zm3.56,5.47a1.52,1.52,0,0,0-1,.26,1.42,1.42,0,0,0-.54.67,3.79,3.79,0,0,0-.22.91c0,.33-.05.67-.05,1s0,.66.05,1a3.73,3.73,0,0,0,.22.93,1.45,1.45,0,0,0,.54.68,1.52,1.52,0,0,0,1,.27,1.72,1.72,0,0,0,1-.25,1.36,1.36,0,0,0,.53-.66,3.78,3.78,0,0,0,.23-.95c0-.33,0-.67,0-1s0-.73,0-1.08a3.68,3.68,0,0,0-.23-.91,1.28,1.28,0,0,0-.53-.66A1.9,1.9,0,0,0,425.82,59.1Z"/><path class="cls-2" d="M434.8,57.36h1.79v1h0a2.94,2.94,0,0,1,4.2-.38l-1.31,1.6a1.84,1.84,0,0,0-1.18-.46,1.65,1.65,0,0,0-1.18.46,1.82,1.82,0,0,0-.57,1.47v5.56H434.8Z"/><path class="cls-2" d="M449.34,65.77h0a1.53,1.53,0,0,1-.78.7,3.64,3.64,0,0,1-1.43.23,3.23,3.23,0,0,1-2.3-.82,2.59,2.59,0,0,1-.86-2,2.64,2.64,0,0,1,.75-1.93,2.87,2.87,0,0,1,2.16-.8h2.49v-1c0-.82-.6-1.21-1.83-1.19a3.31,3.31,0,0,0-1.06.14,1.38,1.38,0,0,0-.64.58l-1.41-1.12a3.44,3.44,0,0,1,3-1.34,4.69,4.69,0,0,1,2.69.66,2.71,2.71,0,0,1,1,2.38v6.3h-1.79Zm0-3.09h-2.16c-1,0-1.56.39-1.55,1.11a1,1,0,0,0,.41.8,1.85,1.85,0,0,0,1.28.37,3.06,3.06,0,0,0,1.6-.28c.28-.2.42-.64.42-1.33Z"/><path class="cls-2" d="M456.84,57.36h1.8v1h0A2.84,2.84,0,0,1,461,57.25a3,3,0,0,1,2,.81,3.16,3.16,0,0,1,1,2.4v6.13h-1.8v-5.5a2,2,0,0,0-.5-1.48,1.65,1.65,0,0,0-1.26-.51,1.73,1.73,0,0,0-1.28.51,2,2,0,0,0-.5,1.48v5.5h-1.8Z"/><path class="cls-2" d="M475.05,65.63a3,3,0,0,1-2.31,1.07,2.93,2.93,0,0,1-1.38-.35,3,3,0,0,1-1-.85,2.36,2.36,0,0,1-.49-1.19,12.72,12.72,0,0,1-.15-2.35,12.85,12.85,0,0,1,.15-2.36,2.29,2.29,0,0,1,.49-1.15,2.74,2.74,0,0,1,2.39-1.2,2.85,2.85,0,0,1,1.27.29,4.82,4.82,0,0,1,1,.8V53.63h1.8v13h-1.8Zm-1.76-6.53a1.72,1.72,0,0,0-1,.22,1.43,1.43,0,0,0-.55.66,3.27,3.27,0,0,0-.21.91,9.54,9.54,0,0,0-.05,1.08,8.5,8.5,0,0,0,.05,1,3.4,3.4,0,0,0,.21.95,1.53,1.53,0,0,0,.55.66,1.56,1.56,0,0,0,1,.25,1.7,1.7,0,0,0,1-.27,1.31,1.31,0,0,0,.5-.68A3.34,3.34,0,0,0,475,63c0-.34,0-.67,0-1s0-.7,0-1a3.39,3.39,0,0,0-.24-.91,1.29,1.29,0,0,0-.5-.67A1.7,1.7,0,0,0,473.29,59.1Z"/><path class="cls-2" d="M496.29,65.11a4.82,4.82,0,0,1-1.38,1.12,3.88,3.88,0,0,1-1.83.47,4,4,0,0,1-2.78-1.11A4.74,4.74,0,0,1,489,62a4.83,4.83,0,0,1,1.27-3.65,3.91,3.91,0,0,1,2.78-1.09,4,4,0,0,1,1.83.44,4.64,4.64,0,0,1,1.38,1.16L495,60.07a2.22,2.22,0,0,0-1.81-1c-1.53,0-2.3.94-2.33,2.89s.8,2.89,2.33,2.86a2.16,2.16,0,0,0,1.81-1Z"/><path class="cls-2" d="M500.44,62a8.66,8.66,0,0,1,.23-2.25,3.41,3.41,0,0,1,.74-1.29,3.57,3.57,0,0,1,1-.82,3.67,3.67,0,0,1,1.68-.36,3.81,3.81,0,0,1,1.71.36,3.38,3.38,0,0,1,1,.83,3,3,0,0,1,.75,1.29,8.59,8.59,0,0,1,.22,2.24,8.37,8.37,0,0,1-.22,2.22,3.21,3.21,0,0,1-.75,1.32,3.41,3.41,0,0,1-.43.41,2.26,2.26,0,0,1-.57.38,3.66,3.66,0,0,1-1.71.4,3.67,3.67,0,0,1-2.72-1.19,3.71,3.71,0,0,1-.74-1.32A8.3,8.3,0,0,1,500.44,62ZM506,62a8.53,8.53,0,0,0-.08-1.45,1.77,1.77,0,0,0-.36-.77,1.35,1.35,0,0,0-.58-.49,2.12,2.12,0,0,0-1.71,0,1.62,1.62,0,0,0-.6.49,2.24,2.24,0,0,0-.34.77,7.05,7.05,0,0,0-.1,1.43,6.89,6.89,0,0,0,.1,1.41,2.3,2.3,0,0,0,.34.8,1.93,1.93,0,0,0,.6.47,1.93,1.93,0,0,0,1.71,0,1.55,1.55,0,0,0,.58-.47,1.88,1.88,0,0,0,.36-.8A8,8,0,0,0,506,62Z"/><path class="cls-2" d="M513,57.36h1.8v1h0a3,3,0,0,1,2.41-1.09,3.43,3.43,0,0,1,1.55.33,4.55,4.55,0,0,1,1.05.88,3.66,3.66,0,0,1,2.91-1.21,3.19,3.19,0,0,1,2.1.81,3.11,3.11,0,0,1,1,2.4v6.13H524v-5.5a2,2,0,0,0-.52-1.48,1.79,1.79,0,0,0-1.32-.51,1.83,1.83,0,0,0-1.34.51,1.93,1.93,0,0,0-.54,1.48v5.5h-1.79v-5.5a2,2,0,0,0-.52-1.48,1.83,1.83,0,0,0-1.33-.51,1.79,1.79,0,0,0-1.33.51,1.94,1.94,0,0,0-.55,1.48v5.5H513Z"/><path class="cls-2" d="M531.61,57.36h1.8v1h0a3,3,0,0,1,2.41-1.09,3.4,3.4,0,0,1,1.55.33,4.6,4.6,0,0,1,1.06.88,3.62,3.62,0,0,1,2.9-1.21,3.15,3.15,0,0,1,2.1.81,3.11,3.11,0,0,1,1,2.4v6.13h-1.8v-5.5a2,2,0,0,0-.51-1.48,1.83,1.83,0,0,0-1.33-.51,1.85,1.85,0,0,0-1.34.51,1.93,1.93,0,0,0-.53,1.48v5.5h-1.8v-5.5a2,2,0,0,0-.51-1.48,1.85,1.85,0,0,0-1.34-.51,1.81,1.81,0,0,0-1.33.51,1.93,1.93,0,0,0-.54,1.48v5.5h-1.8Z"/><path class="cls-2" d="M550.29,57.36h1.79v5.5a2,2,0,0,0,.51,1.46,1.79,1.79,0,0,0,2.54,0,2,2,0,0,0,.5-1.46v-5.5h1.79v9.23h-1.79v-1h0a2.87,2.87,0,0,1-2.32,1.1,3,3,0,0,1-2-.84,2.91,2.91,0,0,1-1-2.36Z"/><path class="cls-2" d="M563.16,57.36H565v1h0a2.83,2.83,0,0,1,2.32-1.09,3,3,0,0,1,2,.81,3.12,3.12,0,0,1,.95,2.4v6.13H568.5v-5.5a2,2,0,0,0-.5-1.48,1.68,1.68,0,0,0-1.26-.51,1.71,1.71,0,0,0-1.28.51,2,2,0,0,0-.51,1.48v5.5h-1.79Z"/><path class="cls-2" d="M576.08,53.63h1.8v1.85h-1.8Zm0,3.73h1.8v9.23h-1.8Z"/><path class="cls-2" d="M590.06,65.11a4.92,4.92,0,0,1-1.37,1.12,3.89,3.89,0,0,1-1.84.47,3.93,3.93,0,0,1-2.77-1.11A4.74,4.74,0,0,1,582.8,62a4.83,4.83,0,0,1,1.28-3.65,3.88,3.88,0,0,1,2.78-1.09,4,4,0,0,1,1.83.44,4.73,4.73,0,0,1,1.37,1.16l-1.32,1.22a2.24,2.24,0,0,0-1.82-1c-1.53,0-2.3.94-2.32,2.89s.79,2.89,2.32,2.86a2.18,2.18,0,0,0,1.82-1Z"/><path class="cls-2" d="M599.35,65.77h0a1.53,1.53,0,0,1-.78.7,3.62,3.62,0,0,1-1.42.23,3.26,3.26,0,0,1-2.31-.82,2.59,2.59,0,0,1-.85-2A2.67,2.67,0,0,1,594.7,62a2.88,2.88,0,0,1,2.17-.8h2.48v-1c0-.82-.6-1.21-1.83-1.19a3.31,3.31,0,0,0-1.06.14,1.38,1.38,0,0,0-.64.58l-1.41-1.12a3.44,3.44,0,0,1,3-1.34,4.66,4.66,0,0,1,2.69.66,2.71,2.71,0,0,1,1,2.38v6.3h-1.8Zm0-3.09H597.2c-1.05,0-1.57.39-1.55,1.11a1,1,0,0,0,.4.8,1.87,1.87,0,0,0,1.29.37,3,3,0,0,0,1.59-.28c.28-.2.42-.64.42-1.33Z"/><path class="cls-2" d="M607,54.56h1.8v2.8h1.31v1.43h-1.31v5.37c0,.47.2.7.63.69h.68v1.74h-.94a2.1,2.1,0,0,1-1.55-.6,2.2,2.2,0,0,1-.62-1.67V58.79h-.9V57.36h.9Z"/><path class="cls-2" d="M615.06,53.63h1.79v1.85h-1.79Zm0,3.73h1.79v9.23h-1.79Z"/><path class="cls-2" d="M622,62a8.66,8.66,0,0,1,.23-2.25,3.29,3.29,0,0,1,.74-1.29,3.57,3.57,0,0,1,1-.82,3.67,3.67,0,0,1,1.68-.36,3.81,3.81,0,0,1,1.71.36,3.38,3.38,0,0,1,1,.83,3,3,0,0,1,.75,1.29,8.59,8.59,0,0,1,.22,2.24,8.37,8.37,0,0,1-.22,2.22,3.21,3.21,0,0,1-.75,1.32,3.41,3.41,0,0,1-.43.41,2.26,2.26,0,0,1-.57.38,3.67,3.67,0,0,1-1.72.4,3.52,3.52,0,0,1-1.67-.4,3.38,3.38,0,0,1-1-.79,3.56,3.56,0,0,1-.74-1.32A8.3,8.3,0,0,1,622,62Zm5.57,0a8.53,8.53,0,0,0-.08-1.45,1.77,1.77,0,0,0-.36-.77,1.35,1.35,0,0,0-.58-.49,2.12,2.12,0,0,0-1.71,0,1.62,1.62,0,0,0-.6.49,2.24,2.24,0,0,0-.34.77,6.89,6.89,0,0,0-.11,1.43,6.73,6.73,0,0,0,.11,1.41,2.3,2.3,0,0,0,.34.8,1.93,1.93,0,0,0,.6.47,1.93,1.93,0,0,0,1.71,0,1.55,1.55,0,0,0,.58-.47,1.88,1.88,0,0,0,.36-.8A8,8,0,0,0,627.59,62Z"/><path class="cls-2" d="M634.66,57.36h1.79v1h0a2.83,2.83,0,0,1,2.32-1.09,3,3,0,0,1,2,.81,3.16,3.16,0,0,1,1,2.4v6.13H640v-5.5a2,2,0,0,0-.5-1.48,1.67,1.67,0,0,0-1.26-.51,1.73,1.73,0,0,0-1.28.51,2,2,0,0,0-.51,1.48v5.5h-1.79Z"/><path class="cls-2" d="M647.58,64.74h1.8v1.85h-1.8Z"/><path class="cls-2" d="M89,103.8a23.48,23.48,0,0,1,.13-3,3.81,3.81,0,0,1,.43-1.24A4.29,4.29,0,0,1,91,97.94a4.58,4.58,0,0,1,5,0,4.29,4.29,0,0,1,1.43,1.6,3,3,0,0,1,.44,1.23,27.11,27.11,0,0,1,.11,3,27,27,0,0,1-.11,3,3.06,3.06,0,0,1-.44,1.25A4.1,4.1,0,0,1,96,109.63a4.48,4.48,0,0,1-5,0,4.19,4.19,0,0,1-1.46-1.58,5.38,5.38,0,0,1-.25-.56,3.77,3.77,0,0,1-.18-.69A23.36,23.36,0,0,1,89,103.8Zm1.91,0a16.19,16.19,0,0,0,.13,2.59,2.41,2.41,0,0,0,1.29,1.74,2.14,2.14,0,0,0,1.15.3,2.23,2.23,0,0,0,1.18-.3,2,2,0,0,0,.76-.65,2.26,2.26,0,0,0,.51-1.09,16.19,16.19,0,0,0,.13-2.59,16.49,16.49,0,0,0-.13-2.61,2.73,2.73,0,0,0-1.27-1.75,2.81,2.81,0,0,0-1.18-.28,2.71,2.71,0,0,0-1.15.28,2.51,2.51,0,0,0-.8.67,2.25,2.25,0,0,0-.49,1.08A16.49,16.49,0,0,0,90.92,103.8Z"/><path class="cls-2" d="M103.48,101.05h1.79v5.5a2,2,0,0,0,.51,1.46,1.81,1.81,0,0,0,2.54,0,2.05,2.05,0,0,0,.5-1.46v-5.5h1.79v9.22h-1.79v-1h0a2.82,2.82,0,0,1-2.31,1.09,3,3,0,0,1-2-.83,2.91,2.91,0,0,1-1-2.36Z"/><path class="cls-2" d="M116.35,101.05h1.79v1h0a2.85,2.85,0,0,1,2.32-1.1,2.9,2.9,0,0,1,1.88.71l-1.31,1.61a1.85,1.85,0,0,0-1.18-.47,1.7,1.7,0,0,0-1.18.46,1.85,1.85,0,0,0-.57,1.47v5.56h-1.79Z"/><path class="cls-2" d="M134,101.05h1.8v1a3,3,0,0,1,2.3-1.08,2.75,2.75,0,0,1,2.4,1.21,2.44,2.44,0,0,1,.51,1.15,21.58,21.58,0,0,1,0,4.73,2.52,2.52,0,0,1-.51,1.16,2.69,2.69,0,0,1-1,.86,3.14,3.14,0,0,1-1.43.34,2.39,2.39,0,0,1-1.23-.31,3.81,3.81,0,0,1-1.07-.78V114H134Zm3.56,7.48a1.76,1.76,0,0,0,1-.25,1.34,1.34,0,0,0,.52-.66,3.27,3.27,0,0,0,.24-.92c0-.34,0-.68,0-1s0-.73,0-1.08a3.17,3.17,0,0,0-.24-.93,1.3,1.3,0,0,0-.52-.66,2,2,0,0,0-1-.22,1.58,1.58,0,0,0-.95.26,1.53,1.53,0,0,0-.55.68,3.27,3.27,0,0,0-.21.91,8.94,8.94,0,0,0-.05,1,7.94,7.94,0,0,0,.05,1,3.33,3.33,0,0,0,.21.94,1.52,1.52,0,0,0,1.5.94Z"/><path class="cls-2" d="M151.22,109.46h0a1.49,1.49,0,0,1-.77.69,3.68,3.68,0,0,1-1.43.23,3.17,3.17,0,0,1-2.31-.82,2.61,2.61,0,0,1-.85-2,2.66,2.66,0,0,1,.74-1.92,2.88,2.88,0,0,1,2.17-.8h2.49v-1c0-.81-.6-1.21-1.84-1.19a3,3,0,0,0-1,.15,1.27,1.27,0,0,0-.64.57l-1.41-1.11a3.45,3.45,0,0,1,3-1.35,4.69,4.69,0,0,1,2.69.66,2.72,2.72,0,0,1,1,2.38v6.3h-1.79Zm0-3.1h-2.16c-1,0-1.56.4-1.55,1.11a1,1,0,0,0,.41.81,1.83,1.83,0,0,0,1.28.36,3.09,3.09,0,0,0,1.6-.28c.28-.19.42-.64.42-1.33Z"/><path class="cls-2" d="M158.72,101.05h1.79v1h0a2.86,2.86,0,0,1,2.33-1.1,2.9,2.9,0,0,1,1.87.71l-1.31,1.61a1.83,1.83,0,0,0-1.18-.47,1.7,1.7,0,0,0-1.18.46,1.88,1.88,0,0,0-.57,1.47v5.56h-1.79Z"/><path class="cls-2" d="M169.92,106.36a2.2,2.2,0,0,0,.62,1.69,2,2,0,0,0,1.51.59,2.65,2.65,0,0,0,2-.9l1.3,1.15a4.14,4.14,0,0,1-3.22,1.49,4.62,4.62,0,0,1-1.38-.21,3.51,3.51,0,0,1-.65-.31,3,3,0,0,1-1.55-1.86,5.79,5.79,0,0,1-.39-2.31,6.76,6.76,0,0,1,.34-2.28,3.9,3.9,0,0,1,.86-1.45,3.18,3.18,0,0,1,1.2-.79,3.7,3.7,0,0,1,3.88.8,3.89,3.89,0,0,1,1.09,2.87v1.52Zm3.78-1.52a2.46,2.46,0,0,0-.56-1.64,1.93,1.93,0,0,0-2.66,0,2.52,2.52,0,0,0-.56,1.64Z"/><path class="cls-2" d="M180.76,101.05h1.8v1h0a2.85,2.85,0,0,1,2.32-1.1,3,3,0,0,1,2,.81,3.2,3.2,0,0,1,1,2.4v6.13h-1.79v-5.49a2,2,0,0,0-.5-1.48,1.81,1.81,0,0,0-2.54,0,2,2,0,0,0-.51,1.48v5.49h-1.8Z"/><path class="cls-2" d="M193.74,98.24h1.8v2.81h1.3v1.42h-1.3v5.38c0,.47.2.7.63.68h.67v1.74h-.93a2.1,2.1,0,0,1-1.55-.6,2.17,2.17,0,0,1-.62-1.67v-5.53h-.9v-1.42h.9Z"/><path class="cls-2" d="M215.82,108.79a4.82,4.82,0,0,1-1.38,1.12,3.77,3.77,0,0,1-1.83.47,4,4,0,0,1-2.78-1.11,4.72,4.72,0,0,1-1.27-3.6,4.8,4.8,0,0,1,1.27-3.64,4,4,0,0,1,4.61-.65,4.5,4.5,0,0,1,1.38,1.16l-1.32,1.21a2.27,2.27,0,0,0-1.82-1c-1.53,0-2.3.94-2.33,2.89s.8,2.89,2.33,2.86a2.15,2.15,0,0,0,1.81-1Z"/><path class="cls-2" d="M220,105.65a8,8,0,0,1,.24-2.24,3.17,3.17,0,0,1,.74-1.29,3.24,3.24,0,0,1,1-.82,3.83,3.83,0,0,1,1.68-.37,3.94,3.94,0,0,1,1.71.37,3.24,3.24,0,0,1,1,.83,2.9,2.9,0,0,1,.76,1.28,9.14,9.14,0,0,1,.21,2.24,8.41,8.41,0,0,1-.22,2.23,3.16,3.16,0,0,1-.75,1.32,3.22,3.22,0,0,1-.42.4,1.88,1.88,0,0,1-.58.38,3.43,3.43,0,0,1-1.71.4A3.67,3.67,0,0,1,221,109.2a3.5,3.5,0,0,1-.74-1.32A7.87,7.87,0,0,1,220,105.65Zm5.58,0a8.16,8.16,0,0,0-.09-1.44,1.81,1.81,0,0,0-.35-.77,1.37,1.37,0,0,0-.59-.49,2,2,0,0,0-1.71,0,1.53,1.53,0,0,0-.6.49,2.08,2.08,0,0,0-.34.77,10.06,10.06,0,0,0,0,2.83,2.23,2.23,0,0,0,.34.8,2.11,2.11,0,0,0,.6.48,2,2,0,0,0,1.71,0,1.82,1.82,0,0,0,.59-.48,1.94,1.94,0,0,0,.35-.8A7.74,7.74,0,0,0,225.55,105.67Z"/><path class="cls-2" d="M232.54,101.05h1.8v1h0a3,3,0,0,1,2.41-1.1,3.68,3.68,0,0,1,1.55.33,4.82,4.82,0,0,1,1,.88,3.69,3.69,0,0,1,2.91-1.21,3.06,3.06,0,0,1,3.08,3.21v6.13h-1.8v-5.49a2,2,0,0,0-.51-1.48,2,2,0,0,0-2.67,0,1.93,1.93,0,0,0-.54,1.48v5.49h-1.79v-5.49a2,2,0,0,0-.51-1.48,1.82,1.82,0,0,0-1.34-.52,1.76,1.76,0,0,0-1.33.52,1.93,1.93,0,0,0-.54,1.48v5.49h-1.8Z"/><path class="cls-2" d="M251.22,101.05H253v1a3.06,3.06,0,0,1,2.31-1.08,2.78,2.78,0,0,1,2.4,1.21,2.53,2.53,0,0,1,.5,1.15,21.58,21.58,0,0,1,0,4.73,2.52,2.52,0,0,1-.51,1.16,2.69,2.69,0,0,1-1,.86,3.1,3.1,0,0,1-1.42.34,2.39,2.39,0,0,1-1.23-.31,4,4,0,0,1-1.08-.78V114h-1.79Zm3.56,7.48a1.72,1.72,0,0,0,1-.25,1.36,1.36,0,0,0,.53-.66,3.65,3.65,0,0,0,.23-.92c0-.34,0-.68,0-1s0-.73,0-1.08a3.52,3.52,0,0,0-.23-.93,1.32,1.32,0,0,0-.53-.66,2,2,0,0,0-1-.22,1.59,1.59,0,0,0-1,.26,1.45,1.45,0,0,0-.54.68,3.67,3.67,0,0,0-.22.91c0,.34-.05.69-.05,1s0,.66.05,1a3.7,3.7,0,0,0,.22.94,1.49,1.49,0,0,0,.54.68A1.59,1.59,0,0,0,254.78,108.53Z"/><path class="cls-2" d="M268.45,109.46h0a1.56,1.56,0,0,1-.78.69,3.64,3.64,0,0,1-1.43.23,3.16,3.16,0,0,1-2.3-.82,2.57,2.57,0,0,1-.85-2,2.62,2.62,0,0,1,.74-1.92,2.84,2.84,0,0,1,2.16-.8h2.49v-1c0-.81-.6-1.21-1.83-1.19a3,3,0,0,0-1.06.15,1.31,1.31,0,0,0-.64.57l-1.41-1.11a3.45,3.45,0,0,1,3-1.35,4.69,4.69,0,0,1,2.69.66,2.72,2.72,0,0,1,1,2.38v6.3h-1.79Zm0-3.1H266.3q-1.57,0-1.56,1.11a1,1,0,0,0,.41.81,1.86,1.86,0,0,0,1.28.36,3,3,0,0,0,1.6-.28c.28-.19.42-.64.42-1.33Z"/><path class="cls-2" d="M276,101.05h1.8v1h0a2.85,2.85,0,0,1,2.32-1.1,3,3,0,0,1,2,.81,3.2,3.2,0,0,1,1,2.4v6.13h-1.8v-5.49a2,2,0,0,0-.49-1.48,1.81,1.81,0,0,0-2.54,0,2,2,0,0,0-.51,1.48v5.49H276Z"/><path class="cls-2" d="M287.54,101.05h1.9l2.11,6.46h0l2.1-6.46h1.91l-3.84,11.14a2.71,2.71,0,0,1-1,1.44,3,3,0,0,1-1.5.38h-.59v-1.74h.52a1.18,1.18,0,0,0,.65-.2,1.1,1.1,0,0,0,.43-.61l.49-1.54Z"/><path class="cls-2" d="M298.38,108.43h1.79v1.84l-1.79,1.36Z"/><path class="cls-2" d="M313.4,97.32h1.9v11.11h6.12v1.84h-8Z"/><path class="cls-2" d="M327.81,106.36a2.2,2.2,0,0,0,.62,1.69,2,2,0,0,0,1.52.59,2.64,2.64,0,0,0,1.95-.9l1.3,1.15a4.14,4.14,0,0,1-3.22,1.49,4.51,4.51,0,0,1-1.37-.21,3.31,3.31,0,0,1-.66-.31,3.64,3.64,0,0,1-.63-.42,3.77,3.77,0,0,1-.92-1.44,5.8,5.8,0,0,1-.38-2.31,6.78,6.78,0,0,1,.33-2.28,3.9,3.9,0,0,1,.86-1.45,3.18,3.18,0,0,1,1.2-.79,3.7,3.7,0,0,1,3.88.8,3.85,3.85,0,0,1,1.09,2.87v1.52Zm3.78-1.52a2.41,2.41,0,0,0-.56-1.64,1.93,1.93,0,0,0-2.66,0,2.52,2.52,0,0,0-.56,1.64Z"/><path class="cls-2" d="M338.71,97.32h1.79v1.84h-1.79Zm0,3.73h1.79v9.22h-1.79Z"/><path class="cls-2" d="M346.34,101.05h1.8v10.37a2.53,2.53,0,0,1-.72,1.86,2.66,2.66,0,0,1-1.89.73h-.7v-1.74h.51a.88.88,0,0,0,1-1Zm0-3.73h1.8v1.84h-1.8Z"/><path class="cls-2" d="M354,98.24h1.79v2.81h1.31v1.42H355.8v5.38c0,.47.2.7.64.68h.67v1.74h-.94a2.08,2.08,0,0,1-1.54-.6A2.14,2.14,0,0,1,354,108v-5.53h-.9v-1.42h.9Z"/><path class="cls-2" d="M363.4,106.36a2.2,2.2,0,0,0,.62,1.69,2,2,0,0,0,1.52.59,2.62,2.62,0,0,0,1.95-.9l1.3,1.15a4.14,4.14,0,0,1-3.22,1.49,4.55,4.55,0,0,1-1.37-.21,3.59,3.59,0,0,1-.66-.31,3.22,3.22,0,0,1-.62-.42A3.67,3.67,0,0,1,362,108a6,6,0,0,1-.38-2.31,6.78,6.78,0,0,1,.33-2.28,4,4,0,0,1,.86-1.45,3.18,3.18,0,0,1,1.2-.79,3.76,3.76,0,0,1,1.29-.24,3.7,3.7,0,0,1,2.59,1,3.85,3.85,0,0,1,1.09,2.87v1.52Zm3.78-1.52a2.41,2.41,0,0,0-.56-1.64,1.93,1.93,0,0,0-2.66,0,2.57,2.57,0,0,0-.56,1.64Z"/><path class="cls-2" d="M374.25,101.05H376v1h0a2.84,2.84,0,0,1,2.32-1.1,3,3,0,0,1,2,.81,3.19,3.19,0,0,1,.95,2.4v6.13h-1.79v-5.49a2,2,0,0,0-.5-1.48,1.81,1.81,0,0,0-2.54,0,2,2,0,0,0-.51,1.48v5.49h-1.79Z"/><path class="cls-2" d="M394.74,97.32h4.39A4.19,4.19,0,0,1,403,99.5a3.93,3.93,0,0,1,.58,1.53c.06.53.09,1.46.09,2.77a20.74,20.74,0,0,1-.14,2.91,3.7,3.7,0,0,1-.21.75c-.1.21-.22.43-.35.66a4.37,4.37,0,0,1-1.54,1.51,4.21,4.21,0,0,1-2.38.64h-4.26Zm1.9,11.11h2.27a2.57,2.57,0,0,0,2.33-1.13,2.18,2.18,0,0,0,.4-1.06,21.12,21.12,0,0,0,.08-2.37,23.39,23.39,0,0,0-.08-2.43,2.27,2.27,0,0,0-.49-1.18,2.51,2.51,0,0,0-2.24-1.1h-2.27Z"/><path class="cls-2" d="M409.3,97.32h1.79l5.68,9.21h0V97.32h1.9v13h-1.8l-5.68-9.21h0v9.21h-1.9Z"/><path class="cls-2" d="M431.27,107.38h-4.76l-1,2.89h-2l4.57-13h1.59l4.56,13h-2Zm-.54-1.74L428.91,100h0l-1.82,5.67Z"/><path class="cls-2" d="M438.93,108.43h1.79v1.84l-1.79,1.36Z"/><path class="cls-2" d="M453.79,97.32h1.8V102h0a2.85,2.85,0,0,1,2.32-1.1,3,3,0,0,1,2,.81,3.2,3.2,0,0,1,1,2.4v6.13h-1.8v-5.49a2,2,0,0,0-.5-1.48,1.62,1.62,0,0,0-1.26-.52,1.7,1.7,0,0,0-1.28.52,2,2,0,0,0-.5,1.48v5.49h-1.8Z"/><path class="cls-2" d="M471.36,109.46h0a1.49,1.49,0,0,1-.77.69,3.68,3.68,0,0,1-1.43.23,3.17,3.17,0,0,1-2.31-.82,2.61,2.61,0,0,1-.85-2,2.66,2.66,0,0,1,.74-1.92,2.86,2.86,0,0,1,2.17-.8h2.49v-1c0-.81-.6-1.21-1.84-1.19a3,3,0,0,0-1.06.15,1.25,1.25,0,0,0-.63.57l-1.41-1.11a3.43,3.43,0,0,1,3-1.35,4.7,4.7,0,0,1,2.7.66,2.72,2.72,0,0,1,1,2.38v6.3h-1.79Zm0-3.1H469.2c-1.05,0-1.56.4-1.55,1.11a1,1,0,0,0,.4.81,1.88,1.88,0,0,0,1.29.36,3,3,0,0,0,1.59-.28c.28-.19.43-.64.43-1.33Z"/><path class="cls-2" d="M479.12,107.46a3.67,3.67,0,0,0,2.83,1.18,2.32,2.32,0,0,0,1.27-.31,1,1,0,0,0,.49-.87.81.81,0,0,0-.29-.7,1.55,1.55,0,0,0-.8-.22L481,106.4a3,3,0,0,1-1.84-.78,2.41,2.41,0,0,1-.74-1.84,2.56,2.56,0,0,1,1-2.14,3.81,3.81,0,0,1,2.36-.71,7.45,7.45,0,0,1,1.12.08,6.53,6.53,0,0,1,.92.25,5.1,5.1,0,0,1,1.48.94l-1.11,1.34a5.53,5.53,0,0,0-1.1-.64,3.56,3.56,0,0,0-1.31-.23,1.72,1.72,0,0,0-1.18.32,1,1,0,0,0-.36.8.63.63,0,0,0,.27.54,1.55,1.55,0,0,0,.91.33l1.49.12a2.75,2.75,0,0,1,2,.87,3,3,0,0,1,.58,1.89,2.47,2.47,0,0,1-1.06,2.08,4.54,4.54,0,0,1-2.65.76,5.57,5.57,0,0,1-3.93-1.65Z"/><path class="cls-2" d="M502.84,109.46h0a1.56,1.56,0,0,1-.78.69,3.64,3.64,0,0,1-1.43.23,3.16,3.16,0,0,1-2.3-.82,2.57,2.57,0,0,1-.85-2,2.62,2.62,0,0,1,.74-1.92,2.84,2.84,0,0,1,2.16-.8h2.49v-1c0-.81-.6-1.21-1.83-1.19a3,3,0,0,0-1.06.15,1.31,1.31,0,0,0-.64.57l-1.41-1.11a3.45,3.45,0,0,1,3-1.35,4.69,4.69,0,0,1,2.69.66,2.72,2.72,0,0,1,1,2.38v6.3h-1.79Zm0-3.1h-2.16c-1,0-1.56.4-1.55,1.11a1,1,0,0,0,.41.81,1.85,1.85,0,0,0,1.28.36,3,3,0,0,0,1.6-.28c.28-.19.42-.64.42-1.33Z"/><path class="cls-2" d="M517.8,97.32h1.79V107.9c0,.42.23.63.68.63h.62v1.74h-.8a2.53,2.53,0,0,1-1.62-.5,2,2,0,0,1-.67-1.73Z"/><path class="cls-2" d="M525.14,105.65a8,8,0,0,1,.24-2.24,3.17,3.17,0,0,1,.74-1.29,3.24,3.24,0,0,1,1-.82,3.87,3.87,0,0,1,1.68-.37,3.9,3.9,0,0,1,1.71.37,3.24,3.24,0,0,1,1,.83,2.9,2.9,0,0,1,.76,1.28,9.14,9.14,0,0,1,.21,2.24,8.41,8.41,0,0,1-.22,2.23,3.16,3.16,0,0,1-.75,1.32,3.22,3.22,0,0,1-.42.4,1.88,1.88,0,0,1-.58.38,3.43,3.43,0,0,1-1.71.4,3.67,3.67,0,0,1-2.71-1.18,3.5,3.5,0,0,1-.74-1.32A7.87,7.87,0,0,1,525.14,105.65Zm5.58,0a8.16,8.16,0,0,0-.09-1.44,1.81,1.81,0,0,0-.35-.77,1.37,1.37,0,0,0-.59-.49,2,2,0,0,0-1.71,0,1.53,1.53,0,0,0-.6.49,2.08,2.08,0,0,0-.34.77,10.06,10.06,0,0,0,0,2.83,2.23,2.23,0,0,0,.34.8,2.11,2.11,0,0,0,.6.48,2,2,0,0,0,1.71,0,1.82,1.82,0,0,0,.59-.48,1.94,1.94,0,0,0,.35-.8A7.74,7.74,0,0,0,530.72,105.67Z"/><path class="cls-2" d="M537.78,101.05h1.8v1h0a2.85,2.85,0,0,1,2.32-1.1,3,3,0,0,1,2,.81,3.2,3.2,0,0,1,1,2.4v6.13h-1.8v-5.49a2,2,0,0,0-.49-1.48,1.81,1.81,0,0,0-2.54,0,2,2,0,0,0-.51,1.48v5.49h-1.8Z"/><path class="cls-2" d="M555.68,109.31a3,3,0,0,1-2.31,1.07,2.74,2.74,0,0,1-1.44-.38,3,3,0,0,1-.92-.75,2.71,2.71,0,0,1-.51-1.11,11.86,11.86,0,0,1-.17-2.47,12.32,12.32,0,0,1,.17-2.52,2.62,2.62,0,0,1,.51-1.09,2.79,2.79,0,0,1,.92-.78,3.06,3.06,0,0,1,1.44-.35,3,3,0,0,1,2.31,1.1v-1h1.79v9a3.72,3.72,0,0,1-3.88,4.06,4,4,0,0,1-3.09-1.54l1.39-1.14a3.51,3.51,0,0,0,.79.56,2.21,2.21,0,0,0,1,.28,1.9,1.9,0,0,0,2-2Zm-3.55-3.64a9.45,9.45,0,0,0,.07,1.46,1.42,1.42,0,0,0,.28.7,1.5,1.5,0,0,0,.55.45,1.67,1.67,0,0,0,1.76,0,1.6,1.6,0,0,0,.53-.45,1.54,1.54,0,0,0,.3-.7,11.55,11.55,0,0,0,.06-1.46,12.44,12.44,0,0,0-.06-1.5,1.34,1.34,0,0,0-.3-.67,2.34,2.34,0,0,0-.53-.5,1.87,1.87,0,0,0-1.76,0,2.1,2.1,0,0,0-.55.5,1.24,1.24,0,0,0-.28.67A10.17,10.17,0,0,0,552.13,105.67Z"/><path class="cls-2" d="M570.76,98.24h1.79v2.81h1.31v1.42h-1.31v5.38c0,.47.21.7.64.68h.67v1.74h-.93a2.1,2.1,0,0,1-1.55-.6,2.17,2.17,0,0,1-.62-1.67v-5.53h-.9v-1.42h.9Z"/><path class="cls-2" d="M578.81,101.05h1.79v1h0a2.84,2.84,0,0,1,2.32-1.1,2.9,2.9,0,0,1,1.88.71l-1.31,1.61a1.85,1.85,0,0,0-1.18-.47,1.7,1.7,0,0,0-1.18.46,1.85,1.85,0,0,0-.57,1.47v5.56h-1.79Z"/><path class="cls-2" d="M593.35,109.46h0a1.49,1.49,0,0,1-.77.69,3.68,3.68,0,0,1-1.43.23,3.17,3.17,0,0,1-2.31-.82,2.61,2.61,0,0,1-.85-2,2.66,2.66,0,0,1,.74-1.92,2.88,2.88,0,0,1,2.17-.8h2.49v-1c0-.81-.6-1.21-1.84-1.19a3.06,3.06,0,0,0-1.06.15,1.29,1.29,0,0,0-.63.57l-1.41-1.11a3.44,3.44,0,0,1,3-1.35,4.69,4.69,0,0,1,2.69.66,2.72,2.72,0,0,1,1,2.38v6.3h-1.79Zm0-3.1h-2.16c-1.05,0-1.56.4-1.55,1.11a1,1,0,0,0,.4.81,1.88,1.88,0,0,0,1.29.36,3,3,0,0,0,1.59-.28c.29-.19.43-.64.43-1.33Z"/><path class="cls-2" d="M606.19,109.31a3,3,0,0,1-2.31,1.07,2.89,2.89,0,0,1-1.39-.35,2.93,2.93,0,0,1-1-.85A2.32,2.32,0,0,1,601,108a18.64,18.64,0,0,1,0-4.72,2.29,2.29,0,0,1,.49-1.14,2.92,2.92,0,0,1,3.66-.91,5,5,0,0,1,1,.79v-4.7H608v13h-1.8Zm-1.76-6.53a1.87,1.87,0,0,0-1,.22,1.52,1.52,0,0,0-.54.66,3.79,3.79,0,0,0-.22.91c0,.35-.05.71-.05,1.08s0,.7.05,1a3.7,3.7,0,0,0,.22.94,1.58,1.58,0,0,0,.54.66,1.61,1.61,0,0,0,1,.25,1.72,1.72,0,0,0,1-.26,1.32,1.32,0,0,0,.51-.68,3.32,3.32,0,0,0,.23-.94c0-.34,0-.67,0-1s0-.7,0-1a3.28,3.28,0,0,0-.23-.91,1.28,1.28,0,0,0-.51-.68A1.72,1.72,0,0,0,604.43,102.78Z"/><path class="cls-2" d="M613.44,97.32h1.8v1.84h-1.8Zm0,3.73h1.8v9.22h-1.8Z"/><path class="cls-2" d="M621,98.24h1.79v2.81h1.31v1.42h-1.31v5.38c0,.47.2.7.64.68h.67v1.74h-.94a2.08,2.08,0,0,1-1.54-.6A2.14,2.14,0,0,1,621,108v-5.53h-.9v-1.42h.9Z"/><path class="cls-2" d="M629.05,97.32h1.8v1.84h-1.8Zm0,3.73h1.8v9.22h-1.8Z"/><path class="cls-2" d="M636,105.65a8,8,0,0,1,.24-2.24,3.17,3.17,0,0,1,.74-1.29,3.24,3.24,0,0,1,1-.82,4.07,4.07,0,0,1,3.39,0,3.12,3.12,0,0,1,1,.83,2.81,2.81,0,0,1,.76,1.28,9.14,9.14,0,0,1,.21,2.24,8.94,8.94,0,0,1-.21,2.23,3.29,3.29,0,0,1-.76,1.32,3.22,3.22,0,0,1-.42.4,1.77,1.77,0,0,1-.58.38,3.43,3.43,0,0,1-1.71.4A3.36,3.36,0,0,1,638,110a3.32,3.32,0,0,1-1-.78,3.5,3.5,0,0,1-.74-1.32A7.87,7.87,0,0,1,636,105.65Zm5.58,0a8.16,8.16,0,0,0-.09-1.44,1.7,1.7,0,0,0-.35-.77,1.31,1.31,0,0,0-.59-.49,1.82,1.82,0,0,0-.86-.19,1.86,1.86,0,0,0-.85.19,1.6,1.6,0,0,0-.6.49,2.08,2.08,0,0,0-.34.77,10.06,10.06,0,0,0,0,2.83,2.23,2.23,0,0,0,.34.8,2.26,2.26,0,0,0,.6.48,1.86,1.86,0,0,0,.85.19,1.82,1.82,0,0,0,.86-.19,1.72,1.72,0,0,0,.59-.48,1.82,1.82,0,0,0,.35-.8A7.74,7.74,0,0,0,641.59,105.67Z"/><path class="cls-2" d="M648.65,101.05h1.8v1h0a2.85,2.85,0,0,1,2.32-1.1,3,3,0,0,1,2,.81,3.23,3.23,0,0,1,.95,2.4v6.13H654v-5.49a2,2,0,0,0-.5-1.48,1.81,1.81,0,0,0-2.54,0,2,2,0,0,0-.51,1.48v5.49h-1.8Z"/><path class="cls-2" d="M668.54,105.65a8.52,8.52,0,0,1,.23-2.24,3.29,3.29,0,0,1,.74-1.29,3.36,3.36,0,0,1,1-.82,3.87,3.87,0,0,1,1.68-.37,4,4,0,0,1,1.72.37,3.24,3.24,0,0,1,1,.83,2.89,2.89,0,0,1,.75,1.28,9.14,9.14,0,0,1,.21,2.24,8.94,8.94,0,0,1-.21,2.23,3.18,3.18,0,0,1-.76,1.32,2.31,2.31,0,0,1-.42.4,1.77,1.77,0,0,1-.58.38,3.79,3.79,0,0,1-3.39,0,3.44,3.44,0,0,1-1-.78,3.64,3.64,0,0,1-.74-1.32A8.33,8.33,0,0,1,668.54,105.65Zm5.57,0a9.59,9.59,0,0,0-.08-1.44,1.72,1.72,0,0,0-.36-.77,1.31,1.31,0,0,0-.59-.49,1.79,1.79,0,0,0-.86-.19,1.82,1.82,0,0,0-.84.19,1.64,1.64,0,0,0-.61.49,2.24,2.24,0,0,0-.33.77,9.16,9.16,0,0,0,0,2.83,2.41,2.41,0,0,0,.33.8,2.32,2.32,0,0,0,.61.48,1.82,1.82,0,0,0,.84.19,1.79,1.79,0,0,0,.86-.19,1.72,1.72,0,0,0,.59-.48,1.83,1.83,0,0,0,.36-.8A9.1,9.1,0,0,0,674.11,105.67Z"/><path class="cls-2" d="M681.46,102.47h-.9v-1.42h.9V99.83a2.48,2.48,0,0,1,.71-1.94,2.61,2.61,0,0,1,1.73-.57h1.16v1.74h-1c-.54,0-.8.24-.77.77v1.22h1.8v1.42h-1.8v7.8h-1.8Z"/><path class="cls-2" d="M696.79,101.05h1.79v1a3.06,3.06,0,0,1,2.31-1.08,2.78,2.78,0,0,1,2.4,1.21,2.53,2.53,0,0,1,.5,1.15,21.58,21.58,0,0,1,0,4.73,2.62,2.62,0,0,1-.5,1.16,2.73,2.73,0,0,1-1,.86,3.1,3.1,0,0,1-1.42.34,2.39,2.39,0,0,1-1.23-.31,4,4,0,0,1-1.08-.78V114h-1.79Zm3.56,7.48a1.72,1.72,0,0,0,1-.25,1.36,1.36,0,0,0,.53-.66,3.65,3.65,0,0,0,.23-.92c0-.34,0-.68,0-1s0-.73,0-1.08a3.52,3.52,0,0,0-.23-.93,1.32,1.32,0,0,0-.53-.66,2,2,0,0,0-1-.22,1.61,1.61,0,0,0-1,.26,1.45,1.45,0,0,0-.54.68,3.67,3.67,0,0,0-.22.91c0,.34,0,.69,0,1s0,.66,0,1a3.7,3.7,0,0,0,.22.94,1.49,1.49,0,0,0,.54.68A1.61,1.61,0,0,0,700.35,108.53Z"/><path class="cls-2" d="M709.33,101.05h1.79v1h0a2.86,2.86,0,0,1,2.33-1.1,2.9,2.9,0,0,1,1.87.71l-1.31,1.61a1.85,1.85,0,0,0-1.18-.47,1.7,1.7,0,0,0-1.18.46,1.85,1.85,0,0,0-.57,1.47v5.56h-1.79Z"/><path class="cls-2" d="M718.73,105.65a8,8,0,0,1,.24-2.24,3.17,3.17,0,0,1,.74-1.29,3.24,3.24,0,0,1,1-.82,4.07,4.07,0,0,1,3.39,0,3.12,3.12,0,0,1,1,.83,2.81,2.81,0,0,1,.76,1.28,9.14,9.14,0,0,1,.21,2.24,8.94,8.94,0,0,1-.21,2.23,3.29,3.29,0,0,1-.76,1.32,3.22,3.22,0,0,1-.42.4,1.77,1.77,0,0,1-.58.38,3.43,3.43,0,0,1-1.71.4,3.36,3.36,0,0,1-1.68-.4,3.32,3.32,0,0,1-1-.78,3.5,3.5,0,0,1-.74-1.32A7.87,7.87,0,0,1,718.73,105.65Zm5.58,0a8.16,8.16,0,0,0-.09-1.44,1.7,1.7,0,0,0-.35-.77,1.31,1.31,0,0,0-.59-.49,1.82,1.82,0,0,0-.86-.19,1.86,1.86,0,0,0-.85.19,1.53,1.53,0,0,0-.6.49,2.08,2.08,0,0,0-.34.77,10.06,10.06,0,0,0,0,2.83,2.23,2.23,0,0,0,.34.8,2.11,2.11,0,0,0,.6.48,1.86,1.86,0,0,0,.85.19,1.82,1.82,0,0,0,.86-.19,1.72,1.72,0,0,0,.59-.48,1.82,1.82,0,0,0,.35-.8A7.74,7.74,0,0,0,724.31,105.67Z"/><path class="cls-2" d="M736.72,109.31a3,3,0,0,1-2.32,1.07A2.82,2.82,0,0,1,733,110a3,3,0,0,1-1-.85,2.32,2.32,0,0,1-.49-1.18,18.64,18.64,0,0,1,0-4.72,2.29,2.29,0,0,1,.49-1.14,2.92,2.92,0,0,1,3.66-.91,5.07,5.07,0,0,1,1.05.79v-4.7h1.79v13h-1.79ZM735,102.78a1.83,1.83,0,0,0-1,.22,1.48,1.48,0,0,0-.55.66,3.78,3.78,0,0,0-.21.91c0,.35-.05.71-.05,1.08s0,.7.05,1a3.71,3.71,0,0,0,.21.94,1.53,1.53,0,0,0,.55.66,1.58,1.58,0,0,0,1,.25,1.75,1.75,0,0,0,1-.26,1.43,1.43,0,0,0,.51-.68,3.7,3.7,0,0,0,.23-.94c0-.34,0-.67,0-1s0-.7,0-1a3.68,3.68,0,0,0-.23-.91A1.39,1.39,0,0,0,736,103,1.75,1.75,0,0,0,735,102.78Z"/><path class="cls-2" d="M743.92,101.05h1.79v5.5a2,2,0,0,0,.51,1.46,1.81,1.81,0,0,0,2.54,0,2.05,2.05,0,0,0,.5-1.46v-5.5h1.79v9.22h-1.79v-1h0a2.82,2.82,0,0,1-2.31,1.09,3,3,0,0,1-2-.83,2.93,2.93,0,0,1-1-2.36Z"/><path class="cls-2" d="M763.36,108.79a4.92,4.92,0,0,1-1.37,1.12,3.78,3.78,0,0,1-1.84.47,4,4,0,0,1-2.78-1.11,5.78,5.78,0,0,1,0-7.24,3.88,3.88,0,0,1,2.77-1.1,4,4,0,0,1,1.84.45,4.58,4.58,0,0,1,1.37,1.16L762,103.75a2.27,2.27,0,0,0-1.82-1c-1.53,0-2.3.94-2.32,2.89s.79,2.89,2.32,2.86a2.18,2.18,0,0,0,1.82-1Z"/><path class="cls-2" d="M768,97.32h1.8v1.84H768Zm0,3.73h1.8v9.22H768Z"/><path class="cls-2" d="M775.42,101.05h1.79v1h0a2.84,2.84,0,0,1,2.32-1.1,3,3,0,0,1,2,.81,3.19,3.19,0,0,1,.95,2.4v6.13h-1.79v-5.49a2,2,0,0,0-.5-1.48,1.81,1.81,0,0,0-2.54,0,2,2,0,0,0-.51,1.48v5.49h-1.79Z"/><path class="cls-2" d="M793.31,109.31a3,3,0,0,1-2.3,1.07,2.78,2.78,0,0,1-1.45-.38,3.12,3.12,0,0,1-.92-.75,2.84,2.84,0,0,1-.51-1.11,12.09,12.09,0,0,1-.16-2.47,12.55,12.55,0,0,1,.16-2.52,2.75,2.75,0,0,1,.51-1.09,2.89,2.89,0,0,1,.92-.78,3.1,3.1,0,0,1,1.45-.35,3,3,0,0,1,2.3,1.1v-1h1.79v9a3.72,3.72,0,0,1-3.87,4.06,4,4,0,0,1-3.1-1.54l1.4-1.14a3.51,3.51,0,0,0,.79.56,2.17,2.17,0,0,0,.94.28,2.06,2.06,0,0,0,1.48-.53,2,2,0,0,0,.57-1.48Zm-3.55-3.64a11,11,0,0,0,.07,1.46,1.43,1.43,0,0,0,.29.7,1.5,1.5,0,0,0,.55.45,1.66,1.66,0,0,0,1.75,0,1.57,1.57,0,0,0,.84-1.15c0-.26,0-.75,0-1.46s0-1.22,0-1.5a1.34,1.34,0,0,0-.3-.67,2.21,2.21,0,0,0-.54-.5,1.85,1.85,0,0,0-1.75,0,2.1,2.1,0,0,0-.55.5,1.25,1.25,0,0,0-.29.67A11.85,11.85,0,0,0,789.76,105.67Z"/><path class="cls-2" d="M813,109.46h0a1.56,1.56,0,0,1-.78.69,3.64,3.64,0,0,1-1.43.23,3.16,3.16,0,0,1-2.3-.82,2.57,2.57,0,0,1-.85-2,2.62,2.62,0,0,1,.74-1.92,2.84,2.84,0,0,1,2.16-.8H813v-1c0-.81-.6-1.21-1.83-1.19a3,3,0,0,0-1.06.15,1.31,1.31,0,0,0-.64.57L808,102.28a3.45,3.45,0,0,1,3-1.35,4.69,4.69,0,0,1,2.69.66,2.75,2.75,0,0,1,1,2.38v6.3H813Zm0-3.1h-2.15q-1.58,0-1.56,1.11a1,1,0,0,0,.41.81,1.86,1.86,0,0,0,1.28.36,3,3,0,0,0,1.6-.28c.28-.19.42-.64.42-1.33Z"/><path class="cls-2" d="M820.48,101.05h1.8v1h0a2.85,2.85,0,0,1,2.32-1.1,3,3,0,0,1,2,.81,3.2,3.2,0,0,1,1,2.4v6.13h-1.79v-5.49a2,2,0,0,0-.5-1.48,1.81,1.81,0,0,0-2.54,0,2,2,0,0,0-.51,1.48v5.49h-1.8Z"/><path class="cls-2" d="M838.7,109.31a3,3,0,0,1-2.32,1.07A2.82,2.82,0,0,1,835,110a3,3,0,0,1-1-.85,2.32,2.32,0,0,1-.49-1.18,18.64,18.64,0,0,1,0-4.72,2.29,2.29,0,0,1,.49-1.14,2.74,2.74,0,0,1,2.39-1.21,2.77,2.77,0,0,1,1.28.3,5.3,5.3,0,0,1,1,.79v-4.7h1.79v13H838.7Zm-1.77-6.53a1.83,1.83,0,0,0-1,.22,1.4,1.4,0,0,0-.54.66,3.37,3.37,0,0,0-.22.91c0,.35-.05.71-.05,1.08s0,.7.05,1a3.32,3.32,0,0,0,.22.94,1.44,1.44,0,0,0,.54.66,1.58,1.58,0,0,0,1,.25,1.75,1.75,0,0,0,1-.26,1.37,1.37,0,0,0,.51-.68,3.7,3.7,0,0,0,.23-.94c0-.34,0-.67,0-1s0-.7,0-1a3.68,3.68,0,0,0-.23-.91,1.33,1.33,0,0,0-.51-.68A1.75,1.75,0,0,0,836.93,102.78Z"/><path class="cls-2" d="M858.7,109.31a3,3,0,0,1-2.32,1.07A2.82,2.82,0,0,1,855,110a3,3,0,0,1-1-.85,2.32,2.32,0,0,1-.49-1.18,18.64,18.64,0,0,1,0-4.72,2.29,2.29,0,0,1,.49-1.14,2.74,2.74,0,0,1,2.39-1.21,2.77,2.77,0,0,1,1.28.3,5.3,5.3,0,0,1,1,.79v-4.7h1.79v13H858.7Zm-1.77-6.53a1.83,1.83,0,0,0-1,.22,1.4,1.4,0,0,0-.54.66,3.37,3.37,0,0,0-.22.91c0,.35-.05.71-.05,1.08s0,.7.05,1a3.32,3.32,0,0,0,.22.94,1.44,1.44,0,0,0,.54.66,1.58,1.58,0,0,0,1,.25,1.75,1.75,0,0,0,1-.26,1.37,1.37,0,0,0,.51-.68,3.7,3.7,0,0,0,.23-.94c0-.34,0-.67,0-1s0-.7,0-1a3.68,3.68,0,0,0-.23-.91,1.33,1.33,0,0,0-.51-.68A1.75,1.75,0,0,0,856.93,102.78Z"/><path class="cls-2" d="M867.25,106.36a2.17,2.17,0,0,0,.62,1.69,2,2,0,0,0,1.51.59,2.66,2.66,0,0,0,2-.9l1.3,1.15a4.15,4.15,0,0,1-3.22,1.49,4.62,4.62,0,0,1-1.38-.21,3.51,3.51,0,0,1-.65-.31,3.29,3.29,0,0,1-.63-.42,3.55,3.55,0,0,1-.92-1.44,5.79,5.79,0,0,1-.39-2.31,6.52,6.52,0,0,1,.34-2.28,3.9,3.9,0,0,1,.86-1.45,3.07,3.07,0,0,1,1.19-.79,3.77,3.77,0,0,1,1.3-.24,3.7,3.7,0,0,1,2.59,1,3.89,3.89,0,0,1,1.09,2.87v1.52Zm3.78-1.52a2.42,2.42,0,0,0-.57-1.64,1.92,1.92,0,0,0-2.65,0,2.52,2.52,0,0,0-.56,1.64Z"/><path class="cls-2" d="M878.09,97.32h1.8V107.9c0,.42.22.63.67.63h.62v1.74h-.8a2.53,2.53,0,0,1-1.62-.5,2.06,2.06,0,0,1-.67-1.73Z"/><path class="cls-2" d="M885.93,97.32h1.8v1.84h-1.8Zm0,3.73h1.8v9.22h-1.8Z"/><path class="cls-2" d="M892.07,101.05H894l2.1,6.46h0l2.09-6.46h1.91l-3.28,9.22h-1.48Z"/><path class="cls-2" d="M905.75,106.36a2.2,2.2,0,0,0,.62,1.69,2,2,0,0,0,1.52.59,2.62,2.62,0,0,0,2-.9l1.31,1.15a4.17,4.17,0,0,1-3.22,1.49,4.62,4.62,0,0,1-1.38-.21,3.51,3.51,0,0,1-.65-.31,3,3,0,0,1-.63-.42,3.55,3.55,0,0,1-.92-1.44,5.79,5.79,0,0,1-.39-2.31,6.78,6.78,0,0,1,.33-2.28,4.05,4.05,0,0,1,.87-1.45,3.07,3.07,0,0,1,1.19-.79,3.76,3.76,0,0,1,1.29-.24,3.69,3.69,0,0,1,2.59,1,3.9,3.9,0,0,1,1.1,2.87v1.52Zm3.78-1.52a2.41,2.41,0,0,0-.56-1.64,1.93,1.93,0,0,0-2.66,0,2.57,2.57,0,0,0-.56,1.64Z"/><path class="cls-2" d="M916.6,101.05h1.79v1h0a2.86,2.86,0,0,1,2.33-1.1,2.9,2.9,0,0,1,1.87.71l-1.31,1.61a1.85,1.85,0,0,0-1.18-.47,1.7,1.7,0,0,0-1.18.46,1.85,1.85,0,0,0-.57,1.47v5.56H916.6Z"/><path class="cls-2" d="M926.83,97.32h1.79v1.84h-1.79Zm0,3.73h1.79v9.22h-1.79Z"/><path class="cls-2" d="M934.23,101.05H936v1h0a2.85,2.85,0,0,1,2.32-1.1,3,3,0,0,1,2,.81,3.23,3.23,0,0,1,1,2.4v6.13h-1.79v-5.49a2,2,0,0,0-.5-1.48,1.81,1.81,0,0,0-2.54,0,2,2,0,0,0-.51,1.48v5.49h-1.8Z"/><path class="cls-2" d="M952.13,109.31a3,3,0,0,1-2.31,1.07,2.74,2.74,0,0,1-1.44-.38,3.12,3.12,0,0,1-.92-.75,2.71,2.71,0,0,1-.51-1.11,12.09,12.09,0,0,1-.16-2.47,12.55,12.55,0,0,1,.16-2.52,2.62,2.62,0,0,1,.51-1.09,2.89,2.89,0,0,1,.92-.78,3.06,3.06,0,0,1,1.44-.35,3,3,0,0,1,2.31,1.1v-1h1.79v9a3.72,3.72,0,0,1-3.88,4.06,4,4,0,0,1-3.09-1.54l1.39-1.14a3.75,3.75,0,0,0,.79.56,2.21,2.21,0,0,0,1,.28,2.08,2.08,0,0,0,1.48-.53,2,2,0,0,0,.57-1.48Zm-3.55-3.64a9.45,9.45,0,0,0,.07,1.46,1.42,1.42,0,0,0,.28.7,1.59,1.59,0,0,0,.55.45,1.47,1.47,0,0,0,.88.25,1.45,1.45,0,0,0,.88-.25,1.5,1.5,0,0,0,.53-.45,1.66,1.66,0,0,0,.31-.7c0-.26,0-.75,0-1.46s0-1.22,0-1.5a1.44,1.44,0,0,0-.31-.67,2.15,2.15,0,0,0-.53-.5,1.9,1.9,0,0,0-.88-.22,1.94,1.94,0,0,0-.88.22,2.28,2.28,0,0,0-.55.5,1.24,1.24,0,0,0-.28.67A10.17,10.17,0,0,0,948.58,105.67Z"/><path class="cls-2" d="M967.11,101.05h1.79v1a3,3,0,0,1,2.31-1.08,2.78,2.78,0,0,1,2.4,1.21,2.53,2.53,0,0,1,.5,1.15,21.58,21.58,0,0,1,0,4.73,2.52,2.52,0,0,1-.51,1.16,2.69,2.69,0,0,1-1,.86,3.11,3.11,0,0,1-1.43.34,2.44,2.44,0,0,1-1.23-.31,4,4,0,0,1-1.07-.78V114h-1.79Zm3.55,7.48a1.73,1.73,0,0,0,1-.25,1.42,1.42,0,0,0,.53-.66,3.65,3.65,0,0,0,.23-.92c0-.34,0-.68,0-1s0-.73,0-1.08a3.52,3.52,0,0,0-.23-.93,1.37,1.37,0,0,0-.53-.66,2,2,0,0,0-1-.22,1.58,1.58,0,0,0-.95.26,1.45,1.45,0,0,0-.54.68,3.67,3.67,0,0,0-.22.91c0,.34-.05.69-.05,1s0,.66.05,1a3.7,3.7,0,0,0,.22.94,1.49,1.49,0,0,0,.54.68A1.58,1.58,0,0,0,970.66,108.53Z"/><path class="cls-2" d="M979.65,101.05h1.79v1h0a2.85,2.85,0,0,1,2.32-1.1,2.9,2.9,0,0,1,1.88.71l-1.31,1.61a1.85,1.85,0,0,0-1.18-.47,1.7,1.7,0,0,0-1.18.46,1.85,1.85,0,0,0-.57,1.47v5.56h-1.79Z"/><path class="cls-2" d="M989.88,97.32h1.79v1.84h-1.79Zm0,3.73h1.79v9.22h-1.79Z"/><path class="cls-2" d="M997.28,101.05h1.8v1h0a2.85,2.85,0,0,1,2.32-1.1,3,3,0,0,1,2,.81,3.2,3.2,0,0,1,1,2.4v6.13h-1.8v-5.49a2,2,0,0,0-.49-1.48,1.81,1.81,0,0,0-2.54,0,2,2,0,0,0-.51,1.48v5.49h-1.8Z"/><path class="cls-2" d="M1010.26,98.24h1.79v2.81h1.31v1.42h-1.31v5.38c0,.47.21.7.64.68h.67v1.74h-.93a2.1,2.1,0,0,1-1.55-.6,2.17,2.17,0,0,1-.62-1.67v-5.53h-.9v-1.42h.9Z"/><path class="cls-2" d="M1025.69,101.05h1.8v1h0a3,3,0,0,1,2.41-1.1,3.68,3.68,0,0,1,1.55.33,4.87,4.87,0,0,1,1.06.88,3.66,3.66,0,0,1,2.9-1.21,3.06,3.06,0,0,1,3.08,3.21v6.13h-1.8v-5.49a2,2,0,0,0-.51-1.48,1.79,1.79,0,0,0-1.33-.52,1.82,1.82,0,0,0-1.34.52,1.93,1.93,0,0,0-.53,1.48v5.49h-1.8v-5.49a2,2,0,0,0-.51-1.48,1.82,1.82,0,0,0-1.34-.52,1.78,1.78,0,0,0-1.33.52,1.93,1.93,0,0,0-.54,1.48v5.49h-1.8Z"/><path class="cls-2" d="M1049.06,109.46h0a1.56,1.56,0,0,1-.78.69,3.64,3.64,0,0,1-1.43.23,3.15,3.15,0,0,1-2.3-.82,2.58,2.58,0,0,1-.86-2,2.66,2.66,0,0,1,.74-1.92,2.88,2.88,0,0,1,2.17-.8h2.49v-1c0-.81-.6-1.21-1.83-1.19a3,3,0,0,0-1.06.15,1.31,1.31,0,0,0-.64.57l-1.41-1.11a3.45,3.45,0,0,1,3-1.35,4.69,4.69,0,0,1,2.69.66,2.72,2.72,0,0,1,1,2.38v6.3h-1.79Zm0-3.1h-2.16c-1,0-1.56.4-1.55,1.11a1,1,0,0,0,.41.81,1.85,1.85,0,0,0,1.28.36,3.06,3.06,0,0,0,1.6-.28c.28-.19.42-.64.42-1.33Z"/><path class="cls-2" d="M1056.67,98.24h1.79v2.81h1.31v1.42h-1.31v5.38c0,.47.2.7.64.68h.67v1.74h-.94a2.08,2.08,0,0,1-1.54-.6,2.17,2.17,0,0,1-.62-1.67v-5.53h-.9v-1.42h.9Z"/><path class="cls-2" d="M1066.06,106.36a2.2,2.2,0,0,0,.62,1.69,2,2,0,0,0,1.52.59,2.62,2.62,0,0,0,2-.9l1.31,1.15a4.17,4.17,0,0,1-3.22,1.49,4.62,4.62,0,0,1-1.38-.21,3.51,3.51,0,0,1-.65-.31,3,3,0,0,1-.63-.42,3.55,3.55,0,0,1-.92-1.44,5.79,5.79,0,0,1-.39-2.31,6.78,6.78,0,0,1,.33-2.28,4.05,4.05,0,0,1,.87-1.45,3.07,3.07,0,0,1,1.19-.79,3.76,3.76,0,0,1,1.29-.24,3.69,3.69,0,0,1,2.59,1,3.9,3.9,0,0,1,1.1,2.87v1.52Zm3.78-1.52a2.41,2.41,0,0,0-.56-1.64,1.93,1.93,0,0,0-2.66,0,2.57,2.57,0,0,0-.56,1.64Z"/><path class="cls-2" d="M1076.91,101.05h1.79v1h0a2.86,2.86,0,0,1,2.33-1.1,2.9,2.9,0,0,1,1.87.71l-1.31,1.61a1.85,1.85,0,0,0-1.18-.47,1.7,1.7,0,0,0-1.18.46,1.85,1.85,0,0,0-.57,1.47v5.56h-1.79Z"/><path class="cls-2" d="M1087.14,97.32h1.79v1.84h-1.79Zm0,3.73h1.79v9.22h-1.79Z"/><path class="cls-2" d="M1099.24,109.46h0a1.49,1.49,0,0,1-.77.69,3.68,3.68,0,0,1-1.43.23,3.17,3.17,0,0,1-2.31-.82,2.61,2.61,0,0,1-.85-2,2.66,2.66,0,0,1,.74-1.92,2.88,2.88,0,0,1,2.17-.8h2.49v-1c0-.81-.6-1.21-1.84-1.19a3.06,3.06,0,0,0-1.06.15,1.29,1.29,0,0,0-.63.57l-1.41-1.11a3.45,3.45,0,0,1,3-1.35,4.69,4.69,0,0,1,2.69.66,2.72,2.72,0,0,1,1,2.38v6.3h-1.79Zm0-3.1h-2.16c-1,0-1.56.4-1.55,1.11a1,1,0,0,0,.4.81,1.88,1.88,0,0,0,1.29.36,3,3,0,0,0,1.59-.28c.29-.19.43-.64.43-1.33Z"/><path class="cls-2" d="M1106.74,97.32h1.79V107.9c0,.42.23.63.68.63h.62v1.74h-.8a2.51,2.51,0,0,1-1.62-.5,2,2,0,0,1-.67-1.73Z"/><path class="cls-2" d="M1114.79,107.46a3.67,3.67,0,0,0,2.83,1.18,2.32,2.32,0,0,0,1.27-.31,1,1,0,0,0,.49-.87.81.81,0,0,0-.29-.7,1.58,1.58,0,0,0-.81-.22l-1.58-.14a3,3,0,0,1-1.84-.78,2.41,2.41,0,0,1-.74-1.84,2.53,2.53,0,0,1,1-2.14,3.81,3.81,0,0,1,2.36-.71,7.22,7.22,0,0,1,1.11.08,6.31,6.31,0,0,1,.93.25,5.1,5.1,0,0,1,1.48.94l-1.12,1.34a5.46,5.46,0,0,0-1.09-.64,3.56,3.56,0,0,0-1.31-.23,1.7,1.7,0,0,0-1.18.32,1,1,0,0,0-.36.8.63.63,0,0,0,.27.54,1.55,1.55,0,0,0,.91.33l1.49.12a2.75,2.75,0,0,1,2,.87,3,3,0,0,1,.57,1.89,2.42,2.42,0,0,1-1.06,2.08,4.53,4.53,0,0,1-2.64.76,5.61,5.61,0,0,1-3.94-1.65Z"/><path class="cls-2" d="M1126.41,108.43h1.8v1.84h-1.8Z"/><path class="cls-2" d="M89.44,119.16h8V121H91.34v3.83h5.22v1.74H91.34v5.54h-1.9Z"/><path class="cls-2" d="M101.38,127.5a8.55,8.55,0,0,1,.23-2.25,3.29,3.29,0,0,1,.74-1.29,3.36,3.36,0,0,1,1-.82,3.73,3.73,0,0,1,1.68-.36,3.82,3.82,0,0,1,1.72.36,3.24,3.24,0,0,1,1,.83,3,3,0,0,1,.75,1.29,9,9,0,0,1,.22,2.24,8.82,8.82,0,0,1-.22,2.22,3.12,3.12,0,0,1-.76,1.32,2.31,2.31,0,0,1-.42.4,1.77,1.77,0,0,1-.58.38,3.79,3.79,0,0,1-3.39,0,3.44,3.44,0,0,1-1-.78,3.56,3.56,0,0,1-.74-1.32A8.3,8.3,0,0,1,101.38,127.5Zm5.57,0a9.59,9.59,0,0,0-.08-1.44,1.77,1.77,0,0,0-.36-.77,1.31,1.31,0,0,0-.59-.49,1.91,1.91,0,0,0-.86-.19,2,2,0,0,0-.84.19,1.64,1.64,0,0,0-.61.49,2.33,2.33,0,0,0-.33.77,6.89,6.89,0,0,0-.11,1.43,6.55,6.55,0,0,0,.11,1.4,2.55,2.55,0,0,0,.33.81,2.29,2.29,0,0,0,.61.47,1.86,1.86,0,0,0,.84.2,1.79,1.79,0,0,0,.86-.2,1.7,1.7,0,0,0,.59-.47,1.92,1.92,0,0,0,.36-.81A9,9,0,0,0,107,127.51Z"/><path class="cls-2" d="M114,122.89h1.79v1h0a3,3,0,0,1,4.2-.39l-1.31,1.61a1.85,1.85,0,0,0-1.18-.47,1.66,1.66,0,0,0-1.18.47,1.81,1.81,0,0,0-.57,1.46v5.57H114Z"/><path class="cls-2" d="M133.58,124.63h.62a1.89,1.89,0,0,0,1.43-.53,1.79,1.79,0,0,0,.51-1.32,2,2,0,0,0-.52-1.35,1.83,1.83,0,0,0-1.31-.53,1.68,1.68,0,0,0-1.06.38,2,2,0,0,0-.67,1.19h-1.8a3.79,3.79,0,0,1,1.13-2.42,3.23,3.23,0,0,1,2.32-1,3.52,3.52,0,0,1,2.72,1.13,3.81,3.81,0,0,1,1,2.56,3.92,3.92,0,0,1-.27,1.44,3.14,3.14,0,0,1-1.11,1.24,3.19,3.19,0,0,1,1.18,1.28,3.63,3.63,0,0,1,.35,1.56,3.87,3.87,0,0,1-1.1,2.87,3.67,3.67,0,0,1-2.71,1.09,3.38,3.38,0,0,1-2.28-.85,4.12,4.12,0,0,1-1.28-2.46h1.8a2.69,2.69,0,0,0,.68,1.05,1.68,1.68,0,0,0,1.19.42,1.79,1.79,0,0,0,1.34-.57,2,2,0,0,0,.56-1.49,2.12,2.12,0,0,0-.56-1.53,1.89,1.89,0,0,0-1.38-.53h-.77Z"/><path class="cls-2" d="M143,122.77A3.55,3.55,0,0,1,144.1,120a3.45,3.45,0,0,1,2.45-1,3.53,3.53,0,0,1,2.49,1,3.71,3.71,0,0,1,1.07,2.77v5.71a3.7,3.7,0,0,1-1.07,2.76,3.59,3.59,0,0,1-2.49,1A3.55,3.55,0,0,1,143,128.5Zm5.33.12c0-1.3-.63-2-1.77-2s-1.75.69-1.77,2v5.5c0,1.31.61,2,1.77,2s1.74-.68,1.77-2Z"/><path class="cls-2" d="M158.76,122.91h1.36v3.89h3.77v1.42h-3.77v3.9h-1.36v-3.9H155V126.8h3.78Z"/><path class="cls-2" d="M175.5,122.89h1.9l2.12,6.46h0l2.11-6.46h1.91L179.73,134a2.67,2.67,0,0,1-1,1.44,3,3,0,0,1-1.49.38h-.6v-1.74h.53a1.18,1.18,0,0,0,.65-.2,1.07,1.07,0,0,0,.42-.6l.49-1.55Z"/><path class="cls-2" d="M189.31,128.21a2.22,2.22,0,0,0,.62,1.69,2,2,0,0,0,1.52.58,2.66,2.66,0,0,0,2-.9l1.3,1.15a4.14,4.14,0,0,1-3.22,1.49,4.62,4.62,0,0,1-1.38-.21,3.51,3.51,0,0,1-.65-.31,2.66,2.66,0,0,1-.63-.42,3.55,3.55,0,0,1-.92-1.44,5.79,5.79,0,0,1-.39-2.31,6.42,6.42,0,0,1,.34-2.27,3.87,3.87,0,0,1,.86-1.46,3.16,3.16,0,0,1,1.19-.78,3.76,3.76,0,0,1,1.29-.24,3.6,3.6,0,0,1,2.59,1,3.86,3.86,0,0,1,1.1,2.86v1.53Zm3.78-1.53a2.41,2.41,0,0,0-.56-1.64,2,2,0,0,0-2.66,0,2.63,2.63,0,0,0-.56,1.64Z"/><path class="cls-2" d="M204.85,131.3h0a1.56,1.56,0,0,1-.78.69,3.45,3.45,0,0,1-1.42.23,3.21,3.21,0,0,1-2.31-.81,2.6,2.6,0,0,1-.85-2,2.63,2.63,0,0,1,.74-1.93,2.88,2.88,0,0,1,2.17-.8h2.48v-1c0-.82-.6-1.22-1.83-1.19a3.05,3.05,0,0,0-1.06.14,1.31,1.31,0,0,0-.64.57l-1.41-1.11a3.42,3.42,0,0,1,3-1.34,4.61,4.61,0,0,1,2.69.65,2.77,2.77,0,0,1,1,2.39v6.3h-1.8Zm0-3.09H202.7q-1.57,0-1.56,1.11a1,1,0,0,0,.41.8,1.86,1.86,0,0,0,1.28.36,3.16,3.16,0,0,0,1.6-.27c.28-.2.42-.64.42-1.34Z"/><path class="cls-2" d="M212.36,122.89h1.79v1h0a3,3,0,0,1,4.2-.39l-1.31,1.61a1.85,1.85,0,0,0-1.18-.47,1.66,1.66,0,0,0-1.18.47,1.81,1.81,0,0,0-.57,1.46v5.57h-1.79Z"/><path class="cls-2" d="M222.79,129.3a3.68,3.68,0,0,0,2.83,1.18,2.3,2.3,0,0,0,1.27-.31,1,1,0,0,0,.5-.87.76.76,0,0,0-.3-.69,1.55,1.55,0,0,0-.8-.23l-1.59-.14a3,3,0,0,1-1.83-.78,2.42,2.42,0,0,1-.75-1.84,2.54,2.54,0,0,1,1-2.13,3.72,3.72,0,0,1,2.36-.71,6.29,6.29,0,0,1,1.11.08,6.18,6.18,0,0,1,.92.24A5.4,5.4,0,0,1,229,124l-1.11,1.34a5.26,5.26,0,0,0-1.1-.64,3.53,3.53,0,0,0-1.31-.22,1.74,1.74,0,0,0-1.18.31,1,1,0,0,0-.35.8.61.61,0,0,0,.27.54,1.52,1.52,0,0,0,.91.33l1.48.12a2.73,2.73,0,0,1,2,.87,3,3,0,0,1,.58,1.89,2.44,2.44,0,0,1-1.06,2.08,4.46,4.46,0,0,1-2.64.76,5.61,5.61,0,0,1-3.94-1.65Z"/><path class="cls-2" d="M234.42,130.27h1.79v1.85l-1.79,1.35Z"/><path class="cls-2" d="M254.5,125.65h0l-1.87,6.47H251l-2.86-9.23h1.9l1.72,6.47h0l2-6.47h1.3l2,6.47h0l1.7-6.47h1.91L258,132.12h-1.6Z"/><path class="cls-2" d="M266.87,128.21a2.22,2.22,0,0,0,.62,1.69,2,2,0,0,0,1.51.58,2.65,2.65,0,0,0,2-.9l1.3,1.15a4.11,4.11,0,0,1-3.22,1.49,4.51,4.51,0,0,1-1.37-.21,3.31,3.31,0,0,1-.66-.31,3.14,3.14,0,0,1-.63-.42,3.65,3.65,0,0,1-.92-1.44,5.79,5.79,0,0,1-.39-2.31,6.66,6.66,0,0,1,.34-2.27,3.87,3.87,0,0,1,.86-1.46,3.27,3.27,0,0,1,1.2-.78,3.68,3.68,0,0,1,1.29-.24,3.62,3.62,0,0,1,2.59,1,3.81,3.81,0,0,1,1.09,2.86v1.53Zm3.78-1.53a2.46,2.46,0,0,0-.56-1.64,2,2,0,0,0-2.66,0,2.52,2.52,0,0,0-.56,1.64Z"/><path class="cls-2" d="M277.77,119.16h1.79V121l-1.79,1.34Z"/><path class="cls-2" d="M283.9,122.89h1.9l2.1,6.47h0l2.09-6.47h1.9l-3.27,9.23h-1.48Z"/><path class="cls-2" d="M297.59,128.21a2.22,2.22,0,0,0,.62,1.69,2,2,0,0,0,1.51.58,2.65,2.65,0,0,0,2-.9l1.3,1.15a4.11,4.11,0,0,1-3.22,1.49,4.51,4.51,0,0,1-1.37-.21,3.31,3.31,0,0,1-.66-.31,3.14,3.14,0,0,1-.63-.42,3.65,3.65,0,0,1-.92-1.44,5.8,5.8,0,0,1-.38-2.31,6.68,6.68,0,0,1,.33-2.27,3.87,3.87,0,0,1,.86-1.46,3.27,3.27,0,0,1,1.2-.78,3.68,3.68,0,0,1,1.29-.24,3.62,3.62,0,0,1,2.59,1,3.81,3.81,0,0,1,1.09,2.86v1.53Zm3.78-1.53a2.46,2.46,0,0,0-.56-1.64,2,2,0,0,0-2.66,0,2.52,2.52,0,0,0-.56,1.64Z"/><path class="cls-2" d="M315.89,119.16h1.8v4.71a4.34,4.34,0,0,1,1.07-.8,2.48,2.48,0,0,1,1.23-.29,2.75,2.75,0,0,1,2.4,1.2,2.49,2.49,0,0,1,.51,1.15,14.46,14.46,0,0,1,.13,2.37,14.19,14.19,0,0,1-.13,2.34,2.42,2.42,0,0,1-.51,1.18,2.78,2.78,0,0,1-1,.86,3,3,0,0,1-1.43.34,3,3,0,0,1-2.3-1.07v1h-1.8Zm3.56,5.46a1.58,1.58,0,0,0-.95.26,1.53,1.53,0,0,0-.55.68,3.27,3.27,0,0,0-.21.91,8.56,8.56,0,0,0-.05,1,8.31,8.31,0,0,0,.05,1,3.33,3.33,0,0,0,.21.94,1.53,1.53,0,0,0,.55.68,1.51,1.51,0,0,0,.95.27,1.84,1.84,0,0,0,1-.25,1.44,1.44,0,0,0,.52-.66,3.39,3.39,0,0,0,.24-.95c0-.33,0-.67,0-1s0-.73,0-1.08a3.29,3.29,0,0,0-.24-.91,1.26,1.26,0,0,0-.52-.66A1.94,1.94,0,0,0,319.45,124.62Z"/><path class="cls-2" d="M329.78,128.21a2.22,2.22,0,0,0,.62,1.69,2,2,0,0,0,1.52.58,2.66,2.66,0,0,0,2-.9l1.3,1.15a4.14,4.14,0,0,1-3.22,1.49,4.62,4.62,0,0,1-1.38-.21,3.51,3.51,0,0,1-.65-.31,2.66,2.66,0,0,1-.63-.42,3.55,3.55,0,0,1-.92-1.44,5.79,5.79,0,0,1-.39-2.31,6.42,6.42,0,0,1,.34-2.27,3.87,3.87,0,0,1,.86-1.46,3.16,3.16,0,0,1,1.19-.78,3.76,3.76,0,0,1,1.29-.24,3.6,3.6,0,0,1,2.59,1,3.86,3.86,0,0,1,1.1,2.86v1.53Zm3.78-1.53A2.41,2.41,0,0,0,333,125a2,2,0,0,0-2.66,0,2.63,2.63,0,0,0-.56,1.64Z"/><path class="cls-2" d="M342,128.21a2.22,2.22,0,0,0,.62,1.69,2,2,0,0,0,1.52.58,2.64,2.64,0,0,0,1.95-.9l1.3,1.15a4.11,4.11,0,0,1-3.22,1.49,4.51,4.51,0,0,1-1.37-.21,3.31,3.31,0,0,1-.66-.31,3.14,3.14,0,0,1-.63-.42,3.77,3.77,0,0,1-.92-1.44,5.8,5.8,0,0,1-.38-2.31,6.68,6.68,0,0,1,.33-2.27,3.87,3.87,0,0,1,.86-1.46,3.27,3.27,0,0,1,1.2-.78,3.68,3.68,0,0,1,1.29-.24,3.62,3.62,0,0,1,2.59,1,3.81,3.81,0,0,1,1.09,2.86v1.53Zm3.78-1.53a2.41,2.41,0,0,0-.56-1.64,2,2,0,0,0-2.66,0,2.52,2.52,0,0,0-.56,1.64Z"/><path class="cls-2" d="M352.82,122.89h1.8v1h0a2.85,2.85,0,0,1,2.33-1.09,3.07,3.07,0,0,1,2,.8A3.23,3.23,0,0,1,360,126v6.14h-1.79v-5.5a2,2,0,0,0-.5-1.48,1.81,1.81,0,0,0-2.54,0,2,2,0,0,0-.51,1.48v5.5h-1.8Z"/><path class="cls-2" d="M373.26,120.08h1.79v2.81h1.31v1.42h-1.31v5.38c0,.47.21.7.64.69h.67v1.74h-.93a2.07,2.07,0,0,1-1.55-.61,2.17,2.17,0,0,1-.62-1.67v-5.53h-.9v-1.42h.9Z"/><path class="cls-2" d="M381.31,119.16h1.79v4.71h0a2.85,2.85,0,0,1,2.33-1.09,3.05,3.05,0,0,1,2,.8,3.23,3.23,0,0,1,.95,2.4v6.14h-1.79v-5.5a2,2,0,0,0-.5-1.48,1.81,1.81,0,0,0-2.54,0,2,2,0,0,0-.51,1.48v5.5h-1.79Z"/><path class="cls-2" d="M395.53,128.21a2.18,2.18,0,0,0,.62,1.69,2,2,0,0,0,1.51.58,2.66,2.66,0,0,0,2-.9l1.3,1.15a4.12,4.12,0,0,1-3.22,1.49,4.62,4.62,0,0,1-1.38-.21,3.51,3.51,0,0,1-.65-.31,2.66,2.66,0,0,1-.63-.42,3.55,3.55,0,0,1-.92-1.44,5.79,5.79,0,0,1-.39-2.31,6.42,6.42,0,0,1,.34-2.27,3.87,3.87,0,0,1,.86-1.46,3.16,3.16,0,0,1,1.19-.78,3.76,3.76,0,0,1,1.29-.24,3.62,3.62,0,0,1,2.6,1,3.85,3.85,0,0,1,1.09,2.86v1.53Zm3.77-1.53a2.41,2.41,0,0,0-.56-1.64,1.95,1.95,0,0,0-2.65,0,2.52,2.52,0,0,0-.56,1.64Z"/><path class="cls-2" d="M418.85,131.15a3,3,0,0,1-2.3,1.07,2.81,2.81,0,0,1-1.45-.38,3.12,3.12,0,0,1-.92-.75,2.84,2.84,0,0,1-.51-1.11,12,12,0,0,1-.16-2.47,12.55,12.55,0,0,1,.16-2.52,2.82,2.82,0,0,1,.51-1.09,2.89,2.89,0,0,1,.92-.78,3.07,3.07,0,0,1,3.75.75v-1h1.79v9a3.73,3.73,0,0,1-3.87,4.07,4.07,4.07,0,0,1-3.1-1.55l1.4-1.14a3.22,3.22,0,0,0,.79.56,2.06,2.06,0,0,0,2.42-.25,2,2,0,0,0,.57-1.48Zm-3.55-3.64a11.28,11.28,0,0,0,.07,1.47,1.39,1.39,0,0,0,.29.69,1.62,1.62,0,0,0,.55.46,1.52,1.52,0,0,0,.88.25,1.49,1.49,0,0,0,.87-.25,1.68,1.68,0,0,0,.54-.46,1.5,1.5,0,0,0,.3-.69c0-.27.05-.76.05-1.47s0-1.22-.05-1.5a1.38,1.38,0,0,0-.3-.67,2,2,0,0,0-.54-.49,1.86,1.86,0,0,0-.87-.23,1.9,1.9,0,0,0-.88.23,1.93,1.93,0,0,0-.55.49,1.29,1.29,0,0,0-.29.67A11.85,11.85,0,0,0,415.3,127.51Z"/><path class="cls-2" d="M425.93,127.5a8.14,8.14,0,0,1,.23-2.25,3.29,3.29,0,0,1,.74-1.29,3.36,3.36,0,0,1,1-.82,4.17,4.17,0,0,1,3.39,0,3,3,0,0,1,1,.83,2.9,2.9,0,0,1,.76,1.29,9.09,9.09,0,0,1,.21,2.24,8.91,8.91,0,0,1-.21,2.22,3.12,3.12,0,0,1-.76,1.32,2.31,2.31,0,0,1-.42.4,1.77,1.77,0,0,1-.58.38,3.79,3.79,0,0,1-3.39,0,3.44,3.44,0,0,1-1-.78,3.56,3.56,0,0,1-.74-1.32A7.9,7.9,0,0,1,425.93,127.5Zm5.57,0a8.16,8.16,0,0,0-.09-1.44,1.65,1.65,0,0,0-.35-.77,1.31,1.31,0,0,0-.59-.49,1.91,1.91,0,0,0-.86-.19,2,2,0,0,0-.85.19,1.69,1.69,0,0,0-.6.49,2.34,2.34,0,0,0-.34.77,7.88,7.88,0,0,0-.1,1.43,7.5,7.5,0,0,0,.1,1.4,2.57,2.57,0,0,0,.34.81,2.41,2.41,0,0,0,.6.47,1.87,1.87,0,0,0,.85.2,1.79,1.79,0,0,0,.86-.2,1.7,1.7,0,0,0,.59-.47,1.79,1.79,0,0,0,.35-.81A7.66,7.66,0,0,0,431.5,127.51Z"/><path class="cls-2" d="M438.34,126.15h5.29V128h-5.29Z"/><path class="cls-2" d="M449.17,120.08H451v2.81h1.31v1.42H451v5.38c0,.47.21.7.64.69h.67v1.74h-.93a2.07,2.07,0,0,1-1.55-.61,2.17,2.17,0,0,1-.62-1.67v-5.53h-.9v-1.42h.9Z"/><path class="cls-2" d="M456.77,127.5a8.55,8.55,0,0,1,.23-2.25,3.29,3.29,0,0,1,.74-1.29,3.41,3.41,0,0,1,1-.82,3.67,3.67,0,0,1,1.68-.36,3.81,3.81,0,0,1,1.71.36,3.24,3.24,0,0,1,1,.83,3,3,0,0,1,.75,1.29,8.54,8.54,0,0,1,.22,2.24,8.37,8.37,0,0,1-.22,2.22,3.21,3.21,0,0,1-.75,1.32,2.78,2.78,0,0,1-.43.4,1.83,1.83,0,0,1-.57.38,3.44,3.44,0,0,1-1.72.4,3.3,3.3,0,0,1-1.67-.4,3.37,3.37,0,0,1-1-.78,3.56,3.56,0,0,1-.74-1.32A8.3,8.3,0,0,1,456.77,127.5Zm5.57,0a8.4,8.4,0,0,0-.08-1.44,1.77,1.77,0,0,0-.36-.77,1.29,1.29,0,0,0-.58-.49,2,2,0,0,0-1.71,0,1.53,1.53,0,0,0-.6.49,2.15,2.15,0,0,0-.34.77,6.89,6.89,0,0,0-.11,1.43,6.55,6.55,0,0,0,.11,1.4,2.36,2.36,0,0,0,.34.81,2.09,2.09,0,0,0,.6.47,1.93,1.93,0,0,0,1.71,0,1.66,1.66,0,0,0,.58-.47,1.92,1.92,0,0,0,.36-.81A7.88,7.88,0,0,0,462.34,127.51Z"/><path class="cls-2" d="M483.45,130.63a4.66,4.66,0,0,1-1.38,1.12,3.67,3.67,0,0,1-1.84.47,3.93,3.93,0,0,1-2.77-1.11,4.68,4.68,0,0,1-1.27-3.6,4.78,4.78,0,0,1,1.27-3.64,3.85,3.85,0,0,1,2.78-1.09,4,4,0,0,1,1.83.44,4.64,4.64,0,0,1,1.38,1.16l-1.33,1.22a2.24,2.24,0,0,0-1.82-1c-1.52,0-2.3.94-2.32,2.89s.8,2.9,2.32,2.87a2.2,2.2,0,0,0,1.82-1Z"/><path class="cls-2" d="M488,119.16h1.8v4.71h0a2.84,2.84,0,0,1,2.32-1.09,3,3,0,0,1,2,.8,3.2,3.2,0,0,1,1,2.4v6.14h-1.8v-5.5a2,2,0,0,0-.5-1.48,1.67,1.67,0,0,0-1.26-.52,1.73,1.73,0,0,0-1.28.52,2,2,0,0,0-.5,1.48v5.5H488Z"/><path class="cls-2" d="M500.47,127.5a8.55,8.55,0,0,1,.23-2.25,3.29,3.29,0,0,1,.74-1.29,3.36,3.36,0,0,1,1-.82,3.73,3.73,0,0,1,1.68-.36,3.82,3.82,0,0,1,1.72.36,3.24,3.24,0,0,1,1,.83,3,3,0,0,1,.75,1.29,9,9,0,0,1,.22,2.24,8.82,8.82,0,0,1-.22,2.22,3.12,3.12,0,0,1-.76,1.32,2.31,2.31,0,0,1-.42.4,1.77,1.77,0,0,1-.58.38,3.79,3.79,0,0,1-3.39,0,3.44,3.44,0,0,1-1-.78,3.56,3.56,0,0,1-.74-1.32A8.3,8.3,0,0,1,500.47,127.5Zm5.57,0a9.59,9.59,0,0,0-.08-1.44,1.77,1.77,0,0,0-.36-.77,1.31,1.31,0,0,0-.59-.49,1.91,1.91,0,0,0-.86-.19,2,2,0,0,0-.84.19,1.64,1.64,0,0,0-.61.49,2.33,2.33,0,0,0-.33.77,6.89,6.89,0,0,0-.11,1.43,6.55,6.55,0,0,0,.11,1.4,2.55,2.55,0,0,0,.33.81,2.29,2.29,0,0,0,.61.47,1.86,1.86,0,0,0,.84.2,1.79,1.79,0,0,0,.86-.2,1.7,1.7,0,0,0,.59-.47,1.92,1.92,0,0,0,.36-.81A9,9,0,0,0,506,127.51Z"/><path class="cls-2" d="M513.16,119.16H515V121h-1.8Zm0,3.73H515v9.23h-1.8Z"/><path class="cls-2" d="M527.14,130.63a4.66,4.66,0,0,1-1.38,1.12,3.61,3.61,0,0,1-1.83.47,4,4,0,0,1-2.78-1.11,4.76,4.76,0,0,1-1.27-3.6,4.82,4.82,0,0,1,1.28-3.64,3.83,3.83,0,0,1,2.77-1.09,4,4,0,0,1,1.84.44,4.73,4.73,0,0,1,1.37,1.16l-1.32,1.22a2.25,2.25,0,0,0-1.82-1c-1.53,0-2.3.94-2.32,2.89s.79,2.9,2.32,2.87a2.21,2.21,0,0,0,1.82-1Z"/><path class="cls-2" d="M533.09,128.21a2.22,2.22,0,0,0,.62,1.69,2,2,0,0,0,1.51.58,2.65,2.65,0,0,0,2-.9l1.3,1.15a4.11,4.11,0,0,1-3.22,1.49,4.51,4.51,0,0,1-1.37-.21,3.31,3.31,0,0,1-.66-.31,3.14,3.14,0,0,1-.63-.42,3.65,3.65,0,0,1-.92-1.44,5.8,5.8,0,0,1-.38-2.31,6.68,6.68,0,0,1,.33-2.27,3.87,3.87,0,0,1,.86-1.46,3.27,3.27,0,0,1,1.2-.78,3.68,3.68,0,0,1,1.29-.24,3.62,3.62,0,0,1,2.59,1,3.81,3.81,0,0,1,1.09,2.86v1.53Zm3.78-1.53a2.46,2.46,0,0,0-.56-1.64,2,2,0,0,0-2.66,0,2.52,2.52,0,0,0-.56,1.64Z"/><path class="cls-2" d="M551.68,124.31h-.91v-1.42h.91v-1.22a2.44,2.44,0,0,1,.7-1.93,2.59,2.59,0,0,1,1.73-.58h1.16v1.74h-1c-.54,0-.8.24-.78.77v1.22h1.8v1.42h-1.8v7.81h-1.79Z"/><path class="cls-2" d="M559.1,127.5a8.55,8.55,0,0,1,.23-2.25,3.7,3.7,0,0,1,1.78-2.11,3.66,3.66,0,0,1,1.67-.36,3.82,3.82,0,0,1,1.72.36,3.24,3.24,0,0,1,1,.83,3,3,0,0,1,.75,1.29,8.54,8.54,0,0,1,.22,2.24,8.82,8.82,0,0,1-.22,2.22,3.12,3.12,0,0,1-.76,1.32,2.31,2.31,0,0,1-.42.4,1.83,1.83,0,0,1-.57.38,3.44,3.44,0,0,1-1.72.4,3.3,3.3,0,0,1-1.67-.4,3.37,3.37,0,0,1-1-.78,3.56,3.56,0,0,1-.74-1.32A8.3,8.3,0,0,1,559.1,127.5Zm5.57,0a9.59,9.59,0,0,0-.08-1.44,1.77,1.77,0,0,0-.36-.77,1.34,1.34,0,0,0-.58-.49,2,2,0,0,0-1.71,0,1.64,1.64,0,0,0-.61.49,2.33,2.33,0,0,0-.33.77,6.89,6.89,0,0,0-.11,1.43,6.55,6.55,0,0,0,.11,1.4,2.55,2.55,0,0,0,.33.81,2.29,2.29,0,0,0,.61.47,1.93,1.93,0,0,0,1.71,0,1.75,1.75,0,0,0,.58-.47,1.92,1.92,0,0,0,.36-.81A9,9,0,0,0,564.67,127.51Z"/><path class="cls-2" d="M571.74,122.89h1.79v1h0a3,3,0,0,1,4.2-.39l-1.31,1.61a1.85,1.85,0,0,0-1.18-.47,1.66,1.66,0,0,0-1.18.47,1.81,1.81,0,0,0-.57,1.46v5.57h-1.79Z"/><path class="cls-2" d="M589.38,122.89h1.79v1a3,3,0,0,1,2.31-1.07,2.77,2.77,0,0,1,2.4,1.2,2.58,2.58,0,0,1,.5,1.15,14.52,14.52,0,0,1,.13,2.38,14.33,14.33,0,0,1-.13,2.35,2.52,2.52,0,0,1-.51,1.16,2.69,2.69,0,0,1-1,.86,3,3,0,0,1-1.43.34,2.44,2.44,0,0,1-1.23-.31,3.72,3.72,0,0,1-1.07-.77v4.71h-1.79Zm3.55,7.49a1.81,1.81,0,0,0,1-.25,1.53,1.53,0,0,0,.53-.66,3.73,3.73,0,0,0,.23-.93c0-.33,0-.68,0-1s0-.72,0-1.08a3.35,3.35,0,0,0-.23-.92,1.33,1.33,0,0,0-.53-.66,1.91,1.91,0,0,0-1-.23,1.58,1.58,0,0,0-.95.26,1.45,1.45,0,0,0-.54.68,3.67,3.67,0,0,0-.22.91c0,.34-.05.69-.05,1s0,.66.05,1a3.7,3.7,0,0,0,.22.94,1.45,1.45,0,0,0,.54.68A1.51,1.51,0,0,0,592.93,130.38Z"/><path class="cls-2" d="M601.92,122.89h1.79v1h0a3,3,0,0,1,4.2-.39l-1.31,1.61a1.85,1.85,0,0,0-1.18-.47,1.66,1.66,0,0,0-1.18.47,1.81,1.81,0,0,0-.57,1.46v5.57h-1.79Z"/><path class="cls-2" d="M612.15,119.16h1.79V121h-1.79Zm0,3.73h1.79v9.23h-1.79Z"/><path class="cls-2" d="M619.55,122.89h1.8v1h0a2.84,2.84,0,0,1,2.32-1.09,3,3,0,0,1,2,.8,3.2,3.2,0,0,1,1,2.4v6.14h-1.8v-5.5a2,2,0,0,0-.49-1.48,1.81,1.81,0,0,0-2.54,0,2,2,0,0,0-.51,1.48v5.5h-1.8Z"/><path class="cls-2" d="M632.53,120.08h1.79v2.81h1.31v1.42h-1.31v5.38c0,.47.21.7.64.69h.67v1.74h-.93a2.07,2.07,0,0,1-1.55-.61,2.17,2.17,0,0,1-.62-1.67v-5.53h-.9v-1.42h.9Z"/><path class="cls-2" d="M640.63,119.16h1.79V121h-1.79Zm0,3.73h1.79v9.23h-1.79Z"/><path class="cls-2" d="M648,122.89h1.8v1h0a2.84,2.84,0,0,1,2.32-1.09,3,3,0,0,1,2,.8,3.2,3.2,0,0,1,1,2.4v6.14h-1.8v-5.5a2,2,0,0,0-.49-1.48,1.81,1.81,0,0,0-2.54,0,2,2,0,0,0-.51,1.48v5.5H648Z"/><path class="cls-2" d="M665.93,131.15a3,3,0,0,1-2.31,1.07,2.74,2.74,0,0,1-1.44-.38,3,3,0,0,1-.92-.75,2.71,2.71,0,0,1-.51-1.11,11.8,11.8,0,0,1-.17-2.47,12.32,12.32,0,0,1,.17-2.52,2.68,2.68,0,0,1,.51-1.09,2.79,2.79,0,0,1,.92-.78,3,3,0,0,1,1.44-.34,3,3,0,0,1,2.31,1.09v-1h1.79v9a3.92,3.92,0,0,1-1.16,3.06,4,4,0,0,1-2.72,1,4,4,0,0,1-3.09-1.55l1.39-1.14a3.22,3.22,0,0,0,.79.56,2.07,2.07,0,0,0,2.43-.25,2.05,2.05,0,0,0,.57-1.48Zm-3.55-3.64a9.7,9.7,0,0,0,.07,1.47,1.38,1.38,0,0,0,.28.69,1.72,1.72,0,0,0,.55.46,1.67,1.67,0,0,0,1.76,0,1.74,1.74,0,0,0,.53-.46,1.5,1.5,0,0,0,.3-.69,11.85,11.85,0,0,0,.06-1.47,12.44,12.44,0,0,0-.06-1.5,1.38,1.38,0,0,0-.3-.67,2.12,2.12,0,0,0-.53-.49,1.8,1.8,0,0,0-1.76,0,2.07,2.07,0,0,0-.55.49,1.28,1.28,0,0,0-.28.67A10.17,10.17,0,0,0,662.38,127.51Z"/><path class="cls-2" d="M681,119.16h1.79V121H681Zm0,3.73h1.79v9.23H681Z"/><path class="cls-2" d="M688.36,122.89h1.8v1h0a2.84,2.84,0,0,1,2.32-1.09,3,3,0,0,1,2,.8,3.2,3.2,0,0,1,1,2.4v6.14h-1.8v-5.5a2,2,0,0,0-.5-1.48,1.66,1.66,0,0,0-1.26-.52,1.73,1.73,0,0,0-1.28.52,2,2,0,0,0-.5,1.48v5.5h-1.8Z"/><path class="cls-2" d="M708.8,120.08h1.79v2.81h1.31v1.42h-1.31v5.38c0,.47.2.7.64.69h.67v1.74H711a2,2,0,0,1-1.54-.61,2.14,2.14,0,0,1-.62-1.67v-5.53h-.9v-1.42h.9Z"/><path class="cls-2" d="M716.84,119.16h1.8v4.71h0a2.84,2.84,0,0,1,2.32-1.09,3,3,0,0,1,2,.8,3.2,3.2,0,0,1,1,2.4v6.14h-1.8v-5.5a2,2,0,0,0-.5-1.48,1.66,1.66,0,0,0-1.26-.52,1.73,1.73,0,0,0-1.28.52,2,2,0,0,0-.5,1.48v5.5h-1.8Z"/><path class="cls-2" d="M731.06,128.21a2.22,2.22,0,0,0,.62,1.69,2,2,0,0,0,1.52.58,2.62,2.62,0,0,0,1.95-.9l1.31,1.15a4.14,4.14,0,0,1-3.22,1.49,4.62,4.62,0,0,1-1.38-.21,3.51,3.51,0,0,1-.65-.31,2.66,2.66,0,0,1-.63-.42,3.55,3.55,0,0,1-.92-1.44,5.79,5.79,0,0,1-.39-2.31,6.68,6.68,0,0,1,.33-2.27,4,4,0,0,1,.87-1.46,3.16,3.16,0,0,1,1.19-.78,3.76,3.76,0,0,1,1.29-.24,3.6,3.6,0,0,1,2.59,1,3.86,3.86,0,0,1,1.1,2.86v1.53Zm3.78-1.53a2.41,2.41,0,0,0-.56-1.64,2,2,0,0,0-2.66,0,2.57,2.57,0,0,0-.56,1.64Z"/><path class="cls-2" d="M756,129.22H751.2l-1,2.9h-2l4.56-13h1.6l4.56,13h-2Zm-.54-1.74-1.82-5.67h0l-1.82,5.67Z"/><path class="cls-2" d="M763.49,122.89h1.8v1h0a3,3,0,0,1,2.41-1.09,3.57,3.57,0,0,1,1.55.32,5.11,5.11,0,0,1,1.05.88,3.65,3.65,0,0,1,2.91-1.2,3.23,3.23,0,0,1,2.1.8,3.14,3.14,0,0,1,1,2.4v6.14h-1.8v-5.5a2,2,0,0,0-.52-1.48,1.79,1.79,0,0,0-1.32-.52,1.84,1.84,0,0,0-1.34.52,1.93,1.93,0,0,0-.54,1.48v5.5H769v-5.5a2,2,0,0,0-.52-1.48,1.83,1.83,0,0,0-1.33-.52,1.8,1.8,0,0,0-1.33.52,1.9,1.9,0,0,0-.55,1.48v5.5h-1.79Z"/><path class="cls-2" d="M782.43,129.3a3.67,3.67,0,0,0,2.83,1.18,2.32,2.32,0,0,0,1.27-.31,1,1,0,0,0,.49-.87.76.76,0,0,0-.3-.69,1.52,1.52,0,0,0-.8-.23l-1.58-.14a3,3,0,0,1-1.84-.78,2.41,2.41,0,0,1-.74-1.84,2.5,2.5,0,0,1,1-2.13,3.74,3.74,0,0,1,2.36-.71,6.29,6.29,0,0,1,1.11.08,5.88,5.88,0,0,1,.92.24,5.61,5.61,0,0,1,1.49.94l-1.12,1.34a5.46,5.46,0,0,0-1.09-.64,3.56,3.56,0,0,0-1.31-.22,1.75,1.75,0,0,0-1.19.31,1,1,0,0,0-.35.8.63.63,0,0,0,.27.54,1.52,1.52,0,0,0,.91.33l1.49.12a2.71,2.71,0,0,1,2,.87,3,3,0,0,1,.58,1.89,2.42,2.42,0,0,1-1.06,2.08,4.46,4.46,0,0,1-2.64.76,5.61,5.61,0,0,1-3.94-1.65Z"/><path class="cls-2" d="M794.1,120.08h1.8v2.81h1.3v1.42h-1.3v5.38c0,.47.2.7.63.69h.67v1.74h-.93a2.07,2.07,0,0,1-1.55-.61,2.17,2.17,0,0,1-.62-1.67v-5.53h-.9v-1.42h.9Z"/><path class="cls-2" d="M803.5,128.21a2.18,2.18,0,0,0,.62,1.69,2,2,0,0,0,1.51.58,2.66,2.66,0,0,0,2-.9l1.3,1.15a4.12,4.12,0,0,1-3.22,1.49,4.62,4.62,0,0,1-1.38-.21,3.51,3.51,0,0,1-.65-.31,3.14,3.14,0,0,1-.63-.42,3.65,3.65,0,0,1-.92-1.44,5.79,5.79,0,0,1-.39-2.31,6.42,6.42,0,0,1,.34-2.27,3.87,3.87,0,0,1,.86-1.46,3.16,3.16,0,0,1,1.19-.78,3.77,3.77,0,0,1,1.3-.24,3.62,3.62,0,0,1,2.59,1,3.85,3.85,0,0,1,1.09,2.86v1.53Zm3.78-1.53a2.42,2.42,0,0,0-.57-1.64,1.76,1.76,0,0,0-1.32-.52,1.78,1.78,0,0,0-1.33.52,2.52,2.52,0,0,0-.56,1.64Z"/><path class="cls-2" d="M814.34,122.89h1.8v1h0a3,3,0,0,1,4.21-.39l-1.31,1.61a1.87,1.87,0,0,0-1.18-.47,1.69,1.69,0,0,0-1.19.47,1.84,1.84,0,0,0-.56,1.46v5.57h-1.8Z"/><path class="cls-2" d="M829.53,131.15a3,3,0,0,1-2.31,1.07,2.89,2.89,0,0,1-1.39-.34,3.07,3.07,0,0,1-1-.86,2.32,2.32,0,0,1-.49-1.18,18.56,18.56,0,0,1,0-4.71,2.29,2.29,0,0,1,.49-1.15,3,3,0,0,1,3.66-.91,5,5,0,0,1,1,.79v-4.7h1.8v13h-1.8Zm-1.76-6.53a1.77,1.77,0,0,0-1,.23,1.47,1.47,0,0,0-.54.66,3.27,3.27,0,0,0-.21.91,9.54,9.54,0,0,0,0,1.08,8.5,8.5,0,0,0,0,1,3.4,3.4,0,0,0,.21.95,1.72,1.72,0,0,0,.54.66,1.69,1.69,0,0,0,1,.25,1.7,1.7,0,0,0,1-.27,1.31,1.31,0,0,0,.5-.68,3.32,3.32,0,0,0,.24-.94c0-.33,0-.67,0-1s0-.7,0-1a3.29,3.29,0,0,0-.24-.91,1.31,1.31,0,0,0-.5-.68A1.78,1.78,0,0,0,827.77,124.62Z"/><path class="cls-2" d="M841.43,131.3h0a1.49,1.49,0,0,1-.77.69,3.5,3.5,0,0,1-1.43.23,3.21,3.21,0,0,1-2.31-.81,2.64,2.64,0,0,1-.85-2,2.67,2.67,0,0,1,.74-1.93,2.9,2.9,0,0,1,2.17-.8h2.49v-1c0-.82-.6-1.22-1.84-1.19a3.09,3.09,0,0,0-1.06.14,1.25,1.25,0,0,0-.63.57l-1.41-1.11a3.4,3.4,0,0,1,3-1.34,4.62,4.62,0,0,1,2.7.65,2.74,2.74,0,0,1,1,2.39v6.3h-1.79Zm0-3.09h-2.16c-1,0-1.56.39-1.55,1.11a1,1,0,0,0,.4.8,1.88,1.88,0,0,0,1.29.36,3.14,3.14,0,0,0,1.59-.27c.29-.2.43-.64.43-1.34Z"/><path class="cls-2" d="M848.86,122.89h1.79v1h0a3,3,0,0,1,2.41-1.09,3.49,3.49,0,0,1,1.54.32,4.92,4.92,0,0,1,1.06.88,3.62,3.62,0,0,1,2.91-1.2,3.18,3.18,0,0,1,2.09.8,3.1,3.1,0,0,1,1,2.4v6.14h-1.79v-5.5a2,2,0,0,0-.52-1.48,1.82,1.82,0,0,0-1.33-.52,1.86,1.86,0,0,0-1.34.52,2,2,0,0,0-.53,1.48v5.5h-1.79v-5.5a2,2,0,0,0-.52-1.48,2,2,0,0,0-2.67,0,1.93,1.93,0,0,0-.54,1.48v5.5h-1.79Z"/><path class="cls-2" d="M879.68,131.3h0a1.56,1.56,0,0,1-.78.69,3.45,3.45,0,0,1-1.42.23,3.21,3.21,0,0,1-2.31-.81,2.6,2.6,0,0,1-.85-2,2.63,2.63,0,0,1,.74-1.93,2.88,2.88,0,0,1,2.17-.8h2.48v-1c0-.82-.6-1.22-1.83-1.19a3.05,3.05,0,0,0-1.06.14,1.31,1.31,0,0,0-.64.57l-1.41-1.11a3.42,3.42,0,0,1,3-1.34,4.61,4.61,0,0,1,2.69.65,2.77,2.77,0,0,1,1,2.39v6.3h-1.8Zm0-3.09h-2.15q-1.57,0-1.56,1.11a1,1,0,0,0,.41.8,1.86,1.86,0,0,0,1.28.36,3.16,3.16,0,0,0,1.6-.27c.28-.2.42-.64.42-1.34Z"/><path class="cls-2" d="M887.19,122.89H889v1h0a3,3,0,0,1,4.2-.39l-1.31,1.61a1.85,1.85,0,0,0-1.18-.47,1.66,1.66,0,0,0-1.18.47,1.81,1.81,0,0,0-.57,1.46v5.57h-1.79Z"/><path class="cls-2" d="M898.38,128.21a2.22,2.22,0,0,0,.62,1.69,2,2,0,0,0,1.52.58,2.66,2.66,0,0,0,2-.9l1.3,1.15a4.14,4.14,0,0,1-3.22,1.49,4.62,4.62,0,0,1-1.38-.21,3.51,3.51,0,0,1-.65-.31,2.66,2.66,0,0,1-.63-.42,3.55,3.55,0,0,1-.92-1.44,5.79,5.79,0,0,1-.39-2.31,6.42,6.42,0,0,1,.34-2.27,3.87,3.87,0,0,1,.86-1.46A3.16,3.16,0,0,1,899,123a3.76,3.76,0,0,1,1.29-.24,3.6,3.6,0,0,1,2.59,1,3.86,3.86,0,0,1,1.1,2.86v1.53Zm3.78-1.53a2.41,2.41,0,0,0-.56-1.64,2,2,0,0,0-2.66,0,2.63,2.63,0,0,0-.56,1.64Z"/><path class="cls-2" d="M913.92,131.3h0a1.56,1.56,0,0,1-.78.69,3.45,3.45,0,0,1-1.42.23,3.21,3.21,0,0,1-2.31-.81,2.6,2.6,0,0,1-.85-2,2.63,2.63,0,0,1,.74-1.93,2.88,2.88,0,0,1,2.17-.8h2.48v-1c0-.82-.6-1.22-1.83-1.19a3.05,3.05,0,0,0-1.06.14,1.31,1.31,0,0,0-.64.57L909,124.12a3.42,3.42,0,0,1,3-1.34,4.61,4.61,0,0,1,2.69.65,2.77,2.77,0,0,1,1,2.39v6.3h-1.8Zm0-3.09h-2.15q-1.57,0-1.56,1.11a1,1,0,0,0,.41.8,1.86,1.86,0,0,0,1.28.36,3.16,3.16,0,0,0,1.6-.27c.28-.2.42-.64.42-1.34Z"/><path class="cls-2" d="M921.48,130.27h1.79v1.85h-1.79Z"/><path class="cls-2" d="M89.44,141h4.87a3.79,3.79,0,0,1,2.78,1,3.44,3.44,0,0,1,.94,2.52,3,3,0,0,1-.38,1.52,2.29,2.29,0,0,1-.56.66,4.07,4.07,0,0,1-.92.6v0a2.58,2.58,0,0,1,1.56,1.11,3.72,3.72,0,0,1,.49,1.88,3.59,3.59,0,0,1-1,2.66,3.3,3.3,0,0,1-2.47,1H89.44Zm1.9,1.74v3.73h2.75a1.94,1.94,0,0,0,1.53-.56,1.79,1.79,0,0,0,.5-1.31,1.87,1.87,0,0,0-.5-1.33,2.08,2.08,0,0,0-1.53-.53Zm0,5.47v3.9h2.94a2,2,0,0,0,1.55-.6,2,2,0,0,0,.49-1.35,2,2,0,0,0-.49-1.37,2,2,0,0,0-1.55-.58Z"/><path class="cls-2" d="M103.53,141h1.79v1.85h-1.79Zm0,3.73h1.79V154h-1.79Z"/><path class="cls-2" d="M116,153a3,3,0,0,1-2.31,1.07,2.74,2.74,0,0,1-1.44-.39,3.13,3.13,0,0,1-.92-.74,2.82,2.82,0,0,1-.51-1.12,11.8,11.8,0,0,1-.17-2.47,12.32,12.32,0,0,1,.17-2.52,2.68,2.68,0,0,1,.51-1.09,2.79,2.79,0,0,1,.92-.78,3.06,3.06,0,0,1,1.44-.34,3,3,0,0,1,2.31,1.09v-1h1.79v9a3.91,3.91,0,0,1-1.16,3,4,4,0,0,1-5.81-.54l1.39-1.14a3.22,3.22,0,0,0,.79.56,2,2,0,0,0,1,.28,1.9,1.9,0,0,0,2-2Zm-3.55-3.64a9.63,9.63,0,0,0,.07,1.46,1.35,1.35,0,0,0,.28.69,1.72,1.72,0,0,0,.55.46,1.67,1.67,0,0,0,1.76,0,1.74,1.74,0,0,0,.53-.46,1.46,1.46,0,0,0,.3-.69,11.77,11.77,0,0,0,.06-1.46,12.44,12.44,0,0,0-.06-1.5,1.38,1.38,0,0,0-.3-.68,2.12,2.12,0,0,0-.53-.49,1.87,1.87,0,0,0-1.76,0,2.07,2.07,0,0,0-.55.49,1.28,1.28,0,0,0-.28.68A10.17,10.17,0,0,0,112.41,149.36Z"/><path class="cls-2" d="M131,141h1.79v1.85H131Zm0,3.73h1.79V154H131Z"/><path class="cls-2" d="M138.39,144.73h1.8v1h0a2.84,2.84,0,0,1,2.32-1.09,3,3,0,0,1,2,.81,3.16,3.16,0,0,1,1,2.4V154h-1.8v-5.5a2,2,0,0,0-.5-1.48,1.65,1.65,0,0,0-1.26-.51,1.73,1.73,0,0,0-1.28.51,2,2,0,0,0-.5,1.48V154h-1.8Z"/><path class="cls-2" d="M159,151.14a3.69,3.69,0,0,0,2.83,1.19,2.32,2.32,0,0,0,1.27-.32,1,1,0,0,0,.49-.87.76.76,0,0,0-.29-.69,1.46,1.46,0,0,0-.8-.22l-1.59-.15a3,3,0,0,1-1.84-.78,2.41,2.41,0,0,1-.74-1.84,2.51,2.51,0,0,1,1-2.13,3.79,3.79,0,0,1,2.36-.71,6.29,6.29,0,0,1,1.11.08,4.59,4.59,0,0,1,2.4,1.18l-1.11,1.34a5.53,5.53,0,0,0-1.1-.64,3.53,3.53,0,0,0-1.31-.22,1.72,1.72,0,0,0-1.18.31,1,1,0,0,0-.35.8.6.6,0,0,0,.26.54,1.46,1.46,0,0,0,.92.33l1.48.12a2.73,2.73,0,0,1,2,.87,3,3,0,0,1,.58,1.9,2.44,2.44,0,0,1-1.06,2.07,4.53,4.53,0,0,1-2.64.77,5.62,5.62,0,0,1-3.94-1.66Z"/><path class="cls-2" d="M170.48,144.73h1.8v1h0a3,3,0,0,1,2.41-1.09,3.4,3.4,0,0,1,1.55.33,4.55,4.55,0,0,1,1,.88,3.66,3.66,0,0,1,2.91-1.21,3.17,3.17,0,0,1,2.1.81,3.11,3.11,0,0,1,1,2.4V154h-1.8v-5.5A2,2,0,0,0,181,147a2,2,0,0,0-2.67,0,1.93,1.93,0,0,0-.54,1.48V154H176v-5.5a2,2,0,0,0-.51-1.48,1.85,1.85,0,0,0-1.34-.51,1.79,1.79,0,0,0-1.33.51,1.93,1.93,0,0,0-.54,1.48V154h-1.8Z"/><path class="cls-2" d="M193.85,153.14h0a1.41,1.41,0,0,1-.77.69,3.45,3.45,0,0,1-1.43.24,3.21,3.21,0,0,1-2.3-.82,2.59,2.59,0,0,1-.86-2,2.67,2.67,0,0,1,.74-1.93,2.91,2.91,0,0,1,2.17-.8h2.49v-1c0-.82-.6-1.21-1.83-1.19a3.27,3.27,0,0,0-1.06.14,1.36,1.36,0,0,0-.64.57L188.91,146a3.42,3.42,0,0,1,3-1.34,4.69,4.69,0,0,1,2.69.66,2.71,2.71,0,0,1,1,2.38V154h-1.79Zm0-3.09h-2.16c-1,0-1.56.39-1.55,1.11a1,1,0,0,0,.41.8,1.83,1.83,0,0,0,1.28.37,3.06,3.06,0,0,0,1.6-.28c.28-.2.42-.64.42-1.34Z"/><path class="cls-2" d="M201.35,141h1.79v10.59c0,.42.23.63.68.63h.62V154h-.8a2.53,2.53,0,0,1-1.62-.51,2,2,0,0,1-.67-1.72Z"/><path class="cls-2" d="M209.14,141h1.79v10.59c0,.42.23.63.67.63h.63V154h-.8a2.49,2.49,0,0,1-1.62-.51,2,2,0,0,1-.67-1.72Z"/><path class="cls-2" d="M216.69,148H222v1.84h-5.3Z"/><path class="cls-2" d="M227.71,146.16h-.91v-1.43h.91v-1.21a2.45,2.45,0,0,1,.7-1.94,2.59,2.59,0,0,1,1.73-.58h1.16v1.74h-1c-.54,0-.8.24-.78.77v1.22h1.8v1.43h-1.8V154h-1.79Z"/><path class="cls-2" d="M235.13,149.34a8.6,8.6,0,0,1,.23-2.25,3.29,3.29,0,0,1,.74-1.29,3.44,3.44,0,0,1,1-.82,3.66,3.66,0,0,1,1.67-.36,3.82,3.82,0,0,1,1.72.36,3.38,3.38,0,0,1,1,.83,3,3,0,0,1,.75,1.29,9.05,9.05,0,0,1,.22,2.24,8.82,8.82,0,0,1-.22,2.22,3.12,3.12,0,0,1-.76,1.32,2.31,2.31,0,0,1-.42.4,2,2,0,0,1-.57.39,3.67,3.67,0,0,1-1.72.4,3.59,3.59,0,0,1-1.68-.4,3.63,3.63,0,0,1-1-.79,3.56,3.56,0,0,1-.74-1.32A8.3,8.3,0,0,1,235.13,149.34Zm5.57,0a9.75,9.75,0,0,0-.08-1.45,1.77,1.77,0,0,0-.36-.77,1.41,1.41,0,0,0-.58-.49,2.12,2.12,0,0,0-1.71,0,1.74,1.74,0,0,0-.61.49,2.33,2.33,0,0,0-.33.77,6.89,6.89,0,0,0-.11,1.43,6.73,6.73,0,0,0,.11,1.41,2.5,2.5,0,0,0,.33.8,2.29,2.29,0,0,0,.61.47,1.93,1.93,0,0,0,1.71,0,1.75,1.75,0,0,0,.58-.47,1.88,1.88,0,0,0,.36-.8A9.1,9.1,0,0,0,240.7,149.36Z"/><path class="cls-2" d="M247.77,144.73h1.79v1h0a2.94,2.94,0,0,1,4.2-.38l-1.31,1.6a1.84,1.84,0,0,0-1.18-.46,1.65,1.65,0,0,0-1.18.46,1.82,1.82,0,0,0-.57,1.47V154h-1.79Z"/><path class="cls-2" d="M257.87,144.73h1.8v1h0a3,3,0,0,1,2.4-1.09,3.4,3.4,0,0,1,1.55.33,4.4,4.4,0,0,1,1.06.88,3.63,3.63,0,0,1,2.91-1.21,3.14,3.14,0,0,1,2.09.81,3.07,3.07,0,0,1,1,2.4V154h-1.79v-5.5a2,2,0,0,0-.52-1.48,1.81,1.81,0,0,0-1.33-.51,1.85,1.85,0,0,0-1.34.51,2,2,0,0,0-.53,1.48V154H263.4v-5.5a2,2,0,0,0-.52-1.48,1.85,1.85,0,0,0-1.34-.51,1.83,1.83,0,0,0-1.33.51,1.93,1.93,0,0,0-.54,1.48V154h-1.8Z"/><path class="cls-2" d="M281.24,153.14h0a1.47,1.47,0,0,1-.78.69,3.43,3.43,0,0,1-1.42.24,3.26,3.26,0,0,1-2.31-.82,2.59,2.59,0,0,1-.85-2,2.63,2.63,0,0,1,.74-1.93,2.88,2.88,0,0,1,2.17-.8h2.48v-1c0-.82-.6-1.21-1.83-1.19a3.31,3.31,0,0,0-1.06.14,1.41,1.41,0,0,0-.64.57L276.3,146a3.42,3.42,0,0,1,3-1.34,4.69,4.69,0,0,1,2.69.66,2.71,2.71,0,0,1,1,2.38V154h-1.8Zm0-3.09h-2.15c-1,0-1.57.39-1.55,1.11a1,1,0,0,0,.4.8,1.87,1.87,0,0,0,1.29.37,3,3,0,0,0,1.59-.28c.28-.2.42-.64.42-1.34Z"/><path class="cls-2" d="M288.85,141.93h1.8v2.8H292v1.43h-1.3v5.37c0,.47.2.7.63.69H292V154H291a2.1,2.1,0,0,1-1.55-.6,2.2,2.2,0,0,1-.62-1.67v-5.53H288v-1.43h.9Z"/><path class="cls-2" d="M304.36,144.73h1.79v1a3.06,3.06,0,0,1,2.3-1.07,2.76,2.76,0,0,1,2.41,1.21,2.49,2.49,0,0,1,.5,1.14,14.66,14.66,0,0,1,.13,2.39,14.19,14.19,0,0,1-.13,2.34,2.56,2.56,0,0,1-.51,1.17,2.67,2.67,0,0,1-1,.85,3.11,3.11,0,0,1-1.43.35,2.55,2.55,0,0,1-1.23-.31,4,4,0,0,1-1.07-.78v4.71h-1.79Zm3.55,7.49a1.84,1.84,0,0,0,1-.25,1.42,1.42,0,0,0,.53-.66,3.73,3.73,0,0,0,.23-.93c0-.33,0-.67,0-1s0-.73,0-1.08a3.52,3.52,0,0,0-.23-.93,1.33,1.33,0,0,0-.53-.66,1.94,1.94,0,0,0-1-.22,1.58,1.58,0,0,0-1,.25,1.49,1.49,0,0,0-.54.68,3.79,3.79,0,0,0-.22.91c0,.35-.05.69-.05,1.05s0,.65.05,1a3.73,3.73,0,0,0,.22.93,1.45,1.45,0,0,0,.54.68A1.51,1.51,0,0,0,307.91,152.22Z"/><path class="cls-2" d="M316.9,144.73h1.79v1h0a2.94,2.94,0,0,1,4.2-.38l-1.31,1.6a1.84,1.84,0,0,0-1.18-.46,1.65,1.65,0,0,0-1.18.46,1.82,1.82,0,0,0-.57,1.47V154H316.9Z"/><path class="cls-2" d="M327.13,141h1.79v1.85h-1.79Zm0,3.73h1.79V154h-1.79Z"/><path class="cls-2" d="M334.53,144.73h1.8v1h0a2.84,2.84,0,0,1,2.32-1.09,3,3,0,0,1,2,.81,3.16,3.16,0,0,1,1,2.4V154h-1.8v-5.5a2,2,0,0,0-.5-1.48,1.65,1.65,0,0,0-1.26-.51,1.73,1.73,0,0,0-1.28.51,2,2,0,0,0-.5,1.48V154h-1.8Z"/><path class="cls-2" d="M347.51,141.93h1.79v2.8h1.31v1.43H349.3v5.37c0,.47.2.7.64.69h.67V154h-.93a2.1,2.1,0,0,1-1.55-.6,2.2,2.2,0,0,1-.62-1.67v-5.53h-.9v-1.43h.9Z"/><path class="cls-2" d="M355.61,141h1.79v1.85h-1.79Zm0,3.73h1.79V154h-1.79Z"/><path class="cls-2" d="M363,144.73h1.8v1h0a2.84,2.84,0,0,1,2.32-1.09,3,3,0,0,1,2,.81,3.16,3.16,0,0,1,1,2.4V154h-1.8v-5.5a2,2,0,0,0-.49-1.48,1.84,1.84,0,0,0-2.54,0,2,2,0,0,0-.51,1.48V154H363Z"/><path class="cls-2" d="M380.91,153a3,3,0,0,1-2.31,1.07,2.74,2.74,0,0,1-1.44-.39,3.13,3.13,0,0,1-.92-.74,2.82,2.82,0,0,1-.51-1.12,11.8,11.8,0,0,1-.17-2.47,12.32,12.32,0,0,1,.17-2.52,2.68,2.68,0,0,1,.51-1.09,2.79,2.79,0,0,1,.92-.78,3.06,3.06,0,0,1,1.44-.34,3,3,0,0,1,2.31,1.09v-1h1.79v9a3.91,3.91,0,0,1-1.16,3,4,4,0,0,1-5.81-.54l1.39-1.14a3.22,3.22,0,0,0,.79.56,2,2,0,0,0,.95.28,2.05,2.05,0,0,0,1.48-.53,2.08,2.08,0,0,0,.57-1.48Zm-3.55-3.64a9.63,9.63,0,0,0,.07,1.46,1.35,1.35,0,0,0,.28.69,1.62,1.62,0,0,0,.55.46,1.67,1.67,0,0,0,1.76,0,1.74,1.74,0,0,0,.53-.46,1.46,1.46,0,0,0,.3-.69,11.77,11.77,0,0,0,.06-1.46,12.44,12.44,0,0,0-.06-1.5,1.38,1.38,0,0,0-.3-.68,2.12,2.12,0,0,0-.53-.49,1.87,1.87,0,0,0-1.76,0,1.93,1.93,0,0,0-.55.49,1.28,1.28,0,0,0-.28.68A10.17,10.17,0,0,0,377.36,149.36Z"/><path class="cls-2" d="M388.48,152.11h1.79V154l-1.79,1.35Z"/><path class="cls-2" d="M403.34,141h1.8v4.71a4.6,4.6,0,0,1,1.07-.8,2.6,2.6,0,0,1,1.23-.29,2.73,2.73,0,0,1,2.4,1.21,2.4,2.4,0,0,1,.51,1.14,15.71,15.71,0,0,1,.13,2.37,15.43,15.43,0,0,1-.13,2.34,2.46,2.46,0,0,1-.51,1.19,2.75,2.75,0,0,1-1,.85,3.14,3.14,0,0,1-1.43.35,3,3,0,0,1-2.3-1.07v1h-1.8Zm3.56,5.47a1.47,1.47,0,0,0-1.5.93,3.36,3.36,0,0,0-.21.91,8.56,8.56,0,0,0-.05,1,8.48,8.48,0,0,0,.05,1,3.33,3.33,0,0,0,.21.93,1.58,1.58,0,0,0,.54.68,1.56,1.56,0,0,0,1,.27,1.84,1.84,0,0,0,1-.25,1.34,1.34,0,0,0,.52-.66,3.39,3.39,0,0,0,.24-.95c0-.33,0-.67,0-1s0-.73,0-1.08a3.29,3.29,0,0,0-.24-.91,1.26,1.26,0,0,0-.52-.66A1.94,1.94,0,0,0,406.9,146.47Z"/><path class="cls-2" d="M415.44,149.34a8.6,8.6,0,0,1,.23-2.25,3.29,3.29,0,0,1,.74-1.29,3.44,3.44,0,0,1,1-.82,3.66,3.66,0,0,1,1.67-.36,3.82,3.82,0,0,1,1.72.36,3.38,3.38,0,0,1,1,.83,3,3,0,0,1,.75,1.29,9.05,9.05,0,0,1,.22,2.24,8.82,8.82,0,0,1-.22,2.22,3.12,3.12,0,0,1-.76,1.32,2.31,2.31,0,0,1-.42.4,2,2,0,0,1-.57.39,3.67,3.67,0,0,1-1.72.4,3.59,3.59,0,0,1-1.68-.4,3.63,3.63,0,0,1-1-.79,3.56,3.56,0,0,1-.74-1.32A8.3,8.3,0,0,1,415.44,149.34Zm5.57,0a9.75,9.75,0,0,0-.08-1.45,1.77,1.77,0,0,0-.36-.77,1.41,1.41,0,0,0-.58-.49,2.12,2.12,0,0,0-1.71,0,1.74,1.74,0,0,0-.61.49,2.33,2.33,0,0,0-.33.77,6.89,6.89,0,0,0-.11,1.43,6.73,6.73,0,0,0,.11,1.41,2.5,2.5,0,0,0,.33.8,2.29,2.29,0,0,0,.61.47,1.93,1.93,0,0,0,1.71,0,1.75,1.75,0,0,0,.58-.47,1.88,1.88,0,0,0,.36-.8A9.1,9.1,0,0,0,421,149.36Z"/><path class="cls-2" d="M428.19,141.93H430v2.8h1.31v1.43H430v5.37c0,.47.2.7.64.69h.67V154h-.94a2.12,2.12,0,0,1-1.55-.6,2.2,2.2,0,0,1-.61-1.67v-5.53h-.9v-1.43h.9Z"/><path class="cls-2" d="M436.23,141H438v4.71h0a2.83,2.83,0,0,1,2.32-1.09,3,3,0,0,1,2,.81,3.16,3.16,0,0,1,1,2.4V154h-1.8v-5.5a2,2,0,0,0-.5-1.48,1.67,1.67,0,0,0-1.26-.51,1.73,1.73,0,0,0-1.28.51,2,2,0,0,0-.51,1.48V154h-1.79Z"/><path class="cls-2" d="M461.9,153a3,3,0,0,1-4.7-.13,2.4,2.4,0,0,1-.49-1.19,18.56,18.56,0,0,1,0-4.71,2.29,2.29,0,0,1,.49-1.15,2.74,2.74,0,0,1,2.39-1.2,2.85,2.85,0,0,1,1.27.29,5.08,5.08,0,0,1,1,.8V141h1.79v13H461.9Zm-1.76-6.53a1.78,1.78,0,0,0-1,.22,1.47,1.47,0,0,0-.54.66,3.67,3.67,0,0,0-.22.91c0,.35,0,.71,0,1.08s0,.69,0,1a3.78,3.78,0,0,0,.22.95,1.58,1.58,0,0,0,.54.66,1.69,1.69,0,0,0,1,.25,1.65,1.65,0,0,0,1-.27,1.28,1.28,0,0,0,.51-.68,3.34,3.34,0,0,0,.23-.93c0-.34,0-.67,0-1s0-.7,0-1a3.38,3.38,0,0,0-.23-.91,1.32,1.32,0,0,0-.51-.68A1.72,1.72,0,0,0,460.14,146.47Z"/><path class="cls-2" d="M469.15,141H471v1.85h-1.8Zm0,3.73H471V154h-1.8Z"/><path class="cls-2" d="M481.58,153a3,3,0,0,1-2.3,1.07,2.81,2.81,0,0,1-1.45-.39,3.27,3.27,0,0,1-.92-.74,3.12,3.12,0,0,1-.51-1.12,12,12,0,0,1-.16-2.47,12.55,12.55,0,0,1,.16-2.52,3,3,0,0,1,.51-1.09,2.89,2.89,0,0,1,.92-.78,3.14,3.14,0,0,1,1.45-.34,3,3,0,0,1,2.3,1.09v-1h1.8v9a3.74,3.74,0,0,1-3.88,4.06,4,4,0,0,1-3.1-1.55l1.4-1.14a3.22,3.22,0,0,0,.79.56,1.93,1.93,0,0,0,.94.28,2,2,0,0,0,1.48-.53,2,2,0,0,0,.57-1.48ZM478,149.36a11.21,11.21,0,0,0,.07,1.46,1.36,1.36,0,0,0,.29.69,1.62,1.62,0,0,0,.55.46,1.52,1.52,0,0,0,.88.25,1.49,1.49,0,0,0,.87-.25,1.68,1.68,0,0,0,.54-.46,1.46,1.46,0,0,0,.3-.69c0-.27.05-.76.05-1.46s0-1.22-.05-1.5a1.38,1.38,0,0,0-.3-.68,2,2,0,0,0-.54-.49,1.75,1.75,0,0,0-.87-.22,1.79,1.79,0,0,0-.88.22,1.93,1.93,0,0,0-.55.49,1.28,1.28,0,0,0-.29.68A11.85,11.85,0,0,0,478,149.36Z"/><path class="cls-2" d="M489.15,141H491v1.85h-1.8Zm0,3.73H491V154h-1.8Z"/><path class="cls-2" d="M496.67,141.93h1.79v2.8h1.31v1.43h-1.31v5.37c0,.47.2.7.64.69h.67V154h-.94a2.08,2.08,0,0,1-1.54-.6,2.17,2.17,0,0,1-.62-1.67v-5.53h-.9v-1.43h.9Z"/><path class="cls-2" d="M509.4,153.14h0a1.47,1.47,0,0,1-.78.69,3.43,3.43,0,0,1-1.42.24,3.26,3.26,0,0,1-2.31-.82,2.59,2.59,0,0,1-.85-2,2.67,2.67,0,0,1,.74-1.93,2.88,2.88,0,0,1,2.17-.8h2.48v-1c0-.82-.6-1.21-1.83-1.19a3.31,3.31,0,0,0-1.06.14,1.41,1.41,0,0,0-.64.57L504.46,146a3.43,3.43,0,0,1,3-1.34,4.66,4.66,0,0,1,2.69.66,2.71,2.71,0,0,1,1,2.38V154h-1.8Zm0-3.09h-2.15c-1.05,0-1.57.39-1.55,1.11a1,1,0,0,0,.4.8,1.87,1.87,0,0,0,1.29.37,3,3,0,0,0,1.59-.28c.28-.2.42-.64.42-1.34Z"/><path class="cls-2" d="M516.91,141h1.79v10.59c0,.42.22.63.67.63H520V154h-.8a2.48,2.48,0,0,1-1.61-.51,2,2,0,0,1-.67-1.72Z"/><path class="cls-2" d="M536.84,153.14h0a1.45,1.45,0,0,1-.77.69,3.51,3.51,0,0,1-1.43.24,3.26,3.26,0,0,1-2.31-.82,2.59,2.59,0,0,1-.85-2,2.67,2.67,0,0,1,.74-1.93,2.9,2.9,0,0,1,2.17-.8h2.48v-1c0-.82-.6-1.21-1.83-1.19a3.31,3.31,0,0,0-1.06.14,1.34,1.34,0,0,0-.63.57L531.9,146a3.43,3.43,0,0,1,3-1.34,4.66,4.66,0,0,1,2.69.66,2.69,2.69,0,0,1,1,2.38V154h-1.8Zm0-3.09h-2.15c-1.05,0-1.57.39-1.55,1.11a1,1,0,0,0,.4.8,1.87,1.87,0,0,0,1.29.37,3,3,0,0,0,1.59-.28c.28-.2.42-.64.42-1.34Z"/><path class="cls-2" d="M544.35,144.73h1.79v1h0a2.86,2.86,0,0,1,2.33-1.09,3,3,0,0,1,2,.81,3.2,3.2,0,0,1,1,2.4V154h-1.79v-5.5a2,2,0,0,0-.5-1.48,1.84,1.84,0,0,0-2.54,0,2,2,0,0,0-.51,1.48V154h-1.79Z"/><path class="cls-2" d="M562.56,153a3,3,0,0,1-2.31,1.07,3,3,0,0,1-1.39-.35,3.08,3.08,0,0,1-1-.85,2.49,2.49,0,0,1-.49-1.19,19.88,19.88,0,0,1,0-4.71,2.38,2.38,0,0,1,.49-1.15,2.77,2.77,0,0,1,2.4-1.2,2.89,2.89,0,0,1,1.27.29,5.08,5.08,0,0,1,1,.8V141h1.79v13h-1.79Zm-1.77-6.53a1.74,1.74,0,0,0-1,.22,1.35,1.35,0,0,0-.54.66,3.67,3.67,0,0,0-.22.91c0,.35,0,.71,0,1.08s0,.69,0,1a3.78,3.78,0,0,0,.22.95,1.44,1.44,0,0,0,.54.66,1.65,1.65,0,0,0,1,.25,1.68,1.68,0,0,0,1-.27,1.28,1.28,0,0,0,.51-.68,3.73,3.73,0,0,0,.23-.93c0-.34,0-.67,0-1s0-.7,0-1a3.79,3.79,0,0,0-.23-.91,1.32,1.32,0,0,0-.51-.68A1.76,1.76,0,0,0,560.79,146.47Z"/><path class="cls-2" d="M576.77,149.34a8.12,8.12,0,0,1,.24-2.25,3.17,3.17,0,0,1,.74-1.29,3.39,3.39,0,0,1,1-.82,3.67,3.67,0,0,1,1.68-.36,3.81,3.81,0,0,1,1.71.36,3.38,3.38,0,0,1,1,.83,2.88,2.88,0,0,1,.75,1.29,8.59,8.59,0,0,1,.22,2.24,8.37,8.37,0,0,1-.22,2.22,3.1,3.1,0,0,1-.75,1.32,3.22,3.22,0,0,1-.42.4,2.1,2.1,0,0,1-.58.39,3.66,3.66,0,0,1-1.71.4,3.53,3.53,0,0,1-1.68-.4,3.49,3.49,0,0,1-1-.79,3.43,3.43,0,0,1-.74-1.32A7.84,7.84,0,0,1,576.77,149.34Zm5.58,0a8.29,8.29,0,0,0-.09-1.45,1.87,1.87,0,0,0-.35-.77,1.44,1.44,0,0,0-.59-.49,2.12,2.12,0,0,0-1.71,0,1.62,1.62,0,0,0-.6.49,2.15,2.15,0,0,0-.34.77,7.05,7.05,0,0,0-.1,1.43,6.89,6.89,0,0,0,.1,1.41,2.3,2.3,0,0,0,.34.8,2.09,2.09,0,0,0,.6.47,1.93,1.93,0,0,0,1.71,0,1.8,1.8,0,0,0,.59-.47,2,2,0,0,0,.35-.8A7.74,7.74,0,0,0,582.35,149.36Z"/><path class="cls-2" d="M589.7,146.16h-.91v-1.43h.91v-1.21a2.45,2.45,0,0,1,.7-1.94,2.59,2.59,0,0,1,1.73-.58h1.16v1.74h-1c-.54,0-.8.24-.78.77v1.22h1.8v1.43h-1.8V154H589.7Z"/><path class="cls-2" d="M597.52,146.16h-.91v-1.43h.91v-1.21a2.45,2.45,0,0,1,.7-1.94A2.59,2.59,0,0,1,600,141h1.17v1.74h-1c-.54,0-.8.24-.78.77v1.22h1.81v1.43h-1.81V154h-1.79Z"/><path class="cls-2" d="M605.65,151.14a3.68,3.68,0,0,0,2.83,1.19,2.32,2.32,0,0,0,1.27-.32,1,1,0,0,0,.49-.87.78.78,0,0,0-.29-.69,1.49,1.49,0,0,0-.81-.22l-1.58-.15a3,3,0,0,1-1.84-.78,2.41,2.41,0,0,1-.74-1.84,2.5,2.5,0,0,1,1-2.13,3.81,3.81,0,0,1,2.36-.71,6.15,6.15,0,0,1,1.11.08,5,5,0,0,1,.92.25,5.2,5.2,0,0,1,1.49.93l-1.12,1.34a5.46,5.46,0,0,0-1.09-.64,3.56,3.56,0,0,0-1.31-.22,1.7,1.7,0,0,0-1.18.31,1,1,0,0,0-.36.8.63.63,0,0,0,.27.54,1.43,1.43,0,0,0,.91.33l1.49.12a2.71,2.71,0,0,1,2,.87,3,3,0,0,1,.58,1.9A2.41,2.41,0,0,1,611,153.3a4.53,4.53,0,0,1-2.64.77,5.62,5.62,0,0,1-3.94-1.66Z"/><path class="cls-2" d="M618.57,150.05a2.18,2.18,0,0,0,.62,1.69,2,2,0,0,0,1.51.59,2.66,2.66,0,0,0,2-.9l1.3,1.14a4.16,4.16,0,0,1-3.22,1.5,4.33,4.33,0,0,1-1.38-.22,3,3,0,0,1-.65-.31,3.14,3.14,0,0,1-.63-.42,3.65,3.65,0,0,1-.92-1.44,5.79,5.79,0,0,1-.39-2.31,6.42,6.42,0,0,1,.34-2.27,4,4,0,0,1,.86-1.46,3.11,3.11,0,0,1,1.2-.78,3.7,3.7,0,0,1,3.88.8,3.87,3.87,0,0,1,1.09,2.86v1.53Zm3.78-1.53a2.39,2.39,0,0,0-.57-1.63,1.76,1.76,0,0,0-1.32-.53,1.79,1.79,0,0,0-1.33.53,2.49,2.49,0,0,0-.56,1.63Z"/><path class="cls-2" d="M629.52,141.93h1.79v2.8h1.31v1.43h-1.31v5.37c0,.47.2.7.64.69h.67V154h-.93a2.09,2.09,0,0,1-1.55-.6,2.2,2.2,0,0,1-.62-1.67v-5.53h-.9v-1.43h.9Z"/><path class="cls-2" d="M637.62,152.11h1.79V154h-1.79Z"/></g></g></svg>