<svg xmlns="http://www.w3.org/2000/svg" viewBox="0 0 904.37 245.59"><defs><style>.cls-1{fill:#e6e7d8;stroke:#231f20;stroke-linecap:round;stroke-linejoin:round;}.cls-2{fill:#191919;}</style></defs><g id="Layer_2" data-name="Layer 2"><g id="Layer_1-2" data-name="Layer 1"><path class="cls-1" d="M66.26,245.09l632.25-21.92-19.62-60,201.91-30,23.07-57.69L733.2,70.77,515.06,19,49,.5Q24.72,70.3.5,140.1Z"/><path class="cls-2" d="M83.94,59.83h8v1.85H85.84v3.7h5.22v1.74H85.84v3.82H92v1.85h-8Z"/><path class="cls-2" d="M101.69,72h0a1.49,1.49,0,0,1-.77.69,3.5,3.5,0,0,1-1.43.23,3.17,3.17,0,0,1-2.31-.82,2.61,2.61,0,0,1-.85-2A2.66,2.66,0,0,1,97,68.15a2.91,2.91,0,0,1,2.17-.8h2.49v-1c0-.81-.6-1.21-1.84-1.18a3,3,0,0,0-1,.14,1.27,1.27,0,0,0-.64.57l-1.41-1.11a3.45,3.45,0,0,1,3-1.35,4.69,4.69,0,0,1,2.69.66,2.72,2.72,0,0,1,1,2.38v6.31h-1.79Zm0-3.1H99.53c-1,0-1.56.4-1.55,1.12a1,1,0,0,0,.41.8,1.83,1.83,0,0,0,1.28.36,3.14,3.14,0,0,0,1.59-.27c.29-.2.43-.64.43-1.34Z"/><path class="cls-2" d="M109.45,70a3.68,3.68,0,0,0,2.83,1.18,2.32,2.32,0,0,0,1.27-.31A1,1,0,0,0,114,70a.76.76,0,0,0-.29-.69,1.55,1.55,0,0,0-.8-.23l-1.59-.14a3,3,0,0,1-1.84-.78,2.41,2.41,0,0,1-.74-1.84,2.51,2.51,0,0,1,1-2.13,3.73,3.73,0,0,1,2.36-.72,7.41,7.41,0,0,1,1.11.08,6.53,6.53,0,0,1,.92.25,5.32,5.32,0,0,1,1.48.94l-1.11,1.34a5.53,5.53,0,0,0-1.1-.64,3.53,3.53,0,0,0-1.31-.22,1.72,1.72,0,0,0-1.18.31,1,1,0,0,0-.35.8.6.6,0,0,0,.26.54,1.56,1.56,0,0,0,.92.33l1.48.12a2.75,2.75,0,0,1,2,.87,3,3,0,0,1,.58,1.89,2.44,2.44,0,0,1-1.06,2.08,4.47,4.47,0,0,1-2.65.76,5.58,5.58,0,0,1-3.93-1.65Z"/><path class="cls-2" d="M119.73,63.56h1.9L123.75,70h0l2.11-6.46h1.91L124,74.7a2.67,2.67,0,0,1-1,1.44,3,3,0,0,1-1.49.38h-.6V74.78h.53a1.18,1.18,0,0,0,.65-.2,1.1,1.1,0,0,0,.42-.6l.49-1.55Z"/><path class="cls-2" d="M139.65,63.56h1.8v1h0a2.87,2.87,0,0,1,2.33-1.1,2.92,2.92,0,0,1,1.88.71l-1.31,1.61a1.87,1.87,0,0,0-1.18-.47,1.69,1.69,0,0,0-1.19.47,1.84,1.84,0,0,0-.56,1.46v5.57h-1.8Z"/><path class="cls-2" d="M149.06,68.16a8.11,8.11,0,0,1,.23-2.24,3.29,3.29,0,0,1,.74-1.29,3.36,3.36,0,0,1,1-.82,4.07,4.07,0,0,1,3.39,0,3,3,0,0,1,1,.83,2.87,2.87,0,0,1,.76,1.28,9.2,9.2,0,0,1,.21,2.24,8.94,8.94,0,0,1-.21,2.23,3.12,3.12,0,0,1-.76,1.32,2.31,2.31,0,0,1-.42.4,1.77,1.77,0,0,1-.58.38,3.79,3.79,0,0,1-3.39,0,3.44,3.44,0,0,1-1-.78,3.56,3.56,0,0,1-.74-1.32A7.94,7.94,0,0,1,149.06,68.16Zm5.57,0a8.16,8.16,0,0,0-.09-1.44,1.65,1.65,0,0,0-.35-.77,1.31,1.31,0,0,0-.59-.49,1.79,1.79,0,0,0-.86-.19,1.86,1.86,0,0,0-.85.19,1.69,1.69,0,0,0-.6.49,2.34,2.34,0,0,0-.34.77,7.83,7.83,0,0,0-.1,1.42,7.55,7.55,0,0,0,.1,1.41,2.57,2.57,0,0,0,.34.81,2.66,2.66,0,0,0,.6.47,1.86,1.86,0,0,0,.85.19,1.79,1.79,0,0,0,.86-.19,1.82,1.82,0,0,0,.59-.47,1.79,1.79,0,0,0,.35-.81A7.66,7.66,0,0,0,154.63,68.18Z"/><path class="cls-2" d="M161.7,63.56h1.79v5.5a2,2,0,0,0,.51,1.46,1.81,1.81,0,0,0,2.54,0,2.05,2.05,0,0,0,.5-1.46v-5.5h1.79v9.23H167v-1h0a2.82,2.82,0,0,1-2.31,1.09,3,3,0,0,1-2-.83,2.91,2.91,0,0,1-1-2.36Z"/><path class="cls-2" d="M174.67,60.75h1.8v2.81h1.31V65h-1.31v5.38c0,.47.2.7.63.68h.68v1.75h-.94a2.11,2.11,0,0,1-1.55-.61,2.17,2.17,0,0,1-.62-1.67V65h-.9V63.56h.9Z"/><path class="cls-2" d="M184.07,68.87a2.15,2.15,0,0,0,.62,1.69,2,2,0,0,0,1.51.59,2.65,2.65,0,0,0,2-.9l1.3,1.15a4.15,4.15,0,0,1-3.22,1.49,4.62,4.62,0,0,1-1.38-.21,3.51,3.51,0,0,1-.65-.31,3.14,3.14,0,0,1-.63-.42,3.65,3.65,0,0,1-.92-1.44,5.79,5.79,0,0,1-.39-2.31,6.76,6.76,0,0,1,.34-2.28,3.9,3.9,0,0,1,.86-1.45,3.22,3.22,0,0,1,1.2-.79,3.7,3.7,0,0,1,3.88.8,3.89,3.89,0,0,1,1.09,2.87v1.52Zm3.78-1.52a2.46,2.46,0,0,0-.56-1.64,2,2,0,0,0-2.66,0,2.52,2.52,0,0,0-.56,1.64Z"/><path class="cls-2" d="M202.37,63.56h1.8v1h0a2.85,2.85,0,0,1,2.32-1.1,3,3,0,0,1,2,.81,3.2,3.2,0,0,1,1,2.4v6.14h-1.8v-5.5a2,2,0,0,0-.5-1.48,1.62,1.62,0,0,0-1.26-.52,1.7,1.7,0,0,0-1.28.52,2,2,0,0,0-.5,1.48v5.5h-1.8Z"/><path class="cls-2" d="M214.8,68.16a8.52,8.52,0,0,1,.23-2.24,3.29,3.29,0,0,1,.74-1.29,3.36,3.36,0,0,1,1-.82,3.87,3.87,0,0,1,1.68-.37,4,4,0,0,1,1.72.37,3.24,3.24,0,0,1,1,.83,2.94,2.94,0,0,1,.75,1.28,9.2,9.2,0,0,1,.21,2.24,8.94,8.94,0,0,1-.21,2.23,3.12,3.12,0,0,1-.76,1.32,2.31,2.31,0,0,1-.42.4,1.77,1.77,0,0,1-.58.38,3.79,3.79,0,0,1-3.39,0,3.44,3.44,0,0,1-1-.78,3.56,3.56,0,0,1-.74-1.32A8.33,8.33,0,0,1,214.8,68.16Zm5.57,0a8.16,8.16,0,0,0-.09-1.44,1.65,1.65,0,0,0-.35-.77,1.31,1.31,0,0,0-.59-.49,1.79,1.79,0,0,0-.86-.19,1.82,1.82,0,0,0-.84.19A1.64,1.64,0,0,0,217,66a2.14,2.14,0,0,0-.33.77,6.84,6.84,0,0,0-.11,1.42,6.6,6.6,0,0,0,.11,1.41,2.34,2.34,0,0,0,.33.81,2.52,2.52,0,0,0,.61.47,1.82,1.82,0,0,0,.84.19,1.79,1.79,0,0,0,.86-.19,1.82,1.82,0,0,0,.59-.47,1.79,1.79,0,0,0,.35-.81A7.66,7.66,0,0,0,220.37,68.18Z"/><path class="cls-2" d="M227.55,60.75h1.79v2.81h1.31V65h-1.31v5.38c0,.47.2.7.64.68h.67v1.75h-.94a2.11,2.11,0,0,1-1.55-.61,2.17,2.17,0,0,1-.61-1.67V65h-.91V63.56h.91Z"/><path class="cls-2" d="M243.33,65h-.9V63.56h.9V62.34A2.48,2.48,0,0,1,244,60.4a2.61,2.61,0,0,1,1.73-.57h1.16v1.74h-1c-.54,0-.8.24-.77.77v1.22h1.8V65h-1.8v7.81h-1.8Z"/><path class="cls-2" d="M250.75,68.16a8,8,0,0,1,.24-2.24,3.17,3.17,0,0,1,.74-1.29,3.24,3.24,0,0,1,1-.82,4.07,4.07,0,0,1,3.39,0,3.12,3.12,0,0,1,1,.83,2.87,2.87,0,0,1,.76,1.28,9.2,9.2,0,0,1,.21,2.24,8.94,8.94,0,0,1-.21,2.23,3.68,3.68,0,0,1-1.18,1.72,1.77,1.77,0,0,1-.58.38,3.43,3.43,0,0,1-1.71.4,3.36,3.36,0,0,1-1.68-.4,3.32,3.32,0,0,1-1-.78,3.43,3.43,0,0,1-.74-1.32A7.87,7.87,0,0,1,250.75,68.16Zm5.58,0a8.16,8.16,0,0,0-.09-1.44,1.75,1.75,0,0,0-.35-.77,1.31,1.31,0,0,0-.59-.49,1.82,1.82,0,0,0-.86-.19,1.86,1.86,0,0,0-.85.19,1.6,1.6,0,0,0-.6.49,2.15,2.15,0,0,0-.34.77,7,7,0,0,0-.1,1.42,6.76,6.76,0,0,0,.1,1.41,2.36,2.36,0,0,0,.34.81,2.46,2.46,0,0,0,.6.47,1.86,1.86,0,0,0,.85.19,1.81,1.81,0,0,0,1.45-.66,1.91,1.91,0,0,0,.35-.81A7.66,7.66,0,0,0,256.33,68.18Z"/><path class="cls-2" d="M263.39,63.56h1.8v1h0a2.84,2.84,0,0,1,2.32-1.1,2.92,2.92,0,0,1,1.88.71l-1.31,1.61a1.85,1.85,0,0,0-1.18-.47,1.65,1.65,0,0,0-1.18.47,1.81,1.81,0,0,0-.57,1.46v5.57h-1.8Z"/><path class="cls-2" d="M279.74,63.56h1.9L283.76,70h0l2.11-6.46h1.91L284,74.7a2.61,2.61,0,0,1-1,1.44,3,3,0,0,1-1.5.38h-.59V74.78h.53a1.18,1.18,0,0,0,.65-.2,1.1,1.1,0,0,0,.42-.6l.49-1.55Z"/><path class="cls-2" d="M291.65,68.16a8,8,0,0,1,.24-2.24,3.17,3.17,0,0,1,.74-1.29,3.24,3.24,0,0,1,1-.82,3.8,3.8,0,0,1,1.68-.37,3.94,3.94,0,0,1,1.71.37,3.24,3.24,0,0,1,1,.83,2.85,2.85,0,0,1,.75,1.28,8.64,8.64,0,0,1,.22,2.24,8.41,8.41,0,0,1-.22,2.23,3.21,3.21,0,0,1-.75,1.32,2.78,2.78,0,0,1-.43.4,1.72,1.72,0,0,1-.57.38,3.43,3.43,0,0,1-1.71.4,3.31,3.31,0,0,1-1.68-.4,3.49,3.49,0,0,1-1-.78,3.54,3.54,0,0,1-.73-1.32A7.87,7.87,0,0,1,291.65,68.16Zm5.58,0a8.16,8.16,0,0,0-.09-1.44,1.77,1.77,0,0,0-.36-.77,1.29,1.29,0,0,0-.58-.49,2,2,0,0,0-1.71,0,1.53,1.53,0,0,0-.6.49,2.15,2.15,0,0,0-.34.77,7,7,0,0,0-.1,1.42,6.76,6.76,0,0,0,.1,1.41,2.36,2.36,0,0,0,.34.81,2.28,2.28,0,0,0,.6.47,2,2,0,0,0,1.71,0,1.77,1.77,0,0,0,.58-.47,1.92,1.92,0,0,0,.36-.81A7.66,7.66,0,0,0,297.23,68.18Z"/><path class="cls-2" d="M304.29,63.56h1.8v5.5a2,2,0,0,0,.5,1.46,1.7,1.7,0,0,0,1.28.52,1.64,1.64,0,0,0,1.26-.52,2,2,0,0,0,.5-1.46v-5.5h1.8v9.23h-1.8v-1h0a2.83,2.83,0,0,1-2.32,1.09,3,3,0,0,1-2-.83,2.91,2.91,0,0,1-1-2.36Z"/><path class="cls-2" d="M319.06,68.4a4.41,4.41,0,0,1,.09-.94,2.59,2.59,0,0,1,.35-.81L321,64.39a2.17,2.17,0,0,0,.43-1.2A1.65,1.65,0,0,0,321,62a1.54,1.54,0,0,0-1-.42,1.51,1.51,0,0,0-1.12.43,2,2,0,0,0-.5,1.55h-1.8v-.36a3.42,3.42,0,0,1,1-2.48,3.22,3.22,0,0,1,2.32-1,3.44,3.44,0,0,1,2.36.92,3.4,3.4,0,0,1,1,2.57,3.31,3.31,0,0,1-.55,1.91l-1.54,2.28a2,2,0,0,0-.29,1.15v1h-1.8Zm0,2.54h1.8v1.85h-1.8Z"/><path class="cls-2" d="M88,87.5h4.46v2.64a4.66,4.66,0,0,1-1.29,3.25A4.38,4.38,0,0,1,88,94.73,4.33,4.33,0,0,1,85.52,94a4.43,4.43,0,0,1-1.46-1.58l-.25-.56a4.23,4.23,0,0,1-.17-.7,21.59,21.59,0,0,1-.13-3,21.54,21.54,0,0,1,.13-3,3.67,3.67,0,0,1,.42-1.24,4.48,4.48,0,0,1,1.46-1.6A4.25,4.25,0,0,1,88,81.56a4.2,4.2,0,0,1,3,1.11A4.93,4.93,0,0,1,92.4,85.4h-2a2.84,2.84,0,0,0-.84-1.34A2.43,2.43,0,0,0,88,83.52a2.58,2.58,0,0,0-1.16.27,2.47,2.47,0,0,0-.79.67,2.16,2.16,0,0,0-.49,1.08,16.12,16.12,0,0,0-.14,2.61,15.74,15.74,0,0,0,.14,2.59,2.19,2.19,0,0,0,.49,1.1,2.42,2.42,0,0,0,.79.65,2.27,2.27,0,0,0,1.16.29A2.42,2.42,0,0,0,89.83,92a2.79,2.79,0,0,0,.74-2v-.68H88Z"/><path class="cls-2" d="M102.67,93.81h0a1.49,1.49,0,0,1-.77.69,3.5,3.5,0,0,1-1.43.23,3.21,3.21,0,0,1-2.31-.81,2.59,2.59,0,0,1-.85-2A2.67,2.67,0,0,1,98,90a2.9,2.9,0,0,1,2.17-.8h2.49v-1c0-.82-.6-1.22-1.84-1.19a3.31,3.31,0,0,0-1.06.14,1.25,1.25,0,0,0-.63.57l-1.42-1.11a3.43,3.43,0,0,1,3-1.34,4.72,4.72,0,0,1,2.7.65,2.74,2.74,0,0,1,1,2.39v6.3h-1.79Zm0-3.09h-2.16c-1.05,0-1.56.39-1.55,1.11a1,1,0,0,0,.4.8,1.88,1.88,0,0,0,1.29.36,3,3,0,0,0,1.59-.27c.28-.2.43-.64.43-1.34Z"/><path class="cls-2" d="M110.17,85.4H112v1h0a2.84,2.84,0,0,1,2.32-1.09,2.8,2.8,0,0,1,1.88.71l-1.31,1.6a1.85,1.85,0,0,0-1.18-.47,1.66,1.66,0,0,0-1.18.47,1.82,1.82,0,0,0-.57,1.47v5.56h-1.79Z"/><path class="cls-2" d="M120.27,85.4h1.8v1h0a3,3,0,0,1,2.41-1.09,3.4,3.4,0,0,1,1.55.33,4.6,4.6,0,0,1,1.06.88,3.62,3.62,0,0,1,2.9-1.21,3.15,3.15,0,0,1,2.1.81,3.07,3.07,0,0,1,1,2.4v6.13h-1.8v-5.5a2,2,0,0,0-.51-1.48,1.83,1.83,0,0,0-1.33-.52,1.86,1.86,0,0,0-1.34.52,1.93,1.93,0,0,0-.53,1.48v5.5h-1.8v-5.5a2,2,0,0,0-.51-1.48,1.86,1.86,0,0,0-1.34-.52,1.82,1.82,0,0,0-1.33.52,1.93,1.93,0,0,0-.54,1.48v5.5h-1.8Z"/><path class="cls-2" d="M140.3,90.72a2.22,2.22,0,0,0,.62,1.69,2,2,0,0,0,1.51.58,2.65,2.65,0,0,0,2-.9l1.3,1.15a4.11,4.11,0,0,1-3.22,1.49,4.51,4.51,0,0,1-1.37-.21,3.31,3.31,0,0,1-.66-.31,3.14,3.14,0,0,1-.63-.42,3.65,3.65,0,0,1-.92-1.44A5.79,5.79,0,0,1,138.5,90a6.66,6.66,0,0,1,.34-2.27,3.87,3.87,0,0,1,.86-1.46,3.27,3.27,0,0,1,1.2-.78,3.7,3.7,0,0,1,3.88.8,3.85,3.85,0,0,1,1.09,2.86v1.53Zm3.78-1.53a2.46,2.46,0,0,0-.56-1.64,2,2,0,0,0-2.66,0,2.52,2.52,0,0,0-.56,1.64Z"/><path class="cls-2" d="M151.14,85.4h1.8v1h0a2.84,2.84,0,0,1,2.32-1.09,3,3,0,0,1,2,.81,3.2,3.2,0,0,1,.95,2.4v6.13h-1.79v-5.5a2,2,0,0,0-.5-1.48,1.81,1.81,0,0,0-2.54,0,2,2,0,0,0-.51,1.48v5.5h-1.8Z"/><path class="cls-2" d="M164.12,82.59h1.8V85.4h1.3v1.42h-1.3V92.2c0,.47.2.7.63.69h.67v1.74h-.93a2.07,2.07,0,0,1-1.55-.61,2.17,2.17,0,0,1-.62-1.67V86.82h-.9V85.4h.9Z"/><path class="cls-2" d="M179.62,85.4h1.8v1a3,3,0,0,1,2.3-1.07,2.73,2.73,0,0,1,2.4,1.21,2.4,2.4,0,0,1,.51,1.14,14.52,14.52,0,0,1,.13,2.38,14.33,14.33,0,0,1-.13,2.35,2.52,2.52,0,0,1-.51,1.16,2.69,2.69,0,0,1-1,.86,3,3,0,0,1-1.43.34,2.49,2.49,0,0,1-1.23-.3,3.81,3.81,0,0,1-1.07-.78v4.71h-1.8Zm3.56,7.49a1.84,1.84,0,0,0,1-.25,1.53,1.53,0,0,0,.53-.66,3.73,3.73,0,0,0,.23-.93c0-.33,0-.68,0-1s0-.72,0-1.07a3.33,3.33,0,0,0-.23-.93,1.33,1.33,0,0,0-.53-.66,1.94,1.94,0,0,0-1-.23,1.52,1.52,0,0,0-1.5.94,3.67,3.67,0,0,0-.21.91c0,.35-.05.69-.05,1s0,.66.05,1a3.71,3.71,0,0,0,.21.94,1.53,1.53,0,0,0,.55.68A1.51,1.51,0,0,0,183.18,92.89Z"/><path class="cls-2" d="M192.17,85.4H194v1h0a2.83,2.83,0,0,1,2.32-1.09,2.8,2.8,0,0,1,1.88.71l-1.31,1.6a1.85,1.85,0,0,0-1.18-.47,1.66,1.66,0,0,0-1.18.47,1.82,1.82,0,0,0-.57,1.47v5.56h-1.79Z"/><path class="cls-2" d="M201.57,90a8.55,8.55,0,0,1,.23-2.25,3.29,3.29,0,0,1,.74-1.29,3.41,3.41,0,0,1,1-.82,3.67,3.67,0,0,1,1.68-.36,3.81,3.81,0,0,1,1.71.36,3.24,3.24,0,0,1,1,.83,3,3,0,0,1,.75,1.29,8.54,8.54,0,0,1,.22,2.24,8.37,8.37,0,0,1-.22,2.22,3.21,3.21,0,0,1-.75,1.32,2.78,2.78,0,0,1-.43.4,1.83,1.83,0,0,1-.57.38,3.44,3.44,0,0,1-1.72.4,3.3,3.3,0,0,1-1.67-.4,3.37,3.37,0,0,1-1-.78,3.56,3.56,0,0,1-.74-1.32A8.3,8.3,0,0,1,201.57,90Zm5.57,0a8.4,8.4,0,0,0-.08-1.44,1.77,1.77,0,0,0-.36-.77,1.29,1.29,0,0,0-.58-.49,2,2,0,0,0-1.71,0,1.64,1.64,0,0,0-.61.49,2.33,2.33,0,0,0-.33.77,6.89,6.89,0,0,0-.11,1.43,6.73,6.73,0,0,0,.11,1.41,2.5,2.5,0,0,0,.33.8,2.29,2.29,0,0,0,.61.47,1.93,1.93,0,0,0,1.71,0,1.66,1.66,0,0,0,.58-.47,1.88,1.88,0,0,0,.36-.8A8.09,8.09,0,0,0,207.14,90Z"/><path class="cls-2" d="M219.55,93.66a3,3,0,0,1-2.31,1.07,2.89,2.89,0,0,1-1.39-.34,3.07,3.07,0,0,1-1-.86,2.32,2.32,0,0,1-.49-1.18,18.56,18.56,0,0,1,0-4.71,2.29,2.29,0,0,1,.49-1.15,3,3,0,0,1,3.66-.91,5,5,0,0,1,1,.79v-4.7h1.8v13h-1.8Zm-1.76-6.53a1.77,1.77,0,0,0-1,.23,1.47,1.47,0,0,0-.54.66,3.27,3.27,0,0,0-.21.91A9.51,9.51,0,0,0,216,90a8.47,8.47,0,0,0,.06,1,3.4,3.4,0,0,0,.21,1,1.72,1.72,0,0,0,.54.66,1.69,1.69,0,0,0,1,.25,1.65,1.65,0,0,0,1-.27,1.28,1.28,0,0,0,.51-.68,3.32,3.32,0,0,0,.23-.94c0-.33,0-.67,0-1s0-.7,0-1a3.28,3.28,0,0,0-.23-.91,1.32,1.32,0,0,0-.51-.68A1.72,1.72,0,0,0,217.79,87.13Z"/><path class="cls-2" d="M226.75,85.4h1.8v5.5a2,2,0,0,0,.5,1.46,1.7,1.7,0,0,0,1.28.53,1.63,1.63,0,0,0,1.26-.53,2,2,0,0,0,.5-1.46V85.4h1.8v9.23h-1.8v-1h0a2.82,2.82,0,0,1-2.31,1.09,3,3,0,0,1-2-.83,2.91,2.91,0,0,1-1-2.36Z"/><path class="cls-2" d="M246.2,93.14a4.86,4.86,0,0,1-1.38,1.13,3.76,3.76,0,0,1-1.83.46,4,4,0,0,1-2.78-1.11,4.72,4.72,0,0,1-1.27-3.6,4.82,4.82,0,0,1,1.27-3.64A3.9,3.9,0,0,1,243,85.29a4,4,0,0,1,1.83.44,4.64,4.64,0,0,1,1.38,1.16l-1.33,1.22a2.23,2.23,0,0,0-1.81-1c-1.53,0-2.3.94-2.33,2.89s.8,2.9,2.33,2.87a2.2,2.2,0,0,0,1.81-1Z"/><path class="cls-2" d="M250.9,82.59h1.8V85.4H254v1.42H252.7V92.2c0,.47.2.7.63.69H254v1.74h-.94a2.07,2.07,0,0,1-1.55-.61,2.17,2.17,0,0,1-.62-1.67V86.82H250V85.4h.9Z"/><path class="cls-2" d="M259,81.67h1.79v1.85H259Zm0,3.73h1.79v9.23H259Z"/><path class="cls-2" d="M266,90a8.55,8.55,0,0,1,.23-2.25,3.29,3.29,0,0,1,.74-1.29,3.41,3.41,0,0,1,1-.82,3.67,3.67,0,0,1,1.68-.36,3.81,3.81,0,0,1,1.71.36,3.24,3.24,0,0,1,1,.83,3,3,0,0,1,.75,1.29,8.54,8.54,0,0,1,.22,2.24,8.37,8.37,0,0,1-.22,2.22,3.21,3.21,0,0,1-.75,1.32,2.78,2.78,0,0,1-.43.4,1.83,1.83,0,0,1-.57.38,3.44,3.44,0,0,1-1.72.4,3.3,3.3,0,0,1-1.67-.4,3.37,3.37,0,0,1-1-.78,3.56,3.56,0,0,1-.74-1.32A8.3,8.3,0,0,1,266,90Zm5.57,0a8.4,8.4,0,0,0-.08-1.44,1.77,1.77,0,0,0-.36-.77,1.29,1.29,0,0,0-.58-.49,2,2,0,0,0-1.71,0,1.53,1.53,0,0,0-.6.49,2.15,2.15,0,0,0-.34.77,6.89,6.89,0,0,0-.11,1.43,6.73,6.73,0,0,0,.11,1.41,2.3,2.3,0,0,0,.34.8,2.09,2.09,0,0,0,.6.47,1.93,1.93,0,0,0,1.71,0,1.66,1.66,0,0,0,.58-.47,1.88,1.88,0,0,0,.36-.8A8.09,8.09,0,0,0,271.53,90Z"/><path class="cls-2" d="M278.6,85.4h1.79v1h0a2.83,2.83,0,0,1,2.32-1.09,3,3,0,0,1,2,.81,3.16,3.16,0,0,1,1,2.4v6.13h-1.8v-5.5a2,2,0,0,0-.5-1.48,1.67,1.67,0,0,0-1.26-.52,1.73,1.73,0,0,0-1.28.52,2,2,0,0,0-.51,1.48v5.5H278.6Z"/><path class="cls-2" d="M299,81.67h1.8v1.85H299Zm0,3.73h1.8v9.23H299Z"/><path class="cls-2" d="M306.65,91.81A3.67,3.67,0,0,0,309.48,93a2.32,2.32,0,0,0,1.27-.31,1,1,0,0,0,.49-.87.78.78,0,0,0-.29-.69,1.46,1.46,0,0,0-.8-.22l-1.59-.15a3,3,0,0,1-1.84-.78,2.41,2.41,0,0,1-.74-1.84A2.53,2.53,0,0,1,307,86a3.74,3.74,0,0,1,2.36-.71,6.15,6.15,0,0,1,1.11.08,4.56,4.56,0,0,1,2.41,1.18l-1.11,1.34a5.53,5.53,0,0,0-1.1-.64,3.56,3.56,0,0,0-1.31-.22,1.7,1.7,0,0,0-1.18.31,1,1,0,0,0-.36.8.63.63,0,0,0,.27.54A1.43,1.43,0,0,0,309,89l1.49.12a2.75,2.75,0,0,1,2,.87,3,3,0,0,1,.57,1.9A2.43,2.43,0,0,1,312,94a4.47,4.47,0,0,1-2.65.76,5.57,5.57,0,0,1-3.93-1.65Z"/><path class="cls-2" d="M330.89,88.16h0L329,94.63h-1.58l-2.86-9.23h1.9l1.71,6.47h0l2-6.47h1.3l2,6.47h0l1.7-6.47h1.9l-2.85,9.23h-1.59Z"/><path class="cls-2" d="M343.27,90.72a2.18,2.18,0,0,0,.62,1.69,2,2,0,0,0,1.51.58,2.66,2.66,0,0,0,2-.9l1.3,1.15a4.12,4.12,0,0,1-3.22,1.49,4.62,4.62,0,0,1-1.38-.21,3.51,3.51,0,0,1-.65-.31,2.66,2.66,0,0,1-.63-.42,3.55,3.55,0,0,1-.92-1.44,5.79,5.79,0,0,1-.39-2.31,6.42,6.42,0,0,1,.34-2.27,3.87,3.87,0,0,1,.86-1.46,3.16,3.16,0,0,1,1.19-.78,3.77,3.77,0,0,1,1.3-.24,3.66,3.66,0,0,1,2.59,1,3.85,3.85,0,0,1,1.09,2.86v1.53ZM347,89.19a2.41,2.41,0,0,0-.56-1.64,1.95,1.95,0,0,0-2.65,0,2.52,2.52,0,0,0-.56,1.64Z"/><path class="cls-2" d="M354.11,81.67h1.8V92.26c0,.42.22.63.67.63h.62v1.74h-.8a2.53,2.53,0,0,1-1.62-.51,2,2,0,0,1-.67-1.72Z"/><path class="cls-2" d="M361.9,81.67h1.79V92.26c0,.42.23.63.68.63H365v1.74h-.8a2.49,2.49,0,0,1-1.62-.51,2,2,0,0,1-.67-1.72Z"/><path class="cls-2" d="M382.36,88.16h0l-1.87,6.47h-1.59L376,85.4h1.9l1.71,6.47h0l2-6.47H383l2,6.47h0l1.71-6.47h1.9l-2.85,9.23h-1.59Z"/><path class="cls-2" d="M393.44,81.67h1.79v1.85h-1.79Zm0,3.73h1.79v9.23h-1.79Z"/><path class="cls-2" d="M401,82.59h1.79V85.4h1.31v1.42h-1.31V92.2c0,.47.2.7.64.69h.67v1.74h-.94a2,2,0,0,1-1.54-.61,2.14,2.14,0,0,1-.62-1.67V86.82h-.9V85.4h.9Z"/><path class="cls-2" d="M409,81.67h1.8v4.71h0a2.84,2.84,0,0,1,2.32-1.09,3,3,0,0,1,2,.81,3.16,3.16,0,0,1,1,2.4v6.13h-1.8v-5.5a2,2,0,0,0-.5-1.48,1.66,1.66,0,0,0-1.26-.52,1.73,1.73,0,0,0-1.28.52,2,2,0,0,0-.5,1.48v5.5H409Z"/><path class="cls-2" d="M421.92,81.67h1.79v1.85h-1.79Zm0,3.73h1.79v9.23h-1.79Z"/><path class="cls-2" d="M429.32,85.4h1.8v1h0a2.83,2.83,0,0,1,2.32-1.09,3,3,0,0,1,2,.81,3.16,3.16,0,0,1,1,2.4v6.13h-1.8v-5.5a2,2,0,0,0-.5-1.48,1.67,1.67,0,0,0-1.26-.52,1.73,1.73,0,0,0-1.28.52,2,2,0,0,0-.5,1.48v5.5h-1.8Z"/><path class="cls-2" d="M449.21,90a8.14,8.14,0,0,1,.23-2.25,3.29,3.29,0,0,1,.74-1.29,3.36,3.36,0,0,1,1-.82,4.17,4.17,0,0,1,3.39,0,3.12,3.12,0,0,1,1,.83,2.9,2.9,0,0,1,.76,1.29,9.09,9.09,0,0,1,.21,2.24,8.91,8.91,0,0,1-.21,2.22,3.12,3.12,0,0,1-.76,1.32,3.22,3.22,0,0,1-.42.4,1.77,1.77,0,0,1-.58.38,3.4,3.4,0,0,1-1.71.4,3.36,3.36,0,0,1-1.68-.4,3.44,3.44,0,0,1-1-.78,3.56,3.56,0,0,1-.74-1.32A7.9,7.9,0,0,1,449.21,90Zm5.57,0a8.16,8.16,0,0,0-.09-1.44,1.75,1.75,0,0,0-.35-.77,1.31,1.31,0,0,0-.59-.49,1.94,1.94,0,0,0-.86-.19,2,2,0,0,0-.85.19,1.69,1.69,0,0,0-.6.49,2.15,2.15,0,0,0-.34.77A7.05,7.05,0,0,0,451,90a6.89,6.89,0,0,0,.1,1.41,2.3,2.3,0,0,0,.34.8,2.41,2.41,0,0,0,.6.47,1.87,1.87,0,0,0,.85.2,1.82,1.82,0,0,0,.86-.2,1.7,1.7,0,0,0,.59-.47,1.87,1.87,0,0,0,.35-.8A7.87,7.87,0,0,0,454.78,90Z"/><path class="cls-2" d="M461.85,85.4h1.79v5.5a2,2,0,0,0,.51,1.46,1.79,1.79,0,0,0,2.54,0,2,2,0,0,0,.5-1.46V85.4H469v9.23h-1.79v-1h0a2.82,2.82,0,0,1-2.31,1.09,3,3,0,0,1-2-.83,2.93,2.93,0,0,1-1-2.36Z"/><path class="cls-2" d="M474.72,85.4h1.79v1h0a2.83,2.83,0,0,1,2.32-1.09,2.8,2.8,0,0,1,1.88.71l-1.31,1.6a1.85,1.85,0,0,0-1.18-.47,1.66,1.66,0,0,0-1.18.47,1.82,1.82,0,0,0-.57,1.47v5.56h-1.79Z"/><path class="cls-2" d="M498.93,93.14a4.86,4.86,0,0,1-1.38,1.13,3.76,3.76,0,0,1-1.83.46,4,4,0,0,1-2.78-1.11,4.68,4.68,0,0,1-1.27-3.6,4.82,4.82,0,0,1,1.27-3.64,3.9,3.9,0,0,1,2.78-1.09,4,4,0,0,1,1.83.44,4.64,4.64,0,0,1,1.38,1.16l-1.33,1.22a2.23,2.23,0,0,0-1.81-1c-1.53,0-2.31.94-2.33,2.89s.8,2.9,2.33,2.87a2.2,2.2,0,0,0,1.81-1Z"/><path class="cls-2" d="M508.22,93.81h0a1.45,1.45,0,0,1-.77.69,3.5,3.5,0,0,1-1.43.23,3.17,3.17,0,0,1-2.3-.81,2.59,2.59,0,0,1-.86-2,2.67,2.67,0,0,1,.74-1.93,2.91,2.91,0,0,1,2.17-.8h2.49v-1c0-.82-.6-1.22-1.84-1.19a3.24,3.24,0,0,0-1.05.14,1.27,1.27,0,0,0-.64.57l-1.41-1.11a3.42,3.42,0,0,1,3-1.34,4.69,4.69,0,0,1,2.69.65,2.74,2.74,0,0,1,1,2.39v6.3h-1.79Zm0-3.09h-2.16c-1,0-1.56.39-1.55,1.11a1,1,0,0,0,.41.8,1.83,1.83,0,0,0,1.28.36,3.1,3.1,0,0,0,1.6-.27c.28-.2.42-.64.42-1.34Z"/><path class="cls-2" d="M515.72,85.4h1.79v1a3.09,3.09,0,0,1,2.31-1.07,2.73,2.73,0,0,1,2.4,1.21,2.4,2.4,0,0,1,.51,1.14,15.77,15.77,0,0,1,.13,2.38,15.58,15.58,0,0,1-.13,2.35,2.52,2.52,0,0,1-.51,1.16,2.78,2.78,0,0,1-1,.86,3,3,0,0,1-1.43.34,2.49,2.49,0,0,1-1.23-.3,4,4,0,0,1-1.08-.78v4.71h-1.79Zm3.56,7.49a1.86,1.86,0,0,0,1-.25,1.5,1.5,0,0,0,.52-.66,3.34,3.34,0,0,0,.23-.93c0-.33,0-.68,0-1s0-.72,0-1.07a3,3,0,0,0-.23-.93,1.31,1.31,0,0,0-.52-.66,2,2,0,0,0-1-.23,1.49,1.49,0,0,0-1.5.94,3.27,3.27,0,0,0-.21.91,9.07,9.07,0,0,0-.06,1,7.93,7.93,0,0,0,.06,1,3.33,3.33,0,0,0,.21.94,1.58,1.58,0,0,0,.54.68A1.56,1.56,0,0,0,519.28,92.89Z"/><path class="cls-2" d="M533,93.81h0a1.49,1.49,0,0,1-.77.69,3.5,3.5,0,0,1-1.43.23,3.21,3.21,0,0,1-2.31-.81,2.59,2.59,0,0,1-.85-2A2.67,2.67,0,0,1,528.3,90a2.9,2.9,0,0,1,2.17-.8H533v-1c0-.82-.59-1.22-1.83-1.19a3.31,3.31,0,0,0-1.06.14,1.25,1.25,0,0,0-.63.57L528,86.63a3.43,3.43,0,0,1,3-1.34,4.67,4.67,0,0,1,2.69.65,2.72,2.72,0,0,1,1,2.39v6.3H533Zm0-3.09H530.8c-1,0-1.56.39-1.55,1.11a1,1,0,0,0,.4.8,1.88,1.88,0,0,0,1.29.36,3,3,0,0,0,1.59-.27c.28-.2.42-.64.42-1.34Z"/><path class="cls-2" d="M540.46,81.67h1.79v4.71a4.58,4.58,0,0,1,1.08-.8,2.48,2.48,0,0,1,1.23-.29A2.76,2.76,0,0,1,547,86.5a2.49,2.49,0,0,1,.5,1.14,14.46,14.46,0,0,1,.13,2.37,14.19,14.19,0,0,1-.13,2.34,2.51,2.51,0,0,1-.5,1.18,2.73,2.73,0,0,1-1,.86,3,3,0,0,1-1.42.34,3,3,0,0,1-2.31-1.07v1h-1.79ZM544,87.13a1.61,1.61,0,0,0-1,.26,1.49,1.49,0,0,0-.54.68,3.67,3.67,0,0,0-.22.91c0,.33,0,.67,0,1s0,.66,0,1a3.7,3.7,0,0,0,.22.94,1.45,1.45,0,0,0,.54.68,1.54,1.54,0,0,0,1,.27,1.8,1.8,0,0,0,1-.25,1.46,1.46,0,0,0,.53-.66,3.78,3.78,0,0,0,.23-1c0-.33,0-.67,0-1s0-.73,0-1.08a3.68,3.68,0,0,0-.23-.91,1.28,1.28,0,0,0-.53-.66A1.9,1.9,0,0,0,544,87.13Z"/><path class="cls-2" d="M553.05,81.67h1.8v1.85h-1.8Zm0,3.73h1.8v9.23h-1.8Z"/><path class="cls-2" d="M560.46,81.67h1.79V92.26c0,.42.23.63.67.63h.63v1.74h-.8a2.49,2.49,0,0,1-1.62-.51,2,2,0,0,1-.67-1.72Z"/><path class="cls-2" d="M568.3,81.67h1.79v1.85H568.3Zm0,3.73h1.79v9.23H568.3Z"/><path class="cls-2" d="M575.81,82.59h1.79V85.4h1.31v1.42H577.6V92.2c0,.47.2.7.64.69h.67v1.74H578a2.07,2.07,0,0,1-1.55-.61,2.17,2.17,0,0,1-.62-1.67V86.82h-.9V85.4h.9Z"/><path class="cls-2" d="M583.91,81.67h1.79v1.85h-1.79Zm0,3.73h1.79v9.23h-1.79Z"/><path class="cls-2" d="M592.66,90.72a2.22,2.22,0,0,0,.62,1.69,2,2,0,0,0,1.52.58,2.62,2.62,0,0,0,2-.9l1.3,1.15a4.1,4.1,0,0,1-3.21,1.49,4.62,4.62,0,0,1-1.38-.21,3.59,3.59,0,0,1-.66-.31,2.82,2.82,0,0,1-.62-.42,3.55,3.55,0,0,1-.92-1.44,5.79,5.79,0,0,1-.39-2.31,6.68,6.68,0,0,1,.33-2.27,4,4,0,0,1,.86-1.46,3.27,3.27,0,0,1,1.2-.78,3.76,3.76,0,0,1,1.29-.24,3.64,3.64,0,0,1,2.59,1,3.81,3.81,0,0,1,1.09,2.86v1.53Zm3.78-1.53a2.41,2.41,0,0,0-.56-1.64,2,2,0,0,0-2.66,0,2.57,2.57,0,0,0-.56,1.64Z"/><path class="cls-2" d="M603.77,91.81A3.67,3.67,0,0,0,606.6,93a2.32,2.32,0,0,0,1.27-.31,1,1,0,0,0,.49-.87.78.78,0,0,0-.29-.69,1.47,1.47,0,0,0-.81-.22l-1.58-.15a3,3,0,0,1-1.84-.78,2.41,2.41,0,0,1-.74-1.84,2.5,2.5,0,0,1,1-2.13,3.74,3.74,0,0,1,2.36-.71,6.15,6.15,0,0,1,1.11.08A4.56,4.56,0,0,1,610,86.55l-1.11,1.34a5.83,5.83,0,0,0-1.1-.64,3.56,3.56,0,0,0-1.31-.22,1.7,1.7,0,0,0-1.18.31,1,1,0,0,0-.36.8.63.63,0,0,0,.27.54,1.43,1.43,0,0,0,.91.33l1.49.12a2.75,2.75,0,0,1,2,.87,3,3,0,0,1,.57,1.9,2.43,2.43,0,0,1-1,2.07,4.49,4.49,0,0,1-2.65.76,5.57,5.57,0,0,1-3.93-1.65Z"/><path class="cls-2" d="M615.39,92.78h1.8v1.85L615.39,96Z"/><path class="cls-2" d="M83.78,103.51h1.79v4.71a4.87,4.87,0,0,1,1.08-.8,2.6,2.6,0,0,1,1.23-.29,2.76,2.76,0,0,1,2.4,1.21,2.49,2.49,0,0,1,.5,1.14,14.46,14.46,0,0,1,.13,2.37,14.19,14.19,0,0,1-.13,2.34,2.55,2.55,0,0,1-.5,1.19,2.7,2.7,0,0,1-1,.85,3.1,3.1,0,0,1-1.42.35,3.05,3.05,0,0,1-2.31-1.07v1H83.78ZM87.34,109a1.54,1.54,0,0,0-1,.26,1.42,1.42,0,0,0-.54.67,3.79,3.79,0,0,0-.22.91c0,.33-.05.67-.05,1s0,.66.05,1a3.73,3.73,0,0,0,.22.93,1.45,1.45,0,0,0,.54.68,1.54,1.54,0,0,0,1,.27,1.72,1.72,0,0,0,1-.25,1.36,1.36,0,0,0,.53-.66,3.78,3.78,0,0,0,.23-.95c0-.33,0-.67,0-1s0-.73,0-1.08a3.68,3.68,0,0,0-.23-.91,1.28,1.28,0,0,0-.53-.66A1.9,1.9,0,0,0,87.34,109Z"/><path class="cls-2" d="M97.67,112.56a2.22,2.22,0,0,0,.62,1.69,2,2,0,0,0,1.51.59,2.65,2.65,0,0,0,2-.9l1.3,1.14a4.15,4.15,0,0,1-3.22,1.5,4.23,4.23,0,0,1-1.37-.22,2.83,2.83,0,0,1-.66-.31,3.14,3.14,0,0,1-.63-.42,3.65,3.65,0,0,1-.92-1.44,5.8,5.8,0,0,1-.38-2.31,6.68,6.68,0,0,1,.33-2.27,4,4,0,0,1,.86-1.46,3.27,3.27,0,0,1,1.2-.78,3.7,3.7,0,0,1,3.88.8,3.83,3.83,0,0,1,1.09,2.86v1.53Zm3.78-1.53a2.43,2.43,0,0,0-.56-1.63,1.93,1.93,0,0,0-2.66,0,2.49,2.49,0,0,0-.56,1.63Z"/><path class="cls-2" d="M115.09,115a4.82,4.82,0,0,1-1.38,1.12,3.88,3.88,0,0,1-1.83.47,4,4,0,0,1-2.78-1.11,4.74,4.74,0,0,1-1.27-3.6,4.83,4.83,0,0,1,1.27-3.65,4.07,4.07,0,0,1,4.61-.65,4.64,4.64,0,0,1,1.38,1.16L113.77,110a2.21,2.21,0,0,0-1.82-1c-1.53,0-2.3.94-2.33,2.89s.8,2.89,2.33,2.86a2.15,2.15,0,0,0,1.81-1Z"/><path class="cls-2" d="M124.38,115.65h0a1.53,1.53,0,0,1-.78.7,3.64,3.64,0,0,1-1.43.23,3.25,3.25,0,0,1-2.3-.82,2.59,2.59,0,0,1-.85-2,2.63,2.63,0,0,1,.74-1.93,2.87,2.87,0,0,1,2.16-.8h2.49v-1c0-.82-.6-1.21-1.83-1.19a3.31,3.31,0,0,0-1.06.14,1.41,1.41,0,0,0-.64.57l-1.41-1.11a3.44,3.44,0,0,1,3-1.34,4.69,4.69,0,0,1,2.69.66,2.71,2.71,0,0,1,1,2.38v6.3h-1.79Zm0-3.09h-2.16c-1,0-1.56.39-1.55,1.11a1,1,0,0,0,.41.8,1.85,1.85,0,0,0,1.28.37,3,3,0,0,0,1.6-.28c.28-.2.42-.64.42-1.33Z"/><path class="cls-2" d="M131.88,107.24h1.8v5.5a2,2,0,0,0,.5,1.46,1.7,1.7,0,0,0,1.28.53,1.63,1.63,0,0,0,1.26-.53,2,2,0,0,0,.5-1.46v-5.5H139v9.23h-1.8v-1h0a2.83,2.83,0,0,1-2.31,1.1,3,3,0,0,1-2-.84,2.91,2.91,0,0,1-1-2.36Z"/><path class="cls-2" d="M145,113.65a3.7,3.7,0,0,0,2.84,1.19,2.28,2.28,0,0,0,1.26-.32,1,1,0,0,0,.5-.87.76.76,0,0,0-.3-.69,1.46,1.46,0,0,0-.8-.22l-1.59-.14a3,3,0,0,1-1.83-.79,2.38,2.38,0,0,1-.74-1.84,2.52,2.52,0,0,1,1-2.13,3.81,3.81,0,0,1,2.36-.71,7.41,7.41,0,0,1,1.11.08,5,5,0,0,1,.92.25,5.15,5.15,0,0,1,1.48.93l-1.11,1.34a5.46,5.46,0,0,0-1.09-.64,3.8,3.8,0,0,0-1.32-.22,1.74,1.74,0,0,0-1.18.31,1,1,0,0,0-.35.8.66.66,0,0,0,.27.55,1.46,1.46,0,0,0,.91.32l1.48.12a2.71,2.71,0,0,1,2,.87,3,3,0,0,1,.58,1.9,2.41,2.41,0,0,1-1.06,2.07,4.53,4.53,0,0,1-2.64.77,5.57,5.57,0,0,1-3.94-1.66Z"/><path class="cls-2" d="M157.93,112.56a2.22,2.22,0,0,0,.62,1.69,2,2,0,0,0,1.52.59,2.66,2.66,0,0,0,2-.9l1.3,1.14a4.18,4.18,0,0,1-3.22,1.5,4.33,4.33,0,0,1-1.38-.22,3,3,0,0,1-.65-.31,2.66,2.66,0,0,1-.63-.42,3.55,3.55,0,0,1-.92-1.44,5.79,5.79,0,0,1-.39-2.31,6.42,6.42,0,0,1,.34-2.27,4,4,0,0,1,.86-1.46,3.16,3.16,0,0,1,1.19-.78,3.76,3.76,0,0,1,1.29-.24,3.64,3.64,0,0,1,2.59,1,3.87,3.87,0,0,1,1.1,2.86v1.53Zm3.78-1.53a2.38,2.38,0,0,0-.56-1.63,1.93,1.93,0,0,0-2.66,0,2.6,2.6,0,0,0-.56,1.63Z"/><path class="cls-2" d="M175,107.24h1.9l2.12,6.47h0l2.11-6.47H183l-3.85,11.14a2.61,2.61,0,0,1-1,1.44,2.89,2.89,0,0,1-1.5.38h-.59v-1.74h.52a1.18,1.18,0,0,0,.66-.19,1.09,1.09,0,0,0,.42-.61l.49-1.55Z"/><path class="cls-2" d="M186.86,111.85a8.6,8.6,0,0,1,.23-2.25,3.29,3.29,0,0,1,.74-1.29,3.44,3.44,0,0,1,1-.82,3.67,3.67,0,0,1,1.68-.36,3.81,3.81,0,0,1,1.71.36,3.38,3.38,0,0,1,1,.83,3,3,0,0,1,.75,1.29,8.59,8.59,0,0,1,.22,2.24,8.37,8.37,0,0,1-.22,2.22,3.12,3.12,0,0,1-.76,1.32,2.31,2.31,0,0,1-.42.4,2,2,0,0,1-.57.39,3.67,3.67,0,0,1-1.72.4,3.52,3.52,0,0,1-1.67-.4,3.38,3.38,0,0,1-1-.79,3.56,3.56,0,0,1-.74-1.32A8.3,8.3,0,0,1,186.86,111.85Zm5.57,0a9.75,9.75,0,0,0-.08-1.45,1.77,1.77,0,0,0-.36-.77,1.35,1.35,0,0,0-.58-.49,2.12,2.12,0,0,0-1.71,0,1.74,1.74,0,0,0-.61.49,2.33,2.33,0,0,0-.33.77,6.89,6.89,0,0,0-.11,1.43,6.73,6.73,0,0,0,.11,1.41,2.5,2.5,0,0,0,.33.8,2.11,2.11,0,0,0,.61.47,1.93,1.93,0,0,0,1.71,0,1.55,1.55,0,0,0,.58-.47,1.88,1.88,0,0,0,.36-.8A9.1,9.1,0,0,0,192.43,111.87Z"/><path class="cls-2" d="M199.5,107.24h1.79v5.5a2,2,0,0,0,.51,1.46,1.69,1.69,0,0,0,1.28.53,1.66,1.66,0,0,0,1.26-.53,2,2,0,0,0,.5-1.46v-5.5h1.8v9.23h-1.8v-1h0a2.84,2.84,0,0,1-2.32,1.1,3,3,0,0,1-2-.84,2.91,2.91,0,0,1-1-2.36Z"/><path class="cls-2" d="M212.37,107.24h1.79v1h0a2.94,2.94,0,0,1,4.2-.38l-1.31,1.6a1.82,1.82,0,0,0-1.18-.46,1.65,1.65,0,0,0-1.18.46,1.89,1.89,0,0,0-.57,1.47v5.56h-1.79Z"/><path class="cls-2" d="M235.35,115.51a3,3,0,0,1-2.32,1.07,3,3,0,0,1-1.38-.35,3.08,3.08,0,0,1-1-.85,2.45,2.45,0,0,1-.49-1.19,14,14,0,0,1-.14-2.35,14.1,14.1,0,0,1,.14-2.36,2.38,2.38,0,0,1,.49-1.15,2.75,2.75,0,0,1,2.39-1.2,2.9,2.9,0,0,1,1.28.29,5.08,5.08,0,0,1,1,.8v-4.71h1.79v13h-1.79ZM233.58,109a1.74,1.74,0,0,0-1,.22,1.35,1.35,0,0,0-.54.66,3.67,3.67,0,0,0-.22.91c0,.35,0,.71,0,1.08s0,.69,0,1a3.78,3.78,0,0,0,.22.95,1.44,1.44,0,0,0,.54.66,1.58,1.58,0,0,0,1,.25,1.68,1.68,0,0,0,1-.27,1.28,1.28,0,0,0,.51-.68,3.73,3.73,0,0,0,.23-.93c0-.34,0-.67,0-1s0-.7,0-1a3.79,3.79,0,0,0-.23-.91,1.25,1.25,0,0,0-.51-.67A1.68,1.68,0,0,0,233.58,109Z"/><path class="cls-2" d="M243.9,112.56a2.18,2.18,0,0,0,.62,1.69,2,2,0,0,0,1.51.59,2.65,2.65,0,0,0,2-.9l1.3,1.14a4.16,4.16,0,0,1-3.22,1.5,4.33,4.33,0,0,1-1.38-.22,3,3,0,0,1-.65-.31,3.14,3.14,0,0,1-.63-.42,3.65,3.65,0,0,1-.92-1.44,5.79,5.79,0,0,1-.39-2.31,6.66,6.66,0,0,1,.34-2.27,4,4,0,0,1,.86-1.46,3.19,3.19,0,0,1,1.2-.78,3.7,3.7,0,0,1,3.88.8,3.87,3.87,0,0,1,1.09,2.86v1.53Zm3.78-1.53a2.43,2.43,0,0,0-.56-1.63,1.93,1.93,0,0,0-2.66,0,2.49,2.49,0,0,0-.56,1.63Z"/><path class="cls-2" d="M255,113.65a3.71,3.71,0,0,0,2.84,1.19,2.28,2.28,0,0,0,1.26-.32,1,1,0,0,0,.5-.87.76.76,0,0,0-.3-.69,1.46,1.46,0,0,0-.8-.22l-1.59-.14a3,3,0,0,1-1.83-.79,2.38,2.38,0,0,1-.74-1.84,2.52,2.52,0,0,1,1-2.13,3.81,3.81,0,0,1,2.36-.71,7.41,7.41,0,0,1,1.11.08,5,5,0,0,1,.92.25,5.15,5.15,0,0,1,1.48.93l-1.11,1.34a5.46,5.46,0,0,0-1.09-.64,3.8,3.8,0,0,0-1.32-.22,1.74,1.74,0,0,0-1.18.31,1,1,0,0,0-.35.8.66.66,0,0,0,.27.55,1.46,1.46,0,0,0,.91.32l1.48.12a2.71,2.71,0,0,1,2,.87,3,3,0,0,1,.58,1.9,2.41,2.41,0,0,1-1.06,2.07,4.53,4.53,0,0,1-2.64.77,5.57,5.57,0,0,1-3.94-1.66Z"/><path class="cls-2" d="M266.63,103.51h1.79v1.85h-1.79Zm0,3.73h1.79v9.23h-1.79Z"/><path class="cls-2" d="M279.05,115.51a3,3,0,0,1-2.3,1.07,2.81,2.81,0,0,1-1.45-.39,3.42,3.42,0,0,1-.92-.74,3,3,0,0,1-.5-1.11,12,12,0,0,1-.17-2.48,12.13,12.13,0,0,1,.17-2.51,2.79,2.79,0,0,1,.5-1.1,3,3,0,0,1,.92-.78,3.14,3.14,0,0,1,1.45-.34,3,3,0,0,1,2.3,1.09v-1h1.8v9a3.91,3.91,0,0,1-1.16,3,4,4,0,0,1-2.72,1,4,4,0,0,1-3.09-1.54l1.39-1.15a3.22,3.22,0,0,0,.79.56,2,2,0,0,0,.95.28,2.05,2.05,0,0,0,1.48-.53,2,2,0,0,0,.56-1.48Zm-3.54-3.64a9.63,9.63,0,0,0,.07,1.46,1.35,1.35,0,0,0,.28.69,1.62,1.62,0,0,0,.55.46,1.67,1.67,0,0,0,1.76,0,1.74,1.74,0,0,0,.53-.46,1.46,1.46,0,0,0,.3-.69,12.39,12.39,0,0,0,.05-1.46,13.09,13.09,0,0,0-.05-1.5,1.38,1.38,0,0,0-.3-.68,2.12,2.12,0,0,0-.53-.49,1.87,1.87,0,0,0-1.76,0,1.93,1.93,0,0,0-.55.49,1.28,1.28,0,0,0-.28.68A10.17,10.17,0,0,0,275.51,111.87Z"/><path class="cls-2" d="M286.57,107.24h1.8v1h0a2.84,2.84,0,0,1,2.32-1.09,3,3,0,0,1,2,.81,3.2,3.2,0,0,1,.95,2.4v6.13h-1.79V111a2,2,0,0,0-.5-1.48,1.84,1.84,0,0,0-2.54,0,2,2,0,0,0-.51,1.48v5.5h-1.8Z"/><path class="cls-2" d="M299.71,113.65a3.68,3.68,0,0,0,2.83,1.19,2.32,2.32,0,0,0,1.27-.32,1,1,0,0,0,.49-.87A.78.78,0,0,0,304,113a1.49,1.49,0,0,0-.81-.22l-1.58-.14a3,3,0,0,1-1.84-.79A2.41,2.41,0,0,1,299,110a2.52,2.52,0,0,1,1-2.13,3.81,3.81,0,0,1,2.36-.71,7.31,7.31,0,0,1,1.11.08,5,5,0,0,1,.92.25,5.2,5.2,0,0,1,1.49.93l-1.12,1.34a5.46,5.46,0,0,0-1.09-.64,3.78,3.78,0,0,0-1.31-.22,1.75,1.75,0,0,0-1.19.31,1,1,0,0,0-.35.8.66.66,0,0,0,.27.55,1.49,1.49,0,0,0,.91.32l1.49.12a2.71,2.71,0,0,1,2,.87,3,3,0,0,1,.58,1.9,2.41,2.41,0,0,1-1.06,2.07,4.53,4.53,0,0,1-2.64.77,5.57,5.57,0,0,1-3.94-1.66Z"/><path class="cls-2" d="M324.08,115.51a3,3,0,0,1-2.32,1.07,2.93,2.93,0,0,1-1.38-.35,3.08,3.08,0,0,1-1-.85,2.36,2.36,0,0,1-.49-1.19,18.56,18.56,0,0,1,0-4.71,2.29,2.29,0,0,1,.49-1.15,2.75,2.75,0,0,1,2.39-1.2,2.85,2.85,0,0,1,1.27.29,5.13,5.13,0,0,1,1.05.8v-4.71h1.79v13h-1.79ZM322.31,109a1.74,1.74,0,0,0-1,.22,1.43,1.43,0,0,0-.55.66,3.67,3.67,0,0,0-.21.91c0,.35-.05.71-.05,1.08s0,.69.05,1a3.79,3.79,0,0,0,.21.95,1.53,1.53,0,0,0,.55.66,1.58,1.58,0,0,0,1,.25,1.68,1.68,0,0,0,1-.27,1.39,1.39,0,0,0,.51-.68,3.73,3.73,0,0,0,.23-.93c0-.34,0-.67,0-1s0-.7,0-1a3.79,3.79,0,0,0-.23-.91,1.36,1.36,0,0,0-.51-.67A1.68,1.68,0,0,0,322.31,109Z"/><path class="cls-2" d="M332.63,112.56a2.18,2.18,0,0,0,.62,1.69,2,2,0,0,0,1.51.59,2.66,2.66,0,0,0,2-.9l1.3,1.14a4.16,4.16,0,0,1-3.22,1.5,4.33,4.33,0,0,1-1.38-.22,3,3,0,0,1-.65-.31,2.66,2.66,0,0,1-.63-.42,3.55,3.55,0,0,1-.92-1.44,5.79,5.79,0,0,1-.39-2.31,6.42,6.42,0,0,1,.34-2.27,4,4,0,0,1,.86-1.46,3.16,3.16,0,0,1,1.19-.78,3.76,3.76,0,0,1,1.29-.24,3.67,3.67,0,0,1,2.6,1A3.87,3.87,0,0,1,338.2,111v1.53ZM336.4,111a2.38,2.38,0,0,0-.56-1.63,1.92,1.92,0,0,0-2.65,0,2.49,2.49,0,0,0-.56,1.63Z"/><path class="cls-2" d="M343.73,113.65a3.69,3.69,0,0,0,2.83,1.19,2.32,2.32,0,0,0,1.27-.32,1,1,0,0,0,.49-.87A.76.76,0,0,0,348,113a1.46,1.46,0,0,0-.8-.22l-1.59-.14a3.07,3.07,0,0,1-1.84-.79,2.41,2.41,0,0,1-.74-1.84,2.52,2.52,0,0,1,1-2.13,3.79,3.79,0,0,1,2.36-.71,7.41,7.41,0,0,1,1.11.08,4.59,4.59,0,0,1,2.4,1.18l-1.11,1.34a5.53,5.53,0,0,0-1.1-.64,3.74,3.74,0,0,0-1.31-.22,1.72,1.72,0,0,0-1.18.31,1,1,0,0,0-.35.8.62.62,0,0,0,.26.55,1.52,1.52,0,0,0,.92.32l1.48.12a2.73,2.73,0,0,1,2,.87,3,3,0,0,1,.58,1.9,2.44,2.44,0,0,1-1.06,2.07,4.54,4.54,0,0,1-2.65.77,5.55,5.55,0,0,1-3.93-1.66Z"/><path class="cls-2" d="M356.65,112.56a2.22,2.22,0,0,0,.62,1.69,2,2,0,0,0,1.52.59,2.62,2.62,0,0,0,1.95-.9l1.3,1.14a4.14,4.14,0,0,1-3.21,1.5,4.33,4.33,0,0,1-1.38-.22,3,3,0,0,1-.66-.31,2.82,2.82,0,0,1-.62-.42,3.55,3.55,0,0,1-.92-1.44,5.79,5.79,0,0,1-.39-2.31,6.68,6.68,0,0,1,.33-2.27,4.09,4.09,0,0,1,.86-1.46,3.27,3.27,0,0,1,1.2-.78,3.76,3.76,0,0,1,1.29-.24,3.64,3.64,0,0,1,2.59,1,3.83,3.83,0,0,1,1.09,2.86v1.53Zm3.78-1.53a2.38,2.38,0,0,0-.56-1.63,1.93,1.93,0,0,0-2.66,0,2.54,2.54,0,0,0-.56,1.63Z"/><path class="cls-2" d="M367.5,107.24h1.79v1h0a2.94,2.94,0,0,1,4.2-.38l-1.31,1.6A1.84,1.84,0,0,0,371,109a1.65,1.65,0,0,0-1.18.46,1.82,1.82,0,0,0-.57,1.47v5.56H367.5Z"/><path class="cls-2" d="M376.4,107.24h1.91l2.09,6.47h0l2.09-6.47h1.91l-3.28,9.23h-1.48Z"/><path class="cls-2" d="M390.09,112.56a2.22,2.22,0,0,0,.62,1.69,2,2,0,0,0,1.52.59,2.62,2.62,0,0,0,1.95-.9l1.3,1.14a4.15,4.15,0,0,1-3.22,1.5,4.27,4.27,0,0,1-1.37-.22,3,3,0,0,1-.66-.31,2.82,2.82,0,0,1-.62-.42,3.67,3.67,0,0,1-.93-1.44,6,6,0,0,1-.38-2.31,6.68,6.68,0,0,1,.33-2.27,4.09,4.09,0,0,1,.86-1.46,3.27,3.27,0,0,1,1.2-.78,3.76,3.76,0,0,1,1.29-.24,3.64,3.64,0,0,1,2.59,1,3.83,3.83,0,0,1,1.09,2.86v1.53Zm3.78-1.53a2.38,2.38,0,0,0-.56-1.63,1.93,1.93,0,0,0-2.66,0,2.54,2.54,0,0,0-.56,1.63Z"/><path class="cls-2" d="M408.32,107.24h1.8v1h0a3,3,0,0,1,2.41-1.09,3.4,3.4,0,0,1,1.55.33,4.6,4.6,0,0,1,1.06.88,3.62,3.62,0,0,1,2.9-1.21,3.15,3.15,0,0,1,2.1.81,3.07,3.07,0,0,1,1,2.4v6.13h-1.8V111a2,2,0,0,0-.51-1.48,1.83,1.83,0,0,0-1.33-.51,1.85,1.85,0,0,0-1.34.51,1.93,1.93,0,0,0-.53,1.48v5.5h-1.8V111a2,2,0,0,0-.51-1.48A1.85,1.85,0,0,0,412,109a1.81,1.81,0,0,0-1.33.51,1.93,1.93,0,0,0-.54,1.48v5.5h-1.8Z"/><path class="cls-2" d="M426.55,111.85a8.12,8.12,0,0,1,.24-2.25,3.17,3.17,0,0,1,.74-1.29,3.39,3.39,0,0,1,1-.82,4.17,4.17,0,0,1,3.39,0,3.26,3.26,0,0,1,1,.83,2.9,2.9,0,0,1,.76,1.29,9.14,9.14,0,0,1,.21,2.24,8.91,8.91,0,0,1-.21,2.22,3.68,3.68,0,0,1-1.18,1.72,2,2,0,0,1-.58.39,3.66,3.66,0,0,1-1.71.4,3.56,3.56,0,0,1-1.68-.4,3.33,3.33,0,0,1-1-.79,3.43,3.43,0,0,1-.74-1.32A7.84,7.84,0,0,1,426.55,111.85Zm5.58,0a8.29,8.29,0,0,0-.09-1.45,1.75,1.75,0,0,0-.35-.77,1.44,1.44,0,0,0-.59-.49,1.94,1.94,0,0,0-.86-.18,2,2,0,0,0-.85.18,1.62,1.62,0,0,0-.6.49,2.15,2.15,0,0,0-.34.77,7.05,7.05,0,0,0-.1,1.43,6.89,6.89,0,0,0,.1,1.41,2.3,2.3,0,0,0,.34.8,1.93,1.93,0,0,0,.6.47,1.87,1.87,0,0,0,.85.2,1.82,1.82,0,0,0,.86-.2,1.68,1.68,0,0,0,.59-.47,1.87,1.87,0,0,0,.35-.8A7.74,7.74,0,0,0,432.13,111.87Z"/><path class="cls-2" d="M439.19,107.24H441v1h0a3,3,0,0,1,4.21-.38l-1.31,1.6a1.86,1.86,0,0,0-1.18-.46,1.64,1.64,0,0,0-1.18.46,1.82,1.82,0,0,0-.57,1.47v5.56h-1.8Z"/><path class="cls-2" d="M450.39,112.56a2.22,2.22,0,0,0,.62,1.69,2,2,0,0,0,1.52.59,2.62,2.62,0,0,0,2-.9l1.3,1.14a4.14,4.14,0,0,1-3.21,1.5,4.33,4.33,0,0,1-1.38-.22,3.27,3.27,0,0,1-.66-.31,2.82,2.82,0,0,1-.62-.42,3.55,3.55,0,0,1-.92-1.44,5.79,5.79,0,0,1-.39-2.31,6.68,6.68,0,0,1,.33-2.27,4.09,4.09,0,0,1,.86-1.46,3.27,3.27,0,0,1,1.2-.78,3.76,3.76,0,0,1,1.29-.24,3.64,3.64,0,0,1,2.59,1A3.83,3.83,0,0,1,456,111v1.53Zm3.78-1.53a2.38,2.38,0,0,0-.56-1.63,1.93,1.93,0,0,0-2.66,0,2.54,2.54,0,0,0-.56,1.63Z"/><path class="cls-2" d="M468.8,104.44h1.8v2.8h1.31v1.43H470.6V114c0,.47.2.7.63.69h.68v1.74H471a2.1,2.1,0,0,1-1.55-.6,2.19,2.19,0,0,1-.62-1.67v-5.53h-.9v-1.43h.9Z"/><path class="cls-2" d="M476.85,103.51h1.79v4.71h0a2.83,2.83,0,0,1,2.32-1.09,3,3,0,0,1,2,.81,3.16,3.16,0,0,1,1,2.4v6.13h-1.79V111a2,2,0,0,0-.5-1.48,1.84,1.84,0,0,0-2.54,0,2,2,0,0,0-.51,1.48v5.5h-1.79Z"/><path class="cls-2" d="M494.41,115.65h0a1.53,1.53,0,0,1-.78.7,3.64,3.64,0,0,1-1.43.23,3.25,3.25,0,0,1-2.3-.82,2.59,2.59,0,0,1-.85-2,2.63,2.63,0,0,1,.74-1.93,2.87,2.87,0,0,1,2.16-.8h2.49v-1c0-.82-.6-1.21-1.83-1.19a3.31,3.31,0,0,0-1.06.14,1.41,1.41,0,0,0-.64.57l-1.41-1.11a3.44,3.44,0,0,1,3-1.34,4.69,4.69,0,0,1,2.69.66,2.71,2.71,0,0,1,1,2.38v6.3h-1.79Zm0-3.09h-2.15q-1.58,0-1.56,1.11a1,1,0,0,0,.41.8,1.86,1.86,0,0,0,1.28.37,3,3,0,0,0,1.6-.28c.28-.2.42-.64.42-1.33Z"/><path class="cls-2" d="M501.91,107.24h1.8v1h0a2.84,2.84,0,0,1,2.32-1.09,3,3,0,0,1,2,.81,3.16,3.16,0,0,1,1,2.4v6.13h-1.8V111a2,2,0,0,0-.49-1.48,1.84,1.84,0,0,0-2.54,0,2,2,0,0,0-.51,1.48v5.5h-1.8Z"/><path class="cls-2" d="M526.94,115.65h0a1.51,1.51,0,0,1-.77.7,3.68,3.68,0,0,1-1.43.23,3.26,3.26,0,0,1-2.31-.82,2.59,2.59,0,0,1-.85-2,2.67,2.67,0,0,1,.74-1.93,2.9,2.9,0,0,1,2.17-.8h2.49v-1c0-.82-.6-1.21-1.84-1.19A3.31,3.31,0,0,0,524,109a1.34,1.34,0,0,0-.63.57L522,108.47a3.46,3.46,0,0,1,3-1.34,4.72,4.72,0,0,1,2.7.66,2.71,2.71,0,0,1,1,2.38v6.3h-1.79Zm0-3.09h-2.16c-1,0-1.56.39-1.55,1.11a1,1,0,0,0,.4.8,1.87,1.87,0,0,0,1.29.37,3,3,0,0,0,1.59-.28c.28-.2.43-.64.43-1.33Z"/><path class="cls-2" d="M541.45,111.85a8.6,8.6,0,0,1,.23-2.25,3.29,3.29,0,0,1,.74-1.29,3.57,3.57,0,0,1,1-.82,3.67,3.67,0,0,1,1.68-.36,3.81,3.81,0,0,1,1.71.36,3.38,3.38,0,0,1,1,.83,3,3,0,0,1,.75,1.29,8.59,8.59,0,0,1,.22,2.24,8.37,8.37,0,0,1-.22,2.22,3.21,3.21,0,0,1-.75,1.32,2.78,2.78,0,0,1-.43.4,2,2,0,0,1-.57.39,3.67,3.67,0,0,1-1.72.4,3.52,3.52,0,0,1-1.67-.4,3.38,3.38,0,0,1-1-.79,3.56,3.56,0,0,1-.74-1.32A8.3,8.3,0,0,1,541.45,111.85Zm5.57,0a8.53,8.53,0,0,0-.08-1.45,1.77,1.77,0,0,0-.36-.77,1.35,1.35,0,0,0-.58-.49,2.12,2.12,0,0,0-1.71,0,1.62,1.62,0,0,0-.6.49,2.15,2.15,0,0,0-.34.77,6.89,6.89,0,0,0-.11,1.43,6.73,6.73,0,0,0,.11,1.41,2.3,2.3,0,0,0,.34.8,1.93,1.93,0,0,0,.6.47,1.93,1.93,0,0,0,1.71,0,1.55,1.55,0,0,0,.58-.47,1.88,1.88,0,0,0,.36-.8A8,8,0,0,0,547,111.87Z"/><path class="cls-2" d="M554.09,107.24h1.8v1h0a2.83,2.83,0,0,1,2.32-1.09,3,3,0,0,1,2,.81,3.16,3.16,0,0,1,1,2.4v6.13h-1.8V111a2,2,0,0,0-.5-1.48,1.67,1.67,0,0,0-1.26-.51,1.73,1.73,0,0,0-1.28.51,2,2,0,0,0-.5,1.48v5.5h-1.8Z"/><path class="cls-2" d="M568.31,112.56a2.22,2.22,0,0,0,.62,1.69,2,2,0,0,0,1.52.59,2.62,2.62,0,0,0,1.95-.9l1.3,1.14a4.15,4.15,0,0,1-3.22,1.5,4.23,4.23,0,0,1-1.37-.22,3,3,0,0,1-.66-.31,2.82,2.82,0,0,1-.62-.42,3.67,3.67,0,0,1-.93-1.44,6,6,0,0,1-.38-2.31,6.68,6.68,0,0,1,.33-2.27,4.09,4.09,0,0,1,.86-1.46,3.27,3.27,0,0,1,1.2-.78,3.76,3.76,0,0,1,1.29-.24,3.66,3.66,0,0,1,2.59,1,3.83,3.83,0,0,1,1.09,2.86v1.53Zm3.78-1.53a2.38,2.38,0,0,0-.56-1.63,1.93,1.93,0,0,0-2.66,0,2.54,2.54,0,0,0-.56,1.63Z"/><path class="cls-2" d="M578.93,110.51h5.29v1.84h-5.29Z"/><path class="cls-2" d="M589.92,113.65a3.68,3.68,0,0,0,2.83,1.19,2.34,2.34,0,0,0,1.27-.32,1,1,0,0,0,.49-.87.76.76,0,0,0-.3-.69,1.43,1.43,0,0,0-.8-.22l-1.58-.14a3,3,0,0,1-1.84-.79,2.38,2.38,0,0,1-.74-1.84,2.52,2.52,0,0,1,1-2.13,3.81,3.81,0,0,1,2.36-.71,7.41,7.41,0,0,1,1.11.08,5,5,0,0,1,.92.25,5.34,5.34,0,0,1,1.49.93L595,109.73a5.46,5.46,0,0,0-1.09-.64,3.78,3.78,0,0,0-1.31-.22,1.75,1.75,0,0,0-1.19.31,1,1,0,0,0-.35.8.66.66,0,0,0,.27.55,1.46,1.46,0,0,0,.91.32l1.48.12a2.71,2.71,0,0,1,2,.87,3,3,0,0,1,.58,1.9,2.41,2.41,0,0,1-1.06,2.07,4.53,4.53,0,0,1-2.64.77,5.57,5.57,0,0,1-3.94-1.66Z"/><path class="cls-2" d="M601.54,103.51h1.79v1.85h-1.79Zm0,3.73h1.79v9.23h-1.79Z"/><path class="cls-2" d="M608.36,115l4.47-6.12h-4.37v-1.64H615v1.48l-4.62,6H615v1.74h-6.66Z"/><path class="cls-2" d="M621.47,112.56a2.18,2.18,0,0,0,.62,1.69,2,2,0,0,0,1.51.59,2.66,2.66,0,0,0,2-.9l1.3,1.14a4.16,4.16,0,0,1-3.22,1.5,4.33,4.33,0,0,1-1.38-.22,3,3,0,0,1-.65-.31,3.14,3.14,0,0,1-.63-.42,3.65,3.65,0,0,1-.92-1.44,5.79,5.79,0,0,1-.39-2.31,6.42,6.42,0,0,1,.34-2.27,4,4,0,0,1,.86-1.46,3.16,3.16,0,0,1,1.19-.78,3.77,3.77,0,0,1,1.3-.24,3.66,3.66,0,0,1,2.59,1A3.87,3.87,0,0,1,627,111v1.53Zm3.78-1.53a2.39,2.39,0,0,0-.57-1.63,1.76,1.76,0,0,0-1.32-.53,1.79,1.79,0,0,0-1.33.53,2.49,2.49,0,0,0-.56,1.63Z"/><path class="cls-2" d="M632.08,110.51h5.3v1.84h-5.3Z"/><path class="cls-2" d="M643.09,108.67h-.9v-1.43h.9V106a2.45,2.45,0,0,1,.71-1.94,2.59,2.59,0,0,1,1.73-.58h1.16v1.74h-1c-.54,0-.8.24-.77.77v1.22h1.8v1.43h-1.8v7.8h-1.8Z"/><path class="cls-2" d="M651,103.51h1.8v1.85H651Zm0,3.73h1.8v9.23H651Z"/><path class="cls-2" d="M658.53,104.44h1.79v2.8h1.31v1.43h-1.31V114c0,.47.2.7.64.69h.67v1.74h-.94a2.12,2.12,0,0,1-1.55-.6,2.18,2.18,0,0,1-.61-1.67v-5.53h-.9v-1.43h.9Z"/><path class="cls-2" d="M666.83,113.65a3.69,3.69,0,0,0,2.83,1.19,2.32,2.32,0,0,0,1.27-.32,1,1,0,0,0,.49-.87.76.76,0,0,0-.29-.69,1.46,1.46,0,0,0-.8-.22l-1.59-.14a3.07,3.07,0,0,1-1.84-.79,2.41,2.41,0,0,1-.74-1.84,2.52,2.52,0,0,1,1-2.13,3.79,3.79,0,0,1,2.36-.71,7.41,7.41,0,0,1,1.11.08,5.41,5.41,0,0,1,.92.25,5.29,5.29,0,0,1,1.48.93l-1.11,1.34a5.53,5.53,0,0,0-1.1-.64,3.74,3.74,0,0,0-1.31-.22,1.72,1.72,0,0,0-1.18.31,1,1,0,0,0-.35.8.62.62,0,0,0,.26.55,1.52,1.52,0,0,0,.92.32l1.48.12a2.75,2.75,0,0,1,2,.87,3,3,0,0,1,.58,1.9,2.44,2.44,0,0,1-1.06,2.07,4.54,4.54,0,0,1-2.65.77,5.55,5.55,0,0,1-3.93-1.66Z"/><path class="cls-2" d="M678.17,110.51h5.3v1.84h-5.3Z"/><path class="cls-2" d="M693.59,115.65h0a1.53,1.53,0,0,1-.78.7,3.64,3.64,0,0,1-1.43.23,3.25,3.25,0,0,1-2.3-.82,2.59,2.59,0,0,1-.85-2,2.63,2.63,0,0,1,.74-1.93,2.88,2.88,0,0,1,2.17-.8h2.48v-1c0-.82-.6-1.21-1.83-1.19a3.31,3.31,0,0,0-1.06.14,1.41,1.41,0,0,0-.64.57l-1.41-1.11a3.44,3.44,0,0,1,3-1.34,4.69,4.69,0,0,1,2.69.66,2.74,2.74,0,0,1,1,2.38v6.3h-1.8Zm0-3.09h-2.15q-1.58,0-1.56,1.11a1,1,0,0,0,.41.8,1.86,1.86,0,0,0,1.28.37,3,3,0,0,0,1.6-.28c.28-.2.42-.64.42-1.33Z"/><path class="cls-2" d="M701.09,103.51h1.8V114.1c0,.42.22.63.67.63h.62v1.74h-.8a2.54,2.54,0,0,1-1.61-.5,2.05,2.05,0,0,1-.68-1.73Z"/><path class="cls-2" d="M708.88,103.51h1.8V114.1c0,.42.22.63.67.63H712v1.74h-.8a2.59,2.59,0,0,1-1.62-.5,2.08,2.08,0,0,1-.67-1.73Z"/><path class="cls-2" d="M728.82,115.65h0a1.47,1.47,0,0,1-.77.7,3.64,3.64,0,0,1-1.43.23,3.23,3.23,0,0,1-2.3-.82,2.59,2.59,0,0,1-.86-2,2.67,2.67,0,0,1,.74-1.93,2.91,2.91,0,0,1,2.17-.8h2.49v-1c0-.82-.6-1.21-1.83-1.19a3.31,3.31,0,0,0-1.06.14,1.41,1.41,0,0,0-.64.57l-1.41-1.11a3.44,3.44,0,0,1,3-1.34,4.69,4.69,0,0,1,2.69.66,2.71,2.71,0,0,1,1,2.38v6.3h-1.79Zm0-3.09h-2.16c-1,0-1.56.39-1.55,1.11a1,1,0,0,0,.41.8,1.85,1.85,0,0,0,1.28.37,3.06,3.06,0,0,0,1.6-.28c.28-.2.42-.64.42-1.33Z"/><path class="cls-2" d="M736.32,107.24h1.8v1a3,3,0,0,1,2.3-1.07,2.73,2.73,0,0,1,2.4,1.21,2.4,2.4,0,0,1,.51,1.14,15.93,15.93,0,0,1,.13,2.39,15.43,15.43,0,0,1-.13,2.34,2.56,2.56,0,0,1-.51,1.17,2.75,2.75,0,0,1-1,.85,3.14,3.14,0,0,1-1.43.35,2.5,2.5,0,0,1-1.23-.31,3.81,3.81,0,0,1-1.07-.78v4.71h-1.8Zm3.56,7.49a1.76,1.76,0,0,0,1-.25,1.34,1.34,0,0,0,.52-.66,3.34,3.34,0,0,0,.24-.93c0-.33,0-.67,0-1s0-.73,0-1.08a3.17,3.17,0,0,0-.24-.93,1.26,1.26,0,0,0-.52-.66,1.94,1.94,0,0,0-1-.22,1.53,1.53,0,0,0-1.5.93,3.36,3.36,0,0,0-.21.91,9.23,9.23,0,0,0,0,1.05,8.15,8.15,0,0,0,0,1,3.33,3.33,0,0,0,.21.93,1.53,1.53,0,0,0,.55.68A1.51,1.51,0,0,0,739.88,114.73Z"/><path class="cls-2" d="M748.86,107.24h1.8v1a3,3,0,0,1,2.3-1.07,2.73,2.73,0,0,1,2.4,1.21,2.4,2.4,0,0,1,.51,1.14,14.66,14.66,0,0,1,.13,2.39,14.19,14.19,0,0,1-.13,2.34,2.56,2.56,0,0,1-.51,1.17,2.67,2.67,0,0,1-1,.85,3.14,3.14,0,0,1-1.43.35,2.5,2.5,0,0,1-1.23-.31,3.81,3.81,0,0,1-1.07-.78v4.71h-1.8Zm3.56,7.49a1.76,1.76,0,0,0,1-.25,1.42,1.42,0,0,0,.53-.66,3.73,3.73,0,0,0,.23-.93c0-.33,0-.67,0-1s0-.73,0-1.08a3.52,3.52,0,0,0-.23-.93,1.33,1.33,0,0,0-.53-.66,1.94,1.94,0,0,0-1-.22,1.53,1.53,0,0,0-1.5.93,3.78,3.78,0,0,0-.21.91c0,.35-.05.7-.05,1.05s0,.65.05,1a3.73,3.73,0,0,0,.21.93,1.53,1.53,0,0,0,.55.68A1.51,1.51,0,0,0,752.42,114.73Z"/><path class="cls-2" d="M761.41,107.24h1.79v1h0a2.94,2.94,0,0,1,4.2-.38l-1.31,1.6A1.84,1.84,0,0,0,765,109a1.65,1.65,0,0,0-1.18.46,1.82,1.82,0,0,0-.57,1.47v5.56h-1.79Z"/><path class="cls-2" d="M770.81,111.85a8.6,8.6,0,0,1,.23-2.25,3.29,3.29,0,0,1,.74-1.29,3.44,3.44,0,0,1,1-.82,3.66,3.66,0,0,1,1.67-.36,3.82,3.82,0,0,1,1.72.36,3.38,3.38,0,0,1,1,.83,3,3,0,0,1,.75,1.29,8.59,8.59,0,0,1,.22,2.24,8.82,8.82,0,0,1-.22,2.22,3.12,3.12,0,0,1-.76,1.32,2.31,2.31,0,0,1-.42.4,2,2,0,0,1-.57.39,3.67,3.67,0,0,1-1.72.4,3.52,3.52,0,0,1-1.67-.4,3.38,3.38,0,0,1-1-.79,3.56,3.56,0,0,1-.74-1.32A8.3,8.3,0,0,1,770.81,111.85Zm5.57,0a9.75,9.75,0,0,0-.08-1.45,1.77,1.77,0,0,0-.36-.77,1.35,1.35,0,0,0-.58-.49,2.12,2.12,0,0,0-1.71,0,1.74,1.74,0,0,0-.61.49,2.33,2.33,0,0,0-.33.77,6.89,6.89,0,0,0-.11,1.43,6.73,6.73,0,0,0,.11,1.41,2.5,2.5,0,0,0,.33.8,2.11,2.11,0,0,0,.61.47,1.93,1.93,0,0,0,1.71,0,1.55,1.55,0,0,0,.58-.47,1.88,1.88,0,0,0,.36-.8A9.1,9.1,0,0,0,776.38,111.87Z"/><path class="cls-2" d="M788.14,115.65h0a1.53,1.53,0,0,1-.78.7,3.62,3.62,0,0,1-1.42.23,3.26,3.26,0,0,1-2.31-.82,2.59,2.59,0,0,1-.85-2,2.63,2.63,0,0,1,.74-1.93,2.88,2.88,0,0,1,2.17-.8h2.48v-1c0-.82-.6-1.21-1.83-1.19a3.31,3.31,0,0,0-1.06.14,1.41,1.41,0,0,0-.64.57l-1.41-1.11a3.44,3.44,0,0,1,3-1.34,4.69,4.69,0,0,1,2.69.66,2.71,2.71,0,0,1,1,2.38v6.3h-1.8Zm0-3.09H786q-1.57,0-1.56,1.11a1,1,0,0,0,.41.8,1.86,1.86,0,0,0,1.28.37,3,3,0,0,0,1.6-.28c.28-.2.42-.64.42-1.33Z"/><path class="cls-2" d="M802.22,115a4.82,4.82,0,0,1-1.38,1.12,3.85,3.85,0,0,1-1.83.47,4,4,0,0,1-2.78-1.11,4.74,4.74,0,0,1-1.27-3.6,4.83,4.83,0,0,1,1.27-3.65,3.91,3.91,0,0,1,2.78-1.09,4,4,0,0,1,1.84.44,4.73,4.73,0,0,1,1.37,1.16L800.9,110a2.21,2.21,0,0,0-1.82-1c-1.53,0-2.3.94-2.33,2.89s.8,2.89,2.33,2.86a2.18,2.18,0,0,0,1.82-1Z"/><path class="cls-2" d="M806.82,103.51h1.79v4.71h0a2.83,2.83,0,0,1,2.32-1.09,3,3,0,0,1,2,.81,3.12,3.12,0,0,1,1,2.4v6.13h-1.79V111a2,2,0,0,0-.5-1.48,1.84,1.84,0,0,0-2.54,0,2,2,0,0,0-.51,1.48v5.5h-1.79Z"/><path class="cls-2" d="M819.74,114.62h1.8v1.85h-1.8Z"/><path class="cls-2" d="M86.07,148.94H82.63V147.2h8.78v1.74H88v11.21h-1.9Z"/><path class="cls-2" d="M95.64,147.2h1.8v4.71h0a2.85,2.85,0,0,1,2.32-1.1,3,3,0,0,1,2,.81,3.2,3.2,0,0,1,1,2.4v6.13H101v-5.5a2,2,0,0,0-.5-1.47,1.81,1.81,0,0,0-2.54,0,2,2,0,0,0-.51,1.47v5.5h-1.8Z"/><path class="cls-2" d="M109.86,156.24a2.2,2.2,0,0,0,.62,1.69,2,2,0,0,0,1.52.59,2.66,2.66,0,0,0,2-.9l1.3,1.15a4.17,4.17,0,0,1-3.22,1.49,4.62,4.62,0,0,1-1.38-.21,3.51,3.51,0,0,1-.65-.31,3,3,0,0,1-.63-.42,3.55,3.55,0,0,1-.92-1.44,5.79,5.79,0,0,1-.39-2.31,6.52,6.52,0,0,1,.34-2.28,3.9,3.9,0,0,1,.86-1.45,3.07,3.07,0,0,1,1.19-.79,3.76,3.76,0,0,1,1.29-.24,3.69,3.69,0,0,1,2.59,1,3.86,3.86,0,0,1,1.1,2.87v1.52Zm3.78-1.52a2.41,2.41,0,0,0-.56-1.64,1.79,1.79,0,0,0-1.33-.53,1.76,1.76,0,0,0-1.32.53,2.57,2.57,0,0,0-.57,1.64Z"/><path class="cls-2" d="M128.17,150.93H130v1h0a2.85,2.85,0,0,1,2.32-1.1,2.9,2.9,0,0,1,1.88.71l-1.31,1.6a1.89,1.89,0,0,0-1.18-.46,1.7,1.7,0,0,0-1.18.46,1.85,1.85,0,0,0-.57,1.47v5.56h-1.79Z"/><path class="cls-2" d="M139.37,156.24a2.17,2.17,0,0,0,.62,1.69,2,2,0,0,0,1.51.59,2.66,2.66,0,0,0,2-.9l1.3,1.15a4.15,4.15,0,0,1-3.22,1.49,4.62,4.62,0,0,1-1.38-.21,3.51,3.51,0,0,1-.65-.31,3.29,3.29,0,0,1-.63-.42,3.65,3.65,0,0,1-.92-1.44,5.79,5.79,0,0,1-.39-2.31,6.52,6.52,0,0,1,.34-2.28,3.9,3.9,0,0,1,.86-1.45,3.07,3.07,0,0,1,1.19-.79,3.77,3.77,0,0,1,1.3-.24,3.7,3.7,0,0,1,2.59,1,3.89,3.89,0,0,1,1.09,2.87v1.52Zm3.78-1.52a2.42,2.42,0,0,0-.57-1.64,1.76,1.76,0,0,0-1.32-.53,1.79,1.79,0,0,0-1.33.53,2.52,2.52,0,0,0-.56,1.64Z"/><path class="cls-2" d="M150.47,157.34a3.68,3.68,0,0,0,2.83,1.18,2.32,2.32,0,0,0,1.27-.31,1,1,0,0,0,.49-.87.79.79,0,0,0-.29-.7,1.55,1.55,0,0,0-.8-.22l-1.59-.14a3,3,0,0,1-1.83-.78,2.38,2.38,0,0,1-.75-1.84,2.54,2.54,0,0,1,1-2.14,3.79,3.79,0,0,1,2.36-.71,7.41,7.41,0,0,1,1.11.08,6.18,6.18,0,0,1,.92.25,5.15,5.15,0,0,1,1.48.93l-1.11,1.35a5.53,5.53,0,0,0-1.1-.64,3.52,3.52,0,0,0-1.31-.23,1.74,1.74,0,0,0-1.18.32,1,1,0,0,0-.35.8.63.63,0,0,0,.26.54,1.59,1.59,0,0,0,.92.33l1.48.11a2.77,2.77,0,0,1,2,.88,3,3,0,0,1,.58,1.89,2.44,2.44,0,0,1-1.06,2.08,4.53,4.53,0,0,1-2.64.76,5.61,5.61,0,0,1-3.94-1.65Z"/><path class="cls-2" d="M162,150.93h1.8v5.5a2,2,0,0,0,.51,1.46,1.81,1.81,0,0,0,2.54,0,2,2,0,0,0,.49-1.46v-5.5h1.8v9.22h-1.8v-1h0a2.82,2.82,0,0,1-2.31,1.09,3,3,0,0,1-2-.83,2.91,2.91,0,0,1-1-2.36Z"/><path class="cls-2" d="M174.91,147.2h1.8v10.58c0,.42.22.63.67.63H178v1.74h-.8a2.53,2.53,0,0,1-1.62-.5,2.06,2.06,0,0,1-.67-1.73Z"/><path class="cls-2" d="M182.81,148.12h1.79v2.81h1.31v1.42H184.6v5.38c0,.47.2.7.64.68h.67v1.74H185a2.08,2.08,0,0,1-1.54-.6,2.14,2.14,0,0,1-.62-1.67v-5.53h-.9v-1.42h.9Z"/><path class="cls-2" d="M192.75,155.77a4.58,4.58,0,0,1,.09-1,2.64,2.64,0,0,1,.35-.8l1.52-2.26a2.17,2.17,0,0,0,.43-1.2,1.65,1.65,0,0,0-.49-1.2,1.57,1.57,0,0,0-2.15,0,2,2,0,0,0-.5,1.55h-1.8v-.36a3.42,3.42,0,0,1,1-2.48,3.22,3.22,0,0,1,2.32-1,3.46,3.46,0,0,1,2.36.92,3.4,3.4,0,0,1,1,2.57,3.31,3.31,0,0,1-.55,1.91l-1.54,2.28a2,2,0,0,0-.29,1.15v1h-1.8Zm0,2.54h1.8v1.84h-1.8Z"/><path class="cls-2" d="M90.37,179.1H85.61l-1,2.9h-2l4.56-13h1.6l4.56,13h-2Zm-.54-1.74L88,171.69h0l-1.82,5.67Z"/><path class="cls-2" d="M105.43,172.77h1.79v1a3.05,3.05,0,0,1,2.31-1.07,2.75,2.75,0,0,1,2.4,1.2,2.44,2.44,0,0,1,.51,1.15,15.77,15.77,0,0,1,.13,2.38,15.58,15.58,0,0,1-.13,2.35,2.52,2.52,0,0,1-.51,1.16,2.78,2.78,0,0,1-1,.86,3,3,0,0,1-1.43.34,2.39,2.39,0,0,1-1.23-.31,3.76,3.76,0,0,1-1.08-.77v4.71h-1.79Zm3.56,7.49a1.86,1.86,0,0,0,1-.25,1.5,1.5,0,0,0,.52-.66,3.34,3.34,0,0,0,.24-.93c0-.33,0-.68,0-1s0-.73,0-1.08a3,3,0,0,0-.24-.92,1.31,1.31,0,0,0-.52-.66,2,2,0,0,0-1-.23,1.63,1.63,0,0,0-1,.26,1.58,1.58,0,0,0-.54.68,3.27,3.27,0,0,0-.21.91,8.94,8.94,0,0,0-.06,1,7.93,7.93,0,0,0,.06,1,3.33,3.33,0,0,0,.21.94,1.58,1.58,0,0,0,.54.68A1.56,1.56,0,0,0,109,180.26Z"/><path class="cls-2" d="M119.32,178.09a2.22,2.22,0,0,0,.62,1.69,2,2,0,0,0,1.52.58,2.62,2.62,0,0,0,2-.9l1.3,1.15a4.1,4.1,0,0,1-3.21,1.49,4.62,4.62,0,0,1-1.38-.21,3.59,3.59,0,0,1-.66-.31,2.82,2.82,0,0,1-.62-.42,3.55,3.55,0,0,1-.92-1.44,5.79,5.79,0,0,1-.39-2.31,6.68,6.68,0,0,1,.33-2.27,4,4,0,0,1,.86-1.46,3.27,3.27,0,0,1,1.2-.78,3.76,3.76,0,0,1,1.29-.24,3.6,3.6,0,0,1,2.59,1,3.81,3.81,0,0,1,1.09,2.86v1.53Zm3.78-1.53a2.41,2.41,0,0,0-.56-1.64,2,2,0,0,0-2.66,0,2.57,2.57,0,0,0-.56,1.64Z"/><path class="cls-2" d="M130.17,172.77H132v1h0a3,3,0,0,1,4.2-.39L134.89,175a1.85,1.85,0,0,0-1.18-.47,1.66,1.66,0,0,0-1.18.47,1.81,1.81,0,0,0-.57,1.46V182h-1.79Z"/><path class="cls-2" d="M140.63,174.19h-.91v-1.42h.91v-1.22a2.44,2.44,0,0,1,.71-1.93,2.54,2.54,0,0,1,1.72-.58h1.17v1.74h-1c-.54,0-.8.24-.78.77v1.22h1.81v1.42h-1.81V182h-1.79Z"/><path class="cls-2" d="M149.85,178.09a2.18,2.18,0,0,0,.62,1.69,2,2,0,0,0,1.51.58,2.66,2.66,0,0,0,2-.9l1.3,1.15A4.12,4.12,0,0,1,152,182.1a4.62,4.62,0,0,1-1.38-.21,3.51,3.51,0,0,1-.65-.31,2.88,2.88,0,0,1-.63-.42,3.65,3.65,0,0,1-.92-1.44,5.79,5.79,0,0,1-.39-2.31,6.42,6.42,0,0,1,.34-2.27,3.87,3.87,0,0,1,.86-1.46,3.16,3.16,0,0,1,1.19-.78,3.77,3.77,0,0,1,1.3-.24,3.62,3.62,0,0,1,2.59,1,3.85,3.85,0,0,1,1.09,2.86v1.53Zm3.78-1.53a2.42,2.42,0,0,0-.57-1.64,1.76,1.76,0,0,0-1.32-.52,1.78,1.78,0,0,0-1.33.52,2.52,2.52,0,0,0-.56,1.64Z"/><path class="cls-2" d="M167.27,180.51a4.66,4.66,0,0,1-1.38,1.12,3.66,3.66,0,0,1-1.83.47,4,4,0,0,1-2.78-1.11,4.68,4.68,0,0,1-1.27-3.6,4.82,4.82,0,0,1,1.27-3.64,3.85,3.85,0,0,1,2.78-1.09,4,4,0,0,1,1.83.44,4.64,4.64,0,0,1,1.38,1.16l-1.33,1.22a2.23,2.23,0,0,0-1.81-1c-1.53,0-2.31.94-2.33,2.89s.8,2.9,2.33,2.87a2.2,2.2,0,0,0,1.81-1Z"/><path class="cls-2" d="M172,170h1.8v2.81h1.3v1.42h-1.3v5.38c0,.47.2.7.63.69h.67V182h-.93a2.07,2.07,0,0,1-1.55-.61,2.17,2.17,0,0,1-.62-1.67v-5.53h-.9v-1.42h.9Z"/><path class="cls-2" d="M187.76,174.19h-.91v-1.42h.91v-1.22a2.44,2.44,0,0,1,.7-1.93,2.59,2.59,0,0,1,1.73-.58h1.17v1.74h-1c-.54,0-.8.24-.78.77v1.22h1.81v1.42h-1.81V182h-1.79Z"/><path class="cls-2" d="M195.68,169h1.79v1.85h-1.79Zm0,3.73h1.79V182h-1.79Z"/><path class="cls-2" d="M203.19,170H205v2.81h1.3v1.42H205v5.38c0,.47.2.7.63.69h.67V182h-.93a2.07,2.07,0,0,1-1.55-.61,2.17,2.17,0,0,1-.62-1.67v-5.53h-.9v-1.42h.9Z"/><path class="cls-2" d="M211.29,180.15h1.79V182l-1.79,1.35Z"/><path class="cls-2" d="M232.73,180.51a4.66,4.66,0,0,1-1.38,1.12,3.66,3.66,0,0,1-1.83.47,4,4,0,0,1-2.78-1.11,4.68,4.68,0,0,1-1.27-3.6,4.82,4.82,0,0,1,1.27-3.64,3.85,3.85,0,0,1,2.78-1.09,4,4,0,0,1,1.83.44,4.64,4.64,0,0,1,1.38,1.16l-1.33,1.22a2.23,2.23,0,0,0-1.81-1c-1.53,0-2.31.94-2.33,2.89s.8,2.9,2.33,2.87a2.2,2.2,0,0,0,1.81-1Z"/><path class="cls-2" d="M237.33,172.77h1.79v5.5a2,2,0,0,0,.51,1.46,1.79,1.79,0,0,0,2.54,0,2.05,2.05,0,0,0,.5-1.46v-5.5h1.79V182h-1.79v-1h0a2.82,2.82,0,0,1-2.31,1.09,3,3,0,0,1-2-.83,2.93,2.93,0,0,1-1-2.36Z"/><path class="cls-2" d="M250.46,179.18a3.67,3.67,0,0,0,2.83,1.18,2.32,2.32,0,0,0,1.27-.31,1,1,0,0,0,.49-.87.78.78,0,0,0-.29-.69,1.58,1.58,0,0,0-.81-.23l-1.58-.14a3,3,0,0,1-1.84-.78,2.41,2.41,0,0,1-.74-1.84,2.5,2.5,0,0,1,1-2.13,3.74,3.74,0,0,1,2.36-.71,6.22,6.22,0,0,1,1.11.08,5.88,5.88,0,0,1,.92.24,5.45,5.45,0,0,1,1.49.94l-1.12,1.34a5.46,5.46,0,0,0-1.09-.64,3.56,3.56,0,0,0-1.31-.22,1.75,1.75,0,0,0-1.19.31,1,1,0,0,0-.35.8.63.63,0,0,0,.27.54,1.55,1.55,0,0,0,.91.33l1.49.12a2.71,2.71,0,0,1,2,.87,3,3,0,0,1,.58,1.89,2.42,2.42,0,0,1-1.06,2.08,4.46,4.46,0,0,1-2.64.76,5.61,5.61,0,0,1-3.94-1.65Z"/><path class="cls-2" d="M262.13,170h1.8v2.81h1.31v1.42h-1.31v5.38q0,.7.63.69h.68V182h-.94a2.07,2.07,0,0,1-1.55-.61,2.17,2.17,0,0,1-.62-1.67v-5.53h-.9v-1.42h.9Z"/><path class="cls-2" d="M269.73,177.38a8.08,8.08,0,0,1,.24-2.25,3.17,3.17,0,0,1,.74-1.29,3.24,3.24,0,0,1,1-.82,3.73,3.73,0,0,1,1.68-.36,3.78,3.78,0,0,1,1.71.36,3.12,3.12,0,0,1,1,.83,2.9,2.9,0,0,1,.76,1.29,9.09,9.09,0,0,1,.21,2.24,8.91,8.91,0,0,1-.21,2.22,3.68,3.68,0,0,1-1.18,1.72,1.77,1.77,0,0,1-.58.38,3.43,3.43,0,0,1-1.71.4,3.67,3.67,0,0,1-2.71-1.18,3.43,3.43,0,0,1-.74-1.32A7.84,7.84,0,0,1,269.73,177.38Zm5.58,0a8.16,8.16,0,0,0-.09-1.44,1.75,1.75,0,0,0-.35-.77,1.37,1.37,0,0,0-.59-.49,2,2,0,0,0-.86-.19,2,2,0,0,0-.85.19,1.53,1.53,0,0,0-.6.49,2.15,2.15,0,0,0-.34.77,7.05,7.05,0,0,0-.1,1.43,6.71,6.71,0,0,0,.1,1.4,2.36,2.36,0,0,0,.34.81,2.09,2.09,0,0,0,.6.47,1.93,1.93,0,0,0,1.71,0,1.8,1.8,0,0,0,.59-.47,1.91,1.91,0,0,0,.35-.81A7.66,7.66,0,0,0,275.31,177.39Z"/><path class="cls-2" d="M282.3,172.77h1.8v1h0a3,3,0,0,1,2.41-1.09,3.54,3.54,0,0,1,1.55.32,5.17,5.17,0,0,1,1.06.88,3.62,3.62,0,0,1,2.9-1.2,3.19,3.19,0,0,1,2.1.8,3.14,3.14,0,0,1,1,2.4V182h-1.8v-5.5a2,2,0,0,0-.51-1.48,1.83,1.83,0,0,0-1.33-.52,1.86,1.86,0,0,0-1.34.52,1.93,1.93,0,0,0-.53,1.48V182h-1.8v-5.5a2,2,0,0,0-.51-1.48,1.86,1.86,0,0,0-1.34-.52,1.82,1.82,0,0,0-1.33.52,1.93,1.93,0,0,0-.54,1.48V182h-1.8Z"/><path class="cls-2" d="M313.78,181a3,3,0,0,1-2.32,1.07,2.82,2.82,0,0,1-1.38-.34,3.11,3.11,0,0,1-1-.86,2.32,2.32,0,0,1-.49-1.18,18.56,18.56,0,0,1,0-4.71,2.29,2.29,0,0,1,.49-1.15,3,3,0,0,1,3.67-.91,5.3,5.3,0,0,1,1,.79V169h1.79v13h-1.79ZM312,174.5a1.74,1.74,0,0,0-1,.23,1.35,1.35,0,0,0-.54.66,3.28,3.28,0,0,0-.22.91c0,.35,0,.71,0,1.08s0,.69,0,1a3.39,3.39,0,0,0,.22.95,1.55,1.55,0,0,0,.54.66,1.65,1.65,0,0,0,1,.25,1.68,1.68,0,0,0,1-.27,1.33,1.33,0,0,0,.51-.68,3.7,3.7,0,0,0,.23-.94c0-.33,0-.67,0-1s0-.7,0-1a3.68,3.68,0,0,0-.23-.91,1.33,1.33,0,0,0-.51-.68A1.75,1.75,0,0,0,312,174.5Z"/><path class="cls-2" d="M322.33,178.09a2.18,2.18,0,0,0,.62,1.69,2,2,0,0,0,1.51.58,2.66,2.66,0,0,0,2-.9l1.3,1.15a4.12,4.12,0,0,1-3.22,1.49,4.62,4.62,0,0,1-1.38-.21,3.51,3.51,0,0,1-.65-.31,2.88,2.88,0,0,1-.63-.42,3.65,3.65,0,0,1-.92-1.44,5.79,5.79,0,0,1-.39-2.31,6.42,6.42,0,0,1,.34-2.27,3.87,3.87,0,0,1,.86-1.46,3.16,3.16,0,0,1,1.19-.78,3.77,3.77,0,0,1,1.3-.24,3.62,3.62,0,0,1,2.59,1,3.85,3.85,0,0,1,1.09,2.86v1.53Zm3.78-1.53a2.42,2.42,0,0,0-.57-1.64,1.76,1.76,0,0,0-1.32-.52,1.78,1.78,0,0,0-1.33.52,2.52,2.52,0,0,0-.56,1.64Z"/><path class="cls-2" d="M333.28,170h1.79v2.81h1.31v1.42h-1.31v5.38c0,.47.2.7.64.69h.67V182h-.94a2,2,0,0,1-1.54-.61,2.17,2.17,0,0,1-.62-1.67v-5.53h-.9v-1.42h.9Z"/><path class="cls-2" d="M346,181.18h0a1.49,1.49,0,0,1-.77.69,3.5,3.5,0,0,1-1.43.23,3.21,3.21,0,0,1-2.31-.81,2.64,2.64,0,0,1-.85-2,2.67,2.67,0,0,1,.74-1.93,2.9,2.9,0,0,1,2.17-.8H346v-1c0-.81-.6-1.21-1.84-1.18a3.09,3.09,0,0,0-1.06.14,1.25,1.25,0,0,0-.63.57L341.08,174a3.4,3.4,0,0,1,3-1.34,4.62,4.62,0,0,1,2.7.65,2.74,2.74,0,0,1,1,2.39V182H346Zm0-3.09h-2.16c-1.05,0-1.56.39-1.55,1.11a1,1,0,0,0,.4.8,1.88,1.88,0,0,0,1.29.36,3.14,3.14,0,0,0,1.59-.27c.29-.2.43-.64.43-1.34Z"/><path class="cls-2" d="M353.57,169h1.8v1.85h-1.8Zm0,3.73h1.8V182h-1.8Z"/><path class="cls-2" d="M361,169h1.79v10.58c0,.43.22.64.67.64h.63V182h-.8a2.49,2.49,0,0,1-1.62-.51,2,2,0,0,1-.67-1.72Z"/><path class="cls-2" d="M369,179.18a3.71,3.71,0,0,0,2.84,1.18,2.28,2.28,0,0,0,1.26-.31,1,1,0,0,0,.5-.87.76.76,0,0,0-.3-.69,1.55,1.55,0,0,0-.8-.23l-1.59-.14a3,3,0,0,1-1.83-.78,2.38,2.38,0,0,1-.74-1.84,2.5,2.5,0,0,1,1-2.13,3.74,3.74,0,0,1,2.36-.71,6.29,6.29,0,0,1,1.11.08,5.88,5.88,0,0,1,.92.24,5.4,5.4,0,0,1,1.48.94l-1.11,1.34a5.46,5.46,0,0,0-1.09-.64,3.58,3.58,0,0,0-1.32-.22,1.74,1.74,0,0,0-1.18.31,1,1,0,0,0-.35.8.63.63,0,0,0,.27.54,1.52,1.52,0,0,0,.91.33l1.48.12a2.71,2.71,0,0,1,2,.87,3,3,0,0,1,.58,1.89,2.42,2.42,0,0,1-1.06,2.08,4.46,4.46,0,0,1-2.64.76,5.61,5.61,0,0,1-3.94-1.65Z"/><path class="cls-2" d="M380.65,180.15h1.79V182l-1.79,1.35Z"/><path class="cls-2" d="M400.2,181.18h0a1.56,1.56,0,0,1-.78.69,3.45,3.45,0,0,1-1.42.23,3.21,3.21,0,0,1-2.31-.81,2.6,2.6,0,0,1-.85-2,2.67,2.67,0,0,1,.74-1.93,2.88,2.88,0,0,1,2.17-.8h2.48v-1c0-.81-.6-1.21-1.83-1.18a3.05,3.05,0,0,0-1.06.14,1.31,1.31,0,0,0-.64.57L395.26,174a3.43,3.43,0,0,1,3-1.34,4.59,4.59,0,0,1,2.69.65,2.74,2.74,0,0,1,1,2.39V182h-1.8Zm0-3.09h-2.15c-1.05,0-1.57.39-1.55,1.11a1,1,0,0,0,.4.8,1.88,1.88,0,0,0,1.29.36,3.14,3.14,0,0,0,1.59-.27c.28-.2.42-.64.42-1.34Z"/><path class="cls-2" d="M407.71,172.77h1.79v1h0a2.86,2.86,0,0,1,2.33-1.09,3.05,3.05,0,0,1,2,.8,3.23,3.23,0,0,1,.95,2.4V182h-1.79v-5.5a2,2,0,0,0-.5-1.48,1.81,1.81,0,0,0-2.54,0,2,2,0,0,0-.51,1.48V182h-1.79Z"/><path class="cls-2" d="M425.92,181a3,3,0,0,1-2.32,1.07,2.85,2.85,0,0,1-1.38-.34,3.11,3.11,0,0,1-1-.86,2.41,2.41,0,0,1-.49-1.18,19.88,19.88,0,0,1,0-4.71,2.38,2.38,0,0,1,.49-1.15,3,3,0,0,1,3.67-.91,5,5,0,0,1,1,.79V169h1.79v13h-1.79Zm-1.77-6.53a1.74,1.74,0,0,0-1,.23,1.35,1.35,0,0,0-.54.66,3.67,3.67,0,0,0-.22.91c0,.35-.05.71-.05,1.08s0,.69.05,1a3.78,3.78,0,0,0,.22.95,1.55,1.55,0,0,0,.54.66,1.65,1.65,0,0,0,1,.25,1.68,1.68,0,0,0,1-.27,1.28,1.28,0,0,0,.51-.68,3.7,3.7,0,0,0,.23-.94c0-.33,0-.67,0-1s0-.7,0-1a3.68,3.68,0,0,0-.23-.91,1.28,1.28,0,0,0-.51-.68A1.75,1.75,0,0,0,424.15,174.5Z"/><path class="cls-2" d="M440.58,172.77h1.79v1h0a2.83,2.83,0,0,1,2.32-1.09,3.05,3.05,0,0,1,2,.8,3.19,3.19,0,0,1,.95,2.4V182h-1.79v-5.5a2,2,0,0,0-.5-1.48,1.81,1.81,0,0,0-2.54,0,2,2,0,0,0-.51,1.48V182h-1.79Z"/><path class="cls-2" d="M453,177.38a8.08,8.08,0,0,1,.24-2.25,3.17,3.17,0,0,1,.74-1.29,3.24,3.24,0,0,1,1-.82,3.73,3.73,0,0,1,1.68-.36,3.78,3.78,0,0,1,1.71.36,3.24,3.24,0,0,1,1,.83,3,3,0,0,1,.76,1.29,9.09,9.09,0,0,1,.21,2.24,8.37,8.37,0,0,1-.22,2.22,3.1,3.1,0,0,1-.75,1.32,3.22,3.22,0,0,1-.42.4,1.88,1.88,0,0,1-.58.38,3.43,3.43,0,0,1-1.71.4,3.67,3.67,0,0,1-2.71-1.18,3.43,3.43,0,0,1-.74-1.32A7.84,7.84,0,0,1,453,177.38Zm5.58,0a8.16,8.16,0,0,0-.09-1.44,1.87,1.87,0,0,0-.35-.77,1.37,1.37,0,0,0-.59-.49,2,2,0,0,0-.86-.19,2,2,0,0,0-.85.19,1.53,1.53,0,0,0-.6.49,2.15,2.15,0,0,0-.34.77,7.05,7.05,0,0,0-.1,1.43,6.71,6.71,0,0,0,.1,1.4,2.36,2.36,0,0,0,.34.81,2.09,2.09,0,0,0,.6.47,1.93,1.93,0,0,0,1.71,0,1.8,1.8,0,0,0,.59-.47,2,2,0,0,0,.35-.81A7.66,7.66,0,0,0,458.58,177.39Z"/><path class="cls-2" d="M479.68,180.51a4.66,4.66,0,0,1-1.38,1.12,3.66,3.66,0,0,1-1.83.47,4,4,0,0,1-2.78-1.11,4.68,4.68,0,0,1-1.27-3.6,4.78,4.78,0,0,1,1.27-3.64,3.85,3.85,0,0,1,2.78-1.09,4,4,0,0,1,1.83.44,4.64,4.64,0,0,1,1.38,1.16l-1.33,1.22a2.23,2.23,0,0,0-1.81-1c-1.53,0-2.31.94-2.33,2.89s.8,2.9,2.32,2.87a2.2,2.2,0,0,0,1.82-1Z"/><path class="cls-2" d="M483.83,177.38a8.55,8.55,0,0,1,.23-2.25,3.7,3.7,0,0,1,1.78-2.11,3.66,3.66,0,0,1,1.67-.36,3.82,3.82,0,0,1,1.72.36,3.24,3.24,0,0,1,1,.83,3,3,0,0,1,.75,1.29,8.54,8.54,0,0,1,.22,2.24,8.82,8.82,0,0,1-.22,2.22,3.12,3.12,0,0,1-.76,1.32,2.31,2.31,0,0,1-.42.4,1.83,1.83,0,0,1-.57.38,3.44,3.44,0,0,1-1.72.4,3.3,3.3,0,0,1-1.67-.4,3.37,3.37,0,0,1-1-.78,3.56,3.56,0,0,1-.74-1.32A8.3,8.3,0,0,1,483.83,177.38Zm5.57,0a9.59,9.59,0,0,0-.08-1.44,1.77,1.77,0,0,0-.36-.77,1.29,1.29,0,0,0-.58-.49,2,2,0,0,0-1.71,0,1.64,1.64,0,0,0-.61.49,2.33,2.33,0,0,0-.33.77,6.89,6.89,0,0,0-.11,1.43,6.55,6.55,0,0,0,.11,1.4,2.55,2.55,0,0,0,.33.81,2.29,2.29,0,0,0,.61.47,1.93,1.93,0,0,0,1.71,0,1.66,1.66,0,0,0,.58-.47,1.92,1.92,0,0,0,.36-.81A9,9,0,0,0,489.4,177.39Z"/><path class="cls-2" d="M496.47,172.77h1.79v1h0a3,3,0,0,1,4.2-.39L501.19,175a1.85,1.85,0,0,0-1.18-.47,1.66,1.66,0,0,0-1.18.47,1.85,1.85,0,0,0-.57,1.46V182h-1.79Z"/><path class="cls-2" d="M506.21,172.77H508v1h0a2.84,2.84,0,0,1,2.32-1.09,3,3,0,0,1,2,.8,3.2,3.2,0,0,1,1,2.4V182h-1.8v-5.5a2,2,0,0,0-.5-1.48,1.67,1.67,0,0,0-1.26-.52,1.73,1.73,0,0,0-1.28.52,2,2,0,0,0-.5,1.48V182h-1.8Z"/><path class="cls-2" d="M520.43,178.09a2.22,2.22,0,0,0,.62,1.69,2,2,0,0,0,1.52.58,2.62,2.62,0,0,0,1.95-.9l1.3,1.15a4.1,4.1,0,0,1-3.21,1.49,4.62,4.62,0,0,1-1.38-.21,3.51,3.51,0,0,1-.65-.31,2.66,2.66,0,0,1-.63-.42,3.55,3.55,0,0,1-.92-1.44,5.79,5.79,0,0,1-.39-2.31,6.68,6.68,0,0,1,.33-2.27,4,4,0,0,1,.86-1.46,3.27,3.27,0,0,1,1.2-.78,3.76,3.76,0,0,1,1.29-.24,3.6,3.6,0,0,1,2.59,1,3.81,3.81,0,0,1,1.09,2.86v1.53Zm3.78-1.53a2.41,2.41,0,0,0-.56-1.64,2,2,0,0,0-2.66,0,2.57,2.57,0,0,0-.56,1.64Z"/><path class="cls-2" d="M531.28,172.77h1.79v1h0a3,3,0,0,1,4.2-.39L536,175a1.85,1.85,0,0,0-1.18-.47,1.66,1.66,0,0,0-1.18.47,1.81,1.81,0,0,0-.57,1.46V182h-1.79Z"/><path class="cls-2" d="M541.72,179.18a3.67,3.67,0,0,0,2.83,1.18,2.32,2.32,0,0,0,1.27-.31,1,1,0,0,0,.49-.87.78.78,0,0,0-.29-.69,1.58,1.58,0,0,0-.81-.23l-1.58-.14a3,3,0,0,1-1.84-.78,2.41,2.41,0,0,1-.74-1.84,2.5,2.5,0,0,1,1-2.13,3.74,3.74,0,0,1,2.36-.71,6.22,6.22,0,0,1,1.11.08,5.88,5.88,0,0,1,.92.24,5.45,5.45,0,0,1,1.49.94l-1.12,1.34a5.46,5.46,0,0,0-1.09-.64,3.56,3.56,0,0,0-1.31-.22,1.75,1.75,0,0,0-1.19.31,1,1,0,0,0-.35.8.63.63,0,0,0,.27.54,1.55,1.55,0,0,0,.91.33l1.49.12a2.71,2.71,0,0,1,2,.87,3,3,0,0,1,.58,1.89,2.42,2.42,0,0,1-1.06,2.08,4.46,4.46,0,0,1-2.64.76,5.61,5.61,0,0,1-3.94-1.65Z"/><path class="cls-2" d="M567.32,180.51a4.66,4.66,0,0,1-1.38,1.12,3.66,3.66,0,0,1-1.83.47,4,4,0,0,1-2.78-1.11,4.72,4.72,0,0,1-1.27-3.6,4.82,4.82,0,0,1,1.27-3.64,3.87,3.87,0,0,1,2.78-1.09,3.93,3.93,0,0,1,1.83.44,4.64,4.64,0,0,1,1.38,1.16L566,175.48a2.25,2.25,0,0,0-1.82-1c-1.53,0-2.3.94-2.33,2.89s.8,2.9,2.33,2.87a2.18,2.18,0,0,0,1.81-1Z"/><path class="cls-2" d="M571.92,172.77h1.79v5.5a2,2,0,0,0,.51,1.46,1.79,1.79,0,0,0,2.54,0,2.05,2.05,0,0,0,.5-1.46v-5.5h1.79V182h-1.79v-1h0a2.82,2.82,0,0,1-2.31,1.09,3,3,0,0,1-2-.83,2.91,2.91,0,0,1-1-2.36Z"/><path class="cls-2" d="M584.9,170h1.79v2.81H588v1.42h-1.31v5.38c0,.47.2.7.64.69H588V182h-.94a2.07,2.07,0,0,1-1.55-.61,2.17,2.17,0,0,1-.61-1.67v-5.53H584v-1.42h.91Z"/><path class="cls-2" d="M593,180.15h1.8V182H593Z"/></g></g></svg>