<svg xmlns="http://www.w3.org/2000/svg" viewBox="0 0 1342.6 207.7"><defs><style>.cls-1{fill:#e6e7d8;stroke:#231f20;stroke-linecap:round;stroke-linejoin:round;}.cls-2{fill:#191919;}</style></defs><g id="Layer_2" data-name="Layer 2"><g id="Layer_1-2" data-name="Layer 1"><path class="cls-1" d="M46.35,207.2l449.47-35.46,217.93,31.13,612.78-12.73,15.57-130.2L727.15,53.77,536.86.5.5,24.56Q23.42,115.88,46.35,207.2Z"/><path class="cls-2" d="M102.71,58.68h2l2,9.22h0l2.44-9.22h1.37L113,67.9h0l2-9.22h2l-3.13,13h-1.59l-2.4-9.34h0l-2.4,9.34h-1.59Z"/><path class="cls-2" d="M122.81,67.73a2.22,2.22,0,0,0,.62,1.69A2,2,0,0,0,125,70a2.62,2.62,0,0,0,2-.9l1.3,1.15A4.17,4.17,0,0,1,125,71.75a4.62,4.62,0,0,1-1.38-.21,3.56,3.56,0,0,1-.65-.32,3,3,0,0,1-.63-.41,3.69,3.69,0,0,1-.92-1.44,5.85,5.85,0,0,1-.39-2.31,6.7,6.7,0,0,1,.33-2.28,4.1,4.1,0,0,1,.87-1.46,3.16,3.16,0,0,1,1.19-.78,3.76,3.76,0,0,1,1.29-.24,3.64,3.64,0,0,1,2.59,1,3.87,3.87,0,0,1,1.1,2.86v1.53Zm3.78-1.53a2.38,2.38,0,0,0-.56-1.63,1.93,1.93,0,0,0-2.66,0,2.54,2.54,0,0,0-.56,1.63Z"/><path class="cls-2" d="M141.12,58.68h1.79v4.71h0a2.89,2.89,0,0,1,2.33-1.09,3,3,0,0,1,2,.81,3.2,3.2,0,0,1,.95,2.4v6.13h-1.79v-5.5a2.05,2.05,0,0,0-.5-1.48,1.84,1.84,0,0,0-2.54,0,2,2,0,0,0-.51,1.48v5.5h-1.79Z"/><path class="cls-2" d="M158.68,70.82h0a1.53,1.53,0,0,1-.78.7,3.64,3.64,0,0,1-1.43.23,3.19,3.19,0,0,1-2.3-.82,2.59,2.59,0,0,1-.86-2A2.65,2.65,0,0,1,154,67a2.91,2.91,0,0,1,2.16-.8h2.49v-1c0-.82-.6-1.21-1.83-1.19a3.31,3.31,0,0,0-1.06.14,1.38,1.38,0,0,0-.64.58l-1.41-1.12a3.44,3.44,0,0,1,3-1.34,4.69,4.69,0,0,1,2.69.66,2.71,2.71,0,0,1,1,2.38v6.3h-1.79Zm0-3.09h-2.16c-1,0-1.56.39-1.55,1.11a1,1,0,0,0,.41.8,1.8,1.8,0,0,0,1.28.37,3.06,3.06,0,0,0,1.6-.28c.28-.19.42-.64.42-1.33Z"/><path class="cls-2" d="M164.91,62.42h1.9l2.1,6.46h0L171,62.42h1.91l-3.27,9.22h-1.48Z"/><path class="cls-2" d="M178.6,67.73a2.18,2.18,0,0,0,.62,1.69,2,2,0,0,0,1.51.59,2.65,2.65,0,0,0,2-.9l1.3,1.15a4.17,4.17,0,0,1-3.22,1.49,4.62,4.62,0,0,1-1.38-.21,6.18,6.18,0,0,1-1.28-.73,3.81,3.81,0,0,1-.92-1.44,5.85,5.85,0,0,1-.39-2.31,6.68,6.68,0,0,1,.34-2.28,4,4,0,0,1,.86-1.46,3.27,3.27,0,0,1,1.2-.78,3.7,3.7,0,0,1,3.88.8,3.87,3.87,0,0,1,1.09,2.86v1.53Zm3.78-1.53a2.43,2.43,0,0,0-.56-1.63,1.93,1.93,0,0,0-2.66,0,2.49,2.49,0,0,0-.56,1.63Z"/><path class="cls-2" d="M197,59.61h1.79v2.81h1.31v1.42H198.8v5.38c0,.46.2.69.64.68h.67v1.74h-.93a2.09,2.09,0,0,1-1.55-.6,2.19,2.19,0,0,1-.62-1.67V63.84h-.9V62.42h.9Z"/><path class="cls-2" d="M205.05,58.68h1.8v4.71h0a2.87,2.87,0,0,1,2.32-1.09,3,3,0,0,1,2,.81,3.16,3.16,0,0,1,1,2.4v6.13H210.4v-5.5a2.05,2.05,0,0,0-.5-1.48,1.84,1.84,0,0,0-2.54,0,2,2,0,0,0-.51,1.48v5.5h-1.8Z"/><path class="cls-2" d="M218,58.68h1.79v1.85H218Zm0,3.74h1.79v9.22H218Z"/><path class="cls-2" d="M225.64,68.82A3.69,3.69,0,0,0,228.47,70a2.39,2.39,0,0,0,1.27-.31,1,1,0,0,0,.5-.88.76.76,0,0,0-.3-.69,1.55,1.55,0,0,0-.8-.22l-1.59-.14a2.91,2.91,0,0,1-1.83-.79,2.4,2.4,0,0,1-.75-1.84A2.56,2.56,0,0,1,226,63a3.79,3.79,0,0,1,2.36-.71,7.41,7.41,0,0,1,1.11.08,4.59,4.59,0,0,1,2.4,1.18l-1.11,1.34a5.22,5.22,0,0,0-1.1-.63A3.52,3.52,0,0,0,228.3,64a1.8,1.8,0,0,0-1.18.31,1,1,0,0,0-.35.8.65.65,0,0,0,.26.55A1.59,1.59,0,0,0,228,66l1.48.11a2.73,2.73,0,0,1,2,.87,3,3,0,0,1,.58,1.9A2.41,2.41,0,0,1,231,71a4.46,4.46,0,0,1-2.64.77,5.61,5.61,0,0,1-3.94-1.65Z"/><path class="cls-2" d="M250,70.68a3,3,0,0,1-2.31,1.07,2.89,2.89,0,0,1-1.39-.35,3,3,0,0,1-1-.85,2.36,2.36,0,0,1-.49-1.19,12.67,12.67,0,0,1-.15-2.34,12.9,12.9,0,0,1,.15-2.37,2.33,2.33,0,0,1,.49-1.15,2.74,2.74,0,0,1,2.39-1.2,2.85,2.85,0,0,1,1.27.29,5.08,5.08,0,0,1,1,.8V58.68h1.8v13H250Zm-1.76-6.53a1.78,1.78,0,0,0-1,.22,1.47,1.47,0,0,0-.54.66,3.27,3.27,0,0,0-.21.91,9.54,9.54,0,0,0-.05,1.08,8.77,8.77,0,0,0,.05,1,3.33,3.33,0,0,0,.21.94,1.58,1.58,0,0,0,.54.66,1.61,1.61,0,0,0,1,.25,1.7,1.7,0,0,0,1-.27,1.33,1.33,0,0,0,.5-.67A3.41,3.41,0,0,0,250,68c0-.34,0-.67,0-1s0-.7,0-1a3.39,3.39,0,0,0-.24-.91,1.33,1.33,0,0,0-.5-.67A1.7,1.7,0,0,0,248.25,64.15Z"/><path class="cls-2" d="M256.77,67a8.52,8.52,0,0,1,.23-2.24,3.77,3.77,0,0,1,1.78-2.12,4.12,4.12,0,0,1,3.39,0,3.21,3.21,0,0,1,1,.82,3,3,0,0,1,.75,1.29,9.05,9.05,0,0,1,.22,2.24,8.82,8.82,0,0,1-.22,2.22,3.22,3.22,0,0,1-.76,1.33,2.71,2.71,0,0,1-.42.4,2.16,2.16,0,0,1-.58.38,3.79,3.79,0,0,1-3.39,0,3.44,3.44,0,0,1-1-.78,3.69,3.69,0,0,1-.74-1.33A8.3,8.3,0,0,1,256.77,67Zm5.57,0a9.85,9.85,0,0,0-.08-1.45,1.73,1.73,0,0,0-.36-.76,1.28,1.28,0,0,0-.58-.49,2,2,0,0,0-1.71,0,1.54,1.54,0,0,0-.61.49,2.28,2.28,0,0,0-.33.76,7,7,0,0,0-.11,1.43,6.73,6.73,0,0,0,.11,1.41,2.5,2.5,0,0,0,.33.8,2.11,2.11,0,0,0,.61.47,1.93,1.93,0,0,0,1.71,0,1.64,1.64,0,0,0,.58-.47,1.88,1.88,0,0,0,.36-.8A9.1,9.1,0,0,0,262.34,67Z"/><path class="cls-2" d="M274.62,65.18h0l-1.87,6.46h-1.58l-2.86-9.22h1.9l1.72,6.47h0l2-6.47h1.3l2,6.47h0l1.7-6.47h1.9l-2.84,9.22h-1.6Z"/><path class="cls-2" d="M285.65,62.42h1.79v1h0a2.86,2.86,0,0,1,2.32-1.09,3,3,0,0,1,2,.81,3.16,3.16,0,0,1,.95,2.4v6.13H291v-5.5a2.05,2.05,0,0,0-.5-1.48,1.84,1.84,0,0,0-2.54,0,2,2,0,0,0-.51,1.48v5.5h-1.79Z"/><path class="cls-2" d="M306.08,59.61h1.8v2.81h1.31v1.42h-1.31v5.38c0,.46.2.69.63.68h.68v1.74h-.94a2.1,2.1,0,0,1-1.55-.6,2.19,2.19,0,0,1-.62-1.67V63.84h-.9V62.42h.9Z"/><path class="cls-2" d="M313.68,67a8,8,0,0,1,.24-2.24,3.17,3.17,0,0,1,.74-1.29,3.26,3.26,0,0,1,1-.83,3.73,3.73,0,0,1,1.68-.36,3.64,3.64,0,0,1,1.71.37,3.1,3.1,0,0,1,1,.82,3,3,0,0,1,.76,1.29,9.14,9.14,0,0,1,.21,2.24,8.37,8.37,0,0,1-.22,2.22,3.2,3.2,0,0,1-.75,1.33,4.06,4.06,0,0,1-.42.4,2.33,2.33,0,0,1-.58.38,3.54,3.54,0,0,1-1.71.4,3.42,3.42,0,0,1-1.68-.4,3.32,3.32,0,0,1-1-.78,3.54,3.54,0,0,1-.74-1.33A7.84,7.84,0,0,1,313.68,67Zm5.58,0a8.37,8.37,0,0,0-.09-1.45,1.83,1.83,0,0,0-.35-.76,1.3,1.3,0,0,0-.59-.49,2,2,0,0,0-1.71,0,1.45,1.45,0,0,0-.6.49,2.11,2.11,0,0,0-.34.76,7.12,7.12,0,0,0-.1,1.43,6.89,6.89,0,0,0,.1,1.41,2.3,2.3,0,0,0,.34.8,1.93,1.93,0,0,0,.6.47,1.93,1.93,0,0,0,1.71,0,1.68,1.68,0,0,0,.59-.47,2,2,0,0,0,.35-.8A7.74,7.74,0,0,0,319.26,67Z"/><path class="cls-2" d="M338.47,70.82h0a1.51,1.51,0,0,1-.77.7,3.71,3.71,0,0,1-1.43.23,3.21,3.21,0,0,1-2.31-.82,2.59,2.59,0,0,1-.85-2,2.69,2.69,0,0,1,.74-1.93,2.94,2.94,0,0,1,2.17-.8h2.48v-1c0-.82-.59-1.21-1.83-1.19a3.31,3.31,0,0,0-1.06.14,1.31,1.31,0,0,0-.63.58l-1.42-1.12a3.46,3.46,0,0,1,3-1.34,4.66,4.66,0,0,1,2.69.66,2.69,2.69,0,0,1,1,2.38v6.3h-1.8Zm0-3.09h-2.15c-1.05,0-1.57.39-1.55,1.11a1,1,0,0,0,.4.8,1.83,1.83,0,0,0,1.29.37,3,3,0,0,0,1.59-.28c.28-.19.42-.64.42-1.33Z"/><path class="cls-2" d="M353.72,63.84h-.91V62.42h.91V61.2a2.5,2.5,0,0,1,.7-1.94,2.64,2.64,0,0,1,1.73-.58h1.17v1.74h-1c-.54,0-.8.24-.78.77v1.23h1.81v1.42h-1.81v7.8h-1.79Z"/><path class="cls-2" d="M361.64,58.68h1.79v1.85h-1.79Zm0,3.74h1.79v9.22h-1.79Z"/><path class="cls-2" d="M369,62.42h1.8v1h0a2.88,2.88,0,0,1,2.33-1.09,3,3,0,0,1,2,.81,3.2,3.2,0,0,1,.95,2.4v6.13h-1.79v-5.5a2.05,2.05,0,0,0-.5-1.48,1.84,1.84,0,0,0-2.54,0,2,2,0,0,0-.51,1.48v5.5H369Z"/><path class="cls-2" d="M383.26,67.73a2.22,2.22,0,0,0,.62,1.69,2,2,0,0,0,1.52.59,2.66,2.66,0,0,0,2-.9l1.3,1.15a4.19,4.19,0,0,1-3.22,1.49,4.62,4.62,0,0,1-1.38-.21,3.56,3.56,0,0,1-.65-.32,3,3,0,0,1-.63-.41,3.69,3.69,0,0,1-.92-1.44,5.85,5.85,0,0,1-.39-2.31,6.45,6.45,0,0,1,.34-2.28,4,4,0,0,1,.86-1.46,3.16,3.16,0,0,1,1.19-.78,3.76,3.76,0,0,1,1.29-.24,3.64,3.64,0,0,1,2.59,1,3.83,3.83,0,0,1,1.1,2.86v1.53ZM387,66.2a2.38,2.38,0,0,0-.56-1.63,1.79,1.79,0,0,0-1.33-.53,1.76,1.76,0,0,0-1.32.53,2.54,2.54,0,0,0-.57,1.63Z"/><path class="cls-2" d="M406.26,70.82h0a1.53,1.53,0,0,1-.78.7,3.64,3.64,0,0,1-1.43.23,3.2,3.2,0,0,1-2.3-.82,2.59,2.59,0,0,1-.85-2,2.65,2.65,0,0,1,.74-1.93,2.91,2.91,0,0,1,2.16-.8h2.49v-1c0-.82-.6-1.21-1.83-1.19a3.31,3.31,0,0,0-1.06.14,1.38,1.38,0,0,0-.64.58l-1.41-1.12a3.44,3.44,0,0,1,3-1.34A4.69,4.69,0,0,1,407,63a2.71,2.71,0,0,1,1,2.38v6.3h-1.79Zm0-3.09h-2.15q-1.58,0-1.56,1.11a1,1,0,0,0,.41.8,1.81,1.81,0,0,0,1.28.37,3,3,0,0,0,1.6-.28c.28-.19.42-.64.42-1.33Z"/><path class="cls-2" d="M413.76,62.42h1.8v1h0A3,3,0,0,1,419.8,63l-1.31,1.6a1.86,1.86,0,0,0-1.18-.46,1.64,1.64,0,0,0-1.18.46,1.82,1.82,0,0,0-.57,1.47v5.56h-1.8Z"/><path class="cls-2" d="M424.05,59.61h1.79v2.81h1.31v1.42h-1.31v5.38c0,.46.2.69.64.68h.67v1.74h-.94a2.08,2.08,0,0,1-1.54-.6,2.15,2.15,0,0,1-.62-1.67V63.84h-.9V62.42h.9Z"/><path class="cls-2" d="M432.15,69.79h1.79v1.85h-1.79Z"/><path class="cls-2" d="M103.84,102.37h8v1.85h-6.12v3.7H111v1.74h-5.22v3.82h6.12v1.85h-8Z"/><path class="cls-2" d="M116.89,106.1h1.8v1h0a2.85,2.85,0,0,1,2.33-1.09,3,3,0,0,1,2,.8,3.23,3.23,0,0,1,1,2.4v6.14h-1.79v-5.5a2,2,0,0,0-.5-1.48,1.81,1.81,0,0,0-2.54,0,2,2,0,0,0-.51,1.48v5.5h-1.8Z"/><path class="cls-2" d="M129.77,102.37h1.79v4.71h0a2.85,2.85,0,0,1,2.33-1.09,3,3,0,0,1,2,.8,3.23,3.23,0,0,1,1,2.4v6.14h-1.79v-5.5a2,2,0,0,0-.5-1.48,1.81,1.81,0,0,0-2.54,0,2,2,0,0,0-.51,1.48v5.5h-1.79Z"/><path class="cls-2" d="M147.33,114.51h0a1.49,1.49,0,0,1-.77.69,3.47,3.47,0,0,1-1.43.23,3.18,3.18,0,0,1-2.3-.81,2.61,2.61,0,0,1-.86-2,2.67,2.67,0,0,1,.74-1.93,2.91,2.91,0,0,1,2.17-.8h2.49v-1c0-.81-.6-1.21-1.83-1.18a3.05,3.05,0,0,0-1.06.14,1.27,1.27,0,0,0-.64.57l-1.41-1.11a3.42,3.42,0,0,1,3-1.34,4.61,4.61,0,0,1,2.69.65,2.72,2.72,0,0,1,1,2.38v6.31h-1.79Zm0-3.1h-2.16c-1,0-1.56.4-1.55,1.12a1,1,0,0,0,.41.8,1.85,1.85,0,0,0,1.28.36,3.19,3.19,0,0,0,1.6-.27c.28-.2.42-.64.42-1.34Z"/><path class="cls-2" d="M154.83,106.1h1.8v1h0A2.83,2.83,0,0,1,159,106a3,3,0,0,1,2,.8,3.2,3.2,0,0,1,1,2.4v6.14h-1.8v-5.5a2,2,0,0,0-.5-1.48,1.64,1.64,0,0,0-1.26-.52,1.7,1.7,0,0,0-1.28.52,2,2,0,0,0-.5,1.48v5.5h-1.8Z"/><path class="cls-2" d="M174.28,113.84A4.66,4.66,0,0,1,172.9,115a3.66,3.66,0,0,1-1.83.47,4,4,0,0,1-2.78-1.11,4.72,4.72,0,0,1-1.27-3.6,4.82,4.82,0,0,1,1.27-3.64,4.07,4.07,0,0,1,4.61-.65,4.64,4.64,0,0,1,1.38,1.16L173,108.81a2.23,2.23,0,0,0-1.81-1c-1.53,0-2.31.94-2.33,2.89s.8,2.89,2.33,2.86a2.16,2.16,0,0,0,1.81-1Z"/><path class="cls-2" d="M180.22,111.41a2.16,2.16,0,0,0,.63,1.69,2,2,0,0,0,1.51.59,2.66,2.66,0,0,0,2-.9l1.3,1.15a4.17,4.17,0,0,1-3.22,1.49,4.62,4.62,0,0,1-1.38-.21,3.51,3.51,0,0,1-.65-.31,2.66,2.66,0,0,1-.63-.42,3.55,3.55,0,0,1-.92-1.44,5.79,5.79,0,0,1-.39-2.31,6.52,6.52,0,0,1,.34-2.28,3.9,3.9,0,0,1,.86-1.45,3.16,3.16,0,0,1,1.19-.78,3.76,3.76,0,0,1,1.29-.24,3.58,3.58,0,0,1,2.59,1,3.82,3.82,0,0,1,1.1,2.86v1.52Zm3.78-1.52a2.41,2.41,0,0,0-.56-1.64,1.78,1.78,0,0,0-1.33-.52,1.76,1.76,0,0,0-1.32.52,2.57,2.57,0,0,0-.57,1.64Z"/><path class="cls-2" d="M197.24,106.1h1.9l2.12,6.46h0l2.11-6.46h1.91l-3.85,11.14a2.61,2.61,0,0,1-1,1.44,3,3,0,0,1-1.5.38h-.59v-1.74h.52a1.19,1.19,0,0,0,.66-.2,1.07,1.07,0,0,0,.42-.6l.49-1.55Z"/><path class="cls-2" d="M209.15,110.7a8.52,8.52,0,0,1,.23-2.24,3.29,3.29,0,0,1,.74-1.29,3.41,3.41,0,0,1,1-.82,3.67,3.67,0,0,1,1.68-.36,3.81,3.81,0,0,1,1.71.36,3.24,3.24,0,0,1,1,.83,3,3,0,0,1,.75,1.28,8.64,8.64,0,0,1,.22,2.24,8.41,8.41,0,0,1-.22,2.23,3.21,3.21,0,0,1-.75,1.32,2.78,2.78,0,0,1-.43.4,1.83,1.83,0,0,1-.57.38,3.44,3.44,0,0,1-1.72.4,3.3,3.3,0,0,1-1.67-.4,3.37,3.37,0,0,1-1-.78,3.56,3.56,0,0,1-.74-1.32A8.33,8.33,0,0,1,209.15,110.7Zm5.57,0a8.4,8.4,0,0,0-.08-1.44,1.77,1.77,0,0,0-.36-.77,1.29,1.29,0,0,0-.58-.49,2,2,0,0,0-1.71,0,1.53,1.53,0,0,0-.6.49,2.15,2.15,0,0,0-.34.77,6.84,6.84,0,0,0-.11,1.42,6.6,6.6,0,0,0,.11,1.41,2.36,2.36,0,0,0,.34.81,2.28,2.28,0,0,0,.6.47,2,2,0,0,0,1.71,0,1.77,1.77,0,0,0,.58-.47,1.92,1.92,0,0,0,.36-.81A7.88,7.88,0,0,0,214.72,110.72Z"/><path class="cls-2" d="M221.79,106.1h1.79v5.5a2,2,0,0,0,.51,1.46,1.7,1.7,0,0,0,1.28.52,1.64,1.64,0,0,0,1.26-.52,2,2,0,0,0,.5-1.46v-5.5h1.8v9.23h-1.8v-1h0a2.83,2.83,0,0,1-2.32,1.09,3,3,0,0,1-2-.83,2.91,2.91,0,0,1-1-2.36Z"/><path class="cls-2" d="M234.66,106.1h1.8v1h0a3,3,0,0,1,4.21-.39l-1.31,1.61a1.87,1.87,0,0,0-1.19-.47,1.66,1.66,0,0,0-1.18.47,1.84,1.84,0,0,0-.56,1.46v5.57h-1.8Z"/><path class="cls-2" d="M252.3,106.1h1.79v1A3.05,3.05,0,0,1,256.4,106a2.77,2.77,0,0,1,2.4,1.2,2.53,2.53,0,0,1,.5,1.15,21.58,21.58,0,0,1,0,4.73,2.62,2.62,0,0,1-.5,1.16,2.73,2.73,0,0,1-1,.86,3,3,0,0,1-1.42.34,2.39,2.39,0,0,1-1.23-.31,3.76,3.76,0,0,1-1.08-.77v4.71H252.3Zm3.56,7.48a1.8,1.8,0,0,0,1-.24,1.46,1.46,0,0,0,.53-.66,3.73,3.73,0,0,0,.23-.93c0-.33,0-.68,0-1s0-.73,0-1.08a3.35,3.35,0,0,0-.23-.92,1.28,1.28,0,0,0-.53-.66,1.9,1.9,0,0,0-1-.23,1.61,1.61,0,0,0-1,.26,1.45,1.45,0,0,0-.54.68,3.67,3.67,0,0,0-.22.91c0,.34,0,.69,0,1s0,.66,0,1a3.7,3.7,0,0,0,.22.94,1.49,1.49,0,0,0,.54.68A1.54,1.54,0,0,0,255.86,113.58Z"/><path class="cls-2" d="M264.84,106.1h1.79v1h0a3,3,0,0,1,4.2-.39l-1.31,1.61a1.85,1.85,0,0,0-1.18-.47,1.66,1.66,0,0,0-1.18.47,1.81,1.81,0,0,0-.57,1.46v5.57h-1.79Z"/><path class="cls-2" d="M274.24,110.7a8,8,0,0,1,.24-2.24,3.17,3.17,0,0,1,.74-1.29,3.24,3.24,0,0,1,1-.82,3.73,3.73,0,0,1,1.68-.36,3.78,3.78,0,0,1,1.71.36,3.12,3.12,0,0,1,1,.83,3,3,0,0,1,.76,1.28,9.2,9.2,0,0,1,.21,2.24,8.41,8.41,0,0,1-.22,2.23,3.1,3.1,0,0,1-.75,1.32,3.22,3.22,0,0,1-.42.4,1.88,1.88,0,0,1-.58.38,3.43,3.43,0,0,1-1.71.4,3.67,3.67,0,0,1-2.71-1.18,3.43,3.43,0,0,1-.74-1.32A7.87,7.87,0,0,1,274.24,110.7Zm5.58,0a8.16,8.16,0,0,0-.09-1.44,1.87,1.87,0,0,0-.35-.77,1.37,1.37,0,0,0-.59-.49,2,2,0,0,0-.86-.19,2,2,0,0,0-.85.19,1.53,1.53,0,0,0-.6.49,2.15,2.15,0,0,0-.34.77,7,7,0,0,0-.1,1.42,6.76,6.76,0,0,0,.1,1.41,2.36,2.36,0,0,0,.34.81,2.28,2.28,0,0,0,.6.47,2,2,0,0,0,1.71,0,1.94,1.94,0,0,0,.59-.47,2,2,0,0,0,.35-.81A7.66,7.66,0,0,0,279.82,110.72Z"/><path class="cls-2" d="M292.22,114.36a3,3,0,0,1-2.31,1.07,2.82,2.82,0,0,1-1.38-.34,3.11,3.11,0,0,1-1-.86,2.32,2.32,0,0,1-.49-1.18,18.64,18.64,0,0,1,0-4.72,2.29,2.29,0,0,1,.49-1.14,3,3,0,0,1,3.66-.91,4.77,4.77,0,0,1,1,.79v-4.7H294v13h-1.8Zm-1.76-6.53a1.71,1.71,0,0,0-1,.23,1.43,1.43,0,0,0-.55.66,3.67,3.67,0,0,0-.21.91,9.47,9.47,0,0,0-.05,1.07,8.56,8.56,0,0,0,.05,1,3.79,3.79,0,0,0,.21,1,1.66,1.66,0,0,0,.55.66,1.63,1.63,0,0,0,1,.24,1.7,1.7,0,0,0,1-.26,1.43,1.43,0,0,0,.51-.68,3.7,3.7,0,0,0,.23-.94c0-.34,0-.67,0-1s0-.69,0-1a3.68,3.68,0,0,0-.23-.91,1.39,1.39,0,0,0-.51-.68A1.78,1.78,0,0,0,290.46,107.83Z"/><path class="cls-2" d="M299.43,106.1h1.79v5.5a2,2,0,0,0,.51,1.46,1.81,1.81,0,0,0,2.54,0,2.05,2.05,0,0,0,.5-1.46v-5.5h1.79v9.23h-1.79v-1h0a2.82,2.82,0,0,1-2.31,1.09,3,3,0,0,1-2-.83,2.93,2.93,0,0,1-1-2.36Z"/><path class="cls-2" d="M318.87,113.84a4.66,4.66,0,0,1-1.38,1.12,3.63,3.63,0,0,1-1.83.47,4,4,0,0,1-2.78-1.11,4.72,4.72,0,0,1-1.27-3.6,4.82,4.82,0,0,1,1.27-3.64,4.08,4.08,0,0,1,4.62-.65,4.73,4.73,0,0,1,1.37,1.16l-1.32,1.22a2.25,2.25,0,0,0-1.82-1c-1.53,0-2.3.94-2.32,2.89s.79,2.89,2.32,2.86a2.18,2.18,0,0,0,1.82-1Z"/><path class="cls-2" d="M323.58,103.29h1.79v2.81h1.31v1.42h-1.31v5.38c0,.47.2.7.64.68h.67v1.75h-.94a2.13,2.13,0,0,1-1.55-.61,2.17,2.17,0,0,1-.61-1.67v-5.53h-.9V106.1h.9Z"/><path class="cls-2" d="M331.88,112.51a3.68,3.68,0,0,0,2.83,1.18,2.32,2.32,0,0,0,1.27-.31,1,1,0,0,0,.49-.87.76.76,0,0,0-.29-.69,1.55,1.55,0,0,0-.8-.23l-1.59-.14a3,3,0,0,1-1.84-.78,2.41,2.41,0,0,1-.74-1.84,2.51,2.51,0,0,1,1-2.13,3.72,3.72,0,0,1,2.36-.71,6.29,6.29,0,0,1,1.11.08,5.4,5.4,0,0,1,.92.24,5.32,5.32,0,0,1,1.48.94L337,108.59a5.53,5.53,0,0,0-1.1-.64,3.53,3.53,0,0,0-1.31-.22,1.72,1.72,0,0,0-1.18.31,1,1,0,0,0-.36.8.63.63,0,0,0,.27.54,1.59,1.59,0,0,0,.92.33l1.48.12a2.75,2.75,0,0,1,2,.87,3,3,0,0,1,.58,1.89,2.47,2.47,0,0,1-1.06,2.08,4.47,4.47,0,0,1-2.65.76,5.58,5.58,0,0,1-3.93-1.65Z"/><path class="cls-2" d="M356.13,108.86h0l-1.87,6.47h-1.58l-2.86-9.23h1.9l1.72,6.47h0l2-6.47h1.3l2,6.47h0l1.7-6.47h1.91l-2.85,9.23H358Z"/><path class="cls-2" d="M367.2,102.37H369v1.85h-1.8Zm0,3.73H369v9.23h-1.8Z"/><path class="cls-2" d="M374.71,103.29h1.8v2.81h1.31v1.42h-1.31v5.38c0,.47.2.7.63.68h.68v1.75h-.94a2.11,2.11,0,0,1-1.55-.61,2.17,2.17,0,0,1-.62-1.67v-5.53h-.9V106.1h.9Z"/><path class="cls-2" d="M382.76,102.37h1.79v4.71h0a2.83,2.83,0,0,1,2.32-1.09,3,3,0,0,1,2,.8,3.19,3.19,0,0,1,.95,2.4v6.14H388.1v-5.5a2,2,0,0,0-.5-1.48,1.81,1.81,0,0,0-2.54,0,2,2,0,0,0-.51,1.48v5.5h-1.79Z"/><path class="cls-2" d="M403.09,106.1h1.79v1a3.05,3.05,0,0,1,2.31-1.07,2.77,2.77,0,0,1,2.4,1.2,2.53,2.53,0,0,1,.5,1.15,21.58,21.58,0,0,1,0,4.73,2.62,2.62,0,0,1-.5,1.16,2.73,2.73,0,0,1-1,.86,3,3,0,0,1-1.42.34,2.39,2.39,0,0,1-1.23-.31,3.76,3.76,0,0,1-1.08-.77v4.71h-1.79Zm3.56,7.48a1.8,1.8,0,0,0,1-.24,1.46,1.46,0,0,0,.53-.66,3.73,3.73,0,0,0,.23-.93c0-.33,0-.68,0-1s0-.73,0-1.08a3.35,3.35,0,0,0-.23-.92,1.28,1.28,0,0,0-.53-.66,1.9,1.9,0,0,0-1-.23,1.61,1.61,0,0,0-1,.26,1.45,1.45,0,0,0-.54.68,3.67,3.67,0,0,0-.22.91c0,.34-.05.69-.05,1s0,.66.05,1a3.7,3.7,0,0,0,.22.94,1.49,1.49,0,0,0,.54.68A1.54,1.54,0,0,0,406.65,113.58Z"/><path class="cls-2" d="M415.63,106.1h1.79v1h0a3,3,0,0,1,4.2-.39l-1.31,1.61a1.85,1.85,0,0,0-1.18-.47,1.66,1.66,0,0,0-1.18.47,1.81,1.81,0,0,0-.57,1.46v5.57h-1.79Z"/><path class="cls-2" d="M426.83,111.41a2.15,2.15,0,0,0,.62,1.69,2,2,0,0,0,1.51.59,2.66,2.66,0,0,0,2-.9l1.3,1.15a4.15,4.15,0,0,1-3.22,1.49,4.62,4.62,0,0,1-1.38-.21,3.51,3.51,0,0,1-.65-.31,3.14,3.14,0,0,1-.63-.42,3.65,3.65,0,0,1-.92-1.44,5.79,5.79,0,0,1-.39-2.31,6.76,6.76,0,0,1,.34-2.28,3.9,3.9,0,0,1,.86-1.45,3.19,3.19,0,0,1,1.2-.78,3.68,3.68,0,0,1,1.29-.24,3.62,3.62,0,0,1,2.59,1,3.85,3.85,0,0,1,1.09,2.86v1.52Zm3.78-1.52a2.42,2.42,0,0,0-.57-1.64,1.76,1.76,0,0,0-1.32-.52,1.78,1.78,0,0,0-1.33.52,2.52,2.52,0,0,0-.56,1.64Z"/><path class="cls-2" d="M444.25,113.84a4.66,4.66,0,0,1-1.38,1.12,3.66,3.66,0,0,1-1.83.47,4,4,0,0,1-2.78-1.11,4.72,4.72,0,0,1-1.27-3.6,4.82,4.82,0,0,1,1.27-3.64,4.07,4.07,0,0,1,4.61-.65,4.64,4.64,0,0,1,1.38,1.16l-1.33,1.22a2.23,2.23,0,0,0-1.81-1c-1.53,0-2.3.94-2.33,2.89s.8,2.89,2.33,2.86a2.16,2.16,0,0,0,1.81-1Z"/><path class="cls-2" d="M448.9,102.37h1.79v1.85H448.9Zm0,3.73h1.79v9.23H448.9Z"/><path class="cls-2" d="M456.57,112.51a3.67,3.67,0,0,0,2.83,1.18,2.34,2.34,0,0,0,1.27-.31,1,1,0,0,0,.49-.87.76.76,0,0,0-.3-.69,1.52,1.52,0,0,0-.8-.23l-1.59-.14a3,3,0,0,1-1.83-.78,2.38,2.38,0,0,1-.74-1.84,2.5,2.5,0,0,1,1-2.13,3.74,3.74,0,0,1,2.36-.71,6.29,6.29,0,0,1,1.11.08,5,5,0,0,1,.92.24,5.37,5.37,0,0,1,1.49.94l-1.12,1.34a5.46,5.46,0,0,0-1.09-.64,3.58,3.58,0,0,0-1.32-.22A1.74,1.74,0,0,0,458,108a1,1,0,0,0-.35.8.63.63,0,0,0,.27.54,1.52,1.52,0,0,0,.91.33l1.48.12a2.71,2.71,0,0,1,2,.87,3,3,0,0,1,.58,1.89,2.42,2.42,0,0,1-1.06,2.08,4.46,4.46,0,0,1-2.64.76,5.61,5.61,0,0,1-3.94-1.65Z"/><path class="cls-2" d="M469.48,111.41a2.16,2.16,0,0,0,.63,1.69,2,2,0,0,0,1.51.59,2.66,2.66,0,0,0,2-.9l1.3,1.15a4.17,4.17,0,0,1-3.22,1.49,4.62,4.62,0,0,1-1.38-.21,3.51,3.51,0,0,1-.65-.31,2.66,2.66,0,0,1-.63-.42,3.55,3.55,0,0,1-.92-1.44,5.79,5.79,0,0,1-.39-2.31,6.52,6.52,0,0,1,.34-2.28,3.9,3.9,0,0,1,.86-1.45,3.16,3.16,0,0,1,1.19-.78,3.76,3.76,0,0,1,1.29-.24,3.58,3.58,0,0,1,2.59,1,3.82,3.82,0,0,1,1.1,2.86v1.52Zm3.78-1.52a2.41,2.41,0,0,0-.56-1.64,1.95,1.95,0,0,0-2.65,0,2.57,2.57,0,0,0-.57,1.64Z"/><path class="cls-2" d="M492.48,114.51h0a1.56,1.56,0,0,1-.78.69,3.47,3.47,0,0,1-1.43.23,3.2,3.2,0,0,1-2.3-.81,2.6,2.6,0,0,1-.85-2,2.63,2.63,0,0,1,.74-1.93,2.88,2.88,0,0,1,2.17-.8h2.48v-1c0-.81-.6-1.21-1.83-1.18a3.05,3.05,0,0,0-1.06.14,1.31,1.31,0,0,0-.64.57l-1.41-1.11a3.42,3.42,0,0,1,3-1.34,4.61,4.61,0,0,1,2.69.65,2.75,2.75,0,0,1,1,2.38v6.31h-1.8Zm0-3.1h-2.15c-1.05,0-1.57.4-1.56,1.12a1,1,0,0,0,.41.8,1.86,1.86,0,0,0,1.28.36,3.16,3.16,0,0,0,1.6-.27c.28-.2.42-.64.42-1.34Z"/><path class="cls-2" d="M500,106.1h1.8v1h0a2.84,2.84,0,0,1,2.32-1.09,3,3,0,0,1,2,.8,3.23,3.23,0,0,1,.95,2.4v6.14h-1.79v-5.5a2,2,0,0,0-.5-1.48,1.81,1.81,0,0,0-2.54,0,2,2,0,0,0-.51,1.48v5.5H500Z"/><path class="cls-2" d="M518.2,114.36a3,3,0,0,1-2.32,1.07,2.82,2.82,0,0,1-1.38-.34,3.11,3.11,0,0,1-1-.86,2.32,2.32,0,0,1-.49-1.18,18.64,18.64,0,0,1,0-4.72,2.29,2.29,0,0,1,.49-1.14,2.73,2.73,0,0,1,2.39-1.2,2.77,2.77,0,0,1,1.28.29,5.3,5.3,0,0,1,1,.79v-4.7H520v13H518.2Zm-1.77-6.53a1.74,1.74,0,0,0-1,.23,1.35,1.35,0,0,0-.54.66,3.28,3.28,0,0,0-.22.91c0,.35-.05.71-.05,1.07s0,.7.05,1a3.39,3.39,0,0,0,.22,1,1.55,1.55,0,0,0,.54.66,1.65,1.65,0,0,0,1,.24,1.68,1.68,0,0,0,1-.26,1.37,1.37,0,0,0,.51-.68,3.7,3.7,0,0,0,.23-.94c0-.34,0-.67,0-1s0-.69,0-1a3.68,3.68,0,0,0-.23-.91,1.33,1.33,0,0,0-.51-.68A1.75,1.75,0,0,0,516.43,107.83Z"/><path class="cls-2" d="M538.2,114.36a3,3,0,0,1-2.32,1.07,2.82,2.82,0,0,1-1.38-.34,3.11,3.11,0,0,1-1-.86,2.32,2.32,0,0,1-.49-1.18,18.64,18.64,0,0,1,0-4.72,2.29,2.29,0,0,1,.49-1.14,2.73,2.73,0,0,1,2.39-1.2,2.77,2.77,0,0,1,1.28.29,5.3,5.3,0,0,1,1,.79v-4.7H540v13H538.2Zm-1.77-6.53a1.74,1.74,0,0,0-1,.23,1.35,1.35,0,0,0-.54.66,3.28,3.28,0,0,0-.22.91c0,.35-.05.71-.05,1.07s0,.7.05,1a3.39,3.39,0,0,0,.22,1,1.55,1.55,0,0,0,.54.66,1.65,1.65,0,0,0,1,.24,1.68,1.68,0,0,0,1-.26,1.37,1.37,0,0,0,.51-.68,3.7,3.7,0,0,0,.23-.94c0-.34,0-.67,0-1s0-.69,0-1a3.68,3.68,0,0,0-.23-.91,1.33,1.33,0,0,0-.51-.68A1.75,1.75,0,0,0,536.43,107.83Z"/><path class="cls-2" d="M545.4,106.1h1.79v5.5a2,2,0,0,0,.51,1.46,1.81,1.81,0,0,0,2.54,0,2.05,2.05,0,0,0,.5-1.46v-5.5h1.79v9.23h-1.79v-1h0a2.82,2.82,0,0,1-2.31,1.09,3,3,0,0,1-2-.83,2.91,2.91,0,0,1-1-2.36Z"/><path class="cls-2" d="M558.27,106.1h1.79v1h0a3,3,0,0,1,4.2-.39L563,108.3a1.85,1.85,0,0,0-1.18-.47,1.66,1.66,0,0,0-1.18.47,1.81,1.81,0,0,0-.57,1.46v5.57h-1.79Z"/><path class="cls-2" d="M572.81,114.51h0a1.49,1.49,0,0,1-.77.69,3.47,3.47,0,0,1-1.43.23,3.18,3.18,0,0,1-2.3-.81,2.61,2.61,0,0,1-.86-2,2.67,2.67,0,0,1,.74-1.93,2.91,2.91,0,0,1,2.17-.8h2.49v-1c0-.81-.6-1.21-1.83-1.18a3,3,0,0,0-1.06.14,1.27,1.27,0,0,0-.64.57l-1.41-1.11a3.42,3.42,0,0,1,3-1.34,4.61,4.61,0,0,1,2.69.65,2.72,2.72,0,0,1,1,2.38v6.31h-1.79Zm0-3.1h-2.16c-1,0-1.56.4-1.55,1.12a1,1,0,0,0,.41.8,1.85,1.85,0,0,0,1.28.36,3.19,3.19,0,0,0,1.6-.27c.28-.2.42-.64.42-1.34Z"/><path class="cls-2" d="M580.31,102.37h1.8v4.71a4.34,4.34,0,0,1,1.07-.8,2.48,2.48,0,0,1,1.23-.29,2.75,2.75,0,0,1,2.4,1.2,2.44,2.44,0,0,1,.51,1.15,21.4,21.4,0,0,1,0,4.71,2.42,2.42,0,0,1-.51,1.18,2.78,2.78,0,0,1-1,.86,3,3,0,0,1-1.43.34,3,3,0,0,1-2.3-1.07v1h-1.8Zm3.56,5.46a1.63,1.63,0,0,0-1,.26,1.58,1.58,0,0,0-.54.68,3.27,3.27,0,0,0-.21.91,10.23,10.23,0,0,0,0,2,3.33,3.33,0,0,0,.21.94,1.64,1.64,0,0,0,.54.68,1.56,1.56,0,0,0,1,.26,1.86,1.86,0,0,0,1-.24,1.44,1.44,0,0,0,.52-.66,3.39,3.39,0,0,0,.24-1c0-.33,0-.67,0-1s0-.72,0-1.07a3.29,3.29,0,0,0-.24-.91,1.26,1.26,0,0,0-.52-.66A2,2,0,0,0,583.87,107.83Z"/><path class="cls-2" d="M592.85,102.37h1.8V113c0,.42.22.63.67.63h.62v1.75h-.8a2.53,2.53,0,0,1-1.62-.51,2.06,2.06,0,0,1-.67-1.72Z"/><path class="cls-2" d="M602,111.41a2.19,2.19,0,0,0,.62,1.69,2,2,0,0,0,1.52.59,2.62,2.62,0,0,0,2-.9l1.3,1.15a4.14,4.14,0,0,1-3.22,1.49,4.51,4.51,0,0,1-1.37-.21,3.31,3.31,0,0,1-.66-.31,3.14,3.14,0,0,1-.63-.42,3.77,3.77,0,0,1-.92-1.44,6,6,0,0,1-.38-2.31,6.78,6.78,0,0,1,.33-2.28,3.9,3.9,0,0,1,.86-1.45,3.27,3.27,0,0,1,1.2-.78,3.68,3.68,0,0,1,1.29-.24,3.62,3.62,0,0,1,2.59,1,3.81,3.81,0,0,1,1.09,2.86v1.52Zm3.78-1.52a2.41,2.41,0,0,0-.56-1.64,2,2,0,0,0-2.66,0,2.52,2.52,0,0,0-.56,1.64Z"/><path class="cls-2" d="M620.55,112.51a3.71,3.71,0,0,0,2.84,1.18,2.28,2.28,0,0,0,1.26-.31,1,1,0,0,0,.5-.87.76.76,0,0,0-.3-.69,1.55,1.55,0,0,0-.8-.23l-1.59-.14a3,3,0,0,1-1.83-.78,2.42,2.42,0,0,1-.75-1.84,2.54,2.54,0,0,1,1-2.13,3.74,3.74,0,0,1,2.36-.71,6.29,6.29,0,0,1,1.11.08,4.37,4.37,0,0,1,2.4,1.18l-1.11,1.34a5.46,5.46,0,0,0-1.09-.64,3.58,3.58,0,0,0-1.32-.22A1.74,1.74,0,0,0,622,108a1,1,0,0,0-.35.8.63.63,0,0,0,.27.54,1.52,1.52,0,0,0,.91.33l1.48.12a2.71,2.71,0,0,1,2,.87,3,3,0,0,1,.58,1.89,2.42,2.42,0,0,1-1.06,2.08,4.46,4.46,0,0,1-2.64.76,5.61,5.61,0,0,1-3.94-1.65Z"/><path class="cls-2" d="M632.23,103.29H634v2.81h1.3v1.42H634v5.38c0,.47.2.7.63.68h.67v1.75h-.93a2.11,2.11,0,0,1-1.55-.61,2.17,2.17,0,0,1-.62-1.67v-5.53h-.9V106.1h.9Z"/><path class="cls-2" d="M640.33,102.37h1.79v1.85h-1.79Zm0,3.73h1.79v9.23h-1.79Z"/><path class="cls-2" d="M647.84,103.29h1.79v2.81h1.31v1.42h-1.31v5.38c0,.47.21.7.64.68h.67v1.75H650a2.11,2.11,0,0,1-1.55-.61,2.17,2.17,0,0,1-.62-1.67v-5.53h-.9V106.1h.9Z"/><path class="cls-2" d="M662.46,113.84a4.66,4.66,0,0,1-1.38,1.12,3.63,3.63,0,0,1-1.83.47,4,4,0,0,1-2.78-1.11,4.72,4.72,0,0,1-1.27-3.6,4.82,4.82,0,0,1,1.27-3.64,4.08,4.08,0,0,1,4.62-.65,4.73,4.73,0,0,1,1.37,1.16l-1.32,1.22a2.25,2.25,0,0,0-1.82-1c-1.53,0-2.3.94-2.32,2.89s.79,2.89,2.32,2.86a2.18,2.18,0,0,0,1.82-1Z"/><path class="cls-2" d="M667.06,102.37h1.79v4.71h0a2.83,2.83,0,0,1,2.32-1.09,3,3,0,0,1,2,.8,3.15,3.15,0,0,1,1,2.4v6.14H672.4v-5.5a2,2,0,0,0-.5-1.48,1.81,1.81,0,0,0-2.54,0,2,2,0,0,0-.51,1.48v5.5h-1.79Z"/><path class="cls-2" d="M680,102.37h1.8v1.85H680Zm0,3.73h1.8v9.23H680Z"/><path class="cls-2" d="M687.39,106.1h1.79v1h0a2.83,2.83,0,0,1,2.32-1.09,3,3,0,0,1,2,.8,3.19,3.19,0,0,1,.95,2.4v6.14h-1.79v-5.5a2,2,0,0,0-.5-1.48,1.81,1.81,0,0,0-2.54,0,2,2,0,0,0-.51,1.48v5.5h-1.79Z"/><path class="cls-2" d="M705.28,114.36a3,3,0,0,1-2.31,1.07,2.77,2.77,0,0,1-1.44-.38,3.12,3.12,0,0,1-.92-.75,2.84,2.84,0,0,1-.51-1.11,12.09,12.09,0,0,1-.16-2.47,12.55,12.55,0,0,1,.16-2.52,2.75,2.75,0,0,1,.51-1.09,2.89,2.89,0,0,1,.92-.78,3.07,3.07,0,0,1,3.75.75v-1h1.79v9a3.73,3.73,0,0,1-3.87,4.07,4.07,4.07,0,0,1-3.1-1.55l1.4-1.14a3,3,0,0,0,.79.56,2.06,2.06,0,0,0,2.42-.25,2,2,0,0,0,.57-1.48Zm-3.55-3.64a9.7,9.7,0,0,0,.07,1.47,1.39,1.39,0,0,0,.29.69,1.62,1.62,0,0,0,.55.46,1.72,1.72,0,0,0,1.75,0,1.68,1.68,0,0,0,.54-.46,1.5,1.5,0,0,0,.3-.69c0-.27,0-.76,0-1.47s0-1.22,0-1.5a1.34,1.34,0,0,0-.3-.67,2,2,0,0,0-.54-.49,1.87,1.87,0,0,0-.88-.23,1.89,1.89,0,0,0-.87.23,1.93,1.93,0,0,0-.55.49,1.25,1.25,0,0,0-.29.67A10.17,10.17,0,0,0,701.73,110.72Z"/><path class="cls-2" d="M712.85,113.48h1.8v1.85h-1.8Z"/><path class="cls-2" d="M103.84,124.21h8v1.85h-6.12v3.83H111v1.74h-5.22v5.54h-1.9Z"/><path class="cls-2" d="M116.22,127.94H118v1h0a2.94,2.94,0,0,1,4.2-.38l-1.31,1.6a1.84,1.84,0,0,0-1.18-.46,1.65,1.65,0,0,0-1.18.46,1.82,1.82,0,0,0-.57,1.47v5.56h-1.79Z"/><path class="cls-2" d="M125.62,132.55a8.12,8.12,0,0,1,.24-2.25,3.17,3.17,0,0,1,.74-1.29,3.39,3.39,0,0,1,1-.82,3.73,3.73,0,0,1,1.68-.36,3.78,3.78,0,0,1,1.71.36,3.38,3.38,0,0,1,1,.83,3,3,0,0,1,.76,1.29,9.14,9.14,0,0,1,.21,2.24,8.37,8.37,0,0,1-.22,2.22,3.1,3.1,0,0,1-.75,1.32,3.22,3.22,0,0,1-.42.4,1.88,1.88,0,0,1-.58.38,3.43,3.43,0,0,1-1.71.4,3.67,3.67,0,0,1-2.71-1.18,3.43,3.43,0,0,1-.74-1.32A7.84,7.84,0,0,1,125.62,132.55Zm5.58,0a8.16,8.16,0,0,0-.09-1.44,1.87,1.87,0,0,0-.35-.77,1.37,1.37,0,0,0-.59-.49,2.12,2.12,0,0,0-1.71,0,1.53,1.53,0,0,0-.6.49,2.15,2.15,0,0,0-.34.77,7.05,7.05,0,0,0-.1,1.43,6.89,6.89,0,0,0,.1,1.41,2.3,2.3,0,0,0,.34.8,2.09,2.09,0,0,0,.6.47,1.93,1.93,0,0,0,1.71,0,1.8,1.8,0,0,0,.59-.47,2,2,0,0,0,.35-.8A7.87,7.87,0,0,0,131.2,132.56Z"/><path class="cls-2" d="M138.19,127.94H140v1h0a3,3,0,0,1,2.41-1.09,3.4,3.4,0,0,1,1.55.33A4.6,4.6,0,0,1,145,129a3.62,3.62,0,0,1,2.9-1.21,3.15,3.15,0,0,1,2.1.81,3.11,3.11,0,0,1,1,2.4v6.13h-1.8v-5.5a2,2,0,0,0-.51-1.48,2,2,0,0,0-2.67,0,1.93,1.93,0,0,0-.53,1.48v5.5h-1.8v-5.5a2,2,0,0,0-.51-1.48,1.85,1.85,0,0,0-1.34-.51,1.81,1.81,0,0,0-1.33.51,1.93,1.93,0,0,0-.54,1.48v5.5h-1.8Z"/><path class="cls-2" d="M164.33,124.21h1.79V134.8c0,.42.22.63.67.63h.62v1.74h-.8a2.48,2.48,0,0,1-1.61-.51,2,2,0,0,1-.67-1.72Z"/><path class="cls-2" d="M171.67,132.55a8.6,8.6,0,0,1,.23-2.25,3.29,3.29,0,0,1,.74-1.29,3.51,3.51,0,0,1,1-.82,3.73,3.73,0,0,1,1.68-.36,3.82,3.82,0,0,1,1.72.36,3.21,3.21,0,0,1,1,.83,2.9,2.9,0,0,1,.76,1.29,9.14,9.14,0,0,1,.21,2.24,8.91,8.91,0,0,1-.21,2.22,3.12,3.12,0,0,1-.76,1.32,2.31,2.31,0,0,1-.42.4,1.77,1.77,0,0,1-.58.38,3.79,3.79,0,0,1-3.39,0,3.44,3.44,0,0,1-1-.78,3.56,3.56,0,0,1-.74-1.32A7.9,7.9,0,0,1,171.67,132.55Zm5.57,0a8.16,8.16,0,0,0-.09-1.44,1.65,1.65,0,0,0-.35-.77,1.31,1.31,0,0,0-.59-.49,1.91,1.91,0,0,0-.86-.18,2,2,0,0,0-.84.18,1.64,1.64,0,0,0-.61.49,2.14,2.14,0,0,0-.33.77,6.89,6.89,0,0,0-.11,1.43,6.73,6.73,0,0,0,.11,1.41,1.58,1.58,0,0,0,.94,1.27,1.83,1.83,0,0,0,.84.2,1.79,1.79,0,0,0,.86-.2,1.7,1.7,0,0,0,.59-.47,1.75,1.75,0,0,0,.35-.8A7.87,7.87,0,0,0,177.24,132.56Z"/><path class="cls-2" d="M189.33,136.21a3,3,0,0,1-2.31,1.06,2.65,2.65,0,0,1-1.44-.38,3.27,3.27,0,0,1-.92-.74,2.82,2.82,0,0,1-.51-1.12,12,12,0,0,1-.16-2.47,12.55,12.55,0,0,1,.16-2.52,2.68,2.68,0,0,1,.51-1.09,2.89,2.89,0,0,1,.92-.78,3,3,0,0,1,1.44-.34,3,3,0,0,1,2.31,1.09v-1h1.79v9a3.73,3.73,0,0,1-3.87,4.06,4.05,4.05,0,0,1-3.1-1.55l1.39-1.14a3.28,3.28,0,0,0,.8.56,1.9,1.9,0,0,0,.94.28,2.06,2.06,0,0,0,1.48-.53,2,2,0,0,0,.57-1.48Zm-3.55-3.65a9.7,9.7,0,0,0,.07,1.47,1.35,1.35,0,0,0,.28.69,1.66,1.66,0,0,0,.56.46,1.49,1.49,0,0,0,.87.25,1.52,1.52,0,0,0,.88-.25,1.68,1.68,0,0,0,.54-.46,1.46,1.46,0,0,0,.3-.69c0-.27.05-.76.05-1.47s0-1.21-.05-1.49a1.38,1.38,0,0,0-.3-.68,2,2,0,0,0-.54-.49,1.79,1.79,0,0,0-.88-.22,1.75,1.75,0,0,0-.87.22,2,2,0,0,0-.56.49,1.28,1.28,0,0,0-.28.68A10.1,10.1,0,0,0,185.78,132.56Z"/><path class="cls-2" d="M196.4,132.55a8.12,8.12,0,0,1,.24-2.25,3.17,3.17,0,0,1,.74-1.29,3.39,3.39,0,0,1,1-.82,4.17,4.17,0,0,1,3.39,0,3.26,3.26,0,0,1,1,.83,2.9,2.9,0,0,1,.76,1.29,9.14,9.14,0,0,1,.21,2.24,8.91,8.91,0,0,1-.21,2.22,3.68,3.68,0,0,1-1.18,1.72,1.77,1.77,0,0,1-.58.38,3.43,3.43,0,0,1-1.71.4,3.36,3.36,0,0,1-1.68-.4,3.32,3.32,0,0,1-1-.78,3.43,3.43,0,0,1-.74-1.32A7.84,7.84,0,0,1,196.4,132.55Zm5.58,0a8.16,8.16,0,0,0-.09-1.44,1.75,1.75,0,0,0-.35-.77,1.31,1.31,0,0,0-.59-.49,1.94,1.94,0,0,0-.86-.18,2,2,0,0,0-.85.18,1.53,1.53,0,0,0-.6.49,2.15,2.15,0,0,0-.34.77,7.05,7.05,0,0,0-.1,1.43,6.89,6.89,0,0,0,.1,1.41,2.3,2.3,0,0,0,.34.8,2.09,2.09,0,0,0,.6.47,1.87,1.87,0,0,0,.85.2,1.82,1.82,0,0,0,.86-.2,1.7,1.7,0,0,0,.59-.47,1.87,1.87,0,0,0,.35-.8A7.87,7.87,0,0,0,202,132.56Z"/><path class="cls-2" d="M209.3,134.35a3.71,3.71,0,0,0,2.84,1.18,2.34,2.34,0,0,0,1.27-.31,1,1,0,0,0,.49-.87.76.76,0,0,0-.3-.69,1.43,1.43,0,0,0-.8-.22l-1.59-.15a3,3,0,0,1-1.83-.78,2.38,2.38,0,0,1-.74-1.84,2.5,2.5,0,0,1,1-2.13,3.74,3.74,0,0,1,2.36-.71,6.29,6.29,0,0,1,1.11.08,5,5,0,0,1,.92.25,5.15,5.15,0,0,1,1.48.93l-1.11,1.34a5.46,5.46,0,0,0-1.09-.64,3.58,3.58,0,0,0-1.32-.22,1.74,1.74,0,0,0-1.18.31,1,1,0,0,0-.35.8.63.63,0,0,0,.27.54,1.4,1.4,0,0,0,.91.33l1.48.12a2.71,2.71,0,0,1,2,.87,3,3,0,0,1,.58,1.9,2.41,2.41,0,0,1-1.06,2.07,4.46,4.46,0,0,1-2.64.76,5.61,5.61,0,0,1-3.94-1.65Z"/><path class="cls-2" d="M228.44,125.13h1.79v2.81h1.31v1.42h-1.31v5.38c0,.47.2.7.64.69h.67v1.74h-.93a2.07,2.07,0,0,1-1.55-.61,2.16,2.16,0,0,1-.62-1.66v-5.54h-.9v-1.42h.9Z"/><path class="cls-2" d="M236,132.55a8.6,8.6,0,0,1,.23-2.25A3.29,3.29,0,0,1,237,129a3.44,3.44,0,0,1,1-.82,3.66,3.66,0,0,1,1.67-.36,3.82,3.82,0,0,1,1.72.36,3.38,3.38,0,0,1,1,.83,3,3,0,0,1,.75,1.29,8.59,8.59,0,0,1,.22,2.24,8.82,8.82,0,0,1-.22,2.22,3.12,3.12,0,0,1-.76,1.32,2.31,2.31,0,0,1-.42.4,1.83,1.83,0,0,1-.57.38,3.44,3.44,0,0,1-1.72.4,3.3,3.3,0,0,1-1.67-.4,3.37,3.37,0,0,1-1-.78,3.56,3.56,0,0,1-.74-1.32A8.3,8.3,0,0,1,236,132.55Zm5.57,0a9.59,9.59,0,0,0-.08-1.44,1.77,1.77,0,0,0-.36-.77,1.29,1.29,0,0,0-.58-.49,2.12,2.12,0,0,0-1.71,0,1.64,1.64,0,0,0-.61.49,2.33,2.33,0,0,0-.33.77,6.89,6.89,0,0,0-.11,1.43,6.73,6.73,0,0,0,.11,1.41,2.5,2.5,0,0,0,.33.8,2.29,2.29,0,0,0,.61.47,1.93,1.93,0,0,0,1.71,0,1.66,1.66,0,0,0,.58-.47,1.88,1.88,0,0,0,.36-.8A9.26,9.26,0,0,0,241.61,132.56Z"/><path class="cls-2" d="M261.48,136.21a3,3,0,0,1-2.31,1.06,2.86,2.86,0,0,1-1.39-.34,3.11,3.11,0,0,1-1-.86,2.41,2.41,0,0,1-.49-1.18,19.88,19.88,0,0,1,0-4.71,2.38,2.38,0,0,1,.49-1.15,3,3,0,0,1,3.67-.91,5.08,5.08,0,0,1,1,.8v-4.71h1.79v13h-1.79Zm-1.77-6.53a1.76,1.76,0,0,0-1,.22,1.35,1.35,0,0,0-.54.66,3.67,3.67,0,0,0-.22.91c0,.35-.05.71-.05,1.08s0,.69.05,1a3.78,3.78,0,0,0,.22,1,1.44,1.44,0,0,0,.54.66,2,2,0,0,0,2,0,1.28,1.28,0,0,0,.51-.68,3.73,3.73,0,0,0,.23-.93c0-.34,0-.68,0-1s0-.7,0-1a3.68,3.68,0,0,0-.23-.91,1.32,1.32,0,0,0-.51-.68A1.76,1.76,0,0,0,259.71,129.68Z"/><path class="cls-2" d="M270,133.26a2.22,2.22,0,0,0,.62,1.69,2,2,0,0,0,1.52.58,2.67,2.67,0,0,0,1.95-.89l1.3,1.14a4.11,4.11,0,0,1-3.22,1.49,4.51,4.51,0,0,1-1.37-.21,3.31,3.31,0,0,1-.66-.31,3.14,3.14,0,0,1-.63-.42,3.77,3.77,0,0,1-.92-1.44,5.8,5.8,0,0,1-.38-2.31,6.68,6.68,0,0,1,.33-2.27,4,4,0,0,1,.86-1.46,3.27,3.27,0,0,1,1.2-.78,3.7,3.7,0,0,1,3.88.8,3.83,3.83,0,0,1,1.09,2.86v1.53Zm3.78-1.53a2.42,2.42,0,0,0-.56-1.63,1.93,1.93,0,0,0-2.66,0,2.47,2.47,0,0,0-.56,1.63Z"/><path class="cls-2" d="M281,125.13h1.8v2.81h1.3v1.42h-1.3v5.38c0,.47.2.7.63.69h.67v1.74h-.93a2.07,2.07,0,0,1-1.55-.61,2.16,2.16,0,0,1-.62-1.66v-5.54h-.9v-1.42h.9Z"/><path class="cls-2" d="M293.72,136.35h0a1.41,1.41,0,0,1-.77.69,3.47,3.47,0,0,1-1.43.23,3.18,3.18,0,0,1-2.3-.81,2.59,2.59,0,0,1-.86-2,2.67,2.67,0,0,1,.74-1.93,2.91,2.91,0,0,1,2.17-.8h2.49v-1c0-.82-.6-1.22-1.83-1.19a3.31,3.31,0,0,0-1.06.14,1.36,1.36,0,0,0-.64.57l-1.41-1.11a3.42,3.42,0,0,1,3-1.34,4.69,4.69,0,0,1,2.69.66,2.71,2.71,0,0,1,1,2.38v6.3h-1.79Zm0-3.09h-2.16c-1,0-1.56.39-1.55,1.11a1,1,0,0,0,.41.8,1.85,1.85,0,0,0,1.28.36,3.08,3.08,0,0,0,1.6-.27c.28-.2.42-.64.42-1.34Z"/><path class="cls-2" d="M301.28,124.21h1.79v1.85h-1.79Zm0,3.73h1.79v9.23h-1.79Z"/><path class="cls-2" d="M308.68,124.21h1.79V134.8c0,.42.23.63.68.63h.62v1.74H311a2.51,2.51,0,0,1-1.62-.51,2,2,0,0,1-.67-1.72Z"/><path class="cls-2" d="M317.82,133.26a2.18,2.18,0,0,0,.62,1.69,2,2,0,0,0,1.51.58,2.69,2.69,0,0,0,2-.89l1.3,1.14a4.12,4.12,0,0,1-3.22,1.49,4.62,4.62,0,0,1-1.38-.21,3.51,3.51,0,0,1-.65-.31,3.14,3.14,0,0,1-.63-.42,3.65,3.65,0,0,1-.92-1.44,5.79,5.79,0,0,1-.39-2.31,6.42,6.42,0,0,1,.34-2.27,4,4,0,0,1,.86-1.46,3.16,3.16,0,0,1,1.19-.78,3.77,3.77,0,0,1,1.3-.24,3.66,3.66,0,0,1,2.59,1,3.87,3.87,0,0,1,1.09,2.86v1.53Zm3.78-1.53a2.37,2.37,0,0,0-.57-1.63,1.73,1.73,0,0,0-1.32-.53,1.75,1.75,0,0,0-1.33.53,2.47,2.47,0,0,0-.56,1.63Z"/><path class="cls-2" d="M334,136.21a3,3,0,0,1-2.31,1.06,2.82,2.82,0,0,1-1.38-.34,3,3,0,0,1-1-.86,2.32,2.32,0,0,1-.49-1.18,18.56,18.56,0,0,1,0-4.71,2.29,2.29,0,0,1,.49-1.15,3,3,0,0,1,3.66-.91,5.08,5.08,0,0,1,1,.8v-4.71h1.8v13H334Zm-1.76-6.53a1.72,1.72,0,0,0-1,.22,1.43,1.43,0,0,0-.55.66,3.27,3.27,0,0,0-.21.91,9.54,9.54,0,0,0-.05,1.08,8.5,8.5,0,0,0,.05,1,3.4,3.4,0,0,0,.21,1,1.53,1.53,0,0,0,.55.66,1.63,1.63,0,0,0,1,.25,1.7,1.7,0,0,0,1-.27,1.31,1.31,0,0,0,.5-.68,3.34,3.34,0,0,0,.24-.93c0-.34,0-.68,0-1s0-.7,0-1a3.29,3.29,0,0,0-.24-.91,1.35,1.35,0,0,0-.5-.68A1.78,1.78,0,0,0,332.24,129.68Z"/><path class="cls-2" d="M354,136.21a3,3,0,0,1-2.31,1.06,2.82,2.82,0,0,1-1.38-.34,3,3,0,0,1-1-.86,2.32,2.32,0,0,1-.49-1.18,18.56,18.56,0,0,1,0-4.71,2.29,2.29,0,0,1,.49-1.15,3,3,0,0,1,3.66-.91,5.08,5.08,0,0,1,1,.8v-4.71h1.8v13H354Zm-1.76-6.53a1.72,1.72,0,0,0-1,.22,1.43,1.43,0,0,0-.55.66,3.27,3.27,0,0,0-.21.91,9.54,9.54,0,0,0-.05,1.08,8.5,8.5,0,0,0,.05,1,3.4,3.4,0,0,0,.21,1,1.53,1.53,0,0,0,.55.66,1.63,1.63,0,0,0,1,.25,1.7,1.7,0,0,0,1-.27,1.31,1.31,0,0,0,.5-.68,3.34,3.34,0,0,0,.24-.93c0-.34,0-.68,0-1s0-.7,0-1a3.29,3.29,0,0,0-.24-.91,1.35,1.35,0,0,0-.5-.68A1.78,1.78,0,0,0,352.24,129.68Z"/><path class="cls-2" d="M362.55,133.26a2.22,2.22,0,0,0,.62,1.69,2,2,0,0,0,1.52.58,2.69,2.69,0,0,0,2-.89l1.3,1.14a4.14,4.14,0,0,1-3.22,1.49,4.62,4.62,0,0,1-1.38-.21,3.51,3.51,0,0,1-.65-.31,2.66,2.66,0,0,1-.63-.42,3.55,3.55,0,0,1-.92-1.44,5.79,5.79,0,0,1-.39-2.31,6.42,6.42,0,0,1,.34-2.27,4,4,0,0,1,.86-1.46,3.16,3.16,0,0,1,1.19-.78,3.76,3.76,0,0,1,1.29-.24,3.64,3.64,0,0,1,2.59,1,3.87,3.87,0,0,1,1.1,2.86v1.53Zm3.78-1.53a2.37,2.37,0,0,0-.56-1.63,1.93,1.93,0,0,0-2.66,0,2.58,2.58,0,0,0-.56,1.63Z"/><path class="cls-2" d="M373.66,134.35a3.68,3.68,0,0,0,2.83,1.18,2.32,2.32,0,0,0,1.27-.31,1,1,0,0,0,.49-.87.78.78,0,0,0-.29-.69,1.46,1.46,0,0,0-.8-.22l-1.59-.15a3,3,0,0,1-1.84-.78,2.41,2.41,0,0,1-.74-1.84,2.53,2.53,0,0,1,1-2.13,3.77,3.77,0,0,1,2.37-.71,6.29,6.29,0,0,1,1.11.08,5.41,5.41,0,0,1,.92.25,5.29,5.29,0,0,1,1.48.93l-1.11,1.34a5.53,5.53,0,0,0-1.1-.64,3.56,3.56,0,0,0-1.31-.22,1.72,1.72,0,0,0-1.18.31,1,1,0,0,0-.36.8.63.63,0,0,0,.27.54,1.44,1.44,0,0,0,.92.33l1.48.12a2.75,2.75,0,0,1,2,.87,3,3,0,0,1,.58,1.9,2.46,2.46,0,0,1-1.06,2.07,4.47,4.47,0,0,1-2.65.76,5.57,5.57,0,0,1-3.93-1.65Z"/><path class="cls-2" d="M385.28,124.21h1.8v1.85h-1.8Zm0,3.73h1.8v9.23h-1.8Z"/><path class="cls-2" d="M397.71,136.21a3,3,0,0,1-2.3,1.06,2.69,2.69,0,0,1-1.45-.38,3.27,3.27,0,0,1-.92-.74,3,3,0,0,1-.51-1.12,12,12,0,0,1-.16-2.47,12.55,12.55,0,0,1,.16-2.52A2.82,2.82,0,0,1,393,129a2.89,2.89,0,0,1,.92-.78,3.07,3.07,0,0,1,3.75.75v-1h1.79v9a3.73,3.73,0,0,1-3.87,4.06,4.07,4.07,0,0,1-3.1-1.55l1.4-1.14a3.22,3.22,0,0,0,.79.56,1.93,1.93,0,0,0,.94.28,2.06,2.06,0,0,0,1.48-.53,2,2,0,0,0,.57-1.48Zm-3.55-3.65a11.28,11.28,0,0,0,.07,1.47,1.36,1.36,0,0,0,.29.69,1.62,1.62,0,0,0,.55.46,1.66,1.66,0,0,0,1.75,0,1.68,1.68,0,0,0,.54-.46,1.46,1.46,0,0,0,.3-.69c0-.27,0-.76,0-1.47s0-1.21,0-1.49a1.38,1.38,0,0,0-.3-.68,2,2,0,0,0-.54-.49,1.85,1.85,0,0,0-1.75,0,1.93,1.93,0,0,0-.55.49,1.28,1.28,0,0,0-.29.68A11.78,11.78,0,0,0,394.16,132.56Z"/><path class="cls-2" d="M405.23,127.94H407v1h0a2.83,2.83,0,0,1,2.32-1.09,3,3,0,0,1,2,.81,3.16,3.16,0,0,1,1,2.4v6.13h-1.8v-5.5a2,2,0,0,0-.5-1.48,1.67,1.67,0,0,0-1.26-.51,1.73,1.73,0,0,0-1.28.51,2,2,0,0,0-.51,1.48v5.5h-1.79Z"/><path class="cls-2" d="M418.36,134.35a3.68,3.68,0,0,0,2.83,1.18,2.32,2.32,0,0,0,1.27-.31,1,1,0,0,0,.49-.87.76.76,0,0,0-.29-.69,1.46,1.46,0,0,0-.8-.22l-1.59-.15a3,3,0,0,1-1.84-.78,2.41,2.41,0,0,1-.74-1.84,2.51,2.51,0,0,1,1-2.13,3.72,3.72,0,0,1,2.36-.71,6.29,6.29,0,0,1,1.11.08,4.59,4.59,0,0,1,2.4,1.18l-1.11,1.34a5.53,5.53,0,0,0-1.1-.64,3.53,3.53,0,0,0-1.31-.22,1.72,1.72,0,0,0-1.18.31,1,1,0,0,0-.35.8.6.6,0,0,0,.26.54,1.46,1.46,0,0,0,.92.33l1.48.12a2.73,2.73,0,0,1,2,.87,3,3,0,0,1,.58,1.9,2.44,2.44,0,0,1-1.06,2.07,4.47,4.47,0,0,1-2.65.76,5.58,5.58,0,0,1-3.93-1.65Z"/><path class="cls-2" d="M430,135.32h1.79v1.85L430,138.52Z"/><path class="cls-2" d="M444.4,132.55a8.12,8.12,0,0,1,.24-2.25,3.17,3.17,0,0,1,.74-1.29,3.39,3.39,0,0,1,1-.82,3.73,3.73,0,0,1,1.68-.36,3.78,3.78,0,0,1,1.71.36,3.26,3.26,0,0,1,1,.83,2.9,2.9,0,0,1,.76,1.29,9.14,9.14,0,0,1,.21,2.24,8.37,8.37,0,0,1-.22,2.22,3.1,3.1,0,0,1-.75,1.32,3.22,3.22,0,0,1-.42.4,1.77,1.77,0,0,1-.58.38,3.43,3.43,0,0,1-1.71.4,3.67,3.67,0,0,1-2.71-1.18,3.43,3.43,0,0,1-.74-1.32A7.84,7.84,0,0,1,444.4,132.55Zm5.58,0a8.16,8.16,0,0,0-.09-1.44,1.87,1.87,0,0,0-.35-.77,1.37,1.37,0,0,0-.59-.49,1.94,1.94,0,0,0-.86-.18,2,2,0,0,0-.85.18,1.53,1.53,0,0,0-.6.49,2.15,2.15,0,0,0-.34.77,7.05,7.05,0,0,0-.1,1.43,6.89,6.89,0,0,0,.1,1.41,2.3,2.3,0,0,0,.34.8,2.09,2.09,0,0,0,.6.47,1.87,1.87,0,0,0,.85.2,1.82,1.82,0,0,0,.86-.2,1.8,1.8,0,0,0,.59-.47,2,2,0,0,0,.35-.8A7.87,7.87,0,0,0,450,132.56Z"/><path class="cls-2" d="M457,127.94h1.8v5.5a2,2,0,0,0,.51,1.46,1.79,1.79,0,0,0,2.54,0,2,2,0,0,0,.49-1.46v-5.5h1.8v9.23h-1.8v-1h0a2.82,2.82,0,0,1-2.31,1.09,3,3,0,0,1-2-.83,2.91,2.91,0,0,1-1-2.36Z"/><path class="cls-2" d="M469.91,127.94h1.8v1h0a2.83,2.83,0,0,1,2.32-1.09,2.87,2.87,0,0,1,1.88.71l-1.31,1.6a1.84,1.84,0,0,0-1.18-.46,1.64,1.64,0,0,0-1.18.46,1.82,1.82,0,0,0-.57,1.47v5.56h-1.8Z"/><path class="cls-2" d="M488.9,133.26a2.22,2.22,0,0,0,.62,1.69,2,2,0,0,0,1.52.58,2.67,2.67,0,0,0,1.95-.89l1.3,1.14a4.11,4.11,0,0,1-3.22,1.49,4.51,4.51,0,0,1-1.37-.21,3.31,3.31,0,0,1-.66-.31,3.14,3.14,0,0,1-.63-.42,3.77,3.77,0,0,1-.92-1.44,5.8,5.8,0,0,1-.38-2.31,6.68,6.68,0,0,1,.33-2.27,4.09,4.09,0,0,1,.86-1.46,3.27,3.27,0,0,1,1.2-.78,3.7,3.7,0,0,1,3.88.8,3.83,3.83,0,0,1,1.09,2.86v1.53Zm3.78-1.53a2.37,2.37,0,0,0-.56-1.63,1.93,1.93,0,0,0-2.66,0,2.47,2.47,0,0,0-.56,1.63Z"/><path class="cls-2" d="M499.67,127.94h1.8v1h0a3,3,0,0,1,2.41-1.09,3.4,3.4,0,0,1,1.55.33,4.6,4.6,0,0,1,1.06.88,3.62,3.62,0,0,1,2.9-1.21,3.15,3.15,0,0,1,2.1.81,3.07,3.07,0,0,1,1,2.4v6.13h-1.8v-5.5a2,2,0,0,0-.51-1.48,1.83,1.83,0,0,0-1.33-.51,1.85,1.85,0,0,0-1.34.51,2,2,0,0,0-.53,1.48v5.5h-1.8v-5.5a2,2,0,0,0-.51-1.48,1.85,1.85,0,0,0-1.34-.51,1.81,1.81,0,0,0-1.33.51,1.93,1.93,0,0,0-.54,1.48v5.5h-1.8Z"/><path class="cls-2" d="M518.35,124.21h1.79v4.71a4.58,4.58,0,0,1,1.08-.8,2.6,2.6,0,0,1,1.23-.29,2.76,2.76,0,0,1,2.4,1.21,2.61,2.61,0,0,1,.51,1.14,16.07,16.07,0,0,1,.12,2.37,15.78,15.78,0,0,1-.12,2.34,2.67,2.67,0,0,1-.51,1.19,2.75,2.75,0,0,1-1,.85,3.09,3.09,0,0,1-3.74-.72v1h-1.79Zm3.56,5.47a1.63,1.63,0,0,0-1,.25,1.56,1.56,0,0,0-.54.68,3.67,3.67,0,0,0-.22.91c0,.33-.05.67-.05,1s0,.66.05,1a3.73,3.73,0,0,0,.22.93,1.51,1.51,0,0,0,.54.68,1.56,1.56,0,0,0,1,.27,1.86,1.86,0,0,0,1-.25,1.4,1.4,0,0,0,.52-.66,3.39,3.39,0,0,0,.23-1c0-.33,0-.67,0-1s0-.73,0-1.08a3.28,3.28,0,0,0-.23-.91,1.31,1.31,0,0,0-.52-.66A2,2,0,0,0,521.91,129.68Z"/><path class="cls-2" d="M530.89,127.94h1.79v1h0a2.94,2.94,0,0,1,4.2-.38l-1.31,1.6a1.82,1.82,0,0,0-1.18-.46,1.65,1.65,0,0,0-1.18.46,1.85,1.85,0,0,0-.57,1.47v5.56h-1.79Z"/><path class="cls-2" d="M540.29,132.55a8.12,8.12,0,0,1,.24-2.25,3.29,3.29,0,0,1,.74-1.29,3.39,3.39,0,0,1,1-.82,4.17,4.17,0,0,1,3.39,0,3.26,3.26,0,0,1,1,.83,2.9,2.9,0,0,1,.76,1.29,9.14,9.14,0,0,1,.21,2.24,8.91,8.91,0,0,1-.21,2.22,3.68,3.68,0,0,1-1.18,1.72,1.77,1.77,0,0,1-.58.38,3.43,3.43,0,0,1-1.71.4,3.36,3.36,0,0,1-1.68-.4,3.32,3.32,0,0,1-1-.78,3.43,3.43,0,0,1-.74-1.32A7.84,7.84,0,0,1,540.29,132.55Zm5.58,0a8.16,8.16,0,0,0-.09-1.44,1.75,1.75,0,0,0-.35-.77,1.31,1.31,0,0,0-.59-.49,1.94,1.94,0,0,0-.86-.18,2,2,0,0,0-.85.18,1.6,1.6,0,0,0-.6.49,2.15,2.15,0,0,0-.34.77,7.05,7.05,0,0,0-.1,1.43,6.89,6.89,0,0,0,.1,1.41,2.3,2.3,0,0,0,.34.8,2.24,2.24,0,0,0,.6.47,1.87,1.87,0,0,0,.85.2,1.82,1.82,0,0,0,.86-.2,1.7,1.7,0,0,0,.59-.47,1.87,1.87,0,0,0,.35-.8A7.87,7.87,0,0,0,545.87,132.56Z"/><path class="cls-2" d="M553,124.21h1.79v1.85H553Zm0,3.73h1.79v9.23H553Z"/><path class="cls-2" d="M565.73,136.21a3,3,0,0,1-2.31,1.06,2.82,2.82,0,0,1-1.38-.34,3,3,0,0,1-1-.86,2.32,2.32,0,0,1-.49-1.18,18.56,18.56,0,0,1,0-4.71A2.29,2.29,0,0,1,561,129a3,3,0,0,1,3.66-.91,5.08,5.08,0,0,1,1,.8v-4.71h1.8v13h-1.8ZM564,129.68a1.72,1.72,0,0,0-1,.22,1.43,1.43,0,0,0-.55.66,3.27,3.27,0,0,0-.21.91,9.54,9.54,0,0,0,0,1.08,8.5,8.5,0,0,0,0,1,3.4,3.4,0,0,0,.21,1,1.53,1.53,0,0,0,.55.66,1.63,1.63,0,0,0,1,.25,1.7,1.7,0,0,0,1-.27,1.31,1.31,0,0,0,.5-.68,3.34,3.34,0,0,0,.24-.93c0-.34,0-.68,0-1s0-.7,0-1a3.29,3.29,0,0,0-.24-.91,1.35,1.35,0,0,0-.5-.68A1.78,1.78,0,0,0,564,129.68Z"/><path class="cls-2" d="M574.28,133.26a2.22,2.22,0,0,0,.62,1.69,2,2,0,0,0,1.52.58,2.69,2.69,0,0,0,2-.89l1.3,1.14a4.14,4.14,0,0,1-3.22,1.49,4.62,4.62,0,0,1-1.38-.21,3.51,3.51,0,0,1-.65-.31,2.66,2.66,0,0,1-.63-.42,3.55,3.55,0,0,1-.92-1.44,5.79,5.79,0,0,1-.39-2.31,6.42,6.42,0,0,1,.34-2.27,4,4,0,0,1,.86-1.46,3.16,3.16,0,0,1,1.19-.78,3.76,3.76,0,0,1,1.29-.24,3.64,3.64,0,0,1,2.59,1,3.87,3.87,0,0,1,1.1,2.86v1.53Zm3.78-1.53a2.37,2.37,0,0,0-.56-1.63,1.93,1.93,0,0,0-2.66,0,2.58,2.58,0,0,0-.56,1.63Z"/><path class="cls-2" d="M585.13,127.94h1.79v1h0a2.94,2.94,0,0,1,4.2-.38l-1.31,1.6a1.84,1.84,0,0,0-1.18-.46,1.65,1.65,0,0,0-1.18.46,1.89,1.89,0,0,0-.57,1.47v5.56h-1.79Z"/><path class="cls-2" d="M594,127.94h1.9l2.12,6.47h0l2.11-6.47h1.91l-3.85,11.14a2.61,2.61,0,0,1-1,1.44,3,3,0,0,1-1.5.38h-.59v-1.74h.52a1.19,1.19,0,0,0,.66-.2,1,1,0,0,0,.42-.6l.49-1.55Z"/><path class="cls-2" d="M618.63,136.35h0a1.47,1.47,0,0,1-.78.69,3.47,3.47,0,0,1-1.43.23,3.2,3.2,0,0,1-2.3-.81,2.59,2.59,0,0,1-.85-2,2.63,2.63,0,0,1,.74-1.93,2.88,2.88,0,0,1,2.17-.8h2.48v-1c0-.82-.6-1.22-1.83-1.19a3.31,3.31,0,0,0-1.06.14,1.36,1.36,0,0,0-.64.57l-1.41-1.11a3.42,3.42,0,0,1,3-1.34,4.69,4.69,0,0,1,2.69.66,2.74,2.74,0,0,1,1,2.38v6.3h-1.8Zm0-3.09h-2.15q-1.58,0-1.56,1.11a1,1,0,0,0,.41.8,1.86,1.86,0,0,0,1.28.36,3.06,3.06,0,0,0,1.6-.27c.28-.2.42-.64.42-1.34Z"/><path class="cls-2" d="M631.48,136.21a3,3,0,0,1-2.32,1.06,2.82,2.82,0,0,1-1.38-.34,3.11,3.11,0,0,1-1-.86,2.32,2.32,0,0,1-.49-1.18,18.56,18.56,0,0,1,0-4.71,2.29,2.29,0,0,1,.49-1.15,2.75,2.75,0,0,1,2.39-1.2,2.8,2.8,0,0,1,1.28.29,5.36,5.36,0,0,1,1,.8v-4.71h1.79v13h-1.79Zm-1.77-6.53a1.74,1.74,0,0,0-1,.22,1.35,1.35,0,0,0-.54.66,3.28,3.28,0,0,0-.22.91c0,.35-.05.71-.05,1.08s0,.69.05,1a3.39,3.39,0,0,0,.22,1,1.44,1.44,0,0,0,.54.66,1.65,1.65,0,0,0,1,.25,1.68,1.68,0,0,0,1-.27,1.39,1.39,0,0,0,.51-.68,3.73,3.73,0,0,0,.23-.93c0-.34,0-.68,0-1s0-.7,0-1a3.68,3.68,0,0,0-.23-.91,1.43,1.43,0,0,0-.51-.68A1.76,1.76,0,0,0,629.71,129.68Z"/><path class="cls-2" d="M644,136.21a3,3,0,0,1-2.32,1.06,2.85,2.85,0,0,1-1.38-.34,3.11,3.11,0,0,1-1-.86,2.41,2.41,0,0,1-.49-1.18,19.88,19.88,0,0,1,0-4.71,2.38,2.38,0,0,1,.49-1.15,3,3,0,0,1,3.67-.91,5.08,5.08,0,0,1,1,.8v-4.71h1.79v13H644Zm-1.77-6.53a1.74,1.74,0,0,0-1,.22,1.35,1.35,0,0,0-.54.66,3.67,3.67,0,0,0-.22.91c0,.35,0,.71,0,1.08s0,.69,0,1a3.78,3.78,0,0,0,.22,1,1.44,1.44,0,0,0,.54.66,1.65,1.65,0,0,0,1,.25,1.68,1.68,0,0,0,1-.27,1.28,1.28,0,0,0,.51-.68,3.73,3.73,0,0,0,.23-.93c0-.34,0-.68,0-1s0-.7,0-1a3.68,3.68,0,0,0-.23-.91,1.32,1.32,0,0,0-.51-.68A1.76,1.76,0,0,0,642.25,129.68Z"/><path class="cls-2" d="M651.48,134.35a3.67,3.67,0,0,0,2.83,1.18,2.32,2.32,0,0,0,1.27-.31,1,1,0,0,0,.49-.87.78.78,0,0,0-.29-.69,1.46,1.46,0,0,0-.8-.22l-1.59-.15a3,3,0,0,1-1.84-.78,2.41,2.41,0,0,1-.74-1.84,2.53,2.53,0,0,1,1-2.13,3.74,3.74,0,0,1,2.36-.71,6.15,6.15,0,0,1,1.11.08,4.56,4.56,0,0,1,2.41,1.18l-1.11,1.34a5.53,5.53,0,0,0-1.1-.64,3.56,3.56,0,0,0-1.31-.22,1.72,1.72,0,0,0-1.18.31,1,1,0,0,0-.36.8.63.63,0,0,0,.27.54,1.43,1.43,0,0,0,.91.33l1.49.12a2.75,2.75,0,0,1,2,.87,3,3,0,0,1,.57,1.9,2.43,2.43,0,0,1-1.05,2.07,4.47,4.47,0,0,1-2.65.76,5.57,5.57,0,0,1-3.93-1.65Z"/><path class="cls-2" d="M675.2,136.35h0a1.47,1.47,0,0,1-.78.69,3.47,3.47,0,0,1-1.43.23,3.18,3.18,0,0,1-2.3-.81,2.59,2.59,0,0,1-.86-2,2.67,2.67,0,0,1,.74-1.93,2.91,2.91,0,0,1,2.17-.8h2.49v-1c0-.82-.6-1.22-1.83-1.19a3.31,3.31,0,0,0-1.06.14,1.36,1.36,0,0,0-.64.57l-1.41-1.11a3.42,3.42,0,0,1,3-1.34,4.69,4.69,0,0,1,2.69.66,2.71,2.71,0,0,1,1,2.38v6.3H675.2Zm0-3.09H673c-1,0-1.56.39-1.55,1.11a1,1,0,0,0,.41.8,1.85,1.85,0,0,0,1.28.36,3.08,3.08,0,0,0,1.6-.27c.28-.2.42-.64.42-1.34Z"/><path class="cls-2" d="M690.16,127.94H692v1a3.09,3.09,0,0,1,2.31-1.07,2.73,2.73,0,0,1,2.4,1.21,2.4,2.4,0,0,1,.51,1.14,15.77,15.77,0,0,1,.13,2.38,15.58,15.58,0,0,1-.13,2.35,2.56,2.56,0,0,1-.51,1.17,2.75,2.75,0,0,1-1,.85,3,3,0,0,1-1.43.34A2.49,2.49,0,0,1,693,137a4,4,0,0,1-1.08-.78v4.71h-1.79Zm3.56,7.49a1.86,1.86,0,0,0,1-.25,1.4,1.4,0,0,0,.52-.66,3.34,3.34,0,0,0,.23-.93c0-.33,0-.67,0-1s0-.72,0-1.07a3.09,3.09,0,0,0-.23-.93,1.31,1.31,0,0,0-.52-.66,2,2,0,0,0-1-.22,1.47,1.47,0,0,0-1.5.93,3.27,3.27,0,0,0-.21.91,9.07,9.07,0,0,0-.06,1,8.22,8.22,0,0,0,.06,1,3.33,3.33,0,0,0,.21.93,1.58,1.58,0,0,0,.54.68A1.56,1.56,0,0,0,693.72,135.43Z"/><path class="cls-2" d="M702.7,127.94h1.8v1h0a3,3,0,0,1,4.21-.38l-1.31,1.6a1.86,1.86,0,0,0-1.18-.46,1.68,1.68,0,0,0-1.19.46,1.85,1.85,0,0,0-.56,1.47v5.56h-1.8Z"/><path class="cls-2" d="M712.11,132.55a8.19,8.19,0,0,1,.23-2.25,3.29,3.29,0,0,1,.74-1.29,3.51,3.51,0,0,1,1-.82,4.17,4.17,0,0,1,3.39,0,3.14,3.14,0,0,1,1,.83,2.9,2.9,0,0,1,.76,1.29,9.14,9.14,0,0,1,.21,2.24,8.91,8.91,0,0,1-.21,2.22,3.12,3.12,0,0,1-.76,1.32,2.31,2.31,0,0,1-.42.4,1.77,1.77,0,0,1-.58.38,3.79,3.79,0,0,1-3.39,0,3.44,3.44,0,0,1-1-.78,3.56,3.56,0,0,1-.74-1.32A7.9,7.9,0,0,1,712.11,132.55Zm5.57,0a8.16,8.16,0,0,0-.09-1.44,1.65,1.65,0,0,0-.35-.77,1.31,1.31,0,0,0-.59-.49,1.91,1.91,0,0,0-.86-.18,2,2,0,0,0-.85.18,1.69,1.69,0,0,0-.6.49,2.34,2.34,0,0,0-.34.77,7.88,7.88,0,0,0-.1,1.43A7.7,7.7,0,0,0,714,134a2.51,2.51,0,0,0,.34.8,2.41,2.41,0,0,0,.6.47,1.9,1.9,0,0,0,.85.2,1.79,1.79,0,0,0,.86-.2,1.7,1.7,0,0,0,.59-.47,1.75,1.75,0,0,0,.35-.8A7.87,7.87,0,0,0,717.68,132.56Z"/><path class="cls-2" d="M725,129.36h-.9v-1.42h.9v-1.21a2.45,2.45,0,0,1,.71-1.94,2.57,2.57,0,0,1,1.73-.58h1.16V126h-1c-.54,0-.8.24-.77.77v1.22h1.8v1.42h-1.8v7.81H725Z"/><path class="cls-2" d="M734.25,133.26a2.18,2.18,0,0,0,.62,1.69,2,2,0,0,0,1.51.58,2.69,2.69,0,0,0,2-.89l1.3,1.14a4.12,4.12,0,0,1-3.22,1.49,4.62,4.62,0,0,1-1.38-.21,3.51,3.51,0,0,1-.65-.31,3.14,3.14,0,0,1-.63-.42,3.65,3.65,0,0,1-.92-1.44,5.79,5.79,0,0,1-.39-2.31,6.66,6.66,0,0,1,.34-2.27,4,4,0,0,1,.86-1.46,3.19,3.19,0,0,1,1.2-.78,3.7,3.7,0,0,1,3.88.8,3.87,3.87,0,0,1,1.09,2.86v1.53Zm3.78-1.53a2.42,2.42,0,0,0-.56-1.63,1.93,1.93,0,0,0-2.66,0,2.47,2.47,0,0,0-.56,1.63Z"/><path class="cls-2" d="M745.35,134.35a3.71,3.71,0,0,0,2.84,1.18,2.28,2.28,0,0,0,1.26-.31,1,1,0,0,0,.5-.87.76.76,0,0,0-.3-.69,1.46,1.46,0,0,0-.8-.22l-1.59-.15a3,3,0,0,1-1.83-.78,2.42,2.42,0,0,1-.75-1.84,2.54,2.54,0,0,1,1-2.13,3.74,3.74,0,0,1,2.36-.71,6.29,6.29,0,0,1,1.11.08,4.59,4.59,0,0,1,2.4,1.18l-1.11,1.34a5.46,5.46,0,0,0-1.09-.64,3.58,3.58,0,0,0-1.32-.22,1.74,1.74,0,0,0-1.18.31,1,1,0,0,0-.35.8.63.63,0,0,0,.27.54,1.4,1.4,0,0,0,.91.33l1.48.12a2.71,2.71,0,0,1,2,.87,3,3,0,0,1,.58,1.9,2.41,2.41,0,0,1-1.06,2.07,4.46,4.46,0,0,1-2.64.76,5.61,5.61,0,0,1-3.94-1.65Z"/><path class="cls-2" d="M757.18,134.35a3.71,3.71,0,0,0,2.84,1.18,2.34,2.34,0,0,0,1.27-.31,1,1,0,0,0,.49-.87.76.76,0,0,0-.3-.69,1.46,1.46,0,0,0-.8-.22l-1.59-.15a3,3,0,0,1-1.83-.78,2.38,2.38,0,0,1-.74-1.84,2.5,2.5,0,0,1,1-2.13,3.74,3.74,0,0,1,2.36-.71,6.29,6.29,0,0,1,1.11.08,5,5,0,0,1,.92.25,5.15,5.15,0,0,1,1.48.93l-1.11,1.34a5.46,5.46,0,0,0-1.09-.64,3.58,3.58,0,0,0-1.32-.22,1.74,1.74,0,0,0-1.18.31,1,1,0,0,0-.35.8.63.63,0,0,0,.27.54,1.4,1.4,0,0,0,.91.33l1.48.12a2.71,2.71,0,0,1,2,.87,3,3,0,0,1,.58,1.9,2.41,2.41,0,0,1-1.06,2.07,4.46,4.46,0,0,1-2.64.76,5.61,5.61,0,0,1-3.94-1.65Z"/><path class="cls-2" d="M768.81,124.21h1.79v1.85h-1.79Zm0,3.73h1.79v9.23h-1.79Z"/><path class="cls-2" d="M775.77,132.55a8.6,8.6,0,0,1,.23-2.25,3.29,3.29,0,0,1,.74-1.29,3.51,3.51,0,0,1,1-.82,3.73,3.73,0,0,1,1.68-.36,3.82,3.82,0,0,1,1.72.36,3.38,3.38,0,0,1,1,.83,3,3,0,0,1,.75,1.29,9.14,9.14,0,0,1,.21,2.24,8.91,8.91,0,0,1-.21,2.22,3.12,3.12,0,0,1-.76,1.32,2.31,2.31,0,0,1-.42.4,1.77,1.77,0,0,1-.58.38,3.79,3.79,0,0,1-3.39,0,3.44,3.44,0,0,1-1-.78,3.56,3.56,0,0,1-.74-1.32A8.3,8.3,0,0,1,775.77,132.55Zm5.57,0a8.16,8.16,0,0,0-.09-1.44,1.65,1.65,0,0,0-.35-.77,1.31,1.31,0,0,0-.59-.49,1.91,1.91,0,0,0-.86-.18,2,2,0,0,0-.84.18,1.64,1.64,0,0,0-.61.49,2.33,2.33,0,0,0-.33.77,6.89,6.89,0,0,0-.11,1.43,6.73,6.73,0,0,0,.11,1.41,2.5,2.5,0,0,0,.33.8,2.29,2.29,0,0,0,.61.47,1.86,1.86,0,0,0,.84.2,1.79,1.79,0,0,0,.86-.2,1.7,1.7,0,0,0,.59-.47,1.75,1.75,0,0,0,.35-.8A7.87,7.87,0,0,0,781.34,132.56Z"/><path class="cls-2" d="M788.41,127.94h1.79v1h0a2.83,2.83,0,0,1,2.32-1.09,3,3,0,0,1,2,.81,3.16,3.16,0,0,1,.95,2.4v6.13h-1.79v-5.5a2,2,0,0,0-.5-1.48,1.84,1.84,0,0,0-2.54,0,2,2,0,0,0-.51,1.48v5.5h-1.79Z"/><path class="cls-2" d="M806,136.35h0a1.47,1.47,0,0,1-.78.69,3.47,3.47,0,0,1-1.43.23,3.2,3.2,0,0,1-2.3-.81,2.59,2.59,0,0,1-.85-2,2.63,2.63,0,0,1,.74-1.93,2.88,2.88,0,0,1,2.17-.8H806v-1c0-.82-.6-1.22-1.83-1.19a3.31,3.31,0,0,0-1.06.14,1.36,1.36,0,0,0-.64.57L801,129.17a3.42,3.42,0,0,1,3-1.34,4.69,4.69,0,0,1,2.69.66,2.74,2.74,0,0,1,1,2.38v6.3H806Zm0-3.09h-2.15q-1.58,0-1.56,1.11a1,1,0,0,0,.41.8,1.86,1.86,0,0,0,1.28.36,3.06,3.06,0,0,0,1.6-.27c.28-.2.42-.64.42-1.34Z"/><path class="cls-2" d="M813.47,124.21h1.8V134.8c0,.42.22.63.67.63h.62v1.74h-.8a2.48,2.48,0,0,1-1.61-.51,2,2,0,0,1-.68-1.72Z"/><path class="cls-2" d="M821.31,135.32h1.8v1.85l-1.8,1.35Z"/><path class="cls-2" d="M842.75,135.68a5,5,0,0,1-1.37,1.13,3.77,3.77,0,0,1-1.84.46,3.93,3.93,0,0,1-2.77-1.11,4.72,4.72,0,0,1-1.28-3.6,4.82,4.82,0,0,1,1.28-3.64,3.87,3.87,0,0,1,2.77-1.09,4,4,0,0,1,1.84.44,4.61,4.61,0,0,1,1.37,1.16l-1.32,1.22a2.21,2.21,0,0,0-1.82-1c-1.52,0-2.3.93-2.32,2.88s.8,2.9,2.32,2.87a2.19,2.19,0,0,0,1.82-1Z"/><path class="cls-2" d="M847.35,127.94h1.79v1h0a2.94,2.94,0,0,1,4.2-.38l-1.31,1.6a1.82,1.82,0,0,0-1.18-.46,1.65,1.65,0,0,0-1.18.46,1.89,1.89,0,0,0-.57,1.47v5.56h-1.79Z"/><path class="cls-2" d="M857.58,124.21h1.8v1.85h-1.8Zm0,3.73h1.8v9.23h-1.8Z"/><path class="cls-2" d="M865.25,134.35a3.67,3.67,0,0,0,2.83,1.18,2.32,2.32,0,0,0,1.27-.31,1,1,0,0,0,.49-.87.78.78,0,0,0-.29-.69,1.49,1.49,0,0,0-.81-.22l-1.58-.15a3,3,0,0,1-1.84-.78,2.41,2.41,0,0,1-.74-1.84,2.5,2.5,0,0,1,1-2.13,3.74,3.74,0,0,1,2.36-.71,6.15,6.15,0,0,1,1.11.08,4.56,4.56,0,0,1,2.41,1.18l-1.12,1.34a5.46,5.46,0,0,0-1.09-.64,3.56,3.56,0,0,0-1.31-.22,1.7,1.7,0,0,0-1.18.31,1,1,0,0,0-.36.8.63.63,0,0,0,.27.54,1.43,1.43,0,0,0,.91.33l1.49.12a2.71,2.71,0,0,1,2,.87,3,3,0,0,1,.58,1.9,2.41,2.41,0,0,1-1.06,2.07,4.46,4.46,0,0,1-2.64.76,5.61,5.61,0,0,1-3.94-1.65Z"/><path class="cls-2" d="M876.82,127.94h1.79v1a3.09,3.09,0,0,1,2.31-1.07,2.76,2.76,0,0,1,2.4,1.21,2.49,2.49,0,0,1,.5,1.14,14.52,14.52,0,0,1,.13,2.38,14.33,14.33,0,0,1-.13,2.35,2.67,2.67,0,0,1-.5,1.17,2.7,2.7,0,0,1-1,.85,3,3,0,0,1-1.42.34,2.49,2.49,0,0,1-1.23-.3,4,4,0,0,1-1.08-.78v4.71h-1.79Zm3.56,7.49a1.8,1.8,0,0,0,1-.25,1.36,1.36,0,0,0,.53-.66,3.73,3.73,0,0,0,.23-.93c0-.33,0-.67,0-1s0-.72,0-1.07a3.42,3.42,0,0,0-.23-.93,1.28,1.28,0,0,0-.53-.66,1.9,1.9,0,0,0-1-.22,1.61,1.61,0,0,0-1,.25,1.49,1.49,0,0,0-.54.68,3.67,3.67,0,0,0-.22.91c0,.35,0,.69,0,1s0,.66,0,1a3.73,3.73,0,0,0,.22.93,1.45,1.45,0,0,0,.54.68A1.54,1.54,0,0,0,880.38,135.43Z"/><path class="cls-2" d="M901.51,136.35h0a1.47,1.47,0,0,1-.78.69,3.47,3.47,0,0,1-1.43.23,3.2,3.2,0,0,1-2.3-.81,2.59,2.59,0,0,1-.85-2,2.63,2.63,0,0,1,.74-1.93,2.87,2.87,0,0,1,2.16-.8h2.49v-1c0-.82-.6-1.22-1.83-1.19a3.31,3.31,0,0,0-1.06.14,1.36,1.36,0,0,0-.64.57l-1.41-1.11a3.42,3.42,0,0,1,3-1.34,4.69,4.69,0,0,1,2.69.66,2.71,2.71,0,0,1,1,2.38v6.3h-1.79Zm0-3.09h-2.16c-1,0-1.56.39-1.55,1.11a1,1,0,0,0,.41.8,1.85,1.85,0,0,0,1.28.36,3.06,3.06,0,0,0,1.6-.27c.28-.2.42-.64.42-1.34Z"/><path class="cls-2" d="M909,127.94h1.8v1h0a2.84,2.84,0,0,1,2.32-1.09,3,3,0,0,1,2,.81,3.16,3.16,0,0,1,1,2.4v6.13h-1.8v-5.5a2,2,0,0,0-.5-1.48,1.65,1.65,0,0,0-1.26-.51,1.73,1.73,0,0,0-1.28.51,2,2,0,0,0-.5,1.48v5.5H909Z"/><path class="cls-2" d="M927.22,136.21a3,3,0,0,1-2.31,1.06,2.82,2.82,0,0,1-1.38-.34,3.11,3.11,0,0,1-1-.86,2.32,2.32,0,0,1-.49-1.18,18.56,18.56,0,0,1,0-4.71,2.29,2.29,0,0,1,.49-1.15,3,3,0,0,1,3.66-.91,4.82,4.82,0,0,1,1,.8v-4.71H929v13h-1.8Zm-1.76-6.53a1.74,1.74,0,0,0-1,.22,1.43,1.43,0,0,0-.55.66,3.67,3.67,0,0,0-.21.91,9.54,9.54,0,0,0-.05,1.08,8.5,8.5,0,0,0,.05,1,3.79,3.79,0,0,0,.21,1,1.53,1.53,0,0,0,.55.66,1.65,1.65,0,0,0,1,.25,1.7,1.7,0,0,0,1-.27,1.39,1.39,0,0,0,.51-.68,3.73,3.73,0,0,0,.23-.93c0-.34,0-.68,0-1s0-.7,0-1a3.68,3.68,0,0,0-.23-.91,1.43,1.43,0,0,0-.51-.68A1.78,1.78,0,0,0,925.46,129.68Z"/><path class="cls-2" d="M947.22,136.21a3,3,0,0,1-2.31,1.06,2.82,2.82,0,0,1-1.38-.34,3.11,3.11,0,0,1-1-.86,2.32,2.32,0,0,1-.49-1.18,18.56,18.56,0,0,1,0-4.71,2.29,2.29,0,0,1,.49-1.15,3,3,0,0,1,3.66-.91,4.82,4.82,0,0,1,1,.8v-4.71H949v13h-1.8Zm-1.76-6.53a1.74,1.74,0,0,0-1,.22,1.43,1.43,0,0,0-.55.66,3.67,3.67,0,0,0-.21.91,9.54,9.54,0,0,0-.05,1.08,8.5,8.5,0,0,0,.05,1,3.79,3.79,0,0,0,.21,1,1.53,1.53,0,0,0,.55.66,1.65,1.65,0,0,0,1,.25,1.7,1.7,0,0,0,1-.27,1.39,1.39,0,0,0,.51-.68,3.73,3.73,0,0,0,.23-.93c0-.34,0-.68,0-1s0-.7,0-1a3.68,3.68,0,0,0-.23-.91,1.43,1.43,0,0,0-.51-.68A1.78,1.78,0,0,0,945.46,129.68Z"/><path class="cls-2" d="M954.48,124.21h1.79v1.85h-1.79Zm0,3.73h1.79v9.23h-1.79Z"/><path class="cls-2" d="M962.14,134.35a3.71,3.71,0,0,0,2.84,1.18,2.28,2.28,0,0,0,1.26-.31,1,1,0,0,0,.5-.87.76.76,0,0,0-.3-.69,1.46,1.46,0,0,0-.8-.22l-1.59-.15a3,3,0,0,1-1.83-.78,2.42,2.42,0,0,1-.75-1.84,2.54,2.54,0,0,1,1-2.13,3.74,3.74,0,0,1,2.36-.71,6.29,6.29,0,0,1,1.11.08,4.59,4.59,0,0,1,2.4,1.18l-1.11,1.34a5.46,5.46,0,0,0-1.09-.64,3.58,3.58,0,0,0-1.32-.22,1.74,1.74,0,0,0-1.18.31,1,1,0,0,0-.35.8.63.63,0,0,0,.27.54,1.4,1.4,0,0,0,.91.33l1.48.12a2.71,2.71,0,0,1,2,.87,3,3,0,0,1,.58,1.9,2.41,2.41,0,0,1-1.06,2.07,4.46,4.46,0,0,1-2.64.76,5.61,5.61,0,0,1-3.94-1.65Z"/><path class="cls-2" d="M973.82,125.13h1.8v2.81h1.3v1.42h-1.3v5.38c0,.47.2.7.63.69h.67v1.74H976a2.07,2.07,0,0,1-1.55-.61,2.16,2.16,0,0,1-.62-1.66v-5.54h-.9v-1.42h.9Z"/><path class="cls-2" d="M981.92,124.21h1.79v1.85h-1.79Zm0,3.73h1.79v9.23h-1.79Z"/><path class="cls-2" d="M989.32,127.94h1.8v1h0a2.84,2.84,0,0,1,2.32-1.09,3,3,0,0,1,2,.81,3.16,3.16,0,0,1,1,2.4v6.13h-1.79v-5.5a2,2,0,0,0-.5-1.48,1.84,1.84,0,0,0-2.54,0,2,2,0,0,0-.51,1.48v5.5h-1.8Z"/><path class="cls-2" d="M1008.77,135.68a4.86,4.86,0,0,1-1.38,1.13,3.76,3.76,0,0,1-1.83.46,4,4,0,0,1-2.78-1.11,4.72,4.72,0,0,1-1.27-3.6,4.82,4.82,0,0,1,1.27-3.64,4.07,4.07,0,0,1,4.61-.65,4.64,4.64,0,0,1,1.38,1.16l-1.32,1.22a2.21,2.21,0,0,0-1.82-1c-1.53,0-2.3.93-2.33,2.88s.8,2.9,2.33,2.87a2.16,2.16,0,0,0,1.81-1Z"/><path class="cls-2" d="M1013.47,125.13h1.8v2.81h1.31v1.42h-1.31v5.38c0,.47.2.7.64.69h.67v1.74h-.94a2.07,2.07,0,0,1-1.55-.61,2.16,2.16,0,0,1-.62-1.66v-5.54h-.9v-1.42h.9Z"/><path class="cls-2" d="M1021.57,124.21h1.8v1.85h-1.8Zm0,3.73h1.8v9.23h-1.8Z"/><path class="cls-2" d="M1027.71,127.94h1.9l2.1,6.47h0l2.09-6.47h1.91l-3.28,9.23H1031Z"/><path class="cls-2" d="M1041.39,133.26A2.22,2.22,0,0,0,1042,135a2,2,0,0,0,1.52.58,2.65,2.65,0,0,0,2-.89l1.31,1.14a4.14,4.14,0,0,1-3.22,1.49,4.62,4.62,0,0,1-1.38-.21,3.51,3.51,0,0,1-.65-.31,2.66,2.66,0,0,1-.63-.42,3.55,3.55,0,0,1-.92-1.44,5.79,5.79,0,0,1-.39-2.31,6.68,6.68,0,0,1,.33-2.27,4.1,4.1,0,0,1,.87-1.46,3.16,3.16,0,0,1,1.19-.78,3.76,3.76,0,0,1,1.29-.24,3.64,3.64,0,0,1,2.59,1,3.87,3.87,0,0,1,1.1,2.86v1.53Zm3.78-1.53a2.37,2.37,0,0,0-.56-1.63,1.93,1.93,0,0,0-2.66,0,2.52,2.52,0,0,0-.56,1.63Z"/><path class="cls-2" d="M1059.8,125.13h1.8v2.81h1.31v1.42h-1.31v5.38c0,.47.2.7.64.69h.67v1.74H1062a2.07,2.07,0,0,1-1.55-.61,2.16,2.16,0,0,1-.62-1.66v-5.54h-.9v-1.42h.9Z"/><path class="cls-2" d="M1067.4,132.55a8.12,8.12,0,0,1,.24-2.25,3.17,3.17,0,0,1,.74-1.29,3.39,3.39,0,0,1,1-.82,3.73,3.73,0,0,1,1.68-.36,3.78,3.78,0,0,1,1.71.36,3.26,3.26,0,0,1,1,.83,2.9,2.9,0,0,1,.76,1.29,9.14,9.14,0,0,1,.21,2.24,8.91,8.91,0,0,1-.21,2.22,3.68,3.68,0,0,1-1.18,1.72,1.77,1.77,0,0,1-.58.38,3.43,3.43,0,0,1-1.71.4,3.36,3.36,0,0,1-1.68-.4,3.32,3.32,0,0,1-1-.78,3.43,3.43,0,0,1-.74-1.32A7.84,7.84,0,0,1,1067.4,132.55Zm5.58,0a8.16,8.16,0,0,0-.09-1.44,1.75,1.75,0,0,0-.35-.77,1.31,1.31,0,0,0-.59-.49,1.94,1.94,0,0,0-.86-.18,2,2,0,0,0-.85.18,1.6,1.6,0,0,0-.6.49,2.15,2.15,0,0,0-.34.77,7.05,7.05,0,0,0-.1,1.43,6.89,6.89,0,0,0,.1,1.41,2.3,2.3,0,0,0,.34.8,2.24,2.24,0,0,0,.6.47,1.87,1.87,0,0,0,.85.2,1.82,1.82,0,0,0,.86-.2,1.7,1.7,0,0,0,.59-.47,1.87,1.87,0,0,0,.35-.8A7.87,7.87,0,0,0,1073,132.56Z"/><path class="cls-2" d="M1080,127.94h1.8v5.5a2,2,0,0,0,.51,1.46,1.79,1.79,0,0,0,2.54,0,2,2,0,0,0,.5-1.46v-5.5h1.79v9.23h-1.79v-1h0a2.82,2.82,0,0,1-2.31,1.09,3.11,3.11,0,0,1-3-3.19Z"/><path class="cls-2" d="M1099.49,135.68a4.86,4.86,0,0,1-1.38,1.13,3.73,3.73,0,0,1-1.83.46,4,4,0,0,1-2.78-1.11,4.72,4.72,0,0,1-1.27-3.6,4.82,4.82,0,0,1,1.27-3.64,4.07,4.07,0,0,1,4.61-.65,4.64,4.64,0,0,1,1.38,1.16l-1.32,1.22a2.21,2.21,0,0,0-1.82-1c-1.53,0-2.3.93-2.33,2.88s.8,2.9,2.33,2.87a2.19,2.19,0,0,0,1.82-1Z"/><path class="cls-2" d="M1104.09,124.21h1.79v4.71h0a2.83,2.83,0,0,1,2.32-1.09,3,3,0,0,1,2,.81,3.16,3.16,0,0,1,1,2.4v6.13h-1.79v-5.5a2,2,0,0,0-.5-1.48,1.84,1.84,0,0,0-2.54,0,2,2,0,0,0-.51,1.48v5.5h-1.79Z"/><path class="cls-2" d="M1124.52,125.13h1.8v2.81h1.31v1.42h-1.31v5.38c0,.47.2.7.63.69h.68v1.74h-.94a2.07,2.07,0,0,1-1.55-.61,2.16,2.16,0,0,1-.62-1.66v-5.54h-.9v-1.42h.9Z"/><path class="cls-2" d="M1132.12,132.55a8.12,8.12,0,0,1,.24-2.25,3.17,3.17,0,0,1,.74-1.29,3.39,3.39,0,0,1,1-.82,3.73,3.73,0,0,1,1.68-.36,3.78,3.78,0,0,1,1.71.36,3.26,3.26,0,0,1,1,.83,2.9,2.9,0,0,1,.76,1.29,9.14,9.14,0,0,1,.21,2.24,8.37,8.37,0,0,1-.22,2.22,3.1,3.1,0,0,1-.75,1.32,3.22,3.22,0,0,1-.42.4,1.88,1.88,0,0,1-.58.38,3.43,3.43,0,0,1-1.71.4,3.67,3.67,0,0,1-2.71-1.18,3.43,3.43,0,0,1-.74-1.32A7.84,7.84,0,0,1,1132.12,132.55Zm5.58,0a8.16,8.16,0,0,0-.09-1.44,1.87,1.87,0,0,0-.35-.77,1.37,1.37,0,0,0-.59-.49,2.12,2.12,0,0,0-1.71,0,1.53,1.53,0,0,0-.6.49,2.15,2.15,0,0,0-.34.77,7.05,7.05,0,0,0-.1,1.43,6.89,6.89,0,0,0,.1,1.41,2.3,2.3,0,0,0,.34.8,2.09,2.09,0,0,0,.6.47,1.93,1.93,0,0,0,1.71,0,1.8,1.8,0,0,0,.59-.47,2,2,0,0,0,.35-.8A7.87,7.87,0,0,0,1137.7,132.56Z"/><path class="cls-2" d="M1156.91,136.35h0a1.45,1.45,0,0,1-.77.69,3.5,3.5,0,0,1-1.43.23,3.21,3.21,0,0,1-2.31-.81,2.59,2.59,0,0,1-.85-2,2.67,2.67,0,0,1,.74-1.93,2.9,2.9,0,0,1,2.17-.8h2.48v-1c0-.82-.6-1.22-1.83-1.19a3.31,3.31,0,0,0-1.06.14,1.36,1.36,0,0,0-.64.57l-1.41-1.11a3.43,3.43,0,0,1,3-1.34,4.66,4.66,0,0,1,2.69.66,2.69,2.69,0,0,1,1,2.38v6.3h-1.8Zm0-3.09h-2.15c-1,0-1.57.39-1.55,1.11a1,1,0,0,0,.4.8,1.88,1.88,0,0,0,1.29.36,3,3,0,0,0,1.59-.27c.28-.2.42-.64.42-1.34Z"/><path class="cls-2" d="M1164.42,127.94h1.79v1h0a2.83,2.83,0,0,1,2.32-1.09,3,3,0,0,1,2,.81,3.16,3.16,0,0,1,1,2.4v6.13h-1.79v-5.5a2,2,0,0,0-.5-1.48,1.84,1.84,0,0,0-2.54,0,2,2,0,0,0-.51,1.48v5.5h-1.79Z"/><path class="cls-2" d="M1176,127.94h1.9l2.12,6.47h0l2.11-6.47h1.91l-3.85,11.14a2.66,2.66,0,0,1-1,1.44,3,3,0,0,1-1.5.38h-.59v-1.74h.52a1.19,1.19,0,0,0,.66-.2,1,1,0,0,0,.42-.6l.49-1.55Z"/><path class="cls-2" d="M1196,124.21h1.8v1.85H1196Zm0,3.73h1.8v9.23H1196Z"/><path class="cls-2" d="M1203.48,125.13h1.8v2.81h1.31v1.42h-1.31v5.38c0,.47.2.7.64.69h.67v1.74h-.94a2.07,2.07,0,0,1-1.55-.61,2.16,2.16,0,0,1-.62-1.66v-5.54h-.9v-1.42h.9Z"/><path class="cls-2" d="M1212.88,133.26a2.22,2.22,0,0,0,.62,1.69,2,2,0,0,0,1.51.58,2.67,2.67,0,0,0,2-.89l1.3,1.14a4.11,4.11,0,0,1-3.22,1.49,4.62,4.62,0,0,1-1.38-.21,3.51,3.51,0,0,1-.65-.31,3.14,3.14,0,0,1-.63-.42,3.65,3.65,0,0,1-.92-1.44,5.79,5.79,0,0,1-.39-2.31,6.66,6.66,0,0,1,.34-2.27,4,4,0,0,1,.86-1.46,3.27,3.27,0,0,1,1.2-.78,3.7,3.7,0,0,1,3.88.8,3.87,3.87,0,0,1,1.09,2.86v1.53Zm3.78-1.53a2.42,2.42,0,0,0-.56-1.63,1.93,1.93,0,0,0-2.66,0,2.47,2.47,0,0,0-.56,1.63Z"/><path class="cls-2" d="M1223.65,127.94h1.8v1h0a3,3,0,0,1,2.41-1.09,3.4,3.4,0,0,1,1.55.33,4.6,4.6,0,0,1,1.06.88,3.62,3.62,0,0,1,2.9-1.21,3.15,3.15,0,0,1,2.1.81,3.11,3.11,0,0,1,1,2.4v6.13h-1.8v-5.5a2,2,0,0,0-.51-1.48,2,2,0,0,0-2.67,0,1.93,1.93,0,0,0-.53,1.48v5.5h-1.8v-5.5a2,2,0,0,0-.51-1.48,1.85,1.85,0,0,0-1.34-.51,1.81,1.81,0,0,0-1.33.51,1.93,1.93,0,0,0-.54,1.48v5.5h-1.8Z"/><path class="cls-2" d="M1242.38,135.32h1.79v1.85h-1.79Z"/></g></g></svg>