<svg xmlns="http://www.w3.org/2000/svg" viewBox="0 0 516.98 146.14"><defs><style>.cls-1{fill:#e6e7d8;stroke:#231f20;stroke-linecap:round;stroke-linejoin:round;}</style></defs><g id="Layer_2" data-name="Layer 2"><g id="Layer_1-2" data-name="Layer 1"><path class="cls-1" d="M470.51,79.46,307.84,81q-5.4,32.34-10.78,64.67l-42-63.53-229-4.44Q13.29,39.09.5.5l59.62,14L212.49,2.71l304,19.14Z"/><path d="M53.29,53,47.22,32.54h5l3.67,13.93,3.66-13.93h4.59L58.09,53V63.1h-4.8Z"/><path d="M68.08,39.88c0-4.89,2.58-7.69,7.29-7.69s7.3,2.8,7.3,7.69V55.77c0,4.89-2.58,7.68-7.3,7.68s-7.29-2.79-7.29-7.68Zm4.81,16.19c0,2.18,1,3,2.48,3s2.49-.83,2.49-3V39.57c0-2.18-1-3-2.49-3s-2.48.83-2.48,3Z"/><path d="M93.41,32.54V56.12c0,2.18,1,3,2.48,3s2.49-.78,2.49-3V32.54h4.54V55.81c0,4.89-2.44,7.68-7.16,7.68S88.6,60.7,88.6,55.81V32.54Z"/><path d="M109.25,37.17V32.54h4.63v4.15l-2.1,4.84h-2l1.27-4.36Z"/><path d="M130.47,63.1a9.43,9.43,0,0,1-.44-3.75V54.54c0-2.83-1-3.88-3.14-3.88h-1.66V63.1h-4.8V32.54h7.24c5,0,7.12,2.31,7.12,7V42c0,3.14-1,5.2-3.14,6.2,2.4,1,3.18,3.32,3.18,6.5v4.72a9,9,0,0,0,.53,3.71Zm-5.24-26.19v9.38h1.88c1.79,0,2.88-.78,2.88-3.23v-3c0-2.18-.74-3.14-2.45-3.14Z"/><path d="M145.83,45.42h6.6v4.37h-6.6v8.94h8.3V63.1H141V32.54h13.1v4.37h-8.3Z"/><path d="M170,32.54h4.8V63.1H170Z"/><path d="M185.6,41V63.1h-4.32V32.54h6l4.93,18.29V32.54h4.28V63.1h-4.94Z"/><path d="M220.05,46.07h6.72v9.7c0,4.89-2.44,7.68-7.16,7.68s-7.16-2.79-7.16-7.68V39.88c0-4.89,2.45-7.69,7.16-7.69s7.16,2.8,7.16,7.69v3h-4.54V39.57c0-2.18-1-3-2.49-3s-2.49.83-2.49,3v16.5c0,2.18,1,3,2.49,3s2.49-.79,2.49-3V50.44h-2.18Z"/><path d="M232.53,39.88c0-4.89,2.58-7.69,7.29-7.69s7.29,2.8,7.29,7.69V55.77c0,4.89-2.57,7.68-7.29,7.68s-7.29-2.79-7.29-7.68Zm4.81,16.19c0,2.18,1,3,2.48,3s2.49-.83,2.49-3V39.57c0-2.18-1-3-2.49-3s-2.48.83-2.48,3Z"/><path d="M252.88,39.88c0-4.89,2.57-7.69,7.29-7.69s7.29,2.8,7.29,7.69V55.77c0,4.89-2.58,7.68-7.29,7.68s-7.29-2.79-7.29-7.68Zm4.8,16.19c0,2.18,1,3,2.49,3s2.49-.83,2.49-3V39.57c0-2.18-1-3-2.49-3s-2.49.83-2.49,3Z"/><path d="M273.61,32.54h7.6c4.8,0,7.16,2.66,7.16,7.55V55.55c0,4.89-2.36,7.55-7.16,7.55h-7.6Zm4.81,4.37V58.73h2.7c1.53,0,2.45-.78,2.45-3V39.88c0-2.19-.92-3-2.45-3Z"/><path d="M318.23,51.71v4.06c0,4.89-2.45,7.68-7.16,7.68s-7.16-2.79-7.16-7.68V39.88c0-4.89,2.45-7.69,7.16-7.69s7.16,2.8,7.16,7.69v3h-4.54V39.57c0-2.18-1-3-2.49-3s-2.49.83-2.49,3v16.5c0,2.18,1,3,2.49,3s2.49-.79,2.49-3V51.71Z"/><path d="M323.82,39.88c0-4.89,2.57-7.69,7.29-7.69s7.29,2.8,7.29,7.69V55.77c0,4.89-2.58,7.68-7.29,7.68s-7.29-2.79-7.29-7.68Zm4.8,16.19c0,2.18,1,3,2.49,3s2.49-.83,2.49-3V39.57c0-2.18-1-3-2.49-3s-2.49.83-2.49,3Z"/><path d="M354.73,54.24,358,32.54h6.68V63.1h-4.54V41.18L356.82,63.1h-4.54L348.7,41.49V63.1h-4.19V32.54h6.68Z"/><path d="M385.46,40.09v4c0,4.89-2.36,7.55-7.16,7.55H376V63.1h-4.8V32.54h7.07C383.1,32.54,385.46,35.2,385.46,40.09ZM376,36.91V47.25h2.27c1.53,0,2.36-.7,2.36-2.88V39.79c0-2.19-.83-2.88-2.36-2.88Z"/><path d="M405.93,63.1h-4.84l-.83-5.54h-5.9l-.83,5.54h-4.4L394,32.54h7ZM395,53.41h4.62L397.29,38Z"/><path d="M415.49,41V63.1h-4.32V32.54h6l4.93,18.29V32.54h4.28V63.1h-4.94Z"/><path d="M437.41,53l-6.07-20.43h5L440,46.47l3.67-13.93h4.58L442.21,53V63.1h-4.8Z"/></g></g></svg>