<svg xmlns="http://www.w3.org/2000/svg" viewBox="0 0 245.55 78.81"><defs><style>.cls-1{fill:#e6e7d8;stroke:#231f20;stroke-linecap:round;stroke-linejoin:round;}</style></defs><g id="Layer_2" data-name="Layer 2"><g id="Layer_1-2" data-name="Layer 1"><path class="cls-1" d="M191.32,78.31.5,55.15,28.29,1.07,245.05.5Z"/><path d="M53.58,38.27v4c0,4.79-2.39,7.53-7,7.53s-7-2.74-7-7.53V26.67c0-4.79,2.4-7.53,7-7.53s7,2.74,7,7.53v2.91H49.13V26.37c0-2.14-.94-2.95-2.43-2.95s-2.44.81-2.44,2.95V42.55c0,2.14.94,2.91,2.44,2.91s2.43-.77,2.43-2.91V38.27Z"/><path d="M74.68,49.44H69.93L69.12,44H63.34l-.81,5.44H58.21L63,19.49h6.89Zm-10.74-9.5h4.53L66.21,24.79Z"/><path d="M79.86,19.49h4.7V45.16h7.75v4.28H79.86Z"/><path d="M97.36,19.49h4.7V45.16h7.75v4.28H97.36Z"/><path d="M128.68,27.74v21.7h-4.24V19.49h5.91l4.83,17.92V19.49h4.19v30h-4.83Z"/><path d="M145.36,26.67c0-4.79,2.53-7.53,7.15-7.53s7.15,2.74,7.15,7.53V42.25c0,4.79-2.53,7.53-7.15,7.53s-7.15-2.74-7.15-7.53Zm4.71,15.88c0,2.14.94,3,2.44,3s2.44-.81,2.44-3V26.37c0-2.14-.94-2.95-2.44-2.95s-2.44.81-2.44,2.95Z"/><path d="M176.13,33.48l-1.71,16H168l-3.34-29.95h4.58l2.52,23.61L174,19.49h4.53l2.36,23.78,2.44-23.78h4.1l-3.33,30h-6.25Z"/></g></g></svg>