<svg xmlns="http://www.w3.org/2000/svg" viewBox="0 0 465.31 87.47"><defs><style>.cls-1{fill:#e6e7d8;stroke:#231f20;stroke-linecap:round;stroke-linejoin:round;}</style></defs><g id="Layer_2" data-name="Layer 2"><g id="Layer_1-2" data-name="Layer 1"><path class="cls-1" d="M434.27,66.12,37.24,87q1-21.09,2-42.2L.5.5,464.81,11.16Z"/><path d="M67.09,28.3H81.63v4.28H76.71V58.25H72V32.58H67.09Z"/><path d="M91.39,58.25H86.68V28.3h4.71V41.14h5.35V28.3h4.79v30H96.74V45.42H91.39Z"/><path d="M117.79,58.25a9.13,9.13,0,0,1-.43-3.68v-4.7c0-2.78-.94-3.81-3.08-3.81h-1.62V58.25H108V28.3h7.1c4.88,0,7,2.27,7,6.89v2.36c0,3.08-1,5.09-3.09,6.07,2.36,1,3.13,3.25,3.13,6.38v4.62a8.81,8.81,0,0,0,.51,3.63Zm-5.13-25.67v9.2h1.83c1.76,0,2.83-.77,2.83-3.17v-3c0-2.14-.73-3.08-2.4-3.08Z"/><path d="M132.85,40.93h6.46V45.2h-6.46V54H141v4.28H128.14V28.3H141v4.28h-8.13Z"/><path d="M162.12,58.25h-4.75l-.81-5.43h-5.78L150,58.25h-4.32l4.79-29.95h6.89Zm-10.74-9.49h4.53l-2.26-15.15Z"/><path d="M167.3,28.3h7.44c4.71,0,7,2.61,7,7.41V50.85c0,4.79-2.31,7.4-7,7.4H167.3Zm4.7,4.28V54h2.66c1.49,0,2.39-.77,2.39-2.9V35.49c0-2.14-.9-2.91-2.39-2.91Z"/><path d="M201.87,28.3V51.41c0,2.14.94,2.91,2.44,2.91s2.44-.77,2.44-2.91V28.3h4.45V51.11c0,4.79-2.4,7.53-7,7.53s-7-2.74-7-7.53V28.3Z"/><path d="M223.73,28c4.58,0,6.93,2.74,6.93,7.53v.94h-4.45V35.19c0-2.14-.85-2.95-2.35-2.95s-2.35.81-2.35,2.95c0,6.16,9.2,7.32,9.2,15.88,0,4.79-2.4,7.53-7,7.53s-7-2.74-7-7.53V49.23h4.45v2.13c0,2.14.94,2.91,2.44,2.91S226,53.5,226,51.36c0-6.16-9.2-7.31-9.2-15.87C216.8,30.7,219.16,28,223.73,28Z"/><path d="M261.26,58.25h-4.75l-.81-5.43h-5.78l-.81,5.43h-4.33l4.8-29.95h6.89Zm-10.74-9.49h4.53l-2.26-15.15Z"/><path d="M286,49.57l3.21-21.27h6.55v30h-4.45V36.77l-3.25,21.48h-4.45l-3.51-21.18V58.25H276V28.3h6.55Z"/><path d="M306.91,40.93h6.46V45.2h-6.46V54H315v4.28H302.21V28.3H315v4.28h-8.13Z"/><path d="M327.28,28c4.58,0,6.93,2.74,6.93,7.53v.94h-4.45V35.19c0-2.14-.85-2.95-2.35-2.95s-2.36.81-2.36,2.95c0,6.16,9.2,7.32,9.2,15.88,0,4.79-2.39,7.53-7,7.53s-7-2.74-7-7.53V49.23h4.45v2.13c0,2.14.94,2.91,2.44,2.91s2.44-.77,2.44-2.91c0-6.16-9.2-7.31-9.2-15.87C320.35,30.7,322.7,28,327.28,28Z"/><path d="M346.28,28c4.58,0,6.93,2.74,6.93,7.53v.94h-4.45V35.19c0-2.14-.86-2.95-2.35-2.95s-2.36.81-2.36,2.95c0,6.16,9.2,7.32,9.2,15.88,0,4.79-2.39,7.53-7,7.53s-7-2.74-7-7.53V49.23h4.45v2.13c0,2.14.94,2.91,2.44,2.91s2.44-.77,2.44-2.91c0-6.16-9.2-7.31-9.2-15.87C339.35,30.7,341.7,28,346.28,28Z"/><path d="M374.17,58.25h-4.74l-.82-5.43h-5.77L362,58.25H357.7l4.79-29.95h6.89Zm-10.73-9.49H368L365.7,33.61Z"/><path d="M386.37,41.57H393v9.5c0,4.79-2.4,7.53-7,7.53s-7-2.74-7-7.53V35.49c0-4.79,2.39-7.53,7-7.53s7,2.74,7,7.53V38.4h-4.45V35.19c0-2.14-.94-2.95-2.44-2.95s-2.44.81-2.44,2.95V51.36c0,2.14.94,2.91,2.44,2.91s2.44-.77,2.44-2.91V45.85h-2.14Z"/><path d="M403.7,40.93h6.46V45.2H403.7V54h8.13v4.28H399V28.3h12.84v4.28H403.7Z"/></g></g></svg>