<svg xmlns="http://www.w3.org/2000/svg" viewBox="0 0 1953.88 1015.74"><defs><style>.cls-1{fill:#e5e6d8;}</style></defs><g id="Layer_2" data-name="Layer 2"><g id="Layer_1-2" data-name="Layer 1"><path class="cls-1" d="M1919.31,0c-4.42,12.84-8.53,25.25-10.54,35.84-13.6,73.07-7.74,137.21-2.17,209.84,2.66,35.13,3.35,86.67-32.62,104.25,5.62-12.31,10.89-22.66,8.18-37.05-4.88-5.47-3,6.06-3.94,9-1.43,4.43-4.34,6.36-9,5.47-5.47-17.15-2.41-28.87,3.2-45.18-15.22-3.6-12.12,20.15-22.61,27.44l-22.57,17.74c-2.06-2.61,6.16-24.19,8.68-28.14,11.48-18.47,18-26.45,24.09-50.5,1.67-6.5,9.21-42.07,9-45.92s-2.27-7.34-6.21-7.88c-3.94,2.71-23.9,76.57-31.58,89.62-3.9,6.61-10.4,7.84-13.36,12.47-4.48,7-1.23,21.48-13.2,20.64-2.47-52.57,36.56-105.29,42-155,9.9,2.17,9.65-22.12,9.8-27.3.25-9.21,4.09-21.18-9.8-17.93-.05-3.3.09-7.69.24-12.61.59-19.71.55-47.94-18-49-14-.78-18.13,9.41-20.25,22-.49,3-1.43,14.48-2.27,27-1.18,17.34-2.16,36.85-1.72,39.86,1,6.5,8.72,13.64,11.33,21.23,16.21,47.2.49,51.59-10.39,93-7.3,27.84-13.9,59.23-13.9,87.9-5.86,1-9.41-4.19-13-8-19.51-20.89-25.42-44.1-22.51-72.77-14.09-2.47-7.29,3.64-10.69,8.47-12,16.85-12.37,24.44-18.19,45l-26,20.84c-1.48-1.68,12.56-37.69,14.54-41.93,5.51-11.78,14-20.89,18.42-30.11,2-4.13,14.34-34.63,14.54-36.6.34-3.21-10.45-38.63-12.08-40-.83-.69-6.84.25-9.45.05-7.2,27.84-18.14,54.15-26.66,81.59-1.72,5.47-5.91,9.36-8.23,14.39l-10.49,81.64c-3.7,5.37-9.26-20.9-9.61-24.24-6.55-64.25,50.85-114.61,30-181.86-2.47-7.83-7.74-13.35-9.71-19.41-2.07-6.46-5.91-24.24-11.43-39.12-4.53-12.37-10.2-22.77-17-23-2,0-5,12.36-6.8,23-1.08,6.35-1.72,12.12-1.38,14.09,1,6.31,7.54,9.75,10,16.11,6,15.91,14.64,45.13,15.92,61.64,2.17,29.07-12.52,66.56-15.72,97.26-1,9.95.44,57-.74,60.55-1.28,3.79-6.7,3.94-8.47,6.35-2,2.61-.4,8.08-.89,8.67-1.23,1.29-10.59-8.37-14.53,6.41-5.92-8.33-27.6-71.74-30.7-74.25-7.34-6.11-4.78,8-9.61,6.41.94-19.22-7-37.45-6.75-56.57.25-18.52,24-122.23,1.83-127.56-11.93-2.85-7.34,29.42-8.43,36.76-7,47.59-17.79,98.44-39.17,138.4-2.81,5.27-14,39.61-15.91,40.84-2.42,1.48-8-.74-11.48,1.23-2.76,1.48-7.49,15-17,12.12,8.33-30.94,30.45-58.48,37.89-89.71,5.76-24.29,7.49-64.25,3.25-88.74-5.12-29.51-24.68-50.85-46.51-70-5.13-4.53-10.4-8.92-15.62-13.26a14.57,14.57,0,0,0,1,13.26c4.92,8.72,17,15.57,21.28,25.81,10.74,25.87,4.58,70-3,96.67-11.13,39.22-15.62,43.46-14.68,89,.15,7.35,4.48,16.12,3.55,21.93-.4,2.46-5.27,2.36-6.7,4.43-3.45,5-1.88,17.15-13,9.17-8.92-6.36,7.24-61.34,3.74-74.05,8.58-21.39,6.51-43.95,9.56-64.75,3-20.34,14.14-33.4,9.36-58.33-.83-4.44-30.59-49-35.47-43.65-5.08,5.61,11,21.82,13.6,26.8,8.77,16.7,6.3,39.71,6,58.88-.54,29.85-6.5,44-12.27,71.83-5,24.34-4.68,43.36-15.62,68.34-8.82,20.05-54,22.42-40.15,58.43-19.86-18.37-1.43-27,6-40.89,12.76-23.9,12.37-22.57,27.79-43.31,11.13-15.08,9.31-61.59,11.87-81.84,3.6-29.26,17.94-50.2,3.5-81.83-.89-2-13.35-21.88-14.39-22.72-2.66-2.16-11.38-2.51-16.26-4.73-10.29-4.68-14.53-13.7-31.38-9-1.13,1.13,3.5,28.08,5,32.07,6.16,16.31,29.27,20.1,30.8,37.3,1.23,14.19-9.71,37.74-12.47,52.52-5.61,30.35-9.06,61.63-14.43,92.14l-8.87,21.77c.88-16.21-1.58-33.8.19-49.81,3.31-29.71,17.79-70.21,22.23-100.66,4.18-28.82-15.48-21.33-27.55-33.5-6.8-6.85-.59-16.21-14.29-13.06,1.19,24.93,22.47,38.68,18.58,65.38-3.25,22.47-23.55,46.12-32.17,64.79-6.11,13.25-30.94,68.73-31,78.15,0,8.07,4.09,15.22,2.46,25.66-.59,3.85-9.46,20.8-11.14,21.29-16.3,4.78-2-11.33.15-19.22,6.6-23.89-5.47-18.23-7.78-24.83-14.68-42.72,58.14-111.84,56.46-151-.64-14.73-22.51-35.72-31.19-48.88-8.77-13.4-2.12-26.5-30.5-21-26.9,5.18,1.53,50.41,4,66.86,6.11,41.64-27.3,58-38.78,92.14-6.65,19.9,1.38,21.82,3.7,36.7,2.71,17.89,6.89,55.58,13.94,70,3.25,6.6,22.91,23.15,9.07,33.25-6.66,4.83-17.74-13.69-9.81,14.24-8,2.17-8.87-7.59-11.13-13-6.66-15.77-7.39-32.62-14.15-47.36-7.34-16.11-25.57-36.65-34.24-53.06-12.12-23.15-5.32-34-9.11-58.58-3.06-19.9-21-36.26-18.53-57.4h-9.71c-.63,31.34-1.13,63.61,0,95.29.69,18.92,6.66,43.45,6.11,64.3-.49,19.31-18.62,40.69-3,58.53-31.54,6.85-21.14-13.4-22.52-14.54-.64-.54-9.11,1-14.88-3.1-7.68-5.37-47.54-52.13-54.34-61.83-10.45-15-20.3-35.38-27.55-52.33-26.65-19.21-3.94,21.93-.88,32.37,2.56,8.67,3.79,24.59,8.72,36.51,4.19,10,14.73,19.56,14.58,32.17-27.78-4.68-29.12-38.82-37.89-60.7-2-4.87,1.88-8.77-7.29-7.09-.54,25.77,9.46,58,9.81,82.28.1,6.65,1.87,9.46-6.56,8.13-21.18-47.89-16.65-99.53-22.66-150.18-2.56-21.48-9.66-43.6-12.51-65-2-15,5-59.72-15.08-62.67-25.87-3.8-19.26,38.23-21.19,53C989,221,982.34,231,981.06,241.69c-4.38,36,2.81,86.17,2.91,123L968.2,414.58c-6.89-1.48-.49-13.45-1.33-19.51-1-7.15-7.49-17.1-9.46-26.12-8.52-38.53,5.57-70.7-2.12-109.38-6.4,2.86-6.35,14.09-10.15,20.5-1.92,3.3-5.32,7.59-9.16,8.57l15.47-57.25c-6.26-10.84,1.73-65.08-2.66-68.78-.34-.25-9.26-.34-9.61,0-.83.84.84,13.11-.19,17.59-1.53,6.85-6.8,12.27-8.73,20.35-9.6,41.24-8.91,86-27.44,124.41-4.14,8.62-24.19,44.19-29.36,49.81-9.66,10.39-26.71,16.4-40.8,17.24-1-6.36,8-1.77,9.66-3.25,1.48-1.28-3.94-10.45-3.55-14,.2-1.48,16.46-8.33,10-15-1.23-1.33-13.55,12.17-19.31,9.66-4.24-4.59,22.71-43.36,24.73-53.81,6.65-33.65-10-67.15-5.52-99.82,1.63-11.92,10-23.25,10.11-38.58.09-16.65-2.91-38.92-22.67-25.71-17.93,12-8.23,28.28-10.59,41.09-1.14,6.15-6,13.5-7.54,21.58-10.89,57.1-21,114.35-32.12,171.41-10.45,10-11-2.22-11.78-2.57-5.91-2.85-11.28,8.38-18.72,10.8-30.7,9.9-29-8.82-29.27-30.85,9.41,1.92,5.86-4.63,7.34-10.25,8.77-33.16,9.31-64,8.87-98,0-5.47,2.07-14.34-3.3-17.69,1.13-9.66.64-19.56,3.2-29.07-11.48,4.58-9.6,14-9.7,24.29-.05,6.16-3,13.06,6.5,11.23-1.13,15.28-11.43,8.38-9.66,29.07-12.81,30.55-3.69,69.67-10.24,103-11.14,2.16-17.45,12.71-31.73,10-1.09-6.41,5.41-8.43,6.55-14.44s-4.63-6.8-6.51-4.93c-1.67,1.63,1.78,16.85-13,13-3.06-29.66,21-54.79,17.73-84.05-4.23-.15-27,71.44-24.24,80.85l-9.65,0c4.38-12.66,1.28-27.93,3.89-39.71,1.77-8.13,13.84-22.81,17.14-34.54,9-31.63,10.25-126,2.57-157.76-4-16.7-11-32.13-30.06-26.46-6.5,25.37,12.81,47.84,15.92,69.72,5.27,36.11-11,94.74-15.67,132.49-2.71,22,5,48.43-19.61,61.14-13.55,7-8.48-19.12-9.91-25.72-5.41-25.37-16.21-62.67-18.52-88.09-.94-10.3,6.11-31,4.78-40.75-1.87-13.55-18.33-42.77-18.58-55.63-.19-8.27,13.55-33.5,9.91-36.95-7.74-7.34-19.71,17.25-21.09,22.47-8.87,34.68,15.77,64.15,20.35,96.22.74,5.27-3,10.79-2.27,15.13,3.45,22.51,20.79,67.1-.2,82.62-5.42-23.89-3.35-51.73-7.24-75.18C584.39,243.36,557,184.54,562.76,156c1.43-7.15,22.86-41.63,3.45-35.43-2.27.74-27.74,33.36-24.44,40.26L576.7,284.55c-1.13,22.86,3.6,40,9.86,61.29,1.38,4.74,2.46,8.68-4.19,7.39-20.3-33.1-13.45-74.29-27.74-110.51-1.23-3.15-5.66-2.8-7.93-8.77-4.63-12.26-22.86-79.76-20.3-88.39,2.17-7,22-19.36,17.19-31.38-27.44,18.92-38.57,55.87-48.62,87-2.22,6.7-.25,14.29-2.12,20.5s-15.38,18.08-17.2,28c-.93,5.08,4.44,9.46,4.78,14.88,1,14.14.25,37.05-9.41,48.38-2.76,3.26-23.45,17.05-25.92,14.44-5.86-6.26,5.82-9.31,6.46-12.86l-19.36,9.66c-.69-18.63-10.45-25.87-24.74-11.83-1,1-16,19.37-16.65,20.5-7.88,14.48,9,24.63-20,13.94L366,369.4l-1.63-16.17c-13.35,9-13.4-13.54-25.77-19.36,3.6,7.3,3.94,18.23-4.19,21.83-2.71,1.18-7-2.36-9-1-5.67,3.85-14,38-25.48,30.75-1.77-1.13-8-35.23-8.91-41.19-5.62-36.66-7.64-78-15.28-114-1.23-5.72-20-44.34-22.86-45-12.27,1.14-5.66,15.28-9.56,22.67-2.71,5.12-7.88.39-8.13-1.77-.78-6.11,6.26-29.71,6.51-38.73.05-3.35-1.19-14.58-6.46-14.49-6.55,27-23.3,38.53-19.46,69.52,2.07,16.95,8.67,13,13,20.11,11.13,18.23,28.72,88.58,34.54,113.22,5.07,21.13,8.62,25.42-15.23,26.51-3.89-11.68-1.62-25.28-4-36.41-5.22-25.13-21.82-80.36-36.56-99.19-3.25-4.18-10.54-6.11-11.18-8.81-1.43-5.72-.54-27.6.79-34.15C199.89,190.3,232.46,147,216,135c-13.25-9.71-8.28,6.85-10.05,12.91-5,17.39-13.5,39-22.42,53.51-20.89,34,11.58,78.53,25.87,109.87,6.6,14.53,30.59,59.57,28.52,71.88-.44,2.71-3.74,9.32-5.86,10.6-12.86,8-8.62-5.67-12-13.95-2.07-5.12-17.39-24.39-21.63-33.35-9.07-19.32-11.58-45-27.74-57.8l29,113c-11.18-4-16.8,10.2-17.74,9.71-4.33-2.17-5.27-11.83-11.28-12.86,1.68,7.78-4.63,10.49-8.18,16.25l-16.11-13-1.63,9.75c-32.61-1.08-29.31-35.52-36.36-59C97.7,316.78,87.06,281.55,80.6,244.65c-4-22.82-2.06-49.82-8.42-72.38C59.71,128.12,23.6,99.1,10,50.32A325,325,0,0,1,.24,0H0V1015.74H36.06c3.84-11.28,7.27-22.1,9.06-31.49C58.71,911.19,52.85,847,47.28,774.41c-2.66-35.13-3.35-86.66,32.62-104.25-5.62,12.32-10.89,22.66-8.18,37.05,4.88,5.47,3-6.06,3.94-9,1.43-4.43,4.34-6.35,9-5.46,5.47,17.14,2.41,28.87-3.2,45.18,15.22,3.59,12.12-20.16,22.61-27.45l22.57-17.73c2.07,2.61-6.16,24.19-8.67,28.13-11.48,18.47-18,26.45-24.1,50.5-1.67,6.5-9.21,42.08-9,45.92s2.26,7.34,6.21,7.88C95,822.45,115,748.6,122.67,735.54c3.89-6.6,10.39-7.83,13.35-12.47,4.48-7,1.23-21.48,13.2-20.64,2.47,52.57-36.56,105.29-42,155.05-9.91-2.17-9.66,22.12-9.81,27.3-.25,9.21-4.09,21.18,9.81,17.93,0,3.3-.1,7.69-.25,12.62-.59,19.7-.54,47.94,18,49,14,.79,18.13-9.41,20.25-22,.49-3.06,1.43-14.49,2.27-27,1.18-17.35,2.17-36.86,1.72-39.86-1-6.51-8.72-13.65-11.33-21.24-16.21-47.2-.49-51.58,10.4-93,7.29-27.84,13.89-59.22,13.89-87.9,5.86-1,9.41,4.19,13,8,19.51,20.9,25.42,44.1,22.51,72.77,14.1,2.47,7.3-3.64,10.7-8.47,12-16.85,12.36-24.44,18.18-45l26-20.84c1.48,1.67-12.56,37.69-14.53,41.93-5.52,11.77-14,20.88-18.43,30.1-2,4.14-14.34,34.64-14.53,36.61-.35,3.2,10.44,38.62,12.07,40,.83.69,6.85-.24,9.46,0,7.19-27.84,18.13-54.15,26.65-81.59,1.73-5.48,5.91-9.37,8.23-14.39L272,650.7c3.7-5.37,9.27,20.89,9.61,24.24,6.56,64.25-50.85,114.6-30,181.85,2.46,7.84,7.73,13.36,9.7,19.42,2.07,6.45,5.92,24.24,11.43,39.12,4.54,12.36,10.2,22.76,16.95,23,2,0,5-12.37,6.8-23,1.09-6.36,1.72-12.12,1.38-14.1-1-6.3-7.54-9.75-9.95-16.11C282,869.21,273.29,840,272,823.49c-2.16-29.07,12.52-66.57,15.72-97.26,1-10-.44-57,.74-60.56,1.28-3.79,6.7-3.94,8.48-6.35,2-2.61.39-8.08.88-8.67,1.23-1.28,10.59,8.37,14.54-6.41,5.91,8.33,27.59,71.74,30.69,74.25,7.34,6.11,4.78-8,9.61-6.4-.94,19.21,7,37.44,6.75,56.56-.25,18.52-24,122.24-1.82,127.56,11.92,2.86,7.34-29.42,8.42-36.76,7-47.59,17.79-98.44,39.17-138.39,2.81-5.28,14-39.62,15.92-40.85,2.41-1.48,8,.74,11.47-1.23,2.76-1.48,7.49-15,17-12.12-8.32,30.94-30.45,58.48-37.88,89.72-5.77,24.29-7.49,64.25-3.26,88.73,5.13,29.52,24.69,50.85,46.51,70,5.13,4.53,10.4,8.91,15.62,13.25a14.58,14.58,0,0,0-1-13.25c-4.93-8.73-17-15.57-21.29-25.82-10.74-25.87-4.58-70,3-96.67,11.13-39.22,15.62-43.46,14.68-89-.15-7.34-4.48-16.11-3.55-21.93.4-2.46,5.28-2.36,6.7-4.43,3.45-5,1.88-17.15,13-9.16,8.92,6.35-7.24,61.34-3.74,74-8.57,21.38-6.51,44-9.56,64.74-3,20.35-14.14,33.4-9.36,58.33.84,4.44,30.6,49,35.47,43.66,5.08-5.62-11-21.83-13.6-26.81-8.77-16.7-6.3-39.71-6-58.87.54-29.86,6.51-44.05,12.27-71.84,5-24.34,4.68-43.35,15.62-68.34,8.82-20,54-22.41,40.15-58.43,19.86,18.38,1.43,27-6,40.89-12.76,23.9-12.36,22.57-27.78,43.31-11.14,15.08-9.32,61.59-11.88,81.84-3.6,29.27-17.93,50.21-3.5,81.84.89,2,13.36,21.87,14.39,22.71,2.66,2.17,11.38,2.51,16.26,4.73,10.3,4.68,14.53,13.7,31.38,9,1.14-1.14-3.49-28.09-5-32.08-6.16-16.31-29.27-20.1-30.8-37.29-1.23-14.19,9.71-37.75,12.47-52.53,5.62-30.35,9.07-61.63,14.44-92.13l8.86-21.78c-.88,16.21,1.58,33.8-.19,49.81-3.3,29.71-17.79,70.21-22.22,100.66-4.19,28.82,15.47,21.34,27.54,33.51,6.8,6.84.59,16.21,14.29,13.05C574.32,845.41,553,831.67,556.93,805c3.25-22.47,23.55-46.12,32.17-64.79,6.12-13.25,30.95-68.73,31-78.14,0-8.08-4.09-15.23-2.47-25.67.59-3.84,9.46-20.79,11.14-21.29,16.31-4.78,2,11.34-.15,19.22-6.6,23.9,5.47,18.23,7.78,24.83,14.69,42.72-58.13,111.85-56.46,151,.64,14.73,22.52,35.72,31.19,48.87,8.77,13.4,2.12,26.51,30.5,21,26.9-5.17-1.53-50.4-4-66.86-6.11-41.63,27.29-58,38.77-92.14,6.65-19.9-1.38-21.82-3.69-36.7-2.71-17.88-6.9-55.58-14-70-3.25-6.61-22.91-23.16-9.06-33.26,6.65-4.83,17.73,13.7,9.8-14.24,8-2.17,8.87,7.59,11.14,13,6.65,15.77,7.39,32.62,14.14,47.35,7.34,16.11,25.57,36.65,34.24,53.06,12.12,23.16,5.32,34,9.12,58.58,3.05,19.91,21,36.27,18.52,57.4h9.71c.64-31.33,1.13-63.6,0-95.29-.69-18.91-6.65-43.45-6.11-64.29.49-19.32,18.62-40.7,2.95-58.53,31.54-6.85,21.14,13.4,22.52,14.53.64.54,9.12-1,14.88,3.1,7.69,5.37,47.55,52.13,54.35,61.84,10.44,15,20.29,35.37,27.54,52.32,26.65,19.22,3.94-21.92.88-32.37-2.56-8.67-3.79-24.58-8.72-36.51-4.18-10-14.73-19.56-14.58-32.17,27.79,4.68,29.12,38.82,37.89,60.7,2,4.88-1.87,8.77,7.29,7.1.54-25.77-9.46-58-9.8-82.29-.1-6.65-1.88-9.46,6.55-8.13,21.18,47.89,16.65,99.53,22.66,150.18,2.56,21.48,9.66,43.6,12.52,65,2,15-5,59.71,15.07,62.67,25.87,3.79,19.27-38.24,21.19-53,1.53-11.82,8.13-21.82,9.41-32.57,4.38-36-2.81-86.17-2.91-123l15.77-49.86c6.9,1.47.49,13.45,1.33,19.51,1,7.14,7.49,17.09,9.46,26.11,8.52,38.53-5.57,70.7,2.12,109.38,6.4-2.86,6.35-14.09,10.15-20.5,1.92-3.3,5.32-7.58,9.16-8.57l-15.47,57.25c6.26,10.84-1.72,65.09,2.66,68.78.35.25,9.26.35,9.61,0,.84-.83-.84-13.1.2-17.59,1.52-6.85,6.8-12.26,8.72-20.35,9.6-41.23,8.91-86,27.44-124.4,4.14-8.62,24.19-44.2,29.37-49.81,9.65-10.4,26.7-16.41,40.79-17.25,1,6.36-8,1.78-9.66,3.25-1.47,1.29,4,10.45,3.55,14-.2,1.47-16.45,8.32-9.95,15,1.23,1.33,13.55-12.16,19.31-9.65,4.24,4.58-22.71,43.35-24.73,53.8-6.65,33.65,10,67.15,5.52,99.82-1.63,11.92-10,23.26-10.1,38.58-.1,16.65,2.9,38.92,22.66,25.72,17.94-12,8.23-28.28,10.59-41.09,1.14-6.16,6-13.5,7.54-21.58,10.89-57.11,21-114.36,32.13-171.41,10.44-10,11,2.21,11.77,2.56,5.91,2.86,11.29-8.38,18.73-10.79,30.69-9.9,29,8.82,29.26,30.84-9.41-1.92-5.86,4.63-7.34,10.25-8.77,33.16-9.31,64-8.87,98.05,0,5.47-2.07,14.33,3.3,17.68-1.13,9.66-.64,19.57-3.2,29.07,11.48-4.58,9.61-14,9.71-24.29,0-6.15,3-13-6.51-11.23,1.13-15.27,11.43-8.38,9.66-29.07,12.81-30.55,3.69-69.67,10.25-103,11.13-2.17,17.44-12.71,31.73-10,1.08,6.4-5.42,8.42-6.56,14.43s4.64,6.8,6.51,4.93c1.67-1.63-1.78-16.85,13-13,3,29.66-21,54.79-17.74,84,4.24.15,27-71.44,24.24-80.85l9.66,0c-4.39,12.66-1.28,27.94-3.9,39.71-1.77,8.13-13.84,22.82-17.14,34.54-9,31.63-10.25,126-2.56,157.76,4,16.71,11,32.13,30,26.46,6.5-25.37-12.81-47.84-15.91-69.71-5.28-36.12,11-94.75,15.66-132.49,2.71-22-5-48.43,19.61-61.14,13.55-7,8.48,19.11,9.91,25.71,5.42,25.38,16.21,62.68,18.52,88.1.94,10.3-6.11,31-4.78,40.74,1.88,13.55,18.33,42.77,18.58,55.63.19,8.28-13.55,33.5-9.9,37,7.73,7.34,19.7-17.24,21.08-22.46,8.87-34.69-15.76-64.15-20.35-96.23-.73-5.27,3-10.79,2.27-15.12-3.45-22.52-20.79-67.11.2-82.63,5.42,23.9,3.35,51.73,7.24,75.19,5.27,31.48,32.67,90.31,26.9,118.83-1.43,7.15-22.86,41.64-3.45,35.43,2.27-.74,27.74-33.36,24.44-40.25l-34.93-123.72c1.13-22.86-3.6-40-9.86-61.29-1.38-4.73-2.46-8.67,4.19-7.39,20.3,33.11,13.45,74.3,27.74,110.51,1.23,3.15,5.67,2.81,7.93,8.77,4.63,12.27,22.86,79.77,20.3,88.39-2.16,7.05-22,19.36-17.19,31.39,27.44-18.92,38.58-55.88,48.63-87,2.21-6.71.24-14.29,2.12-20.5s15.37-18.08,17.19-28c.94-5.07-4.43-9.46-4.78-14.88-1-14.14-.24-37,9.41-48.38,2.76-3.25,23.45-17,25.92-14.43,5.86,6.25-5.82,9.31-6.46,12.85l19.37-9.65c.69,18.62,10.44,25.86,24.73,11.82,1-1,16-19.36,16.65-20.5,7.89-14.48-9-24.63,20-13.94l4.88-22.61,1.62,16.16c13.35-9,13.4,13.55,25.77,19.36-3.6-7.29-3.94-18.23,4.19-21.82,2.71-1.19,7,2.36,9,1,5.66-3.84,14-38,25.47-30.75,1.77,1.14,8,35.23,8.92,41.19,5.61,36.66,7.63,78,15.27,114,1.23,5.72,20.05,44.35,22.86,45,12.27-1.13,5.67-15.28,9.56-22.67,2.71-5.12,7.88-.39,8.13,1.78.79,6.11-6.26,29.71-6.5,38.72-.05,3.35,1.18,14.59,6.45,14.49,6.55-26.95,23.3-38.53,19.46-69.52-2.07-17-8.67-13-13-20.1-11.13-18.23-28.72-88.59-34.54-113.23-5.07-21.13-8.62-25.42,15.23-26.5,3.89,11.67,1.63,25.27,4,36.41,5.22,25.13,21.83,80.36,36.56,99.18,3.25,4.19,10.54,6.11,11.18,8.82,1.43,5.71.54,27.59-.79,34.14-2.7,13.45-35.27,56.71-18.82,68.78,13.26,9.71,8.28-6.85,10.06-12.91,5-17.39,13.49-39,22.41-53.5,20.89-34.05-11.58-78.54-25.87-109.88-6.6-14.53-30.59-59.56-28.52-71.88.44-2.71,3.74-9.31,5.86-10.59,12.86-8,8.62,5.66,12,13.94,2.07,5.13,17.4,24.39,21.63,33.36,9.07,19.31,11.58,45,27.74,57.79l-29-113c11.19,4,16.8-10.2,17.74-9.71,4.34,2.17,5.27,11.82,11.28,12.86-1.67-7.79,4.63-10.5,8.18-16.26l16.11,13.06,1.63-9.76c32.62,1.09,29.31,35.52,36.36,59,10.69,35.72,21.33,70.95,27.79,107.85,4,22.81,2.07,49.81,8.42,72.38,12.47,44.14,48.58,73.16,62.18,121.94a320.94,320.94,0,0,1,9.24,46h.76V0Z"/></g></g></svg>