<svg xmlns="http://www.w3.org/2000/svg" viewBox="0 0 987.8 246.5"><defs><style>.cls-1{fill:#e6e7d8;stroke:#231f20;stroke-linecap:round;stroke-linejoin:round;}.cls-2{fill:#191919;}</style></defs><g id="Layer_2" data-name="Layer 2"><g id="Layer_1-2" data-name="Layer 1"><path class="cls-1" d="M.5,135.35,137.83,237.73,986.3,246q.5-35.35,1-70.7L985.08,3Q754.72,1.73,524.35.5,297.33,16.72,70.27,33Z"/><path d="M566.82,47.41l-1.71,16h-6.46l-3.34-29.94h4.58L562.41,57l2.27-23.61h4.54l2.35,23.78L574,33.42h4.11l-3.34,29.94h-6.25Z"/><path d="M588.17,46h6.46v4.27h-6.46v8.78h8.13v4.27H583.47V33.42H596.3v4.27h-8.13Z"/><path d="M625.48,52.2v4c0,4.79-2.39,7.53-7,7.53s-7-2.74-7-7.53V40.6c0-4.79,2.39-7.53,7-7.53s7,2.74,7,7.53v2.91H621V40.3c0-2.14-.94-2.95-2.44-2.95s-2.43.81-2.43,2.95V56.48c0,2.14.94,2.91,2.43,2.91s2.44-.77,2.44-2.91V52.2Z"/><path d="M641.19,63.36a9.13,9.13,0,0,1-.43-3.68V55c0-2.78-.94-3.81-3.08-3.81h-1.63V63.36h-4.71V33.42h7.11c4.87,0,7,2.26,7,6.88v2.36c0,3.08-1,5.09-3.08,6.07,2.35,1,3.12,3.25,3.12,6.38v4.62a8.8,8.8,0,0,0,.52,3.63Zm-5.14-25.67v9.2h1.84c1.76,0,2.83-.77,2.83-3.16v-3c0-2.14-.73-3.08-2.4-3.08Z"/><path d="M656.25,46h6.46v4.27h-6.46v8.78h8.13v4.27H651.54V33.42h12.84v4.27h-8.13Z"/><path d="M685.51,63.36h-4.75L680,57.93h-5.77l-.82,5.43H669l4.79-29.94h6.89Zm-10.74-9.49h4.54L677,38.72Z"/><path d="M689.32,33.42h14.55v4.27H699V63.36h-4.71V37.69h-4.92Z"/><path d="M713.63,46h6.46v4.27h-6.46v8.78h8.12v4.27H708.92V33.42h12.83v4.27h-8.12Z"/><path d="M727.66,63.36V58.83h4.54v4.06l-2.06,4.75h-1.92l1.24-4.28Z"/><path d="M752.65,53.44l-5.95-20h4.92l3.6,13.64,3.59-13.64h4.49l-5.95,20v9.92h-4.7Z"/><path d="M767.15,40.6c0-4.79,2.53-7.53,7.15-7.53s7.14,2.74,7.14,7.53V56.18c0,4.79-2.52,7.53-7.14,7.53s-7.15-2.74-7.15-7.53Zm4.71,15.88c0,2.14.94,3,2.44,3s2.44-.81,2.44-3V40.3c0-2.14-.94-2.95-2.44-2.95s-2.44.81-2.44,2.95Z"/><path d="M792,33.42v23.1c0,2.14.94,2.91,2.44,2.91s2.44-.77,2.44-2.91V33.42h4.45v22.8c0,4.79-2.4,7.53-7,7.53s-7-2.74-7-7.53V33.42Z"/><path d="M823.46,33.07c4.58,0,6.93,2.74,6.93,7.53v.94h-4.45V40.3c0-2.14-.85-2.95-2.35-2.95s-2.35.81-2.35,2.95c0,6.16,9.2,7.32,9.2,15.88,0,4.79-2.4,7.53-7,7.53s-7-2.74-7-7.53V54.34h4.45v2.14c0,2.14.94,2.91,2.44,2.91s2.44-.77,2.44-2.91c0-6.17-9.2-7.32-9.2-15.88C816.53,35.81,818.88,33.07,823.46,33.07Z"/><path d="M840.83,63.36h-4.7V33.42h4.7V46.25h5.35V33.42H851V63.36h-4.79V50.53h-5.35Z"/><path d="M857.39,33.42h4.71V63.36h-4.71Z"/><path d="M872.71,41.67V63.36h-4.23V33.42h5.9l4.83,17.92V33.42h4.2V63.36h-4.84Z"/><path d="M894.49,46H901v4.27h-6.46v8.78h8.13v4.27H889.78V33.42h12.84v4.27h-8.13Z"/><path class="cls-2" d="M511.91,103.6h-4.76l-1,2.9h-2l4.57-13h1.59l4.56,13h-2Zm-.54-1.74-1.82-5.67h0l-1.82,5.67Z"/><path class="cls-2" d="M519.62,94.47h1.8v2.81h1.3V98.7h-1.3v5.38c0,.46.2.69.63.68h.67v1.74h-.93a2.1,2.1,0,0,1-1.55-.6,2.19,2.19,0,0,1-.62-1.67V98.7h-.9V97.28h.9Z"/><path class="cls-2" d="M535.29,93.54h1.79l3.59,8.45,3.53-8.45H546v13h-1.9V98.42h0l-2.63,6.22h-1.58l-2.63-6.22h0v8.08h-1.9Z"/><path class="cls-2" d="M556.71,105.68h0a1.51,1.51,0,0,1-.77.7,3.68,3.68,0,0,1-1.43.23,3.21,3.21,0,0,1-2.31-.82,2.59,2.59,0,0,1-.85-2,2.69,2.69,0,0,1,.74-1.93,2.94,2.94,0,0,1,2.17-.8h2.49v-1c0-.82-.6-1.21-1.84-1.19a3,3,0,0,0-1.06.15,1.25,1.25,0,0,0-.63.57l-1.42-1.12a3.48,3.48,0,0,1,3-1.34,4.7,4.7,0,0,1,2.7.66,2.71,2.71,0,0,1,1,2.38v6.3h-1.79Zm0-3.09h-2.16c-1,0-1.56.39-1.55,1.11a1,1,0,0,0,.4.8,1.83,1.83,0,0,0,1.29.37,3,3,0,0,0,1.59-.28c.29-.19.43-.64.43-1.33Z"/><path class="cls-2" d="M569.55,105.54a3,3,0,0,1-2.31,1.07,2.89,2.89,0,0,1-1.39-.35,3.08,3.08,0,0,1-1-.85,2.45,2.45,0,0,1-.49-1.19,13.91,13.91,0,0,1-.14-2.34,14.16,14.16,0,0,1,.14-2.37,2.42,2.42,0,0,1,.49-1.15,2.77,2.77,0,0,1,2.4-1.2,2.89,2.89,0,0,1,1.27.29,5.08,5.08,0,0,1,1,.8V93.54h1.79v13h-1.79ZM567.78,99a1.76,1.76,0,0,0-1,.22,1.41,1.41,0,0,0-.54.66,3.67,3.67,0,0,0-.22.91c0,.35,0,.71,0,1.08s0,.69,0,1a3.7,3.7,0,0,0,.22.94,1.51,1.51,0,0,0,.54.66,1.6,1.6,0,0,0,1,.25,1.66,1.66,0,0,0,1-.27,1.29,1.29,0,0,0,.51-.67,3.81,3.81,0,0,0,.23-.94c0-.34,0-.67,0-1s0-.7,0-1a3.6,3.6,0,0,0-.23-.9,1.28,1.28,0,0,0-.51-.68A1.66,1.66,0,0,0,567.78,99Z"/><path class="cls-2" d="M578.1,102.59a2.22,2.22,0,0,0,.62,1.69,2,2,0,0,0,1.52.59,2.62,2.62,0,0,0,2-.9l1.3,1.15a4.17,4.17,0,0,1-3.22,1.49,4.51,4.51,0,0,1-1.37-.21,2.87,2.87,0,0,1-.66-.32,3.58,3.58,0,0,1-.63-.41,3.93,3.93,0,0,1-.92-1.44,5.87,5.87,0,0,1-.38-2.31,6.74,6.74,0,0,1,.33-2.28,4,4,0,0,1,.86-1.46,3.27,3.27,0,0,1,1.2-.78,3.7,3.7,0,0,1,3.88.8,3.83,3.83,0,0,1,1.09,2.86v1.53Zm3.78-1.53a2.38,2.38,0,0,0-.56-1.63,1.93,1.93,0,0,0-2.66,0,2.49,2.49,0,0,0-.56,1.63Z"/><path class="cls-2" d="M596.46,93.54h1.79v1.85h-1.79Zm0,3.74h1.79v9.22h-1.79Z"/><path class="cls-2" d="M603.86,97.28h1.8v1h0A2.86,2.86,0,0,1,608,97.16a3,3,0,0,1,2,.81,3.16,3.16,0,0,1,1,2.4v6.13h-1.8V101a2,2,0,0,0-.5-1.48,1.67,1.67,0,0,0-1.26-.51,1.73,1.73,0,0,0-1.28.51,2,2,0,0,0-.5,1.48v5.5h-1.8Z"/><path class="cls-2" d="M624.51,103.36a5.37,5.37,0,0,0,3.56,1.29c1.63,0,2.46-.62,2.48-1.8,0-1-.53-1.55-1.63-1.75l-1.66-.24a4.07,4.07,0,0,1-2.47-1.23,3.51,3.51,0,0,1-.87-2.4,3.59,3.59,0,0,1,1.1-2.74,4.14,4.14,0,0,1,3-1,6.87,6.87,0,0,1,4.07,1.34L631,96.39a5.71,5.71,0,0,0-3.11-1,2.34,2.34,0,0,0-1.47.45,1.78,1.78,0,0,0-.63,1.41,1.46,1.46,0,0,0,.43,1,2.38,2.38,0,0,0,1.35.65l1.41.2a3.86,3.86,0,0,1,2.61,1.31,3.72,3.72,0,0,1,.83,2.42c-.06,2.48-1.53,3.73-4.4,3.77a7,7,0,0,1-4.79-1.77Z"/><path class="cls-2" d="M637.83,94.47h1.8v2.81h1.31V98.7h-1.31v5.38c0,.46.2.69.64.68h.67v1.74H640a2.1,2.1,0,0,1-1.55-.6,2.19,2.19,0,0,1-.62-1.67V98.7h-.9V97.28h.9Z"/><path class="cls-2" d="M645.93,93.54h1.8v1.85h-1.8Zm0,3.74h1.8v9.22h-1.8Z"/><path class="cls-2" d="M653.44,94.47h1.8v2.81h1.31V98.7h-1.31v5.38c0,.46.2.69.64.68h.67v1.74h-.94a2.1,2.1,0,0,1-1.55-.6,2.19,2.19,0,0,1-.62-1.67V98.7h-.9V97.28h.9Z"/><path class="cls-2" d="M668.07,105a5,5,0,0,1-1.38,1.12,3.78,3.78,0,0,1-1.84.47,3.93,3.93,0,0,1-2.77-1.11,4.68,4.68,0,0,1-1.27-3.6,4.81,4.81,0,0,1,1.27-3.65,3.9,3.9,0,0,1,2.78-1.09,4,4,0,0,1,1.83.44,4.53,4.53,0,0,1,1.38,1.17L666.74,100a2.23,2.23,0,0,0-1.82-1c-1.52,0-2.3.94-2.32,2.89s.8,2.89,2.32,2.86a2.17,2.17,0,0,0,1.82-1Z"/><path class="cls-2" d="M672.66,93.54h1.8v4.71h0a2.86,2.86,0,0,1,2.32-1.09,3,3,0,0,1,2,.81,3.16,3.16,0,0,1,1,2.4v6.13H678V101a2,2,0,0,0-.5-1.48,1.67,1.67,0,0,0-1.26-.51,1.73,1.73,0,0,0-1.28.51,2,2,0,0,0-.5,1.48v5.5h-1.8Z"/><path class="cls-2" d="M686.88,102.59a2.22,2.22,0,0,0,.62,1.69,2,2,0,0,0,1.52.59,2.62,2.62,0,0,0,2-.9l1.3,1.15a4.17,4.17,0,0,1-3.21,1.49,4.57,4.57,0,0,1-1.38-.21,3.08,3.08,0,0,1-.66-.32,3.17,3.17,0,0,1-.62-.41,3.69,3.69,0,0,1-.92-1.44,5.85,5.85,0,0,1-.39-2.31,6.74,6.74,0,0,1,.33-2.28,4.09,4.09,0,0,1,.86-1.46,3.27,3.27,0,0,1,1.2-.78,3.76,3.76,0,0,1,1.29-.24,3.64,3.64,0,0,1,2.59,1,3.83,3.83,0,0,1,1.09,2.86v1.53Zm3.78-1.53a2.38,2.38,0,0,0-.56-1.63,1.93,1.93,0,0,0-2.66,0,2.54,2.54,0,0,0-.56,1.63Z"/><path class="cls-2" d="M698,103.68a3.68,3.68,0,0,0,2.83,1.19,2.41,2.41,0,0,0,1.27-.31,1,1,0,0,0,.49-.88.78.78,0,0,0-.29-.69,1.55,1.55,0,0,0-.8-.22l-1.59-.14a2.93,2.93,0,0,1-1.84-.79,2.39,2.39,0,0,1-.74-1.83,2.56,2.56,0,0,1,1-2.14,3.81,3.81,0,0,1,2.36-.71,7.22,7.22,0,0,1,1.11.08,4.56,4.56,0,0,1,2.41,1.18l-1.11,1.34a5.78,5.78,0,0,0-1.1-.63,3.56,3.56,0,0,0-1.31-.23,1.76,1.76,0,0,0-1.18.31,1,1,0,0,0-.36.8.66.66,0,0,0,.27.55,1.55,1.55,0,0,0,.91.33l1.49.11a2.75,2.75,0,0,1,2,.87,3.06,3.06,0,0,1,.57,1.9,2.4,2.4,0,0,1-1,2.07,4.49,4.49,0,0,1-2.65.77,5.57,5.57,0,0,1-3.93-1.65Z"/><path class="cls-2" d="M709.61,104.65h1.8v1.85l-1.8,1.35Z"/><path class="cls-2" d="M729.69,100h0l-1.87,6.46H726.2l-2.85-9.22h1.9l1.71,6.47h0l2-6.47h1.3l2,6.47h0l1.71-6.47H736l-2.85,9.22h-1.59Z"/><path class="cls-2" d="M742.06,102.59a2.22,2.22,0,0,0,.62,1.69,2,2,0,0,0,1.52.59,2.66,2.66,0,0,0,2-.9l1.3,1.15a4.2,4.2,0,0,1-3.22,1.49,4.62,4.62,0,0,1-1.38-.21,3,3,0,0,1-.65-.32,3,3,0,0,1-.63-.41,3.69,3.69,0,0,1-.92-1.44,5.85,5.85,0,0,1-.39-2.31,6.48,6.48,0,0,1,.34-2.28,4,4,0,0,1,.86-1.46,3.16,3.16,0,0,1,1.19-.78,3.76,3.76,0,0,1,1.29-.24,3.64,3.64,0,0,1,2.59,1,3.87,3.87,0,0,1,1.1,2.86v1.53Zm3.78-1.53a2.38,2.38,0,0,0-.56-1.63,1.93,1.93,0,0,0-2.66,0,2.54,2.54,0,0,0-.56,1.63Z"/><path class="cls-2" d="M761.72,102.59a2.18,2.18,0,0,0,.62,1.69,2,2,0,0,0,1.51.59,2.65,2.65,0,0,0,2-.9l1.3,1.15a4.19,4.19,0,0,1-3.22,1.49,4.62,4.62,0,0,1-1.38-.21,3,3,0,0,1-.65-.32,3.58,3.58,0,0,1-.63-.41,3.81,3.81,0,0,1-.92-1.44,5.85,5.85,0,0,1-.39-2.31,6.72,6.72,0,0,1,.34-2.28,4,4,0,0,1,.86-1.46,3.19,3.19,0,0,1,1.2-.78,3.7,3.7,0,0,1,3.88.8,3.87,3.87,0,0,1,1.09,2.86v1.53Zm3.78-1.53a2.43,2.43,0,0,0-.56-1.63,1.93,1.93,0,0,0-2.66,0,2.49,2.49,0,0,0-.56,1.63Z"/><path class="cls-2" d="M772.56,93.54h1.8v10.59c0,.42.22.63.67.63h.62v1.74h-.8a2.59,2.59,0,0,1-1.62-.5,2.06,2.06,0,0,1-.67-1.73Z"/><path class="cls-2" d="M781.7,102.59a2.22,2.22,0,0,0,.62,1.69,2,2,0,0,0,1.51.59,2.63,2.63,0,0,0,2-.9l1.3,1.15a4.17,4.17,0,0,1-3.22,1.49,4.51,4.51,0,0,1-1.37-.21,2.87,2.87,0,0,1-.66-.32,3.58,3.58,0,0,1-.63-.41,3.81,3.81,0,0,1-.92-1.44,5.87,5.87,0,0,1-.38-2.31,6.74,6.74,0,0,1,.33-2.28,4,4,0,0,1,.86-1.46,3.27,3.27,0,0,1,1.2-.78,3.7,3.7,0,0,1,3.88.8,3.83,3.83,0,0,1,1.09,2.86v1.53Zm3.78-1.53a2.43,2.43,0,0,0-.56-1.63,1.93,1.93,0,0,0-2.66,0,2.49,2.49,0,0,0-.56,1.63Z"/><path class="cls-2" d="M791.17,97.28h1.9l2.1,6.46h0l2.09-6.46h1.91l-3.28,9.22h-1.48Z"/><path class="cls-2" d="M808.3,105.68h0a1.49,1.49,0,0,1-.78.7,3.62,3.62,0,0,1-1.42.23,3.21,3.21,0,0,1-2.31-.82,2.59,2.59,0,0,1-.85-2,2.69,2.69,0,0,1,.74-1.93,2.94,2.94,0,0,1,2.17-.8h2.48v-1c0-.82-.6-1.21-1.83-1.19a3,3,0,0,0-1.06.15,1.25,1.25,0,0,0-.63.57l-1.42-1.12a3.48,3.48,0,0,1,3-1.34,4.66,4.66,0,0,1,2.69.66,2.71,2.71,0,0,1,1,2.38v6.3h-1.8Zm0-3.09h-2.15c-1,0-1.57.39-1.55,1.11a1,1,0,0,0,.4.8,1.83,1.83,0,0,0,1.29.37,3,3,0,0,0,1.59-.28c.28-.19.42-.64.42-1.33Z"/><path class="cls-2" d="M815.91,94.47h1.8v2.81H819V98.7h-1.31v5.38c0,.46.2.69.63.68H819v1.74h-.94a2.1,2.1,0,0,1-1.55-.6,2.19,2.19,0,0,1-.62-1.67V98.7H815V97.28h.9Z"/><path class="cls-2" d="M825.31,102.59a2.18,2.18,0,0,0,.62,1.69,2,2,0,0,0,1.51.59,2.66,2.66,0,0,0,2-.9l1.3,1.15a4.19,4.19,0,0,1-3.22,1.49,4.62,4.62,0,0,1-1.38-.21,3,3,0,0,1-.65-.32,3.58,3.58,0,0,1-.63-.41,3.81,3.81,0,0,1-.92-1.44,5.85,5.85,0,0,1-.39-2.31,6.72,6.72,0,0,1,.34-2.28,4,4,0,0,1,.86-1.46,3.19,3.19,0,0,1,1.2-.78,3.7,3.7,0,0,1,3.88.8,3.87,3.87,0,0,1,1.09,2.86v1.53Zm3.78-1.53a2.43,2.43,0,0,0-.56-1.63,1.93,1.93,0,0,0-2.66,0,2.49,2.49,0,0,0-.56,1.63Z"/><path class="cls-2" d="M843.61,93.54h1.8v4.71a4.6,4.6,0,0,1,1.07-.8,2.6,2.6,0,0,1,1.23-.29,2.73,2.73,0,0,1,2.4,1.21,2.39,2.39,0,0,1,.51,1.15,15.45,15.45,0,0,1,.13,2.36,15.68,15.68,0,0,1-.13,2.35,2.47,2.47,0,0,1-.51,1.18,2.75,2.75,0,0,1-1,.85,3,3,0,0,1-1.43.35,3,3,0,0,1-2.3-1.07v1h-1.8ZM847.17,99a1.56,1.56,0,0,0-1,.26,1.58,1.58,0,0,0-.54.68,3.2,3.2,0,0,0-.21.9,8.56,8.56,0,0,0-.05,1,8.48,8.48,0,0,0,.05,1,3.41,3.41,0,0,0,.21.94,1.61,1.61,0,0,0,.54.67,1.56,1.56,0,0,0,1,.27,1.76,1.76,0,0,0,1-.25,1.4,1.4,0,0,0,.52-.66,3.32,3.32,0,0,0,.24-.94c0-.34,0-.68,0-1s0-.73,0-1.08a3.29,3.29,0,0,0-.24-.91,1.31,1.31,0,0,0-.52-.66A1.94,1.94,0,0,0,847.17,99Z"/><path class="cls-2" d="M856.15,97.28H858v1h0a2.94,2.94,0,0,1,4.2-.38l-1.31,1.6A1.86,1.86,0,0,0,859.7,99a1.64,1.64,0,0,0-1.18.46,1.82,1.82,0,0,0-.57,1.47v5.56h-1.8Z"/><path class="cls-2" d="M870.7,105.68h0a1.51,1.51,0,0,1-.77.7,3.68,3.68,0,0,1-1.43.23,3.21,3.21,0,0,1-2.31-.82,2.59,2.59,0,0,1-.85-2,2.69,2.69,0,0,1,.74-1.93,2.94,2.94,0,0,1,2.17-.8h2.49v-1c0-.82-.6-1.21-1.84-1.19a3,3,0,0,0-1.06.15,1.25,1.25,0,0,0-.63.57l-1.42-1.12a3.48,3.48,0,0,1,3-1.34,4.72,4.72,0,0,1,2.7.66,2.71,2.71,0,0,1,1,2.38v6.3H870.7Zm0-3.09h-2.16c-1,0-1.56.39-1.55,1.11a1,1,0,0,0,.4.8,1.83,1.83,0,0,0,1.29.37,3,3,0,0,0,1.59-.28c.28-.19.43-.64.43-1.33Z"/><path class="cls-2" d="M878.2,97.28H880v1h0a2.86,2.86,0,0,1,2.32-1.09,3,3,0,0,1,2,.81,3.16,3.16,0,0,1,1,2.4v6.13h-1.79V101a2.05,2.05,0,0,0-.5-1.48,1.84,1.84,0,0,0-2.54,0A2,2,0,0,0,880,101v5.5H878.2Z"/><path class="cls-2" d="M896.41,105.54a3,3,0,0,1-2.31,1.07,2.89,2.89,0,0,1-1.39-.35,3,3,0,0,1-1-.85,2.36,2.36,0,0,1-.49-1.19,12.67,12.67,0,0,1-.15-2.34,12.9,12.9,0,0,1,.15-2.37,2.33,2.33,0,0,1,.49-1.15,2.74,2.74,0,0,1,2.39-1.2,2.85,2.85,0,0,1,1.27.29,5.08,5.08,0,0,1,1,.8V93.54h1.79v13h-1.79ZM894.65,99a1.78,1.78,0,0,0-1,.22,1.35,1.35,0,0,0-.54.66,3.67,3.67,0,0,0-.22.91c0,.35,0,.71,0,1.08s0,.69,0,1a3.7,3.7,0,0,0,.22.94,1.44,1.44,0,0,0,.54.66,1.61,1.61,0,0,0,1,.25,1.65,1.65,0,0,0,1-.27,1.29,1.29,0,0,0,.51-.67,3.41,3.41,0,0,0,.23-.94c0-.34,0-.67,0-1s0-.7,0-1a3.22,3.22,0,0,0-.23-.9,1.28,1.28,0,0,0-.51-.68A1.65,1.65,0,0,0,894.65,99Z"/><path class="cls-2" d="M903.87,103.68a3.69,3.69,0,0,0,2.83,1.19,2.41,2.41,0,0,0,1.27-.31,1,1,0,0,0,.49-.88.76.76,0,0,0-.29-.69,1.55,1.55,0,0,0-.8-.22l-1.59-.14a2.93,2.93,0,0,1-1.84-.79,2.39,2.39,0,0,1-.74-1.83,2.54,2.54,0,0,1,1-2.14,3.79,3.79,0,0,1,2.36-.71,7.41,7.41,0,0,1,1.11.08,5.17,5.17,0,0,1,.92.25,5.29,5.29,0,0,1,1.48.93l-1.11,1.34a5.49,5.49,0,0,0-1.1-.63,3.52,3.52,0,0,0-1.31-.23,1.78,1.78,0,0,0-1.18.31,1,1,0,0,0-.36.8.66.66,0,0,0,.27.55,1.59,1.59,0,0,0,.92.33l1.48.11a2.75,2.75,0,0,1,2,.87,3.07,3.07,0,0,1,.58,1.9,2.44,2.44,0,0,1-1.06,2.07,4.47,4.47,0,0,1-2.65.77,5.58,5.58,0,0,1-3.93-1.65Z"/><path class="cls-2" d="M479.05,116.31h1.8v2.81h1.31v1.42h-1.31v5.38c0,.47.2.7.63.68h.68v1.74h-.94a2.1,2.1,0,0,1-1.55-.6,2.17,2.17,0,0,1-.62-1.67v-5.53h-.9v-1.42h.9Z"/><path class="cls-2" d="M487.1,115.39h1.79v4.71h0a2.84,2.84,0,0,1,2.32-1.1,3,3,0,0,1,2,.81,3.19,3.19,0,0,1,1,2.4v6.13h-1.79v-5.5a2,2,0,0,0-.5-1.47,1.81,1.81,0,0,0-2.54,0,2,2,0,0,0-.51,1.47v5.5H487.1Z"/><path class="cls-2" d="M500,119.12h1.79v1h0a2.93,2.93,0,0,1,4.2-.39l-1.31,1.6a1.89,1.89,0,0,0-1.18-.46,1.7,1.7,0,0,0-1.18.46,1.85,1.85,0,0,0-.57,1.47v5.56H500Z"/><path class="cls-2" d="M509.37,123.72a8,8,0,0,1,.24-2.24,3.17,3.17,0,0,1,.74-1.29,3.24,3.24,0,0,1,1-.82,3.7,3.7,0,0,1,1.68-.37,3.8,3.8,0,0,1,1.71.37,3.36,3.36,0,0,1,1,.82,3,3,0,0,1,.76,1.29,9.14,9.14,0,0,1,.21,2.24,8.37,8.37,0,0,1-.22,2.22,3.13,3.13,0,0,1-.75,1.33,3.22,3.22,0,0,1-.42.4,2.08,2.08,0,0,1-.58.38,3.43,3.43,0,0,1-1.71.4,3.67,3.67,0,0,1-2.71-1.18,3.47,3.47,0,0,1-.74-1.33A7.84,7.84,0,0,1,509.37,123.72Zm5.58,0a8.16,8.16,0,0,0-.09-1.44,1.81,1.81,0,0,0-.35-.77,1.37,1.37,0,0,0-.59-.49,2,2,0,0,0-1.71,0,1.53,1.53,0,0,0-.6.49,2.08,2.08,0,0,0-.34.77,10.06,10.06,0,0,0,0,2.83,2.3,2.3,0,0,0,.34.8,2.11,2.11,0,0,0,.6.48,2,2,0,0,0,1.71,0,1.82,1.82,0,0,0,.59-.48,2,2,0,0,0,.35-.8A7.74,7.74,0,0,0,515,123.74Z"/><path class="cls-2" d="M522,119.12h1.8v5.5a2,2,0,0,0,.51,1.46,1.66,1.66,0,0,0,1.27.52,1.62,1.62,0,0,0,1.26-.52,2,2,0,0,0,.5-1.46v-5.5h1.8v9.22h-1.8v-1h0a2.82,2.82,0,0,1-2.31,1.09,3,3,0,0,1-2-.83,2.91,2.91,0,0,1-1-2.36Z"/><path class="cls-2" d="M539.91,127.38a3,3,0,0,1-2.31,1.07,2.74,2.74,0,0,1-1.44-.38,3,3,0,0,1-.92-.75,2.71,2.71,0,0,1-.51-1.11,11.86,11.86,0,0,1-.17-2.47,12.32,12.32,0,0,1,.17-2.52,2.62,2.62,0,0,1,.51-1.09,2.79,2.79,0,0,1,.92-.78,3,3,0,0,1,1.44-.35,3,3,0,0,1,2.31,1.1v-1h1.79v9a3.72,3.72,0,0,1-3.88,4.06,4,4,0,0,1-3.09-1.54l1.39-1.14a3.51,3.51,0,0,0,.79.56,2.21,2.21,0,0,0,1,.28,1.9,1.9,0,0,0,2-2Zm-3.55-3.64a9.45,9.45,0,0,0,.07,1.46,1.42,1.42,0,0,0,.28.7,1.6,1.6,0,0,0,.55.45,1.67,1.67,0,0,0,1.76,0,1.72,1.72,0,0,0,.53-.45,1.54,1.54,0,0,0,.3-.7,11.55,11.55,0,0,0,.06-1.46,12.44,12.44,0,0,0-.06-1.5,1.42,1.42,0,0,0-.3-.68,2.32,2.32,0,0,0-.53-.49,1.87,1.87,0,0,0-1.76,0,2.09,2.09,0,0,0-.55.49,1.31,1.31,0,0,0-.28.68A10.17,10.17,0,0,0,536.36,123.74Z"/><path class="cls-2" d="M547.43,115.39h1.79v4.71h0a2.86,2.86,0,0,1,2.33-1.1,3,3,0,0,1,2,.81,3.23,3.23,0,0,1,.95,2.4v6.13h-1.79v-5.5a2,2,0,0,0-.5-1.47,1.81,1.81,0,0,0-2.54,0,2,2,0,0,0-.51,1.47v5.5h-1.79Z"/><path class="cls-2" d="M567.75,115.39h1.8v4.71h0a2.86,2.86,0,0,1,2.33-1.1,3,3,0,0,1,2,.81,3.2,3.2,0,0,1,1,2.4v6.13H573.1v-5.5a2,2,0,0,0-.5-1.47,1.81,1.81,0,0,0-2.54,0,2,2,0,0,0-.51,1.47v5.5h-1.8Z"/><path class="cls-2" d="M580.68,115.39h1.79v1.84h-1.79Zm0,3.73h1.79v9.22h-1.79Z"/><path class="cls-2" d="M593.1,127.38a3,3,0,0,1-2.3,1.07,2.81,2.81,0,0,1-1.45-.38,3.26,3.26,0,0,1-.92-.75,2.83,2.83,0,0,1-.5-1.11,11.86,11.86,0,0,1-.17-2.47,12.32,12.32,0,0,1,.17-2.52,2.74,2.74,0,0,1,.5-1.09A2.92,2.92,0,0,1,590.8,119a3,3,0,0,1,2.3,1.1v-1h1.8v9a3.72,3.72,0,0,1-3.88,4.06,4,4,0,0,1-3.09-1.54l1.39-1.14a3.51,3.51,0,0,0,.79.56,2.17,2.17,0,0,0,.95.28,2.1,2.1,0,0,0,1.48-.53,2,2,0,0,0,.56-1.48Zm-3.54-3.64a9.45,9.45,0,0,0,.07,1.46,1.42,1.42,0,0,0,.28.7,1.6,1.6,0,0,0,.55.45,1.67,1.67,0,0,0,1.76,0,1.72,1.72,0,0,0,.53-.45,1.54,1.54,0,0,0,.3-.7,12.18,12.18,0,0,0,.05-1.46,13.09,13.09,0,0,0-.05-1.5,1.42,1.42,0,0,0-.3-.68,2.32,2.32,0,0,0-.53-.49,1.87,1.87,0,0,0-1.76,0,2.09,2.09,0,0,0-.55.49,1.31,1.31,0,0,0-.28.68A10.17,10.17,0,0,0,589.56,123.74Z"/><path class="cls-2" d="M600.63,115.39h1.79v4.71h0a2.86,2.86,0,0,1,2.33-1.1,3,3,0,0,1,2,.81,3.23,3.23,0,0,1,1,2.4v6.13H606v-5.5a2,2,0,0,0-.5-1.47,1.81,1.81,0,0,0-2.54,0,2,2,0,0,0-.51,1.47v5.5h-1.79Z"/><path class="cls-2" d="M613.26,122.38h5.3v1.85h-5.3Z"/><path class="cls-2" d="M629,127.36a4.16,4.16,0,0,1-1,.78,2.61,2.61,0,0,1-1.26.31,2.83,2.83,0,0,1-1.39-.35,2.87,2.87,0,0,1-1-.85,2.41,2.41,0,0,1-.49-1.16,12.87,12.87,0,0,1-.15-2.35,13.08,13.08,0,0,1,.15-2.39,2.29,2.29,0,0,1,.49-1.14,2.74,2.74,0,0,1,2.4-1.21,3,3,0,0,1,2.3,1.08v-1h1.8v13H629Zm-1.76-.76a1.78,1.78,0,0,0,1-.26,1.43,1.43,0,0,0,.51-.68,3.32,3.32,0,0,0,.23-.94c0-.33,0-.65,0-1s0-.7,0-1a3.28,3.28,0,0,0-.23-.91,1.39,1.39,0,0,0-.51-.68,1.78,1.78,0,0,0-1-.26,1.81,1.81,0,0,0-1,.22,1.43,1.43,0,0,0-.55.66,3.18,3.18,0,0,0-.21.93c0,.35,0,.71,0,1.08s0,.69,0,1a3.35,3.35,0,0,0,.21.92,1.53,1.53,0,0,0,.55.66A1.56,1.56,0,0,0,627.25,126.6Z"/><path class="cls-2" d="M636.54,119.12h1.79v5.5a2,2,0,0,0,.51,1.46,1.81,1.81,0,0,0,2.54,0,2.05,2.05,0,0,0,.5-1.46v-5.5h1.79v9.22h-1.79v-1h0a2.82,2.82,0,0,1-2.31,1.09,3,3,0,0,1-2-.83,2.93,2.93,0,0,1-1-2.36Z"/><path class="cls-2" d="M654.1,127.53h0a1.49,1.49,0,0,1-.77.69,3.64,3.64,0,0,1-1.43.23,3.13,3.13,0,0,1-2.3-.82,2.58,2.58,0,0,1-.86-2,2.66,2.66,0,0,1,.74-1.92,2.88,2.88,0,0,1,2.17-.8h2.49v-1c0-.81-.6-1.21-1.83-1.19a3,3,0,0,0-1.06.15,1.27,1.27,0,0,0-.64.57l-1.41-1.11a3.45,3.45,0,0,1,3-1.35,4.69,4.69,0,0,1,2.69.66,2.72,2.72,0,0,1,1,2.38v6.3H654.1Zm0-3.1h-2.16c-1,0-1.56.4-1.55,1.11a1,1,0,0,0,.41.8,1.8,1.8,0,0,0,1.28.37,3.06,3.06,0,0,0,1.6-.28c.28-.19.42-.64.42-1.33Z"/><path class="cls-2" d="M661.6,115.39h1.8V126c0,.42.22.63.67.63h.62v1.74h-.8a2.53,2.53,0,0,1-1.62-.5,2,2,0,0,1-.67-1.73Z"/><path class="cls-2" d="M669.44,115.39h1.8v1.84h-1.8Zm0,3.73h1.8v9.22h-1.8Z"/><path class="cls-2" d="M677,116.31h1.8v2.81h1.31v1.42h-1.31v5.38c0,.47.2.7.63.68h.68v1.74h-.94a2.1,2.1,0,0,1-1.55-.6,2.17,2.17,0,0,1-.62-1.67v-5.53h-.9v-1.42h.9Z"/><path class="cls-2" d="M683.71,119.12h1.9l2.12,6.46h0l2.11-6.46h1.91l-3.85,11.14a2.59,2.59,0,0,1-1,1.43,2.89,2.89,0,0,1-1.5.39h-.59v-1.74h.52a1.19,1.19,0,0,0,.66-.2,1.09,1.09,0,0,0,.42-.61l.49-1.54Z"/><path class="cls-2" d="M710.21,126.86a4.82,4.82,0,0,1-1.38,1.12,3.78,3.78,0,0,1-1.84.47,3.93,3.93,0,0,1-2.77-1.11,4.68,4.68,0,0,1-1.27-3.6,4.77,4.77,0,0,1,1.27-3.64,4,4,0,0,1,4.61-.65,4.5,4.5,0,0,1,1.38,1.16l-1.33,1.21a2.25,2.25,0,0,0-1.82-1c-1.52,0-2.3.94-2.32,2.89s.8,2.89,2.32,2.86a2.17,2.17,0,0,0,1.82-1Z"/><path class="cls-2" d="M714.8,115.39h1.8V126c0,.42.22.63.67.63h.62v1.74h-.8a2.53,2.53,0,0,1-1.62-.5,2.06,2.06,0,0,1-.67-1.73Z"/><path class="cls-2" d="M722.15,123.72a8.11,8.11,0,0,1,.23-2.24,3.29,3.29,0,0,1,.74-1.29,3.24,3.24,0,0,1,1-.82,4.07,4.07,0,0,1,3.39,0,3.24,3.24,0,0,1,1,.82,2.9,2.9,0,0,1,.76,1.29,9.14,9.14,0,0,1,.21,2.24,8.91,8.91,0,0,1-.21,2.22,3.15,3.15,0,0,1-.76,1.33,3.22,3.22,0,0,1-.42.4,2,2,0,0,1-.58.38,3.43,3.43,0,0,1-1.71.4,3.36,3.36,0,0,1-1.68-.4,3.32,3.32,0,0,1-1-.78,3.47,3.47,0,0,1-.74-1.33A7.9,7.9,0,0,1,722.15,123.72Zm5.57,0a8.16,8.16,0,0,0-.09-1.44,1.7,1.7,0,0,0-.35-.77,1.31,1.31,0,0,0-.59-.49,1.82,1.82,0,0,0-.86-.19,1.86,1.86,0,0,0-.85.19,1.6,1.6,0,0,0-.6.49,2.08,2.08,0,0,0-.34.77,10.06,10.06,0,0,0,0,2.83,2.3,2.3,0,0,0,.34.8,2.26,2.26,0,0,0,.6.48,1.86,1.86,0,0,0,.85.19,1.82,1.82,0,0,0,.86-.19,1.72,1.72,0,0,0,.59-.48,1.87,1.87,0,0,0,.35-.8A7.74,7.74,0,0,0,727.72,123.74Z"/><path class="cls-2" d="M734.89,116.31h1.79v2.81H738v1.42h-1.31v5.38c0,.47.21.7.64.68H738v1.74h-.93a2.1,2.1,0,0,1-1.55-.6,2.17,2.17,0,0,1-.62-1.67v-5.53H734v-1.42h.9Z"/><path class="cls-2" d="M742.94,115.39h1.79v4.71h0a2.86,2.86,0,0,1,2.33-1.1,3,3,0,0,1,2,.81,3.23,3.23,0,0,1,1,2.4v6.13h-1.79v-5.5a2,2,0,0,0-.5-1.47,1.81,1.81,0,0,0-2.54,0,2,2,0,0,0-.51,1.47v5.5h-1.79Z"/><path class="cls-2" d="M755.86,115.39h1.79v1.84h-1.79Zm0,3.73h1.79v9.22h-1.79Z"/><path class="cls-2" d="M763.26,119.12h1.8v1h0a2.85,2.85,0,0,1,2.32-1.1,3,3,0,0,1,2,.81,3.23,3.23,0,0,1,.95,2.4v6.13h-1.79v-5.5a2,2,0,0,0-.5-1.47,1.81,1.81,0,0,0-2.54,0,2,2,0,0,0-.51,1.47v5.5h-1.8Z"/><path class="cls-2" d="M781.16,127.38a3,3,0,0,1-2.31,1.07,2.74,2.74,0,0,1-1.44-.38,3.12,3.12,0,0,1-.92-.75,2.71,2.71,0,0,1-.51-1.11,12.09,12.09,0,0,1-.16-2.47,12.55,12.55,0,0,1,.16-2.52,2.62,2.62,0,0,1,.51-1.09,2.89,2.89,0,0,1,.92-.78,3,3,0,0,1,1.44-.35,3,3,0,0,1,2.31,1.1v-1H783v9a3.72,3.72,0,0,1-3.88,4.06,4,4,0,0,1-3.09-1.54l1.39-1.14a3.75,3.75,0,0,0,.79.56,2.21,2.21,0,0,0,1,.28,2.08,2.08,0,0,0,1.48-.53,2,2,0,0,0,.57-1.48Zm-3.55-3.64a9.45,9.45,0,0,0,.07,1.46,1.42,1.42,0,0,0,.28.7,1.71,1.71,0,0,0,.55.45,1.67,1.67,0,0,0,1.76,0,1.61,1.61,0,0,0,.53-.45,1.66,1.66,0,0,0,.31-.7c0-.26,0-.75,0-1.46s0-1.22,0-1.5a1.53,1.53,0,0,0-.31-.68,2.13,2.13,0,0,0-.53-.49,1.87,1.87,0,0,0-1.76,0,2.26,2.26,0,0,0-.55.49,1.31,1.31,0,0,0-.28.68A10.17,10.17,0,0,0,777.61,123.74Z"/><path class="cls-2" d="M796.14,119.12h1.79v1a3,3,0,0,1,2.31-1.08,2.78,2.78,0,0,1,2.4,1.21,2.49,2.49,0,0,1,.5,1.15,21.58,21.58,0,0,1,0,4.73,2.52,2.52,0,0,1-.51,1.16,2.58,2.58,0,0,1-1,.85,3,3,0,0,1-1.42.35,2.46,2.46,0,0,1-1.24-.31,4,4,0,0,1-1.07-.78v4.72h-1.79Zm3.55,7.48a1.73,1.73,0,0,0,1-.25,1.42,1.42,0,0,0,.53-.66,3.76,3.76,0,0,0,.23-.92c0-.34,0-.68,0-1s0-.73,0-1.08a3.52,3.52,0,0,0-.23-.93,1.33,1.33,0,0,0-.53-.66,2,2,0,0,0-1-.22,1.58,1.58,0,0,0-1,.26,1.45,1.45,0,0,0-.54.68,3.67,3.67,0,0,0-.22.91c0,.34-.05.69-.05,1s0,.65.05,1a3.7,3.7,0,0,0,.22.94,1.49,1.49,0,0,0,.54.68A1.58,1.58,0,0,0,799.69,126.6Z"/><path class="cls-2" d="M808.68,119.12h1.79v1h0a2.93,2.93,0,0,1,4.2-.39l-1.31,1.6a1.89,1.89,0,0,0-1.18-.46,1.7,1.7,0,0,0-1.18.46,1.85,1.85,0,0,0-.57,1.47v5.56h-1.79Z"/><path class="cls-2" d="M818.08,123.72a8,8,0,0,1,.24-2.24,3.17,3.17,0,0,1,.74-1.29,3.24,3.24,0,0,1,1-.82,3.67,3.67,0,0,1,1.68-.37,3.8,3.8,0,0,1,1.71.37,3.36,3.36,0,0,1,1,.82,3,3,0,0,1,.75,1.29,8.59,8.59,0,0,1,.22,2.24,8.37,8.37,0,0,1-.22,2.22,3.24,3.24,0,0,1-.75,1.33,2.78,2.78,0,0,1-.43.4,1.89,1.89,0,0,1-.57.38,3.43,3.43,0,0,1-1.71.4,3.31,3.31,0,0,1-1.68-.4,3.49,3.49,0,0,1-1-.78,3.58,3.58,0,0,1-.73-1.33A7.84,7.84,0,0,1,818.08,123.72Zm5.58,0a8.16,8.16,0,0,0-.09-1.44,1.72,1.72,0,0,0-.36-.77,1.29,1.29,0,0,0-.58-.49,2,2,0,0,0-1.71,0,1.53,1.53,0,0,0-.6.49,2.08,2.08,0,0,0-.34.77,10.06,10.06,0,0,0,0,2.83,2.3,2.3,0,0,0,.34.8,2.11,2.11,0,0,0,.6.48,2,2,0,0,0,1.71,0,1.67,1.67,0,0,0,.58-.48,1.88,1.88,0,0,0,.36-.8A7.74,7.74,0,0,0,823.66,123.74Z"/><path class="cls-2" d="M836.06,127.38a3,3,0,0,1-2.31,1.07,2.89,2.89,0,0,1-1.39-.35,2.93,2.93,0,0,1-1-.85,2.32,2.32,0,0,1-.49-1.18,18.64,18.64,0,0,1,0-4.72,2.29,2.29,0,0,1,.49-1.14,2.92,2.92,0,0,1,3.66-.91,5,5,0,0,1,1,.79v-4.7h1.8v13h-1.8Zm-1.76-6.53a1.87,1.87,0,0,0-1,.22,1.47,1.47,0,0,0-.54.66,3.36,3.36,0,0,0-.21.91,9.54,9.54,0,0,0-.05,1.08,8.67,8.67,0,0,0,.05,1,3.33,3.33,0,0,0,.21.94,1.58,1.58,0,0,0,.54.66,1.61,1.61,0,0,0,1,.25,1.78,1.78,0,0,0,1-.26,1.35,1.35,0,0,0,.5-.68,3.32,3.32,0,0,0,.24-.94c0-.34,0-.67,0-1s0-.7,0-1a3.29,3.29,0,0,0-.24-.91,1.31,1.31,0,0,0-.5-.68A1.78,1.78,0,0,0,834.3,120.85Z"/><path class="cls-2" d="M843.26,119.12h1.8v5.5a2,2,0,0,0,.51,1.46,1.81,1.81,0,0,0,2.54,0,2,2,0,0,0,.49-1.46v-5.5h1.8v9.22h-1.8v-1h0a2.82,2.82,0,0,1-2.31,1.09,3,3,0,0,1-2-.83,2.91,2.91,0,0,1-1-2.36Z"/><path class="cls-2" d="M862.71,126.86a4.82,4.82,0,0,1-1.38,1.12,3.77,3.77,0,0,1-1.83.47,4,4,0,0,1-2.78-1.11,4.72,4.72,0,0,1-1.27-3.6,4.8,4.8,0,0,1,1.27-3.64,3.92,3.92,0,0,1,2.78-1.1,3.81,3.81,0,0,1,1.83.45,4.5,4.5,0,0,1,1.38,1.16l-1.33,1.21a2.25,2.25,0,0,0-1.81-1c-1.53,0-2.3.94-2.33,2.89s.8,2.89,2.33,2.86a2.16,2.16,0,0,0,1.81-1Z"/><path class="cls-2" d="M867.41,116.31h1.8v2.81h1.31v1.42h-1.31v5.38c0,.47.2.7.63.68h.68v1.74h-.94a2.1,2.1,0,0,1-1.55-.6,2.17,2.17,0,0,1-.62-1.67v-5.53h-.9v-1.42h.9Z"/><path class="cls-2" d="M875.51,115.39h1.8v1.84h-1.8Zm0,3.73h1.8v9.22h-1.8Z"/><path class="cls-2" d="M882.47,123.72a8,8,0,0,1,.24-2.24,3.17,3.17,0,0,1,.74-1.29,3.24,3.24,0,0,1,1-.82,3.67,3.67,0,0,1,1.68-.37,3.8,3.8,0,0,1,1.71.37,3.36,3.36,0,0,1,1,.82,2.88,2.88,0,0,1,.75,1.29,8.59,8.59,0,0,1,.22,2.24,8.37,8.37,0,0,1-.22,2.22,3.13,3.13,0,0,1-.75,1.33,3.22,3.22,0,0,1-.42.4,2.08,2.08,0,0,1-.58.38,3.43,3.43,0,0,1-1.71.4,3.67,3.67,0,0,1-2.71-1.18,3.47,3.47,0,0,1-.74-1.33A7.84,7.84,0,0,1,882.47,123.72Zm5.58,0a8.16,8.16,0,0,0-.09-1.44,1.81,1.81,0,0,0-.35-.77A1.37,1.37,0,0,0,887,121a2,2,0,0,0-1.71,0,1.53,1.53,0,0,0-.6.49,2.08,2.08,0,0,0-.34.77,10.06,10.06,0,0,0,0,2.83,2.3,2.3,0,0,0,.34.8,2.11,2.11,0,0,0,.6.48,2,2,0,0,0,1.71,0,1.82,1.82,0,0,0,.59-.48,2,2,0,0,0,.35-.8A7.74,7.74,0,0,0,888.05,123.74Z"/><path class="cls-2" d="M895.11,119.12h1.8v1h0a2.85,2.85,0,0,1,2.32-1.1,3,3,0,0,1,2,.81,3.2,3.2,0,0,1,1,2.4v6.13h-1.8v-5.5a2,2,0,0,0-.5-1.47,1.64,1.64,0,0,0-1.26-.52,1.7,1.7,0,0,0-1.28.52,2,2,0,0,0-.5,1.47v5.5h-1.8Z"/><path class="cls-2" d="M908,126.5h1.79v1.84L908,129.7Z"/><path class="cls-2" d="M400.87,148.7a4.75,4.75,0,0,1-1.37,1.12,3.67,3.67,0,0,1-1.84.47,3.93,3.93,0,0,1-2.77-1.11,4.72,4.72,0,0,1-1.28-3.6,4.82,4.82,0,0,1,1.28-3.64,3.84,3.84,0,0,1,2.78-1.09,4,4,0,0,1,1.83.44,4.49,4.49,0,0,1,1.37,1.16l-1.32,1.22a2.25,2.25,0,0,0-1.82-1c-1.52,0-2.3.94-2.32,2.89s.8,2.89,2.32,2.87a2.21,2.21,0,0,0,1.82-1Z"/><path class="cls-2" d="M405.47,141h1.8v5.5a2,2,0,0,0,.5,1.46,1.7,1.7,0,0,0,1.28.53,1.65,1.65,0,0,0,1.26-.53,2,2,0,0,0,.5-1.46V141h1.8v9.23h-1.8v-1h0a2.83,2.83,0,0,1-2.32,1.09,3,3,0,0,1-2-.83,2.91,2.91,0,0,1-1-2.36Z"/><path class="cls-2" d="M418.6,147.37a3.68,3.68,0,0,0,2.83,1.18,2.32,2.32,0,0,0,1.27-.31,1,1,0,0,0,.49-.87.76.76,0,0,0-.29-.69,1.55,1.55,0,0,0-.8-.23l-1.59-.14a3,3,0,0,1-1.84-.78,2.41,2.41,0,0,1-.74-1.84,2.51,2.51,0,0,1,1-2.13,3.72,3.72,0,0,1,2.36-.71,6.29,6.29,0,0,1,1.11.08,5.16,5.16,0,0,1,.92.24,5.4,5.4,0,0,1,1.48.94l-1.11,1.34a5.53,5.53,0,0,0-1.1-.64,3.53,3.53,0,0,0-1.31-.22,1.74,1.74,0,0,0-1.18.31,1,1,0,0,0-.35.8.62.62,0,0,0,.26.54,1.59,1.59,0,0,0,.92.33l1.48.12a2.73,2.73,0,0,1,2,.87,3,3,0,0,1,.58,1.89,2.44,2.44,0,0,1-1.06,2.08,4.46,4.46,0,0,1-2.64.76,5.61,5.61,0,0,1-3.94-1.65Z"/><path class="cls-2" d="M430.28,138.15h1.79V141h1.31v1.42h-1.31v5.38c0,.47.2.7.64.69h.67v1.74h-.93a2.07,2.07,0,0,1-1.55-.61,2.17,2.17,0,0,1-.62-1.67v-5.53h-.9V141h.9Z"/><path class="cls-2" d="M437.88,145.56a8.52,8.52,0,0,1,.23-2.24,3.7,3.7,0,0,1,1.78-2.11,3.67,3.67,0,0,1,1.68-.36,3.81,3.81,0,0,1,1.71.36,3.24,3.24,0,0,1,1,.83,3,3,0,0,1,.75,1.29,9,9,0,0,1,.22,2.23,8.85,8.85,0,0,1-.22,2.23,3.12,3.12,0,0,1-.76,1.32,2.31,2.31,0,0,1-.42.4,1.83,1.83,0,0,1-.57.38,3.44,3.44,0,0,1-1.72.4,3.3,3.3,0,0,1-1.67-.4,3.37,3.37,0,0,1-1-.78,3.56,3.56,0,0,1-.74-1.32A8.33,8.33,0,0,1,437.88,145.56Zm5.57,0a9.59,9.59,0,0,0-.08-1.44,1.77,1.77,0,0,0-.36-.77,1.34,1.34,0,0,0-.58-.49,2,2,0,0,0-1.71,0,1.64,1.64,0,0,0-.61.49,2.33,2.33,0,0,0-.33.77,6.84,6.84,0,0,0-.11,1.42,6.6,6.6,0,0,0,.11,1.41,2.55,2.55,0,0,0,.33.81,2.29,2.29,0,0,0,.61.47,1.93,1.93,0,0,0,1.71,0,1.75,1.75,0,0,0,.58-.47,1.92,1.92,0,0,0,.36-.81A9,9,0,0,0,443.45,145.58Z"/><path class="cls-2" d="M450.45,141h1.79v1h0a3,3,0,0,1,2.41-1.09,3.49,3.49,0,0,1,1.54.32,4.92,4.92,0,0,1,1.06.88,3.62,3.62,0,0,1,2.91-1.2,3.23,3.23,0,0,1,2.1.8,3.13,3.13,0,0,1,1,2.4v6.14h-1.79v-5.5a2,2,0,0,0-.52-1.48,1.8,1.8,0,0,0-1.33-.52,1.86,1.86,0,0,0-1.34.52,2,2,0,0,0-.53,1.48v5.5H456v-5.5a2,2,0,0,0-.52-1.48,2,2,0,0,0-2.67,0,1.93,1.93,0,0,0-.54,1.48v5.5h-1.79Z"/><path class="cls-2" d="M476.58,141h1.79v1a3.05,3.05,0,0,1,2.31-1.07,2.75,2.75,0,0,1,2.4,1.2,2.44,2.44,0,0,1,.51,1.15,15.77,15.77,0,0,1,.13,2.38,15.58,15.58,0,0,1-.13,2.35,2.63,2.63,0,0,1-.51,1.16,2.78,2.78,0,0,1-1,.86,3,3,0,0,1-1.43.34,2.39,2.39,0,0,1-1.23-.31,3.76,3.76,0,0,1-1.08-.77v4.71h-1.79Zm3.56,7.49a1.84,1.84,0,0,0,1-.25,1.5,1.5,0,0,0,.52-.66,3.73,3.73,0,0,0,.24-.93c0-.33,0-.68,0-1s0-.73,0-1.08a3.34,3.34,0,0,0-.24-.92,1.31,1.31,0,0,0-.52-.66,1.94,1.94,0,0,0-1-.23,1.63,1.63,0,0,0-1,.26,1.58,1.58,0,0,0-.54.68,3.27,3.27,0,0,0-.21.91,8.94,8.94,0,0,0-.06,1,7.93,7.93,0,0,0,.06,1,3.33,3.33,0,0,0,.21.94,1.58,1.58,0,0,0,.54.68A1.56,1.56,0,0,0,480.14,148.45Z"/><path class="cls-2" d="M489.12,141h1.8v1h0a3,3,0,0,1,4.21-.39l-1.31,1.61a1.87,1.87,0,0,0-1.18-.47,1.65,1.65,0,0,0-1.18.47,1.81,1.81,0,0,0-.57,1.46v5.57h-1.8Z"/><path class="cls-2" d="M499.35,137.23h1.8v1.85h-1.8Zm0,3.73h1.8v9.23h-1.8Z"/><path class="cls-2" d="M506.76,141h1.79v1h0a2.83,2.83,0,0,1,2.32-1.09,3.05,3.05,0,0,1,2,.8,3.19,3.19,0,0,1,.95,2.4v6.14H512.1v-5.5a2,2,0,0,0-.5-1.48,1.81,1.81,0,0,0-2.54,0,2,2,0,0,0-.51,1.48v5.5h-1.79Z"/><path class="cls-2" d="M519.74,138.15h1.79V141h1.31v1.42h-1.31v5.38c0,.47.2.7.64.69h.67v1.74h-.94a2,2,0,0,1-1.54-.61,2.14,2.14,0,0,1-.62-1.67v-5.53h-.9V141h.9Z"/><path class="cls-2" d="M527.83,137.23h1.8v1.85h-1.8Zm0,3.73h1.8v9.23h-1.8Z"/><path class="cls-2" d="M535.24,141H537v1h0a2.83,2.83,0,0,1,2.32-1.09,3,3,0,0,1,2,.8,3.15,3.15,0,0,1,1,2.4v6.14h-1.79v-5.5a2,2,0,0,0-.5-1.48,1.69,1.69,0,0,0-1.26-.52,1.72,1.72,0,0,0-1.28.52,2,2,0,0,0-.51,1.48v5.5h-1.79Z"/><path class="cls-2" d="M553.13,149.22a3,3,0,0,1-2.3,1.07,2.81,2.81,0,0,1-1.45-.38,3.12,3.12,0,0,1-.92-.75,3,3,0,0,1-.51-1.11,12,12,0,0,1-.16-2.47,12.55,12.55,0,0,1,.16-2.52,2.82,2.82,0,0,1,1.43-1.87,3.07,3.07,0,0,1,3.75.75v-1h1.79v9a3.73,3.73,0,0,1-3.87,4.07,4.07,4.07,0,0,1-3.1-1.55l1.4-1.14a3.22,3.22,0,0,0,.79.56,2.06,2.06,0,0,0,2.42-.25,2,2,0,0,0,.57-1.48Zm-3.55-3.64a11.28,11.28,0,0,0,.07,1.47,1.39,1.39,0,0,0,.29.69,1.62,1.62,0,0,0,.55.46,1.52,1.52,0,0,0,.88.25,1.49,1.49,0,0,0,.87-.25,1.68,1.68,0,0,0,.54-.46,1.5,1.5,0,0,0,.3-.69c0-.27,0-.76,0-1.47s0-1.22,0-1.5a1.34,1.34,0,0,0-.3-.67,2,2,0,0,0-.54-.49,1.86,1.86,0,0,0-.87-.23,1.9,1.9,0,0,0-.88.23,1.93,1.93,0,0,0-.55.49,1.25,1.25,0,0,0-.29.67A11.85,11.85,0,0,0,549.58,145.58Z"/><path class="cls-2" d="M560.7,148.34h1.8v1.85l-1.8,1.35Z"/><path class="cls-2" d="M580.26,149.37h0a1.56,1.56,0,0,1-.78.69,3.47,3.47,0,0,1-1.43.23,3.2,3.2,0,0,1-2.3-.81,2.6,2.6,0,0,1-.85-2,2.63,2.63,0,0,1,.74-1.93,2.87,2.87,0,0,1,2.16-.8h2.49v-1c0-.81-.6-1.21-1.83-1.18a3.05,3.05,0,0,0-1.06.14,1.31,1.31,0,0,0-.64.57l-1.41-1.11a3.42,3.42,0,0,1,3-1.34,4.61,4.61,0,0,1,2.69.65,2.73,2.73,0,0,1,1,2.38v6.31h-1.79Zm0-3.1H578.1c-1,0-1.56.4-1.55,1.12a1,1,0,0,0,.41.8,1.86,1.86,0,0,0,1.28.36,3.19,3.19,0,0,0,1.6-.27c.28-.2.42-.64.42-1.34Z"/><path class="cls-2" d="M587.76,141h1.8v1h0a2.84,2.84,0,0,1,2.32-1.09,3,3,0,0,1,2,.8,3.2,3.2,0,0,1,1,2.4v6.14h-1.8v-5.5a2,2,0,0,0-.5-1.48,1.66,1.66,0,0,0-1.26-.52,1.7,1.7,0,0,0-1.27.52,2,2,0,0,0-.51,1.48v5.5h-1.8Z"/><path class="cls-2" d="M606,149.22a3,3,0,0,1-2.32,1.07,2.82,2.82,0,0,1-1.38-.34,3.11,3.11,0,0,1-1-.86,2.32,2.32,0,0,1-.49-1.18,12.87,12.87,0,0,1-.15-2.35,12.7,12.7,0,0,1,.15-2.36,2.29,2.29,0,0,1,.49-1.15,2.75,2.75,0,0,1,2.39-1.2,2.73,2.73,0,0,1,1.27.29,5.07,5.07,0,0,1,1.05.79v-4.7h1.79v13H606Zm-1.77-6.53a1.74,1.74,0,0,0-1,.23,1.43,1.43,0,0,0-.55.66,3.67,3.67,0,0,0-.21.91c0,.35-.05.71-.05,1.07s0,.7.05,1a3.79,3.79,0,0,0,.21.95,1.52,1.52,0,0,0,1.52.91,1.68,1.68,0,0,0,1-.27,1.39,1.39,0,0,0,.51-.68,3.7,3.7,0,0,0,.23-.94c0-.34,0-.67,0-1s0-.69,0-1a3.68,3.68,0,0,0-.23-.91,1.39,1.39,0,0,0-.51-.68A1.75,1.75,0,0,0,604.21,142.69Z"/><path class="cls-2" d="M620.74,138.15h1.79V141h1.31v1.42h-1.31v5.38c0,.47.21.7.64.69h.67v1.74h-.93a2.07,2.07,0,0,1-1.55-.61,2.17,2.17,0,0,1-.62-1.67v-5.53h-.9V141h.9Z"/><path class="cls-2" d="M633.48,149.37h0a1.49,1.49,0,0,1-.77.69,3.5,3.5,0,0,1-1.43.23,3.17,3.17,0,0,1-2.3-.81,2.61,2.61,0,0,1-.86-2,2.67,2.67,0,0,1,.74-1.93,2.91,2.91,0,0,1,2.17-.8h2.49v-1c0-.81-.6-1.21-1.83-1.18a3,3,0,0,0-1.06.14,1.27,1.27,0,0,0-.64.57l-1.41-1.11a3.42,3.42,0,0,1,3-1.34,4.61,4.61,0,0,1,2.69.65,2.73,2.73,0,0,1,1,2.38v6.31h-1.79Zm0-3.1h-2.16c-1,0-1.56.4-1.55,1.12a1,1,0,0,0,.41.8,1.83,1.83,0,0,0,1.28.36,3.21,3.21,0,0,0,1.6-.27c.28-.2.42-.64.42-1.34Z"/><path class="cls-2" d="M641,137.23h1.8v1.85H641Zm0,3.73h1.8v9.23H641Z"/><path class="cls-2" d="M648.44,137.23h1.79v10.58c0,.42.23.64.68.64h.62v1.74h-.8a2.49,2.49,0,0,1-1.62-.51,2,2,0,0,1-.67-1.72Z"/><path class="cls-2" d="M655.78,145.56a8.52,8.52,0,0,1,.23-2.24,3.29,3.29,0,0,1,.74-1.29,3.41,3.41,0,0,1,1-.82,3.67,3.67,0,0,1,1.68-.36,3.81,3.81,0,0,1,1.71.36,3.24,3.24,0,0,1,1,.83,3,3,0,0,1,.75,1.29,8.51,8.51,0,0,1,.22,2.23,8.41,8.41,0,0,1-.22,2.23,3.21,3.21,0,0,1-.75,1.32,2.78,2.78,0,0,1-.43.4,1.83,1.83,0,0,1-.57.38,3.44,3.44,0,0,1-1.72.4,3.3,3.3,0,0,1-1.67-.4,3.37,3.37,0,0,1-1-.78,3.56,3.56,0,0,1-.74-1.32A8.33,8.33,0,0,1,655.78,145.56Zm5.57,0a9.59,9.59,0,0,0-.08-1.44,1.77,1.77,0,0,0-.36-.77,1.29,1.29,0,0,0-.58-.49,2,2,0,0,0-1.71,0,1.53,1.53,0,0,0-.6.49,2.15,2.15,0,0,0-.34.77,6.84,6.84,0,0,0-.11,1.42,6.6,6.6,0,0,0,.11,1.41,2.36,2.36,0,0,0,.34.81,2.09,2.09,0,0,0,.6.47,1.93,1.93,0,0,0,1.71,0,1.66,1.66,0,0,0,.58-.47,1.92,1.92,0,0,0,.36-.81A9,9,0,0,0,661.35,145.58Z"/><path class="cls-2" d="M668.42,141h1.8v1h0a2.85,2.85,0,0,1,2.33-1.09,2.81,2.81,0,0,1,1.87.7l-1.3,1.61a1.87,1.87,0,0,0-1.19-.47,1.66,1.66,0,0,0-1.18.47,1.84,1.84,0,0,0-.56,1.46v5.57h-1.8Z"/><path class="cls-2" d="M679.62,146.27a2.23,2.23,0,0,0,.62,1.7,2,2,0,0,0,1.51.58,2.63,2.63,0,0,0,2-.9l1.3,1.15a4.14,4.14,0,0,1-3.22,1.49,4.51,4.51,0,0,1-1.37-.21,3.31,3.31,0,0,1-.66-.31,3.14,3.14,0,0,1-.63-.42,3.65,3.65,0,0,1-.92-1.44,5.79,5.79,0,0,1-.39-2.31,6.66,6.66,0,0,1,.34-2.27,3.87,3.87,0,0,1,.86-1.46,3.27,3.27,0,0,1,1.2-.78,3.68,3.68,0,0,1,1.29-.24,3.62,3.62,0,0,1,2.59,1,3.81,3.81,0,0,1,1.09,2.86v1.52Zm3.78-1.52a2.46,2.46,0,0,0-.56-1.64,2,2,0,0,0-2.66,0,2.52,2.52,0,0,0-.56,1.64Z"/><path class="cls-2" d="M695.81,149.22a3,3,0,0,1-2.32,1.07,2.82,2.82,0,0,1-1.38-.34,3.11,3.11,0,0,1-1-.86,2.32,2.32,0,0,1-.49-1.18,13.1,13.1,0,0,1-.14-2.35,12.94,12.94,0,0,1,.14-2.36,2.29,2.29,0,0,1,.49-1.15,3,3,0,0,1,3.67-.91,5.3,5.3,0,0,1,1,.79v-4.7h1.79v13h-1.79ZM694,142.69a1.74,1.74,0,0,0-1,.23,1.35,1.35,0,0,0-.54.66,3.28,3.28,0,0,0-.22.91c0,.35,0,.71,0,1.07s0,.7,0,1a3.39,3.39,0,0,0,.22.95,1.55,1.55,0,0,0,.54.66,1.65,1.65,0,0,0,1,.25,1.68,1.68,0,0,0,1-.27,1.28,1.28,0,0,0,.51-.68,3.7,3.7,0,0,0,.23-.94c0-.34,0-.67,0-1s0-.69,0-1a3.68,3.68,0,0,0-.23-.91,1.28,1.28,0,0,0-.51-.68A1.75,1.75,0,0,0,694,142.69Z"/><path class="cls-2" d="M710.47,137.23h1.79v4.71a4.53,4.53,0,0,1,1.07-.8,2.55,2.55,0,0,1,1.24-.29,2.77,2.77,0,0,1,2.4,1.2,2.53,2.53,0,0,1,.5,1.15,21.4,21.4,0,0,1,0,4.71,2.42,2.42,0,0,1-.51,1.18,2.69,2.69,0,0,1-1,.86,3.06,3.06,0,0,1-3.73-.73v1h-1.79Zm3.55,5.46a1.58,1.58,0,0,0-.95.26,1.45,1.45,0,0,0-.54.68,3.28,3.28,0,0,0-.22.91c0,.33,0,.67,0,1s0,.66,0,1a3.32,3.32,0,0,0,.22.94,1.45,1.45,0,0,0,.54.68,1.51,1.51,0,0,0,.95.27,1.84,1.84,0,0,0,1-.25,1.53,1.53,0,0,0,.53-.66,3.78,3.78,0,0,0,.23-.95c0-.33,0-.67,0-1s0-.72,0-1.07a3.68,3.68,0,0,0-.23-.91,1.33,1.33,0,0,0-.53-.66A1.94,1.94,0,0,0,714,142.69Z"/><path class="cls-2" d="M723,141h1.79v1h0a3,3,0,0,1,4.2-.39l-1.31,1.61a1.85,1.85,0,0,0-1.18-.47,1.66,1.66,0,0,0-1.18.47,1.81,1.81,0,0,0-.57,1.46v5.57H723Z"/><path class="cls-2" d="M737.55,149.37h0a1.49,1.49,0,0,1-.77.69,3.47,3.47,0,0,1-1.43.23,3.17,3.17,0,0,1-2.3-.81,2.61,2.61,0,0,1-.86-2,2.67,2.67,0,0,1,.74-1.93,2.91,2.91,0,0,1,2.17-.8h2.49v-1c0-.81-.6-1.21-1.83-1.18a3,3,0,0,0-1.06.14,1.27,1.27,0,0,0-.64.57l-1.41-1.11a3.42,3.42,0,0,1,3-1.34,4.61,4.61,0,0,1,2.69.65,2.73,2.73,0,0,1,1,2.38v6.31h-1.79Zm0-3.1h-2.16c-1,0-1.56.4-1.55,1.12a1,1,0,0,0,.41.8,1.83,1.83,0,0,0,1.28.36,3.19,3.19,0,0,0,1.6-.27c.28-.2.42-.64.42-1.34Z"/><path class="cls-2" d="M745.05,141h1.79v1h0a2.83,2.83,0,0,1,2.32-1.09,3,3,0,0,1,2,.8,3.2,3.2,0,0,1,1,2.4v6.14h-1.8v-5.5a2,2,0,0,0-.5-1.48,1.67,1.67,0,0,0-1.26-.52,1.73,1.73,0,0,0-1.28.52,2,2,0,0,0-.51,1.48v5.5h-1.79Z"/><path class="cls-2" d="M763.26,149.22a3,3,0,0,1-2.31,1.07,2.82,2.82,0,0,1-1.38-.34,3,3,0,0,1-1-.86,2.32,2.32,0,0,1-.49-1.18,12.87,12.87,0,0,1-.15-2.35,12.7,12.7,0,0,1,.15-2.36,2.29,2.29,0,0,1,.49-1.15,3,3,0,0,1,3.66-.91,5,5,0,0,1,1,.79v-4.7h1.8v13h-1.8Zm-1.76-6.53a1.71,1.71,0,0,0-1,.23,1.43,1.43,0,0,0-.55.66,3.27,3.27,0,0,0-.21.91,9.47,9.47,0,0,0,0,1.07,8.56,8.56,0,0,0,0,1,3.4,3.4,0,0,0,.21.95,1.66,1.66,0,0,0,.55.66,1.63,1.63,0,0,0,1,.25,1.7,1.7,0,0,0,1-.27,1.31,1.31,0,0,0,.5-.68,3.32,3.32,0,0,0,.24-.94c0-.34,0-.67,0-1s0-.69,0-1a3.29,3.29,0,0,0-.24-.91,1.31,1.31,0,0,0-.5-.68A1.78,1.78,0,0,0,761.5,142.69Z"/><path class="cls-2" d="M770.52,137.23h1.79v1.85h-1.79Zm0,3.73h1.79v9.23h-1.79Z"/><path class="cls-2" d="M777.92,141h1.8v1h0a2.83,2.83,0,0,1,2.32-1.09,3,3,0,0,1,2,.8,3.2,3.2,0,0,1,1,2.4v6.14h-1.8v-5.5a2,2,0,0,0-.5-1.48,1.67,1.67,0,0,0-1.26-.52,1.73,1.73,0,0,0-1.28.52,2,2,0,0,0-.5,1.48v5.5h-1.8Z"/><path class="cls-2" d="M795.81,149.22a3,3,0,0,1-2.3,1.07,2.81,2.81,0,0,1-1.45-.38,3.26,3.26,0,0,1-.92-.75,2.83,2.83,0,0,1-.5-1.11,11.8,11.8,0,0,1-.17-2.47,12.32,12.32,0,0,1,.17-2.52,2.74,2.74,0,0,1,.5-1.09,2.88,2.88,0,0,1,2.37-1.12,3,3,0,0,1,2.3,1.09v-1h1.8v9a3.73,3.73,0,0,1-3.88,4.07,4,4,0,0,1-3.09-1.55l1.39-1.14a3.22,3.22,0,0,0,.79.56,2,2,0,0,0,.95.28,2.1,2.1,0,0,0,1.48-.53,2,2,0,0,0,.56-1.48Zm-3.54-3.64a11.85,11.85,0,0,0,.06,1.47,1.49,1.49,0,0,0,.29.69,1.62,1.62,0,0,0,.55.46,1.67,1.67,0,0,0,1.76,0,1.74,1.74,0,0,0,.53-.46,1.5,1.5,0,0,0,.3-.69,12.48,12.48,0,0,0,0-1.47,13.09,13.09,0,0,0,0-1.5,1.34,1.34,0,0,0-.3-.67,2.12,2.12,0,0,0-.53-.49,1.77,1.77,0,0,0-2.31.49,1.33,1.33,0,0,0-.29.67A12.44,12.44,0,0,0,792.27,145.58Z"/><path class="cls-2" d="M811.05,147.37a3.68,3.68,0,0,0,2.83,1.18,2.32,2.32,0,0,0,1.27-.31,1,1,0,0,0,.5-.87.76.76,0,0,0-.3-.69,1.55,1.55,0,0,0-.8-.23l-1.59-.14a3,3,0,0,1-1.83-.78,2.42,2.42,0,0,1-.75-1.84,2.54,2.54,0,0,1,1-2.13,3.72,3.72,0,0,1,2.36-.71,6.29,6.29,0,0,1,1.11.08,5.16,5.16,0,0,1,.92.24,5.4,5.4,0,0,1,1.48.94l-1.11,1.34a5.26,5.26,0,0,0-1.1-.64,3.49,3.49,0,0,0-1.31-.22,1.74,1.74,0,0,0-1.18.31,1,1,0,0,0-.35.8.61.61,0,0,0,.27.54,1.52,1.52,0,0,0,.91.33l1.48.12a2.73,2.73,0,0,1,2,.87,3,3,0,0,1,.58,1.89,2.44,2.44,0,0,1-1.06,2.08,4.46,4.46,0,0,1-2.64.76,5.61,5.61,0,0,1-3.94-1.65Z"/><path class="cls-2" d="M822.18,145.56a8.52,8.52,0,0,1,.23-2.24,3.29,3.29,0,0,1,.74-1.29,3.36,3.36,0,0,1,1-.82,3.73,3.73,0,0,1,1.68-.36,3.82,3.82,0,0,1,1.72.36,3.08,3.08,0,0,1,1,.83,2.9,2.9,0,0,1,.76,1.29,9,9,0,0,1,.22,2.23,8.85,8.85,0,0,1-.22,2.23,3.12,3.12,0,0,1-.76,1.32,2.31,2.31,0,0,1-.42.4,1.77,1.77,0,0,1-.58.38,3.79,3.79,0,0,1-3.39,0,3.44,3.44,0,0,1-1-.78,3.56,3.56,0,0,1-.74-1.32A8.33,8.33,0,0,1,822.18,145.56Zm5.57,0a8.16,8.16,0,0,0-.09-1.44,1.65,1.65,0,0,0-.35-.77,1.34,1.34,0,0,0-.58-.49,2,2,0,0,0-1.71,0,1.64,1.64,0,0,0-.61.49,2.33,2.33,0,0,0-.33.77,6.84,6.84,0,0,0-.11,1.42,6.6,6.6,0,0,0,.11,1.41,2.55,2.55,0,0,0,.33.81,2.29,2.29,0,0,0,.61.47,1.93,1.93,0,0,0,1.71,0,1.75,1.75,0,0,0,.58-.47,1.79,1.79,0,0,0,.35-.81A7.66,7.66,0,0,0,827.75,145.58Z"/><path class="cls-2" d="M834.82,137.23h1.79v10.58c0,.42.23.64.68.64h.62v1.74h-.8a2.49,2.49,0,0,1-1.62-.51,2,2,0,0,1-.67-1.72Z"/><path class="cls-2" d="M842.61,141h1.79v5.5a2,2,0,0,0,.51,1.46,1.79,1.79,0,0,0,2.54,0,2.05,2.05,0,0,0,.5-1.46V141h1.79v9.23H848v-1h0a2.82,2.82,0,0,1-2.31,1.09,3,3,0,0,1-2-.83,2.93,2.93,0,0,1-1-2.36Z"/><path class="cls-2" d="M855.58,138.15h1.8V141h1.31v1.42h-1.31v5.38c0,.47.2.7.63.69h.68v1.74h-.94a2.07,2.07,0,0,1-1.55-.61,2.17,2.17,0,0,1-.62-1.67v-5.53h-.9V141h.9Z"/><path class="cls-2" d="M863.68,137.23h1.8v1.85h-1.8Zm0,3.73h1.8v9.23h-1.8Z"/><path class="cls-2" d="M870.64,145.56a8.52,8.52,0,0,1,.23-2.24,3.29,3.29,0,0,1,.74-1.29,3.41,3.41,0,0,1,1-.82,3.67,3.67,0,0,1,1.68-.36,3.81,3.81,0,0,1,1.71.36,3.24,3.24,0,0,1,1,.83,2.88,2.88,0,0,1,.75,1.29,8.51,8.51,0,0,1,.22,2.23,8.41,8.41,0,0,1-.22,2.23,3.21,3.21,0,0,1-.75,1.32,2.78,2.78,0,0,1-.43.4,1.83,1.83,0,0,1-.57.38,3.44,3.44,0,0,1-1.72.4,3.3,3.3,0,0,1-1.67-.4,3.49,3.49,0,0,1-1-.78,3.56,3.56,0,0,1-.74-1.32A8.33,8.33,0,0,1,870.64,145.56Zm5.57,0a8.4,8.4,0,0,0-.08-1.44,1.77,1.77,0,0,0-.36-.77,1.29,1.29,0,0,0-.58-.49,2,2,0,0,0-1.71,0,1.53,1.53,0,0,0-.6.49,2.15,2.15,0,0,0-.34.77,7,7,0,0,0-.1,1.42,6.76,6.76,0,0,0,.1,1.41,2.36,2.36,0,0,0,.34.81,2.09,2.09,0,0,0,.6.47,1.93,1.93,0,0,0,1.71,0,1.66,1.66,0,0,0,.58-.47,1.92,1.92,0,0,0,.36-.81A7.88,7.88,0,0,0,876.21,145.58Z"/><path class="cls-2" d="M883.28,141h1.79v1h0a2.83,2.83,0,0,1,2.32-1.09,3,3,0,0,1,2,.8,3.2,3.2,0,0,1,1,2.4v6.14h-1.8v-5.5a2,2,0,0,0-.5-1.48,1.67,1.67,0,0,0-1.26-.52,1.73,1.73,0,0,0-1.28.52,2,2,0,0,0-.51,1.48v5.5h-1.79Z"/><path class="cls-2" d="M896.41,147.37a3.68,3.68,0,0,0,2.83,1.18,2.32,2.32,0,0,0,1.27-.31,1,1,0,0,0,.49-.87.76.76,0,0,0-.29-.69,1.55,1.55,0,0,0-.8-.23l-1.59-.14a3,3,0,0,1-1.83-.78,2.38,2.38,0,0,1-.75-1.84,2.51,2.51,0,0,1,1-2.13,3.72,3.72,0,0,1,2.36-.71,6.29,6.29,0,0,1,1.11.08,5.16,5.16,0,0,1,.92.24,5.4,5.4,0,0,1,1.48.94l-1.11,1.34a5.53,5.53,0,0,0-1.1-.64,3.53,3.53,0,0,0-1.31-.22,1.72,1.72,0,0,0-1.18.31,1,1,0,0,0-.35.8.62.62,0,0,0,.26.54,1.59,1.59,0,0,0,.92.33l1.48.12a2.73,2.73,0,0,1,2,.87,3,3,0,0,1,.58,1.89,2.44,2.44,0,0,1-1.06,2.08,4.46,4.46,0,0,1-2.64.76,5.59,5.59,0,0,1-3.94-1.65Z"/><path class="cls-2" d="M908,148.34h1.79v1.85H908Z"/><path class="cls-2" d="M406,192.91a3,3,0,0,1-2.31,1.07,2.68,2.68,0,0,1-1.44-.39,3.1,3.1,0,0,1-.92-.74,2.84,2.84,0,0,1-.51-1.11,12.2,12.2,0,0,1-.16-2.48,12.43,12.43,0,0,1,.16-2.51,2.8,2.8,0,0,1,.51-1.1,2.75,2.75,0,0,1,.92-.77,3,3,0,0,1,3.75.74v-1h1.79v9a3.72,3.72,0,0,1-3.87,4.06,4.06,4.06,0,0,1-3.1-1.54l1.4-1.15a3.33,3.33,0,0,0,.79.57,2,2,0,0,0,.94.27,2.06,2.06,0,0,0,1.48-.52,2,2,0,0,0,.57-1.49Zm-3.55-3.64a9.63,9.63,0,0,0,.07,1.46,1.52,1.52,0,0,0,.28.7,1.9,1.9,0,0,0,.56.45,1.66,1.66,0,0,0,1.75,0,1.79,1.79,0,0,0,.54-.45,1.54,1.54,0,0,0,.3-.7c0-.27,0-.76,0-1.46s0-1.22,0-1.5a1.38,1.38,0,0,0-.3-.68,2.19,2.19,0,0,0-.54-.49,1.85,1.85,0,0,0-1.75,0,2.33,2.33,0,0,0-.56.49,1.36,1.36,0,0,0-.28.68A10.17,10.17,0,0,0,402.47,189.27Z"/><path class="cls-2" d="M413.59,180.91h1.8v1.85h-1.8Zm0,3.74h1.8v9.22h-1.8Z"/><path class="cls-2" d="M419.73,184.65h1.9l2.1,6.46h0l2.09-6.46h1.91l-3.28,9.22H423Z"/><path class="cls-2" d="M433.41,190a2.22,2.22,0,0,0,.62,1.69,2,2,0,0,0,1.52.59,2.66,2.66,0,0,0,2-.9l1.3,1.15a4.2,4.2,0,0,1-3.22,1.49,4.33,4.33,0,0,1-1.38-.22,5.58,5.58,0,0,1-1.28-.72,3.69,3.69,0,0,1-.92-1.44,5.85,5.85,0,0,1-.39-2.31A6.45,6.45,0,0,1,432,187a4,4,0,0,1,.86-1.46,3.16,3.16,0,0,1,1.19-.78,3.76,3.76,0,0,1,1.29-.24,3.64,3.64,0,0,1,2.59,1,3.83,3.83,0,0,1,1.1,2.86V190Zm3.78-1.53a2.38,2.38,0,0,0-.56-1.63,1.79,1.79,0,0,0-1.33-.53,1.76,1.76,0,0,0-1.32.53,2.54,2.54,0,0,0-.57,1.63Z"/><path class="cls-2" d="M451.72,184.65h1.79v5.5a2,2,0,0,0,.51,1.45,1.79,1.79,0,0,0,2.54,0,2,2,0,0,0,.5-1.45v-5.5h1.79v9.22h-1.79v-1h0a2.87,2.87,0,0,1-2.32,1.1,3.13,3.13,0,0,1-3-3.2Z"/><path class="cls-2" d="M464.85,191.05a3.68,3.68,0,0,0,2.83,1.19,2.41,2.41,0,0,0,1.27-.31,1,1,0,0,0,.49-.88.78.78,0,0,0-.29-.69,1.46,1.46,0,0,0-.8-.22l-1.59-.14a2.93,2.93,0,0,1-1.84-.79,2.4,2.4,0,0,1-.74-1.84,2.55,2.55,0,0,1,1-2.13,3.81,3.81,0,0,1,2.36-.71,7.45,7.45,0,0,1,1.12.08,5.41,5.41,0,0,1,.92.25,5.29,5.29,0,0,1,1.48.93l-1.11,1.34a5.49,5.49,0,0,0-1.1-.63,3.56,3.56,0,0,0-1.31-.23,1.78,1.78,0,0,0-1.18.31,1,1,0,0,0-.36.8.66.66,0,0,0,.27.55,1.56,1.56,0,0,0,.92.33l1.48.11a2.75,2.75,0,0,1,2,.87,3,3,0,0,1,.58,1.9,2.45,2.45,0,0,1-1.06,2.07,4.47,4.47,0,0,1-2.65.77,5.57,5.57,0,0,1-3.93-1.65Z"/><path class="cls-2" d="M488.57,193.05h0a1.53,1.53,0,0,1-.78.7,3.64,3.64,0,0,1-1.43.23,3.2,3.2,0,0,1-2.3-.82,2.59,2.59,0,0,1-.85-2,2.63,2.63,0,0,1,.74-1.93,2.87,2.87,0,0,1,2.16-.8h2.49v-1c0-.82-.6-1.21-1.83-1.19a3.31,3.31,0,0,0-1.06.14,1.38,1.38,0,0,0-.64.58l-1.41-1.12a3.44,3.44,0,0,1,3-1.34,4.69,4.69,0,0,1,2.69.66,2.71,2.71,0,0,1,1,2.38v6.3h-1.79Zm0-3.09h-2.16c-1,0-1.56.39-1.55,1.11a1,1,0,0,0,.41.8,1.81,1.81,0,0,0,1.28.37,3,3,0,0,0,1.6-.28c.28-.2.42-.64.42-1.33Z"/><path class="cls-2" d="M510.11,192.39a4.82,4.82,0,0,1-1.38,1.12,3.77,3.77,0,0,1-1.83.47,4,4,0,0,1-2.78-1.11,4.68,4.68,0,0,1-1.27-3.6,4.81,4.81,0,0,1,1.27-3.65,3.9,3.9,0,0,1,2.78-1.09,4,4,0,0,1,1.83.44,4.64,4.64,0,0,1,1.38,1.16l-1.33,1.22a2.22,2.22,0,0,0-1.81-1c-1.53,0-2.31.94-2.33,2.89s.8,2.89,2.33,2.86a2.16,2.16,0,0,0,1.81-1Z"/><path class="cls-2" d="M519.4,193.05h0a1.47,1.47,0,0,1-.77.7,3.68,3.68,0,0,1-1.43.23,3.21,3.21,0,0,1-2.31-.82,2.62,2.62,0,0,1-.85-2,2.67,2.67,0,0,1,.74-1.93,2.91,2.91,0,0,1,2.17-.8h2.49v-1c0-.82-.6-1.21-1.84-1.19a3.35,3.35,0,0,0-1.06.14,1.36,1.36,0,0,0-.63.58l-1.41-1.12a3.44,3.44,0,0,1,3-1.34,4.69,4.69,0,0,1,2.69.66,2.71,2.71,0,0,1,1,2.38v6.3H519.4Zm0-3.09h-2.16c-1,0-1.56.39-1.55,1.11a1,1,0,0,0,.4.8,1.83,1.83,0,0,0,1.29.37A3,3,0,0,0,519,192c.29-.2.43-.64.43-1.33Z"/><path class="cls-2" d="M526.9,180.91h1.79V191.5c0,.42.23.63.68.63H530v1.74h-.8a2.55,2.55,0,0,1-1.62-.5,2,2,0,0,1-.67-1.73Z"/><path class="cls-2" d="M534.69,180.91h1.79V191.5c0,.42.22.63.67.63h.63v1.74H537a2.55,2.55,0,0,1-1.62-.5,2,2,0,0,1-.67-1.73Z"/><path class="cls-2" d="M542.53,192h1.79v1.85l-1.79,1.35Z"/><path class="cls-2" d="M562.08,193.05h0a1.53,1.53,0,0,1-.78.7,3.62,3.62,0,0,1-1.42.23,3.21,3.21,0,0,1-2.31-.82,2.59,2.59,0,0,1-.85-2,2.63,2.63,0,0,1,.74-1.93,2.88,2.88,0,0,1,2.17-.8h2.48v-1c0-.82-.6-1.21-1.83-1.19a3.31,3.31,0,0,0-1.06.14,1.38,1.38,0,0,0-.64.58l-1.41-1.12a3.44,3.44,0,0,1,3-1.34,4.69,4.69,0,0,1,2.69.66,2.74,2.74,0,0,1,1,2.38v6.3h-1.8Zm0-3.09h-2.15q-1.57,0-1.56,1.11a1,1,0,0,0,.41.8,1.83,1.83,0,0,0,1.29.37,3,3,0,0,0,1.59-.28c.28-.2.42-.64.42-1.33Z"/><path class="cls-2" d="M569.58,184.65h1.8v1h0a2.85,2.85,0,0,1,2.33-1.09,3,3,0,0,1,2,.81,3.2,3.2,0,0,1,1,2.4v6.13h-1.79v-5.5a2,2,0,0,0-.5-1.48,1.84,1.84,0,0,0-2.54,0,2,2,0,0,0-.51,1.48v5.5h-1.8Z"/><path class="cls-2" d="M587.8,192.91a3,3,0,0,1-2.32,1.07,2.85,2.85,0,0,1-1.38-.35,3.08,3.08,0,0,1-1-.85,2.45,2.45,0,0,1-.49-1.19,12.9,12.9,0,0,1-.14-2.34,13.14,13.14,0,0,1,.14-2.37,2.42,2.42,0,0,1,.49-1.15,2.75,2.75,0,0,1,2.39-1.2,2.9,2.9,0,0,1,1.28.29,5.08,5.08,0,0,1,1,.8v-4.71h1.79v13H587.8ZM586,186.38a1.74,1.74,0,0,0-1,.22,1.35,1.35,0,0,0-.54.66,3.67,3.67,0,0,0-.22.91c0,.35,0,.71,0,1.08s0,.69,0,1a3.68,3.68,0,0,0,.22.95,1.44,1.44,0,0,0,.54.66,1.58,1.58,0,0,0,1,.25,1.68,1.68,0,0,0,1-.27,1.28,1.28,0,0,0,.51-.68,3.62,3.62,0,0,0,.23-.93c0-.34,0-.67,0-1s0-.7,0-1a3.79,3.79,0,0,0-.23-.91,1.29,1.29,0,0,0-.51-.67A1.68,1.68,0,0,0,586,186.38Z"/><path class="cls-2" d="M602.72,191.05a3.68,3.68,0,0,0,2.83,1.19,2.41,2.41,0,0,0,1.27-.31,1,1,0,0,0,.49-.88.78.78,0,0,0-.29-.69,1.49,1.49,0,0,0-.81-.22l-1.58-.14a2.91,2.91,0,0,1-1.84-.79,2.4,2.4,0,0,1-.74-1.84,2.53,2.53,0,0,1,1-2.13,3.81,3.81,0,0,1,2.36-.71,7.22,7.22,0,0,1,1.11.08,5,5,0,0,1,.92.25,5.2,5.2,0,0,1,1.49.93l-1.12,1.34a5.41,5.41,0,0,0-1.09-.63,3.56,3.56,0,0,0-1.31-.23,1.76,1.76,0,0,0-1.18.31,1,1,0,0,0-.36.8.66.66,0,0,0,.27.55,1.55,1.55,0,0,0,.91.33l1.49.11a2.71,2.71,0,0,1,2,.87,3,3,0,0,1,.58,1.9,2.4,2.4,0,0,1-1.06,2.07,4.46,4.46,0,0,1-2.64.77,5.61,5.61,0,0,1-3.94-1.65Z"/><path class="cls-2" d="M615.64,190a2.18,2.18,0,0,0,.62,1.69,2,2,0,0,0,1.51.59,2.66,2.66,0,0,0,2-.9l1.3,1.15a4.19,4.19,0,0,1-3.22,1.49,4.33,4.33,0,0,1-1.38-.22,3,3,0,0,1-.65-.31,3.58,3.58,0,0,1-.63-.41,3.81,3.81,0,0,1-.92-1.44,5.85,5.85,0,0,1-.39-2.31,6.45,6.45,0,0,1,.34-2.28,4,4,0,0,1,.86-1.46,3.11,3.11,0,0,1,1.2-.78,3.7,3.7,0,0,1,3.88.8,3.87,3.87,0,0,1,1.09,2.86V190Zm3.77-1.53a2.34,2.34,0,0,0-.56-1.63,1.76,1.76,0,0,0-1.32-.53,1.79,1.79,0,0,0-1.33.53,2.49,2.49,0,0,0-.56,1.63Z"/><path class="cls-2" d="M627.83,190a2.22,2.22,0,0,0,.62,1.69,2,2,0,0,0,1.52.59,2.62,2.62,0,0,0,1.95-.9l1.3,1.15A4.17,4.17,0,0,1,630,194a4.23,4.23,0,0,1-1.37-.22,3.27,3.27,0,0,1-.66-.31,3.17,3.17,0,0,1-.62-.41,3.82,3.82,0,0,1-.93-1.44,6.06,6.06,0,0,1-.38-2.31,6.7,6.7,0,0,1,.33-2.28,4.09,4.09,0,0,1,.86-1.46,3.27,3.27,0,0,1,1.2-.78,3.76,3.76,0,0,1,1.29-.24,3.64,3.64,0,0,1,2.59,1,3.83,3.83,0,0,1,1.09,2.86V190Zm3.78-1.53a2.38,2.38,0,0,0-.56-1.63,1.93,1.93,0,0,0-2.66,0,2.54,2.54,0,0,0-.56,1.63Z"/><path class="cls-2" d="M644.85,184.65h1.9l2.11,6.46h0l2.11-6.46h1.9l-3.84,11.13a2.67,2.67,0,0,1-1,1.44,2.89,2.89,0,0,1-1.5.38H646v-1.74h.52a1.21,1.21,0,0,0,.66-.19,1.09,1.09,0,0,0,.42-.61l.49-1.55Z"/><path class="cls-2" d="M656.76,189.25A8.52,8.52,0,0,1,657,187a3.22,3.22,0,0,1,.74-1.29,3.38,3.38,0,0,1,1-.83,3.73,3.73,0,0,1,1.68-.36,3.82,3.82,0,0,1,1.72.36,3.38,3.38,0,0,1,1,.83,3,3,0,0,1,.75,1.29,9.14,9.14,0,0,1,.21,2.24,8.91,8.91,0,0,1-.21,2.22,3.22,3.22,0,0,1-.76,1.33,2.71,2.71,0,0,1-.42.4,2.16,2.16,0,0,1-.58.38,3.79,3.79,0,0,1-3.39,0,3.44,3.44,0,0,1-1-.78,3.69,3.69,0,0,1-.74-1.33A7.9,7.9,0,0,1,656.76,189.25Zm5.57,0a8.37,8.37,0,0,0-.09-1.45,1.61,1.61,0,0,0-.35-.76,1.33,1.33,0,0,0-.59-.5,1.91,1.91,0,0,0-.86-.18,1.82,1.82,0,0,0-.84.19,1.54,1.54,0,0,0-.61.49,2.09,2.09,0,0,0-.33.76,7,7,0,0,0-.11,1.43,6.73,6.73,0,0,0,.11,1.41,2.29,2.29,0,0,0,.33.8,2.11,2.11,0,0,0,.61.47,1.83,1.83,0,0,0,.84.2,1.79,1.79,0,0,0,.86-.2,1.59,1.59,0,0,0,.59-.47,1.75,1.75,0,0,0,.35-.8A7.74,7.74,0,0,0,662.33,189.27Z"/><path class="cls-2" d="M669.4,184.65h1.79v5.5a2,2,0,0,0,.51,1.45,1.79,1.79,0,0,0,2.54,0,2,2,0,0,0,.5-1.45v-5.5h1.79v9.22h-1.79v-1h0a2.83,2.83,0,0,1-2.31,1.1,3.13,3.13,0,0,1-3-3.2Z"/><path class="cls-2" d="M682.27,184.65h1.79v1h0a2.94,2.94,0,0,1,4.2-.38l-1.31,1.6a1.84,1.84,0,0,0-1.18-.46,1.65,1.65,0,0,0-1.18.46,1.82,1.82,0,0,0-.57,1.47v5.56h-1.79Z"/><path class="cls-2" d="M699.9,180.91h1.8v4.71a4.6,4.6,0,0,1,1.07-.8,2.6,2.6,0,0,1,1.23-.29,2.73,2.73,0,0,1,2.4,1.21,2.4,2.4,0,0,1,.51,1.14,21.49,21.49,0,0,1,0,4.72,2.47,2.47,0,0,1-.51,1.18,2.67,2.67,0,0,1-1,.85,3,3,0,0,1-3.73-.72v1h-1.8Zm3.56,5.47a1.51,1.51,0,0,0-1,.26,1.56,1.56,0,0,0-.55.67,3.78,3.78,0,0,0-.21.91c0,.33,0,.67,0,1s0,.66,0,1a3.63,3.63,0,0,0,.21.93,1.53,1.53,0,0,0,.55.68,1.51,1.51,0,0,0,1,.27,1.76,1.76,0,0,0,1-.25,1.42,1.42,0,0,0,.53-.66,3.67,3.67,0,0,0,.23-.95c0-.33,0-.67,0-1s0-.73,0-1.08a3.68,3.68,0,0,0-.23-.91,1.33,1.33,0,0,0-.53-.66A1.94,1.94,0,0,0,703.46,186.38Z"/><path class="cls-2" d="M712.45,184.65h1.79v1h0a2.94,2.94,0,0,1,4.2-.38l-1.31,1.6a1.84,1.84,0,0,0-1.18-.46,1.65,1.65,0,0,0-1.18.46,1.82,1.82,0,0,0-.57,1.47v5.56h-1.79Z"/><path class="cls-2" d="M727,193.05h0a1.47,1.47,0,0,1-.77.7,3.68,3.68,0,0,1-1.43.23,3.17,3.17,0,0,1-2.3-.82,2.59,2.59,0,0,1-.86-2,2.67,2.67,0,0,1,.74-1.93,2.91,2.91,0,0,1,2.17-.8H727v-1c0-.82-.6-1.21-1.83-1.19a3.27,3.27,0,0,0-1.06.14,1.33,1.33,0,0,0-.64.58l-1.41-1.12a3.44,3.44,0,0,1,3-1.34,4.69,4.69,0,0,1,2.69.66,2.71,2.71,0,0,1,1,2.38v6.3H727Zm0-3.09h-2.16c-1,0-1.56.39-1.55,1.11a1,1,0,0,0,.41.8,1.78,1.78,0,0,0,1.28.37,3.09,3.09,0,0,0,1.6-.28c.28-.2.42-.64.42-1.33Z"/><path class="cls-2" d="M734.49,184.65h1.79v1h0a2.83,2.83,0,0,1,2.32-1.09,3,3,0,0,1,2,.81,3.16,3.16,0,0,1,1,2.4v6.13h-1.8v-5.5a2,2,0,0,0-.5-1.48,1.68,1.68,0,0,0-1.26-.51,1.71,1.71,0,0,0-1.28.51,2,2,0,0,0-.51,1.48v5.5h-1.79Z"/><path class="cls-2" d="M752.7,192.91a3,3,0,0,1-2.31,1.07,2.89,2.89,0,0,1-1.39-.35,3,3,0,0,1-1-.85,2.36,2.36,0,0,1-.49-1.19,12.67,12.67,0,0,1-.15-2.34,12.9,12.9,0,0,1,.15-2.37,2.33,2.33,0,0,1,.49-1.15,2.74,2.74,0,0,1,2.39-1.2,2.85,2.85,0,0,1,1.27.29,5.08,5.08,0,0,1,1,.8v-4.71h1.8v13h-1.8Zm-1.76-6.53a1.78,1.78,0,0,0-1,.22,1.47,1.47,0,0,0-.54.66,3.27,3.27,0,0,0-.21.91,9.54,9.54,0,0,0-.05,1.08,8.5,8.5,0,0,0,.05,1,3.32,3.32,0,0,0,.21.95,1.58,1.58,0,0,0,.54.66,1.61,1.61,0,0,0,1,.25,1.65,1.65,0,0,0,1-.27,1.28,1.28,0,0,0,.51-.68,3.25,3.25,0,0,0,.24-.93c0-.34,0-.67,0-1s0-.7,0-1a3.39,3.39,0,0,0-.24-.91,1.29,1.29,0,0,0-.51-.67A1.65,1.65,0,0,0,750.94,186.38Z"/><path class="cls-2" d="M767.65,186.07h-.91v-1.42h.91v-1.22a2.46,2.46,0,0,1,.7-1.94,2.64,2.64,0,0,1,1.73-.58h1.16v1.74h-1c-.55,0-.81.24-.78.77v1.23h1.8v1.42h-1.8v7.8h-1.79Z"/><path class="cls-2" d="M775.51,184.65h1.8v5.5a2,2,0,0,0,.5,1.45,1.67,1.67,0,0,0,1.28.53,1.6,1.6,0,0,0,1.26-.53,2,2,0,0,0,.5-1.45v-5.5h1.8v9.22h-1.8v-1h0a2.83,2.83,0,0,1-2.31,1.1,3,3,0,0,1-2-.84,2.9,2.9,0,0,1-1-2.36Z"/><path class="cls-2" d="M788.38,180.91h1.8V191.5c0,.42.22.63.67.63h.62v1.74h-.8a2.59,2.59,0,0,1-1.62-.5,2.08,2.08,0,0,1-.67-1.73Z"/><path class="cls-2" d="M796.17,180.91H798V191.5c0,.42.23.63.68.63h.62v1.74h-.8a2.59,2.59,0,0,1-1.62-.5,2,2,0,0,1-.67-1.73Z"/><path class="cls-2" d="M802.67,184.65h1.9l2.12,6.46h0l2.11-6.46h1.91l-3.85,11.13a2.62,2.62,0,0,1-1,1.44,2.89,2.89,0,0,1-1.5.38h-.59v-1.74h.52a1.18,1.18,0,0,0,.66-.19,1.09,1.09,0,0,0,.42-.61l.49-1.55Z"/><path class="cls-2" d="M822.59,184.65h1.79v1h0a2.94,2.94,0,0,1,4.2-.38l-1.31,1.6a1.84,1.84,0,0,0-1.18-.46,1.65,1.65,0,0,0-1.18.46,1.82,1.82,0,0,0-.57,1.47v5.56h-1.79Z"/><path class="cls-2" d="M833.79,190a2.18,2.18,0,0,0,.62,1.69,2,2,0,0,0,1.51.59,2.66,2.66,0,0,0,2-.9l1.3,1.15A4.19,4.19,0,0,1,836,194a4.33,4.33,0,0,1-1.38-.22,3,3,0,0,1-.65-.31,3.58,3.58,0,0,1-.63-.41,3.81,3.81,0,0,1-.92-1.44,5.85,5.85,0,0,1-.39-2.31,6.45,6.45,0,0,1,.34-2.28,4,4,0,0,1,.86-1.46,3.11,3.11,0,0,1,1.2-.78,3.7,3.7,0,0,1,3.88.8,3.87,3.87,0,0,1,1.09,2.86V190Zm3.78-1.53a2.39,2.39,0,0,0-.57-1.63,1.76,1.76,0,0,0-1.32-.53,1.79,1.79,0,0,0-1.33.53,2.49,2.49,0,0,0-.56,1.63Z"/><path class="cls-2" d="M849.32,193.05h0a1.51,1.51,0,0,1-.77.7,3.68,3.68,0,0,1-1.43.23,3.21,3.21,0,0,1-2.31-.82,2.59,2.59,0,0,1-.85-2,2.67,2.67,0,0,1,.74-1.93,2.9,2.9,0,0,1,2.17-.8h2.48v-1c0-.82-.59-1.21-1.83-1.19a3.31,3.31,0,0,0-1.06.14,1.31,1.31,0,0,0-.63.58l-1.42-1.12a3.46,3.46,0,0,1,3-1.34,4.72,4.72,0,0,1,2.7.66,2.71,2.71,0,0,1,1,2.38v6.3h-1.8Zm0-3.09h-2.15c-1,0-1.56.39-1.55,1.11a1,1,0,0,0,.4.8,1.83,1.83,0,0,0,1.29.37,3,3,0,0,0,1.59-.28c.28-.2.42-.64.42-1.33Z"/><path class="cls-2" d="M856.83,180.91h1.79V191.5c0,.42.23.63.67.63h.63v1.74h-.8a2.55,2.55,0,0,1-1.62-.5,2,2,0,0,1-.67-1.73Z"/><path class="cls-2" d="M864.67,180.91h1.79v1.85h-1.79Zm0,3.74h1.79v9.22h-1.79Z"/><path class="cls-2" d="M871.49,192.4l4.47-6.12h-4.37v-1.63h6.56v1.47l-4.62,6h4.62v1.74h-6.66Z"/><path class="cls-2" d="M884.6,190a2.18,2.18,0,0,0,.62,1.69,2,2,0,0,0,1.51.59,2.66,2.66,0,0,0,2-.9l1.3,1.15a4.19,4.19,0,0,1-3.22,1.49,4.33,4.33,0,0,1-1.38-.22,3,3,0,0,1-.65-.31,3.24,3.24,0,0,1-.63-.41,3.69,3.69,0,0,1-.92-1.44,5.85,5.85,0,0,1-.39-2.31,6.45,6.45,0,0,1,.34-2.28,4,4,0,0,1,.86-1.46,3.16,3.16,0,0,1,1.19-.78,3.77,3.77,0,0,1,1.3-.24,3.62,3.62,0,0,1,2.58,1,3.83,3.83,0,0,1,1.1,2.86V190Zm3.77-1.53a2.38,2.38,0,0,0-.56-1.63,1.92,1.92,0,0,0-2.65,0,2.49,2.49,0,0,0-.56,1.63Z"/><path class="cls-2" d="M900.78,192.91a3,3,0,0,1-2.31,1.07,2.89,2.89,0,0,1-1.39-.35,3,3,0,0,1-1-.85,2.36,2.36,0,0,1-.49-1.19,12.67,12.67,0,0,1-.15-2.34,12.9,12.9,0,0,1,.15-2.37,2.33,2.33,0,0,1,.49-1.15,2.74,2.74,0,0,1,2.39-1.2,2.85,2.85,0,0,1,1.27.29,5.08,5.08,0,0,1,1,.8v-4.71h1.8v13h-1.8ZM899,186.38a1.78,1.78,0,0,0-1,.22,1.47,1.47,0,0,0-.54.66,3.27,3.27,0,0,0-.21.91,9.54,9.54,0,0,0,0,1.08,8.5,8.5,0,0,0,0,1,3.32,3.32,0,0,0,.21.95,1.58,1.58,0,0,0,.54.66,1.61,1.61,0,0,0,1,.25,1.7,1.7,0,0,0,1-.27,1.31,1.31,0,0,0,.5-.68,3.25,3.25,0,0,0,.24-.93c0-.34,0-.67,0-1s0-.7,0-1a3.39,3.39,0,0,0-.24-.91,1.33,1.33,0,0,0-.5-.67A1.7,1.7,0,0,0,899,186.38Z"/><path class="cls-2" d="M908,192h1.79v1.85H908Z"/></g></g></svg>